<?xml version="1.0" standalone="no"?>
<!DOCTYPE svg PUBLIC "-//W3C//DTD SVG 1.1//EN" "http://www.w3.org/Graphics/SVG/1.1/DTD/svg11.dtd" >
<svg>
<metadata>
Created by FontForge 20090914 at Thu Mar  7 14:44:51 2013
 By www-data
Copyright (c) 2011 Natanael Gama (exo@ndiscovered.com), with Reserved Font Name "Exo"
</metadata>
<defs>
<font id="Exo-Regular" horiz-adv-x="544" >
  <font-face 
    font-family="Exo"
    font-weight="400"
    font-stretch="normal"
    units-per-em="1000"
    panose-1="2 0 5 3 0 0 0 0 0 0"
    ascent="800"
    descent="-200"
    x-height="530.999"
    cap-height="732"
    bbox="-90 -273.003 1339 1002"
    underline-thickness="50"
    underline-position="-50"
    unicode-range="U+000D-U+FB06"
  />
<missing-glyph horiz-adv-x="758" 
d="M644 506l-252 -240l252 -241v481zM127 13h507l-253 243zM114 22l256 244l-256 241v-485zM635 518h-511l257 -242zM100 0v531h558v-531h-558z" />
    <glyph glyph-name="fi" unicode="fi" horiz-adv-x="608" 
d="M20 457v57l98 17v53c0 59.333 18 107.833 54 145.5s81.833 56.5 137.5 56.5s120.5 -11.333 194.5 -34v-49l-172 11h-13c-32.667 0 -62 -9.33301 -88 -28s-39 -52.667 -39 -102v-53l361 -10v-521h-75v457h-286v-457h-74v457h-98z" />
    <glyph glyph-name="fl" unicode="fl" horiz-adv-x="717" 
d="M20 457l-0.00292969 57l99 17v53c0 59.333 13.167 107.833 39.5 145.5s67.5 56.5 123.5 56.5h269v-597c0 -42 3.83301 -70.167 11.5 -84.5s22.834 -24.5 45.501 -30.5c54.667 -14 84.334 -21 89.001 -21v-53h-88c-47.333 0 -81.166 14 -101.499 42s-30.5 77 -30.5 147
v525h-178c-35.333 0 -61.833 -9 -79.5 -27s-26.5 -52.333 -26.5 -103v-53h146v-74h-148v-457h-74v457h-97z" />
    <glyph glyph-name=".notdef" horiz-adv-x="758" 
d="M644 506l-252 -240l252 -241v481zM127 13h507l-253 243zM114 22l256 244l-256 241v-485zM635 518h-511l257 -242zM100 0v531h558v-531h-558z" />
    <glyph glyph-name=".notdef" horiz-adv-x="758" 
d="M644 506l-252 -240l252 -241v481zM127 13h507l-253 243zM114 22l256 244l-256 241v-485zM635 518h-511l257 -242zM100 0v531h558v-531h-558z" />
    <glyph glyph-name="uni000D" unicode="&#xd;" horiz-adv-x="1000" 
 />
    <glyph glyph-name="space" unicode=" " horiz-adv-x="250" 
 />
    <glyph glyph-name="exclam" unicode="!" horiz-adv-x="269" 
d="M82 23v57c0 16.667 8 25 24 25h55c15.333 0 23 -8.33301 23 -25v-57c0 -15.333 -7.66699 -23 -23 -23h-55c-16 0 -24 7.66699 -24 23zM88 731h89l-7 -535h-75z" />
    <glyph glyph-name="quotedbl" unicode="&#x22;" horiz-adv-x="380" 
d="M85 732h75v-67l-10 -134h-54l-11 134v67zM220 732h75v-67l-10 -134h-54l-11 134v67z" />
    <glyph glyph-name="numbersign" unicode="#" horiz-adv-x="687" 
d="M20 232l8 52h159l26 165h-159l9 52h158l37 231h52l-37 -231h166l36 231h52l-36 -231h177l-9 -52h-177l-26 -166h177l-8 -52h-177l-37 -231h-52l37 231l-166 1l-37 -232h-52l37 232h-158zM239 284l165 -1l26 166h-165z" />
    <glyph glyph-name="dollar" unicode="$" horiz-adv-x="575" 
d="M78 72l239 -5.99805c86 0 129 30 129 90v68c0 65.333 -27.667 98 -83 98h-130c-70 0 -118.333 18.667 -145 56c-22 32 -33 70.667 -33 116v66c0.666992 66 17.5 111.833 50.5 137.5s79.167 39.167 138.5 40.5v86h58v-89c43.333 -3.33301 107 -10.333 191 -21v-58l-240 9
h-20.5c-9 0 -19.5 -0.833008 -31.5 -2.5s-24 -5.83398 -36 -12.501c-24 -14.667 -36 -44.667 -36 -90v-66c0 -65.333 34.667 -98 104 -98h130c65.333 0 109 -18.667 131 -56c17.333 -30.667 26 -69.334 26 -116.001v-68c0 -66 -23.333 -111.333 -70 -136
c-34.667 -18.667 -77 -28 -127 -28h-21v-82h-58v87l-166 20v55z" />
    <glyph glyph-name="percent" unicode="%" horiz-adv-x="955" 
d="M42 474v133c0 44 9.33301 75.833 28 95.5s52.334 29.5 101.001 29.5h101c47.333 0 80.333 -9.83301 99 -29.5s28 -51.5 28 -95.5v-133c0 -44 -9.33301 -75.833 -28 -95.5s-52.334 -29.5 -101.001 -29.5h-101c-47.333 0 -80.333 9.83301 -99 29.5s-28 51.5 -28 95.5z
M107 474c0 -24 4.33301 -40 13 -48s25 -12 49 -12h101c28 0 45.667 4 53 12s11 24 11 48v133c0 24 -4.33301 40 -13 48s-25 12 -49 12h-101c-27.333 0 -44.833 -4 -52.5 -12s-11.5 -24 -11.5 -48v-133zM227 0l438 732h71l-438 -732h-71zM556 127v133
c0 44 9.33301 75.833 28 95.5s52.334 29.5 101.001 29.5h101c47.333 0 80.333 -9.83301 99 -29.5s28 -51.5 28 -95.5v-133c0 -44 -9.33301 -75.833 -28 -95.5s-52.334 -29.5 -101.001 -29.5h-101c-47.333 0 -80.333 9.83301 -99 29.5s-28 51.5 -28 95.5zM621 127
c0 -24 4.33301 -40 13 -48s25 -12 49 -12h101c28 0 45.667 4 53 12s11 24 11 48v133c0 24 -4.33301 40 -13 48s-25 12 -49 12h-101c-27.333 0 -44.833 -4 -52.5 -12s-11.5 -24 -11.5 -48v-133z" />
    <glyph glyph-name="ampersand" unicode="&#x26;" horiz-adv-x="637" 
d="M33 205c0 61.333 27 115.002 81 161.002l86 73l-63 85c-22 32 -33 61.333 -33 88c0 33.333 11 60.666 33 81.999s45 33.166 69 35.499s48 3.5 72 3.5c63.333 0 128.333 -7.66699 195 -23v-50h-203c-30 0 -52.333 -3.33301 -67 -10s-22 -19 -22 -37s11.667 -43 35 -75
l235 -318l114 119l23 -24l-51 -107l-41 -45l117 -163h-88l-82 111l-72 -67c-34 -32 -75.333 -48 -124 -48c-72.667 0 -129 28.667 -169 86c-30 40 -45 81 -45 123zM247 68.002c25.333 0 49 9 71 27l80 75l-156 208l-78 -65c-39.333 -32 -59 -66.333 -59 -103
c0 -28 11.333 -56.333 34 -85c29.333 -38 65.333 -57 108 -57z" />
    <glyph glyph-name="quotesingle" unicode="'" horiz-adv-x="185" 
d="M55 732h75v-67l-10 -134h-54l-11 134v67z" />
    <glyph glyph-name="parenleft" unicode="(" horiz-adv-x="335" 
d="M92 149c-11.333 59.333 -17.001 116.499 -17.001 171.499s5.5 110.167 16.5 165.5s24.167 104.333 39.5 147c31.333 86 60.333 152.333 87 199l16 28h81c-15.333 -23.333 -33.5 -57.333 -54.5 -102s-38.833 -87 -53.5 -127s-28 -88.167 -40 -144.5
s-18 -111.166 -18 -164.499s5.66699 -108.666 17 -165.999s25.333 -107 42 -149c33.333 -86.667 63.333 -150.334 90 -191.001l17 -26h-81l-17 26c-7.33301 10.667 -20.166 34.334 -38.499 71.001s-34.5 74.667 -48.5 114s-26.667 88.666 -38 147.999z" />
    <glyph glyph-name="parenright" unicode=")" horiz-adv-x="335" 
d="M168 154.5c12 58.333 18.001 114.169 18.001 167.502s-5.66699 107.666 -17 162.999s-25 104.333 -41 147c-34.667 88.667 -65 155.334 -91 200.001l-17 28h81l17 -30c7.33301 -12.667 20.166 -38.834 38.499 -78.501s34.5 -79.5 48.5 -119.5s26.667 -88.167 38 -144.5
s17 -112 17 -167s-5.5 -111.833 -16.5 -170.5s-24.167 -108.667 -39.5 -150c-34 -88 -62.667 -150 -86 -186l-17 -24h-81c15.333 22 33.5 54 54.5 96s38.833 82.667 53.5 122s28 88.166 40 146.499z" />
    <glyph glyph-name="asterisk" unicode="*" horiz-adv-x="440" 
d="M50 566v40l139 29l5 -74zM118 414l24 135l72 -17l-59 -130zM176 717l39 16l75 -118l-68 -31zM208 476l41 62l110 -91l-21 -32zM251 571l120 76l19 -35l-91 -97z" />
    <glyph glyph-name="plus" unicode="+" horiz-adv-x="516" 
d="M50 319v74h170v171h74v-171h172v-74h-172v-171h-74v171h-170z" />
    <glyph glyph-name="comma" unicode="," horiz-adv-x="270" 
d="M85 25l-0.000976562 54c0 18 8.33301 27 25 27h51c16 0 24 -9 24 -27v-90c0 -18 -3.33301 -33 -10 -45c-13.333 -22.667 -35.666 -34 -66.999 -34h-8l-10 2v32h2c19.333 0 29 10.333 29 31v25h-11c-16.667 -0 -25 8.33301 -25 25z" />
    <glyph glyph-name="hyphen" unicode="-" horiz-adv-x="354" 
d="M20 253v74h314v-74h-314z" />
    <glyph glyph-name="period" unicode="." horiz-adv-x="272" 
d="M85 23v57c0 16.667 8 25 24 25h53c16.667 0 25 -8.33301 25 -25v-57c0 -15.333 -8.33301 -23 -25 -23h-53c-16 0 -24 7.66699 -24 23z" />
    <glyph glyph-name="slash" unicode="/" horiz-adv-x="400" 
d="M20 -72l281 842h79l-281 -842h-79z" />
    <glyph glyph-name="zero" unicode="0" horiz-adv-x="643" 
d="M70 162v407.999c0 52 16.167 92 48.5 120s73.5 42 123.5 42h164c57.333 0 99.5 -15.167 126.5 -45.5s40.5 -69.166 40.5 -116.499v-408c0 -108 -55.667 -162 -167 -162h-164c-50 0 -91.167 13 -123.5 39s-48.5 67 -48.5 123zM144 161.999c0 -30.667 9.5 -53 28.5 -67
s42.167 -21 69.5 -21h164c62 0 93 29.333 93 88v408c0 58.667 -31 88 -93 88h-164c-33.333 0 -58 -8.16699 -74 -24.5s-24 -37.5 -24 -63.5v-408z" />
    <glyph glyph-name="one" unicode="1" horiz-adv-x="362" 
d="M282 732v-732h-74v648l-168 -54v53l168 85h74z" />
    <glyph glyph-name="two" unicode="2" horiz-adv-x="597" 
d="M40 667v54.999c104.667 13.333 206 20 304 20c67.333 0 118 -20.667 152 -62s51 -90.666 51 -147.999c0 -36.667 -10.333 -76 -31 -118s-45 -79.833 -73 -113.5s-60.333 -67.167 -97 -100.5c-56.667 -52.667 -108.667 -94.667 -156 -126h357v-74h-500v68
c132 90 234.667 174 308 252c31.333 33.333 58.666 69.5 81.999 108.5s35 76.167 35 111.5s-10.667 65.333 -32 90s-53.666 37 -96.999 37h-303z" />
    <glyph glyph-name="three" unicode="3" horiz-adv-x="594" 
d="M30 706c52 19.333 131.669 29.001 239.002 29.001c25.333 0 51.666 -0.333008 78.999 -1c53.333 -0.666992 95.166 -16.5 125.499 -47.5s45.5 -70.167 45.5 -117.5v-69c0 -73.333 -22 -118.666 -66 -135.999c44 -28 66 -76 66 -144v-59c0 -112 -59.333 -168 -178 -168
h-59.5c-15 0 -31.5 0.166992 -49.5 0.5s-30.333 0.666016 -37 0.999023s-17.5 1 -32.5 2s-26.5 2.16699 -34.5 3.5l-30 5c-21.333 3.33301 -42 8.66602 -62 15.999l1 47h298c52.667 0 85.667 14.667 99 44c6 12.667 9 29 9 49v59c0 68 -34 103.333 -102 106l-243 7v58
l243 10c69.333 3.33301 104 36.333 104 99v69c0 30 -10.167 52.667 -30.5 68s-44.833 23 -73.5 23h-311v46z" />
    <glyph glyph-name="four" unicode="4" horiz-adv-x="603" 
d="M419 265v207l37 75h37v-282h90v-59l-90 -19v-185h-74v185h-365l-34 37l321 508h88l-294 -467h284z" />
    <glyph glyph-name="five" unicode="5" horiz-adv-x="603" 
d="M283 449l97.001 -3c56.667 0 98.167 -14.833 124.5 -44.5s39.5 -70.167 39.5 -121.5v-114c0 -32 -5.5 -59.833 -16.5 -83.5s-25.5 -41.167 -43.5 -52.5c-33.333 -22.667 -68 -34 -104 -34c-67.333 0 -119 1.33301 -155 4s-85.667 9.33398 -149 20.001v55h304
c31.333 0 54.166 9 68.499 27s21.5 40 21.5 66v110c0 44.667 -13 73 -39 85c-13.333 6 -30.333 9 -51 9h-154c-22 0 -41.167 -6.33301 -57.5 -19s-24.5 -31.334 -24.5 -56.001h-66l22 435h422v-74h-354l-12 -242c18 22 60.333 33 127 33z" />
    <glyph glyph-name="six" unicode="6" horiz-adv-x="623" 
d="M65 384c0 122 16.8281 211.5 50.4951 268.5s74.167 85.5 121.5 85.5c108.667 0 209.334 -6.33301 302.001 -19v-55h-289c-21.333 0 -39.666 -9 -54.999 -27s-26.666 -41.667 -33.999 -71c-13.333 -53.333 -20.666 -106.333 -21.999 -159c119.333 14 208.5 21 267.5 21
s99.833 -13.333 122.5 -40s34 -63 34 -109v-131c0 -99.333 -53.667 -149 -161 -149h-149c-29.333 0 -54.666 5.5 -75.999 16.5s-41 30.167 -59 57.5c-35.333 55.333 -53 159 -53 311zM138.995 354c0 -82.667 5.33398 -141.334 16.001 -176.001
c5.33301 -18 11.666 -35.333 18.999 -52c16 -35.333 42.333 -53 79 -53h149c29.333 0 51.333 5.33301 66 16s22 32.334 22 65.001v125c0 50 -29.333 75 -88 75h-263z" />
    <glyph glyph-name="seven" unicode="7" horiz-adv-x="546" 
d="M30 658v74h459l27 -48l-265 -684h-88l258 658h-391z" />
    <glyph glyph-name="eight" unicode="8" horiz-adv-x="634" 
d="M75 154l-0.00292969 97.998c0 22.667 4.66699 41.834 14 57.501s19.333 26.5 30 32.5s24.334 11.667 41.001 17c-29.333 10 -50.833 28.167 -64.5 54.5s-20.5 54.833 -20.5 85.5v65c0 63.333 15.333 108 46 134s74 39 130 39h146c54.667 0 95.334 -13.667 122.001 -41
s40 -71.333 40 -132v-65v-10.5c0 -4.33301 -0.5 -10.333 -1.5 -18s-3.66699 -18.167 -8 -31.5s-12.166 -25.166 -23.499 -35.499s-25.333 -17.166 -42 -20.499c24.667 -4.66699 43.5 -21 56.5 -49s19.167 -55.333 18.5 -82v-98c0 -30.667 -5.33301 -56.834 -16 -78.501
s-25 -37.5 -43 -47.5c-31.333 -18.667 -66 -28 -104 -28h-145c-32.667 0 -60.667 4.16699 -84 12.5s-40.833 18 -52.5 29s-20.5 24.5 -26.5 40.5c-8.66699 22 -13 46 -13 72zM148.997 150.998c0 -51.333 34 -77 102 -77h145c24 0 44.833 6.66699 62.5 20
s26.5 32.333 26.5 57v105c0 26.667 -8.33301 46.834 -25 60.501s-37 20.5 -61 20.5h-159c-26 0 -47.667 -6.33301 -65 -19s-26 -33.334 -26 -62.001v-105zM148.997 493.998c0 -30 9.5 -51.5 28.5 -64.5s39.833 -19.5 62.5 -19.5h159c57.333 0 86 28 86 84v68
c0 36 -7.16699 61.833 -21.5 77.5s-36.5 23.5 -66.5 23.5h-146c-36 0 -62 -6.33301 -78 -19s-24 -40 -24 -82v-68z" />
    <glyph glyph-name="nine" unicode="9" horiz-adv-x="623" 
d="M60 458l0.00488281 131c0 99.333 53.667 149 161 149h149c29.333 0 54.666 -5.5 75.999 -16.5s40.666 -30.167 57.999 -57.5c36 -55.333 54 -159 54 -311c0 -122 -16.833 -211.5 -50.5 -268.5s-74.167 -85.5 -121.5 -85.5c-140 0 -240.667 6.33301 -302 19v55h289
c21.333 0 39.666 9 54.999 27s26.666 41.667 33.999 71c13.333 53.333 20.666 106.333 21.999 159c-118.667 -14 -207.667 -21 -267 -21s-100.333 13.333 -123 40s-34 63 -34 109zM133.005 458c0 -50 29.333 -74.998 88 -74.998h263c0 82 -5.33301 141 -16 177
c-5.33301 17.333 -12 34.666 -20 51.999c-15.333 34.667 -41.333 52 -78 52h-149c-29.333 0 -51.333 -5.33301 -66 -16s-22 -32.334 -22 -65.001v-125z" />
    <glyph glyph-name="colon" unicode=":" horiz-adv-x="272" 
d="M85 23v57c0 16.667 8 25 24 25h53c16.667 0 25 -8.33301 25 -25v-57c0 -15.333 -8.33301 -23 -25 -23h-53c-16 0 -24 7.66699 -24 23zM85 450v57c0 16.667 8 25 24 25h53c16.667 0 25 -8.33301 25 -25v-57c0 -15.333 -8.33301 -23 -25 -23h-53c-16 0 -24 7.66699 -24 23z
" />
    <glyph glyph-name="semicolon" unicode=";" horiz-adv-x="274" 
d="M85 25v54.001c0 7.33301 2.33301 13.666 7 18.999s10.667 8 18 8h51c7.33301 0 13.166 -2.5 17.499 -7.5s6.5 -11.5 6.5 -19.5v-90c0 -18 -3.33301 -33 -10 -45c-13.333 -22.667 -35.666 -34 -66.999 -34h-8l-10 2v32h2c19.333 0 29 10.333 29 31v25h-11
c-6.66699 0 -12.5 2.66699 -17.5 8s-7.5 11 -7.5 17zM87 451.001v57c0 16.667 8 25 24 25h53c16.667 0 25 -8.33301 25 -25v-57c0 -15.333 -8.33301 -23 -25 -23h-53c-16 0 -24 7.66699 -24 23z" />
    <glyph glyph-name="less" unicode="&#x3c;" horiz-adv-x="475" 
d="M50 314v80l375 162v-80l-276 -122l276 -132v-82z" />
    <glyph glyph-name="equal" unicode="=" horiz-adv-x="467" 
d="M20 212v74h427v-74h-427zM20 421v74h427v-74h-427z" />
    <glyph glyph-name="greater" unicode="&#x3e;" horiz-adv-x="475" 
d="M50 140v82l276 132l-276 122v80l375 -162v-80z" />
    <glyph glyph-name="question" unicode="?" horiz-adv-x="541" 
d="M200 739l70 2c14 0 24.667 -0.666992 32 -2c70.667 0 121.5 -17.167 152.5 -51.5s46.5 -78.833 46.5 -133.5v-101c0 -64.667 -22.333 -109.667 -67 -135c-31.333 -18 -69.333 -27 -114 -27c-19.333 0 -40 1.66699 -62 5v-101h-75v162h142c28 1.33301 52.167 10 72.5 26
s30.5 39.333 30.5 70v101c0 38.667 -10.667 66.667 -32 84s-56.333 26 -105 26h-271v55c33.333 5.33301 58.833 8.83301 76.5 10.5s37.667 3.66699 60 6s36.833 3.5 43.5 3.5zM170 23v57c0 16.667 8 25 24 25h55c15.333 0 23 -8.33301 23 -25v-57
c0 -15.333 -7.66699 -23 -23 -23h-55c-16 0 -24 7.66699 -24 23z" />
    <glyph glyph-name="at" unicode="@" horiz-adv-x="844" 
d="M65 0l-0.00585938 348.002c0 50 12.333 89 37 117c10.667 12 27.334 22.833 50.001 32.5s49.667 14.5 81 14.5h215c42 0 78 -10.833 108 -32.5s45 -57.5 45 -107.5v-372h-56l-14 64l-10 -8c-58 -43.333 -115 -65 -171 -65c-35.333 0 -65.166 11 -89.499 33
s-36.166 50 -35.499 84v53c0 40.667 11.333 73 34 97s54.334 36 95.001 36h175c0.666992 25.333 1 44.333 1 57s-0.333008 19 -1 19c0 26.667 -6.66699 44.667 -20 54s-34.666 14 -63.999 14h-212c-29.333 0 -52.333 -6 -69 -18s-25 -36 -25 -72v-348
c0 -68.667 31.333 -103 94 -103h349c39.333 0 66.333 8.16699 81 24.5s22 42.5 22 78.5v512c0 37.333 -9.33301 65.666 -28 84.999s-43.667 29 -75 29h-404v47c86.667 18 179 27 277 27h11h116c54.667 -1.33301 97.834 -17.833 129.501 -49.5s47.5 -77.834 47.5 -138.501
v-512c0 -118.667 -59 -178 -177 -178h-349c-52 0 -93 15.333 -123 46s-45 74.667 -45 132zM298.994 114.002c0 -11.333 6.00098 -22.333 18.001 -33s25.333 -16 40 -16h16c9.33301 0 25.666 3.33301 48.999 10s40.333 12.5 51 17.5l56 26.5v123l-170 -16
c-19.333 -2 -34.333 -9.16699 -45 -21.5s-15.667 -27.5 -15 -45.5v-45z" />
    <glyph glyph-name="A" unicode="A" horiz-adv-x="670" 
d="M45 0l269 732h74l257 -732h-88l-63 204h-292l-66 -204h-91zM229 278h239l-118 341z" />
    <glyph glyph-name="B" unicode="B" horiz-adv-x="596" 
d="M80 0l0.000976562 732h282c66 0 114.167 -19.333 144.5 -58s45.5 -82.667 45.5 -132c0 -88.667 -30.667 -142.667 -92 -162c25.333 -6 47.666 -23.833 66.999 -53.5s29 -70.5 29 -122.5c0 -56 -13 -102.667 -39 -140c-30 -42.667 -81.667 -64 -155 -64h-282zM155.001 74
h207c80 0 120 44 120 132c0 40 -10 73.333 -30 100s-50 40 -90 40h-207v-272zM155.001 420h207c77.333 0 116 39.667 116 119s-38.667 119 -116 119h-207v-238z" />
    <glyph glyph-name="C" unicode="C" horiz-adv-x="578" 
d="M543 656c-120 6.66699 -201.5 9.99902 -244.5 9.99902s-76.333 -8.16699 -100 -24.5s-41.167 -46 -52.5 -89s-17 -105.167 -17 -186.5c0 -198.667 56.667 -298 170 -298l244 7v-59c-78.667 -14.667 -160 -22 -244 -22c-162.667 0 -244 124.667 -244 374
c0 126.667 17.167 220.334 51.5 281.001s98.5 91 192.5 91c72.667 0 154 -8.33301 244 -25v-59z" />
    <glyph glyph-name="D" unicode="D" horiz-adv-x="657" 
d="M80 0l0.000976562 732.001h272c43.333 0 81.166 -8.16699 113.499 -24.5s57.5 -36.833 75.5 -61.5s32.667 -54.334 44 -89.001c18 -55.333 27 -120 27 -194c0 -72.667 -12 -139 -36 -199c-28 -68 -69 -115.333 -123 -142c-30 -14.667 -63.667 -22 -101 -22h-272z
M154.001 77.001h198.001c42 0 77.333 13.667 106 41c53.333 50 80 129.333 80 238s-15.833 186.167 -47.5 232.5s-77.834 69.5 -138.501 69.5h-198v-581z" />
    <glyph glyph-name="E" unicode="E" horiz-adv-x="567" 
d="M80 602c0 46 11.5 79.166 34.5 99.499s51.5 30.5 85.5 30.5h6l316 -16v-58h-316c-16 0 -28.167 -3.16699 -36.5 -9.5s-13 -12.666 -14 -18.999s-1.5 -15.5 -1.5 -27.5v-200l328 -10v-59l-328 -10v-200c0 -16.667 3.66699 -29 11 -37s14.333 -12.5 21 -13.5
s16.667 -1.5 30 -1.5h306v-57l-306 -17h-15c-80.667 0 -121 42 -121 126v479z" />
    <glyph glyph-name="F" unicode="F" horiz-adv-x="567" 
d="M80 0v601.999c0 46 11.5 79.167 34.5 99.5s51.5 30.5 85.5 30.5h6l316 -16v-58h-316c-16 0 -28.167 -3.16699 -36.5 -9.5s-13 -12.666 -14 -18.999s-1.5 -15.5 -1.5 -27.5v-200l328 -10v-59l-328 -10v-323h-74z" />
    <glyph glyph-name="G" unicode="G" horiz-adv-x="614" 
d="M59.5 248.5c-3 34.333 -4.5 77.001 -4.5 128.001s3 96.667 9 137s17 78.5 33 114.5c32.667 74.667 96.667 112 192 112c26 0 66.167 -2.83301 120.5 -8.5s98.833 -11.834 133.5 -18.501v-59c-6 0 -22.667 1 -50 3s-51.666 3.66699 -72.999 5
c-42.667 2.66699 -86.334 4 -131.001 4c-63.333 0 -105.833 -22.833 -127.5 -68.5s-32.5 -123.167 -32.5 -232.5s12 -186 36 -230s66.667 -66.333 128 -67c22.667 0 50 3.83301 82 11.5s58.333 15.167 79 22.5l31 12v200h-168v50c60.667 16.667 118.667 25 174 25
c21.333 0 44 -1 68 -3v-386h-56l-16 49c-65.333 -36 -130 -54 -194 -54h-6c-37.333 0 -70.333 6.33301 -99 19s-51.5 29.5 -68.5 50.5s-30.5 48.333 -40.5 82s-16.5 67.667 -19.5 102z" />
    <glyph glyph-name="H" unicode="H" horiz-adv-x="638" 
d="M80 0v732h74v-341h350v341h74v-732h-74v317h-350v-317h-74z" />
    <glyph glyph-name="I" unicode="I" horiz-adv-x="214" 
d="M80 0v732h74v-732h-74z" />
    <glyph glyph-name="J" unicode="J" horiz-adv-x="359" 
d="M247 18c-25.333 -16 -60.1689 -24 -104.502 -24s-80.166 9 -107.499 27l4 54c42.667 -10.667 76 -16 100 -16c56.667 0 85.334 35.333 86.001 106v567h74v-567c0 -76 -17.333 -125 -52 -147z" />
    <glyph glyph-name="K" unicode="K" horiz-adv-x="591" 
d="M80 0v732h74v-328h82l230 328h90l-252 -365l252 -367h-90l-230 330h-81v-330h-75z" />
    <glyph glyph-name="L" unicode="L" horiz-adv-x="557" 
d="M80 126l-0.000976562 605.999h74v-606c0 -25.333 7 -40.666 21 -45.999c10.667 -4 24.334 -6 41.001 -6h306v-74h-306c-38 0 -68.667 6.66699 -92 20c-29.333 16.667 -44 52 -44 106z" />
    <glyph glyph-name="M" unicode="M" horiz-adv-x="801" 
d="M55 0l48 732h102l195 -609l189 609h101l56 -732h-74l-45 598l-188 -598h-76l-194 598l-40 -598h-74z" />
    <glyph glyph-name="N" unicode="N" horiz-adv-x="680" 
d="M80 0v732h76l390 -594v594h74v-732h-74l-391 594v-594h-75z" />
    <glyph glyph-name="O" unicode="O" horiz-adv-x="676" 
d="M73 218.5c-5.33301 40.333 -8 88.167 -8 143.5s3 103.833 9 145.5s15.333 76.167 28 103.5s26.5 49.5 41.5 66.5s34.167 29.833 57.5 38.5c38 14 87.333 21 148 21c87.333 0 148.666 -13.333 183.999 -40c34 -26 58.333 -63 73 -111c16.667 -58.667 25 -126.667 25 -204
s-4.16699 -138.166 -12.5 -182.499s-19.666 -79.833 -33.999 -106.5s-34 -47.167 -59 -61.5s-50.833 -23.833 -77.5 -28.5s-58.167 -7 -94.5 -7s-65.833 1.33301 -88.5 4s-45.667 8.16699 -69 16.5s-42.333 20.666 -57 36.999s-28 37.833 -40 64.5s-20.667 60.167 -26 100.5
zM142 450.001c-2 -26.667 -2.99316 -64.333 -2.99316 -113s3.16699 -92 9.5 -130s18.666 -67.333 36.999 -88s39.5 -34 63.5 -40s55 -9 93 -9s67.667 2.16699 89 6.5s40.666 12.333 57.999 24s30.666 28.5 39.999 50.5c18.667 44 28 114 28 210c0 104.667 -8 175 -24 211
c-6.66699 15.333 -12.667 28 -18 38s-13.333 18.5 -24 25.5s-19.834 12.333 -27.501 16s-19 6.33398 -34 8.00098s-27.5 2.66699 -37.5 3s-24.333 0.5 -43 0.5s-32.834 -0.166992 -42.501 -0.5s-22 -1.33301 -37 -3s-26.5 -4.33398 -34.5 -8.00098s-17.333 -9 -28 -16
s-18.834 -15.5 -24.501 -25.5s-11.834 -22.5 -18.501 -37.5s-11.5 -32.5 -14.5 -52.5s-5.5 -43.333 -7.5 -70z" />
    <glyph glyph-name="P" unicode="P" horiz-adv-x="581" 
d="M60 0l0.000976562 732h301c116.667 0 175 -70.667 175 -212c0 -109.333 -27.333 -177.333 -82 -204c-17.333 -8 -32.666 -13 -45.999 -15s-29.333 -3 -48 -3s-60.334 3 -125.001 9s-98.334 9.66699 -101.001 11v-318h-74zM134.001 372h227c32 0 56.667 9.66699 74 29
s26 59 26 119c-1.33301 62 -14.333 101.333 -39 118c-18 12.667 -38.333 19 -61 19h-227v-285z" />
    <glyph glyph-name="Q" unicode="Q" horiz-adv-x="676" 
d="M73 218.5c-5.33301 40.333 -8.00098 91.001 -8.00098 152.001s4.5 114.833 13.5 161.5s20.833 83.334 35.5 110.001s34.834 47.167 60.501 61.5s51.167 23.5 76.5 27.5s55.833 6 91.5 6s64.5 -1.33301 86.5 -4s44.667 -8.33398 68 -17.001s42.5 -21.5 57.5 -38.5
s28.833 -39.167 41.5 -66.5c23.333 -52.667 35 -136 35 -250c0 -120 -15.667 -209.333 -47 -268c-14.667 -26.667 -34.667 -47.167 -60 -61.5s-51.333 -23.833 -78 -28.5s-58.167 -7 -94.5 -7s-65.833 1.33301 -88.5 4s-45.667 8.16699 -69 16.5s-42 20.666 -56 36.999
s-27 37.833 -39 64.5s-20.667 60.167 -26 100.5zM141.999 450.001c-2 -26.667 -2.99512 -64.333 -2.99512 -113s3.16699 -92 9.5 -130s18.333 -67.333 36 -88s38.5 -34 62.5 -40s57.167 -9 99.5 -9s75.666 3.5 99.999 10.5s45.5 21 63.5 42s30.333 50.333 37 88
s10 80.5 10 128.5s-1 85.167 -3 111.5s-4.5 49.5 -7.5 69.5s-7.66699 37.5 -14 52.5s-12.333 27.5 -18 37.5s-13.834 18.5 -24.501 25.5s-19.834 12.333 -27.501 16s-19.167 6.33398 -34.5 8.00098s-28 2.66699 -38 3s-24.333 0.5 -43 0.5s-32.834 -0.166992 -42.501 -0.5
s-22 -1.33301 -37 -3s-26.333 -4.33398 -34 -8.00098s-16.834 -9 -27.501 -16s-18.667 -15.5 -24 -25.5s-11.333 -22.5 -18 -37.5s-11.5 -32.5 -14.5 -52.5s-5.5 -43.333 -7.5 -70zM369.004 -32.998c33.333 -23.333 64 -35 92 -35s53.333 5 76 15v-80
c-22 -6 -40.333 -9 -55 -9h-30c-30.667 2 -59.5 12.833 -86.5 32.5s-43.167 45.167 -48.5 76.5h52z" />
    <glyph glyph-name="R" unicode="R" horiz-adv-x="593" 
d="M60 0v732h312c112.667 0 169 -73.333 169 -220c0 -128 -42.333 -198 -127 -210l154 -302h-80l-154 299l-200 14v-313h-74zM134 379l238 0.000976562c39.333 0 64 9.66699 74 29c13.333 23.333 20 61.166 20 113.499s-8.66699 88 -26 107s-40 28.5 -68 28.5h-238v-278z
" />
    <glyph glyph-name="S" unicode="S" horiz-adv-x="584" 
d="M65 494l0.00195312 65.999c0 67.333 17.333 113.833 52 139.5s79 38.5 133 38.5s141.667 -8 263 -24v-60l-250 10h-16c-34 0 -60.5 -6 -79.5 -18s-28.5 -40.667 -28.5 -86v-66c0 -41.333 8.16699 -68 24.5 -80s42.166 -18 77.499 -18h142c104 0 156 -57.333 156 -172v-68
c0 -67.333 -21.667 -112.666 -65 -135.999c-36 -18.667 -81.667 -28 -137 -28c-23.333 0 -64.5 3 -123.5 9s-101.167 11.333 -126.5 16v60c73.333 -7.33301 156.666 -11 249.999 -11c85.333 0 128 30 128 90v68c0 31.333 -6 55.5 -18 72.5s-33.333 25.5 -64 25.5h-140
c-76 0 -125.667 18.333 -149 55c-19.333 30.667 -29 69.667 -29 117z" />
    <glyph glyph-name="T" unicode="T" horiz-adv-x="578" 
d="M45 658v74h508v-74h-220v-658h-74v658h-214z" />
    <glyph glyph-name="U" unicode="U" horiz-adv-x="677" 
d="M80 320l-0.000976562 412h74v-412c0 -60.667 3.83301 -108.834 11.5 -144.501s21.834 -60.834 42.501 -75.501s39.334 -23.5 56.001 -26.5s34.667 -4.5 54 -4.5h33c47.333 0 76.666 2.33301 87.999 7s22 9.83398 32 15.501s18 12.667 24 21s12.333 18.833 19 31.5
s12 27.334 16 44.001c8 36.667 12 80.667 12 132v412h75v-412c0 -62 -5.83301 -114.5 -17.5 -157.5s-25 -75.167 -40 -96.5s-36.333 -37.666 -64 -48.999s-50.5 -17.833 -68.5 -19.5s-35.667 -2.5 -53 -2.5h-42.5c-11 0 -21 0.166992 -30 0.5s-21.667 1 -38 2
s-28.833 3 -37.5 6l-33.5 12c-13.667 5 -24.334 11.667 -32.001 20l-26.5 29.5c-10 11.333 -17.667 25.166 -23 41.499s-10.666 34.833 -15.999 55.5c-10 38 -15 90.667 -15 158z" />
    <glyph glyph-name="V" unicode="V" horiz-adv-x="670" 
d="M45 732h81l214 -614l224 614h81l-269 -732h-74z" />
    <glyph glyph-name="W" unicode="W" horiz-adv-x="962" 
d="M45 732h81l213 -603l181 603h84l-68 -234l133 -375l187 609h81l-229 -732h-74l-137 374l-121 -374h-74z" />
    <glyph glyph-name="X" unicode="X" horiz-adv-x="596" 
d="M45 732h81l180 -307l184 307h81l-216 -361l211 -371h-81l-179 308l-177 -308h-81l209 371z" />
    <glyph glyph-name="Y" unicode="Y" horiz-adv-x="630" 
d="M352 0h-74v260l-233 472h81l189 -384l209 384h81l-253 -472v-260z" />
    <glyph glyph-name="Z" unicode="Z" horiz-adv-x="563" 
d="M35 0v74l396 584h-396v74h493v-74l-396 -584h396v-74h-493z" />
    <glyph glyph-name="bracketleft" unicode="[" horiz-adv-x="321" 
d="M85 -38v708c0 38.667 7.33301 74.667 22 108c8.66699 19.333 22.667 34.833 42 46.5s43.333 17.5 72 17.5h80v-74h-80c-18.667 0 -33.667 -8.83301 -45 -26.5s-17 -41.5 -17 -71.5v-708c0 -30 5.66699 -53.833 17 -71.5s26.333 -26.5 45 -26.5h80v-74h-80
c-28.667 0 -52.667 5.83301 -72 17.5s-33.333 27.167 -42 46.5c-14.667 33.333 -22 69.333 -22 108z" />
    <glyph glyph-name="backslash" unicode="\" horiz-adv-x="400" 
d="M20 770h79l281 -842h-79z" />
    <glyph glyph-name="bracketright" unicode="]" horiz-adv-x="321" 
d="M20 -136h80c18.667 0 33.667 8.83301 45 26.5s17 41.5 17 71.5v708c0 30 -5.66699 53.833 -17 71.5s-26.333 26.5 -45 26.5h-80v74h80c28.667 0 52.667 -5.83301 72 -17.5s33.333 -27.167 42 -46.5c14.667 -33.333 22 -69.333 22 -108v-708
c0 -38.667 -7.33301 -74.667 -22 -108c-8.66699 -19.333 -22.667 -34.833 -42 -46.5s-43.333 -17.5 -72 -17.5h-80v74z" />
    <glyph glyph-name="asciicircum" unicode="^" horiz-adv-x="392" 
d="M50 531l117 130h71l104 -130h-71l-70 71l-79 -71h-72z" />
    <glyph glyph-name="underscore" unicode="_" horiz-adv-x="674" 
d="M20 -1v74h634v-74h-634z" />
    <glyph glyph-name="grave" unicode="`" horiz-adv-x="242" 
d="M20 664h95l107 -133h-69z" />
    <glyph glyph-name="a" unicode="a" horiz-adv-x="519" 
d="M57 511c72 20 159.334 30.001 262.001 30.001c43.333 0 79.166 -12.667 107.499 -38s42.5 -64 42.5 -116v-387h-55l-19 64l-15 -7c-86.667 -42 -155.667 -63 -207 -63c-38 0 -69.667 11.667 -95 35s-38 55.666 -38 96.999v61c0 40.667 11.833 73 35.5 97
s56.167 36 97.5 36h166.5h55.5c0.666992 22 1 38.5 1 49.5s-0.333008 16.833 -1 17.5c0 54.667 -28.667 82 -86 82s-141.333 -4 -252 -12v54zM114.001 131.001c0 -42 19.667 -63 59 -63c24 0 54.5 4.33301 91.5 13s68.167 17 93.5 25l37 13v143l-222 -16
c-20 -2 -34.833 -9 -44.5 -21s-14.5 -26.667 -14.5 -44v-50z" />
    <glyph glyph-name="b" unicode="b" horiz-adv-x="554" 
d="M60 0l0.00390625 785h72v-286c30 12 64.167 21.667 102.5 29s72.666 11 102.999 11s57.666 -7.66699 81.999 -23s42.5 -37.333 54.5 -66c20 -49.333 30 -111.666 30 -186.999c0 -68.667 -11 -128.334 -33 -179.001c-12 -28 -30 -50 -54 -66s-52.333 -24 -85 -24
s-69.834 7.83301 -111.501 23.5s-70.834 29.5 -87.501 41.5l-20 -59h-53zM329.004 68c67.333 0 101.001 65 101.001 195c0 77.333 -8.16699 130.333 -24.5 159s-41.833 43 -76.5 43c-64 0 -129.333 -8.66699 -196 -26v-325c75.333 -30.667 140.666 -46 195.999 -46z" />
    <glyph glyph-name="c" unicode="c" horiz-adv-x="500" 
d="M50 266c0 56 4.16895 102.501 12.502 139.501s20.833 64.667 37.5 83s34.667 30.833 54 37.5s50.666 10 93.999 10s111.666 -8.66699 204.999 -26v-54c-92.667 4 -158.334 6 -197.001 6s-63 -1.66699 -73 -5s-20.333 -11 -31 -23c-18.667 -23.333 -28 -76.5 -28 -159.5
s7.5 -138 22.5 -165s41.167 -40.5 78.5 -40.5c62.667 0 128.334 2.66699 197.001 8l38 3v-56c-64 -18 -142.333 -27.667 -235 -29c-27.333 0 -50.5 3.33301 -69.5 10s-37 19.167 -54 37.5s-29.833 46.166 -38.5 83.499s-13 84 -13 140z" />
    <glyph glyph-name="d" unicode="d" horiz-adv-x="554" 
d="M57.5 168.5c-5 29 -7.49707 61.667 -7.49707 98s2.16699 69 6.5 98s12.166 57.5 23.499 85.5c24.667 59.333 73 89 145 89c24.667 0 56 -3.66699 94 -11s72 -17 102 -29v286h73v-785h-53l-20 59c-16.667 -12 -45.834 -25.833 -87.501 -41.5s-78.834 -23.5 -111.501 -23.5
s-61 8 -85 24s-42 37.833 -54 65.5s-20.5 56 -25.5 85zM124.003 263c0 -130 33.668 -195 101.001 -195c55.333 0 120.666 15.333 195.999 46v325c-66.667 17.333 -132 26 -196 26c-34.667 0 -60.167 -14.333 -76.5 -43s-24.5 -81.667 -24.5 -159z" />
    <glyph glyph-name="e" unicode="e" horiz-adv-x="525" 
d="M50 268c0 58.667 4.00098 105.832 12.001 141.499s22.5 62.667 43.5 81s44.333 30.333 70 36s59 8.5 100 8.5s71.833 -1.66699 92.5 -5s41 -11 61 -23s34.333 -31 43 -57s13 -60.333 13 -103c0 -81.333 -45.667 -122 -137 -122h-224c0 -62 7 -103.5 21 -124.5
s40.667 -31.5 80 -31.5c121.333 0 204.666 3.33301 249.999 10v-56c-66 -18.667 -149.333 -28 -250 -28c-67.333 0 -113.333 19.333 -138 58s-37 110.334 -37 215.001zM124.001 297.998l224.001 0.000976562c42 0 63 16.333 63 49c0 51.333 -7.5 83.166 -22.5 95.499
s-50.167 18.5 -105.5 18.5c-68.667 0 -109.667 -7 -123 -21c-18.667 -20 -29.334 -42 -32.001 -66s-4 -49.333 -4 -76z" />
    <glyph glyph-name="f" unicode="f" horiz-adv-x="400" 
d="M20 457v57l97 17v99c0 54 9.33301 93.333 28 118c8 10 20.167 18.833 36.5 26.5s40.5 11.5 72.5 11.5s74 -8 126 -24v-49l-123 1c-30.667 0 -49.667 -8 -57 -24c-6 -14 -9 -34 -9 -60v-99h148v-74h-148v-457h-74v457h-97z" />
    <glyph glyph-name="g" unicode="g" horiz-adv-x="554" 
d="M48 115c0 18.667 4.99805 36.165 14.998 52.498s24.667 26.5 44 30.5c-38.667 24.667 -58 70.667 -58 138s15.167 117 45.5 149s72.833 48 127.5 48h312v-56l-81 -18c0.666992 -1.33301 3 -5.5 7 -12.5s7 -12.667 9 -17s4.33301 -10.833 7 -19.5
c5.33301 -16 8 -35.667 8 -59s-2.16699 -44.666 -6.5 -63.999s-11.833 -40.166 -22.5 -62.499s-27.667 -40.5 -51 -54.5s-51.666 -21 -84.999 -21h-156c-27.333 0 -41 -10 -41 -30c0 -22.667 13.667 -34 41 -34h213c40.667 0 72.334 -12.5 95.001 -37.5s34 -58.5 34 -100.5
v-63c0 -36 -8.33301 -68.667 -25 -98c-10 -17.333 -25.667 -31 -47 -41s-47.333 -15 -78 -15h-150c-48.667 0 -87.5 13 -116.5 39s-43.5 64.333 -43.5 115v85l40 65c-24.667 17.333 -37 44.333 -37 81zM163.998 10.998c-18 0 -33 2.66797 -45 8.00098v-135
c0 -53.333 28.667 -80 86 -80h150c50.667 0 76 26.667 76 80v58c0 25.333 -4.5 43.166 -13.5 53.499s-27.167 15.5 -54.5 15.5h-199zM122.998 343.999c0 -28 4.33301 -51.332 13 -69.999c16 -34 42.333 -51 79 -51h98c36 0 61.167 12.167 75.5 36.5s21.5 50.166 21.5 77.499
c0 40 -7.16699 70.333 -21.5 91s-39.833 31 -76.5 31h-90c-66 0 -99 -38.333 -99 -115z" />
    <glyph glyph-name="h" unicode="h" 
d="M60 0l-0.000976562 784.001h74v-315c2 0.666992 9.33301 4.83398 22 12.501s20.5 12.167 23.5 13.5s10.167 5.16602 21.5 11.499s19.333 10.166 24 11.499s12.334 4 23.001 8s19.334 6.66699 26.001 8c21.333 4 40 6 56 6c50.667 0 90.667 -16.667 120 -50
s44 -73.333 44 -120v-370h-74v370c0 32 -8.16699 56 -24.5 72s-37.666 24 -63.999 24s-50.833 -2.66699 -73.5 -8s-40.834 -10.833 -54.501 -16.5s-36.834 -16.5 -69.501 -32.5v-409h-74z" />
    <glyph glyph-name="i" unicode="i" horiz-adv-x="197" 
d="M50 617v54c0 16.667 8 25 24 25h50c15.333 0 23 -8.33301 23 -25v-54c0 -15.333 -7.66699 -23 -23 -23h-50c-16 0 -24 7.66699 -24 23zM60 0v531h74v-531h-74z" />
    <glyph glyph-name="j" unicode="j" horiz-adv-x="217" 
d="M60 617v54c0 16.667 8 25 24 25h50c15.333 0 23 -8.33301 23 -25v-54c0 -15.333 -7.66699 -23 -23 -23h-50c-16 0 -24 7.66699 -24 23zM71 -270v801h74v-535v-23c0 -106 -8.66699 -187 -26 -243h-48z" />
    <glyph glyph-name="k" unicode="k" horiz-adv-x="500" 
d="M60 0v782h74v-440h40l203 189h103l-236 -226l236 -305h-92l-214 268h-40v-268h-74z" />
    <glyph glyph-name="l" unicode="l" horiz-adv-x="300" 
d="M60 189v594.002h74v-594c0 -40.667 4.66699 -68.834 14 -84.501s23.666 -25.834 42.999 -30.501c54.667 -14 84.334 -21 89.001 -21v-53h-88c-88 0 -132 63 -132 189z" />
    <glyph glyph-name="m" unicode="m" horiz-adv-x="898" 
d="M60 0l0.000976562 531h52l22 -64c4 2.66699 12.167 7.5 24.5 14.5l26 15c5 3 13 7.16699 24 12.5s20.167 9 27.5 11l25 9c16 5.33301 38.667 8 68 8s57.333 -7 84 -21s45.667 -33 57 -57c62.667 52 134 78 214 78c46.667 0 85.667 -16 117 -48s47 -73 47 -123v-366h-74
v366c0 29.333 -8.5 52.833 -25.5 70.5s-38.5 26.5 -64.5 26.5c-40 0 -74.5 -4 -103.5 -12s-59.833 -22.667 -92.5 -44v-407h-74v366c0 29.333 -8.5 52.833 -25.5 70.5s-38.333 26.5 -64 26.5s-49.334 -2.66699 -71.001 -8s-38.5 -10.5 -50.5 -15.5s-35 -15.833 -69 -32.5
v-407h-74z" />
    <glyph glyph-name="n" unicode="n" 
d="M60 0v531.002h52l22 -62c2 0.666992 9.33301 4.83398 22 12.501s20.5 12.167 23.5 13.5s10.167 5.16602 21.5 11.499s19.333 10.166 24 11.499s12.334 4 23.001 8s19.334 6.66699 26.001 8c21.333 4 40 6 56 6c50.667 0 90.667 -16.667 120 -50s44 -73.333 44 -120v-370
h-74v370c0 31.333 -8.33301 55.166 -25 71.499s-38 24.5 -64 24.5s-50.333 -2.66699 -73 -8s-40.834 -10.833 -54.501 -16.5s-36.834 -16.5 -69.501 -32.5v-409h-74z" />
    <glyph glyph-name="o" unicode="o" horiz-adv-x="568" 
d="M101 54c-34 39.333 -51 110.001 -51 212.001s17 172.5 51 211.5s95.333 58.5 184 58.5s149.667 -19.833 183 -59.5s50 -110.834 50 -213.501s-16.667 -173 -50 -211s-94.333 -57 -183 -57s-150 19.667 -184 59zM130.5 352.501
c-4.33301 -25 -6.49805 -57.8311 -6.49805 -98.498s3.16699 -74 9.5 -100s17.333 -45 33 -57s31.667 -19.667 48 -23s39.666 -5 69.999 -5s54 1.66699 71 5s33 11.166 48 23.499s25.5 31.333 31.5 57s9 61.167 9 106.5s-2.5 81.666 -7.5 108.999s-14.833 47.833 -29.5 61.5
s-30.5 22.167 -47.5 25.5s-40.167 5 -69.5 5s-51.333 -1 -66 -3s-29.334 -6.66699 -44.001 -14s-25.5 -18.333 -32.5 -33s-12.667 -34.5 -17 -59.5z" />
    <glyph glyph-name="p" unicode="p" horiz-adv-x="554" 
d="M60 -270l-0.000976562 800.999h53l19 -59c16.667 12 46 25.833 88 41.5s79.333 23.5 112 23.5s61 -8 85 -24s42 -37.667 54 -65c22 -51.333 33 -111.333 33 -180c0 -133.333 -28 -217.666 -84 -252.999c-24.667 -15.333 -52.167 -23 -82.5 -23
s-64.666 3.66699 -102.999 11s-72.5 17 -102.5 29v-302h-72zM328.999 65.999c34.667 0 60.166 14.333 76.499 43s24.5 81.667 24.5 159c0 130 -33.667 195 -101 195c-56 0 -121.667 -15.333 -197 -46v-325c66.667 -17.333 132.334 -26 197.001 -26z" />
    <glyph glyph-name="q" unicode="q" horiz-adv-x="555" 
d="M96 467c30.667 46.667 76.666 69.998 137.999 69.998c56.667 0 112.334 -3.66699 167.001 -11s86 -11.333 94 -12v-784h-74v299c-64 -26 -126.333 -39 -187 -39c-73.333 0 -123.333 26.667 -150 80c-22.667 46.667 -34 112.834 -34 198.501s15.333 151.834 46 198.501z
M123.999 267.998c0 -68 4.66699 -114.667 14 -140c16 -42.667 48 -64 96 -64c37.333 0 67.5 1.5 90.5 4.5s55.167 9.83301 96.5 20.5v374h-187c-73.333 0 -110 -65 -110 -195z" />
    <glyph glyph-name="r" unicode="r" horiz-adv-x="426" 
d="M60 0v531h52l22 -67c50.667 30.667 82.667 48.167 96 52.5l36 11.5c20 6 45.667 9 77 9s52.333 -2.66699 63 -8v-73c-16 4 -38.667 6 -68 6s-55.5 -2.66699 -78.5 -8s-41.333 -11 -55 -17s-37.167 -17 -70.5 -33v-404h-74z" />
    <glyph glyph-name="s" unicode="s" horiz-adv-x="506" 
d="M40 358l0.00195312 46.002c0 43.333 10.667 76.166 32 98.499s60.166 33.5 116.499 33.5s139.833 -5.33301 250.5 -16v-57h-261c-30.667 0 -49.334 -5.66699 -56.001 -17c-5.33301 -8.66699 -8 -22.667 -8 -42v-46c0 -26.667 6.33301 -43 19 -49
c10.667 -5.33301 25.667 -8 45 -8h158c42 0 74.167 -11.833 96.5 -35.5s33.5 -54.834 33.5 -93.501v-49c0 -49.333 -12 -83 -36 -101s-55.333 -27 -94 -27c-62 0 -153.333 6.33301 -274 19v55h274c0 0.666992 1.83301 0.666992 5.5 0s8.33398 0 14.001 2
s11.167 4.33301 16.5 7c13.333 6.66699 20 21.667 20 45v49c0 18.667 -4.16699 32.5 -12.5 41.5s-22.833 13.5 -43.5 13.5h-158c-48.667 0 -83.834 9.33301 -105.501 28s-32.5 53 -32.5 103z" />
    <glyph glyph-name="t" unicode="t" horiz-adv-x="378" 
d="M20 458v56.002l99 18l18 148h56v-148h155v-74h-155v-268c0 -40.667 4.66699 -68.834 14 -84.501s23.666 -25.834 42.999 -30.501c54.667 -14 84.334 -21 89.001 -21v-53h-88c-88 0 -132 63 -132 189v268h-99z" />
    <glyph glyph-name="u" unicode="u" 
d="M50 161v369.998h74v-370c0 -31.333 8.33301 -55.166 25 -71.499s38 -24.5 64 -24.5s50.333 2.66699 73 8s40.834 10.833 54.501 16.5s36.834 16.5 69.501 32.5v409h74v-531h-52l-22 62c-2 -0.666992 -9.33301 -4.83398 -22 -12.501s-20.5 -12.167 -23.5 -13.5
s-10.167 -5.16602 -21.5 -11.499s-19.333 -10.166 -24 -11.499s-12.334 -4 -23.001 -8s-19.334 -6.66699 -26.001 -8c-21.333 -4 -40 -6 -56 -6c-50.667 0 -90.667 16.667 -120 50s-44 73.333 -44 120z" />
    <glyph glyph-name="v" unicode="v" horiz-adv-x="536" 
d="M20 531h81l166 -422l168 422h81l-213 -531h-74z" />
    <glyph glyph-name="w" unicode="w" horiz-adv-x="801" 
d="M20 531h81l157 -422l138 422h80l-54 -170l116 -252l162 422h81l-203 -531h-74l-118 260l-87 -260h-80z" />
    <glyph glyph-name="x" unicode="x" horiz-adv-x="524" 
d="M24 0l192 266l-192 265h92l144 -204l148 204h92l-194 -268l186 -263h-84l-146 202l-146 -202h-92z" />
    <glyph glyph-name="y" unicode="y" horiz-adv-x="554" 
d="M21 531h81.002l129 -415c4.66699 -13.333 9.16699 -22 13.5 -26s8.16602 -7.16699 11.499 -9.5s6.66602 -3.83301 9.99902 -4.5s6.5 -1.16699 9.5 -1.5s5.83301 -0.5 8.5 -0.5c6 1.33301 10.333 2.33301 13 3l152 454h83l-234 -699l-75 -102h-46l94 270
c-57.333 0 -97.333 36.667 -120 110z" />
    <glyph glyph-name="z" unicode="z" horiz-adv-x="456" 
d="M30 457v74h396v-74l-284 -382h284v-74h-381v74l289 382h-304z" />
    <glyph glyph-name="braceleft" unicode="{" horiz-adv-x="320" 
d="M20 367c8.66699 0 19.667 1.00391 33 3.00391s21.5 3.83301 24.5 5.5l12 6.5c5 2.66699 8.5 5.66699 10.5 9c6.66699 9.33301 10 19 10 29v236c0 52.667 16 96.834 48 132.501s79.333 53.5 142 53.5v-74c-36 0 -64.333 -8.16699 -85 -24.5s-31 -45.5 -31 -87.5v-236
c0 -23.333 -7.83301 -42.333 -23.5 -57s-36.167 -24.334 -61.5 -29.001c24 -3.33301 44 -12.833 60 -28.5s24 -33.834 24 -54.501v-289c0 -32 10.167 -56.333 30.5 -73s45.5 -25 75.5 -25h11v-74c-35.333 0 -66 5.16699 -92 15.5s-46 24.166 -60 41.499
c-26 33.333 -39 71.666 -39 114.999v285c0 19.333 -8.33301 33.166 -25 41.499s-30.5 12.5 -41.5 12.5s-18.5 -0.333008 -22.5 -1v67z" />
    <glyph glyph-name="bar" unicode="|" horiz-adv-x="245" 
d="M86 -72v842h74v-842h-74z" />
    <glyph glyph-name="braceright" unicode="}" horiz-adv-x="320" 
d="M31 -136c30 0 55.167 8.33008 75.5 24.9971s30.5 41 30.5 73v289c0 20.667 8 38.834 24 54.501s36 25.167 60 28.5c-25.333 4.66699 -45.833 14.334 -61.5 29.001s-23.5 33.667 -23.5 57v236c0 42 -10.333 71.167 -31 87.5s-49 24.5 -85 24.5v74
c62.667 0 110 -17.833 142 -53.5s48 -79.834 48 -132.501v-236c0 -18 6.66699 -30.667 20 -38c5.33301 -2.66699 9.5 -4.83398 12.5 -6.50098s7.83301 -3 14.5 -4s11.667 -1.5 15 -1.5c14.667 -2 24 -3 28 -3v-67c-4 0.666992 -11.5 1 -22.5 1s-24.833 -4.16699 -41.5 -12.5
s-25 -22.166 -25 -41.499v-285c0 -43.333 -13 -81.666 -39 -114.999c-14 -17.333 -34 -31.166 -60 -41.499s-56.667 -15.5 -92 -15.5v74h11z" />
    <glyph glyph-name="asciitilde" unicode="~" horiz-adv-x="438" 
d="M273 605c26.667 0 57.667 13.332 93 39.999l22 -42c-22.667 -22.667 -38 -37.334 -46 -44.001c-22.667 -18.667 -43.667 -28 -63 -28s-40.166 5.83301 -62.499 17.5s-39.5 17.5 -51.5 17.5s-22.833 -1.83301 -32.5 -5.5s-20.334 -8.66699 -32.001 -15
s-21.5 -11.166 -29.5 -14.499l-21 41c5.33301 4 14.333 11.833 27 23.5s22 19.834 28 24.501c18.667 13.333 37.5 20 56.5 20s39.167 -5.83301 60.5 -17.5s38.333 -17.5 51 -17.5z" />
    <glyph glyph-name="exclamdown" unicode="&#xa1;" horiz-adv-x="269" 
d="M83 385v53c0 14 8 21.667 24 23h49c6 -0.666992 11.5 -3.5 16.5 -8.5s7.5 -10.833 7.5 -17.5v-49c-1.33301 -18 -9 -27 -23 -27h-50c-16 0 -24 8.66699 -24 26zM88 -270l6 531h75l8 -531h-89z" />
    <glyph glyph-name="cent" unicode="&#xa2;" horiz-adv-x="490" 
d="M53 121.5c-8.66699 37.667 -13 85.667 -13 144s4.33301 106.333 13 144s22 65.834 40 84.501s36.5 30.667 55.5 36s36 8 51 8h31.5v96h60v-101c50 -6 100.667 -13.667 152 -23v-54c-92.667 5.33301 -157.334 8 -194.001 8s-59.334 -1 -68.001 -3
s-17.667 -6.66699 -27 -14s-16.666 -18 -21.999 -32c-12 -31.333 -18 -83.333 -18 -156s7.66699 -122.834 23 -150.501s41.333 -41.5 78 -41.5c62.667 0 128.334 2.66699 197.001 8l38 3v-56c-48.667 -14 -101.667 -22.667 -159 -26v-92h-60v89h-28
c-15.333 0 -32.833 2.83301 -52.5 8.5s-38.667 17.667 -57 36s-31.833 46.333 -40.5 84z" />
    <glyph glyph-name="sterling" unicode="&#xa3;" horiz-adv-x="596" 
d="M50 0l0.000976562 58.9961l72 15v256h-72v45l72 17v113c0 86.667 16.333 146.334 49 179.001c20.667 20.667 43 33.334 67 38.001c34.667 6.66699 66 10 94 10c45.333 0 104.666 -4 177.999 -12l36 -4v-57h-194c-70.667 0 -112 -6.66699 -124 -20
c-16.667 -17.333 -26.167 -37.666 -28.5 -60.999s-3.5 -47.666 -3.5 -72.999v-113l271 -17v-45h-271v-256h349v-74h-495z" />
    <glyph glyph-name="currency" unicode="&#xa4;" horiz-adv-x="459" 
d="M132 443c27.333 20 58.668 29.998 94.001 29.998s67.666 -11.333 96.999 -34l48 47l35 -40l-47 -47c16 -25.333 24 -54.5 24 -87.5s-9.33301 -63.5 -28 -91.5l53 -53l-42 -37l-49 49c-28 -21.333 -58.5 -32 -91.5 -32s-62.833 9.66699 -89.5 29l-47 -47l-37 42l45 44
c-20.667 28.667 -31 60.834 -31 96.501s9.33301 66.834 28 93.501l-43 44l40 36zM152.002 384.998c-20 -20 -30.001 -44.333 -30.001 -73s9.83301 -53.667 29.5 -75s43.834 -32 72.501 -32s53 10.667 73 32s30 46.5 30 75.5s-10 53.333 -30 73s-44.167 29.5 -72.5 29.5
s-52.5 -10 -72.5 -30z" />
    <glyph glyph-name="yen" unicode="&#xa5;" horiz-adv-x="600" 
d="M509 321v-59h-182v-50h182v-59h-182v-153h-74v153h-171v59h171v50h-171v59h170l-232 411h81l189 -338l206 338h84l-252 -411h181z" />
    <glyph glyph-name="brokenbar" unicode="&#xa6;" horiz-adv-x="246" 
d="M86 -72v328h74v-328h-74zM86 429v341h74v-341h-74z" />
    <glyph glyph-name="section" unicode="&#xa7;" horiz-adv-x="552" 
d="M56 353l-0.000976562 62c0 52.667 14.667 83.667 44 93c-30 8.66699 -45 36 -45 82v70c0 44.667 12.333 76.5 37 95.5s55.667 28.5 93 28.5c62 0 153.333 -6.33301 274 -19v-55h-274c-18.667 0 -32.5 -3.66699 -41.5 -11s-13.833 -20.333 -14.5 -39v-70
c0 -31.333 18.667 -47 56 -47h179c52.667 0 88.167 -10.667 106.5 -32s27.166 -53 26.499 -95v-62c0 -55.333 -14 -85 -42 -89c27.333 -4 41 -31.333 41 -82v-73c0 -52 -15.333 -85.333 -46 -100c-24 -12 -59.667 -18 -107 -18s-131 6.33301 -251 19v55h266
c20.667 0 36.334 2.83301 47.001 8.5s16.334 17.5 17.001 35.5v73c0 20 -4.16699 32.833 -12.5 38.5s-23.5 8.5 -45.5 8.5h-179c-44 0 -76.5 8.5 -97.5 25.5s-31.5 49.5 -31.5 97.5zM128.999 353c0 -20.667 4.16699 -33.999 12.5 -39.999s22.833 -9 43.5 -9h179
c28 0 45 5.33301 51 16c4.66699 7.33301 7 18.666 7 33.999v62c0 20 -3.16699 34 -9.5 42s-22.5 12 -48.5 12h-179c-22.667 0 -37.667 -3.33301 -45 -10s-11 -22 -11 -46v-61z" />
    <glyph glyph-name="dieresis" unicode="&#xa8;" horiz-adv-x="456" 
d="M50 582c0 14 5 25.833 15 35.5s22 14.5 36 14.5s25.833 -4.83301 35.5 -14.5s14.5 -21.5 14.5 -35.5s-4.83301 -26 -14.5 -36s-21.5 -15 -35.5 -15s-26 5 -36 15s-15 22 -15 36zM305 582c0 14 5 25.833 15 35.5s22 14.5 36 14.5s25.833 -4.83301 35.5 -14.5
s14.5 -21.5 14.5 -35.5s-4.83301 -26 -14.5 -36s-21.5 -15 -35.5 -15s-26 5 -36 15s-15 22 -15 36z" />
    <glyph glyph-name="copyright" unicode="&#xa9;" horiz-adv-x="811" 
d="M55 368c0 242.667 75.665 364.001 226.998 364.001h270c76 0 130 -34.667 162 -104c28 -60 42 -146.667 42 -260c0 -102 -15 -187.333 -45 -256c-15.333 -34.667 -36.5 -62 -63.5 -82s-58.833 -30 -95.5 -30h-270c-35.333 0 -66.666 8.66699 -93.999 26
s-49.166 39 -65.499 65s-29.833 56 -40.5 90c-18 57.333 -27 119.666 -27 186.999zM118.998 368.001c0 -80 14 -150.501 42 -211.501s68.333 -91.833 121 -92.5h270c41.333 0.666992 75 27 101 79s39 127 39 225c0 106.667 -11.333 183.334 -34 230.001
c-9.33301 19.333 -23 35.833 -41 49.5s-39.667 20.5 -65 20.5h-270c-50.667 0 -90.5 -22 -119.5 -66s-43.5 -122 -43.5 -234zM269.498 194.5c-25.667 31.667 -38.498 87 -38.498 166s13 135.833 39 170.5s61 52 105 52c29.333 0 88.666 -8 177.999 -24v-52
c-56 8 -115.333 12 -178 12c-53.333 0 -80 -52.333 -80 -157c0 -48 5.66699 -85.167 17 -111.5s32.333 -39.5 63 -39.5c48 0 109.333 5.33301 184 16v-52c-66.667 -18.667 -128 -28 -184 -28c-44.667 0 -79.834 15.833 -105.501 47.5z" />
    <glyph glyph-name="ordfeminine" unicode="&#xaa;" horiz-adv-x="364" 
d="M30 268v58h304v-58h-304zM30 463l0.000976562 46.001c0 27.333 9 49.166 27 65.499s42.333 24.5 73 24.5c46.667 -0.666992 81.667 -1 105 -1s35 0.333008 35 1v23v9c0 33.333 -20.333 50 -61 50c-25.333 0 -55 -1 -89 -3s-60 -3.33301 -78 -4v42
c11.333 1.33301 28 4 50 8c49.333 10 91 15 125 15h4c31.333 0 57.666 -8.5 78.999 -25.5s32 -42.833 32 -77.5v-258h-40l-21 49l-9 -5c-55.333 -32 -98 -48 -128 -48s-54.833 7.83301 -74.5 23.5s-29.5 37.5 -29.5 65.5zM92.001 476.001
c0 -26.667 14.667 -39.999 44 -39.999c36 0 74 8 114 24l20 8v86l-134 -10c-29.333 -2.66699 -44 -16.334 -44 -41.001v-27z" />
    <glyph glyph-name="guillemotleft" unicode="&#xab;" horiz-adv-x="549" 
d="M50 354l206 203l52 -52l-155 -151l160 -156l-52 -52zM236 354l206 203l52 -52l-155 -151l160 -156l-52 -52z" />
    <glyph glyph-name="logicalnot" unicode="&#xac;" horiz-adv-x="527" 
d="M50 256v74h427v-171h-74v97h-353z" />
    <glyph glyph-name="uni00AD" unicode="&#xad;" horiz-adv-x="354" 
d="M20 253v74h314v-74h-314z" />
    <glyph glyph-name="registered" unicode="&#xae;" horiz-adv-x="811" 
d="M55 368c0 242.667 75.665 364.001 226.998 364.001h270c76 0 130 -34.667 162 -104c28 -60 42 -146.667 42 -260c0 -102 -15 -187.333 -45 -256c-15.333 -34.667 -36.5 -62 -63.5 -82s-58.833 -30 -95.5 -30h-270c-35.333 0 -66.666 8.66699 -93.999 26
s-49.166 39 -65.499 65s-29.833 56 -40.5 90c-18 57.333 -27 119.666 -27 186.999zM118.998 368.001c0 -80 14 -150.501 42 -211.501s68.333 -91.833 121 -92.5h270c41.333 0.666992 75 27 101 79s39 127 39 225c0 106.667 -11.333 183.334 -34 230.001
c-9.33301 19.333 -23 35.833 -41 49.5s-39.667 20.5 -65 20.5h-270c-50.667 0 -90.5 -22 -119.5 -66s-43.5 -122 -43.5 -234zM260.998 153v427h177c89.333 0 134 -42.667 134 -128c0 -55.333 -12.333 -91.333 -37 -108c-12.667 -8 -22.167 -13.167 -28.5 -15.5
s-16.5 -4.83301 -30.5 -7.5l91 -168h-72l-91 170l-79 12v-182h-64zM324.998 379h119c26 0 43.167 4.66699 51.5 14s12.5 25 12.5 47s-2 37.833 -6 47.5s-9.66699 16.5 -17 20.5c-11.333 5.33301 -25 8 -41 8h-119v-137z" />
    <glyph glyph-name="macron" unicode="&#xaf;" horiz-adv-x="392" 
d="M50 531v63h292v-63h-292z" />
    <glyph glyph-name="degree" unicode="&#xb0;" horiz-adv-x="303" 
d="M50 632c0 28.667 10 53 30 73s44 30 72 30s51.833 -10 71.5 -30s29.5 -44.333 29.5 -73s-9.83301 -52.834 -29.5 -72.501s-43.5 -29.5 -71.5 -29.5s-52 9.83301 -72 29.5s-30 43.834 -30 72.501zM97 632c0 -14.667 5.33398 -27.333 16.001 -38s23.5 -16 38.5 -16
s27.833 5.33301 38.5 16s16 23.5 16 38.5s-5.33301 27.833 -16 38.5s-23.334 16 -38.001 16s-27.5 -5.5 -38.5 -16.5s-16.5 -23.833 -16.5 -38.5z" />
    <glyph glyph-name="plusminus" unicode="&#xb1;" horiz-adv-x="527" 
d="M56 87v74h416v-74h-416zM56 387v74h170v171h74v-171h172v-74h-172v-171h-74v171h-170z" />
    <glyph glyph-name="twosuperior" unicode="&#xb2;" horiz-adv-x="387" 
d="M32 826c-0.666992 0 -1 3.99902 -1 11.999s0.333008 16 1 24v11c82.667 10 143.667 15 183 15c86.667 0 130 -45.333 130 -136c0 -23.333 -6 -48.333 -18 -75s-24.5 -49.167 -37.5 -67.5s-31.5 -39.5 -55.5 -63.5s-40 -39.333 -48 -46l-38 -32h196v-62h-309v58
c5.33301 4.66699 18.833 15.167 40.5 31.5l53.5 41.5c14 11.333 31.5 26.833 52.5 46.5s37.833 37.834 50.5 54.501c32 40.667 48 76.167 48 106.5s-5.66699 51.5 -17 63.5s-31 18 -59 18h-172z" />
    <glyph glyph-name="threesuperior" unicode="&#xb3;" horiz-adv-x="406" 
d="M34 420l1 42.999l177 1c26.667 0 45.334 4.66699 56.001 14s16 25 16 47v23c0 44.667 -22.667 67.667 -68 69l-142 5v47l142 7c46 2 69 23.333 69 64v22c0 40 -23 60 -69 60h-186v43c36 12 77.333 18 124 18h71c40.667 0 71 -11.167 91 -33.5s30 -50.166 30 -83.499v-35
c0 -22 -4.66699 -40.833 -14 -56.5s-21 -26.167 -35 -31.5c32.667 -20.667 49 -52 49 -94v-28c0 -38.667 -9.33301 -68.167 -28 -88.5s-51.334 -30.5 -98.001 -30.5h-83c-32.667 0 -67 6 -103 18z" />
    <glyph glyph-name="acute" unicode="&#xb4;" horiz-adv-x="242" 
d="M20 531l107 133h95l-133 -133h-69z" />
    <glyph glyph-name="uni00B5" unicode="&#xb5;" horiz-adv-x="594" 
d="M90 -270v800.998h74v-370c0 -31.333 8.33301 -55.166 25 -71.499s38 -24.5 64 -24.5s50.333 2.66699 73 8s40.834 10.833 54.501 16.5s36.834 16.5 69.501 32.5v409h74v-531h-52l-22 62c-2 -0.666992 -9.33301 -4.83398 -22 -12.501s-20.5 -12.167 -23.5 -13.5
s-10.167 -5.16602 -21.5 -11.499s-19.333 -10.166 -24 -11.499s-12.334 -4 -23.001 -8s-19.334 -6.66699 -26.001 -8c-21.333 -4 -40 -6 -56 -6c-35.333 0 -65.333 8.33301 -90 25v-286h-74z" />
    <glyph glyph-name="paragraph" unicode="&#xb6;" horiz-adv-x="581" 
d="M40 499l-0.000976562 93.001c0 44.667 15.5 79.167 46.5 103.5s67.5 36.5 109.5 36.5h365v-76h-69v-656h-74v658h-94v-928h-74v642l-9 -5c-14.667 -8 -29.667 -12 -45 -12c-49.333 0 -87.666 13.667 -114.999 41s-41 61.666 -41 102.999zM113.999 501.001
c0 -27.333 8.66699 -46.167 26 -56.5s36 -15.5 56 -15.5h54v229h-54c-29.333 0 -50.333 -7 -63 -21s-19 -29.667 -19 -47v-89z" />
    <glyph glyph-name="periodcentered" unicode="&#xb7;" horiz-adv-x="272" 
d="M85 354v57c0 16.667 8 25 24 25h53c16.667 0 25 -8.33301 25 -25v-57c0 -15.333 -8.33301 -23 -25 -23h-53c-16 0 -24 7.66699 -24 23z" />
    <glyph glyph-name="cedilla" unicode="&#xb8;" horiz-adv-x="252" 
d="M135 -37h67c0 -52 -7 -87.667 -21 -107s-40.667 -29 -80 -29h-51v37l53 15c21.333 9.33301 32 37.333 32 84z" />
    <glyph glyph-name="onesuperior" unicode="&#xb9;" horiz-adv-x="271" 
d="M206 882v-476h-62v407l-128 -35v49l128 55h62z" />
    <glyph glyph-name="ordmasculine" unicode="&#xba;" horiz-adv-x="390" 
d="M66 412.5c-24 26.333 -36 73.666 -36 141.999s11.833 115.833 35.5 142.5s67.167 40 130.5 40s106.5 -13.333 129.5 -40s34.5 -74.167 34.5 -142.5s-11.667 -115.666 -35 -141.999s-66.333 -39.5 -129 -39.5s-106 13.167 -130 39.5zM41 271v58h307v-58h-307zM97.5 622
c-3.66699 -17.333 -5.49805 -40.501 -5.49805 -69.501s2.16699 -51.5 6.5 -67.5s12 -27.5 23 -34.5s21.333 -11.333 31 -13s24.5 -2.5 44.5 -2.5s34.667 0.666992 44 2s19.166 5.5 29.499 12.5s17.5 18.5 21.5 34.5c4 19.333 6 43.333 6 72s-1.66699 51 -5 67
s-10.333 27.833 -21 35.5s-20.834 12.334 -30.501 14.001s-25.167 2.5 -46.5 2.5s-36.666 -0.666992 -45.999 -2s-19.333 -5.83301 -30 -13.5s-17.834 -20.167 -21.501 -37.5z" />
    <glyph glyph-name="guillemotright" unicode="&#xbb;" horiz-adv-x="549" 
d="M50 198l160 156l-155 151l52 52l206 -203l-211 -208zM236 198l160 156l-155 151l52 52l206 -203l-211 -208z" />
    <glyph glyph-name="onequarter" unicode="&#xbc;" horiz-adv-x="903" 
d="M206 732v-476h-62v407l-128 -35v49l128 55h62zM220 0l348 732h65l-348 -732h-65zM761 184v121l28 48h34v-169h59v-52l-59 -13v-120h-62v120h-243l-22 24l209 331h71l-181 -290h166z" />
    <glyph glyph-name="onehalf" unicode="&#xbd;" horiz-adv-x="974" 
d="M206 732v-476h-62v407l-128 -35v49l128 55h62zM215 0l348 732h65l-348 -732h-65zM620 420c-0.666992 0 -1 3.99902 -1 11.999s0.333008 16 1 24v11c82.667 10 143.667 15 183 15c86.667 0 130 -45.333 130 -136c0 -23.333 -6 -48.333 -18 -75s-24.5 -49.167 -37.5 -67.5
s-31.5 -39.5 -55.5 -63.5s-40 -39.333 -48 -46l-38 -32h196v-62h-309v58c5.33301 4.66699 18.833 15.167 40.5 31.5l53.5 41.5c14 11.333 31.5 26.833 52.5 46.5s37.833 37.834 50.5 54.501c32 40.667 48 76.167 48 106.5s-5.66699 51.5 -17 63.5s-31 18 -59 18h-172z" />
    <glyph glyph-name="threequarters" unicode="&#xbe;" horiz-adv-x="1019" 
d="M34 270l1 42.999l177 1c26.667 0 45.334 4.66699 56.001 14s16 25 16 47v23c0 44.667 -22.667 67.667 -68 69l-142 5v47l142 7c46 2 69 23.333 69 64v22c0 40 -23 60 -69 60h-186v43c36 12 77.333 18 124 18h71c40.667 0 71 -11.167 91 -33.5s30 -50.166 30 -83.499v-35
c0 -22 -4.66699 -40.833 -14 -56.5s-21 -26.167 -35 -31.5c32.667 -20.667 49 -52 49 -94v-28c0 -38.667 -9.33301 -68.167 -28 -88.5s-51.334 -30.5 -98.001 -30.5h-83c-32.667 0 -67 6 -103 18zM319 -0.000976562l348 732h65l-348 -732h-65zM850 180.999v125l24 48h34
v-173h59v-48l-59 -13v-120h-58v120h-247l-22 24l208 330h67l-181 -293h175z" />
    <glyph glyph-name="questiondown" unicode="&#xbf;" horiz-adv-x="543" 
d="M340 -268l-69 -2.00098c-14 0 -23 0.333008 -27 1s-6.33301 1 -7 1c-131.333 0 -197 62.667 -197 188v102c-0.666992 57.333 22 100 68 128c33.333 19.333 72.666 29 117.999 29c17.333 0 35.666 -1.33301 54.999 -4v101h77l1 -162c-31.333 0.666992 -59 1 -83 1
s-46 -0.333008 -66 -1s-38.333 -10.667 -55 -30s-26 -42.333 -28 -69c-0.666992 -53.333 -1 -86.666 -1 -99.999c0 -30 9.83301 -55.667 29.5 -77s48.834 -32 87.501 -32h7l273 1c-2 0 -2.66699 -8.83301 -2 -26.5s0.666992 -27.167 0 -28.5
c-33.333 -5.33301 -58.833 -8.83301 -76.5 -10.5s-37.667 -3.66699 -60 -6s-37.166 -3.5 -44.499 -3.5zM270 444.999c0 6.66699 2.5 12.5 7.5 17.5s10.5 7.83301 16.5 8.5h49c16 -1.33301 24 -9 24 -23v-54c-1.33301 -16 -8.33301 -24.333 -21 -25h-56
c-12 4 -18.667 12.333 -20 25v51z" />
    <glyph glyph-name="Agrave" unicode="&#xc0;" horiz-adv-x="670" 
d="M184 930h94l108 -133h-70zM45 0l269 732h74l257 -732h-88l-63 204h-292l-66 -204h-91zM229 278h239l-118 341z" />
    <glyph glyph-name="Aacute" unicode="&#xc1;" horiz-adv-x="670" 
d="M316 797l108 133h94l-132 -133h-70zM45 0l269 732h74l257 -732h-88l-63 204h-292l-66 -204h-91zM229 278h239l-118 341z" />
    <glyph glyph-name="Acircumflex" unicode="&#xc2;" horiz-adv-x="670" 
d="M205 797l117 130h71l104 -130h-71l-71 71l-78 -71h-72zM45 0l269 732h74l257 -732h-88l-63 204h-292l-66 -204h-91zM229 278h239l-118 341z" />
    <glyph glyph-name="Atilde" unicode="&#xc3;" horiz-adv-x="670" 
d="M408 867c15.333 0 45.333 11.998 90 35.998l22 -42c-2 -1.33301 -10 -7.66602 -24 -18.999c-36 -29.333 -65 -44 -87 -44c-20 0 -40.667 5.66699 -62 17s-38.166 17 -50.499 17s-23.333 -1.83301 -33 -5.5s-20 -8.66699 -31 -15s-20.833 -11.166 -29.5 -14.499l-21 41
l40.5 32.5c9 7 21 14 36 21s30.333 10.167 46 9.5s34.667 -6.5 57 -17.5s35.666 -16.5 39.999 -16.5h6.5zM45 -0.00195312l269 732h74l257 -732h-88l-63 204h-292l-66 -204h-91zM229 277.998h239l-118 341z" />
    <glyph glyph-name="Adieresis" unicode="&#xc4;" horiz-adv-x="670" 
d="M173 848c0 14 5 25.833 15 35.5s22 14.5 36 14.5s25.833 -4.83301 35.5 -14.5s14.5 -21.5 14.5 -35.5s-4.83301 -26 -14.5 -36s-21.5 -15 -35.5 -15s-26 5 -36 15s-15 22 -15 36zM428 848c0 14 5 25.833 15 35.5s22 14.5 36 14.5s25.833 -4.83301 35.5 -14.5
s14.5 -21.5 14.5 -35.5s-4.83301 -26 -14.5 -36s-21.5 -15 -35.5 -15s-26 5 -36 15s-15 22 -15 36zM45 0l269 732h74l257 -732h-88l-63 204h-292l-66 -204h-91zM229 278h239l-118 341z" />
    <glyph glyph-name="Aring" unicode="&#xc5;" horiz-adv-x="670" 
d="M263.5 780.5c9 -15.667 21.332 -28 36.999 -37s32.667 -13.5 51 -13.5s35.333 4.5 51 13.5s27.834 21.333 36.501 37s13 35.334 13 59.001s-9.83301 45.5 -29.5 65.5s-43.5 30 -71.5 30s-51.833 -10 -71.5 -30s-29.5 -41.833 -29.5 -65.5s4.5 -43.334 13.5 -59.001z
M295.999 832.5c0 15 5.5 27.833 16.5 38.5s24 16 39 16s27.833 -5.33301 38.5 -16s16 -23.5 16 -38.5s-5.33301 -27.833 -16 -38.5s-23.5 -16 -38.5 -16s-28 5.33301 -39 16s-16.5 23.5 -16.5 38.5zM44.999 0l269 732h74l257 -732h-88l-63 204h-292l-66 -204h-91z
M228.999 278h239l-118 341z" />
    <glyph glyph-name="AE" unicode="&#xc6;" horiz-adv-x="921" 
d="M512 733l43.998 -1.00195l320 -16v-59h-320c-23.333 0 -37.333 -5.66699 -42 -17c-4 -8.66699 -6.66699 -20.667 -8 -36v-207l330 -10v-59l-330 -10v-197c0 -20 4 -32.833 12 -38.5s15 -8.5 21 -8.5h18h11l307 -1v-61l-307 -17h-15c-80.667 0 -121 42 -121 126v106h-210
l-111 -227h-81l298 604c17.333 35.333 32 58.666 44 69.999l28 27c6.66699 6.66699 15.167 11.834 25.5 15.501s18.5 6.83398 24.5 9.50098s14.833 4.33398 26.5 5.00098s19.334 1.16699 23.001 1.5s7.83398 0.5 12.501 0.5zM431.998 300.998v351l-173 -351h173z" />
    <glyph glyph-name="Ccedilla" unicode="&#xc7;" horiz-adv-x="578" 
d="M303 -36h67c0 -52 -7 -87.667 -21 -107s-40.667 -29 -80 -29h-51v37l53 15c21.333 9.33301 32 37.333 32 84zM543 656c-120 6.66699 -201.5 9.99902 -244.5 9.99902s-76.333 -8.16699 -100 -24.5s-41.167 -46 -52.5 -89s-17 -105.167 -17 -186.5
c0 -198.667 56.667 -298 170 -298l244 7v-59c-78.667 -14.667 -160 -22 -244 -22c-162.667 0 -244 124.667 -244 374c0 126.667 17.167 220.334 51.5 281.001s98.5 91 192.5 91c72.667 0 154 -8.33301 244 -25v-59z" />
    <glyph glyph-name="Egrave" unicode="&#xc8;" horiz-adv-x="567" 
d="M176 925h95l107 -133h-69zM80 602c0 46 11.5 79.166 34.5 99.499s51.5 30.5 85.5 30.5h6l316 -16v-58h-316c-16 0 -28.167 -3.16699 -36.5 -9.5s-13 -12.666 -14 -18.999s-1.5 -15.5 -1.5 -27.5v-200l328 -10v-59l-328 -10v-200c0 -16.667 3.66699 -29 11 -37
s14.333 -12.5 21 -13.5s16.667 -1.5 30 -1.5h306v-57l-306 -17h-15c-80.667 0 -121 42 -121 126v479z" />
    <glyph glyph-name="Eacute" unicode="&#xc9;" horiz-adv-x="567" 
d="M287 792l107 133h95l-133 -133h-69zM80 602c0 46 11.5 79.166 34.5 99.499s51.5 30.5 85.5 30.5h6l316 -16v-58h-316c-16 0 -28.167 -3.16699 -36.5 -9.5s-13 -12.666 -14 -18.999s-1.5 -15.5 -1.5 -27.5v-200l328 -10v-59l-328 -10v-200c0 -16.667 3.66699 -29 11 -37
s14.333 -12.5 21 -13.5s16.667 -1.5 30 -1.5h306v-57l-306 -17h-15c-80.667 0 -121 42 -121 126v479z" />
    <glyph glyph-name="Ecircumflex" unicode="&#xca;" horiz-adv-x="567" 
d="M170 797l117 130h71l104 -130h-71l-71 71l-78 -71h-72zM80 602c0 46 11.5 79.166 34.5 99.499s51.5 30.5 85.5 30.5h6l316 -16v-58h-316c-16 0 -28.167 -3.16699 -36.5 -9.5s-13 -12.666 -14 -18.999s-1.5 -15.5 -1.5 -27.5v-200l328 -10v-59l-328 -10v-200
c0 -16.667 3.66699 -29 11 -37s14.333 -12.5 21 -13.5s16.667 -1.5 30 -1.5h306v-57l-306 -17h-15c-80.667 0 -121 42 -121 126v479z" />
    <glyph glyph-name="Edieresis" unicode="&#xcb;" horiz-adv-x="567" 
d="M139 843c0 14 5 25.833 15 35.5s22 14.5 36 14.5s25.833 -4.83301 35.5 -14.5s14.5 -21.5 14.5 -35.5s-4.83301 -26 -14.5 -36s-21.5 -15 -35.5 -15s-26 5 -36 15s-15 22 -15 36zM394 843c0 14 5 25.833 15 35.5s22 14.5 36 14.5s25.833 -4.83301 35.5 -14.5
s14.5 -21.5 14.5 -35.5s-4.83301 -26 -14.5 -36s-21.5 -15 -35.5 -15s-26 5 -36 15s-15 22 -15 36zM80 602c0 46 11.5 79.166 34.5 99.499s51.5 30.5 85.5 30.5h6l316 -16v-58h-316c-16 0 -28.167 -3.16699 -36.5 -9.5s-13 -12.666 -14 -18.999s-1.5 -15.5 -1.5 -27.5v-200
l328 -10v-59l-328 -10v-200c0 -16.667 3.66699 -29 11 -37s14.333 -12.5 21 -13.5s16.667 -1.5 30 -1.5h306v-57l-306 -17h-15c-80.667 0 -121 42 -121 126v479z" />
    <glyph glyph-name="Igrave" unicode="&#xcc;" horiz-adv-x="214" 
d="M-50 930h94l108 -133h-70zM80 0v732h74v-732h-74z" />
    <glyph glyph-name="Iacute" unicode="&#xcd;" horiz-adv-x="214" 
d="M82 797l108 133h94l-132 -133h-70zM80 0v732h74v-732h-74z" />
    <glyph glyph-name="Icircumflex" unicode="&#xce;" horiz-adv-x="214" 
d="M-29 797l117 130h71l104 -130h-71l-71 71l-78 -71h-72zM80 0v732h74v-732h-74z" />
    <glyph glyph-name="Idieresis" unicode="&#xcf;" horiz-adv-x="214" 
d="M-61 848c0 14 5 25.833 15 35.5s22 14.5 36 14.5s25.833 -4.83301 35.5 -14.5s14.5 -21.5 14.5 -35.5s-4.83301 -26 -14.5 -36s-21.5 -15 -35.5 -15s-26 5 -36 15s-15 22 -15 36zM194 848c0 14 5 25.833 15 35.5s22 14.5 36 14.5s25.833 -4.83301 35.5 -14.5
s14.5 -21.5 14.5 -35.5s-4.83301 -26 -14.5 -36s-21.5 -15 -35.5 -15s-26 5 -36 15s-15 22 -15 36zM80 0v732h74v-732h-74z" />
    <glyph glyph-name="Eth" unicode="&#xd0;" horiz-adv-x="657" 
d="M15 346v54h65v331c0 0.666992 91 1 273 1c73.333 0 129 -21 167 -63c38.667 -42 63.667 -90 75 -144c11.333 -55.333 17 -104.833 17 -148.5s-2.66699 -82 -8 -115s-14.5 -65.5 -27.5 -97.5s-29.167 -60 -48.5 -84s-44 -43.333 -74 -58s-63.667 -22 -101 -22h-273v346
h-65zM154 77h199c62 0 107.833 26.833 137.5 80.5s44.5 122.5 44.5 206.5c0 192.667 -60.667 289 -182 289l-199 -1v-252h139v-54h-139v-269z" />
    <glyph glyph-name="Ntilde" unicode="&#xd1;" horiz-adv-x="680" 
d="M407 867c15.333 0 45.333 11.998 90 35.998l22 -42c-2 -1.33301 -10.333 -7.66602 -25 -18.999c-35.333 -29.333 -64 -44 -86 -44c-20 0 -40.667 5.66699 -62 17s-38.166 17 -50.499 17s-23.333 -1.83301 -33 -5.5s-20 -8.66699 -31 -15s-20.833 -11.166 -29.5 -14.499
l-21 41l40.5 32.5c9 7 21 14 36 21s30.333 10.167 46 9.5s34.667 -6.5 57 -17.5s35.666 -16.5 39.999 -16.5h6.5zM80 -0.00195312v732h76l390 -594v594h74v-732h-74l-391 594v-594h-75z" />
    <glyph glyph-name="Ograve" unicode="&#xd2;" horiz-adv-x="676" 
d="M182 930h94l108 -133h-70zM73 218.5c-5.33301 40.333 -8 88.167 -8 143.5s3 103.833 9 145.5s15.333 76.167 28 103.5s26.5 49.5 41.5 66.5s34.167 29.833 57.5 38.5c38 14 87.333 21 148 21c87.333 0 148.666 -13.333 183.999 -40c34 -26 58.333 -63 73 -111
c16.667 -58.667 25 -126.667 25 -204s-4.16699 -138.166 -12.5 -182.499s-19.666 -79.833 -33.999 -106.5s-34 -47.167 -59 -61.5s-50.833 -23.833 -77.5 -28.5s-58.167 -7 -94.5 -7s-65.833 1.33301 -88.5 4s-45.667 8.16699 -69 16.5s-42.333 20.666 -57 36.999
s-28 37.833 -40 64.5s-20.667 60.167 -26 100.5zM142 450.001c-2 -26.667 -2.99316 -64.333 -2.99316 -113s3.16699 -92 9.5 -130s18.666 -67.333 36.999 -88s39.5 -34 63.5 -40s55 -9 93 -9s67.667 2.16699 89 6.5s40.666 12.333 57.999 24s30.666 28.5 39.999 50.5
c18.667 44 28 114 28 210c0 104.667 -8 175 -24 211c-6.66699 15.333 -12.667 28 -18 38s-13.333 18.5 -24 25.5s-19.834 12.333 -27.501 16s-19 6.33398 -34 8.00098s-27.5 2.66699 -37.5 3s-24.333 0.5 -43 0.5s-32.834 -0.166992 -42.501 -0.5s-22 -1.33301 -37 -3
s-26.5 -4.33398 -34.5 -8.00098s-17.333 -9 -28 -16s-18.834 -15.5 -24.501 -25.5s-11.834 -22.5 -18.501 -37.5s-11.5 -32.5 -14.5 -52.5s-5.5 -43.333 -7.5 -70z" />
    <glyph glyph-name="Oacute" unicode="&#xd3;" horiz-adv-x="676" 
d="M314 797l108 133h94l-132 -133h-70zM73 218.5c-5.33301 40.333 -8 88.167 -8 143.5s3 103.833 9 145.5s15.333 76.167 28 103.5s26.5 49.5 41.5 66.5s34.167 29.833 57.5 38.5c38 14 87.333 21 148 21c87.333 0 148.666 -13.333 183.999 -40c34 -26 58.333 -63 73 -111
c16.667 -58.667 25 -126.667 25 -204s-4.16699 -138.166 -12.5 -182.499s-19.666 -79.833 -33.999 -106.5s-34 -47.167 -59 -61.5s-50.833 -23.833 -77.5 -28.5s-58.167 -7 -94.5 -7s-65.833 1.33301 -88.5 4s-45.667 8.16699 -69 16.5s-42.333 20.666 -57 36.999
s-28 37.833 -40 64.5s-20.667 60.167 -26 100.5zM142 450.001c-2 -26.667 -2.99316 -64.333 -2.99316 -113s3.16699 -92 9.5 -130s18.666 -67.333 36.999 -88s39.5 -34 63.5 -40s55 -9 93 -9s67.667 2.16699 89 6.5s40.666 12.333 57.999 24s30.666 28.5 39.999 50.5
c18.667 44 28 114 28 210c0 104.667 -8 175 -24 211c-6.66699 15.333 -12.667 28 -18 38s-13.333 18.5 -24 25.5s-19.834 12.333 -27.501 16s-19 6.33398 -34 8.00098s-27.5 2.66699 -37.5 3s-24.333 0.5 -43 0.5s-32.834 -0.166992 -42.501 -0.5s-22 -1.33301 -37 -3
s-26.5 -4.33398 -34.5 -8.00098s-17.333 -9 -28 -16s-18.834 -15.5 -24.501 -25.5s-11.834 -22.5 -18.501 -37.5s-11.5 -32.5 -14.5 -52.5s-5.5 -43.333 -7.5 -70z" />
    <glyph glyph-name="Ocircumflex" unicode="&#xd4;" horiz-adv-x="676" 
d="M203 797l117 130h71l104 -130h-71l-71 71l-78 -71h-72zM73 218.5c-5.33301 40.333 -8 88.167 -8 143.5s3 103.833 9 145.5s15.333 76.167 28 103.5s26.5 49.5 41.5 66.5s34.167 29.833 57.5 38.5c38 14 87.333 21 148 21c87.333 0 148.666 -13.333 183.999 -40
c34 -26 58.333 -63 73 -111c16.667 -58.667 25 -126.667 25 -204s-4.16699 -138.166 -12.5 -182.499s-19.666 -79.833 -33.999 -106.5s-34 -47.167 -59 -61.5s-50.833 -23.833 -77.5 -28.5s-58.167 -7 -94.5 -7s-65.833 1.33301 -88.5 4s-45.667 8.16699 -69 16.5
s-42.333 20.666 -57 36.999s-28 37.833 -40 64.5s-20.667 60.167 -26 100.5zM142 450.001c-2 -26.667 -2.99316 -64.333 -2.99316 -113s3.16699 -92 9.5 -130s18.666 -67.333 36.999 -88s39.5 -34 63.5 -40s55 -9 93 -9s67.667 2.16699 89 6.5s40.666 12.333 57.999 24
s30.666 28.5 39.999 50.5c18.667 44 28 114 28 210c0 104.667 -8 175 -24 211c-6.66699 15.333 -12.667 28 -18 38s-13.333 18.5 -24 25.5s-19.834 12.333 -27.501 16s-19 6.33398 -34 8.00098s-27.5 2.66699 -37.5 3s-24.333 0.5 -43 0.5s-32.834 -0.166992 -42.501 -0.5
s-22 -1.33301 -37 -3s-26.5 -4.33398 -34.5 -8.00098s-17.333 -9 -28 -16s-18.834 -15.5 -24.501 -25.5s-11.834 -22.5 -18.501 -37.5s-11.5 -32.5 -14.5 -52.5s-5.5 -43.333 -7.5 -70z" />
    <glyph glyph-name="Otilde" unicode="&#xd5;" horiz-adv-x="676" 
d="M406 867c15.333 0 45.333 11.998 90 35.998l22 -42c-2 -1.33301 -10 -7.66602 -24 -18.999c-36 -29.333 -65 -44 -87 -44c-20 0 -40.667 5.66699 -62 17s-38.166 17 -50.499 17s-23.333 -1.83301 -33 -5.5s-20 -8.66699 -31 -15s-20.833 -11.166 -29.5 -14.499l-21 41
l40.5 32.5c9 7 21 14 36 21s30.333 10.167 46 9.5s34.667 -6.5 57 -17.5s35.666 -16.5 39.999 -16.5h6.5zM73 218.498c-5.33301 40.333 -8 88.167 -8 143.5s3 103.833 9 145.5s15.333 76.167 28 103.5s26.5 49.5 41.5 66.5s34.167 29.833 57.5 38.5c38 14 87.333 21 148 21
c87.333 0 148.666 -13.333 183.999 -40c34 -26 58.333 -63 73 -111c16.667 -58.667 25 -126.667 25 -204s-4.16699 -138.166 -12.5 -182.499s-19.666 -79.833 -33.999 -106.5s-34 -47.167 -59 -61.5s-50.833 -23.833 -77.5 -28.5s-58.167 -7 -94.5 -7
s-65.833 1.33301 -88.5 4s-45.667 8.16699 -69 16.5s-42.333 20.666 -57 36.999s-28 37.833 -40 64.5s-20.667 60.167 -26 100.5zM142 449.999c-2 -26.667 -2.99316 -64.333 -2.99316 -113s3.16699 -92 9.5 -130s18.666 -67.333 36.999 -88s39.5 -34 63.5 -40s55 -9 93 -9
s67.667 2.16699 89 6.5s40.666 12.333 57.999 24s30.666 28.5 39.999 50.5c18.667 44 28 114 28 210c0 104.667 -8 175 -24 211c-6.66699 15.333 -12.667 28 -18 38s-13.333 18.5 -24 25.5s-19.834 12.333 -27.501 16s-19 6.33398 -34 8.00098s-27.5 2.66699 -37.5 3
s-24.333 0.5 -43 0.5s-32.834 -0.166992 -42.501 -0.5s-22 -1.33301 -37 -3s-26.5 -4.33398 -34.5 -8.00098s-17.333 -9 -28 -16s-18.834 -15.5 -24.501 -25.5s-11.834 -22.5 -18.501 -37.5s-11.5 -32.5 -14.5 -52.5s-5.5 -43.333 -7.5 -70z" />
    <glyph glyph-name="Odieresis" unicode="&#xd6;" horiz-adv-x="676" 
d="M171 848c0 14 5 25.833 15 35.5s22 14.5 36 14.5s25.833 -4.83301 35.5 -14.5s14.5 -21.5 14.5 -35.5s-4.83301 -26 -14.5 -36s-21.5 -15 -35.5 -15s-26 5 -36 15s-15 22 -15 36zM426 848c0 14 5 25.833 15 35.5s22 14.5 36 14.5s25.833 -4.83301 35.5 -14.5
s14.5 -21.5 14.5 -35.5s-4.83301 -26 -14.5 -36s-21.5 -15 -35.5 -15s-26 5 -36 15s-15 22 -15 36zM73 218.5c-5.33301 40.333 -8 88.167 -8 143.5s3 103.833 9 145.5s15.333 76.167 28 103.5s26.5 49.5 41.5 66.5s34.167 29.833 57.5 38.5c38 14 87.333 21 148 21
c87.333 0 148.666 -13.333 183.999 -40c34 -26 58.333 -63 73 -111c16.667 -58.667 25 -126.667 25 -204s-4.16699 -138.166 -12.5 -182.499s-19.666 -79.833 -33.999 -106.5s-34 -47.167 -59 -61.5s-50.833 -23.833 -77.5 -28.5s-58.167 -7 -94.5 -7
s-65.833 1.33301 -88.5 4s-45.667 8.16699 -69 16.5s-42.333 20.666 -57 36.999s-28 37.833 -40 64.5s-20.667 60.167 -26 100.5zM142 450.001c-2 -26.667 -2.99316 -64.333 -2.99316 -113s3.16699 -92 9.5 -130s18.666 -67.333 36.999 -88s39.5 -34 63.5 -40s55 -9 93 -9
s67.667 2.16699 89 6.5s40.666 12.333 57.999 24s30.666 28.5 39.999 50.5c18.667 44 28 114 28 210c0 104.667 -8 175 -24 211c-6.66699 15.333 -12.667 28 -18 38s-13.333 18.5 -24 25.5s-19.834 12.333 -27.501 16s-19 6.33398 -34 8.00098s-27.5 2.66699 -37.5 3
s-24.333 0.5 -43 0.5s-32.834 -0.166992 -42.501 -0.5s-22 -1.33301 -37 -3s-26.5 -4.33398 -34.5 -8.00098s-17.333 -9 -28 -16s-18.834 -15.5 -24.501 -25.5s-11.834 -22.5 -18.501 -37.5s-11.5 -32.5 -14.5 -52.5s-5.5 -43.333 -7.5 -70z" />
    <glyph glyph-name="multiply" unicode="&#xd7;" horiz-adv-x="458" 
d="M56 235l121 120l-121 121l52 53l121 -121l122 121l52 -52l-122 -122l121 -120l-52 -53l-121 121l-120 -120z" />
    <glyph glyph-name="Oslash" unicode="&#xd8;" horiz-adv-x="676" 
d="M114 642c14.667 26.667 35 47.167 61 61.5s51.667 23.5 77 27.5s57.333 6 96 6c84 0 144 -12.333 180 -37l21 32h61l-44 -68c43.333 -56 65 -157 65 -303c0 -120 -15.667 -209.333 -47 -268c-14.667 -26.667 -34.5 -47.167 -59.5 -61.5s-50.833 -23.833 -77.5 -28.5
s-59.667 -7 -99 -7c-86.667 0 -148.667 12.667 -186 38l-22 -34h-61l45 71c-39.333 53.333 -59 146.5 -59 279.5s16.333 230.167 49 291.5zM170 142l318.003 496.001c-18.667 14 -46.334 22 -83.001 24c-12.667 0.666992 -31.334 1 -56.001 1s-43 -0.333008 -55 -1
s-27 -2.83398 -45 -6.50098s-31.333 -9.33398 -40 -17.001s-18.334 -18.667 -29.001 -33s-18.667 -32.166 -24 -53.499c-11.333 -50.667 -17 -121.5 -17 -212.5s10.333 -156.833 31 -197.5zM348.003 70.001c42 0 75.166 3.5 99.499 10.5s45.333 21 63 42
s29.834 50.333 36.501 88s10 87.834 10 150.501c0 113.333 -11.333 191.666 -34 234.999l-319 -496c27.333 -20 75.333 -30 144 -30z" />
    <glyph glyph-name="Ugrave" unicode="&#xd9;" horiz-adv-x="677" 
d="M181 930h95l107 -133h-69zM80 320l-0.000976562 412h74v-412c0 -60.667 3.83301 -108.834 11.5 -144.501s21.834 -60.834 42.501 -75.501s39.334 -23.5 56.001 -26.5s34.667 -4.5 54 -4.5h33c47.333 0 76.666 2.33301 87.999 7s22 9.83398 32 15.501s18 12.667 24 21
s12.333 18.833 19 31.5s12 27.334 16 44.001c8 36.667 12 80.667 12 132v412h75v-412c0 -62 -5.83301 -114.5 -17.5 -157.5s-25 -75.167 -40 -96.5s-36.333 -37.666 -64 -48.999s-50.5 -17.833 -68.5 -19.5s-35.667 -2.5 -53 -2.5h-42.5c-11 0 -21 0.166992 -30 0.5
s-21.667 1 -38 2s-28.833 3 -37.5 6l-33.5 12c-13.667 5 -24.334 11.667 -32.001 20l-26.5 29.5c-10 11.333 -17.667 25.166 -23 41.499s-10.666 34.833 -15.999 55.5c-10 38 -15 90.667 -15 158z" />
    <glyph glyph-name="Uacute" unicode="&#xda;" horiz-adv-x="677" 
d="M314 797l107 133h95l-133 -133h-69zM80 320l-0.000976562 412h74v-412c0 -60.667 3.83301 -108.834 11.5 -144.501s21.834 -60.834 42.501 -75.501s39.334 -23.5 56.001 -26.5s34.667 -4.5 54 -4.5h33c47.333 0 76.666 2.33301 87.999 7s22 9.83398 32 15.501
s18 12.667 24 21s12.333 18.833 19 31.5s12 27.334 16 44.001c8 36.667 12 80.667 12 132v412h75v-412c0 -62 -5.83301 -114.5 -17.5 -157.5s-25 -75.167 -40 -96.5s-36.333 -37.666 -64 -48.999s-50.5 -17.833 -68.5 -19.5s-35.667 -2.5 -53 -2.5h-42.5
c-11 0 -21 0.166992 -30 0.5s-21.667 1 -38 2s-28.833 3 -37.5 6l-33.5 12c-13.667 5 -24.334 11.667 -32.001 20l-26.5 29.5c-10 11.333 -17.667 25.166 -23 41.499s-10.666 34.833 -15.999 55.5c-10 38 -15 90.667 -15 158z" />
    <glyph glyph-name="Ucircumflex" unicode="&#xdb;" horiz-adv-x="677" 
d="M202 797l118 130h70l104 -130h-70l-72 71l-78 -71h-72zM80 320l-0.000976562 412h74v-412c0 -60.667 3.83301 -108.834 11.5 -144.501s21.834 -60.834 42.501 -75.501s39.334 -23.5 56.001 -26.5s34.667 -4.5 54 -4.5h33c47.333 0 76.666 2.33301 87.999 7
s22 9.83398 32 15.501s18 12.667 24 21s12.333 18.833 19 31.5s12 27.334 16 44.001c8 36.667 12 80.667 12 132v412h75v-412c0 -62 -5.83301 -114.5 -17.5 -157.5s-25 -75.167 -40 -96.5s-36.333 -37.666 -64 -48.999s-50.5 -17.833 -68.5 -19.5s-35.667 -2.5 -53 -2.5
h-42.5c-11 0 -21 0.166992 -30 0.5s-21.667 1 -38 2s-28.833 3 -37.5 6l-33.5 12c-13.667 5 -24.334 11.667 -32.001 20l-26.5 29.5c-10 11.333 -17.667 25.166 -23 41.499s-10.666 34.833 -15.999 55.5c-10 38 -15 90.667 -15 158z" />
    <glyph glyph-name="Udieresis" unicode="&#xdc;" horiz-adv-x="677" 
d="M185 812c-10 10 -15 20.168 -15 30.501s1.5 18.666 4.5 24.999s6.5 11.833 10.5 16.5c10 9.33301 22 14 36 14s26 -4.83301 36 -14.5s15 -21.5 15 -35.5s-5 -26 -15 -36s-22 -15 -36 -15s-26 5 -36 15zM426 848.001c0 14 4.83496 25.833 14.502 35.5s21.667 14.5 36 14.5
s26.166 -4.83301 35.499 -14.5s14 -21.5 14 -35.5s-4.83301 -26 -14.5 -36s-21.334 -15 -35.001 -15s-25.5 5 -35.5 15s-15 22 -15 36zM80.002 320.001l-0.000976562 412h74v-412c0 -60.667 3.83301 -108.834 11.5 -144.501s21.834 -60.834 42.501 -75.501
s39.334 -23.5 56.001 -26.5s34.667 -4.5 54 -4.5h33c47.333 0 76.666 2.33301 87.999 7s22 9.83398 32 15.501s18 12.667 24 21s12.333 18.833 19 31.5s12 27.334 16 44.001c8 36.667 12 80.667 12 132v412h75v-412c0 -62 -5.83301 -114.5 -17.5 -157.5
s-25 -75.167 -40 -96.5s-36.333 -37.666 -64 -48.999s-50.5 -17.833 -68.5 -19.5s-35.667 -2.5 -53 -2.5h-42.5c-11 0 -21 0.166992 -30 0.5s-21.667 1 -38 2s-28.833 3 -37.5 6l-33.5 12c-13.667 5 -24.334 11.667 -32.001 20l-26.5 29.5
c-10 11.333 -17.667 25.166 -23 41.499s-10.666 34.833 -15.999 55.5c-10 38 -15 90.667 -15 158z" />
    <glyph glyph-name="Yacute" unicode="&#xdd;" horiz-adv-x="630" 
d="M290 797l108 133h94l-132 -133h-70zM352 0h-74v260l-233 472h81l189 -384l209 384h81l-253 -472v-260z" />
    <glyph glyph-name="Thorn" unicode="&#xde;" horiz-adv-x="557" 
d="M134 168v-168.001h-74v729h74v-141h197c117.333 -1.33301 176 -72.333 176 -213c0 -106.667 -27.667 -175 -83 -205c-16.667 -9.33301 -32 -15.166 -46 -17.499s-26.667 -3.5 -38 -3.5h-68c-26.667 0 -72.667 6.33301 -138 19zM134 222.999h197h3
c29.333 0 53 10.5 71 31.5s27 61.833 27 122.5c-1.33301 62.667 -14.333 101.667 -39 117c-19.333 12.667 -40 19 -62 19h-197v-290z" />
    <glyph glyph-name="germandbls" unicode="&#xdf;" horiz-adv-x="570" 
d="M219 71l177 -4.99707c20.667 0 39 6.16699 55 18.5s24.333 28.166 25 47.499v47c0 14 -7.16699 24.833 -21.5 32.5s-31.666 13.667 -51.999 18s-40.833 9.83301 -61.5 16.5s-38.167 18.5 -52.5 35.5s-21.5 40.167 -21.5 69.5s7.5 54.166 22.5 74.499
s47.833 49.166 98.5 86.499c33.333 25.333 50 58.666 50 99.999c0 60.667 -51.667 91 -155 91c-43.333 0 -79 -11 -107 -33s-42 -56.667 -42 -104v-566h-74v566c0 60 20 110.167 60 150.5s94.333 60.5 163 60.5c47.333 0 87.666 -6.16699 120.999 -18.5s58 -28.5 74 -48.5
c23.333 -29.333 35 -63 35 -101c0 -34.667 -11 -69 -33 -103c-13.333 -21.333 -29 -38.333 -47 -51c-6 -5.33301 -14.667 -12.333 -26 -21s-19.166 -15 -23.499 -19l-17 -16c-7 -6.66699 -11.833 -12.334 -14.5 -17.001c-7.33301 -11.333 -11 -22.833 -11 -34.5
s7.16699 -21 21.5 -28s31.833 -12.833 52.5 -17.5s41.167 -10.5 61.5 -17.5s37.666 -19.333 51.999 -37s21.5 -40.5 21.5 -68.5v-47c0 -69.333 -35.333 -113.666 -106 -132.999c-17.333 -4.66699 -35.333 -7 -54 -7s-39.167 1.16699 -61.5 3.5s-44.333 5.33301 -66 9
s-36.167 5.83398 -43.5 6.50098v60z" />
    <glyph glyph-name="agrave" unicode="&#xe0;" horiz-adv-x="519" 
d="M99 734h95l107 -133h-69zM57 511c72 20 159.334 30.001 262.001 30.001c43.333 0 79.166 -12.667 107.499 -38s42.5 -64 42.5 -116v-387h-55l-19 64l-15 -7c-86.667 -42 -155.667 -63 -207 -63c-38 0 -69.667 11.667 -95 35s-38 55.666 -38 96.999v61
c0 40.667 11.833 73 35.5 97s56.167 36 97.5 36h166.5h55.5c0.666992 22 1 38.5 1 49.5s-0.333008 16.833 -1 17.5c0 54.667 -28.667 82 -86 82s-141.333 -4 -252 -12v54zM114.001 131.001c0 -42 19.667 -63 59 -63c24 0 54.5 4.33301 91.5 13s68.167 17 93.5 25l37 13v143
l-222 -16c-20 -2 -34.833 -9 -44.5 -21s-14.5 -26.667 -14.5 -44v-50z" />
    <glyph glyph-name="aacute" unicode="&#xe1;" horiz-adv-x="519" 
d="M227 601l107 133h95l-133 -133h-69zM57 511c72 20 159.334 30.001 262.001 30.001c43.333 0 79.166 -12.667 107.499 -38s42.5 -64 42.5 -116v-387h-55l-19 64l-15 -7c-86.667 -42 -155.667 -63 -207 -63c-38 0 -69.667 11.667 -95 35s-38 55.666 -38 96.999v61
c0 40.667 11.833 73 35.5 97s56.167 36 97.5 36h166.5h55.5c0.666992 22 1 38.5 1 49.5s-0.333008 16.833 -1 17.5c0 54.667 -28.667 82 -86 82s-141.333 -4 -252 -12v54zM114.001 131.001c0 -42 19.667 -63 59 -63c24 0 54.5 4.33301 91.5 13s68.167 17 93.5 25l37 13v143
l-222 -16c-20 -2 -34.833 -9 -44.5 -21s-14.5 -26.667 -14.5 -44v-50z" />
    <glyph glyph-name="acircumflex" unicode="&#xe2;" horiz-adv-x="519" 
d="M117 601l117 130h71l104 -130h-71l-71 71l-78 -71h-72zM57 511c72 20 159.334 30.001 262.001 30.001c43.333 0 79.166 -12.667 107.499 -38s42.5 -64 42.5 -116v-387h-55l-19 64l-15 -7c-86.667 -42 -155.667 -63 -207 -63c-38 0 -69.667 11.667 -95 35
s-38 55.666 -38 96.999v61c0 40.667 11.833 73 35.5 97s56.167 36 97.5 36h166.5h55.5c0.666992 22 1 38.5 1 49.5s-0.333008 16.833 -1 17.5c0 54.667 -28.667 82 -86 82s-141.333 -4 -252 -12v54zM114.001 131.001c0 -42 19.667 -63 59 -63c24 0 54.5 4.33301 91.5 13
s68.167 17 93.5 25l37 13v143l-222 -16c-20 -2 -34.833 -9 -44.5 -21s-14.5 -26.667 -14.5 -44v-50z" />
    <glyph glyph-name="atilde" unicode="&#xe3;" horiz-adv-x="519" 
d="M315 671c15.333 0 45.333 11.998 90 35.998l22 -42c-2 -1.33301 -10.333 -7.66602 -25 -18.999c-35.333 -29.333 -64 -44 -86 -44c-20 0 -40.667 5.66699 -62 17s-38.166 17 -50.499 17s-23.333 -1.83301 -33 -5.5s-20 -8.66699 -31 -15s-20.833 -11.166 -29.5 -14.499
l-21 41l40.5 32.5c9 7 21 14 36 21s30.333 10.167 46 9.5s34.667 -6.5 57 -17.5s35.666 -16.5 39.999 -16.5h6.5zM57 510.998c72 20 159.334 30.001 262.001 30.001c43.333 0 79.166 -12.667 107.499 -38s42.5 -64 42.5 -116v-387h-55l-19 64l-15 -7
c-86.667 -42 -155.667 -63 -207 -63c-38 0 -69.667 11.667 -95 35s-38 55.666 -38 96.999v61c0 40.667 11.833 73 35.5 97s56.167 36 97.5 36h166.5h55.5c0.666992 22 1 38.5 1 49.5s-0.333008 16.833 -1 17.5c0 54.667 -28.667 82 -86 82s-141.333 -4 -252 -12v54z
M114.001 130.999c0 -42 19.667 -63 59 -63c24 0 54.5 4.33301 91.5 13s68.167 17 93.5 25l37 13v143l-222 -16c-20 -2 -34.833 -9 -44.5 -21s-14.5 -26.667 -14.5 -44v-50z" />
    <glyph glyph-name="adieresis" unicode="&#xe4;" horiz-adv-x="519" 
d="M83 652c0 14 5 25.833 15 35.5s22 14.5 36 14.5s25.833 -4.83301 35.5 -14.5s14.5 -21.5 14.5 -35.5s-4.83301 -26 -14.5 -36s-21.5 -15 -35.5 -15s-26 5 -36 15s-15 22 -15 36zM338 652c0 14 5 25.833 15 35.5s22 14.5 36 14.5s25.833 -4.83301 35.5 -14.5
s14.5 -21.5 14.5 -35.5s-4.83301 -26 -14.5 -36s-21.5 -15 -35.5 -15s-26 5 -36 15s-15 22 -15 36zM57 511c72 20 159.334 30.001 262.001 30.001c43.333 0 79.166 -12.667 107.499 -38s42.5 -64 42.5 -116v-387h-55l-19 64l-15 -7c-86.667 -42 -155.667 -63 -207 -63
c-38 0 -69.667 11.667 -95 35s-38 55.666 -38 96.999v61c0 40.667 11.833 73 35.5 97s56.167 36 97.5 36h166.5h55.5c0.666992 22 1 38.5 1 49.5s-0.333008 16.833 -1 17.5c0 54.667 -28.667 82 -86 82s-141.333 -4 -252 -12v54zM114.001 131.001c0 -42 19.667 -63 59 -63
c24 0 54.5 4.33301 91.5 13s68.167 17 93.5 25l37 13v143l-222 -16c-20 -2 -34.833 -9 -44.5 -21s-14.5 -26.667 -14.5 -44v-50z" />
    <glyph glyph-name="aring" unicode="&#xe5;" horiz-adv-x="519" 
d="M161 673c0 28.667 10 53 30 73s44 30 72 30s51.833 -10 71.5 -30s29.5 -44.333 29.5 -73s-9.83301 -52.834 -29.5 -72.501s-43.5 -29.5 -71.5 -29.5s-52 9.83301 -72 29.5s-30 43.834 -30 72.501zM224 712c-10.667 -10.667 -15.999 -23.499 -15.999 -38.499
s5.33301 -27.833 16 -38.5s23.667 -16 39 -16s28.166 5.16699 38.499 15.5s15.5 23.166 15.5 38.499s-5.33301 28.333 -16 39s-23.5 16 -38.5 16s-27.833 -5.33301 -38.5 -16zM57.001 511.001c72 20 159.334 30.001 262.001 30.001c43.333 0 79.166 -12.667 107.499 -38
s42.5 -64 42.5 -116v-387h-55l-19 64l-15 -7c-86.667 -42 -155.667 -63 -207 -63c-38 0 -69.667 11.667 -95 35s-38 55.666 -38 96.999v61c0 40.667 11.833 73 35.5 97s56.167 36 97.5 36h166.5h55.5c0.666992 22 1 38.5 1 49.5s-0.333008 16.833 -1 17.5
c0 54.667 -28.667 82 -86 82s-141.333 -4 -252 -12v54zM114.002 131.002c0 -42 19.667 -63 59 -63c24 0 54.5 4.33301 91.5 13s68.167 17 93.5 25l37 13v143l-222 -16c-20 -2 -34.833 -9 -44.5 -21s-14.5 -26.667 -14.5 -44v-50z" />
    <glyph glyph-name="ae" unicode="&#xe6;" horiz-adv-x="871" 
d="M57 517c60.667 20 149.001 29.999 265.001 29.999c54 0 94.333 -19.333 121 -58c17.333 20.667 40.5 34.5 69.5 41.5s64.667 10.5 107 10.5s73.833 -1.66699 94.5 -5s41 -11 61 -23s34.333 -31 43 -57s13 -60.333 13 -103c0 -81.333 -45.667 -122 -137 -122h-224
c0 -62 7 -103.5 21 -124.5s40.667 -31.5 80 -31.5c121.333 0 204.666 3.33301 249.999 10v-56c-66 -18.667 -149.333 -28 -250 -28c-40 0 -70.333 5.5 -91 16.5s-41.667 28.833 -63 53.5l-17 -7c-58.667 -26 -107 -43.167 -145 -51.5s-65.333 -12.5 -82 -12.5
c-38 0 -69.667 11.667 -95 35s-38 55.666 -38 96.999v40c0 40.667 11.833 73 35.5 97s56.167 36 97.5 36c74 -0.666992 129.5 -1 166.5 -1s55.5 0.333008 55.5 1c0.666992 28.667 1 50.334 1 65.001s-0.333008 22.334 -1 23.001c0 54.667 -27.833 82 -83.5 82
s-140.5 -4 -254.5 -12v54zM114.001 136.999c0 -42 19.667 -63 59 -63c24 0 54.5 4.33301 91.5 13s68.167 17 93.5 25l37 13v128l-222 -16c-20 -2 -34.833 -9 -44.5 -21s-14.5 -26.667 -14.5 -44v-35zM470.001 303.999l224.001 0.000976562c42 0 63 16.333 63 49
c0 51.333 -7.5 83.166 -22.5 95.499s-50.167 18.5 -105.5 18.5c-68.667 0 -109.667 -7 -123 -21c-18.667 -20 -29.334 -42 -32.001 -66s-4 -49.333 -4 -76z" />
    <glyph glyph-name="ccedilla" unicode="&#xe7;" horiz-adv-x="500" 
d="M50 266c0 56 4.16602 102.669 12.499 140.002s20.833 65.166 37.5 83.499s34.667 31 54 38s48.833 10.5 88.5 10.5s109.834 -9.33301 210.501 -28v-54c-92.667 5.33301 -157.334 8 -194.001 8s-59.334 -1 -68.001 -3s-17.667 -6.66699 -27 -14s-16.666 -18 -21.999 -32
c-12 -31.333 -18 -83.333 -18 -156s7.66699 -122.834 23 -150.501s41.333 -41.5 78 -41.5c62.667 0 128.334 2.66699 197.001 8l38 3v-56c-64 -18 -142.333 -27.667 -235 -29c-27.333 0 -50.666 3.5 -69.999 10.5s-37.333 19.833 -54 38.5s-29.334 46.667 -38.001 84
s-13 84 -13 140zM259.999 -36.998h67c0 -52 -7 -87.667 -21 -107s-40.667 -29 -80 -29h-51v37l53 15c21.333 9.33301 32 37.333 32 84z" />
    <glyph glyph-name="egrave" unicode="&#xe8;" horiz-adv-x="525" 
d="M114 729h96l106 -133h-68zM50 268c0 58.667 4.00098 105.832 12.001 141.499s22.5 62.667 43.5 81s44.333 30.333 70 36s59 8.5 100 8.5s71.833 -1.66699 92.5 -5s41 -11 61 -23s34.333 -31 43 -57s13 -60.333 13 -103c0 -81.333 -45.667 -122 -137 -122h-224
c0 -62 7 -103.5 21 -124.5s40.667 -31.5 80 -31.5c121.333 0 204.666 3.33301 249.999 10v-56c-66 -18.667 -149.333 -28 -250 -28c-67.333 0 -113.333 19.333 -138 58s-37 110.334 -37 215.001zM124.001 297.998l224.001 0.000976562c42 0 63 16.333 63 49
c0 51.333 -7.5 83.166 -22.5 95.499s-50.167 18.5 -105.5 18.5c-68.667 0 -109.667 -7 -123 -21c-18.667 -20 -29.334 -42 -32.001 -66s-4 -49.333 -4 -76z" />
    <glyph glyph-name="eacute" unicode="&#xe9;" horiz-adv-x="525" 
d="M238 596l106 133h96l-134 -133h-68zM50 268c0 58.667 4.00098 105.832 12.001 141.499s22.5 62.667 43.5 81s44.333 30.333 70 36s59 8.5 100 8.5s71.833 -1.66699 92.5 -5s41 -11 61 -23s34.333 -31 43 -57s13 -60.333 13 -103c0 -81.333 -45.667 -122 -137 -122h-224
c0 -62 7 -103.5 21 -124.5s40.667 -31.5 80 -31.5c121.333 0 204.666 3.33301 249.999 10v-56c-66 -18.667 -149.333 -28 -250 -28c-67.333 0 -113.333 19.333 -138 58s-37 110.334 -37 215.001zM124.001 297.998l224.001 0.000976562c42 0 63 16.333 63 49
c0 51.333 -7.5 83.166 -22.5 95.499s-50.167 18.5 -105.5 18.5c-68.667 0 -109.667 -7 -123 -21c-18.667 -20 -29.334 -42 -32.001 -66s-4 -49.333 -4 -76z" />
    <glyph glyph-name="ecircumflex" unicode="&#xea;" horiz-adv-x="525" 
d="M128 596l117 130h71l104 -130h-71l-71 71l-78 -71h-72zM50 268c0 58.667 4.00098 105.832 12.001 141.499s22.5 62.667 43.5 81s44.333 30.333 70 36s59 8.5 100 8.5s71.833 -1.66699 92.5 -5s41 -11 61 -23s34.333 -31 43 -57s13 -60.333 13 -103
c0 -81.333 -45.667 -122 -137 -122h-224c0 -62 7 -103.5 21 -124.5s40.667 -31.5 80 -31.5c121.333 0 204.666 3.33301 249.999 10v-56c-66 -18.667 -149.333 -28 -250 -28c-67.333 0 -113.333 19.333 -138 58s-37 110.334 -37 215.001zM124.001 297.998
l224.001 0.000976562c42 0 63 16.333 63 49c0 51.333 -7.5 83.166 -22.5 95.499s-50.167 18.5 -105.5 18.5c-68.667 0 -109.667 -7 -123 -21c-18.667 -20 -29.334 -42 -32.001 -66s-4 -49.333 -4 -76z" />
    <glyph glyph-name="edieresis" unicode="&#xeb;" horiz-adv-x="525" 
d="M93 647c0 14 5 25.833 15 35.5s22 14.5 36 14.5s25.833 -4.83301 35.5 -14.5s14.5 -21.5 14.5 -35.5s-4.83301 -26 -14.5 -36s-21.5 -15 -35.5 -15s-26 5 -36 15s-15 22 -15 36zM348 647c0 14 5 25.833 15 35.5s22 14.5 36 14.5s25.833 -4.83301 35.5 -14.5
s14.5 -21.5 14.5 -35.5s-4.83301 -26 -14.5 -36s-21.5 -15 -35.5 -15s-26 5 -36 15s-15 22 -15 36zM50 268c0 58.667 4.00098 105.832 12.001 141.499s22.5 62.667 43.5 81s44.333 30.333 70 36s59 8.5 100 8.5s71.833 -1.66699 92.5 -5s41 -11 61 -23s34.333 -31 43 -57
s13 -60.333 13 -103c0 -81.333 -45.667 -122 -137 -122h-224c0 -62 7 -103.5 21 -124.5s40.667 -31.5 80 -31.5c121.333 0 204.666 3.33301 249.999 10v-56c-66 -18.667 -149.333 -28 -250 -28c-67.333 0 -113.333 19.333 -138 58s-37 110.334 -37 215.001zM124.001 297.998
l224.001 0.000976562c42 0 63 16.333 63 49c0 51.333 -7.5 83.166 -22.5 95.499s-50.167 18.5 -105.5 18.5c-68.667 0 -109.667 -7 -123 -21c-18.667 -20 -29.334 -42 -32.001 -66s-4 -49.333 -4 -76z" />
    <glyph glyph-name="igrave" unicode="&#xec;" horiz-adv-x="194" 
d="M-70 729h94l108 -133h-70zM60 0v531h74v-531h-74z" />
    <glyph glyph-name="iacute" unicode="&#xed;" horiz-adv-x="194" 
d="M62 596l108 133h94l-132 -133h-70zM60 0v531h74v-531h-74z" />
    <glyph glyph-name="icircumflex" unicode="&#xee;" horiz-adv-x="194" 
d="M-49 596l117 130h71l104 -130h-71l-71 71l-78 -71h-72zM60 0v531h74v-531h-74z" />
    <glyph glyph-name="idieresis" unicode="&#xef;" horiz-adv-x="194" 
d="M-81 647c0 14 5 25.833 15 35.5s22 14.5 36 14.5s25.833 -4.83301 35.5 -14.5s14.5 -21.5 14.5 -35.5s-4.83301 -26 -14.5 -36s-21.5 -15 -35.5 -15s-26 5 -36 15s-15 22 -15 36zM174 647c0 14 5 25.833 15 35.5s22 14.5 36 14.5s25.833 -4.83301 35.5 -14.5
s14.5 -21.5 14.5 -35.5s-4.83301 -26 -14.5 -36s-21.5 -15 -35.5 -15s-26 5 -36 15s-15 22 -15 36zM60 0v531h74v-531h-74z" />
    <glyph glyph-name="eth" unicode="&#xf0;" horiz-adv-x="538" 
d="M79 62.5c-26 41.667 -38.999 108.001 -38.999 199.001s13.5 158.667 40.5 203s72.833 66.5 137.5 66.5h100c37.333 0 60.666 -5 69.999 -15c-16.667 55.333 -41.334 99.333 -74.001 132l-145 -58l-24 60l109 44c-30.667 16 -67.667 24 -111 24h-19v65
c88 0 157.667 -19.667 209 -59l118 47l25 -60l-91 -36c75.333 -92.667 113 -229.667 113 -411c0 -94.667 -15.667 -162.334 -47 -203.001s-75.666 -61 -132.999 -61h-100c-66.667 -0 -113 20.833 -139 62.5zM127.001 386.501c-8.66699 -29 -12.999 -67.5 -12.999 -115.5
s2.5 -85.167 7.5 -111.5s12.833 -45.333 23.5 -57s21.167 -19 31.5 -22s24.166 -4.5 41.499 -4.5h100c40 0 67.667 15.5 83 46.5s23 81.167 23 150.5s-7.16699 117.333 -21.5 144s-42.5 40 -84.5 40h-100c-24 0 -43 -4.5 -57 -13.5s-25.333 -28 -34 -57z" />
    <glyph glyph-name="ntilde" unicode="&#xf1;" 
d="M334 670c15.333 0 45.333 11.999 90 35.999l22 -42c-2 -1.33301 -10 -8 -24 -20c-36 -28.667 -65 -43 -87 -43c-20 0 -40.667 5.66699 -62 17s-38.166 17 -50.499 17s-23.333 -1.83301 -33 -5.5s-20 -8.66699 -31 -15s-20.833 -11.166 -29.5 -14.499l-21 41l40.5 32.5
c9 7 21 14 36 21s30.333 10.167 46 9.5s34.667 -6.5 57 -17.5s35.666 -16.5 39.999 -16.5h6.5zM60 -0.000976562v531.002h52l22 -62c2 0.666992 9.33301 4.83398 22 12.501s20.5 12.167 23.5 13.5s10.167 5.16602 21.5 11.499s19.333 10.166 24 11.499s12.334 4 23.001 8
s19.334 6.66699 26.001 8c21.333 4 40 6 56 6c50.667 0 90.667 -16.667 120 -50s44 -73.333 44 -120v-370h-74v370c0 31.333 -8.33301 55.166 -25 71.499s-38 24.5 -64 24.5s-50.333 -2.66699 -73 -8s-40.834 -10.833 -54.501 -16.5s-36.834 -16.5 -69.501 -32.5v-409h-74z
" />
    <glyph glyph-name="ograve" unicode="&#xf2;" horiz-adv-x="568" 
d="M126 729h96l106 -133h-68zM101 54c-34 39.333 -51 110.001 -51 212.001s17 172.5 51 211.5s95.333 58.5 184 58.5s149.667 -19.833 183 -59.5s50 -110.834 50 -213.501s-16.667 -173 -50 -211s-94.333 -57 -183 -57s-150 19.667 -184 59zM130.5 352.501
c-4.33301 -25 -6.49805 -57.8311 -6.49805 -98.498s3.16699 -74 9.5 -100s17.333 -45 33 -57s31.667 -19.667 48 -23s39.666 -5 69.999 -5s54 1.66699 71 5s33 11.166 48 23.499s25.5 31.333 31.5 57s9 61.167 9 106.5s-2.5 81.666 -7.5 108.999s-14.833 47.833 -29.5 61.5
s-30.5 22.167 -47.5 25.5s-40.167 5 -69.5 5s-51.333 -1 -66 -3s-29.334 -6.66699 -44.001 -14s-25.5 -18.333 -32.5 -33s-12.667 -34.5 -17 -59.5z" />
    <glyph glyph-name="oacute" unicode="&#xf3;" horiz-adv-x="568" 
d="M250 596l106 133h96l-134 -133h-68zM101 54c-34 39.333 -51 110.001 -51 212.001s17 172.5 51 211.5s95.333 58.5 184 58.5s149.667 -19.833 183 -59.5s50 -110.834 50 -213.501s-16.667 -173 -50 -211s-94.333 -57 -183 -57s-150 19.667 -184 59zM130.5 352.501
c-4.33301 -25 -6.49805 -57.8311 -6.49805 -98.498s3.16699 -74 9.5 -100s17.333 -45 33 -57s31.667 -19.667 48 -23s39.666 -5 69.999 -5s54 1.66699 71 5s33 11.166 48 23.499s25.5 31.333 31.5 57s9 61.167 9 106.5s-2.5 81.666 -7.5 108.999s-14.833 47.833 -29.5 61.5
s-30.5 22.167 -47.5 25.5s-40.167 5 -69.5 5s-51.333 -1 -66 -3s-29.334 -6.66699 -44.001 -14s-25.5 -18.333 -32.5 -33s-12.667 -34.5 -17 -59.5z" />
    <glyph glyph-name="ocircumflex" unicode="&#xf4;" horiz-adv-x="568" 
d="M143 596l117 130h71l104 -130h-71l-71 71l-78 -71h-72zM101 54c-34 39.333 -51 110.001 -51 212.001s17 172.5 51 211.5s95.333 58.5 184 58.5s149.667 -19.833 183 -59.5s50 -110.834 50 -213.501s-16.667 -173 -50 -211s-94.333 -57 -183 -57s-150 19.667 -184 59z
M130.5 352.501c-4.33301 -25 -6.49805 -57.8311 -6.49805 -98.498s3.16699 -74 9.5 -100s17.333 -45 33 -57s31.667 -19.667 48 -23s39.666 -5 69.999 -5s54 1.66699 71 5s33 11.166 48 23.499s25.5 31.333 31.5 57s9 61.167 9 106.5s-2.5 81.666 -7.5 108.999
s-14.833 47.833 -29.5 61.5s-30.5 22.167 -47.5 25.5s-40.167 5 -69.5 5s-51.333 -1 -66 -3s-29.334 -6.66699 -44.001 -14s-25.5 -18.333 -32.5 -33s-12.667 -34.5 -17 -59.5z" />
    <glyph glyph-name="otilde" unicode="&#xf5;" horiz-adv-x="568" 
d="M350 666c15.333 0 45.333 11.999 90 35.999l22 -42c-2 -1.33301 -10 -8 -24 -20c-36 -28.667 -65 -43 -87 -43c-20 0 -40.667 5.66699 -62 17s-38.166 17 -50.499 17s-23.333 -1.83301 -33 -5.5s-20 -8.66699 -31 -15s-20.833 -11.166 -29.5 -14.499l-21 41l40.5 32.5
c9 7 21 14 36 21s30.333 10.167 46 9.5s34.667 -6.5 57 -17.5s35.666 -16.5 39.999 -16.5h6.5zM101 53.999c-34 39.333 -51 110.001 -51 212.001s17 172.5 51 211.5s95.333 58.5 184 58.5s149.667 -19.833 183 -59.5s50 -110.834 50 -213.501s-16.667 -173 -50 -211
s-94.333 -57 -183 -57s-150 19.667 -184 59zM130.5 352.5c-4.33301 -25 -6.49805 -57.8311 -6.49805 -98.498s3.16699 -74 9.5 -100s17.333 -45 33 -57s31.667 -19.667 48 -23s39.666 -5 69.999 -5s54 1.66699 71 5s33 11.166 48 23.499s25.5 31.333 31.5 57
s9 61.167 9 106.5s-2.5 81.666 -7.5 108.999s-14.833 47.833 -29.5 61.5s-30.5 22.167 -47.5 25.5s-40.167 5 -69.5 5s-51.333 -1 -66 -3s-29.334 -6.66699 -44.001 -14s-25.5 -18.333 -32.5 -33s-12.667 -34.5 -17 -59.5z" />
    <glyph glyph-name="odieresis" unicode="&#xf6;" horiz-adv-x="568" 
d="M107 647c0 14 5 25.833 15 35.5s22 14.5 36 14.5s25.833 -4.83301 35.5 -14.5s14.5 -21.5 14.5 -35.5s-4.83301 -26 -14.5 -36s-21.5 -15 -35.5 -15s-26 5 -36 15s-15 22 -15 36zM362 647c0 14 5 25.833 15 35.5s22 14.5 36 14.5s25.833 -4.83301 35.5 -14.5
s14.5 -21.5 14.5 -35.5s-4.83301 -26 -14.5 -36s-21.5 -15 -35.5 -15s-26 5 -36 15s-15 22 -15 36zM101 54c-34 39.333 -51 110.001 -51 212.001s17 172.5 51 211.5s95.333 58.5 184 58.5s149.667 -19.833 183 -59.5s50 -110.834 50 -213.501s-16.667 -173 -50 -211
s-94.333 -57 -183 -57s-150 19.667 -184 59zM130.5 352.501c-4.33301 -25 -6.49805 -57.8311 -6.49805 -98.498s3.16699 -74 9.5 -100s17.333 -45 33 -57s31.667 -19.667 48 -23s39.666 -5 69.999 -5s54 1.66699 71 5s33 11.166 48 23.499s25.5 31.333 31.5 57
s9 61.167 9 106.5s-2.5 81.666 -7.5 108.999s-14.833 47.833 -29.5 61.5s-30.5 22.167 -47.5 25.5s-40.167 5 -69.5 5s-51.333 -1 -66 -3s-29.334 -6.66699 -44.001 -14s-25.5 -18.333 -32.5 -33s-12.667 -34.5 -17 -59.5z" />
    <glyph glyph-name="divide" unicode="&#xf7;" horiz-adv-x="516" 
d="M50 316v74h416v-74h-416zM212 173v54c0 16.667 8 25 24 25h50c15.333 0 23 -8.33301 23 -25v-54c0 -15.333 -7.66699 -23 -23 -23h-50c-16 0 -24 7.66699 -24 23zM212 472v54c0 16.667 8 25 24 25h50c15.333 0 23 -8.33301 23 -25v-54c0 -15.333 -7.66699 -23 -23 -23
h-50c-16 0 -24 7.66699 -24 23z" />
    <glyph glyph-name="oslash" unicode="&#xf8;" horiz-adv-x="568" 
d="M95 61c-30 38 -45 107.166 -45 207.499s17 170 51 209s95 58.5 183 58.5c61.333 0 108.333 -8.33301 141 -25l15 20h66l-39 -53c34 -39.333 51 -110.666 51 -213.999s-16.667 -174 -50 -212s-94.666 -57 -183.999 -57c-66.667 0 -117.334 10.667 -152.001 32l-20 -27h-61
zM130.5 352.499c-4.33301 -25 -6.5 -61.667 -6.5 -110s6.66699 -86.833 20 -115.5l237 323c-19.333 8 -46.666 12 -81.999 12s-60.333 -1 -75 -3s-29.334 -6.66699 -44.001 -14s-25.5 -18.333 -32.5 -33s-12.667 -34.5 -17 -59.5zM177 87.999
c19.333 -12.667 49.667 -18.999 91 -18.999s70.5 1.66699 87.5 5s33 11.166 48 23.499s25.5 31.333 31.5 57s9 60.167 9 103.5c0 76.667 -8 129 -24 157z" />
    <glyph glyph-name="ugrave" unicode="&#xf9;" 
d="M110 729h94l108 -133h-70zM50 161v369.998h74v-370c0 -31.333 8.33301 -55.166 25 -71.499s38 -24.5 64 -24.5s50.333 2.66699 73 8s40.834 10.833 54.501 16.5s36.834 16.5 69.501 32.5v409h74v-531h-52l-22 62c-2 -0.666992 -9.33301 -4.83398 -22 -12.501
s-20.5 -12.167 -23.5 -13.5s-10.167 -5.16602 -21.5 -11.499s-19.333 -10.166 -24 -11.499s-12.334 -4 -23.001 -8s-19.334 -6.66699 -26.001 -8c-21.333 -4 -40 -6 -56 -6c-50.667 0 -90.667 16.667 -120 50s-44 73.333 -44 120z" />
    <glyph glyph-name="uacute" unicode="&#xfa;" 
d="M232 596l108 133h94l-132 -133h-70zM50 161v369.998h74v-370c0 -31.333 8.33301 -55.166 25 -71.499s38 -24.5 64 -24.5s50.333 2.66699 73 8s40.834 10.833 54.501 16.5s36.834 16.5 69.501 32.5v409h74v-531h-52l-22 62c-2 -0.666992 -9.33301 -4.83398 -22 -12.501
s-20.5 -12.167 -23.5 -13.5s-10.167 -5.16602 -21.5 -11.499s-19.333 -10.166 -24 -11.499s-12.334 -4 -23.001 -8s-19.334 -6.66699 -26.001 -8c-21.333 -4 -40 -6 -56 -6c-50.667 0 -90.667 16.667 -120 50s-44 73.333 -44 120z" />
    <glyph glyph-name="ucircumflex" unicode="&#xfb;" 
d="M121 596l117 130h71l104 -130h-71l-71 71l-78 -71h-72zM50 161v369.998h74v-370c0 -31.333 8.33301 -55.166 25 -71.499s38 -24.5 64 -24.5s50.333 2.66699 73 8s40.834 10.833 54.501 16.5s36.834 16.5 69.501 32.5v409h74v-531h-52l-22 62
c-2 -0.666992 -9.33301 -4.83398 -22 -12.501s-20.5 -12.167 -23.5 -13.5s-10.167 -5.16602 -21.5 -11.499s-19.333 -10.166 -24 -11.499s-12.334 -4 -23.001 -8s-19.334 -6.66699 -26.001 -8c-21.333 -4 -40 -6 -56 -6c-50.667 0 -90.667 16.667 -120 50
s-44 73.333 -44 120z" />
    <glyph glyph-name="udieresis" unicode="&#xfc;" 
d="M89 647c0 14 5 25.833 15 35.5s22 14.5 36 14.5s25.833 -4.83301 35.5 -14.5s14.5 -21.5 14.5 -35.5s-4.83301 -26 -14.5 -36s-21.5 -15 -35.5 -15s-26 5 -36 15s-15 22 -15 36zM344 647c0 14 5 25.833 15 35.5s22 14.5 36 14.5s25.833 -4.83301 35.5 -14.5
s14.5 -21.5 14.5 -35.5s-4.83301 -26 -14.5 -36s-21.5 -15 -35.5 -15s-26 5 -36 15s-15 22 -15 36zM50 161v369.998h74v-370c0 -31.333 8.33301 -55.166 25 -71.499s38 -24.5 64 -24.5s50.333 2.66699 73 8s40.834 10.833 54.501 16.5s36.834 16.5 69.501 32.5v409h74v-531
h-52l-22 62c-2 -0.666992 -9.33301 -4.83398 -22 -12.501s-20.5 -12.167 -23.5 -13.5s-10.167 -5.16602 -21.5 -11.499s-19.333 -10.166 -24 -11.499s-12.334 -4 -23.001 -8s-19.334 -6.66699 -26.001 -8c-21.333 -4 -40 -6 -56 -6c-50.667 0 -90.667 16.667 -120 50
s-44 73.333 -44 120z" />
    <glyph glyph-name="yacute" unicode="&#xfd;" horiz-adv-x="554" 
d="M242 596l107 133h95l-133 -133h-69zM21 531h81.002l129 -415c4.66699 -13.333 9.16699 -22 13.5 -26s8.16602 -7.16699 11.499 -9.5s6.66602 -3.83301 9.99902 -4.5s6.5 -1.16699 9.5 -1.5s5.83301 -0.5 8.5 -0.5c6 1.33301 10.333 2.33301 13 3l152 454h83l-234 -699
l-75 -102h-46l94 270c-57.333 0 -97.333 36.667 -120 110z" />
    <glyph glyph-name="thorn" unicode="&#xfe;" horiz-adv-x="554" 
d="M70 -270l-0.00195312 1052h74v-311c18 12.667 47.5 27.334 88.5 44.001s77.167 25 108.5 25s58.833 -7.66699 82.5 -23s41.834 -36.333 54.501 -63c24 -50.667 36 -113 36 -187c0 -102.667 -15.333 -175.667 -46 -219c-12.667 -16.667 -30 -30.5 -52 -41.5
s-46.667 -16.5 -74 -16.5s-59.666 3.5 -96.999 10.5s-71 16.5 -101 28.5v-299h-74zM338.998 63.999c33.333 0 58.5 14.8311 75.5 44.498s25.5 79.334 25.5 149.001s-9 121.834 -27 156.501s-42.667 52 -74 52c-52 -3.33301 -117 -20 -195 -50v-327
c31.333 -9.33301 58 -15 80 -17s37.333 -3.33301 46 -4c34.667 -2.66699 57.667 -4 69 -4z" />
    <glyph glyph-name="ydieresis" unicode="&#xff;" horiz-adv-x="554" 
d="M113 611c-10 10 -15 20.168 -15 30.501s1.5 18.666 4.5 24.999s6.5 11.833 10.5 16.5c10 9.33301 22 14 36 14s26 -4.83301 36 -14.5s15 -21.5 15 -35.5s-5 -26 -15 -36s-22 -15 -36 -15s-26 5 -36 15zM354 647.001c0 14 4.83496 25.833 14.502 35.5s21.667 14.5 36 14.5
s26.166 -4.83301 35.499 -14.5s14 -21.5 14 -35.5s-4.83301 -26 -14.5 -36s-21.334 -15 -35.001 -15s-25.5 5 -35.5 15s-15 22 -15 36zM21.002 531.001h81.002l129 -415c4.66699 -13.333 9.16699 -22 13.5 -26s8.16602 -7.16699 11.499 -9.5s6.66602 -3.83301 9.99902 -4.5
s6.5 -1.16699 9.5 -1.5s5.83301 -0.5 8.5 -0.5c6 1.33301 10.333 2.33301 13 3l152 454h83l-234 -699l-75 -102h-46l94 270c-57.333 0 -97.333 36.667 -120 110z" />
    <glyph glyph-name="Amacron" unicode="&#x100;" horiz-adv-x="670" 
d="M205 797v63h292v-63h-292zM45 0l269 732h74l257 -732h-88l-63 204h-292l-66 -204h-91zM229 278h239l-118 341z" />
    <glyph glyph-name="amacron" unicode="&#x101;" horiz-adv-x="519" 
d="M127 601v63h292v-63h-292zM57 511c72 20 159.334 30.001 262.001 30.001c43.333 0 79.166 -12.667 107.499 -38s42.5 -64 42.5 -116v-387h-55l-19 64l-15 -7c-86.667 -42 -155.667 -63 -207 -63c-38 0 -69.667 11.667 -95 35s-38 55.666 -38 96.999v61
c0 40.667 11.833 73 35.5 97s56.167 36 97.5 36h166.5h55.5c0.666992 22 1 38.5 1 49.5s-0.333008 16.833 -1 17.5c0 54.667 -28.667 82 -86 82s-141.333 -4 -252 -12v54zM114.001 131.001c0 -42 19.667 -63 59 -63c24 0 54.5 4.33301 91.5 13s68.167 17 93.5 25l37 13v143
l-222 -16c-20 -2 -34.833 -9 -44.5 -21s-14.5 -26.667 -14.5 -44v-50z" />
    <glyph glyph-name="Abreve" unicode="&#x102;" horiz-adv-x="670" 
d="M236 911l47.002 -0.000976562c0 -18.667 6.83301 -34.5 20.5 -47.5s29.667 -19.5 48 -19.5s34.166 6 47.499 18s20 28.333 20 49h47c0 -35.333 -11.833 -63.166 -35.5 -83.499s-50.334 -30.5 -80.001 -30.5s-56.167 10.5 -79.5 31.5s-35 48.5 -35 82.5z
M45.002 -0.000976562l269 732h74l257 -732h-88l-63 204h-292l-66 -204h-91zM229.002 277.999h239l-118 341z" />
    <glyph glyph-name="abreve" unicode="&#x103;" horiz-adv-x="519" 
d="M158 715l47.002 -0.000976562c0 -18.667 6.83301 -34.5 20.5 -47.5s29.667 -19.5 48 -19.5s34.166 6 47.499 18s20 28.333 20 49h47c0 -35.333 -11.833 -63.166 -35.5 -83.499s-50.334 -30.5 -80.001 -30.5s-56.167 10.5 -79.5 31.5s-35 48.5 -35 82.5zM57.002 510.999
c72 20 159.334 30.001 262.001 30.001c43.333 0 79.166 -12.667 107.499 -38s42.5 -64 42.5 -116v-387h-55l-19 64l-15 -7c-86.667 -42 -155.667 -63 -207 -63c-38 0 -69.667 11.667 -95 35s-38 55.666 -38 96.999v61c0 40.667 11.833 73 35.5 97s56.167 36 97.5 36h166.5
h55.5c0.666992 22 1 38.5 1 49.5s-0.333008 16.833 -1 17.5c0 54.667 -28.667 82 -86 82s-141.333 -4 -252 -12v54zM114.003 131c0 -42 19.667 -63 59 -63c24 0 54.5 4.33301 91.5 13s68.167 17 93.5 25l37 13v143l-222 -16c-20 -2 -34.833 -9 -44.5 -21
s-14.5 -26.667 -14.5 -44v-50z" />
    <glyph glyph-name="Aogonek" unicode="&#x104;" horiz-adv-x="670" 
d="M564 -83c0 -24 20.6689 -36.666 62.002 -37.999v-60c-6.66699 -0.666992 -15.334 -1 -26.001 -1s-24.334 3 -41.001 9s-30 16.333 -40 31c-12 16.667 -18 33.167 -18 49.5s6.83301 32.833 20.5 49.5s34.5 31 62.5 43h39c-39.333 -32.667 -59 -60.334 -59 -83.001z
M45.002 0.000976562l269 732h74l257 -732h-88l-63 204h-292l-66 -204h-91zM229.002 278.001h239l-118 341z" />
    <glyph glyph-name="aogonek" unicode="&#x105;" horiz-adv-x="519" 
d="M402 -83c0 -24 21 -36.666 63 -37.999v-60c-6.66699 -0.666992 -15.334 -1 -26.001 -1s-24.5 3 -41.5 9s-30.5 16.333 -40.5 31c-12 16.667 -18 33.167 -18 49.5s6.83301 32.833 20.5 49.5s34.834 31 63.501 43h39c-40 -32.667 -60 -60.334 -60 -83.001zM57 511.001
c72 20 159.334 30.001 262.001 30.001c43.333 0 79.166 -12.667 107.499 -38s42.5 -64 42.5 -116v-387h-55l-19 64l-15 -7c-86.667 -42 -155.667 -63 -207 -63c-38 0 -69.667 11.667 -95 35s-38 55.666 -38 96.999v61c0 40.667 11.833 73 35.5 97s56.167 36 97.5 36h166.5
h55.5c0.666992 22 1 38.5 1 49.5s-0.333008 16.833 -1 17.5c0 54.667 -28.667 82 -86 82s-141.333 -4 -252 -12v54zM114.001 131.002c0 -42 19.667 -63 59 -63c24 0 54.5 4.33301 91.5 13s68.167 17 93.5 25l37 13v143l-222 -16c-20 -2 -34.833 -9 -44.5 -21
s-14.5 -26.667 -14.5 -44v-50z" />
    <glyph glyph-name="Cacute" unicode="&#x106;" horiz-adv-x="578" 
d="M294 800l108 133h94l-132 -133h-70zM543 656c-120 6.66699 -201.5 9.99902 -244.5 9.99902s-76.333 -8.16699 -100 -24.5s-41.167 -46 -52.5 -89s-17 -105.167 -17 -186.5c0 -198.667 56.667 -298 170 -298l244 7v-59c-78.667 -14.667 -160 -22 -244 -22
c-162.667 0 -244 124.667 -244 374c0 126.667 17.167 220.334 51.5 281.001s98.5 91 192.5 91c72.667 0 154 -8.33301 244 -25v-59z" />
    <glyph glyph-name="cacute" unicode="&#x107;" horiz-adv-x="500" 
d="M234 598l107 133h95l-133 -133h-69zM50 266c0 56 4.16895 102.501 12.502 139.501s20.833 64.667 37.5 83s34.667 30.833 54 37.5s50.666 10 93.999 10s111.666 -8.66699 204.999 -26v-54c-92.667 4 -158.334 6 -197.001 6s-63 -1.66699 -73 -5s-20.333 -11 -31 -23
c-18.667 -23.333 -28 -76.5 -28 -159.5s7.5 -138 22.5 -165s41.167 -40.5 78.5 -40.5c62.667 0 128.334 2.66699 197.001 8l38 3v-56c-64 -18 -142.333 -27.667 -235 -29c-27.333 0 -50.5 3.33301 -69.5 10s-37 19.167 -54 37.5s-29.833 46.166 -38.5 83.499s-13 84 -13 140
z" />
    <glyph glyph-name="Ccircumflex" unicode="&#x108;" horiz-adv-x="578" 
d="M183 800l117 130h71l104 -130h-71l-71 71l-78 -71h-72zM543 656c-120 6.66699 -201.5 9.99902 -244.5 9.99902s-76.333 -8.16699 -100 -24.5s-41.167 -46 -52.5 -89s-17 -105.167 -17 -186.5c0 -198.667 56.667 -298 170 -298l244 7v-59
c-78.667 -14.667 -160 -22 -244 -22c-162.667 0 -244 124.667 -244 374c0 126.667 17.167 220.334 51.5 281.001s98.5 91 192.5 91c72.667 0 154 -8.33301 244 -25v-59z" />
    <glyph glyph-name="ccircumflex" unicode="&#x109;" horiz-adv-x="500" 
d="M137 598l117 130h71l104 -130h-71l-71 71l-78 -71h-72zM50 266c0 56 4.16895 102.501 12.502 139.501s20.833 64.667 37.5 83s34.667 30.833 54 37.5s50.666 10 93.999 10s111.666 -8.66699 204.999 -26v-54c-92.667 4 -158.334 6 -197.001 6s-63 -1.66699 -73 -5
s-20.333 -11 -31 -23c-18.667 -23.333 -28 -76.5 -28 -159.5s7.5 -138 22.5 -165s41.167 -40.5 78.5 -40.5c62.667 0 128.334 2.66699 197.001 8l38 3v-56c-64 -18 -142.333 -27.667 -235 -29c-27.333 0 -50.5 3.33301 -69.5 10s-37 19.167 -54 37.5
s-29.833 46.166 -38.5 83.499s-13 84 -13 140z" />
    <glyph glyph-name="Cdotaccent" unicode="&#x10a;" horiz-adv-x="578" 
d="M290 825v54c0 16.667 8 25 24 25h50c15.333 0 23 -8.33301 23 -25v-54c0 -15.333 -7.66699 -23 -23 -23h-50c-16 0 -24 7.66699 -24 23zM543 656c-120 6.66699 -201.5 9.99902 -244.5 9.99902s-76.333 -8.16699 -100 -24.5s-41.167 -46 -52.5 -89
s-17 -105.167 -17 -186.5c0 -198.667 56.667 -298 170 -298l244 7v-59c-78.667 -14.667 -160 -22 -244 -22c-162.667 0 -244 124.667 -244 374c0 126.667 17.167 220.334 51.5 281.001s98.5 91 192.5 91c72.667 0 154 -8.33301 244 -25v-59z" />
    <glyph glyph-name="cdotaccent" unicode="&#x10b;" horiz-adv-x="500" 
d="M245 623v54c0 16.667 8 25 24 25h50c15.333 0 23 -8.33301 23 -25v-54c0 -15.333 -7.66699 -23 -23 -23h-50c-16 0 -24 7.66699 -24 23zM50 266c0 56 4.16895 102.501 12.502 139.501s20.833 64.667 37.5 83s34.667 30.833 54 37.5s50.666 10 93.999 10
s111.666 -8.66699 204.999 -26v-54c-92.667 4 -158.334 6 -197.001 6s-63 -1.66699 -73 -5s-20.333 -11 -31 -23c-18.667 -23.333 -28 -76.5 -28 -159.5s7.5 -138 22.5 -165s41.167 -40.5 78.5 -40.5c62.667 0 128.334 2.66699 197.001 8l38 3v-56
c-64 -18 -142.333 -27.667 -235 -29c-27.333 0 -50.5 3.33301 -69.5 10s-37 19.167 -54 37.5s-29.833 46.166 -38.5 83.499s-13 84 -13 140z" />
    <glyph glyph-name="Ccaron" unicode="&#x10c;" horiz-adv-x="578" 
d="M188 930h72l80 -71l69 71h71l-104 -130h-71zM543 656c-120 6.66699 -201.5 9.99902 -244.5 9.99902s-76.333 -8.16699 -100 -24.5s-41.167 -46 -52.5 -89s-17 -105.167 -17 -186.5c0 -198.667 56.667 -298 170 -298l244 7v-59c-78.667 -14.667 -160 -22 -244 -22
c-162.667 0 -244 124.667 -244 374c0 126.667 17.167 220.334 51.5 281.001s98.5 91 192.5 91c72.667 0 154 -8.33301 244 -25v-59z" />
    <glyph glyph-name="ccaron" unicode="&#x10d;" horiz-adv-x="500" 
d="M122 728h72l80 -71l69 71h71l-104 -130h-71zM50 266c0 56 4.16895 102.501 12.502 139.501s20.833 64.667 37.5 83s34.667 30.833 54 37.5s50.666 10 93.999 10s111.666 -8.66699 204.999 -26v-54c-92.667 4 -158.334 6 -197.001 6s-63 -1.66699 -73 -5
s-20.333 -11 -31 -23c-18.667 -23.333 -28 -76.5 -28 -159.5s7.5 -138 22.5 -165s41.167 -40.5 78.5 -40.5c62.667 0 128.334 2.66699 197.001 8l38 3v-56c-64 -18 -142.333 -27.667 -235 -29c-27.333 0 -50.5 3.33301 -69.5 10s-37 19.167 -54 37.5
s-29.833 46.166 -38.5 83.499s-13 84 -13 140z" />
    <glyph glyph-name="Dcaron" unicode="&#x10e;" horiz-adv-x="657" 
d="M172 922h72l80 -71l69 71h71l-104 -130h-71zM80 0l0.000976562 732.001h272c43.333 0 81.166 -8.16699 113.499 -24.5s57.5 -36.833 75.5 -61.5s32.667 -54.334 44 -89.001c18 -55.333 27 -120 27 -194c0 -72.667 -12 -139 -36 -199c-28 -68 -69 -115.333 -123 -142
c-30 -14.667 -63.667 -22 -101 -22h-272zM154.001 77.001h198.001c42 0 77.333 13.667 106 41c53.333 50 80 129.333 80 238s-15.833 186.167 -47.5 232.5s-77.834 69.5 -138.501 69.5h-198v-581z" />
    <glyph glyph-name="dcaron" unicode="&#x10f;" horiz-adv-x="554" 
d="M57.5 168.5c-5 29 -7.49707 61.667 -7.49707 98s2.16699 69 6.5 98s12.166 57.5 23.499 85.5c24.667 59.333 73 89 145 89c24.667 0 56 -3.66699 94 -11s72 -17 102 -29v286h73v-785h-53l-20 59c-16.667 -12 -45.834 -25.833 -87.501 -41.5s-78.834 -23.5 -111.501 -23.5
s-61 8 -85 24s-42 37.833 -54 65.5s-20.5 56 -25.5 85zM124.003 263c0 -130 33.668 -195 101.001 -195c55.333 0 120.666 15.333 195.999 46v325c-66.667 17.333 -132 26 -196 26c-34.667 0 -60.167 -14.333 -76.5 -43s-24.5 -81.667 -24.5 -159zM616.004 780v-67l-11 -134
h-53l-10 134l-1 67h75z" />
    <glyph glyph-name="Dcroat" unicode="&#x110;" horiz-adv-x="657" 
d="M15 346v54h65v331c0 0.666992 91 1 273 1c73.333 0 129 -21 167 -63c38.667 -42 63.667 -90 75 -144c11.333 -55.333 17 -104.833 17 -148.5s-2.66699 -82 -8 -115s-14.5 -65.5 -27.5 -97.5s-29.167 -60 -48.5 -84s-44 -43.333 -74 -58s-63.667 -22 -101 -22h-273v346
h-65zM154 77h199c62 0 107.833 26.833 137.5 80.5s44.5 122.5 44.5 206.5c0 192.667 -60.667 289 -182 289l-199 -1v-252h139v-54h-139v-269z" />
    <glyph glyph-name="dcroat" unicode="&#x111;" horiz-adv-x="554" 
d="M57.5 168.5c-5 29 -7.49707 61.667 -7.49707 98s2.16699 69 6.5 98s12.166 57.5 23.499 85.5c24.667 59.333 73 89 145 89c24.667 0 56 -3.66699 94 -11s72 -17 102 -29v117h-122v54h122v115h73v-115h72v-54h-72v-616h-53l-20 59
c-16.667 -12 -45.834 -25.833 -87.501 -41.5s-78.834 -23.5 -111.501 -23.5s-61 8 -85 24s-42 37.833 -54 65.5s-20.5 56 -25.5 85zM124.003 263c0 -130 33.668 -195 101.001 -195c55.333 0 120.666 15.333 195.999 46v325c-66.667 17.333 -132 26 -196 26
c-34.667 0 -60.167 -14.333 -76.5 -43s-24.5 -81.667 -24.5 -159z" />
    <glyph glyph-name="Emacron" unicode="&#x112;" horiz-adv-x="567" 
d="M173 795v63h292v-63h-292zM80 602c0 46 11.5 79.166 34.5 99.499s51.5 30.5 85.5 30.5h6l316 -16v-58h-316c-16 0 -28.167 -3.16699 -36.5 -9.5s-13 -12.666 -14 -18.999s-1.5 -15.5 -1.5 -27.5v-200l328 -10v-59l-328 -10v-200c0 -16.667 3.66699 -29 11 -37
s14.333 -12.5 21 -13.5s16.667 -1.5 30 -1.5h306v-57l-306 -17h-15c-80.667 0 -121 42 -121 126v479z" />
    <glyph glyph-name="emacron" unicode="&#x113;" horiz-adv-x="525" 
d="M129 595v63h292v-63h-292zM50 268c0 58.667 4.00098 105.832 12.001 141.499s22.5 62.667 43.5 81s44.333 30.333 70 36s59 8.5 100 8.5s71.833 -1.66699 92.5 -5s41 -11 61 -23s34.333 -31 43 -57s13 -60.333 13 -103c0 -81.333 -45.667 -122 -137 -122h-224
c0 -62 7 -103.5 21 -124.5s40.667 -31.5 80 -31.5c121.333 0 204.666 3.33301 249.999 10v-56c-66 -18.667 -149.333 -28 -250 -28c-67.333 0 -113.333 19.333 -138 58s-37 110.334 -37 215.001zM124.001 297.998l224.001 0.000976562c42 0 63 16.333 63 49
c0 51.333 -7.5 83.166 -22.5 95.499s-50.167 18.5 -105.5 18.5c-68.667 0 -109.667 -7 -123 -21c-18.667 -20 -29.334 -42 -32.001 -66s-4 -49.333 -4 -76z" />
    <glyph glyph-name="Edotaccent" unicode="&#x116;" horiz-adv-x="567" 
d="M272 817v54c0 16.667 8 25 24 25h50c15.333 0 23 -8.33301 23 -25v-54c0 -15.333 -7.66699 -23 -23 -23h-50c-16 0 -24 7.66699 -24 23zM80 602c0 46 11.5 79.166 34.5 99.499s51.5 30.5 85.5 30.5h6l316 -16v-58h-316c-16 0 -28.167 -3.16699 -36.5 -9.5
s-13 -12.666 -14 -18.999s-1.5 -15.5 -1.5 -27.5v-200l328 -10v-59l-328 -10v-200c0 -16.667 3.66699 -29 11 -37s14.333 -12.5 21 -13.5s16.667 -1.5 30 -1.5h306v-57l-306 -17h-15c-80.667 0 -121 42 -121 126v479z" />
    <glyph glyph-name="edotaccent" unicode="&#x117;" horiz-adv-x="525" 
d="M224 619l0.00195312 54c0 16.667 8 25 24 25h50c7.33301 0 13.166 -2.33301 17.499 -7s6.5 -10.667 6.5 -18v-54c0 -15.333 -8 -23 -24 -23h-50c-6.66699 0 -12.334 2.16699 -17.001 6.5s-7 9.83301 -7 16.5zM50.002 268c0 58.667 4.00098 105.832 12.001 141.499
s22.5 62.667 43.5 81s44.333 30.333 70 36s59 8.5 100 8.5s71.833 -1.66699 92.5 -5s41 -11 61 -23s34.333 -31 43 -57s13 -60.333 13 -103c0 -81.333 -45.667 -122 -137 -122h-224c0 -62 7 -103.5 21 -124.5s40.667 -31.5 80 -31.5c121.333 0 204.666 3.33301 249.999 10
v-56c-66 -18.667 -149.333 -28 -250 -28c-67.333 0 -113.333 19.333 -138 58s-37 110.334 -37 215.001zM124.003 297.998l224.001 0.000976562c42 0 63 16.333 63 49c0 51.333 -7.5 83.166 -22.5 95.499s-50.167 18.5 -105.5 18.5c-68.667 0 -109.667 -7 -123 -21
c-18.667 -20 -29.334 -42 -32.001 -66s-4 -49.333 -4 -76z" />
    <glyph glyph-name="Eogonek" unicode="&#x118;" horiz-adv-x="567" 
d="M463 -69c0 -24.667 20.667 -37.334 62 -38.001v-60c-6.66699 -1.33301 -15.334 -2 -26.001 -2s-24.5 3.16699 -41.5 9.5s-30.5 16.5 -40.5 30.5c-12 17.333 -18 34 -18 50s6.83301 32.333 20.5 49s34.834 31.334 63.501 44.001h39c-39.333 -33.333 -59 -61 -59 -83z
M80 602c0 46 11.5 79.166 34.5 99.499s51.5 30.5 85.5 30.5h6l316 -16v-58h-316c-16 0 -28.167 -3.16699 -36.5 -9.5s-13 -12.666 -14 -18.999s-1.5 -15.5 -1.5 -27.5v-200l328 -10v-59l-328 -10v-200c0 -16.667 3.66699 -29 11 -37s14.333 -12.5 21 -13.5
s16.667 -1.5 30 -1.5h306v-57l-306 -17h-15c-80.667 0 -121 42 -121 126v479z" />
    <glyph glyph-name="eogonek" unicode="&#x119;" horiz-adv-x="525" 
d="M475 23c-40 -32 -60 -59.666 -60 -82.999c0 -8 4 -16.167 12 -24.5s25 -12.833 51 -13.5v-60c-6.66699 -1.33301 -15.334 -2 -26.001 -2s-24.5 3.16699 -41.5 9.5s-30.5 16.5 -40.5 30.5c-12 17.333 -18 34.166 -18 50.499s6.83301 32.833 20.5 49.5s34.834 31 63.501 43
h39zM50 268.001c0 58.667 4.00098 105.832 12.001 141.499s22.5 62.667 43.5 81s44.333 30.333 70 36s59 8.5 100 8.5s71.833 -1.66699 92.5 -5s41 -11 61 -23s34.333 -31 43 -57s13 -60.333 13 -103c0 -81.333 -45.667 -122 -137 -122h-224c0 -62 7 -103.5 21 -124.5
s40.667 -31.5 80 -31.5c121.333 0 204.666 3.33301 249.999 10v-56c-66 -18.667 -149.333 -28 -250 -28c-67.333 0 -113.333 19.333 -138 58s-37 110.334 -37 215.001zM124.001 297.999l224.001 0.000976562c42 0 63 16.333 63 49c0 51.333 -7.5 83.166 -22.5 95.499
s-50.167 18.5 -105.5 18.5c-68.667 0 -109.667 -7 -123 -21c-18.667 -20 -29.334 -42 -32.001 -66s-4 -49.333 -4 -76z" />
    <glyph glyph-name="Ecaron" unicode="&#x11a;" horiz-adv-x="567" 
d="M169 922h72l80 -71l69 71h71l-104 -130h-71zM80 602c0 46 11.5 79.166 34.5 99.499s51.5 30.5 85.5 30.5h6l316 -16v-58h-316c-16 0 -28.167 -3.16699 -36.5 -9.5s-13 -12.666 -14 -18.999s-1.5 -15.5 -1.5 -27.5v-200l328 -10v-59l-328 -10v-200
c0 -16.667 3.66699 -29 11 -37s14.333 -12.5 21 -13.5s16.667 -1.5 30 -1.5h306v-57l-306 -17h-15c-80.667 0 -121 42 -121 126v479z" />
    <glyph glyph-name="ecaron" unicode="&#x11b;" horiz-adv-x="525" 
d="M130 721h72l80 -71l69 71h71l-104 -130h-71zM50 268c0 58.667 4.00098 105.832 12.001 141.499s22.5 62.667 43.5 81s44.333 30.333 70 36s59 8.5 100 8.5s71.833 -1.66699 92.5 -5s41 -11 61 -23s34.333 -31 43 -57s13 -60.333 13 -103
c0 -81.333 -45.667 -122 -137 -122h-224c0 -62 7 -103.5 21 -124.5s40.667 -31.5 80 -31.5c121.333 0 204.666 3.33301 249.999 10v-56c-66 -18.667 -149.333 -28 -250 -28c-67.333 0 -113.333 19.333 -138 58s-37 110.334 -37 215.001zM124.001 297.998
l224.001 0.000976562c42 0 63 16.333 63 49c0 51.333 -7.5 83.166 -22.5 95.499s-50.167 18.5 -105.5 18.5c-68.667 0 -109.667 -7 -123 -21c-18.667 -20 -29.334 -42 -32.001 -66s-4 -49.333 -4 -76z" />
    <glyph glyph-name="Gcircumflex" unicode="&#x11c;" horiz-adv-x="614" 
d="M190 800l117 130h71l104 -130h-71l-71 71l-78 -71h-72zM59.5 248.5c-3 34.333 -4.5 77.001 -4.5 128.001s3 96.667 9 137s17 78.5 33 114.5c32.667 74.667 96.667 112 192 112c26 0 66.167 -2.83301 120.5 -8.5s98.833 -11.834 133.5 -18.501v-59c-6 0 -22.667 1 -50 3
s-51.666 3.66699 -72.999 5c-42.667 2.66699 -86.334 4 -131.001 4c-63.333 0 -105.833 -22.833 -127.5 -68.5s-32.5 -123.167 -32.5 -232.5s12 -186 36 -230s66.667 -66.333 128 -67c22.667 0 50 3.83301 82 11.5s58.333 15.167 79 22.5l31 12v200h-168v50
c60.667 16.667 118.667 25 174 25c21.333 0 44 -1 68 -3v-386h-56l-16 49c-65.333 -36 -130 -54 -194 -54h-6c-37.333 0 -70.333 6.33301 -99 19s-51.5 29.5 -68.5 50.5s-30.5 48.333 -40.5 82s-16.5 67.667 -19.5 102z" />
    <glyph glyph-name="gcircumflex" unicode="&#x11d;" horiz-adv-x="554" 
d="M129 597l117 130h71l104 -130h-71l-71 71l-78 -71h-72zM48 115c0 18.667 4.99805 36.165 14.998 52.498s24.667 26.5 44 30.5c-38.667 24.667 -58 70.667 -58 138s15.167 117 45.5 149s72.833 48 127.5 48h312v-56l-81 -18c0.666992 -1.33301 3 -5.5 7 -12.5
s7 -12.667 9 -17s4.33301 -10.833 7 -19.5c5.33301 -16 8 -35.667 8 -59s-2.16699 -44.666 -6.5 -63.999s-11.833 -40.166 -22.5 -62.499s-27.667 -40.5 -51 -54.5s-51.666 -21 -84.999 -21h-156c-27.333 0 -41 -10 -41 -30c0 -22.667 13.667 -34 41 -34h213
c40.667 0 72.334 -12.5 95.001 -37.5s34 -58.5 34 -100.5v-63c0 -36 -8.33301 -68.667 -25 -98c-10 -17.333 -25.667 -31 -47 -41s-47.333 -15 -78 -15h-150c-48.667 0 -87.5 13 -116.5 39s-43.5 64.333 -43.5 115v85l40 65c-24.667 17.333 -37 44.333 -37 81z
M163.998 10.998c-18 0 -33 2.66797 -45 8.00098v-135c0 -53.333 28.667 -80 86 -80h150c50.667 0 76 26.667 76 80v58c0 25.333 -4.5 43.166 -13.5 53.499s-27.167 15.5 -54.5 15.5h-199zM122.998 343.999c0 -28 4.33301 -51.332 13 -69.999c16 -34 42.333 -51 79 -51h98
c36 0 61.167 12.167 75.5 36.5s21.5 50.166 21.5 77.499c0 40 -7.16699 70.333 -21.5 91s-39.833 31 -76.5 31h-90c-66 0 -99 -38.333 -99 -115z" />
    <glyph glyph-name="Gbreve" unicode="&#x11e;" horiz-adv-x="614" 
d="M221 914l47.002 -0.000976562c0 -18.667 6.83301 -34.5 20.5 -47.5s29.667 -19.5 48 -19.5s34.166 6 47.499 18s20 28.333 20 49h47c0 -35.333 -11.833 -63.166 -35.5 -83.499s-50.334 -30.5 -80.001 -30.5s-56.167 10.5 -79.5 31.5s-35 48.5 -35 82.5zM59.502 248.499
c-3 34.333 -4.5 77.001 -4.5 128.001s3 96.667 9 137s17 78.5 33 114.5c32.667 74.667 96.667 112 192 112c26 0 66.167 -2.83301 120.5 -8.5s98.833 -11.834 133.5 -18.501v-59c-6 0 -22.667 1 -50 3s-51.666 3.66699 -72.999 5c-42.667 2.66699 -86.334 4 -131.001 4
c-63.333 0 -105.833 -22.833 -127.5 -68.5s-32.5 -123.167 -32.5 -232.5s12 -186 36 -230s66.667 -66.333 128 -67c22.667 0 50 3.83301 82 11.5s58.333 15.167 79 22.5l31 12v200h-168v50c60.667 16.667 118.667 25 174 25c21.333 0 44 -1 68 -3v-386h-56l-16 49
c-65.333 -36 -130 -54 -194 -54h-6c-37.333 0 -70.333 6.33301 -99 19s-51.5 29.5 -68.5 50.5s-30.5 48.333 -40.5 82s-16.5 67.667 -19.5 102z" />
    <glyph glyph-name="gbreve" unicode="&#x11f;" horiz-adv-x="554" 
d="M159 711l47.002 -0.000976562c0 -18.667 6.83301 -34.5 20.5 -47.5s29.667 -19.5 48 -19.5s34.166 6 47.499 18s20 28.333 20 49h47c0 -35.333 -11.833 -63.166 -35.5 -83.499s-50.334 -30.5 -80.001 -30.5s-56.167 10.5 -79.5 31.5s-35 48.5 -35 82.5zM48.002 114.999
c0 18.667 4.99805 36.165 14.998 52.498s24.667 26.5 44 30.5c-38.667 24.667 -58 70.667 -58 138s15.167 117 45.5 149s72.833 48 127.5 48h312v-56l-81 -18c0.666992 -1.33301 3 -5.5 7 -12.5s7 -12.667 9 -17s4.33301 -10.833 7 -19.5c5.33301 -16 8 -35.667 8 -59
s-2.16699 -44.666 -6.5 -63.999s-11.833 -40.166 -22.5 -62.499s-27.667 -40.5 -51 -54.5s-51.666 -21 -84.999 -21h-156c-27.333 0 -41 -10 -41 -30c0 -22.667 13.667 -34 41 -34h213c40.667 0 72.334 -12.5 95.001 -37.5s34 -58.5 34 -100.5v-63
c0 -36 -8.33301 -68.667 -25 -98c-10 -17.333 -25.667 -31 -47 -41s-47.333 -15 -78 -15h-150c-48.667 0 -87.5 13 -116.5 39s-43.5 64.333 -43.5 115v85l40 65c-24.667 17.333 -37 44.333 -37 81zM164 10.9971c-18 0 -33 2.66797 -45 8.00098v-135
c0 -53.333 28.667 -80 86 -80h150c50.667 0 76 26.667 76 80v58c0 25.333 -4.5 43.166 -13.5 53.499s-27.167 15.5 -54.5 15.5h-199zM123 343.998c0 -28 4.33301 -51.332 13 -69.999c16 -34 42.333 -51 79 -51h98c36 0 61.167 12.167 75.5 36.5s21.5 50.166 21.5 77.499
c0 40 -7.16699 70.333 -21.5 91s-39.833 31 -76.5 31h-90c-66 0 -99 -38.333 -99 -115z" />
    <glyph glyph-name="Gdotaccent" unicode="&#x120;" horiz-adv-x="614" 
d="M279 823v54c0 16.667 8 25 24 25h50c15.333 0 23 -8.33301 23 -25v-54c0 -15.333 -7.66699 -23 -23 -23h-50c-16 0 -24 7.66699 -24 23zM59.5 248.5c-3 34.333 -4.5 77.001 -4.5 128.001s3 96.667 9 137s17 78.5 33 114.5c32.667 74.667 96.667 112 192 112
c26 0 66.167 -2.83301 120.5 -8.5s98.833 -11.834 133.5 -18.501v-59c-6 0 -22.667 1 -50 3s-51.666 3.66699 -72.999 5c-42.667 2.66699 -86.334 4 -131.001 4c-63.333 0 -105.833 -22.833 -127.5 -68.5s-32.5 -123.167 -32.5 -232.5s12 -186 36 -230
s66.667 -66.333 128 -67c22.667 0 50 3.83301 82 11.5s58.333 15.167 79 22.5l31 12v200h-168v50c60.667 16.667 118.667 25 174 25c21.333 0 44 -1 68 -3v-386h-56l-16 49c-65.333 -36 -130 -54 -194 -54h-6c-37.333 0 -70.333 6.33301 -99 19s-51.5 29.5 -68.5 50.5
s-30.5 48.333 -40.5 82s-16.5 67.667 -19.5 102z" />
    <glyph glyph-name="gdotaccent" unicode="&#x121;" horiz-adv-x="554" 
d="M229 622v54c0 16.667 8 25 24 25h50c15.333 0 23 -8.33301 23 -25v-54c0 -15.333 -7.66699 -23 -23 -23h-50c-16 0 -24 7.66699 -24 23zM48 115c0 18.667 4.99805 36.165 14.998 52.498s24.667 26.5 44 30.5c-38.667 24.667 -58 70.667 -58 138s15.167 117 45.5 149
s72.833 48 127.5 48h312v-56l-81 -18c0.666992 -1.33301 3 -5.5 7 -12.5s7 -12.667 9 -17s4.33301 -10.833 7 -19.5c5.33301 -16 8 -35.667 8 -59s-2.16699 -44.666 -6.5 -63.999s-11.833 -40.166 -22.5 -62.499s-27.667 -40.5 -51 -54.5s-51.666 -21 -84.999 -21h-156
c-27.333 0 -41 -10 -41 -30c0 -22.667 13.667 -34 41 -34h213c40.667 0 72.334 -12.5 95.001 -37.5s34 -58.5 34 -100.5v-63c0 -36 -8.33301 -68.667 -25 -98c-10 -17.333 -25.667 -31 -47 -41s-47.333 -15 -78 -15h-150c-48.667 0 -87.5 13 -116.5 39
s-43.5 64.333 -43.5 115v85l40 65c-24.667 17.333 -37 44.333 -37 81zM163.998 10.998c-18 0 -33 2.66797 -45 8.00098v-135c0 -53.333 28.667 -80 86 -80h150c50.667 0 76 26.667 76 80v58c0 25.333 -4.5 43.166 -13.5 53.499s-27.167 15.5 -54.5 15.5h-199z
M122.998 343.999c0 -28 4.33301 -51.332 13 -69.999c16 -34 42.333 -51 79 -51h98c36 0 61.167 12.167 75.5 36.5s21.5 50.166 21.5 77.499c0 40 -7.16699 70.333 -21.5 91s-39.833 31 -76.5 31h-90c-66 0 -99 -38.333 -99 -115z" />
    <glyph glyph-name="Gcommaaccent" unicode="&#x122;" horiz-adv-x="614" 
d="M336.5 -241.5c-8.33301 -3.66699 -16 -6.16602 -23 -7.49902s-12.167 -2 -15.5 -2s-9 0.666992 -17 2v29h2c17.333 0 26 9.33301 26 28v22h-10c-15.333 0 -23 7.33301 -23 22v49c0 16 7.66699 24 23 24h46c14 0 21 -8 21 -24v-81c0 -16 -2.83301 -29.333 -8.5 -40
s-12.667 -17.834 -21 -21.501zM59.5 248.501c-3 34.333 -4.5 77.001 -4.5 128.001s3 96.667 9 137s17 78.5 33 114.5c32.667 74.667 96.667 112 192 112c26 0 66.167 -2.83301 120.5 -8.5s98.833 -11.834 133.5 -18.501v-59c-6 0 -22.667 1 -50 3s-51.666 3.66699 -72.999 5
c-42.667 2.66699 -86.334 4 -131.001 4c-63.333 0 -105.833 -22.833 -127.5 -68.5s-32.5 -123.167 -32.5 -232.5s12 -186 36 -230s66.667 -66.333 128 -67c22.667 0 50 3.83301 82 11.5s58.333 15.167 79 22.5l31 12v200h-168v50c60.667 16.667 118.667 25 174 25
c21.333 0 44 -1 68 -3v-386h-56l-16 49c-65.333 -36 -130 -54 -194 -54h-6c-37.333 0 -70.333 6.33301 -99 19s-51.5 29.5 -68.5 50.5s-30.5 48.333 -40.5 82s-16.5 67.667 -19.5 102z" />
    <glyph glyph-name="gcommaaccent" unicode="&#x123;" horiz-adv-x="554" 
d="M258.5 759.5c8.33301 3.66699 16 6.16602 23 7.49902s12.167 2 15.5 2s9 -0.333008 17 -1v-29h-2c-17.333 0 -26 -9.33301 -26 -28v-23h10c14.667 0 22 -7.33301 22 -22v-49c0 -16 -7.33301 -24 -22 -24h-46c-14.667 0 -22 8 -22 24v81c0 16 3 29.333 9 40
s13.167 17.834 21.5 21.501zM48 113.999c0 18.667 5.16797 36.333 15.501 53s24.833 27 43.5 31c-20 12.667 -34.667 32.5 -44 59.5s-14 55.833 -14 86.5c0 62 15.167 109 45.5 141s72.833 48 127.5 48h312v-56l-81 -18c0.666992 -1.33301 3 -5.5 7 -12.5s7 -12.667 9 -17
s4.33301 -10.5 7 -18.5c5.33301 -16 8 -34.667 8 -56s-1.16699 -39.5 -3.5 -54.5s-7 -32 -14 -51s-16.167 -35.5 -27.5 -49.5s-27.5 -26 -48.5 -36s-44.833 -15 -71.5 -15h-156c-10.667 0 -20.167 -2.5 -28.5 -7.5s-12.5 -13.333 -12.5 -25s3.5 -19.667 10.5 -24
s17.167 -7.5 30.5 -9.5l197 -25c44 -5.33301 79.167 -20.5 105.5 -45.5s39.5 -56.833 39.5 -95.5v-33c0 -51.333 -13.333 -90.333 -40 -117c-24.667 -24.667 -61.334 -37 -110.001 -37h-150c-48.667 0 -87.5 13 -116.5 39s-43.5 64.333 -43.5 115v85l40 65
c-24.667 17.333 -37 44 -37 80zM119.001 -116.002c0 -53.333 28.667 -80 86 -80h150c36.667 0 60 12.667 70 38c4 11.333 6 25.333 6 42v28c0 42.667 -29.333 68 -88 76l-169 22l-55 9v-135zM123.001 343.998c0 -28.667 4.33301 -52.001 13 -70.001
c16 -34 42.333 -51 79 -51h98c50.667 0 82 27.333 94 82c2 10.667 3 19.334 3 26.001c0 45.333 -7.16699 78 -21.5 98s-39.833 30 -76.5 30h-90c-66 0 -99 -38.333 -99 -115z" />
    <glyph glyph-name="Hcircumflex" unicode="&#x124;" horiz-adv-x="638" 
d="M183 797l117 130h71l104 -130h-71l-71 71l-78 -71h-72zM80 0v732h74v-341h350v341h74v-732h-74v317h-350v-317h-74z" />
    <glyph glyph-name="hcircumflex" unicode="&#x125;" 
d="M-51 844l117 130h71l104 -130h-71l-71 71l-78 -71h-72zM60 0l-0.000976562 784.001h74v-315c2 0.666992 9.33301 4.83398 22 12.501s20.5 12.167 23.5 13.5s10.167 5.16602 21.5 11.499s19.333 10.166 24 11.499s12.334 4 23.001 8s19.334 6.66699 26.001 8
c21.333 4 40 6 56 6c50.667 0 90.667 -16.667 120 -50s44 -73.333 44 -120v-370h-74v370c0 32 -8.16699 56 -24.5 72s-37.666 24 -63.999 24s-50.833 -2.66699 -73.5 -8s-40.834 -10.833 -54.501 -16.5s-36.834 -16.5 -69.501 -32.5v-409h-74z" />
    <glyph glyph-name="Hbar" unicode="&#x126;" horiz-adv-x="658" 
d="M19 516v54h61v162h74v-162h350v162h74v-162h59v-54h-59v-516h-74v317h-350v-317h-74v516h-61zM154 391h350v125h-350v-125z" />
    <glyph glyph-name="hbar" unicode="&#x127;" 
d="M-17 610l-0.00390625 54h77v120h77v-120h134v-54h-134v-141c82.667 47.333 149.334 71 200.001 71h3.5h6.5c44.667 0 80.334 -16.167 107.001 -48.5s40 -72.166 40 -119.499v-372h-77v369c-1.33301 32 -9.16602 56.5 -23.499 73.5s-38.166 25.5 -71.499 25.5
c-47.333 -2.66699 -109 -22.334 -185 -59.001v-409h-77v610h-77z" />
    <glyph glyph-name="Itilde" unicode="&#x128;" horiz-adv-x="214" 
d="M174 867c15.333 0 45.333 11.998 90 35.998l22 -42c-2 -1.33301 -10 -7.66602 -24 -18.999c-36 -29.333 -65 -44 -87 -44c-20 0 -40.667 5.66699 -62 17s-38.166 17 -50.499 17s-23.333 -1.83301 -33 -5.5s-20 -8.66699 -31 -15s-20.833 -11.166 -29.5 -14.499l-21 41
l40.5 32.5c9 7 21 14 36 21s30.333 10.167 46 9.5s34.667 -6.5 57 -17.5s35.666 -16.5 39.999 -16.5h6.5zM80 -0.00195312v732h74v-732h-74z" />
    <glyph glyph-name="itilde" unicode="&#x129;" horiz-adv-x="194" 
d="M154 666c15.333 0 45.333 11.999 90 35.999l22 -42c-2 -1.33301 -10 -8 -24 -20c-36 -28.667 -65 -43 -87 -43c-20 0 -40.667 5.66699 -62 17s-38.166 17 -50.499 17s-23.333 -1.83301 -33 -5.5s-20 -8.66699 -31 -15s-20.833 -11.166 -29.5 -14.499l-21 41l40.5 32.5
c9 7 21 14 36 21s30.333 10.167 46 9.5s34.667 -6.5 57 -17.5s35.666 -16.5 39.999 -16.5h6.5zM60 -0.000976562v531h74v-531h-74z" />
    <glyph glyph-name="Imacron" unicode="&#x12a;" horiz-adv-x="214" 
d="M-29 797v63h292v-63h-292zM80 0v732h74v-732h-74z" />
    <glyph glyph-name="imacron" unicode="&#x12b;" horiz-adv-x="194" 
d="M-49 596v63h292v-63h-292zM60 0v531h74v-531h-74z" />
    <glyph glyph-name="Iogonek" unicode="&#x12e;" horiz-adv-x="214" 
d="M139 0c-40 -32 -60 -59.667 -60 -83c0 -8 4 -16.167 12 -24.5s25 -12.833 51 -13.5v-60c-6.66699 -1.33301 -15.334 -2 -26.001 -2s-24.5 3.16699 -41.5 9.5s-30.5 16.833 -40.5 31.5c-12 16.667 -18 33.167 -18 49.5s6.83301 32.833 20.5 49.5s34.834 31 63.501 43h39z
M80 0v732h74v-732h-74z" />
    <glyph glyph-name="iogonek" unicode="&#x12f;" horiz-adv-x="197" 
d="M121 0c-40 -32 -60 -59.667 -60 -83c0 -8 4 -16.167 12 -24.5s25 -12.833 51 -13.5v-60c-6.66699 -1.33301 -15.334 -2 -26.001 -2s-24.5 3.16699 -41.5 9.5s-30.5 16.833 -40.5 31.5c-12 16.667 -18 33.167 -18 49.5s6.83301 32.833 20.5 49.5s34.834 31 63.501 43h39z
M50 617v54c0 16.667 8 25 24 25h50c15.333 0 23 -8.33301 23 -25v-54c0 -15.333 -7.66699 -23 -23 -23h-50c-16 0 -24 7.66699 -24 23zM60 0v531h74v-531h-74z" />
    <glyph glyph-name="Idotaccent" unicode="&#x130;" horiz-adv-x="214" 
d="M68 820l0.00195312 54c0 16.667 8 25 24 25h50c7.33301 0 13.166 -2.33301 17.499 -7s6.5 -10.667 6.5 -18v-54c0 -15.333 -8 -23 -24 -23h-50c-6.66699 0 -12.334 2.16699 -17.001 6.5s-7 9.83301 -7 16.5zM80.002 0v732h74v-732h-74z" />
    <glyph glyph-name="dotlessi" unicode="&#x131;" horiz-adv-x="194" 
d="M60 0v531h74v-531h-74z" />
    <glyph glyph-name="Jcircumflex" unicode="&#x134;" horiz-adv-x="359" 
d="M116 797l117 130h71l104 -130h-71l-71 71l-78 -71h-72zM247 18c-25.333 -16 -60.1689 -24 -104.502 -24s-80.166 9 -107.499 27l4 54c42.667 -10.667 76 -16 100 -16c56.667 0 85.334 35.333 86.001 106v567h74v-567c0 -76 -17.333 -125 -52 -147z" />
    <glyph glyph-name="jcircumflex" unicode="&#x135;" horiz-adv-x="217" 
d="M-40 599l117 160h71l104 -160h-60l-82 91l-88 -91h-62zM69 -270v801h79v-535v-20c0 -92 -8.66699 -174 -26 -246h-53z" />
    <glyph glyph-name="Kcommaaccent" unicode="&#x136;" horiz-adv-x="591" 
d="M321.5 -236.5c-8.33301 -3.66699 -16 -6.16602 -23 -7.49902s-12.167 -2 -15.5 -2s-9 0.666992 -17 2v29h2c17.333 0 26 9 26 27v23h-10c-14.667 0 -22 7.66699 -22 23v48c0 16 7.33301 24 22 24h46c14.667 0 22 -8 22 -24v-81c0 -16 -3 -29.333 -9 -40
s-13.167 -17.834 -21.5 -21.501zM80 0.000976562v732h74v-328h82l230 328h90l-252 -365l252 -367h-90l-230 330h-81v-330h-75z" />
    <glyph glyph-name="kcommaaccent" unicode="&#x137;" horiz-adv-x="500" 
d="M274.5 -236.5c-8.33301 -3.66699 -16 -6.16602 -23 -7.49902s-12.167 -2 -15.5 -2s-9 0.666992 -17 2v29h2c17.333 0 26 9 26 27v23h-10c-15.333 0 -23 7.66699 -23 23v48c0 16 7.66699 24 23 24h46c14 0 21 -8 21 -24v-81c0 -16 -2.83301 -29.333 -8.5 -40
s-12.667 -17.834 -21 -21.501zM60 0.000976562v782h74v-440h40l203 189h103l-236 -226l236 -305h-92l-214 268h-40v-268h-74z" />
    <glyph glyph-name="kgreenlandic" unicode="&#x138;" horiz-adv-x="518" 
d="M60 0v531h74v-231h84l188 231h92l-213 -267l199 -264h-93l-176 226h-80l-1 -226h-74z" />
    <glyph glyph-name="Lacute" unicode="&#x139;" horiz-adv-x="557" 
d="M82 797l108 133h94l-132 -133h-70zM80 126l-0.000976562 605.999h74v-606c0 -25.333 7 -40.666 21 -45.999c10.667 -4 24.334 -6 41.001 -6h306v-74h-306c-38 0 -68.667 6.66699 -92 20c-29.333 16.667 -44 52 -44 106z" />
    <glyph glyph-name="lacute" unicode="&#x13a;" horiz-adv-x="300" 
d="M94 843l107 133h95l-133 -133h-69zM60 189v594.002h74v-594c0 -40.667 4.66699 -68.834 14 -84.501s23.666 -25.834 42.999 -30.501c54.667 -14 84.334 -21 89.001 -21v-53h-88c-88 0 -132 63 -132 189z" />
    <glyph glyph-name="Lcommaaccent" unicode="&#x13b;" horiz-adv-x="557" 
d="M324.5 -236.5c-8.33301 -3.66699 -16 -6.16602 -23 -7.49902s-12.167 -2 -15.5 -2s-9 0.666992 -17 2v29h2c17.333 0 26 9 26 27v23h-10c-15.333 0 -23 7.66699 -23 23v48c0 16 7.66699 24 23 24h46c14 0 21 -8 21 -24v-81c0 -16 -2.83301 -29.333 -8.5 -40
s-12.667 -17.834 -21 -21.501zM80 126.001l-0.000976562 605.999h74v-606c0 -25.333 7 -40.666 21 -45.999c10.667 -4 24.334 -6 41.001 -6h306v-74h-306c-38 0 -68.667 6.66699 -92 20c-29.333 16.667 -44 52 -44 106z" />
    <glyph glyph-name="lcommaaccent" unicode="&#x13c;" horiz-adv-x="300" 
d="M183.5 -236.5c-8.33301 -3.66699 -16 -6.16602 -23 -7.49902s-12.167 -2 -15.5 -2s-9 0.666992 -17 2v29h2c17.333 0 26 9 26 27v23h-10c-14.667 0 -22 7.66699 -22 23v48c0 16 7.33301 24 22 24h46c14.667 0 22 -8 22 -24v-81c0 -16 -3 -29.333 -9 -40
s-13.167 -17.834 -21.5 -21.501zM60 189.001v594.002h74v-594c0 -40.667 4.66699 -68.834 14 -84.501s23.666 -25.834 42.999 -30.501c54.667 -14 84.334 -21 89.001 -21v-53h-88c-88 0 -132 63 -132 189z" />
    <glyph glyph-name="Lcaron" unicode="&#x13d;" horiz-adv-x="557" 
d="M80 126l-0.000976562 605.999h74v-606c0 -25.333 7 -40.666 21 -45.999c10.667 -4 24.334 -6 41.001 -6h306v-74h-306c-38 0 -68.667 6.66699 -92 20c-29.333 16.667 -44 52 -44 106zM230.999 771.999h74v-67l-10 -134h-53l-11 134v67z" />
    <glyph glyph-name="lcaron" unicode="&#x13e;" horiz-adv-x="300" 
d="M60 189l-0.00292969 594h74v-594c0 -42 3.83301 -70.167 11.5 -84.5s22.834 -24.5 45.501 -30.5c54.667 -14 84.334 -21 89.001 -21v-53h-88c-47.333 0 -81.166 14 -101.499 42s-30.5 77 -30.5 147zM209.997 781h74v-67l-10 -134h-53l-11 134v67z" />
    <glyph glyph-name="Lslash" unicode="&#x141;" horiz-adv-x="556" 
d="M80 732l73.999 -0.000976562v-283l140 60l-1 -60l-139 -61v-262c0 -25.333 7 -40.666 21 -45.999c10.667 -4 24.334 -6 41.001 -6h306v-74h-306c-38 0 -68.667 6.66699 -92 20c-29.333 16.667 -44 52 -44 106v230l-83 -36v61l83 36v315z" />
    <glyph glyph-name="lslash" unicode="&#x142;" horiz-adv-x="330" 
d="M90 783l74 0.00195312v-287l143 62l-1 -60l-142 -62v-247c0 -40.667 4.66699 -68.834 14 -84.501s23.666 -25.834 42.999 -30.501c54.667 -14 84.334 -21 89.001 -21v-53h-88c-88 0 -132 63 -132 189v215l-80 -35v61l80 34v319z" />
    <glyph glyph-name="Nacute" unicode="&#x143;" horiz-adv-x="680" 
d="M326 797l106 133h96l-134 -133h-68zM80 0v732h76l390 -594v594h74v-732h-74l-391 594v-594h-75z" />
    <glyph glyph-name="nacute" unicode="&#x144;" 
d="M239 600l107 133h95l-133 -133h-69zM60 0v531.002h52l22 -62c2 0.666992 9.33301 4.83398 22 12.501s20.5 12.167 23.5 13.5s10.167 5.16602 21.5 11.499s19.333 10.166 24 11.499s12.334 4 23.001 8s19.334 6.66699 26.001 8c21.333 4 40 6 56 6
c50.667 0 90.667 -16.667 120 -50s44 -73.333 44 -120v-370h-74v370c0 31.333 -8.33301 55.166 -25 71.499s-38 24.5 -64 24.5s-50.333 -2.66699 -73 -8s-40.834 -10.833 -54.501 -16.5s-36.834 -16.5 -69.501 -32.5v-409h-74z" />
    <glyph glyph-name="Ncommaaccent" unicode="&#x145;" horiz-adv-x="680" 
d="M364.5 -236.5c-8.33301 -3.66699 -16 -6.16602 -23 -7.49902s-12.167 -2 -15.5 -2s-9 0.666992 -17 2v29h2c17.333 0 26 9 26 27v23h-10c-15.333 0 -23 7.66699 -23 23v48c0 16 7.66699 24 23 24h46c14 0 21 -8 21 -24v-81c0 -16 -2.83301 -29.333 -8.5 -40
s-12.667 -17.834 -21 -21.501zM80 0.000976562v732h76l390 -594v594h74v-732h-74l-391 594v-594h-75z" />
    <glyph glyph-name="ncommaaccent" unicode="&#x146;" 
d="M293.5 -236.5c-8.33301 -3.66699 -16 -6.16602 -23 -7.49902s-12.167 -2 -15.5 -2s-9 0.666992 -17 2v29h2c17.333 0 26 9 26 27v23h-10c-14.667 0 -22 7.66699 -22 23v48c0 16 7.33301 24 22 24h46c14.667 0 22 -8 22 -24v-81c0 -16 -3 -29.333 -9 -40
s-13.167 -17.834 -21.5 -21.501zM60 0.000976562v531.002h52l22 -62c2 0.666992 9.33301 4.83398 22 12.501s20.5 12.167 23.5 13.5s10.167 5.16602 21.5 11.499s19.333 10.166 24 11.499s12.334 4 23.001 8s19.334 6.66699 26.001 8c21.333 4 40 6 56 6
c50.667 0 90.667 -16.667 120 -50s44 -73.333 44 -120v-370h-74v370c0 31.333 -8.33301 55.166 -25 71.499s-38 24.5 -64 24.5s-50.333 -2.66699 -73 -8s-40.834 -10.833 -54.501 -16.5s-36.834 -16.5 -69.501 -32.5v-409h-74z" />
    <glyph glyph-name="Ncaron" unicode="&#x147;" horiz-adv-x="680" 
d="M214 927h72l80 -71l69 71h71l-104 -130h-71zM80 0v732h76l390 -594v594h74v-732h-74l-391 594v-594h-75z" />
    <glyph glyph-name="ncaron" unicode="&#x148;" 
d="M142 730h72l80 -71l69 71h71l-104 -130h-71zM60 0v531.002h52l22 -62c2 0.666992 9.33301 4.83398 22 12.501s20.5 12.167 23.5 13.5s10.167 5.16602 21.5 11.499s19.333 10.166 24 11.499s12.334 4 23.001 8s19.334 6.66699 26.001 8c21.333 4 40 6 56 6
c50.667 0 90.667 -16.667 120 -50s44 -73.333 44 -120v-370h-74v370c0 31.333 -8.33301 55.166 -25 71.499s-38 24.5 -64 24.5s-50.333 -2.66699 -73 -8s-40.834 -10.833 -54.501 -16.5s-36.834 -16.5 -69.501 -32.5v-409h-74z" />
    <glyph glyph-name="Eng" unicode="&#x14a;" horiz-adv-x="678" 
d="M80 0v732h76l388 -584v584h74v-816c0 -73.333 -21.333 -121.333 -64 -144c-21.333 -11.333 -43.333 -19 -66 -23s-50.667 -6 -84 -6v57c6 2 16 4.33301 30 7s24.833 5 32.5 7s17.167 6 28.5 12s20 12.667 26 20c15.333 20 23 48 23 84v70l-388 594l-2 -594h-74z" />
    <glyph glyph-name="eng" unicode="&#x14b;" horiz-adv-x="554" 
d="M60 0l0.00292969 531.002h52l22 -62c2 0.666992 9.33301 4.83398 22 12.501s20.5 12.167 23.5 13.5s10.167 5.16602 21.5 11.499s19.333 10.166 24 11.499s12.334 4 23.001 8s19.334 6.66699 26.001 8c21.333 4 40 6 56 6c50.667 0 90.667 -16.667 120 -50
s44 -73.333 44 -120v-370l-1 -90c-2 -32 -9.66699 -62.333 -23 -91c-5.33301 -10.667 -13.5 -20.667 -24.5 -30l-25 -21c-5.66699 -4.66699 -16.167 -10 -31.5 -16c-18.667 -7.33301 -38.334 -14 -59.001 -20l-30 38c21.333 7.33301 41.666 18.833 60.999 34.5
s31.666 27.167 36.999 34.5c14.667 22 22 44.333 22 67v464c0 31.333 -8.33301 55.166 -25 71.499s-38 24.5 -64 24.5s-50.333 -2.66699 -73 -8s-40.834 -10.833 -54.501 -16.5s-36.834 -16.5 -69.501 -32.5v-409h-74z" />
    <glyph glyph-name="Omacron" unicode="&#x14c;" horiz-adv-x="676" 
d="M203 797v63h292v-63h-292zM73 218.5c-5.33301 40.333 -8 88.167 -8 143.5s3 103.833 9 145.5s15.333 76.167 28 103.5s26.5 49.5 41.5 66.5s34.167 29.833 57.5 38.5c38 14 87.333 21 148 21c87.333 0 148.666 -13.333 183.999 -40c34 -26 58.333 -63 73 -111
c16.667 -58.667 25 -126.667 25 -204s-4.16699 -138.166 -12.5 -182.499s-19.666 -79.833 -33.999 -106.5s-34 -47.167 -59 -61.5s-50.833 -23.833 -77.5 -28.5s-58.167 -7 -94.5 -7s-65.833 1.33301 -88.5 4s-45.667 8.16699 -69 16.5s-42.333 20.666 -57 36.999
s-28 37.833 -40 64.5s-20.667 60.167 -26 100.5zM142 450.001c-2 -26.667 -2.99316 -64.333 -2.99316 -113s3.16699 -92 9.5 -130s18.666 -67.333 36.999 -88s39.5 -34 63.5 -40s55 -9 93 -9s67.667 2.16699 89 6.5s40.666 12.333 57.999 24s30.666 28.5 39.999 50.5
c18.667 44 28 114 28 210c0 104.667 -8 175 -24 211c-6.66699 15.333 -12.667 28 -18 38s-13.333 18.5 -24 25.5s-19.834 12.333 -27.501 16s-19 6.33398 -34 8.00098s-27.5 2.66699 -37.5 3s-24.333 0.5 -43 0.5s-32.834 -0.166992 -42.501 -0.5s-22 -1.33301 -37 -3
s-26.5 -4.33398 -34.5 -8.00098s-17.333 -9 -28 -16s-18.834 -15.5 -24.501 -25.5s-11.834 -22.5 -18.501 -37.5s-11.5 -32.5 -14.5 -52.5s-5.5 -43.333 -7.5 -70z" />
    <glyph glyph-name="omacron" unicode="&#x14d;" horiz-adv-x="568" 
d="M138 596v63h292v-63h-292zM101 54c-34 39.333 -51 110.001 -51 212.001s17 172.5 51 211.5s95.333 58.5 184 58.5s149.667 -19.833 183 -59.5s50 -110.834 50 -213.501s-16.667 -173 -50 -211s-94.333 -57 -183 -57s-150 19.667 -184 59zM130.5 352.501
c-4.33301 -25 -6.49805 -57.8311 -6.49805 -98.498s3.16699 -74 9.5 -100s17.333 -45 33 -57s31.667 -19.667 48 -23s39.666 -5 69.999 -5s54 1.66699 71 5s33 11.166 48 23.499s25.5 31.333 31.5 57s9 61.167 9 106.5s-2.5 81.666 -7.5 108.999s-14.833 47.833 -29.5 61.5
s-30.5 22.167 -47.5 25.5s-40.167 5 -69.5 5s-51.333 -1 -66 -3s-29.334 -6.66699 -44.001 -14s-25.5 -18.333 -32.5 -33s-12.667 -34.5 -17 -59.5z" />
    <glyph glyph-name="Ohungarumlaut" unicode="&#x150;" horiz-adv-x="676" 
d="M247 797l107 133h95l-133 -133h-69zM382 797l107 133h95l-133 -133h-69zM73 218.5c-5.33301 40.333 -8 88.167 -8 143.5s3 103.833 9 145.5s15.333 76.167 28 103.5s26.5 49.5 41.5 66.5s34.167 29.833 57.5 38.5c38 14 87.333 21 148 21
c87.333 0 148.666 -13.333 183.999 -40c34 -26 58.333 -63 73 -111c16.667 -58.667 25 -126.667 25 -204s-4.16699 -138.166 -12.5 -182.499s-19.666 -79.833 -33.999 -106.5s-34 -47.167 -59 -61.5s-50.833 -23.833 -77.5 -28.5s-58.167 -7 -94.5 -7
s-65.833 1.33301 -88.5 4s-45.667 8.16699 -69 16.5s-42.333 20.666 -57 36.999s-28 37.833 -40 64.5s-20.667 60.167 -26 100.5zM142 450.001c-2 -26.667 -2.99316 -64.333 -2.99316 -113s3.16699 -92 9.5 -130s18.666 -67.333 36.999 -88s39.5 -34 63.5 -40s55 -9 93 -9
s67.667 2.16699 89 6.5s40.666 12.333 57.999 24s30.666 28.5 39.999 50.5c18.667 44 28 114 28 210c0 104.667 -8 175 -24 211c-6.66699 15.333 -12.667 28 -18 38s-13.333 18.5 -24 25.5s-19.834 12.333 -27.501 16s-19 6.33398 -34 8.00098s-27.5 2.66699 -37.5 3
s-24.333 0.5 -43 0.5s-32.834 -0.166992 -42.501 -0.5s-22 -1.33301 -37 -3s-26.5 -4.33398 -34.5 -8.00098s-17.333 -9 -28 -16s-18.834 -15.5 -24.501 -25.5s-11.834 -22.5 -18.501 -37.5s-11.5 -32.5 -14.5 -52.5s-5.5 -43.333 -7.5 -70z" />
    <glyph glyph-name="ohungarumlaut" unicode="&#x151;" horiz-adv-x="568" 
d="M182 596l107 133h95l-133 -133h-69zM317 596l107 133h95l-133 -133h-69zM101 54c-34 39.333 -51 110.001 -51 212.001s17 172.5 51 211.5s95.333 58.5 184 58.5s149.667 -19.833 183 -59.5s50 -110.834 50 -213.501s-16.667 -173 -50 -211s-94.333 -57 -183 -57
s-150 19.667 -184 59zM130.5 352.501c-4.33301 -25 -6.49805 -57.8311 -6.49805 -98.498s3.16699 -74 9.5 -100s17.333 -45 33 -57s31.667 -19.667 48 -23s39.666 -5 69.999 -5s54 1.66699 71 5s33 11.166 48 23.499s25.5 31.333 31.5 57s9 61.167 9 106.5
s-2.5 81.666 -7.5 108.999s-14.833 47.833 -29.5 61.5s-30.5 22.167 -47.5 25.5s-40.167 5 -69.5 5s-51.333 -1 -66 -3s-29.334 -6.66699 -44.001 -14s-25.5 -18.333 -32.5 -33s-12.667 -34.5 -17 -59.5z" />
    <glyph glyph-name="OE" unicode="&#x152;" horiz-adv-x="1055" 
d="M144 471.5c-3.33301 -31.667 -5 -74.1641 -5 -127.497s3.16699 -99 9.5 -137s18.5 -67.333 36.5 -88s39 -34 63 -40s57.167 -9 99.5 -9s75.666 3.5 99.999 10.5s45.333 21 63 42s29.834 50.333 36.501 88s10 80.5 10 128.5s-1 85.167 -3 111.5s-4.5 49.5 -7.5 69.5
s-7.66699 37.5 -14 52.5s-12.166 27.5 -17.499 37.5s-13.333 18.5 -24 25.5s-20 12.333 -28 16s-19.667 6.5 -35 8.5c-20.667 2 -45.167 3 -73.5 3s-48.5 -0.333008 -60.5 -1s-27 -2.83398 -45 -6.50098s-31.333 -9.33398 -40 -17.001s-18.334 -18.667 -29.001 -33
s-18.5 -32.333 -23.5 -54s-9.16699 -48.334 -12.5 -80.001zM73 218.503c-5.33301 40.333 -8 90.833 -8 151.5s4.66699 114.5 14 161.5s21.5 83.833 36.5 110.5s35.5 47.167 61.5 61.5s51.5 23.5 76.5 27.5s60.5 6 106.5 6s86.333 -5 121 -15s63.334 -29.667 86.001 -59
c16.667 46 51.667 69 105 69h11l317 -16v-58h-317c-16 0 -28.167 -3.16699 -36.5 -9.5s-13 -12.666 -14 -18.999s-1.5 -15.5 -1.5 -27.5v-200l329 -10v-59l-329 -10v-200c0 -16.667 3.66699 -29 11 -37s14.333 -12.5 21 -13.5s16.667 -1.5 30 -1.5h307v-57l-307 -17h-15
c-60.667 0 -98.334 23 -113.001 69c-22.667 -27.333 -51.334 -45.833 -86.001 -55.5s-73.5 -14.5 -116.5 -14.5s-75.833 1.33301 -98.5 4s-45.667 8.16699 -69 16.5s-42.166 20.666 -56.499 36.999s-27.5 37.833 -39.5 64.5s-20.667 60.167 -26 100.5z" />
    <glyph glyph-name="oe" unicode="&#x153;" horiz-adv-x="917" 
d="M101 54c-34 39.333 -50.998 110 -50.998 212s17 172.5 51 211.5s97 58.5 189 58.5s154.333 -23.667 187 -71c16.667 28 40.167 46.667 70.5 56s68.166 14 113.499 14s78.333 -1.66699 99 -5s41 -11 61 -23s34.333 -31 43 -57s13 -60.333 13 -103
c0 -81.333 -45.667 -122 -137 -122h-223v-20c0 -46.667 6.83301 -81 20.5 -103s40.167 -33 79.5 -33c121.333 0 204.666 3.33301 249.999 10v-56c-66 -18.667 -149.333 -28 -250 -28c-70 0 -117.333 22 -142 66c-32.667 -44 -94.667 -66 -186 -66s-154 19.667 -188 59z
M130.502 352.5c-4.33301 -25 -6.49902 -57.833 -6.49902 -98.5s3.16699 -74 9.5 -100s17.333 -45 33 -57s31.667 -19.667 48 -23s39.5 -5 69.5 -5c67.333 0 110.5 12.5 129.5 37.5s28.5 78 28.5 159s-10.667 134 -32 159s-63.333 37.5 -126 37.5
c-25.333 0 -45.333 -1 -60 -3s-29.334 -6.66699 -44.001 -14s-25.5 -18.333 -32.5 -33s-12.667 -34.5 -17 -59.5zM740.003 298c42 0 63 16.334 63 49.001c0 51.333 -7.5 83.166 -22.5 95.499s-50.167 18.5 -105.5 18.5c-47.333 0 -80.5 -3.66699 -99.5 -11
s-32.167 -17 -39.5 -29c-13.333 -22.667 -20 -56 -20 -100c0 -7.33301 0.333008 -15 1 -23h223z" />
    <glyph glyph-name="Racute" unicode="&#x154;" horiz-adv-x="593" 
d="M256 792l107 133h95l-133 -133h-69zM60 0v732h312c112.667 0 169 -73.333 169 -220c0 -128 -42.333 -198 -127 -210l154 -302h-80l-154 299l-200 14v-313h-74zM134 379l238 0.000976562c39.333 0 64 9.66699 74 29c13.333 23.333 20 61.166 20 113.499
s-8.66699 88 -26 107s-40 28.5 -68 28.5h-238v-278z" />
    <glyph glyph-name="racute" unicode="&#x155;" horiz-adv-x="426" 
d="M218 598l107 133h95l-133 -133h-69zM60 0v531h52l22 -67c50.667 30.667 82.667 48.167 96 52.5l36 11.5c20 6 45.667 9 77 9s52.333 -2.66699 63 -8v-73c-16 4 -38.667 6 -68 6s-55.5 -2.66699 -78.5 -8s-41.333 -11 -55 -17s-37.167 -17 -70.5 -33v-404h-74z" />
    <glyph glyph-name="Rcommaaccent" unicode="&#x156;" horiz-adv-x="593" 
d="M314.5 -236.5c-8.33301 -3.66699 -16 -6.16602 -23 -7.49902s-12.167 -2 -15.5 -2s-9 0.666992 -17 2v29h2c17.333 0 26 9 26 27v23h-10c-15.333 0 -23 7.66699 -23 23v48c0 16 7.66699 24 23 24h46c14 0 21 -8 21 -24v-81c0 -16 -2.83301 -29.333 -8.5 -40
s-12.667 -17.834 -21 -21.501zM60 0.000976562v732h312c112.667 0 169 -73.333 169 -220c0 -128 -42.333 -198 -127 -210l154 -302h-80l-154 299l-200 14v-313h-74zM134 379.001l238 0.000976562c39.333 0 64 9.66699 74 29c13.333 23.333 20 61.166 20 113.499
s-8.66699 88 -26 107s-40 28.5 -68 28.5h-238v-278z" />
    <glyph glyph-name="rcommaaccent" unicode="&#x157;" horiz-adv-x="426" 
d="M112.5 -236.5c-8.33301 -3.66699 -16 -6.16602 -23 -7.49902s-12.167 -2 -15.5 -2s-9 0.666992 -17 2v29h2c17.333 0 26 9 26 27v23h-10c-15.333 0 -23 7.66699 -23 23v48c0 16 7.66699 24 23 24h46c14 0 21 -8 21 -24v-81c0 -16 -2.83301 -29.333 -8.5 -40
s-12.667 -17.834 -21 -21.501zM60 0.000976562v531h52l22 -67c50.667 30.667 82.667 48.167 96 52.5l36 11.5c20 6 45.667 9 77 9s52.333 -2.66699 63 -8v-73c-16 4 -38.667 6 -68 6s-55.5 -2.66699 -78.5 -8s-41.333 -11 -55 -17s-37.167 -17 -70.5 -33v-404h-74z" />
    <glyph glyph-name="Rcaron" unicode="&#x158;" horiz-adv-x="593" 
d="M141 927h72l80 -71l69 71h71l-104 -130h-71zM60 0v732h312c112.667 0 169 -73.333 169 -220c0 -128 -42.333 -198 -127 -210l154 -302h-80l-154 299l-200 14v-313h-74zM134 379l238 0.000976562c39.333 0 64 9.66699 74 29c13.333 23.333 20 61.166 20 113.499
s-8.66699 88 -26 107s-40 28.5 -68 28.5h-238v-278z" />
    <glyph glyph-name="rcaron" unicode="&#x159;" horiz-adv-x="426" 
d="M87 727h72l80 -71l69 71h71l-104 -130h-71zM60 0v531h52l22 -67c50.667 30.667 82.667 48.167 96 52.5l36 11.5c20 6 45.667 9 77 9s52.333 -2.66699 63 -8v-73c-16 4 -38.667 6 -68 6s-55.5 -2.66699 -78.5 -8s-41.333 -11 -55 -17s-37.167 -17 -70.5 -33v-404h-74z" />
    <glyph glyph-name="Sacute" unicode="&#x15a;" horiz-adv-x="584" 
d="M272 798l107 133h95l-133 -133h-69zM65 494l0.00195312 65.999c0 67.333 17.333 113.833 52 139.5s79 38.5 133 38.5s141.667 -8 263 -24v-60l-250 10h-16c-34 0 -60.5 -6 -79.5 -18s-28.5 -40.667 -28.5 -86v-66c0 -41.333 8.16699 -68 24.5 -80s42.166 -18 77.499 -18
h142c104 0 156 -57.333 156 -172v-68c0 -67.333 -21.667 -112.666 -65 -135.999c-36 -18.667 -81.667 -28 -137 -28c-23.333 0 -64.5 3 -123.5 9s-101.167 11.333 -126.5 16v60c73.333 -7.33301 156.666 -11 249.999 -11c85.333 0 128 30 128 90v68
c0 31.333 -6 55.5 -18 72.5s-33.333 25.5 -64 25.5h-140c-76 0 -125.667 18.333 -149 55c-19.333 30.667 -29 69.667 -29 117z" />
    <glyph glyph-name="sacute" unicode="&#x15b;" horiz-adv-x="506" 
d="M215 601l107 133h95l-133 -133h-69zM40 358l0.00195312 46.002c0 43.333 10.667 76.166 32 98.499s60.166 33.5 116.499 33.5s139.833 -5.33301 250.5 -16v-57h-261c-30.667 0 -49.334 -5.66699 -56.001 -17c-5.33301 -8.66699 -8 -22.667 -8 -42v-46
c0 -26.667 6.33301 -43 19 -49c10.667 -5.33301 25.667 -8 45 -8h158c42 0 74.167 -11.833 96.5 -35.5s33.5 -54.834 33.5 -93.501v-49c0 -49.333 -12 -83 -36 -101s-55.333 -27 -94 -27c-62 0 -153.333 6.33301 -274 19v55h274c0 0.666992 1.83301 0.666992 5.5 0
s8.33398 0 14.001 2s11.167 4.33301 16.5 7c13.333 6.66699 20 21.667 20 45v49c0 18.667 -4.16699 32.5 -12.5 41.5s-22.833 13.5 -43.5 13.5h-158c-48.667 0 -83.834 9.33301 -105.501 28s-32.5 53 -32.5 103z" />
    <glyph glyph-name="Scircumflex" unicode="&#x15c;" horiz-adv-x="584" 
d="M167 798l117 130h71l104 -130h-71l-71 71l-78 -71h-72zM65 494l0.00195312 65.999c0 67.333 17.333 113.833 52 139.5s79 38.5 133 38.5s141.667 -8 263 -24v-60l-250 10h-16c-34 0 -60.5 -6 -79.5 -18s-28.5 -40.667 -28.5 -86v-66c0 -41.333 8.16699 -68 24.5 -80
s42.166 -18 77.499 -18h142c104 0 156 -57.333 156 -172v-68c0 -67.333 -21.667 -112.666 -65 -135.999c-36 -18.667 -81.667 -28 -137 -28c-23.333 0 -64.5 3 -123.5 9s-101.167 11.333 -126.5 16v60c73.333 -7.33301 156.666 -11 249.999 -11c85.333 0 128 30 128 90v68
c0 31.333 -6 55.5 -18 72.5s-33.333 25.5 -64 25.5h-140c-76 0 -125.667 18.333 -149 55c-19.333 30.667 -29 69.667 -29 117z" />
    <glyph glyph-name="scircumflex" unicode="&#x15d;" horiz-adv-x="506" 
d="M107 596l117 130h71l104 -130h-71l-71 71l-78 -71h-72zM40 358l0.00195312 46.002c0 43.333 10.667 76.166 32 98.499s60.166 33.5 116.499 33.5s139.833 -5.33301 250.5 -16v-57h-261c-30.667 0 -49.334 -5.66699 -56.001 -17c-5.33301 -8.66699 -8 -22.667 -8 -42v-46
c0 -26.667 6.33301 -43 19 -49c10.667 -5.33301 25.667 -8 45 -8h158c42 0 74.167 -11.833 96.5 -35.5s33.5 -54.834 33.5 -93.501v-49c0 -49.333 -12 -83 -36 -101s-55.333 -27 -94 -27c-62 0 -153.333 6.33301 -274 19v55h274c0 0.666992 1.83301 0.666992 5.5 0
s8.33398 0 14.001 2s11.167 4.33301 16.5 7c13.333 6.66699 20 21.667 20 45v49c0 18.667 -4.16699 32.5 -12.5 41.5s-22.833 13.5 -43.5 13.5h-158c-48.667 0 -83.834 9.33301 -105.501 28s-32.5 53 -32.5 103z" />
    <glyph glyph-name="Scedilla" unicode="&#x15e;" horiz-adv-x="584" 
d="M281 -45h67c0 -52 -7 -87.667 -21 -107s-40.667 -29 -80 -29h-51v37l53 15c21.333 9.33301 32 37.333 32 84zM65 494l0.00195312 65.999c0 67.333 17.333 113.833 52 139.5s79 38.5 133 38.5s141.667 -8 263 -24v-60l-250 10h-16c-34 0 -60.5 -6 -79.5 -18
s-28.5 -40.667 -28.5 -86v-66c0 -41.333 8.16699 -68 24.5 -80s42.166 -18 77.499 -18h142c104 0 156 -57.333 156 -172v-68c0 -67.333 -21.667 -112.666 -65 -135.999c-36 -18.667 -81.667 -28 -137 -28c-23.333 0 -64.5 3 -123.5 9s-101.167 11.333 -126.5 16v60
c73.333 -7.33301 156.666 -11 249.999 -11c85.333 0 128 30 128 90v68c0 31.333 -6 55.5 -18 72.5s-33.333 25.5 -64 25.5h-140c-76 0 -125.667 18.333 -149 55c-19.333 30.667 -29 69.667 -29 117z" />
    <glyph glyph-name="scedilla" unicode="&#x15f;" horiz-adv-x="506" 
d="M234 -39h67c0 -52 -7 -87.667 -21 -107s-40.667 -29 -80 -29h-51v37l53 15c21.333 9.33301 32 37.333 32 84zM40 358l0.00195312 46.002c0 43.333 10.667 76.166 32 98.499s60.166 33.5 116.499 33.5s139.833 -5.33301 250.5 -16v-57h-261
c-30.667 0 -49.334 -5.66699 -56.001 -17c-5.33301 -8.66699 -8 -22.667 -8 -42v-46c0 -26.667 6.33301 -43 19 -49c10.667 -5.33301 25.667 -8 45 -8h158c42 0 74.167 -11.833 96.5 -35.5s33.5 -54.834 33.5 -93.501v-49c0 -49.333 -12 -83 -36 -101s-55.333 -27 -94 -27
c-62 0 -153.333 6.33301 -274 19v55h274c0 0.666992 1.83301 0.666992 5.5 0s8.33398 0 14.001 2s11.167 4.33301 16.5 7c13.333 6.66699 20 21.667 20 45v49c0 18.667 -4.16699 32.5 -12.5 41.5s-22.833 13.5 -43.5 13.5h-158c-48.667 0 -83.834 9.33301 -105.501 28
s-32.5 53 -32.5 103z" />
    <glyph glyph-name="Scaron" unicode="&#x160;" horiz-adv-x="584" 
d="M159 928h72l80 -71l69 71h71l-104 -130h-71zM65 494l0.00195312 65.999c0 67.333 17.333 113.833 52 139.5s79 38.5 133 38.5s141.667 -8 263 -24v-60l-250 10h-16c-34 0 -60.5 -6 -79.5 -18s-28.5 -40.667 -28.5 -86v-66c0 -41.333 8.16699 -68 24.5 -80
s42.166 -18 77.499 -18h142c104 0 156 -57.333 156 -172v-68c0 -67.333 -21.667 -112.666 -65 -135.999c-36 -18.667 -81.667 -28 -137 -28c-23.333 0 -64.5 3 -123.5 9s-101.167 11.333 -126.5 16v60c73.333 -7.33301 156.666 -11 249.999 -11c85.333 0 128 30 128 90v68
c0 31.333 -6 55.5 -18 72.5s-33.333 25.5 -64 25.5h-140c-76 0 -125.667 18.333 -149 55c-19.333 30.667 -29 69.667 -29 117z" />
    <glyph glyph-name="scaron" unicode="&#x161;" horiz-adv-x="506" 
d="M110 731h72l80 -71l69 71h71l-104 -130h-71zM40 358l0.00195312 46.002c0 43.333 10.667 76.166 32 98.499s60.166 33.5 116.499 33.5s139.833 -5.33301 250.5 -16v-57h-261c-30.667 0 -49.334 -5.66699 -56.001 -17c-5.33301 -8.66699 -8 -22.667 -8 -42v-46
c0 -26.667 6.33301 -43 19 -49c10.667 -5.33301 25.667 -8 45 -8h158c42 0 74.167 -11.833 96.5 -35.5s33.5 -54.834 33.5 -93.501v-49c0 -49.333 -12 -83 -36 -101s-55.333 -27 -94 -27c-62 0 -153.333 6.33301 -274 19v55h274c0 0.666992 1.83301 0.666992 5.5 0
s8.33398 0 14.001 2s11.167 4.33301 16.5 7c13.333 6.66699 20 21.667 20 45v49c0 18.667 -4.16699 32.5 -12.5 41.5s-22.833 13.5 -43.5 13.5h-158c-48.667 0 -83.834 9.33301 -105.501 28s-32.5 53 -32.5 103z" />
    <glyph glyph-name="Tcommaaccent" unicode="&#x162;" horiz-adv-x="578" 
d="M261 -49h67c0 -52 -7 -87.667 -21 -107s-40.667 -29 -80 -29h-51v37l53 15c21.333 9.33301 32 37.333 32 84zM45 658v74h508v-74h-220v-658h-74v658h-214z" />
    <glyph glyph-name="tcommaaccent" unicode="&#x163;" horiz-adv-x="378" 
d="M177 -51h67c0 -52 -7 -87.667 -21 -107s-40.667 -29 -80 -29h-51v37l53 15c21.333 9.33301 32 37.333 32 84zM20 458v56.002l99 18l18 148h56v-148h155v-74h-155v-268c0 -40.667 4.66699 -68.834 14 -84.501s23.666 -25.834 42.999 -30.501
c54.667 -14 84.334 -21 89.001 -21v-53h-88c-88 0 -132 63 -132 189v268h-99z" />
    <glyph glyph-name="Tcaron" unicode="&#x164;" horiz-adv-x="578" 
d="M143 927h72l80 -71l69 71h71l-104 -130h-71zM45 658v74h508v-74h-220v-658h-74v658h-214z" />
    <glyph glyph-name="tcaron" unicode="&#x165;" horiz-adv-x="368" 
d="M20 458v56.002l99 18l18 148h56v-148h155v-74h-155v-268c0 -40.667 4.66699 -68.834 14 -84.501s23.666 -25.834 42.999 -30.501c54.667 -14 84.334 -21 89.001 -21v-53h-88c-88 0 -132 63 -132 189v268h-99zM331 800.002v-67l-11 -134h-53l-10 134l-1 67h75z" />
    <glyph glyph-name="Tbar" unicode="&#x166;" horiz-adv-x="578" 
d="M35 658v74h508v-74h-220v-214h120v-54h-120v-390h-74v390h-120v54h120v214h-214z" />
    <glyph glyph-name="tbar" unicode="&#x167;" horiz-adv-x="368" 
d="M20 458v56.001l99 18l18 148h56v-148h155v-74h-155v-136h105v-54h-105v-78c0.666992 -46.667 4.5 -76 11.5 -88s22.833 -21 47.5 -27c51.333 -12 77.333 -18 78 -18v-56h-78c-48 0 -82.167 14.167 -102.5 42.5s-30.5 77.166 -30.5 146.499v78h-81v54h81v136h-99z" />
    <glyph glyph-name="Utilde" unicode="&#x168;" horiz-adv-x="677" 
d="M405 862c15.333 0 45.333 11.999 90 35.999l22 -42c-2 -1.33301 -10.333 -8 -25 -20c-35.333 -28.667 -64 -43 -86 -43c-20 0 -40.667 5.66699 -62 17s-38.166 17 -50.499 17s-23.333 -1.83301 -33 -5.5s-20 -8.66699 -31 -15s-20.833 -11.166 -29.5 -14.499l-21 41
l40.5 32.5c9 7 21 14 36 21s30.333 10.167 46 9.5s34.667 -6.5 57 -17.5s35.666 -16.5 39.999 -16.5h6.5zM80 319.999l-0.000976562 412h74v-412c0 -60.667 3.83301 -108.834 11.5 -144.501s21.834 -60.834 42.501 -75.501s39.334 -23.5 56.001 -26.5s34.667 -4.5 54 -4.5
h33c47.333 0 76.666 2.33301 87.999 7s22 9.83398 32 15.501s18 12.667 24 21s12.333 18.833 19 31.5s12 27.334 16 44.001c8 36.667 12 80.667 12 132v412h75v-412c0 -62 -5.83301 -114.5 -17.5 -157.5s-25 -75.167 -40 -96.5s-36.333 -37.666 -64 -48.999
s-50.5 -17.833 -68.5 -19.5s-35.667 -2.5 -53 -2.5h-42.5c-11 0 -21 0.166992 -30 0.5s-21.667 1 -38 2s-28.833 3 -37.5 6l-33.5 12c-13.667 5 -24.334 11.667 -32.001 20l-26.5 29.5c-10 11.333 -17.667 25.166 -23 41.499s-10.666 34.833 -15.999 55.5
c-10 38 -15 90.667 -15 158z" />
    <glyph glyph-name="utilde" unicode="&#x169;" 
d="M324 666c15.333 0 45.333 11.999 90 35.999l22 -42c-2 -1.33301 -10 -8 -24 -20c-36 -28.667 -65 -43 -87 -43c-20 0 -40.667 5.66699 -62 17s-38.166 17 -50.499 17s-23.333 -1.83301 -33 -5.5s-20 -8.66699 -31 -15s-20.833 -11.166 -29.5 -14.499l-21 41l40.5 32.5
c9 7 21 14 36 21s30.333 10.167 46 9.5s34.667 -6.5 57 -17.5s35.666 -16.5 39.999 -16.5h6.5zM50 160.999v369.998h74v-370c0 -31.333 8.33301 -55.166 25 -71.499s38 -24.5 64 -24.5s50.333 2.66699 73 8s40.834 10.833 54.501 16.5s36.834 16.5 69.501 32.5v409h74v-531
h-52l-22 62c-2 -0.666992 -9.33301 -4.83398 -22 -12.501s-20.5 -12.167 -23.5 -13.5s-10.167 -5.16602 -21.5 -11.499s-19.333 -10.166 -24 -11.499s-12.334 -4 -23.001 -8s-19.334 -6.66699 -26.001 -8c-21.333 -4 -40 -6 -56 -6c-50.667 0 -90.667 16.667 -120 50
s-44 73.333 -44 120z" />
    <glyph glyph-name="Umacron" unicode="&#x16a;" horiz-adv-x="677" 
d="M202 797v63h292v-63h-292zM80 320l-0.000976562 412h74v-412c0 -60.667 3.83301 -108.834 11.5 -144.501s21.834 -60.834 42.501 -75.501s39.334 -23.5 56.001 -26.5s34.667 -4.5 54 -4.5h33c47.333 0 76.666 2.33301 87.999 7s22 9.83398 32 15.501s18 12.667 24 21
s12.333 18.833 19 31.5s12 27.334 16 44.001c8 36.667 12 80.667 12 132v412h75v-412c0 -62 -5.83301 -114.5 -17.5 -157.5s-25 -75.167 -40 -96.5s-36.333 -37.666 -64 -48.999s-50.5 -17.833 -68.5 -19.5s-35.667 -2.5 -53 -2.5h-42.5c-11 0 -21 0.166992 -30 0.5
s-21.667 1 -38 2s-28.833 3 -37.5 6l-33.5 12c-13.667 5 -24.334 11.667 -32.001 20l-26.5 29.5c-10 11.333 -17.667 25.166 -23 41.499s-10.666 34.833 -15.999 55.5c-10 38 -15 90.667 -15 158z" />
    <glyph glyph-name="umacron" unicode="&#x16b;" 
d="M121 596v63h292v-63h-292zM50 161v369.998h74v-370c0 -31.333 8.33301 -55.166 25 -71.499s38 -24.5 64 -24.5s50.333 2.66699 73 8s40.834 10.833 54.501 16.5s36.834 16.5 69.501 32.5v409h74v-531h-52l-22 62c-2 -0.666992 -9.33301 -4.83398 -22 -12.501
s-20.5 -12.167 -23.5 -13.5s-10.167 -5.16602 -21.5 -11.499s-19.333 -10.166 -24 -11.499s-12.334 -4 -23.001 -8s-19.334 -6.66699 -26.001 -8c-21.333 -4 -40 -6 -56 -6c-50.667 0 -90.667 16.667 -120 50s-44 73.333 -44 120z" />
    <glyph glyph-name="Ubreve" unicode="&#x16c;" horiz-adv-x="677" 
d="M234 911l45.999 0.000976562c0 -18.667 7 -34.5 21 -47.5s30.167 -19.5 48.5 -19.5s34 6 47 18s19.5 28.333 19.5 49h48c0 -36.667 -12.667 -65.334 -38 -86.001c-23.333 -18.667 -49.666 -28 -78.999 -28s-55.5 10.5 -78.5 31.5s-34.5 48.5 -34.5 82.5zM79.999 320.001
l-0.000976562 412h74v-412c0 -60.667 3.83301 -108.834 11.5 -144.501s21.834 -60.834 42.501 -75.501s39.334 -23.5 56.001 -26.5s34.667 -4.5 54 -4.5h33c47.333 0 76.666 2.33301 87.999 7s22 9.83398 32 15.501s18 12.667 24 21s12.333 18.833 19 31.5
s12 27.334 16 44.001c8 36.667 12 80.667 12 132v412h75v-412c0 -62 -5.83301 -114.5 -17.5 -157.5s-25 -75.167 -40 -96.5s-36.333 -37.666 -64 -48.999s-50.5 -17.833 -68.5 -19.5s-35.667 -2.5 -53 -2.5h-42.5c-11 0 -21 0.166992 -30 0.5s-21.667 1 -38 2
s-28.833 3 -37.5 6l-33.5 12c-13.667 5 -24.334 11.667 -32.001 20l-26.5 29.5c-10 11.333 -17.667 25.166 -23 41.499s-10.666 34.833 -15.999 55.5c-10 38 -15 90.667 -15 158z" />
    <glyph glyph-name="ubreve" unicode="&#x16d;" 
d="M160 710l47.002 -0.000976562c0 -18.667 6.83301 -34.5 20.5 -47.5s29.667 -19.5 48 -19.5s34.166 6 47.499 18s20 28.333 20 49h47c0 -35.333 -11.833 -63.166 -35.5 -83.499s-50.334 -30.5 -80.001 -30.5s-56.167 10.5 -79.5 31.5s-35 48.5 -35 82.5zM50.002 160.999
v369.998h74v-370c0 -31.333 8.33301 -55.166 25 -71.499s38 -24.5 64 -24.5s50.333 2.66699 73 8s40.834 10.833 54.501 16.5s36.834 16.5 69.501 32.5v409h74v-531h-52l-22 62c-2 -0.666992 -9.33301 -4.83398 -22 -12.501s-20.5 -12.167 -23.5 -13.5
s-10.167 -5.16602 -21.5 -11.499s-19.333 -10.166 -24 -11.499s-12.334 -4 -23.001 -8s-19.334 -6.66699 -26.001 -8c-21.333 -4 -40 -6 -56 -6c-50.667 0 -90.667 16.667 -120 50s-44 73.333 -44 120z" />
    <glyph glyph-name="Uring" unicode="&#x16e;" horiz-adv-x="677" 
d="M247 899c0 28.667 10 53 30 73s44 30 72 30s51.833 -10 71.5 -30s29.5 -44.333 29.5 -73s-9.83301 -52.834 -29.5 -72.501s-43.5 -29.5 -71.5 -29.5s-52 9.83301 -72 29.5s-30 43.834 -30 72.501zM310 938c-10.667 -10.667 -15.999 -23.499 -15.999 -38.499
s5.33301 -27.833 16 -38.5s23.667 -16 39 -16s28.166 5.16699 38.499 15.5s15.5 23.166 15.5 38.499s-5.33301 28.333 -16 39s-23.5 16 -38.5 16s-27.833 -5.33301 -38.5 -16zM80.001 320.001l-0.000976562 412h74v-412c0 -60.667 3.83301 -108.834 11.5 -144.501
s21.834 -60.834 42.501 -75.501s39.334 -23.5 56.001 -26.5s34.667 -4.5 54 -4.5h33c47.333 0 76.666 2.33301 87.999 7s22 9.83398 32 15.501s18 12.667 24 21s12.333 18.833 19 31.5s12 27.334 16 44.001c8 36.667 12 80.667 12 132v412h75v-412
c0 -62 -5.83301 -114.5 -17.5 -157.5s-25 -75.167 -40 -96.5s-36.333 -37.666 -64 -48.999s-50.5 -17.833 -68.5 -19.5s-35.667 -2.5 -53 -2.5h-42.5c-11 0 -21 0.166992 -30 0.5s-21.667 1 -38 2s-28.833 3 -37.5 6l-33.5 12c-13.667 5 -24.334 11.667 -32.001 20
l-26.5 29.5c-10 11.333 -17.667 25.166 -23 41.499s-10.666 34.833 -15.999 55.5c-10 38 -15 90.667 -15 158z" />
    <glyph glyph-name="uring" unicode="&#x16f;" 
d="M174 658c-5.33301 12.667 -8 27.1689 -8 43.502s4.5 32.333 13.5 48s21.333 28.167 37 37.5s32.667 14 51 14s35.333 -4.66699 51 -14s27.834 -21.833 36.501 -37.5s13 -32.834 13 -51.501s-4.33301 -35.834 -13 -51.501s-20.834 -28 -36.501 -37
s-31.5 -13.5 -47.5 -13.5s-30.333 2.66699 -43 8s-23.5 12.5 -32.5 21.5s-16.167 19.833 -21.5 32.5zM212 698.002c0 -14.667 5.5 -27.333 16.5 -38s24 -16 39 -16s27.833 5.33301 38.5 16s16 23.5 16 38.5s-5.33301 27.833 -16 38.5s-23.5 16 -38.5 16s-28 -5.5 -39 -16.5
s-16.5 -23.833 -16.5 -38.5zM50 161.003v369.998h74v-370c0 -31.333 8.33301 -55.166 25 -71.499s38 -24.5 64 -24.5s50.333 2.66699 73 8s40.834 10.833 54.501 16.5s36.834 16.5 69.501 32.5v409h74v-531h-52l-22 62c-2 -0.666992 -9.33301 -4.83398 -22 -12.501
s-20.5 -12.167 -23.5 -13.5s-10.167 -5.16602 -21.5 -11.499s-19.333 -10.166 -24 -11.499s-12.334 -4 -23.001 -8s-19.334 -6.66699 -26.001 -8c-21.333 -4 -40 -6 -56 -6c-50.667 0 -90.667 16.667 -120 50s-44 73.333 -44 120z" />
    <glyph glyph-name="Uhungarumlaut" unicode="&#x170;" horiz-adv-x="677" 
d="M246 797l108 133h94l-132 -133h-70zM382 797l106 133h96l-134 -133h-68zM80 320l-0.000976562 412h74v-412c0 -60.667 3.83301 -108.834 11.5 -144.501s21.834 -60.834 42.501 -75.501s39.334 -23.5 56.001 -26.5s34.667 -4.5 54 -4.5h33
c47.333 0 76.666 2.33301 87.999 7s22 9.83398 32 15.501s18 12.667 24 21s12.333 18.833 19 31.5s12 27.334 16 44.001c8 36.667 12 80.667 12 132v412h75v-412c0 -62 -5.83301 -114.5 -17.5 -157.5s-25 -75.167 -40 -96.5s-36.333 -37.666 -64 -48.999
s-50.5 -17.833 -68.5 -19.5s-35.667 -2.5 -53 -2.5h-42.5c-11 0 -21 0.166992 -30 0.5s-21.667 1 -38 2s-28.833 3 -37.5 6l-33.5 12c-13.667 5 -24.334 11.667 -32.001 20l-26.5 29.5c-10 11.333 -17.667 25.166 -23 41.499s-10.666 34.833 -15.999 55.5
c-10 38 -15 90.667 -15 158z" />
    <glyph glyph-name="uhungarumlaut" unicode="&#x171;" 
d="M165 596l107 133h95l-133 -133h-69zM300 596l107 133h95l-133 -133h-69zM50 161v369.998h74v-370c0 -31.333 8.33301 -55.166 25 -71.499s38 -24.5 64 -24.5s50.333 2.66699 73 8s40.834 10.833 54.501 16.5s36.834 16.5 69.501 32.5v409h74v-531h-52l-22 62
c-2 -0.666992 -9.33301 -4.83398 -22 -12.501s-20.5 -12.167 -23.5 -13.5s-10.167 -5.16602 -21.5 -11.499s-19.333 -10.166 -24 -11.499s-12.334 -4 -23.001 -8s-19.334 -6.66699 -26.001 -8c-21.333 -4 -40 -6 -56 -6c-50.667 0 -90.667 16.667 -120 50
s-44 73.333 -44 120z" />
    <glyph glyph-name="Uogonek" unicode="&#x172;" horiz-adv-x="677" 
d="M365 -4c-40 -32 -60 -59.667 -60 -83c0 -8 4 -16.167 12 -24.5s25 -12.833 51 -13.5v-60c-6.66699 -1.33301 -15.334 -2 -26.001 -2s-24.5 3.16699 -41.5 9.5s-30.5 16.833 -40.5 31.5c-12 16.667 -18 33.167 -18 49.5s6.83301 32.833 20.5 49.5s34.834 31 63.501 43h39z
M80 320l-0.000976562 412h74v-412c0 -60.667 3.83301 -108.834 11.5 -144.501s21.834 -60.834 42.501 -75.501s39.334 -23.5 56.001 -26.5s34.667 -4.5 54 -4.5h33c47.333 0 76.666 2.33301 87.999 7s22 9.83398 32 15.501s18 12.667 24 21s12.333 18.833 19 31.5
s12 27.334 16 44.001c8 36.667 12 80.667 12 132v412h75v-412c0 -62 -5.83301 -114.5 -17.5 -157.5s-25 -75.167 -40 -96.5s-36.333 -37.666 -64 -48.999s-50.5 -17.833 -68.5 -19.5s-35.667 -2.5 -53 -2.5h-42.5c-11 0 -21 0.166992 -30 0.5s-21.667 1 -38 2
s-28.833 3 -37.5 6l-33.5 12c-13.667 5 -24.334 11.667 -32.001 20l-26.5 29.5c-10 11.333 -17.667 25.166 -23 41.499s-10.666 34.833 -15.999 55.5c-10 38 -15 90.667 -15 158z" />
    <glyph glyph-name="uogonek" unicode="&#x173;" 
d="M418 -83c0 -24 21 -36.666 63 -37.999v-60c-6.66699 -0.666992 -15.334 -1 -26.001 -1s-24.5 3 -41.5 9s-30.5 16.333 -40.5 31c-12 16.667 -18 33.167 -18 49.5s6.83301 32.833 20.5 49.5s34.834 31 63.501 43h39c-40 -32.667 -60 -60.334 -60 -83.001zM50 161.001
v369.998h74v-370c0 -31.333 8.33301 -55.166 25 -71.499s38 -24.5 64 -24.5s50.333 2.66699 73 8s40.834 10.833 54.501 16.5s36.834 16.5 69.501 32.5v409h74v-531h-52l-22 62c-2 -0.666992 -9.33301 -4.83398 -22 -12.501s-20.5 -12.167 -23.5 -13.5
s-10.167 -5.16602 -21.5 -11.499s-19.333 -10.166 -24 -11.499s-12.334 -4 -23.001 -8s-19.334 -6.66699 -26.001 -8c-21.333 -4 -40 -6 -56 -6c-50.667 0 -90.667 16.667 -120 50s-44 73.333 -44 120z" />
    <glyph glyph-name="Wcircumflex" unicode="&#x174;" horiz-adv-x="962" 
d="M355 792l117 130h71l104 -130h-71l-71 71l-78 -71h-72zM45 732h81l213 -603l181 603h84l-68 -234l133 -375l187 609h81l-229 -732h-74l-137 374l-121 -374h-74z" />
    <glyph glyph-name="wcircumflex" unicode="&#x175;" horiz-adv-x="801" 
d="M260 591l117 130h71l104 -130h-71l-71 71l-78 -71h-72zM20 531h81l157 -422l138 422h80l-54 -170l116 -252l162 422h81l-203 -531h-74l-118 260l-87 -260h-80z" />
    <glyph glyph-name="Ycircumflex" unicode="&#x176;" horiz-adv-x="630" 
d="M169 792l117 130h71l104 -130h-71l-71 71l-78 -71h-72zM352 0h-74v260l-233 472h81l189 -384l209 384h81l-253 -472v-260z" />
    <glyph glyph-name="ycircumflex" unicode="&#x177;" horiz-adv-x="554" 
d="M131 596l117 130h71l104 -130h-71l-71 71l-78 -71h-72zM21 531h81.002l129 -415c4.66699 -13.333 9.16699 -22 13.5 -26s8.16602 -7.16699 11.499 -9.5s6.66602 -3.83301 9.99902 -4.5s6.5 -1.16699 9.5 -1.5s5.83301 -0.5 8.5 -0.5c6 1.33301 10.333 2.33301 13 3
l152 454h83l-234 -699l-75 -102h-46l94 270c-57.333 0 -97.333 36.667 -120 110z" />
    <glyph glyph-name="Ydieresis" unicode="&#x178;" horiz-adv-x="630" 
d="M147 848c0 14 5 25.833 15 35.5s22 14.5 36 14.5s25.833 -4.83301 35.5 -14.5s14.5 -21.5 14.5 -35.5s-4.83301 -26 -14.5 -36s-21.5 -15 -35.5 -15s-26 5 -36 15s-15 22 -15 36zM402 848c0 14 5 25.833 15 35.5s22 14.5 36 14.5s25.833 -4.83301 35.5 -14.5
s14.5 -21.5 14.5 -35.5s-4.83301 -26 -14.5 -36s-21.5 -15 -35.5 -15s-26 5 -36 15s-15 22 -15 36zM352 0h-74v260l-233 472h81l189 -384l209 384h81l-253 -472v-260z" />
    <glyph glyph-name="Zacute" unicode="&#x179;" horiz-adv-x="563" 
d="M247 797l107 133h95l-133 -133h-69zM35 0v74l396 584h-396v74h493v-74l-396 -584h396v-74h-493z" />
    <glyph glyph-name="zacute" unicode="&#x17a;" horiz-adv-x="456" 
d="M194 596l106 133h96l-134 -133h-68zM30 457v74h396v-74l-284 -382h284v-74h-381v74l289 382h-304z" />
    <glyph glyph-name="Zdotaccent" unicode="&#x17b;" horiz-adv-x="563" 
d="M233 820v54c0 16.667 8 25 24 25h50c15.333 0 23 -8.33301 23 -25v-54c0 -15.333 -7.66699 -23 -23 -23h-50c-16 0 -24 7.66699 -24 23zM35 0v74l396 584h-396v74h493v-74l-396 -584h396v-74h-493z" />
    <glyph glyph-name="zdotaccent" unicode="&#x17c;" horiz-adv-x="456" 
d="M180 619l-0.000976562 54c0 16.667 8 25 24 25h50c6.66699 0 12 -2.33301 16 -7s6 -10.667 6 -18v-54c0 -15.333 -7.33301 -23 -22 -23h-50c-7.33301 0 -13.166 2.16699 -17.499 6.5s-6.5 9.83301 -6.5 16.5zM29.999 457v74h396v-74l-284 -382h284v-74h-381v74l289 382
h-304z" />
    <glyph glyph-name="Zcaron" unicode="&#x17d;" horiz-adv-x="563" 
d="M136 927h72l80 -71l68 71h72l-104 -130h-72zM35 0v74l396 584h-396v74h493v-74l-396 -584h396v-74h-493z" />
    <glyph glyph-name="zcaron" unicode="&#x17e;" horiz-adv-x="456" 
d="M82 726h72l80 -71l69 71h71l-104 -130h-71zM30 457v74h396v-74l-284 -382h284v-74h-381v74l289 382h-304z" />
    <glyph glyph-name="florin" unicode="&#x192;" horiz-adv-x="592" 
d="M117 -130c34 0 58.998 24.332 74.998 72.999c13.333 40 24.333 88.333 33 145l48 309h-102l13 75h102l5 34c22 144.667 59 235.334 111 272.001c22 14.667 47 22 75 22c24.667 0 43 -2.66699 55 -8l40 -17l-7 -49h-88c-32.667 0 -57.667 -25 -75 -75
c-13.333 -38.667 -24.666 -87 -33.999 -145l-5 -35h141l-13 -74h-141l-48 -309c-14.667 -100.667 -32 -169.334 -52 -206.001c-22 -39.333 -47.333 -64.666 -76 -75.999c-16.667 -6.66699 -34.5 -10 -53.5 -10s-39.167 3.33301 -60.5 10s-34.666 11.667 -39.999 15l7 49h90z
" />
    <glyph glyph-name="circumflex" unicode="&#x2c6;" horiz-adv-x="392" 
d="M50 531l117 130h71l104 -130h-71l-71 71l-78 -71h-72z" />
    <glyph glyph-name="caron" unicode="&#x2c7;" horiz-adv-x="392" 
d="M50 661h72l80 -71l69 71h71l-104 -130h-71z" />
    <glyph glyph-name="breve" unicode="&#x2d8;" horiz-adv-x="329" 
d="M50 644l47.002 -0.000976562c0 -18.667 6.83301 -34.5 20.5 -47.5s29.667 -19.5 48 -19.5s34.166 6 47.499 18s20 28.333 20 49h47c0 -35.333 -11.833 -63.166 -35.5 -83.499s-50.334 -30.5 -80.001 -30.5s-56.167 10.5 -79.5 31.5s-35 48.5 -35 82.5z" />
    <glyph glyph-name="dotaccent" unicode="&#x2d9;" horiz-adv-x="197" 
d="M50 556v54c0 16.667 8 25 24 25h50c15.333 0 23 -8.33301 23 -25v-54c0 -15.333 -7.66699 -23 -23 -23h-50c-16 0 -24 7.66699 -24 23z" />
    <glyph glyph-name="ring" unicode="&#x2da;" horiz-adv-x="303" 
d="M50 632c0 28.667 10 53 30 73s44 30 72 30s51.833 -10 71.5 -30s29.5 -44.333 29.5 -73s-9.83301 -52.834 -29.5 -72.501s-43.5 -29.5 -71.5 -29.5s-52 9.83301 -72 29.5s-30 43.834 -30 72.501zM97 632c0 -14.667 5.33398 -27.333 16.001 -38s23.5 -16 38.5 -16
s27.833 5.33301 38.5 16s16 23.5 16 38.5s-5.33301 27.833 -16 38.5s-23.334 16 -38.001 16s-27.5 -5.5 -38.5 -16.5s-16.5 -23.833 -16.5 -38.5z" />
    <glyph glyph-name="ogonek" unicode="&#x2db;" horiz-adv-x="224" 
d="M171 0c-40 -32 -60 -59.667 -60 -83c0 -8 4 -16.167 12 -24.5s25 -12.833 51 -13.5v-60c-6.66699 -1.33301 -15.334 -2 -26.001 -2s-24.5 3.16699 -41.5 9.5s-30.5 16.833 -40.5 31.5c-12 16.667 -18 33.167 -18 49.5s6.83301 32.833 20.5 49.5s34.834 31 63.501 43h39z
" />
    <glyph glyph-name="tilde" unicode="&#x2dc;" horiz-adv-x="438" 
d="M276 601c15.333 0 45.333 11.998 90 35.998l22 -42c-2 -1.33301 -10 -7.66602 -24 -18.999c-36 -29.333 -65 -44 -87 -44c-20 0 -40.667 5.66699 -62 17s-38.166 17 -50.499 17s-23.333 -1.83301 -33 -5.5s-20 -8.66699 -31 -15s-20.833 -11.166 -29.5 -14.499l-21 41
l40.5 32.5c9 7 21 14 36 21s30.333 10.167 46 9.5s34.667 -6.5 57 -17.5s35.666 -16.5 39.999 -16.5h6.5z" />
    <glyph glyph-name="hungarumlaut" unicode="&#x2dd;" horiz-adv-x="380" 
d="M20 531l107 133h95l-133 -133h-69zM155 531l107 133h95l-133 -133h-69z" />
    <glyph glyph-name="uni0338" unicode="&#x338;" horiz-adv-x="643" 
d="M70 162v407.999c0 52 16.167 92 48.5 120s73.5 42 123.5 42h164c57.333 0 99.5 -15.167 126.5 -45.5s40.5 -69.166 40.5 -116.499v-408c0 -108 -55.667 -162 -167 -162h-164c-50 0 -91.167 13 -123.5 39s-48.5 67 -48.5 123zM144 161.999
c0 -18.667 3.33301 -33.667 10 -45l271 540c-4 0.666992 -10.333 1 -19 1h-164c-33.333 0 -58 -8.16699 -74 -24.5s-24 -37.5 -24 -63.5v-408zM242 73.999h164.001c62 0 93 29.333 93 88v408c0 26 -5.66699 46 -17 60l-277 -551c13.333 -3.33301 25.666 -5 36.999 -5z" />
    <glyph glyph-name="Omega" unicode="&#x3a9;" horiz-adv-x="779" 
d="M65 362v49.001c0 18 2.83301 42.333 8.5 73s16 61.834 31 93.501s34.167 59.167 57.5 82.5s54.666 42.333 93.999 57s86.333 22 141 22s103.5 -9.83301 146.5 -29.5s76.167 -46.834 99.5 -81.501c44 -64.667 66 -146.334 66 -245.001c0 -36 -1 -65.167 -3 -87.5
s-6.66699 -47.833 -14 -76.5c-14 -54 -49.333 -101.333 -106 -142l128 -10v-67h-228v78c78.667 52.667 124.667 109 138 169c7.33301 36 11 77.833 11 125.5s-3.5 87 -10.5 118s-19.167 60.167 -36.5 87.5c-36 58 -102 87 -198 87c-167.333 0 -251 -95 -251 -285
c0 -39.333 1 -68.833 3 -88.5s7.83301 -42 17.5 -67s24.834 -48.5 45.501 -70.5s49.334 -47.333 86.001 -76v-78h-220v68l133 10c-46.667 30 -79.334 61.333 -98.001 94c-10 17.333 -18 33 -24 47s-10 31.667 -12 53c-3.33301 26.667 -5 56.667 -5 90z" />
    <glyph glyph-name="pi" unicode="&#x3c0;" horiz-adv-x="639" 
d="M20 457v73.999h550v-74h-129v-291c0 -36 5.5 -61 16.5 -75s28.5 -21 52.5 -21h108v-44c-30.667 -20.667 -68 -31 -112 -31s-78.167 12.833 -102.5 38.5s-36.5 69.834 -36.5 132.501v291h-187v-457h-74v457h-86z" />
    <glyph glyph-name="uni1E02" unicode="&#x1e02;" horiz-adv-x="596" 
d="M257 816v54c0 16.667 8 25 24 25h50c15.333 0 23 -8.33301 23 -25v-54c0 -15.333 -7.66699 -23 -23 -23h-50c-16 0 -24 7.66699 -24 23zM80 0l0.000976562 732h282c66 0 114.167 -19.333 144.5 -58s45.5 -82.667 45.5 -132c0 -88.667 -30.667 -142.667 -92 -162
c25.333 -6 47.666 -23.833 66.999 -53.5s29 -70.5 29 -122.5c0 -56 -13 -102.667 -39 -140c-30 -42.667 -81.667 -64 -155 -64h-282zM155.001 74h207c80 0 120 44 120 132c0 40 -10 73.333 -30 100s-50 40 -90 40h-207v-272zM155.001 420h207c77.333 0 116 39.667 116 119
s-38.667 119 -116 119h-207v-238z" />
    <glyph glyph-name="uni1E03" unicode="&#x1e03;" horiz-adv-x="554" 
d="M50 877v54c0 16.667 8 25 24 25h50c15.333 0 23 -8.33301 23 -25v-54c0 -15.333 -7.66699 -23 -23 -23h-50c-16 0 -24 7.66699 -24 23zM60 0l0.00390625 785h72v-286c30 12 64.167 21.667 102.5 29s72.666 11 102.999 11s57.666 -7.66699 81.999 -23
s42.5 -37.333 54.5 -66c20 -49.333 30 -111.666 30 -186.999c0 -68.667 -11 -128.334 -33 -179.001c-12 -28 -30 -50 -54 -66s-52.333 -24 -85 -24s-69.834 7.83301 -111.501 23.5s-70.834 29.5 -87.501 41.5l-20 -59h-53zM329.004 68c67.333 0 101.001 65 101.001 195
c0 77.333 -8.16699 130.333 -24.5 159s-41.833 43 -76.5 43c-64 0 -129.333 -8.66699 -196 -26v-325c75.333 -30.667 140.666 -46 195.999 -46z" />
    <glyph glyph-name="uni1E0A" unicode="&#x1e0a;" horiz-adv-x="657" 
d="M270 825v54c0 16.667 8 25 24 25h50c15.333 0 23 -8.33301 23 -25v-54c0 -15.333 -7.66699 -23 -23 -23h-50c-16 0 -24 7.66699 -24 23zM80 0l0.000976562 732.001h272c43.333 0 81.166 -8.16699 113.499 -24.5s57.5 -36.833 75.5 -61.5s32.667 -54.334 44 -89.001
c18 -55.333 27 -120 27 -194c0 -72.667 -12 -139 -36 -199c-28 -68 -69 -115.333 -123 -142c-30 -14.667 -63.667 -22 -101 -22h-272zM154.001 77.001h198.001c42 0 77.333 13.667 106 41c53.333 50 80 129.333 80 238s-15.833 186.167 -47.5 232.5
s-77.834 69.5 -138.501 69.5h-198v-581z" />
    <glyph glyph-name="uni1E0B" unicode="&#x1e0b;" horiz-adv-x="554" 
d="M406 869v54c0 16.667 8 25 24 25h50c15.333 0 23 -8.33301 23 -25v-54c0 -15.333 -7.66699 -23 -23 -23h-50c-16 0 -24 7.66699 -24 23zM57.5 168.5c-5 29 -7.49707 61.667 -7.49707 98s2.16699 69 6.5 98s12.166 57.5 23.499 85.5c24.667 59.333 73 89 145 89
c24.667 0 56 -3.66699 94 -11s72 -17 102 -29v286h73v-785h-53l-20 59c-16.667 -12 -45.834 -25.833 -87.501 -41.5s-78.834 -23.5 -111.501 -23.5s-61 8 -85 24s-42 37.833 -54 65.5s-20.5 56 -25.5 85zM124.003 263c0 -130 33.668 -195 101.001 -195
c55.333 0 120.666 15.333 195.999 46v325c-66.667 17.333 -132 26 -196 26c-34.667 0 -60.167 -14.333 -76.5 -43s-24.5 -81.667 -24.5 -159z" />
    <glyph glyph-name="uni1E1E" unicode="&#x1e1e;" horiz-adv-x="567" 
d="M268 816v54c0 16.667 8 25 24 25h50c15.333 0 23 -8.33301 23 -25v-54c0 -15.333 -7.66699 -23 -23 -23h-50c-16 0 -24 7.66699 -24 23zM80 0v601.999c0 46 11.5 79.167 34.5 99.5s51.5 30.5 85.5 30.5h6l316 -16v-58h-316c-16 0 -28.167 -3.16699 -36.5 -9.5
s-13 -12.666 -14 -18.999s-1.5 -15.5 -1.5 -27.5v-200l328 -10v-59l-328 -10v-323h-74z" />
    <glyph glyph-name="uni1E1F" unicode="&#x1e1f;" horiz-adv-x="400" 
d="M209 890v54c0 16.667 8 25 24 25h50c15.333 0 23 -8.33301 23 -25v-54c0 -15.333 -7.66699 -23 -23 -23h-50c-16 0 -24 7.66699 -24 23zM20 457v57l97 17v99c0 54 9.33301 93.333 28 118c8 10 20.167 18.833 36.5 26.5s40.5 11.5 72.5 11.5s74 -8 126 -24v-49l-123 1
c-30.667 0 -49.667 -8 -57 -24c-6 -14 -9 -34 -9 -60v-99h148v-74h-148v-457h-74v457h-97z" />
    <glyph glyph-name="uni1E40" unicode="&#x1e40;" horiz-adv-x="801" 
d="M348 820v54c0 16.667 8 25 24 25h50c15.333 0 23 -8.33301 23 -25v-54c0 -15.333 -7.66699 -23 -23 -23h-50c-16 0 -24 7.66699 -24 23zM55 0l48 732h102l195 -609l189 609h101l56 -732h-74l-45 598l-188 -598h-76l-194 598l-40 -598h-74z" />
    <glyph glyph-name="uni1E41" unicode="&#x1e41;" horiz-adv-x="898" 
d="M455 620v54c0 16.667 8 25 24 25h50c15.333 0 23 -8.33301 23 -25v-54c0 -15.333 -7.66699 -23 -23 -23h-50c-16 0 -24 7.66699 -24 23zM60 0l0.000976562 531h52l22 -64c4 2.66699 12.167 7.5 24.5 14.5l26 15c5 3 13 7.16699 24 12.5s20.167 9 27.5 11l25 9
c16 5.33301 38.667 8 68 8s57.333 -7 84 -21s45.667 -33 57 -57c62.667 52 134 78 214 78c46.667 0 85.667 -16 117 -48s47 -73 47 -123v-366h-74v366c0 29.333 -8.5 52.833 -25.5 70.5s-38.5 26.5 -64.5 26.5c-40 0 -74.5 -4 -103.5 -12s-59.833 -22.667 -92.5 -44v-407
h-74v366c0 29.333 -8.5 52.833 -25.5 70.5s-38.333 26.5 -64 26.5s-49.334 -2.66699 -71.001 -8s-38.5 -10.5 -50.5 -15.5s-35 -15.833 -69 -32.5v-407h-74z" />
    <glyph glyph-name="uni1E56" unicode="&#x1e56;" horiz-adv-x="581" 
d="M244 827v54c0 16.667 8 25 24 25h50c15.333 0 23 -8.33301 23 -25v-54c0 -15.333 -7.66699 -23 -23 -23h-50c-16 0 -24 7.66699 -24 23zM60 0l0.000976562 732h301c116.667 0 175 -70.667 175 -212c0 -109.333 -27.333 -177.333 -82 -204
c-17.333 -8 -32.666 -13 -45.999 -15s-29.333 -3 -48 -3s-60.334 3 -125.001 9s-98.334 9.66699 -101.001 11v-318h-74zM134.001 372h227c32 0 56.667 9.66699 74 29s26 59 26 119c-1.33301 62 -14.333 101.333 -39 118c-18 12.667 -38.333 19 -61 19h-227v-285z" />
    <glyph glyph-name="uni1E57" unicode="&#x1e57;" horiz-adv-x="554" 
d="M250 632v54c0 16.667 8 25 24 25h50c15.333 0 23 -8.33301 23 -25v-54c0 -15.333 -7.66699 -23 -23 -23h-50c-16 0 -24 7.66699 -24 23zM60 -270l-0.000976562 800.999h53l19 -59c16.667 12 46 25.833 88 41.5s79.333 23.5 112 23.5s61 -8 85 -24s42 -37.667 54 -65
c22 -51.333 33 -111.333 33 -180c0 -133.333 -28 -217.666 -84 -252.999c-24.667 -15.333 -52.167 -23 -82.5 -23s-64.666 3.66699 -102.999 11s-72.5 17 -102.5 29v-302h-72zM328.999 65.999c34.667 0 60.166 14.333 76.499 43s24.5 81.667 24.5 159
c0 130 -33.667 195 -101 195c-56 0 -121.667 -15.333 -197 -46v-325c66.667 -17.333 132.334 -26 197.001 -26z" />
    <glyph glyph-name="uni1E60" unicode="&#x1e60;" horiz-adv-x="584" 
d="M252 831v54c0 16.667 8 25 24 25h50c15.333 0 23 -8.33301 23 -25v-54c0 -15.333 -7.66699 -23 -23 -23h-50c-16 0 -24 7.66699 -24 23zM65 494l0.00195312 65.999c0 67.333 17.333 113.833 52 139.5s79 38.5 133 38.5s141.667 -8 263 -24v-60l-250 10h-16
c-34 0 -60.5 -6 -79.5 -18s-28.5 -40.667 -28.5 -86v-66c0 -41.333 8.16699 -68 24.5 -80s42.166 -18 77.499 -18h142c104 0 156 -57.333 156 -172v-68c0 -67.333 -21.667 -112.666 -65 -135.999c-36 -18.667 -81.667 -28 -137 -28c-23.333 0 -64.5 3 -123.5 9
s-101.167 11.333 -126.5 16v60c73.333 -7.33301 156.666 -11 249.999 -11c85.333 0 128 30 128 90v68c0 31.333 -6 55.5 -18 72.5s-33.333 25.5 -64 25.5h-140c-76 0 -125.667 18.333 -149 55c-19.333 30.667 -29 69.667 -29 117z" />
    <glyph glyph-name="uni1E61" unicode="&#x1e61;" horiz-adv-x="506" 
d="M226 631v54c0 16.667 8 25 24 25h50c15.333 0 23 -8.33301 23 -25v-54c0 -15.333 -7.66699 -23 -23 -23h-50c-16 0 -24 7.66699 -24 23zM40 358l0.00195312 46.002c0 43.333 10.667 76.166 32 98.499s60.166 33.5 116.499 33.5s139.833 -5.33301 250.5 -16v-57h-261
c-30.667 0 -49.334 -5.66699 -56.001 -17c-5.33301 -8.66699 -8 -22.667 -8 -42v-46c0 -26.667 6.33301 -43 19 -49c10.667 -5.33301 25.667 -8 45 -8h158c42 0 74.167 -11.833 96.5 -35.5s33.5 -54.834 33.5 -93.501v-49c0 -49.333 -12 -83 -36 -101s-55.333 -27 -94 -27
c-62 0 -153.333 6.33301 -274 19v55h274c0 0.666992 1.83301 0.666992 5.5 0s8.33398 0 14.001 2s11.167 4.33301 16.5 7c13.333 6.66699 20 21.667 20 45v49c0 18.667 -4.16699 32.5 -12.5 41.5s-22.833 13.5 -43.5 13.5h-158c-48.667 0 -83.834 9.33301 -105.501 28
s-32.5 53 -32.5 103z" />
    <glyph glyph-name="uni1E6A" unicode="&#x1e6a;" horiz-adv-x="578" 
d="M240 820l0.00195312 54c0 16.667 8 25 24 25h50c7.33301 0 13.166 -2.33301 17.499 -7s6.5 -10.667 6.5 -18v-54c0 -15.333 -8 -23 -24 -23h-50c-6.66699 0 -12.334 2.16699 -17.001 6.5s-7 9.83301 -7 16.5zM45.002 658v74h508v-74h-220v-658h-74v658h-214z" />
    <glyph glyph-name="uni1E6B" unicode="&#x1e6b;" horiz-adv-x="378" 
d="M116 764v54c0 16.667 8 25 24 25h50c15.333 0 23 -8.33301 23 -25v-54c0 -15.333 -7.66699 -23 -23 -23h-50c-16 0 -24 7.66699 -24 23zM20 458v56.002l99 18l18 148h56v-148h155v-74h-155v-268c0 -40.667 4.66699 -68.834 14 -84.501s23.666 -25.834 42.999 -30.501
c54.667 -14 84.334 -21 89.001 -21v-53h-88c-88 0 -132 63 -132 189v268h-99z" />
    <glyph glyph-name="Wgrave" unicode="&#x1e80;" horiz-adv-x="962" 
d="M333 925h95l107 -133h-69zM45 732h81l213 -603l181 603h84l-68 -234l133 -375l187 609h81l-229 -732h-74l-137 374l-121 -374h-74z" />
    <glyph glyph-name="wgrave" unicode="&#x1e81;" horiz-adv-x="801" 
d="M238 724h95l107 -133h-69zM20 531h81l157 -422l138 422h80l-54 -170l116 -252l162 422h81l-203 -531h-74l-118 260l-87 -260h-80z" />
    <glyph glyph-name="Wacute" unicode="&#x1e82;" horiz-adv-x="962" 
d="M467 792l107 133h95l-133 -133h-69zM45 732h81l213 -603l181 603h84l-68 -234l133 -375l187 609h81l-229 -732h-74l-137 374l-121 -374h-74z" />
    <glyph glyph-name="wacute" unicode="&#x1e83;" horiz-adv-x="801" 
d="M372 591l107 133h95l-133 -133h-69zM20 531h81l157 -422l138 422h80l-54 -170l116 -252l162 422h81l-203 -531h-74l-118 260l-87 -260h-80z" />
    <glyph glyph-name="Wdieresis" unicode="&#x1e84;" horiz-adv-x="962" 
d="M323 843c0 14 5 25.833 15 35.5s22 14.5 36 14.5s25.833 -4.83301 35.5 -14.5s14.5 -21.5 14.5 -35.5s-4.83301 -26 -14.5 -36s-21.5 -15 -35.5 -15s-26 5 -36 15s-15 22 -15 36zM578 843c0 14 5 25.833 15 35.5s22 14.5 36 14.5s25.833 -4.83301 35.5 -14.5
s14.5 -21.5 14.5 -35.5s-4.83301 -26 -14.5 -36s-21.5 -15 -35.5 -15s-26 5 -36 15s-15 22 -15 36zM45 732h81l213 -603l181 603h84l-68 -234l133 -375l187 609h81l-229 -732h-74l-137 374l-121 -374h-74z" />
    <glyph glyph-name="wdieresis" unicode="&#x1e85;" horiz-adv-x="801" 
d="M228 642c0 14 5 25.833 15 35.5s22 14.5 36 14.5s25.833 -4.83301 35.5 -14.5s14.5 -21.5 14.5 -35.5s-4.83301 -26 -14.5 -36s-21.5 -15 -35.5 -15s-26 5 -36 15s-15 22 -15 36zM483 642c0 14 5 25.833 15 35.5s22 14.5 36 14.5s25.833 -4.83301 35.5 -14.5
s14.5 -21.5 14.5 -35.5s-4.83301 -26 -14.5 -36s-21.5 -15 -35.5 -15s-26 5 -36 15s-15 22 -15 36zM20 531h81l157 -422l138 422h80l-54 -170l116 -252l162 422h81l-203 -531h-74l-118 260l-87 -260h-80z" />
    <glyph glyph-name="Ygrave" unicode="&#x1ef2;" horiz-adv-x="630" 
d="M158 930h94l108 -133h-70zM352 0h-74v260l-233 472h81l189 -384l209 384h81l-253 -472v-260z" />
    <glyph glyph-name="ygrave" unicode="&#x1ef3;" horiz-adv-x="554" 
d="M119 729h95l107 -133h-69zM21 531h81.002l129 -415c4.66699 -13.333 9.16699 -22 13.5 -26s8.16602 -7.16699 11.499 -9.5s6.66602 -3.83301 9.99902 -4.5s6.5 -1.16699 9.5 -1.5s5.83301 -0.5 8.5 -0.5c6 1.33301 10.333 2.33301 13 3l152 454h83l-234 -699l-75 -102
h-46l94 270c-57.333 0 -97.333 36.667 -120 110z" />
    <glyph glyph-name="endash" unicode="&#x2013;" horiz-adv-x="513" 
d="M20 250v75h473v-75h-473z" />
    <glyph glyph-name="emdash" unicode="&#x2014;" horiz-adv-x="736" 
d="M20 252v75h696v-75h-696z" />
    <glyph glyph-name="quoteleft" unicode="&#x2018;" horiz-adv-x="270" 
d="M169 742c4 0 9 -0.666992 15 -2v-35h-2c-21.333 0 -32 -11.333 -32 -34v-28h12c18.667 0 28 -9 28 -27v-59c0 -20 -9.33301 -30 -28 -30h-56c-17.333 0 -26 10 -26 30v99c0 57.333 29.667 86 89 86z" />
    <glyph glyph-name="quoteright" unicode="&#x2019;" horiz-adv-x="270" 
d="M80 653v59c0 20 9.33301 30 28 30h56c17.333 0 26 -10 26 -30v-99c0 -19.333 -3.5 -35.5 -10.5 -48.5s-15.5 -21.833 -25.5 -26.5c-18 -8 -31.5 -12 -40.5 -12h-17.5l-10 2v35h2c21.333 0 32 11.667 32 35v27h-12c-18.667 0 -28 9.33301 -28 28z" />
    <glyph glyph-name="quotesinglbase" unicode="&#x201a;" horiz-adv-x="270" 
d="M80 27l0.000976562 58.999c0 20 9.33301 30 28 30h56c17.333 0 26 -10 26 -30v-99c0 -19.333 -3.5 -35.666 -10.5 -48.999s-15.5 -22 -25.5 -26c-18.667 -8 -32.334 -12 -41.001 -12h-17l-10 2v35h2c21.333 0 32 11.667 32 35v27h-12c-18.667 0 -28 9.33301 -28 28z" />
    <glyph glyph-name="quotedblleft" unicode="&#x201c;" horiz-adv-x="418" 
d="M235 557v99c0 19.333 3.66699 35.333 11 48c14 25.333 38.667 38 74 38h9l11 -2v-35h-2c-22 0 -33 -11.333 -33 -34v-27h13c18 0 27 -9.33301 27 -28v-59c0 -20 -9 -30 -27 -30h-56c-18 0 -27 10 -27 30zM162 742c4 0 9 -0.666992 15 -2v-35h-2
c-21.333 0 -32 -11.333 -32 -34v-27h12c18.667 0 28 -9.33301 28 -28v-59c0 -20 -9.33301 -30 -28 -30h-56c-17.333 0 -26 10 -26 30v99c0 57.333 29.667 86 89 86z" />
    <glyph glyph-name="quotedblright" unicode="&#x201d;" horiz-adv-x="418" 
d="M73 653v59c0 20 9 30 27 30h56c18 0 27 -10 27 -30v-99c0 -19.333 -3.66699 -35.5 -11 -48.5s-16 -21.833 -26 -26.5c-17.333 -8 -30.5 -12 -39.5 -12h-17.5l-11 2v35h2c21.333 0 32 11.667 32 35v27h-12c-18 0 -27 9.33301 -27 28zM235 653v59c0 20 9.33301 30 28 30h56
c17.333 0 26 -10 26 -30v-99c0 -19.333 -3.5 -35.5 -10.5 -48.5s-15.833 -21.833 -26.5 -26.5c-17.333 -8 -30.5 -12 -39.5 -12h-16.5l-11 2v35h2c21.333 0 32 11.667 32 35v27h-12c-18.667 0 -28 9.33301 -28 28z" />
    <glyph glyph-name="quotedblbase" unicode="&#x201e;" horiz-adv-x="418" 
d="M73 27v58.999c0 20 9 30 27 30h56c18 0 27 -10 27 -30v-99c0 -19.333 -3.66699 -35.666 -11 -48.999s-16 -22 -26 -26c-18 -8 -31.333 -12 -40 -12h-17l-11 2v35h2c21.333 0 32 11.667 32 35v27h-12c-18 0 -27 9.33301 -27 28zM235 26.999v58.999c0 20 9.33301 30 28 30
h56c17.333 0 26 -10 26 -30v-99c0 -19.333 -3.5 -35.666 -10.5 -48.999s-15.833 -22 -26.5 -26c-18 -8 -31.333 -12 -40 -12h-16l-11 2v35h2c21.333 0 32 11.667 32 35v27h-12c-18.667 0 -28 9.33301 -28 28z" />
    <glyph glyph-name="dagger" unicode="&#x2020;" horiz-adv-x="384" 
d="M20 489v59l133 10l8 212h63l8 -212l132 -10v-59l-132 -10l-9 -551h-63l-7 551z" />
    <glyph glyph-name="daggerdbl" unicode="&#x2021;" horiz-adv-x="404" 
d="M20 174v59l134 10l-1 236l-133 10v59l133 10l9 212h62l8 -212l132 -10v-59l-132 -10l-3 -236l135 -10v-59l-137 -10l-4 -236h-63l-4 236z" />
    <glyph glyph-name="bullet" unicode="&#x2022;" horiz-adv-x="312" 
d="M85 341v80c0 23.333 11 35 33 35h74c23.333 0 35 -11.667 35 -35v-80c0 -21.333 -11.667 -32 -35 -32h-74c-22 0 -33 10.667 -33 32z" />
    <glyph glyph-name="ellipsis" unicode="&#x2026;" horiz-adv-x="816" 
d="M629 23v57c0 16.667 8 25 24 25h53c16.667 0 25 -8.33301 25 -25v-57c0 -15.333 -8.33301 -23 -25 -23h-53c-16 0 -24 7.66699 -24 23zM357 23v57c0 16.667 8 25 24 25h53c16.667 0 25 -8.33301 25 -25v-57c0 -15.333 -8.33301 -23 -25 -23h-53c-16 0 -24 7.66699 -24 23
zM85 23v57c0 16.667 8 25 24 25h53c16.667 0 25 -8.33301 25 -25v-57c0 -15.333 -8.33301 -23 -25 -23h-53c-16 0 -24 7.66699 -24 23z" />
    <glyph glyph-name="perthousand" unicode="&#x2030;" horiz-adv-x="1381" 
d="M42 474v133c0 44 9.33301 75.833 28 95.5s52.334 29.5 101.001 29.5h101c47.333 0 80.333 -9.83301 99 -29.5s28 -51.5 28 -95.5v-133c0 -44 -9.33301 -75.833 -28 -95.5s-52.334 -29.5 -101.001 -29.5h-101c-47.333 0 -80.333 9.83301 -99 29.5s-28 51.5 -28 95.5z
M107 474c0 -24 4.33301 -40 13 -48s25 -12 49 -12h101c28 0 45.667 4 53 12s11 24 11 48v133c0 24 -4.33301 40 -13 48s-25 12 -49 12h-101c-27.333 0 -44.833 -4 -52.5 -12s-11.5 -24 -11.5 -48v-133zM227 0l438 732h71l-438 -732h-71zM556 127v133
c0 44 9.33301 75.833 28 95.5s52.334 29.5 101.001 29.5h101c47.333 0 80.333 -9.83301 99 -29.5s28 -51.5 28 -95.5v-133c0 -44 -9.33301 -75.833 -28 -95.5s-52.334 -29.5 -101.001 -29.5h-101c-47.333 0 -80.333 9.83301 -99 29.5s-28 51.5 -28 95.5zM621 127
c0 -24 4.33301 -40 13 -48s25 -12 49 -12h101c28 0 45.667 4 53 12s11 24 11 48v133c0 24 -4.33301 40 -13 48s-25 12 -49 12h-101c-27.333 0 -44.833 -4 -52.5 -12s-11.5 -24 -11.5 -48v-133zM982 127v133c0 44 9.33301 75.833 28 95.5s52.334 29.5 101.001 29.5h101
c47.333 0 80.333 -9.83301 99 -29.5s28 -51.5 28 -95.5v-133c0 -44 -9.33301 -75.833 -28 -95.5s-52.334 -29.5 -101.001 -29.5h-101c-47.333 0 -80.333 9.83301 -99 29.5s-28 51.5 -28 95.5zM1047 127c0 -24 4.33301 -40 13 -48s25 -12 49 -12h101c28 0 45.667 4 53 12
s11 24 11 48v133c0 24 -4.33301 40 -13 48s-25 12 -49 12h-101c-27.333 0 -44.833 -4 -52.5 -12s-11.5 -24 -11.5 -48v-133z" />
    <glyph glyph-name="guilsinglleft" unicode="&#x2039;" horiz-adv-x="357" 
d="M50 354l206 203l52 -52l-155 -151l160 -156l-52 -52z" />
    <glyph glyph-name="guilsinglright" unicode="&#x203a;" horiz-adv-x="357" 
d="M50 198l160 156l-155 151l52 52l206 -203l-211 -208z" />
    <glyph glyph-name="fraction" unicode="&#x2044;" horiz-adv-x="233" 
d="M-90 0l348 732h65l-348 -732h-65z" />
    <glyph glyph-name="zerosuperior" unicode="&#x2070;" horiz-adv-x="468" 
d="M60 515v255c0 40 10 68.333 30 85s49 25 87 25h117c75.333 0 113 -36.667 113 -110v-255c0 -44 -9.5 -73.333 -28.5 -88s-47.167 -22 -84.5 -22h-117c-57.333 0 -93 17 -107 51c-6.66699 15.333 -10 35 -10 59zM123 519c0 -20.667 3.66699 -34.5 11 -41.5
s23 -10.5 47 -10.5h109c24 0 39.333 3.83301 46 11.5s10 21.167 10 40.5v247c0 18.667 -3.66699 32 -11 40s-22.333 12 -45 12h-109c-23.333 0 -38.833 -4.16699 -46.5 -12.5s-11.5 -21.5 -11.5 -39.5v-247z" />
    <glyph glyph-name="foursuperior" unicode="&#x2074;" horiz-adv-x="417" 
d="M281 591v121l28 48h34v-169h59v-52l-59 -13v-120h-62v120h-243l-22 24l208 330h71l-181 -289h167z" />
    <glyph glyph-name="fivesuperior" unicode="&#x2075;" horiz-adv-x="419" 
d="M206 701l64 -2.00195c37.333 0 64.833 -10.667 82.5 -32s26.5 -50.666 26.5 -87.999v-64c0 -39.333 -9.83301 -68.166 -29.5 -86.499s-46.167 -27.5 -79.5 -27.5c-89.333 0 -161 4.66699 -215 14v49h211c34 0 51 18.333 51 55v71c0 14.667 -2.33301 24.667 -7 30
c-12 11.333 -26.667 17 -44 17h-115c-29.333 0 -44 -16.333 -44 -49h-52l15 292h295v-62h-237l-8 -138c14 14 42.667 21 86 21z" />
    <glyph glyph-name="sixsuperior" unicode="&#x2076;" horiz-adv-x="440" 
d="M132 875.5c12.667 5.66699 26.833 9.16797 42.5 10.501s38.5 2 68.5 2s76.667 -4.66699 140 -14v-50h-202c-40.667 0 -62 -51 -64 -153c85.333 9.33301 146.166 14 182.499 14s62 -9.33301 77 -28s22.5 -43 22.5 -73v-73c0 -34.667 -9.5 -60.834 -28.5 -78.501
s-44.5 -26.5 -76.5 -26.5h-107c-20 0 -37.333 3.33301 -52 10c-53.333 22.667 -80 98 -80 226c0 102 13 169.333 39 202c12.667 15.333 25.334 25.833 38.001 31.5zM116.999 623.001c0 -103.333 22.333 -155 67 -155h106c16.667 0 28.667 4 36 12s11 21 11 39v61
c0 16.667 -3.66699 28 -11 34s-19.333 9 -36 9h-173z" />
    <glyph glyph-name="sevensuperior" unicode="&#x2077;" horiz-adv-x="367" 
d="M15 820v62h319l17 -31l-182 -445h-70l171 414h-255z" />
    <glyph glyph-name="eightsuperior" unicode="&#x2078;" horiz-adv-x="466" 
d="M66 508v58.002c0 36.667 18.333 60.667 55 72c-36.667 12 -55 42 -55 90v40c0 43.333 10.167 73.666 30.5 90.999s48.833 26 85.5 26h110c36 0 63 -9 81 -27s27 -48 27 -90v-40v-9.5c0 -3.66699 -0.5 -9.16699 -1.5 -16.5s-5.5 -16.5 -13.5 -27.5s-19 -18.167 -33 -21.5
c16 -2.66699 28 -13.334 36 -32.001s12 -37 12 -55v-58c0 -69.333 -35 -104 -105 -104h-120c-42 0 -70.667 9.33301 -86 28s-23 44 -23 76zM128 512.002c0 -16.667 3.5 -28.333 10.5 -35s20.5 -10 40.5 -10h112c31.333 0 47 15 47 45v50c0 34.667 -15.333 52 -46 52h-115
c-32.667 0 -49 -17.333 -49 -52v-50zM128 732.003c0 -36.667 16.333 -55 49 -55h111c33.333 0 50 18.333 50 55v32c0 23.333 -4.16699 39 -12.5 47s-22.5 12 -42.5 12h-97c-22.667 0 -38 -4.16699 -46 -12.5s-12 -23.833 -12 -46.5v-32z" />
    <glyph glyph-name="ninesuperior" unicode="&#x2079;" horiz-adv-x="440" 
d="M45 708l-0.000976562 72.999c0 34.667 9.5 60.834 28.5 78.501s44.5 26.5 76.5 26.5h107c20 0 37.333 -3.33301 52 -10c53.333 -22.667 80 -98 80 -226c0 -104 -12.333 -171.333 -37 -202c-12.667 -14.667 -25.334 -25 -38.001 -31
c-18.667 -8.66699 -53.667 -13 -105 -13s-100.666 4.66699 -147.999 14v50h201c41.333 0 63 51 65 153c-85.333 -9.33301 -146.166 -14 -182.499 -14s-62 9.33301 -77 28s-22.5 43 -22.5 73zM106.999 711.999c0 -16.667 3.66699 -28 11 -34s19.333 -9 36 -9h173
c0 103.333 -21.333 155 -64 155h-109c-16.667 0 -28.667 -4 -36 -12s-11 -21 -11 -39v-61z" />
    <glyph glyph-name="zeroinferior" unicode="&#x2080;" horiz-adv-x="468" 
d="M60 -90v255c0 40 10 68.333 30 85s49 25 87 25h117c75.333 0 113 -36.667 113 -110v-255c0 -44 -9.5 -73.333 -28.5 -88s-47.167 -22 -84.5 -22h-117c-57.333 0 -93 17 -107 51c-6.66699 15.333 -10 35 -10 59zM123 -86c0 -20.667 3.66699 -34.5 11 -41.5
s23 -10.5 47 -10.5h109c24 0 39.333 3.83301 46 11.5s10 21.167 10 40.5v247c0 18.667 -3.66699 32 -11 40s-22.333 12 -45 12h-109c-23.333 0 -38.833 -4.16699 -46.5 -12.5s-11.5 -21.5 -11.5 -39.5v-247z" />
    <glyph glyph-name="oneinferior" unicode="&#x2081;" horiz-adv-x="271" 
d="M206 277v-476h-62v407l-128 -35v49l128 55h62z" />
    <glyph glyph-name="twoinferior" unicode="&#x2082;" horiz-adv-x="387" 
d="M32 221c-0.666992 0 -1 4.00098 -1 12.001s0.333008 15.667 1 23v12c82.667 10 143.667 15 183 15c86.667 0 130 -45.333 130 -136c0 -23.333 -6 -48.333 -18 -75s-24.5 -49.167 -37.5 -67.5s-31.5 -39.5 -55.5 -63.5s-40 -39.333 -48 -46l-38 -32h196v-62h-309v58
c5.33301 4.66699 18.833 15.167 40.5 31.5l53.5 41.5c14 11.333 31.5 26.833 52.5 46.5s37.833 37.5 50.5 53.5c32 41.333 48 77.166 48 107.499s-5.66699 51.5 -17 63.5s-31 18 -59 18h-172z" />
    <glyph glyph-name="threeinferior" unicode="&#x2083;" horiz-adv-x="406" 
d="M34 -185l1 42.999l177 1c26.667 0 45.334 4.66699 56.001 14s16 25 16 47v23c0 44.667 -22.667 67.667 -68 69l-142 5v47l142 7c46 2 69 23.333 69 64v22c0 40 -23 60 -69 60h-186v43c36 12 77.333 18 124 18h71c40.667 0 71 -11.167 91 -33.5s30 -50.166 30 -83.499v-35
c0 -22 -4.66699 -40.833 -14 -56.5s-21 -26.167 -35 -31.5c32.667 -20.667 49 -52 49 -94v-28c0 -38.667 -9.33301 -68.167 -28 -88.5s-51.334 -30.5 -98.001 -30.5h-83c-32.667 0 -67 6 -103 18z" />
    <glyph glyph-name="fourinferior" unicode="&#x2084;" horiz-adv-x="417" 
d="M281 -14v121l28 48h34v-169h59v-52l-59 -13v-120h-62v120h-243l-22 24l208 330h71l-181 -289h167z" />
    <glyph glyph-name="fiveinferior" unicode="&#x2085;" horiz-adv-x="419" 
d="M206 96l64 -2.00195c37.333 0 64.833 -10.667 82.5 -32s26.5 -50.666 26.5 -87.999v-64c0 -39.333 -9.83301 -68.166 -29.5 -86.499s-46.167 -27.5 -79.5 -27.5c-89.333 0 -161 4.66699 -215 14v49h211c34 0 51 18.333 51 55v72c0 14 -2.33301 23.333 -7 28
c-12 12 -26.667 18 -44 18h-115c-29.333 0 -44 -16.333 -44 -49h-52l15 292h295v-62h-237l-8 -138c14 14 42.667 21 86 21z" />
    <glyph glyph-name="sixinferior" unicode="&#x2086;" horiz-adv-x="440" 
d="M132 270.5c12.667 5.66699 28.333 9.16797 47 10.501s45.5 2 80.5 2s76.167 -4.66699 123.5 -14v-50h-202c-40.667 0 -62 -51 -64 -153c85.333 9.33301 146.166 14 182.499 14s62 -9.33301 77 -28s22.5 -43 22.5 -73v-73c0 -34.667 -9.5 -60.834 -28.5 -78.501
s-44.5 -26.5 -76.5 -26.5h-107c-20 0 -37.333 3 -52 9c-53.333 23.333 -80 99 -80 227c0 102 13 169.333 39 202c12.667 15.333 25.334 25.833 38.001 31.5zM116.999 18.001c0 -103.333 22.333 -155 67 -155h106c16.667 0 28.667 4 36 12s11 21 11 39v61
c0 16.667 -3.66699 28 -11 34s-19.333 9 -36 9h-173z" />
    <glyph glyph-name="seveninferior" unicode="&#x2087;" horiz-adv-x="367" 
d="M15 215v62h319l17 -31l-182 -445h-70l171 414h-255z" />
    <glyph glyph-name="eightinferior" unicode="&#x2088;" horiz-adv-x="466" 
d="M66 -39c0 36.667 18.333 60.6689 55 72.002c-36.667 12 -55 42 -55 90v40c0 43.333 10.167 73.666 30.5 90.999s48.833 26 85.5 26h110c36 0 63 -9 81 -27s27 -48 27 -90v-40v-9.5c0 -3.66699 -0.5 -9.16699 -1.5 -16.5s-5.5 -16.5 -13.5 -27.5s-19 -18.167 -33 -21.5
c16 -2.66699 28 -13.334 36 -32.001s12 -37 12 -55v-58c0 -69.333 -35 -104 -105 -104h-120c-42 0 -70.667 9.33301 -86 28s-23 44 -23 76v58zM128 -42.998v-49.999c0 -16.667 3.5 -28.334 10.5 -35.001s20.5 -10 40.5 -10h112c31.333 0 47 15 47 45v50
c0 34.667 -15.333 52 -46 52h-115c-32.667 0 -49 -17.333 -49 -52zM128 127.003c0 -36.667 16.333 -55 49 -55h111c33.333 0 50 18.333 50 55v32c0 23.333 -4.16699 39 -12.5 47s-22.5 12 -42.5 12h-97c-22.667 0 -38 -4.16699 -46 -12.5s-12 -23.833 -12 -46.5v-32z" />
    <glyph glyph-name="nineinferior" unicode="&#x2089;" horiz-adv-x="440" 
d="M45 103v72.999c0 34.667 9.5 60.834 28.5 78.501s44.5 26.5 76.5 26.5h107c20 0 37.333 -3 52 -9c53.333 -23.333 80 -99 80 -227c0 -104 -12.333 -171 -37 -201c-12.667 -15.333 -25.334 -26 -38.001 -32c-18.667 -8.66699 -53.5 -13 -104.5 -13
s-100.5 4.66699 -148.5 14v50h201c41.333 0 63 51 65 153c-85.333 -9.33301 -146.166 -14 -182.499 -14s-62 9.33301 -77 28s-22.5 43 -22.5 73zM107 106.999c0 -16.667 3.66699 -28 11 -34s19.333 -9 36 -9h173c0 103.333 -21.333 155 -64 155h-109
c-16.667 0 -28.667 -4 -36 -12s-11 -21 -11 -39v-61z" />
    <glyph glyph-name="Euro" unicode="&#x20ac;" horiz-adv-x="611" 
d="M255 729c25.333 7.33301 60.0029 11.0039 104.003 11.0039s120 -10 228 -30v-59c-108.667 10 -185.667 15 -231 15s-79.166 -4.33301 -101.499 -13s-38.5 -22.834 -48.5 -42.501s-16.5 -39.5 -19.5 -59.5s-4.5 -47 -4.5 -81l234 -7v-46l-234 -7v-101l234 -7v-47
c-20.667 0 -65 -1 -133 -3s-101.667 -3.33301 -101 -4c0 -120 53.333 -180 160 -180c64 0 133.333 4 208 12l41 5v-56c-82 -23.333 -165 -35 -249 -35c-41.333 0 -76.5 6.83301 -105.5 20.5s-51.833 29.167 -68.5 46.5s-30.834 42.166 -42.501 74.499
s-17.5 69.833 -17.5 112.5l-88 7v47l88 7v101l-88 8v43l88 9v18c0 10 0.166992 20 0.5 30s2 25.167 5 45.5s7.16699 37.333 12.5 51s13.666 29.167 24.999 46.5s25.166 31.166 41.499 41.499s37.166 19.166 62.499 26.499z" />
    <glyph glyph-name="afii61289" unicode="&#x2113;" horiz-adv-x="386" 
d="M120.5 710c21.667 19.333 49.833 29 84.5 29s63 -13.667 85 -41s33 -63.333 33 -108s-14.5 -93.834 -43.5 -147.501s-68.5 -103.167 -118.5 -148.5v-105c0 -58 7.33301 -92 22 -102c6.66699 -4.66699 14.167 -8.16699 22.5 -10.5s27.166 -7 56.499 -14
s44.333 -10.167 45 -9.5v-53h-88c-48 0.666992 -82 15.334 -102 44.001s-30 77 -30 145v46l-31 -19l-26 32c16.667 15.333 35.667 34 57 56v328c0.666992 32.667 11.834 58.667 33.501 78zM248.999 596c0 36.667 -11.001 59.333 -33.001 68c-5.33301 2 -11.166 3 -17.499 3
s-12.833 -1.66699 -19.5 -5c-12 -6.66699 -18 -18.667 -18 -36v-230c58.667 79.333 88 146 88 200z" />
    <glyph glyph-name="afii61352" unicode="&#x2116;" horiz-adv-x="1061" 
d="M72 0v652.001c0 32 11.333 55.667 34 71c14.667 10 28.334 15 41.001 15c45.333 0 76.333 -19.333 93 -58l268 -597c4 -8.66699 9 -12.334 15 -11.001s9 6 9 14v482c0 57.333 15.5 99.5 46.5 126.5s71.5 40.5 121.5 40.5l189 -1
c49.333 -1.33301 83.666 -16.166 102.999 -44.499s29 -72.5 29 -132.5s-9.83301 -104.333 -29.5 -133s-53.834 -43 -102.501 -43h-66c-51.333 0 -86.166 16.833 -104.499 50.5s-27.5 94.834 -27.5 183.501h62c0 -80 7.33301 -129.667 22 -149c8 -10 15.667 -16.333 23 -19
s17.666 -4 30.999 -4h54c26 0 45.167 6.66699 57.5 20s18.5 40.333 18.5 81s-3.16699 69.5 -9.5 86.5s-14.166 27.5 -23.499 31.5s-23.666 6.33301 -42.999 7c-75.333 0.666992 -137 1 -185 1c-28 0 -50.333 -8.33301 -67 -25s-25 -41.667 -25 -75v-491
c0 -28.667 -9.33301 -50.167 -28 -64.5s-37.334 -21.5 -56.001 -21.5c-37.333 0 -64 18.667 -80 56l-271 603c-3.33301 7.33301 -8.33301 10.166 -15 8.49902s-10 -6.83398 -10 -15.501v-645h-74z" />
    <glyph glyph-name="trademark" unicode="&#x2122;" horiz-adv-x="692" 
d="M20 668v64h259v-64h-97v-285h-64v285h-98zM318 383l27 349h63l93 -237l80 237h65l31 -349h-64l-17 202l-67 -202h-53l-79 203l-15 -203h-64z" />
    <glyph glyph-name="estimated" unicode="&#x212e;" horiz-adv-x="722" 
d="M662 258l-487.997 0.000976562c-2 0 -3 -3.66699 -3 -11v-133c0 -16.667 18.833 -36.334 56.5 -59.001s78.5 -34 122.5 -34s83.167 7.83301 117.5 23.5s62.5 35.834 84.5 60.501h56c-38.667 -40.667 -76.834 -68.334 -114.501 -83.001s-81.834 -22 -132.501 -22
c-92 0 -165.167 25.167 -219.5 75.5s-81.5 113.5 -81.5 189.5s28 140.333 84 193c56 50 126.667 75 212 75s156.666 -22.167 213.999 -66.5s88 -113.833 92 -208.5zM171.003 284.001c0 -6 3.00098 -8.99902 9.00098 -8.99902h357h7c4 2.66699 6 5 6 7v133
c0 21.333 -21 43.166 -63 65.499s-82 33.5 -120 33.5s-72.333 -6.33301 -103 -19s-53.834 -26 -69.501 -40s-23.5 -25.333 -23.5 -34v-137z" />
    <glyph glyph-name="partialdiff" unicode="&#x2202;" horiz-adv-x="646" 
d="M128 54.5c-47.333 39.667 -71.001 97.332 -71.001 172.999s22.333 134.167 67 175.5s108.667 62 192 62c66.667 0 124.334 -19 173.001 -57c-5.33301 98.667 -23 166.334 -53 203.001s-77.5 55 -142.5 55s-124.833 -17 -179.5 -51l-23 47
c28.667 18.667 50.667 32.334 66 41.001c43.333 24.667 89.333 37 138 37c179.333 0 269 -117.667 269 -353c0 -104.667 -20 -194.334 -60 -269.001c-20.667 -38 -48 -68 -82 -90s-73 -33 -117 -33c-70.667 0 -129.667 19.833 -177 59.5zM175.499 347.498
c-29.667 -29 -44.5 -68.667 -44.5 -119s16.5 -89.5 49.5 -117.5s73.833 -42 122.5 -42c34.667 0 65 10.833 91 32.5s45.333 48.5 58 80.5c25.333 62.667 38 119 38 169c-48 26.667 -105 40 -171 40s-113.833 -14.5 -143.5 -43.5z" />
    <glyph glyph-name="uni2206" unicode="&#x2206;" horiz-adv-x="724" 
d="M20 0l311 732h74l299 -732h-684zM133 74h462l-226 560z" />
    <glyph glyph-name="product" unicode="&#x220f;" horiz-adv-x="644" 
d="M20 658v74h604v-74h-87v-658h-74v658h-283v-658h-74v658h-86z" />
    <glyph glyph-name="summation" unicode="&#x2211;" horiz-adv-x="586" 
d="M40 732h526v-74h-437l213 -388l-213 -393h437v-77h-526v77l214 393l-214 388v74z" />
    <glyph glyph-name="minus" unicode="&#x2212;" horiz-adv-x="456" 
d="M20 319v74h416v-74h-416z" />
    <glyph glyph-name="radical" unicode="&#x221a;" horiz-adv-x="628" 
d="M20 284v74h133l130 -255l251 697h74l-285 -800h-68l-147 284h-88z" />
    <glyph glyph-name="infinity" unicode="&#x221e;" horiz-adv-x="786" 
d="M50 341c0 115.333 55.334 173 166.001 173c36 0 69.5 -9.66699 100.5 -29s56.5 -44.666 76.5 -75.999c20 31.333 45.5 56.666 76.5 75.999s64.5 29 100.5 29c110.667 0 166 -57.667 166 -173c0 -51.333 -12.833 -92.833 -38.5 -124.5s-68.167 -47.5 -127.5 -47.5
c-78 0 -137.333 36 -178 108c-40.667 -72 -99.334 -108 -176.001 -108c-59.333 0 -101.833 15.833 -127.5 47.5s-38.5 73.167 -38.5 124.5zM140.501 415.5c-11 -16.333 -16.5 -40.666 -16.5 -72.999s6.5 -57 19.5 -74s37.167 -25.5 72.5 -25.5c52.667 0 101 32.667 145 98
c-17.333 27.333 -39.333 50.666 -66 69.999s-53 29 -79 29c-39.333 0 -64.5 -8.16699 -75.5 -24.5zM570.001 243c61.333 0 91.999 32.667 91.999 98c0 33.333 -5.66699 58.166 -17 74.499s-33.166 24.5 -65.499 24.5s-61.833 -9.66699 -88.5 -29
s-48.667 -42.666 -66 -69.999c44 -65.333 92.333 -98 145 -98z" />
    <glyph glyph-name="integral" unicode="&#x222b;" horiz-adv-x="441" 
d="M20 -130l90.001 -0.00195312c23.333 0 40 12 50 36c10.667 24 16.667 48.667 18 74c3.33301 44.667 5 80.667 5 108v418c0 144.667 23 235.334 69 272.001c18.667 14.667 42 22 70 22s47.333 -2.16699 58 -6.5s19.667 -8.33301 27 -12s12 -5.83398 14 -6.50098v-49h-88
c-13.333 0 -24.833 -4.66699 -34.5 -14s-17 -20.666 -22 -33.999s-9.16699 -30.666 -12.5 -51.999c-4.66699 -36.667 -7 -76.667 -7 -120v-418c0 -87.333 -7.66699 -155.333 -23 -204c-17.333 -58.667 -55 -88 -113 -88c-42.667 0 -76.334 8.33301 -101.001 25v49z" />
    <glyph glyph-name="approxequal" unicode="&#x2248;" horiz-adv-x="531" 
d="M197 321c20 0 44.835 -6.16699 74.502 -18.5s53 -18.5 70 -18.5s31 1.66699 42 5s23.833 8.83301 38.5 16.5s27 13.5 37 17.5l22 -42c-6 -4 -15.667 -11.333 -29 -22l-32 -25c-23.333 -16.667 -46.833 -25 -70.5 -25s-50.334 6.33301 -80.001 19s-53.334 19 -71.001 19
s-32.834 -2 -45.501 -6s-26.667 -9.5 -42 -16.5s-28.666 -12.167 -39.999 -15.5l-21 41l44 34.5c9.33301 7 23.833 14.833 43.5 23.5s39.5 13 59.5 13zM197.002 498c20 0 44.835 -6.16699 74.502 -18.5s53 -18.5 70 -18.5s31 1.66699 42 5s23.833 8.83301 38.5 16.5
s27 13.5 37 17.5l22 -42c-6 -4 -15.667 -11.333 -29 -22l-32 -25c-23.333 -16.667 -46.833 -25 -70.5 -25s-50.334 6.33301 -80.001 19s-53.334 19 -71.001 19s-32.834 -2 -45.501 -6s-26.667 -9.5 -42 -16.5s-28.666 -12.167 -39.999 -15.5l-21 41l44 34.5
c9.33301 7 23.833 14.833 43.5 23.5s39.5 13 59.5 13z" />
    <glyph glyph-name="notequal" unicode="&#x2260;" horiz-adv-x="467" 
d="M20 212v79h147l76 125h-223v79h271l46 75h61l-46 -75h95v-79h-143l-76 -125h219v-79h-267l-52 -86h-61l52 86h-99z" />
    <glyph glyph-name="lessequal" unicode="&#x2264;" horiz-adv-x="475" 
d="M50 104v74h376v-74h-376zM50 394v80l375 162v-80l-276 -122l276 -132v-82z" />
    <glyph glyph-name="greaterequal" unicode="&#x2265;" horiz-adv-x="475" 
d="M50 104v74h376v-74h-376zM51 220v82l276 132l-276 122v80l375 -162v-80z" />
    <glyph glyph-name="lozenge" unicode="&#x25ca;" horiz-adv-x="522" 
d="M20 373l207 359h74l201 -359l-201 -373h-74zM109 373l155 -275l150 275l-150 266z" />
    <glyph glyph-name="f_f" unicode="&#xfb00;" horiz-adv-x="782" 
d="M20 457v57l99 17v89c0 54 9.33301 93.333 28 118c8 10 20.167 18.833 36.5 26.5s40.5 11.5 72.5 11.5s74 -8 126 -24v-49l-123 1c-30.667 0 -49.667 -8 -57 -24c-6 -14 -9 -34 -9 -60v-89h306v99c0 54 9.33301 93.333 28 118c8 10 20.167 18.833 36.5 26.5
s40.5 11.5 72.5 11.5s74 -8 126 -24v-49l-123 1c-30.667 0 -49.667 -8 -57 -24c-6 -14 -9 -34 -9 -60v-99h146v-74h-148v-457h-74v457h-306v-457h-74v457h-97z" />
    <glyph glyph-name="f_f_i" unicode="&#xfb03;" horiz-adv-x="972" 
d="M20 457l0.000976562 57l99 17v89c0 54 9.33301 93.333 28 118c8 10 20.167 18.833 36.5 26.5s40.5 11.5 72.5 11.5s74 -8 126 -24v-49l-123 1c-30.667 0 -49.667 -8 -57 -24c-6 -14 -9 -34 -9 -60l-2 -89h288v53c0 60 17.833 108.667 53.5 146s81.167 56 136.5 56
s120 -11.333 194 -34v-49l-171 11h-13c-32.667 0 -61.834 -9.33301 -87.501 -28s-38.5 -52.667 -38.5 -102v-53l359 -10v-521h-75v457h-286v-457h-74v457h-286v-457h-74v457h-97z" />
    <glyph glyph-name="ffl" unicode="&#xfb04;" horiz-adv-x="1077" 
d="M20 457l-0.00292969 57l99 17v89c0 54 9.33301 93.333 28 118c8 10 20.167 18.833 36.5 26.5s40.5 11.5 72.5 11.5s74 -8 126 -24v-49l-123 1c-30.667 0 -49.667 -8 -57 -24c-6 -14 -9 -34 -9 -60l-2 -89h288v53c0 59.333 13 107.5 39 144.5s67.333 55.5 124 55.5h269
v-595c0 -42 3.83301 -70.167 11.5 -84.5s22.834 -24.5 45.501 -30.5c54.667 -14 84.334 -21 89.001 -21v-53h-88c-47.333 0 -81.166 14 -101.499 42s-30.5 77 -30.5 147v525h-178c-35.333 0 -61.833 -9 -79.5 -27s-26.5 -52.333 -26.5 -103v-53h146v-74h-148v-457h-74v457
h-286v-457h-74v457h-97z" />
    <glyph glyph-name="s_t" unicode="&#xfb06;" horiz-adv-x="885" 
d="M40 352l0.00195312 48.0029c0 43.333 10.667 76.166 32 98.499s56.666 33.5 105.999 33.5h452l18 148h56v-148h155v-72h-155v-270c0 -57.333 7.66699 -91.333 23 -102c6.66699 -4.66699 27.167 -11 61.5 -19s51.833 -12 52.5 -12v-56h-78
c-48 0 -82.167 14.167 -102.5 42.5s-30.5 77.166 -30.5 146.499v270l-452 -1c-30.667 0 -49.334 -5.66699 -56.001 -17c-5.33301 -8.66699 -8 -22.667 -8 -42v-48c0 -26.667 6.33301 -43 19 -49c10.667 -5.33301 25.667 -8 45 -8h158c42 0 74.167 -11.833 96.5 -35.5
s33.5 -54.834 33.5 -93.501v-43c0 -49.333 -12 -83 -36 -101s-55.333 -27 -94 -27c-62 0 -153.333 6.33301 -274 19v55h274c0 0.666992 1.83301 0.666992 5.5 0s8.33398 0 14.001 2s11.167 4.33301 16.5 7c13.333 6.66699 20 21.667 20 45v43
c0 18.667 -4.16699 32.5 -12.5 41.5s-22.833 13.5 -43.5 13.5h-158c-48.667 0 -83.834 9.33301 -105.501 28s-32.5 53 -32.5 103z" />
    <glyph glyph-name=".null" horiz-adv-x="0" 
 />
    <glyph glyph-name="exclamdown.alt" horiz-adv-x="269" 
d="M82 651v57c0 15.333 7.66699 23 23 23h55c16 0 24 -7.66699 24 -23v-57c0 -16.667 -8 -25 -24 -25h-55c-15.333 0 -23 8.33301 -23 25zM89 0l7 535h75l7 -535h-89z" />
    <glyph glyph-name="zero.oldstyle" horiz-adv-x="643" 
d="M70 162v306.999c0 52 16.167 92 48.5 120s73.5 42 123.5 42h164c58 0 100.333 -14.667 127 -44s40 -68.666 40 -117.999v-307c0 -108 -55.667 -162 -167 -162h-164c-50 0 -91.167 13 -123.5 39s-48.5 67 -48.5 123zM144 161.999c0 -30.667 9.5 -53 28.5 -67
s42.167 -21 69.5 -21h164c62 0 93 29.333 93 88v307c0 58.667 -31 88 -93 88h-164c-33.333 0 -58 -8.16699 -74 -24.5s-24 -37.5 -24 -63.5v-307z" />
    <glyph glyph-name="one.oldstyle" horiz-adv-x="357" 
d="M272 632v-632h-74v548l-168 -54v53l168 85h74z" />
    <glyph glyph-name="two.oldstyle" horiz-adv-x="597" 
d="M41 564v54c98.667 14 185.334 21 260.001 21c14.667 0 29 -0.333008 43 -1c68 0 118.833 -16.5 152.5 -49.5s50.5 -78.833 50.5 -137.5c0 -32 -10.333 -66 -31 -102s-45.334 -68 -74.001 -96s-60.667 -55.667 -96 -83c-53.333 -40.667 -102 -72.667 -146 -96h342v-74
h-495v68c120.667 66.667 207.667 121.667 261 165c26 20.667 52.667 43.667 80 69c56 52 84 102.333 84 151c0 74 -40 111 -120 111h-9h-302z" />
    <glyph glyph-name="three.oldstyle" horiz-adv-x="614" 
d="M50 611c52 19.333 131.669 29.001 239.002 29.001c25.333 0 51.666 -0.333008 78.999 -1c53.333 -0.666992 95.166 -16.5 125.499 -47.5s45.5 -70.167 45.5 -117.5v-69c0 -73.333 -22 -118.666 -66 -135.999c44 -28 66 -76 66 -144v-59c0 -112 -59.333 -168 -178 -168
h-59.5c-15 0 -31.5 0.166992 -49.5 0.5s-30.333 0.666016 -37 0.999023s-17.5 1 -32.5 2s-26.5 2.16699 -34.5 3.5l-30 5c-21.333 3.33301 -42 8.66602 -62 15.999l1 47h298c72 0 108 31 108 93v59c0 68 -34 103.333 -102 106l-243 7v58l243 10
c69.333 3.33301 104 36.333 104 99v69c0 30.667 -10.167 53.5 -30.5 68.5s-44.833 22.5 -73.5 22.5h-311v46z" />
    <glyph glyph-name="four.oldstyle" horiz-adv-x="603" 
d="M419 165v207l37 75h37v-282h90v-59l-90 -19v-185h-74v185h-365l-34 37l321 508h88l-294 -467h284z" />
    <glyph glyph-name="five.oldstyle" horiz-adv-x="620" 
d="M283 349l97.001 -3c56.667 0 98.167 -14.833 124.5 -44.5s39.5 -70.167 39.5 -121.5v-114c0 -32 -5.5 -59.833 -16.5 -83.5s-25.5 -41.167 -43.5 -52.5c-33.333 -22.667 -68 -34 -104 -34c-67.333 0 -119 1.33301 -155 4s-85.667 9.33398 -149 20.001v55h304
c31.333 0 54.166 9 68.499 27s21.5 40 21.5 66v110c0 44.667 -13 73 -39 85c-13.333 6 -30.333 9 -51 9h-154c-22 0 -41.167 -6.33301 -57.5 -19s-24.5 -31.334 -24.5 -56.001h-66l22 435h422v-74h-354l-12 -242c18 22 60.333 33 127 33z" />
    <glyph glyph-name="six.oldstyle" horiz-adv-x="623" 
d="M65 384c0 122 16.8281 211.5 50.4951 268.5s74.167 85.5 121.5 85.5c108.667 0 209.334 -6.33301 302.001 -19v-55h-289c-21.333 0 -39.666 -9 -54.999 -27s-26.666 -41.667 -33.999 -71c-13.333 -53.333 -20.666 -106.333 -21.999 -159c119.333 14 208.5 21 267.5 21
s99.833 -13.333 122.5 -40s34 -63 34 -109v-131c0 -99.333 -53.667 -149 -161 -149h-149c-29.333 0 -54.666 5.5 -75.999 16.5s-41 30.167 -59 57.5c-35.333 55.333 -53 159 -53 311zM138.995 354c0 -82.667 5.33398 -141.334 16.001 -176.001
c5.33301 -18 11.666 -35.333 18.999 -52c16 -35.333 42.333 -53 79 -53h149c29.333 0 51.333 5.33301 66 16s22 32.334 22 65.001v125c0 50 -29.333 75 -88 75h-263z" />
    <glyph glyph-name="seven.oldstyle" horiz-adv-x="546" 
d="M30 558v74h459l27 -48l-265 -684h-88l258 658h-391z" />
    </font>
</defs>
</svg>
