<?xml version="1.0" standalone="no"?>
<!DOCTYPE svg PUBLIC "-//W3C//DTD SVG 1.1//EN" "http://www.w3.org/Graphics/SVG/1.1/DTD/svg11.dtd" >
<svg>
<metadata>
Created by FontForge 20090914 at Fri Mar  8 00:37:09 2013
 By www-data
Copyright (c) 2011 Natanael Gama (exo@ndiscovered.com), with Reserved Font Name "Exo"
</metadata>
<defs>
<font id="Exo-LightItalic" horiz-adv-x="542" >
  <font-face 
    font-family="Exo"
    font-weight="300"
    font-style="italic"
    font-stretch="normal"
    units-per-em="1000"
    panose-1="2 0 3 3 0 0 0 0 0 0"
    ascent="800"
    descent="-200"
    x-height="531"
    cap-height="732"
    bbox="-44 -273 1344 1002"
    underline-thickness="50"
    underline-position="-50"
    unicode-range="U+000D-U+FB06"
  />
<missing-glyph horiz-adv-x="758" 
d="M100 0v531h558v-531h-558zM114 22l256 244l-256 241v-485zM124 518l257 -242l254 242h-511zM127 13h507l-253 243zM392 266l252 -241v481z" />
    <glyph glyph-name="fi" unicode="fi" horiz-adv-x="569" 
d="M397 786c23.333 0 52.833 -2.83301 88.5 -8.5s66.834 -12.5 93.501 -20.5l-6 -37l-169 10h-16.5c-7 0 -16.667 -1 -29 -3s-25.5 -6.5 -39.5 -13.5s-26.667 -16.167 -38 -27.5c-24.667 -24 -40.334 -58 -47.001 -102l-8 -55l361 -9l-82 -520h-58l75 472h-307l-75 -472h-57
l74 472h-97l7 43l101 14l8 55c10 62.667 34.167 112 72.5 148s87.833 54 148.5 54z" />
    <glyph glyph-name="fl" unicode="fl" horiz-adv-x="692" 
d="M415 785l258 -0.000976562l-94 -595c-4 -21.333 -6 -40.166 -6 -56.499s1.16699 -29 3.5 -38s6.83301 -16.167 13.5 -21.5c8.66699 -6.66699 29 -13.5 61 -20.5s49 -10.5 51 -10.5l-7 -42h-67c-74.667 0 -112 42.667 -112 128c0 18 1.66699 38.333 5 61l86 538h-194
c-82.667 0 -131.667 -51.667 -147 -155l-7 -42h159l-9 -57h-160l-77 -474h-58l77 474h-99l7 41l102 16l7 42c22.667 141.333 91.667 212 207 212z" />
    <glyph glyph-name=".notdef" horiz-adv-x="758" 
d="M100 0v531h558v-531h-558zM114 22l256 244l-256 241v-485zM124 518l257 -242l254 242h-511zM127 13h507l-253 243zM392 266l252 -241v481z" />
    <glyph glyph-name=".notdef" horiz-adv-x="758" 
d="M100 0v531h558v-531h-558zM114 22l256 244l-256 241v-485zM124 518l257 -242l254 242h-511zM127 13h507l-253 243zM392 266l252 -241v481z" />
    <glyph glyph-name="uni000D" unicode="&#xd;" horiz-adv-x="1000" 
 />
    <glyph glyph-name="space" unicode=" " horiz-adv-x="244" 
 />
    <glyph glyph-name="exclam" unicode="!" horiz-adv-x="255" 
d="M117 99h41c12.667 0 18 -7 16 -21l-9 -59c-2 -12.667 -9.33301 -19 -22 -19h-41c-6 -0 -10.667 1.83301 -14 5.5s-4.33301 8.16699 -3 13.5l9 59c2 14 9.66699 21 23 21zM123 199l78 532h67l-91 -532h-54z" />
    <glyph glyph-name="quotedbl" unicode="&#x22;" horiz-adv-x="349" 
d="M156 531l12 134l11 67h58l-11 -67l-30 -134h-40zM280 531l11 134l11 67h59l-11 -67l-30 -134h-40z" />
    <glyph glyph-name="numbersign" unicode="#" horiz-adv-x="668" 
d="M56 238l12 39h166l56 178h-166l14 39h164l76 238h39l-76 -238h173l74 238h39l-74 -238h177l-14 -39h-177l-56 -179h177l-12 -39h-177l-76 -237h-39l76 237l-173 1l-75 -238h-39l76 238h-165zM272 277l172 -1l56 179h-172z" />
    <glyph glyph-name="dollar" unicode="$" horiz-adv-x="574" 
d="M87 54c124.667 -4 198.995 -6.00195 222.995 -6.00195s43.667 1.5 59 4.5s31.333 8.16699 48 15.5c35.333 16 56.333 45.333 63 88l10 68c2.66699 16 4 28.5 4 37.5s-0.333008 15.833 -1 20.5c-2.66699 32 -31.667 48 -87 48h-121c-55.333 0 -94.666 12.333 -117.999 37
c-23.333 24 -35 50.333 -35 79c0 13.333 1 29.333 3 48l10 66c11.333 66.667 35.5 112.834 72.5 138.501s87.5 38.834 151.5 39.501l14 86h44l-13 -88c26 -2 87 -8.66699 183 -20l-7 -43l-223 9h-14c-40 0 -73.167 -8.33301 -99.5 -25s-43.166 -49 -50.499 -97l-11 -66
c-1.33301 -10.667 -2 -20.334 -2 -29.001c0 -24 6.66699 -42.833 20 -56.5s41.333 -20.5 84 -20.5h121c32.667 0 59.334 -4.66699 80.001 -14s34.667 -21.666 42 -36.999c10.667 -21.333 16 -42 16 -62s-1.66699 -37 -5 -51l-11 -68
c-17.333 -109.333 -90.666 -164 -219.999 -164h-21l-13 -81h-45l14 85c-83.333 7.33301 -140.666 13.333 -171.999 18z" />
    <glyph glyph-name="percent" unicode="%" horiz-adv-x="969" 
d="M285 732h100.997c44.667 0 75.334 -9.66699 92.001 -29c12 -14 18 -34 18 -60c0 -11.333 -1 -23.333 -3 -36l-21 -133c-7.33301 -46.667 -21.166 -79.167 -41.499 -97.5s-55.5 -27.5 -105.5 -27.5h-101c-74.667 0 -112 31.333 -112 94c0 10 1 20.333 3 31l21 133
c6.66699 44.667 20.334 76.667 41.001 96s56.667 29 108 29zM163.997 474c-2 -10 -3 -20.832 -3 -32.499s4.16699 -21.834 12.5 -30.501s27.166 -13 56.499 -13h101c31.333 0 53.333 5 66 15s21.667 30.333 27 61l20 133c2.66699 11.333 4 20.666 4 27.999s-1 15 -3 23
c-4 16.667 -26 25.334 -66 26.001h-101c-32.667 0 -55.167 -5.33301 -67.5 -16s-21.166 -31 -26.499 -61zM224.997 0.000976562l554 732h54l-554 -732h-54zM738.997 384.001l101.001 0.000976562c45.333 0 76.333 -9.66699 93 -29c12 -14 18 -34.333 18 -61
c0 -10.667 -1 -22.334 -3 -35.001l-21 -133c-7.33301 -46.667 -21.333 -79.167 -42 -97.5s-56 -27.5 -106 -27.5h-101c-73.333 0 -110 31.333 -110 94c0 10 0.666992 20.333 2 31l21 133c7.33301 44.667 21.166 76.667 41.499 96s55.833 29 106.5 29zM618.998 126.002
c-1.33301 -10 -2 -20.833 -2 -32.5s4 -22 12 -31s26.667 -13.5 56 -13.5h101c31.333 0 53.5 5.16699 66.5 15.5s21.833 30.833 26.5 61.5l21 133c2 10.667 3 21.834 3 33.501s-3.66699 21.667 -11 30s-27 12.5 -59 12.5h-101c-40.667 0 -66.667 -9.66699 -78 -29
c-6 -10.667 -10.667 -26.334 -14 -47.001z" />
    <glyph glyph-name="ampersand" unicode="&#x26;" horiz-adv-x="646" 
d="M63 181c0 16.667 2.33008 33.332 6.99707 49.999c14.667 50 48.334 95 101.001 135l95 73l-49 85c-16 28 -24 54.333 -24 79s5.66699 45.334 17 62.001c24 35.333 58.333 56 103 62c30.667 3.33301 68.334 5 113.001 5s97.334 -5.66699 158.001 -17l-6 -37h-206
c-72 0 -113.667 -19.333 -125 -58c-1.33301 -4.66699 -2 -10 -2 -16c0 -18 7.33301 -39.667 22 -65l201 -347l149 130l18 -16l-74 -106l-64 -57l85 -143h-59l-66 111l-76 -67c-38 -32.667 -81.667 -49 -131 -49c-24 0 -47.667 4.66699 -71 14c-36 13.333 -64.667 37 -86 71
c-20 33.333 -30 67 -30 101zM252.997 48.998c32.667 0 63 12 91 36l85 73l-135 231l-87 -66c-60 -44.667 -90 -92.667 -90 -144c0 -24 7.66699 -47 23 -69c26 -40.667 63.667 -61 113 -61z" />
    <glyph glyph-name="quotesingle" unicode="'" horiz-adv-x="168" 
d="M130 531l12 134l11 67h58l-11 -67l-30 -134h-40z" />
    <glyph glyph-name="parenleft" unicode="(" horiz-adv-x="315" 
d="M230.5 514.5c-21.667 -57.667 -37.168 -114.002 -46.501 -169.002s-14 -96.167 -14 -123.5c0 -81.333 5.33301 -146 16 -194c18.667 -83.333 40 -147.333 64 -192l14 -26h-63c-9.33301 16 -22 46.167 -38 90.5s-27 85.833 -33 124.5c-12 79.333 -18 142.833 -18 190.5
s5 92.167 15 133.5c8.66699 54.667 23 110.334 43 167.001s40.667 106 62 148c44.667 86 82.667 149.333 114 190l20 26h67c-18 -22.667 -40.667 -55.167 -68 -97.5s-51.166 -83.166 -71.499 -122.499s-41.333 -87.833 -63 -145.5z" />
    <glyph glyph-name="parenright" unicode=")" horiz-adv-x="316" 
d="M189 172.5c21.333 58.333 36.833 114.831 46.5 169.498s14.5 95.334 14.5 122.001c0 80.667 -5.33301 145.334 -16 194.001c-18.667 84 -40 149 -64 195l-13 27h62c26.667 -51.333 48.667 -118.333 66 -201c13.333 -63.333 20 -126.666 20 -189.999
c0 -104.667 -18.667 -211 -56 -319c-29.333 -85.333 -70.666 -172 -123.999 -260c-20.667 -33.333 -37.334 -58.333 -50.001 -75l-20 -25h-68c18 21.333 40.5 52.833 67.5 94.5s50.833 82.167 71.5 121.5s41.667 88.166 63 146.499z" />
    <glyph glyph-name="asterisk" unicode="*" horiz-adv-x="454" 
d="M139 575l5 31l143 21l-5 -58zM186 412l48 135l55 -13l-76 -131zM287 482l39 49l99 -88l-21 -25zM292 719l32 12l54 -120l-57 -24zM343 565l130 78l11 -27l-110 -95z" />
    <glyph glyph-name="plus" unicode="+" horiz-adv-x="518" 
d="M100 327l9 58h174l27 174h58l-28 -174h175l-9 -58h-175l-28 -174h-57l28 174h-174z" />
    <glyph glyph-name="comma" unicode="," horiz-adv-x="235" 
d="M76 -58c16 0 25.667 8.66602 29 25.999l5 32h-10c-6 0 -10.667 1.83301 -14 5.5s-4.33301 8.83398 -3 15.501l9 57c2 14.667 10 22 24 22h38c10.667 0 16 -5.66699 16 -17v-5l-15 -98c-4.66699 -27.333 -17.334 -46 -38.001 -56c-9.33301 -4.66699 -18.166 -7 -26.499 -7
s-14.833 0.666992 -19.5 2l3 23h2z" />
    <glyph glyph-name="hyphen" unicode="-" horiz-adv-x="347" 
d="M60 261l9 58h304l-9 -58h-304z" />
    <glyph glyph-name="period" unicode="." horiz-adv-x="238" 
d="M115 99h38.999c12 0 18 -5 18 -15v-6l-10 -59c-2 -12.667 -9.66699 -19 -23 -19h-39c-6 -0 -10.667 1.83301 -14 5.5s-4.66602 8.16699 -3.99902 13.5l10 59c1.33301 14 9 21 23 21z" />
    <glyph glyph-name="slash" unicode="/" horiz-adv-x="364" 
d="M8 -72l414 842h60l-414 -842h-60z" />
    <glyph glyph-name="zero" unicode="0" horiz-adv-x="644" 
d="M357 732l153.998 -0.000976562c56.667 0 96.334 -15.667 119.001 -47c17.333 -23.333 26 -51 26 -83c0 -10 -1 -20.667 -3 -32l-65 -408c-9.33301 -57.333 -30.166 -98.666 -62.499 -123.999s-75.833 -38 -130.5 -38h-154c-50 0 -89 13 -117 39
c-21.333 20 -32 48.667 -32 86c0 11.333 1 23.666 3 36.999l65 408c8.66699 54.667 30.167 95.334 64.5 122.001s78.5 40 132.5 40zM151.998 161.999c-0.666992 -14.667 -0.999023 -27.667 -0.999023 -39s2.33301 -20.833 7 -28.5s9.66699 -14 15 -19
s12.333 -8.83301 21 -11.5c15.333 -4 34 -6 56 -6h154c73.333 0 115.666 34.667 126.999 104l65 408c1.33301 10 2 22.5 2 37.5s-5 28.833 -15 41.5c-14.667 16.667 -41.667 25 -81 25h-154c-76 0 -119.333 -34.667 -130 -104z" />
    <glyph glyph-name="one" unicode="1" horiz-adv-x="375" 
d="M134 604l7 41.001c27.333 0 51 4.16699 71 12.5s36 15.5 48 21.5s22.667 12.333 32 19c19.333 12.667 34.666 24 45.999 34h56l-114 -732h-58l105 658c-17.333 -12.667 -43.166 -24.834 -77.499 -36.501s-72.833 -17.5 -115.5 -17.5z" />
    <glyph glyph-name="two" unicode="2" horiz-adv-x="588" 
d="M566 572c0 74 -42.332 111.002 -126.999 111.002h-291l7 42c89.333 11.333 188.333 17 297 17c68 0 115.333 -21 142 -63c19.333 -30.667 29 -67.334 29 -110.001c0 -38.667 -7 -72.834 -21 -102.501s-30.5 -56.667 -49.5 -81s-39.5 -48.333 -61.5 -72
s-46.333 -47 -73 -70l-74 -62.5c-22.667 -18.667 -46.334 -37 -71.001 -55c-40.667 -29.333 -73.667 -52 -99 -68h369l-9 -58h-487l9 53c128 82 225.667 152 293 210c87.333 74.667 146.333 136 177 184c20.667 31.333 32.5 57 35.5 77s4.5 36 4.5 48z" />
    <glyph glyph-name="three" unicode="3" horiz-adv-x="589" 
d="M335 51c34 0 64.3311 9.00293 90.998 27.0029s43.334 46.333 50.001 85l9 59c2 11.333 3 21.833 3 31.5s-1.66699 20.5 -5 32.5s-10.666 21.667 -21.999 29c-19.333 12 -45 18.667 -77 20l-232 7l8 43l234 9c36.667 1.33301 67.5 11.166 92.5 29.499
s40.167 44.166 45.5 77.499l10 69c1.33301 9.33301 2 17.666 2 24.999c0 54 -34.667 81 -104 81h-302l5 36c37.333 10.667 76.333 17.167 117 19.5s77.334 3.5 110.001 3.5s61.334 -0.333008 86.001 -1c51.333 -0.666992 90 -16.667 116 -48c20 -23.333 30 -52 30 -86
c0 -10 -0.666992 -20.333 -2 -31l-11 -69c-6.66699 -40 -20.334 -71.333 -41.001 -94s-42.334 -36.667 -65.001 -42c29.333 -12.667 49 -37 59 -73c3.33301 -12 5 -24.167 5 -36.5s-0.666992 -23.833 -2 -34.5l-10 -59c-17.333 -112 -85.333 -168 -204 -168
c-94 0 -160.833 1.83301 -200.5 5.5s-70.167 9.16699 -91.5 16.5l6 36h290z" />
    <glyph glyph-name="four" unicode="4" horiz-adv-x="592" 
d="M55 228l396 504h71l-373 -477h310l34 217l42 75h29l-46 -292h90l-7 -44l-92 -16l-31 -193h-59l30 193h-373z" />
    <glyph glyph-name="five" unicode="5" horiz-adv-x="610" 
d="M360 443l90 -2.00195c49.333 0 86.333 -15.667 111 -47c18.667 -24 28 -53.333 28 -88c0 -11.333 -1 -22.666 -3 -33.999l-16 -107c-18 -112 -81.333 -168.667 -190 -170h-64c-81.333 0 -160.333 6.66699 -237 20l7 41h301c33.333 0 61.333 10.833 84 32.5
s36.334 47.834 41.001 78.501l17 103c2 11.333 3 22 3 32c0 54.667 -29.667 82 -89 82h-152c-26 0 -50.167 -8.5 -72.5 -25.5s-35.833 -39.167 -40.5 -66.5h-54l92 440h423l-10 -58h-368l-57 -275c23.333 26.667 57.666 41 102.999 43c22 0.666992 39.667 1 53 1z" />
    <glyph glyph-name="six" unicode="6" horiz-adv-x="625" 
d="M185 403c102.667 11.333 193.331 16.999 271.998 16.999c50 0 85.667 -11 107 -33s32 -46 32 -72c0 -11.333 -0.666992 -25.666 -2 -42.999l-19 -124c-8.66699 -53.333 -28.334 -91.333 -59.001 -114s-71 -34 -121 -34h-140c-70.667 0 -115.667 38 -135 114
c-7.33301 27.333 -11 63.833 -11 109.5s5 99.667 15 162s23.5 117 40.5 164s36.167 83.833 57.5 110.5c40.667 52 84 78 130 78c120 0 216.333 -5.33301 289 -16l-6 -42h-282c-23.333 0 -45.166 -9.66699 -65.499 -29s-37.166 -44.333 -50.499 -75
c-25.333 -58 -42.666 -115.667 -51.999 -173zM164.997 218.999c0 -109.333 31.667 -164.001 95 -164.001h139c69.333 0 109 32 119 96l19 119c1.33301 10.667 2 23.334 2 38.001s-6 27.5 -18 38.5s-36.667 16.5 -74 16.5h-269c-8.66699 -56 -13 -104 -13 -144z" />
    <glyph glyph-name="seven" unicode="7" horiz-adv-x="544" 
d="M134 674l9 58h452l17 -40l-365 -692h-68l358 674h-403z" />
    <glyph glyph-name="eight" unicode="8" horiz-adv-x="635" 
d="M525 381c43.333 -14 64.999 -48.002 64.999 -102.002c0 -8.66699 -0.666992 -17.667 -2 -27l-15 -98c-12 -72.667 -44 -119 -96 -139c-24.667 -10 -54.667 -15 -90 -15h-135c-32 0 -59 4.33301 -81 13s-38 18.667 -48 30s-17 24.666 -21 39.999s-6 27.833 -6 37.5
s1 20.834 3 33.501l15 98c4 24 12.333 44.333 25 61c23.333 32 53 49.333 89 52c-22.667 6 -40.5 17 -53.5 33s-20 30.5 -21 43.5s-1.5 24 -1.5 33s0.333008 17.833 1 26.5l11 65c10 64 31.333 108.5 64 133.5s78.334 37.5 137.001 37.5h136c52 0 90 -15 114 -45
c17.333 -22 26 -51.333 26 -88c0 -13.333 -1 -27.333 -3 -42l-11 -65c-4 -33.333 -19.667 -62.666 -47 -87.999c-16 -15.333 -34.333 -24.666 -55 -27.999zM153.999 128.998c0 -22 7.83301 -39.5 23.5 -52.5s43.834 -19.5 84.501 -19.5h132c28 0 53.667 7.5 77 22.5
s37.666 38.833 42.999 71.5l17 105c1.33301 8 2 15.333 2 22c0 21.333 -7.66699 37.833 -23 49.5s-37 17.5 -65 17.5h-150c-28 0 -54.167 -7 -78.5 -21s-38.833 -36.667 -43.5 -68l-17 -105c-1.33301 -8 -2 -15.333 -2 -22zM209.999 493.998
c-1.33301 -7.33301 -2 -15 -2 -23s1.83301 -17.333 5.5 -28s10.834 -19 21.501 -25c19.333 -10.667 42 -16 68 -16h149c36.667 0 64.334 9.16699 83.001 27.5s30 39.833 34 64.5l11 68c2 14.667 3 30.667 3 48c0 46 -30.667 69 -92 69h-135
c-44.667 0 -76.834 -9 -96.501 -27s-32.834 -48 -39.501 -90z" />
    <glyph glyph-name="nine" unicode="9" horiz-adv-x="625" 
d="M543 333c-102.667 -11.333 -194.332 -17 -274.999 -17c-50 0 -85.333 11 -106 33s-31 46.333 -31 73c0 10 0.666992 24.333 2 43l20 125c15.333 97.333 76.666 146 183.999 146h137c96.667 0 145 -73.667 145 -221c0 -48 -4.5 -100.333 -13.5 -157
s-20 -105.334 -33 -146.001s-27 -74.167 -42 -100.5s-31.5 -48.166 -49.5 -65.499c-32.667 -32 -67.667 -48 -105 -48c-132.667 0 -229.334 5.33301 -290.001 16l7 42h281c38.667 0 73.334 26.667 104.001 80c29.333 52 51 117.667 65 197zM188.002 437
c0 -21.333 6.5 -37.334 19.5 -48.001s37.833 -16 74.5 -16h268c8.66699 56.667 13 105.334 13 146.001c0 108 -31.333 162 -94 162h-140c-70.667 0 -111 -32 -121 -96l-18 -121c-1.33301 -10 -2 -19 -2 -27z" />
    <glyph glyph-name="colon" unicode=":" horiz-adv-x="240" 
d="M117 99h38.998c12 0 18 -5 18 -15c0 -2 -0.333008 -4 -1 -6l-9 -59c-2 -12.667 -9.66699 -19 -23 -19h-40c-5.33301 -0 -9.66602 1.83301 -12.999 5.5s-4.66602 8.16699 -3.99902 13.5l9 59c2 14 10 21 24 21zM183.998 531h39c12 0 18 -5 18 -15
c0 -1.33301 -0.333008 -3 -1 -5l-9 -59c-2 -12.667 -10 -19 -24 -19h-39c-6 0 -10.5 1.66699 -13.5 5s-4.16699 8 -3.5 14l9 59c2 13.333 10 20 24 20z" />
    <glyph glyph-name="semicolon" unicode=";" horiz-adv-x="239" 
d="M76 -58c16 0 25.6641 8.66797 28.9971 26.001l5 32h-10c-5.33301 0 -9.66602 2.16699 -12.999 6.5s-4.66602 9.16602 -3.99902 14.499l9 57c0.666992 6 3.33398 11.167 8.00098 15.5s10 6.5 16 6.5h38c10.667 0 16 -5.66699 16 -17v-5l-15 -98
c-4.66699 -27.333 -17.334 -46 -38.001 -56c-9.33301 -4.66699 -18.166 -7 -26.499 -7s-14.833 0.666992 -19.5 2l3 23h2zM184.997 532.001h38.999c12 0 18 -5 18 -15v-6l-10 -59c-2 -12.667 -9.66699 -19 -23 -19h-39c-6 0 -10.667 1.83301 -14 5.5
s-4.66602 8.16699 -3.99902 13.5l10 59c2 14 9.66699 21 23 21z" />
    <glyph glyph-name="less" unicode="&#x3c;" horiz-adv-x="473" 
d="M99 324l10 60l392 172l-10 -62l-321 -143l274 -153l-9 -58z" />
    <glyph glyph-name="equal" unicode="=" horiz-adv-x="465" 
d="M53 212l10 58h427l-10 -58h-427zM88 438l10 57h427l-10 -57h-427z" />
    <glyph glyph-name="greater" unicode="&#x3e;" horiz-adv-x="474" 
d="M72 140l10 64l327 151l-281 147l10 54l337 -172l-9 -60z" />
    <glyph glyph-name="question" unicode="?" horiz-adv-x="540" 
d="M285 296l-16 -101.003h-59l23 149c28.667 -0.666992 53.667 -1 75 -1s39.333 0.333008 54 1c36.667 0.666992 67.834 9.83398 93.501 27.501s41.5 44.834 47.5 81.501l16 101c2 12.667 3 24.334 3 35.001c0 29.333 -7 51 -21 65c-20 20 -57.333 30 -112 30h-264l7 38
c94 12 174 18 240 18c11.333 0 19.666 -0.166992 24.999 -0.5l8 -0.5c67.333 0 115 -17 143 -51c20.667 -25.333 31 -57 31 -95c0 -12.667 -1 -25.667 -3 -39l-16 -101c-7.33301 -47.333 -23.333 -84 -48 -110s-56 -42 -94 -48c-18 -2.66699 -38 -4 -60 -4
s-46.333 1.66699 -73 5zM206 98.9971h39c12 0 18 -5 18 -15v-6l-9 -59c-2.66699 -12.667 -10.667 -19 -24 -19h-39c-6 0 -10.667 1.83301 -14 5.5s-4.33301 8.16699 -3 13.5l9 59c2 14 9.66699 21 23 21z" />
    <glyph glyph-name="at" unicode="@" horiz-adv-x="878" 
d="M350 699l375.009 -0.000976562c54.667 0 93.667 -15.333 117 -46c17.333 -22.667 26 -52.334 26 -89.001c0 -13.333 -1 -27.666 -3 -42.999l-53 -354c-8 -53.333 -24.667 -93 -50 -119c-10.667 -12 -26.334 -22.5 -47.001 -31.5s-44.667 -13.5 -72 -13.5h-46l-15 60
c-26.667 -29.333 -66.334 -49.666 -119.001 -60.999c-18.667 -4 -38.334 -6 -59.001 -6c-58.667 0 -101.334 19.667 -128.001 59c-18 26 -27 65 -27 117c0 30 3.16699 65.333 9.5 106s15.666 77.167 27.999 109.5s25.666 58 39.999 77s30.5 34.833 48.5 47.5
c32 21.333 68.167 32 108.5 32s80.666 -4.66699 120.999 -14s72.166 -25.333 95.499 -48l-62 -422c49.333 0 82.333 16.333 99 49c8 15.333 13.667 34.666 17 57.999l54 354c7.33301 52.667 1.66602 86.667 -17.001 102c-14.667 12 -38 18 -70 18h-379
c-49.333 0 -84.666 -14.333 -105.999 -43c-18 -22.667 -29.333 -48.334 -34 -77.001l-81 -512c-1.33301 -11.333 -2 -25.666 -2 -42.999s5.66699 -34.666 17 -51.999c16 -24 44.333 -36 85 -36h385l-6 -36c-71.333 -14 -168.333 -21 -291 -21h-98
c-51.333 0 -91 17.667 -119 53c-20.667 27.333 -31 60 -31 98c0 12 1 24.333 3 37l81 512c19.333 118.667 87.666 178 204.999 178zM313.009 253.999c-3.33301 -34.667 -5 -59 -5 -73v-27c0.666992 -26 5.66699 -46.333 15 -61s20.666 -25 33.999 -31s32 -9 56 -9
c62.667 0 120.667 20.333 174 61l53 349c-43.333 16 -94.666 24 -153.999 24h-9c-90 -1.33301 -144.667 -79 -164 -233z" />
    <glyph glyph-name="A" unicode="A" horiz-adv-x="654" 
d="M45 0l387 732h60l143 -732h-58l-43 220h-309l-116 -220h-64zM256 278h267l-71 377z" />
    <glyph glyph-name="B" unicode="B" horiz-adv-x="594" 
d="M469 732c66 0 112.666 -19.666 139.999 -58.999c16 -22.667 24 -54.334 24 -95.001c0 -10.667 -1 -21.667 -3 -33c-6 -46 -21.167 -83 -45.5 -111s-52.833 -45.667 -85.5 -53c22 -4 41.333 -20.333 58 -49s25 -60 25 -94c0 -12 -1 -24.667 -3 -38
c-17.333 -133.333 -92.666 -200 -225.999 -200h-273l116 732h273zM523.999 236.001c0 28.667 -7.33301 54 -22 76c-20 28.667 -50.333 43 -91 43h-2h-215l-46 -297h214c90.667 0 144 49 160 147c1.33301 10.667 2 21 2 31zM418.999 412.001c40.667 0 74.5 11.667 101.5 35
s44.167 56.333 51.5 99c2.66699 15.333 4 29 4 41c0 27.333 -6.66699 47.333 -20 60c-19.333 18 -51 27 -95 27h-216l-41 -262h215z" />
    <glyph glyph-name="C" unicode="C" horiz-adv-x="573" 
d="M327 729c26.667 7.33301 62.334 11.001 107.001 11.001s115.667 -9.33301 213 -28l-7 -44c-74 10 -144.333 15 -211 15c-40.667 0 -70.334 -3.16699 -89.001 -9.5s-33.667 -13.833 -45 -22.5s-23.333 -20.834 -36 -36.501s-24 -34.5 -34 -56.5
c-22 -49.333 -39.333 -113.333 -52 -192c-6.66699 -41.333 -10 -81.5 -10 -120.5s6 -74.5 18 -106.5c21.333 -55.333 63 -84.333 125 -87c8 -0.666992 27 -1 57 -1s91 3.33301 183 10l-6 -44c-62 -15.333 -141.333 -23 -238 -23c-36.667 0 -68 7.33301 -94 22
c-68.667 37.333 -103 115.666 -103 234.999c0 65.333 10.667 141.333 32 228c18 72.667 40.667 127.334 68 164.001c33.333 44 74 72.667 122 86z" />
    <glyph glyph-name="D" unicode="D" horiz-adv-x="664" 
d="M462 732c36 0 67.5 -6 94.5 -18s48.167 -28.667 63.5 -50c32 -44 49.333 -93.667 52 -149c1.33301 -16 2 -30.667 2 -44c0 -37.333 -3.33301 -74.333 -10 -111c-42.667 -240 -148 -360 -316 -360h-268l116 731c0 0.666992 88.667 1 266 1zM617 477
c0 132 -55 198.002 -165 198.002h-208l-97 -615h209c81.333 0 146 44.333 194 133c27.333 49.333 45.333 100.666 54 153.999s13 96.666 13 129.999z" />
    <glyph glyph-name="E" unicode="E" horiz-adv-x="565" 
d="M311 732h10l308 -14l-7 -43h-310c-46 0 -72.667 -24.333 -80 -73l-34 -209l338 -8l-7 -44l-340 -9l-33 -209c-1.33301 -7.33301 -2 -14.166 -2 -20.499s1 -13.333 3 -21s7.33301 -13.5 16 -17.5c12 -6 29 -9 51 -9h300l-7 -43l-303 -15h-10
c-33.333 0 -59.833 8.5 -79.5 25.5s-29.5 40.833 -29.5 71.5c0 9.33301 1 19.666 3 30.999l76 479c14 85.333 59.667 128 137 128z" />
    <glyph glyph-name="F" unicode="F" horiz-adv-x="563" 
d="M312 732l10 -0.000976562l308 -14l-7 -44h-311c-25.333 0 -44 -6.16699 -56 -18.5s-19.667 -30.166 -23 -53.499l-33 -209l337 -8l-7 -44l-340 -9l-52 -332h-58l95 601c14 87.333 59.667 131 137 131z" />
    <glyph glyph-name="G" unicode="G" horiz-adv-x="619" 
d="M168 236c0 -123.333 45.6611 -184.999 136.994 -184.999h18.5c11.667 0 35 4.5 70 13.5s64.5 17.833 88.5 26.5l35 14l38 225h-184l7 39c52 13.333 110.667 20 176 20c20.667 0 43 -1 67 -3l-61 -386h-42l-7 56c-18.667 -14 -49.167 -27.833 -91.5 -41.5
s-82.166 -20.5 -119.499 -20.5s-69.166 7.33301 -95.499 22s-46.5 33.667 -60.5 57c-24 42 -36 98.333 -36 169c0 73.333 12.333 157.666 37 252.999c21.333 82 51.333 141.667 90 179c44 43.333 103.333 65 178 65h20.5c12.333 0 42 -2.83301 89 -8.5
s89.167 -12.167 126.5 -19.5l-6 -46c-22 3.33301 -59.667 7 -113 11c-57.333 4 -97.666 6 -120.999 6s-43.166 -2 -59.499 -6s-33.666 -12.667 -51.999 -26s-34.5 -31 -48.5 -53c-31.333 -51.333 -54.666 -128.333 -69.999 -231c-7.33301 -48.667 -11 -92 -11 -130z" />
    <glyph glyph-name="H" unicode="H" horiz-adv-x="639" 
d="M85 0l116 732h57l-55 -349h379l56 349h58l-116 -732h-58l52 325h-380l-52 -325h-57z" />
    <glyph glyph-name="I" unicode="I" horiz-adv-x="214" 
d="M90 0l116 732h58l-116 -732h-58z" />
    <glyph glyph-name="J" unicode="J" horiz-adv-x="346" 
d="M49 62c36.667 -10.667 64.167 -16 82.5 -16s32.833 1.83301 43.5 5.5s22 9.5 34 17.5c24.667 16 41 48 49 96l90 567h57l-90 -567c-11.333 -74.667 -36.333 -123.667 -75 -147c-26 -16 -59 -24 -99 -24c-44 0 -78.333 9 -103 27z" />
    <glyph glyph-name="K" unicode="K" horiz-adv-x="557" 
d="M80 0l116 732h58l-54 -336h109l281 336h72l-304 -368l188 -364h-69l-173 338h-112l-54 -338h-58z" />
    <glyph glyph-name="L" unicode="L" horiz-adv-x="538" 
d="M156 126c-0.666992 -7.33301 -1 -14.167 -1 -20.5s1 -13.333 3 -21s7.33301 -13.5 16 -17.5c12.667 -6 29.667 -9 51 -9h296l-9 -58h-295c-36.667 -0 -66.667 8.33301 -90 25c-20 14.667 -30 38.667 -30 72c0 9.33301 0.666992 19 2 29l97 606h57z" />
    <glyph glyph-name="M" unicode="M" horiz-adv-x="791" 
d="M71 0l175 732h75l103 -636l298 636h81l-51 -732h-58l46 633l-298 -633h-60l-101 630l-152 -630h-58z" />
    <glyph glyph-name="N" unicode="N" horiz-adv-x="654" 
d="M80 0l116 732h56l296 -625l100 625h57l-116 -732h-55l-297 626l-99 -626h-58z" />
    <glyph glyph-name="O" unicode="O" horiz-adv-x="672" 
d="M385 735c17.333 1.33301 38.8311 1.99609 64.498 1.99609s48.334 -1.16699 68.001 -3.5s39.334 -6.66602 59.001 -12.999s35.834 -15.166 48.501 -26.499c30 -27.333 48.667 -65.333 56 -114c2.66699 -20 4 -38.667 4 -56c0 -98 -12.667 -193.667 -38 -287
c-19.333 -72 -43 -124.333 -71 -157c-29.333 -34.667 -63 -57.667 -101 -69c-35.333 -10 -73 -15 -113 -15s-69.5 1 -88.5 3s-38.5 6 -58.5 12s-36.333 14.333 -49 25c-31.333 26 -50.666 62.333 -57.999 109c-3.33301 20.667 -5 39.5 -5 56.5s0.333008 36.5 1 58.5
s4.5 55.333 11.5 100s14.667 84 23 118s17.666 63.5 27.999 88.5s21 46.833 32 65.5s23.833 34.334 38.5 47.001s29 22.834 43 30.501s30.667 13.5 50 17.5s37.666 6.66699 54.999 8zM200.498 492.996c-9.66699 -36.667 -18.833 -82.3301 -27.5 -136.997s-13 -95 -13 -121
s0.5 -46.833 1.5 -62.5s4.83301 -31 11.5 -46s14.667 -27.333 24 -37s21.666 -17.167 36.999 -22.5c27.333 -8.66699 60.833 -13 100.5 -13s70.834 2.16699 93.501 6.5s44.5 12.666 65.5 24.999s38.5 30.166 52.5 53.499c30 48 53 122 69 222
c9.33301 59.333 14 112.333 14 159c0 36 -6.66699 69.333 -20 100c-8 18 -24.333 33 -49 45c-14.667 7.33301 -33.167 11.666 -55.5 12.999s-45 2 -68 2s-42.167 -0.833008 -57.5 -2.5s-33.5 -5.5 -54.5 -11.5s-37.5 -15.667 -49.5 -29s-25 -31.5 -39 -54.5
s-25.833 -52.833 -35.5 -89.5z" />
    <glyph glyph-name="P" unicode="P" horiz-adv-x="591" 
d="M487 732c44 0 80.666 -13.332 109.999 -39.999c24.667 -23.333 37 -61.333 37 -114c0 -44.667 -5.66699 -84.167 -17 -118.5s-21 -59 -29 -74s-18.333 -27.833 -31 -38.5s-23.667 -18.667 -33 -24s-21.333 -9.33301 -36 -12c-18.667 -3.33301 -39.667 -5 -63 -5
s-68.666 2.16699 -135.999 6.5s-102.333 7.16602 -105 8.49902l-52 -321h-57l116 732h296zM427.999 364.001c58.667 0 99.001 25.3379 121.001 76.0049c9.33301 22 16.166 45.167 20.499 69.5s6.5 40.666 6.5 48.999s-0.5 17.166 -1.5 26.499s-2.33301 19.166 -4 29.499
s-5.5 19.166 -11.5 26.499s-11.5 13.166 -16.5 17.499s-11.833 7.5 -20.5 9.5c-13.333 4 -28 6 -44 6h-239l-49 -310h238z" />
    <glyph glyph-name="Q" unicode="Q" horiz-adv-x="677" 
d="M389 735c17.333 1.33301 38.8311 1.99512 64.498 1.99512s48.334 -1.16699 68.001 -3.5s39.334 -6.66602 59.001 -12.999s35.834 -15.166 48.501 -26.499c30 -27.333 48.667 -65.333 56 -114c2.66699 -20 4 -38.667 4 -56c0 -104 -14 -205.333 -42 -304
c-20 -70 -49.333 -124.667 -88 -164c-30 -29.333 -73.667 -47.666 -131 -54.999c-22.667 -3.33301 -48.667 -5 -78 -5s-53.5 1 -72.5 3s-38.5 6 -58.5 12s-36.333 14.333 -49 25c-31.333 26 -50.666 62.333 -57.999 109c-3.33301 20.667 -5 39.5 -5 56.5
s0.333008 36.5 1 58.5s4.5 55.333 11.5 100s14.667 84 23 118s17.666 63.5 27.999 88.5s21 46.833 32 65.5s23.833 34.334 38.5 47.001s29 22.834 43 30.501s30.667 13.5 50 17.5s37.666 6.66699 54.999 8zM204.498 492.995
c-9.66699 -36.667 -18.833 -82.3291 -27.5 -136.996s-13 -95 -13 -121s0.5 -46.833 1.5 -62.5s4.83301 -31 11.5 -46s14.667 -27.333 24 -37s21.666 -17.167 36.999 -22.5c27.333 -9.33301 60.833 -13.833 100.5 -13.5s70.834 2.66602 93.501 6.99902
s44.5 12.666 65.5 24.999s38.5 30.166 52.5 53.499c30 48 53 122 69 222c9.33301 59.333 14 112.333 14 159c0 36 -6.66699 69.333 -20 100c-8 18 -24.333 33 -49 45c-14.667 7.33301 -33.167 11.666 -55.5 12.999s-45 2 -68 2s-42.167 -0.833008 -57.5 -2.5
s-33.5 -5.5 -54.5 -11.5s-37.5 -15.667 -49.5 -29s-25 -31.5 -39 -54.5s-25.833 -52.833 -35.5 -89.5zM446.999 -80c21.333 0 44.666 4.33301 69.999 13l-10 -62c-16.667 -6.66699 -30.5 -10 -41.5 -10s-22.833 0.333008 -35.5 1s-28.667 4.16699 -48 10.5
s-35.666 17.833 -48.999 34.5s-20.333 36.667 -21 60h40c23.333 -31.333 55 -47 95 -47z" />
    <glyph glyph-name="R" unicode="R" horiz-adv-x="610" 
d="M491 732c45.333 0 81.001 -14.332 107.001 -42.999c22.667 -24 34 -63 34 -117c0 -56 -7 -101.5 -21 -136.5s-26.833 -59.333 -38.5 -73s-25.667 -24.834 -42 -33.501s-29.333 -14 -39 -16s-20.5 -3.33301 -32.5 -4l107 -309h-63l-102 304c-9.33301 0 -47.833 2 -115.5 6
s-101.834 6 -102.501 6l-51 -316h-57l116 732h300zM429.001 364.001c82 0 129 51.667 141 155c2 33.333 3 56 3 68s-2 23.5 -6 34.5s-8.33301 20 -13 27s-11 12.167 -19 15.5c-14 6 -31.667 9 -53 9h-242l-49 -309h238z" />
    <glyph glyph-name="S" unicode="S" horiz-adv-x="569" 
d="M329 50c95.333 0 148.331 35.332 158.998 105.999l11 68c1.33301 12.667 2 23.667 2 33s-0.333008 17.333 -1 24c-4.66699 32.667 -33.334 49 -86.001 49h-130c-60 0 -101.333 12 -124 36c-20 22 -30 47 -30 75c0 7.33301 1.33301 25.333 4 54l10 66c12 74 39 123 81 147
c34.667 20 78.334 30 131.001 30c40 0 88.333 -3.16699 145 -9.5s91.334 -10.5 104.001 -12.5l-7 -44l-239 9h-15c-39.333 0 -71 -7.83301 -95 -23.5s-39.667 -48.167 -47 -97.5l-11 -66c-4 -28 -4.33301 -47 -1 -57s6.16602 -17.667 8.49902 -23s6.5 -9.66602 12.5 -12.999
s11.333 -5.83301 16 -7.5s11.334 -3.16699 20.001 -4.5c12.667 -0.666992 28 -1 46 -1h130c30.667 0 56.167 -4.83301 76.5 -14.5s34.5 -22.167 42.5 -37.5c12 -23.333 18 -45 18 -65s-1.33301 -36.333 -4 -49l-11 -68c-7.33301 -48.667 -23.666 -84.667 -48.999 -108
c-26.667 -24 -51.667 -38.333 -75 -43c-35.333 -7.33301 -69 -11 -101 -11s-74.833 2.5 -128.5 7.5s-91.167 9.5 -112.5 13.5l7 45c46.667 -5.33301 127.667 -8 243 -8z" />
    <glyph glyph-name="T" unicode="T" horiz-adv-x="596" 
d="M139 674l9 58h518l-9 -58h-233l-107 -674h-57l106 674h-227z" />
    <glyph glyph-name="U" unicode="U" horiz-adv-x="664" 
d="M186 308c-6 -42 -9 -76.1641 -9 -102.497s2.33301 -48.333 7 -66s11.167 -32.334 19.5 -44.001s20.166 -20.834 35.499 -27.501c25.333 -10 57.5 -15 96.5 -15s70.5 3.33301 94.5 10s46.667 19 68 37c40.667 34.667 69.334 104 86.001 208l67 424h58l-67 -424
c-8.66699 -53.333 -19.667 -98.333 -33 -135s-31.333 -69 -54 -97c-44.667 -54 -116.667 -81 -216 -81c-73.333 0 -127 14 -161 42c-39.333 33.333 -59 88.666 -59 165.999c0 31.333 3 66.333 9 105l67 424h58z" />
    <glyph glyph-name="V" unicode="V" horiz-adv-x="669" 
d="M150 732h61l124 -644l339 644h66l-387 -732h-60z" />
    <glyph glyph-name="W" unicode="W" horiz-adv-x="994" 
d="M150 732h58l125 -643l335 643h65l-137 -268l72 -379l335 647h63l-381 -732h-60l-73 381l-199 -381h-60z" />
    <glyph glyph-name="X" unicode="X" horiz-adv-x="581" 
d="M38 0l276 364l-163 368h61l140 -317l241 317h70l-284 -374l158 -358h-61l-136 306l-232 -306h-70z" />
    <glyph glyph-name="Y" unicode="Y" horiz-adv-x="629" 
d="M150 732h61l137 -400l284 400h68l-331 -472l-41 -260h-58l41 260z" />
    <glyph glyph-name="Z" unicode="Z" horiz-adv-x="545" 
d="M35 0l9 58l505 616h-407l9 58h483l-9 -58l-505 -616h407l-9 -58h-483z" />
    <glyph glyph-name="bracketleft" unicode="[" horiz-adv-x="302" 
d="M353 862l69.999 0.000976562l-9 -58h-70c-25.333 0 -46 -7.66699 -62 -23s-27 -41.666 -33 -78.999l-114 -720c-2.66699 -18.667 -4 -35.834 -4 -51.501s2.33301 -28.167 7 -37.5c8.66699 -17.333 28 -26 58 -26h70l-10 -57h-70c-22.667 0 -42 4 -58 12
c-36.667 19.333 -55 57.333 -55 114c0 13.333 1.33301 28.666 4 45.999l114 720c12.667 78.667 42 127.667 88 147c20.667 8.66699 45.334 13 74.001 13z" />
    <glyph glyph-name="backslash" unicode="\" horiz-adv-x="404" 
d="M141 770h54l148 -842h-54z" />
    <glyph glyph-name="bracketright" unicode="]" horiz-adv-x="304" 
d="M66 -133c26.667 0 47.832 8.33301 63.499 25s26.167 42.667 31.5 78l114 720c3.33301 18.667 5 36 5 52s-2.66699 28.667 -8 38c-9.33301 16 -28.333 24 -57 24h-70l9 58h70c23.333 0 43 -4.33301 59 -13s27.667 -19 35 -31c12.667 -20.667 19 -47.667 19 -81
c0 -13.333 -1.33301 -29 -4 -47l-114 -720c-7.33301 -45.333 -20.666 -82 -39.999 -110c-23.333 -33.333 -64 -50 -122 -50h-70l9 57h70z" />
    <glyph glyph-name="asciicircum" unicode="^" horiz-adv-x="403" 
d="M134 531l143 131h54l88 -131h-51l-66 92l-106 -92h-62z" />
    <glyph glyph-name="underscore" unicode="_" horiz-adv-x="664" 
d="M19 -1l9 57h624l-9 -57h-624z" />
    <glyph glyph-name="grave" unicode="`" horiz-adv-x="242" 
d="M125 664h67l104 -133h-51z" />
    <glyph glyph-name="a" unicode="a" 
d="M256 531c14.667 4 29.666 6.99414 44.999 8.99414s33.5 3 54.5 3s53.333 -4.83301 97 -14.5s77.5 -26.167 101.5 -49.5l-70 -479h-40l-7 60c-22.667 -14.667 -52.167 -29.5 -88.5 -44.5s-67.833 -22.5 -94.5 -22.5s-48 1.5 -64 4.5s-31 8.5 -45 16.5
c-27.333 14 -46.666 42 -57.999 84c-5.33301 18.667 -8 35.334 -8 50.001s0.166992 30.334 0.5 47.001s4 45.334 11 86.001s16.667 76.834 29 108.501s25.333 56.334 39 74.001s29.667 32.334 48 44.001s34.833 19.5 49.5 23.5zM170.999 364.494
c-10.667 -30.333 -19 -64.332 -25 -101.999s-9 -70.167 -9 -97.5c0 -76.667 34.667 -115 104 -115c46.667 0 91 8 133 24c14 5.33301 36 14.666 66 27.999l54 358c-54 18 -101.667 27 -143 27c-36 0 -64.833 -4.83301 -86.5 -14.5s-40 -22.5 -55 -38.5
s-27.833 -39.167 -38.5 -69.5z" />
    <glyph glyph-name="b" unicode="b" horiz-adv-x="551" 
d="M394 539c98.667 0 148.003 -59.332 148.003 -177.999c0 -52.667 -8.33301 -111.334 -25 -176.001c-14.667 -58.667 -36.334 -104 -65.001 -136c-14.667 -16.667 -33.334 -30 -56.001 -40s-47.334 -15 -74.001 -15c-34 0 -72 7.83301 -114 23.5s-69.333 29.5 -82 41.5
l-26 -59h-40l124 785h56l-46 -286c44 16.667 84.5 27.5 121.5 32.5s63.167 7.5 78.5 7.5zM321.003 52.001c39.333 0 72.166 17.667 98.499 53s44.833 88 55.5 158c5.33301 35.333 8 67.333 8 96s-3.33301 52 -10 70c-13.333 35.333 -41.666 53 -84.999 53
c-60 0 -126.333 -9.33301 -199 -28l-56 -354c69.333 -32 132 -48 188 -48z" />
    <glyph glyph-name="c" unicode="c" horiz-adv-x="494" 
d="M137 159c0 -72 31 -108.002 93 -108.002c54.667 0 118.334 3.66699 191.001 11l36 3l-6 -42c-70 -19.333 -142.667 -29 -218 -29h-6c-98 0.666992 -147 59.334 -147 176.001c0 29.333 3.5 65 10.5 107s16.5 79.833 28.5 113.5s24.333 60 37 79s27.834 33.667 45.501 44
s34.167 16.833 49.5 19.5s34 4 56 4c53.333 0 124.666 -9 213.999 -27l-7 -41c-84.667 7.33301 -145.834 11 -183.501 11s-61.667 -1.16699 -72 -3.5s-21.5 -7.5 -33.5 -15.5s-22.333 -19.667 -31 -35c-19.333 -35.333 -35.333 -90 -48 -164
c-6 -41.333 -9 -75.666 -9 -102.999z" />
    <glyph glyph-name="d" unicode="d" horiz-adv-x="541" 
d="M232 523.5c23.333 10.333 46.167 15.501 68.5 15.501s44.5 -1.33301 66.5 -4c51.333 -7.33301 96 -19.333 134 -36l46 286h55l-124 -785h-40l-7 59c-18 -12.667 -48 -26.667 -90 -42s-77.5 -23 -106.5 -23s-53.5 5.66699 -73.5 17c-36 20 -59.667 55.333 -71 106
c-4.66699 24 -7 48.167 -7 72.5s2.16699 50.833 6.5 79.5s9.83301 55.167 16.5 79.5s15.834 48.833 27.501 73.5s25.167 45.167 40.5 61.5s34.666 29.666 57.999 39.999zM148.001 274.001c-5.33301 -35.333 -7.99902 -62.332 -7.99902 -80.999c0 -56 11.667 -95.333 35 -118
c16 -15.333 36.333 -23 61 -23s50 2.66699 76 8c36 7.33301 78 20.666 126 39.999l56 354c-67.333 18.667 -131 28 -191 28c-80.667 0 -132.334 -69.333 -155.001 -208z" />
    <glyph glyph-name="e" unicode="e" horiz-adv-x="528" 
d="M289 537c18 2.66699 40.667 4.00098 68 4.00098s53 -2.66699 77 -8c70.667 -15.333 106 -54.666 106 -117.999c0 -46 -11.333 -82.833 -34 -110.5s-48 -46.834 -76 -57.501c-50.667 -20 -102.667 -30 -156 -30c-28.667 0 -56.5 2 -83.5 6s-44.167 7.66699 -51.5 11
c-5.33301 -32 -8 -60.167 -8 -84.5s3.33301 -43.833 10 -58.5c11.333 -28 37.666 -42.333 78.999 -43c12 -0.666992 35.333 -1 70 -1s93 6 175 18l-6 -43c-70.667 -19.333 -152 -29 -244 -29c-63.333 0 -104.666 23 -123.999 69c-10 24 -15 54.167 -15 90.5
s3 71.166 9 104.499s10.5 57.333 13.5 72s7 30.167 12 46.5s10 30.333 15 42s11.333 23.5 19 35.5s16 22.167 25 30.5s19.5 16.5 31.5 24.5s25.167 14.167 39.5 18.5s30.5 7.83301 48.5 10.5zM145 274.001c26.667 -3.33301 51.832 -4.99902 75.499 -4.99902
s42.834 0.333008 57.501 1s34.667 3.16699 60 7.5s47.333 10.666 66 18.999s35.334 20.166 50.001 35.499c18.667 20.667 28 45.334 28 74.001s-9.5 48.834 -28.5 60.501s-54.167 17.5 -105.5 17.5c-54 0 -93.667 -9.33301 -119 -28
c-9.33301 -6.66699 -17.333 -12.667 -24 -18s-12.834 -13.333 -18.501 -24s-10 -19.334 -13 -26.001s-6.5 -16.667 -10.5 -30c-4.66699 -17.333 -8.66699 -34.5 -12 -51.5s-5.33301 -27.833 -6 -32.5z" />
    <glyph glyph-name="f" unicode="f" horiz-adv-x="388" 
d="M305.5 775.5c16.333 6.33301 30.335 9.50098 42.002 9.50098h30c8.33301 0 25.833 -2.16699 52.5 -6.5s46.667 -8.5 60 -12.5l-5 -38h-122c-32.667 0 -55.334 -9.83301 -68.001 -29.5s-23 -56.5 -31 -110.5l-9 -57h170l-10 -57h-170l-77 -474h-58l77 474h-95l7 41l99 16
l9 57c13.333 85.333 32.666 139.666 57.999 162.999c10.667 10 24.167 18.167 40.5 24.5z" />
    <glyph glyph-name="g" unicode="g" horiz-adv-x="546" 
d="M293 -216c26.667 0 51.334 9.50098 74.001 28.501s37 46.833 43 83.5l21 133c-32 -12 -65.833 -21.333 -101.5 -28s-69.167 -10 -100.5 -10s-59 7.33301 -83 22s-40.333 35 -49 61c-10.667 29.333 -16 61.666 -16 96.999s3.33301 70 10 104
c13.333 84 39.166 148.667 77.499 194s86.5 68 144.5 68c52 0 105.167 -3.16699 159.5 -9.5s85.166 -9.83301 92.499 -10.5l-98 -621c-9.33301 -58.667 -30.666 -101.5 -63.999 -128.5s-68.333 -40.5 -105 -40.5c-5.33301 0 -11 0.333008 -17 1l-244 24l6 37l247 -4
c1.33301 -0.666992 2.33301 -1 3 -1zM195 404.001c-37.333 -67.333 -55.999 -147.334 -55.999 -240.001c0 -31.333 7.33301 -58.666 22 -81.999c14.667 -22.667 40.667 -34 78 -34c44.667 0 81.167 2.66699 109.5 8s58.166 12 89.499 20l64 402l-187 2h-2
c-25.333 0 -48.333 -7 -69 -21s-37 -32.333 -49 -55z" />
    <glyph glyph-name="h" unicode="h" 
d="M519 490c18 -25.333 27 -54.667 27 -88c0 -10 -1 -20.667 -3 -32l-59 -370h-57l59 370c1.33301 8.66699 2 17 2 25c0 24 -7 44.5 -21 61.5s-38.667 25.5 -74 25.5s-67 -4.16699 -95 -12.5s-65.667 -23.5 -113 -45.5l-67 -424h-58l124 784h57l-50 -315
c28 15.333 51 27 69 35c50.667 24 100.5 36 149.5 36s85.5 -16.667 109.5 -50z" />
    <glyph glyph-name="i" unicode="i" horiz-adv-x="178" 
d="M60 0l84 531h58l-84 -531h-58zM180 695h37.999c10.667 0 16 -5 16 -15v-5l-8 -50c-1.33301 -13.333 -9 -20 -23 -20h-37c-5.33301 0 -9.66602 1.83301 -12.999 5.5s-4.33301 8.5 -3 14.5l7 50c2 13.333 9.66699 20 23 20z" />
    <glyph glyph-name="j" unicode="j" horiz-adv-x="195" 
d="M28 -270l127 801h57l-84 -535c-16.667 -107.333 -38 -196 -64 -266h-36zM192 695h37c10.667 0 16 -5 16 -15v-5l-8 -50c-2 -13.333 -9.66699 -20 -23 -20h-37c-13.333 0 -19 6.66699 -17 20l8 50c2 13.333 10 20 24 20z" />
    <glyph glyph-name="k" unicode="k" horiz-adv-x="484" 
d="M60 0l123.998 781.998h58l-75 -472c62 8 121.833 35.667 179.5 83s91.834 93.333 102.501 138h64c-10.667 -37.333 -30.334 -73.666 -59.001 -108.999c-51.333 -63.333 -108.666 -107.666 -171.999 -132.999l191 -289h-69l-180 274
c-7.33301 -2 -18.666 -3.33301 -33.999 -4s-25 -0.666992 -29 0l-43 -270h-58z" />
    <glyph glyph-name="l" unicode="l" horiz-adv-x="297" 
d="M196 0c-74.667 0 -112 41.6689 -112 125.002c0 19.333 1.66699 40.666 5 63.999l94 594h57l-94 -594c-3.33301 -24.667 -5 -43.334 -5 -56.001s1 -23 3 -31s4.16699 -14.833 6.5 -20.5s6.5 -10.167 12.5 -13.5c8.66699 -4 28.167 -9.33301 58.5 -16s46.5 -10 48.5 -10
l-7 -42h-67z" />
    <glyph glyph-name="m" unicode="m" horiz-adv-x="905" 
d="M322 526c26.667 8 54.168 12.001 82.501 12.001s54.333 -8 78 -24s39.5 -36.333 47.5 -61c79.333 56.667 158.666 85 237.999 85c46 0 82.333 -16.333 109 -49c20 -25.333 30 -55.333 30 -90c0 -10 -0.666992 -20.667 -2 -32l-59 -367h-57l58 367
c1.33301 7.33301 2 16.166 2 26.499s-2.66699 22.5 -8 36.5s-15.333 25.833 -30 35.5s-32.334 14.5 -53.001 14.5c-40 0 -76.5 -4.66699 -109.5 -14s-68.833 -24.666 -107.5 -45.999c0.666992 -2.66699 1 -7.83398 1 -15.501s-1.33301 -20.5 -4 -38.5l-58 -366h-57l58 367
c1.33301 7.33301 2 16 2 26s-2.83301 22.167 -8.5 36.5s-15.834 26.333 -30.501 36s-36.5 14.5 -65.5 14.5s-56.667 -4 -83 -12s-63.5 -23 -111.5 -45l-66 -423h-58l84 531h39l9 -63c30.667 16.667 53.334 28.5 68.001 35.5s35.334 14.5 62.001 22.5z" />
    <glyph glyph-name="n" unicode="n" 
d="M406 540c50.667 0 88 -16.667 112 -50c18.667 -25.333 28 -54.666 28 -87.999c0 -10 -1 -20.667 -3 -32l-59 -370h-57l59 370c1.33301 8.66699 2 17 2 25c0 23.333 -7.16699 43.666 -21.5 60.999s-39 26 -74 26s-66.5 -4.16699 -94.5 -12.5s-65.667 -23.5 -113 -45.5
l-67 -424h-58l84 531h39l8 -62c67.333 36 120 58 158 66c18.667 3.33301 37.667 5 57 5z" />
    <glyph glyph-name="o" unicode="o" horiz-adv-x="562" 
d="M361 536c82.667 0 138.333 -22.6689 167 -68.002c18.667 -30 28 -70 28 -120c0 -28 -2.66699 -58.667 -8 -92c-16.667 -99.333 -43.5 -167.666 -80.5 -204.999s-98.333 -56 -184 -56s-143.167 20.333 -172.5 61c-19.333 26.667 -29 65.334 -29 116.001
c0 26.667 3 59 9 97s14 72.5 24 103.5s22 57.167 36 78.5s31 38.333 51 51c38 22.667 91 34 159 34zM170.999 357.998c-21.333 -62 -32.0029 -128.334 -32.0029 -199.001c0 -10.667 2.33301 -23.167 7 -37.5s10.5 -26.166 17.5 -35.499s17.5 -16.333 31.5 -21
c22 -8.66699 50.5 -13 85.5 -13s62.167 2.16699 81.5 6.5s38 13.5 56 27.5c33.333 25.333 57.333 82.666 72 171.999c6 37.333 9 66.666 9 87.999s-1.66699 39.333 -5 54s-8.66602 27.334 -15.999 38.001s-17.333 19 -30 25c-22 10 -49.667 15 -83 15
s-58.166 -1.16699 -74.499 -3.5s-32.666 -7.66602 -48.999 -15.999s-29.833 -20.5 -40.5 -36.5s-20.667 -37.333 -30 -64z" />
    <glyph glyph-name="p" unicode="p" horiz-adv-x="548" 
d="M392 535c29.333 0 54.668 -5.66699 76.001 -17c52 -27.333 78 -86 78 -176c0 -25.333 -2.33301 -54 -7 -86c-24.667 -176.667 -97.667 -265 -219 -265c-26.667 0 -59.5 3.33301 -98.5 10s-72.167 16 -99.5 28l-48 -299h-57l131 793c63.333 8 144.666 12 243.999 12z
M288.002 48c12.667 0 26.834 0.833008 42.501 2.5s31.167 6 46.5 13s30 18.167 44 33.5c28 31.333 48.333 87.333 61 168c4.66699 29.333 7 56 7 80c0 88 -33.667 132 -101 132h-192l-65 -402c59.333 -18 111.666 -27 156.999 -27z" />
    <glyph glyph-name="q" unicode="q" horiz-adv-x="552" 
d="M318 537c54.667 0 136.669 -6.33008 246.002 -18.9971l-124 -788h-58l47 299c-32 -12 -65.833 -21.5 -101.5 -28.5s-68.834 -10.5 -99.501 -10.5s-57.834 7.16699 -81.501 21.5s-39.834 34.166 -48.501 59.499c-10.667 29.333 -16 61.666 -16 96.999s3 69.666 9 102.999
c28.667 177.333 104.334 266 227.001 266zM164.502 338.503c-7 -22.333 -13 -52.001 -18 -89.001s-7.5 -70.5 -7.5 -100.5s8 -54.333 24 -73s42 -28 78 -28s66.5 1.66699 91.5 5s59.833 10.333 104.5 21l64 406h-192c-25.333 0 -47.833 -6.83301 -67.5 -20.5
s-35.667 -31.667 -48 -54s-22 -44.666 -29 -66.999z" />
    <glyph glyph-name="r" unicode="r" horiz-adv-x="415" 
d="M382 535.5c8.66699 1 24.334 1.50098 47.001 1.50098s39.667 -2.66699 51 -8l-9 -57c-18 4.66699 -36.833 7 -56.5 7s-33.5 -0.333008 -41.5 -1s-15 -1.33398 -21 -2.00098s-13.333 -2 -22 -4s-15.167 -3.33301 -19.5 -4s-11.166 -2.83398 -20.499 -6.50098
s-15.5 -5.83398 -18.5 -6.50098s-10 -3.5 -21 -8.5s-17.667 -7.83301 -20 -8.5s-10.166 -4 -23.499 -10s-21.333 -9.66699 -24 -11l-65 -417h-58l84 531h39l8 -67c2.66699 1.33301 9.16699 4.83301 19.5 10.5s17.166 9.33398 20.499 11.001l19.5 9.5l21 10
c4.33301 2 11.166 4.83301 20.499 8.5s16.666 6.33398 21.999 8.00098s12.333 3.66699 21 6s16.5 4 23.5 5s14.833 2 23.5 3z" />
    <glyph glyph-name="s" unicode="s" horiz-adv-x="506" 
d="M335 49c24.667 0 41.002 3.33398 49.002 10.001c18.667 14 30 33 34 57l8 53c1.33301 6 2 11.333 2 16c0 33.333 -21 50 -63 50h-142c-50 0 -83.833 7.83301 -101.5 23.5s-26.5 38.167 -26.5 67.5c0 10.667 1 22.667 3 36l7 49c7.33301 44 23.166 76.333 47.499 97
s61.5 31 111.5 31c24.667 0 65.667 -1.5 123 -4.5s99.333 -5.83301 126 -8.5l-7 -43h-251c-32 0 -54.5 -6.66699 -67.5 -20s-21.167 -31.333 -24.5 -54l-8 -49c-4 -24 -4.16699 -38.667 -0.5 -44s6 -9.16602 7 -11.499s3.66699 -4.33301 8 -6
s7.16602 -2.83398 8.49902 -3.50098s4.83301 -1.16699 10.5 -1.5s9.33398 -0.5 11.001 -0.5h13h12.5h143c41.333 0 71.333 -10.333 90 -31s28 -44.334 28 -71.001c0 -8 -0.666992 -16 -2 -24l-9 -59c-8.66699 -57.333 -34.334 -93 -77.001 -107c-20 -6 -42.833 -9 -68.5 -9
s-71 2 -136 6s-108.167 7.33301 -129.5 10l7 41h264z" />
    <glyph glyph-name="t" unicode="t" horiz-adv-x="366" 
d="M249 0c-75.333 0 -113 41.666 -113 124.999c0 18.667 1.66699 40 5 64l45 285h-94l7 43l96 15l38 148h43l-23 -148h162l-10 -58h-161l-45 -285c-3.33301 -21.333 -5 -40.166 -5 -56.499s1 -29 3 -38s6.33301 -16.167 13 -21.5c8.66699 -7.33301 29 -14.5 61 -21.5
s49 -10.5 51 -10.5l-6 -41h-67z" />
    <glyph glyph-name="u" unicode="u" horiz-adv-x="541" 
d="M131 133c0 -23.333 7 -43.168 21 -59.501s38.667 -24.5 74 -24.5s67 4.16699 95 12.5s65.667 23.5 113 45.5l67 424h57l-84 -531h-39l-8 62c-28.667 -15.333 -51.667 -27.166 -69 -35.499s-39.5 -16.333 -66.5 -24s-53.167 -11.5 -78.5 -11.5
c-51.333 0 -89 16.333 -113 49c-18 24.667 -27 54 -27 88c0 10.667 1 21.667 3 33l58 370h58l-59 -370c-1.33301 -10 -2 -19.333 -2 -28z" />
    <glyph glyph-name="v" unicode="v" horiz-adv-x="520" 
d="M544 531c2.66699 -8.66699 4 -20.333 4 -35s-5.66699 -33.667 -17 -57l-237 -439h-72l-128 531h60l111 -459l205 378c16 32 26 59 30 81h44z" />
    <glyph glyph-name="w" unicode="w" horiz-adv-x="800" 
d="M537 529c2.66699 -8.66699 4.00098 -20.3311 4.00098 -34.998s-6 -33.667 -18 -57l-40 -80l62 -279l210 371c16.667 33.333 26.667 60.666 30 81.999h42c2.66699 -10 4 -22.5 4 -37.5s-6 -33.167 -18 -54.5l-249 -439h-58l-65 287l-156 -287h-63l-128 531h58l109 -456
l204 372c17.333 33.333 27.666 60.666 30.999 81.999h41z" />
    <glyph glyph-name="x" unicode="x" horiz-adv-x="497" 
d="M24 0l235 267l-151 264h68l123 -217l191 217h74l-234 -270l148 -261h-67l-123 214l-186 -214h-78z" />
    <glyph glyph-name="y" unicode="y" horiz-adv-x="544" 
d="M569 535c3.33301 -10 5 -22.667 5 -38s-6 -34.333 -18 -57l-218 -439c-41.333 -80.667 -75 -137 -101 -169c-33.333 -42 -60.666 -68.667 -81.999 -80s-40.333 -18.333 -57 -21v40c22.667 10 45 28.667 67 56c26 32 46.167 61.167 60.5 87.5s22.666 41.833 24.999 46.5
l11.5 22.5c5.33301 10.333 8.33301 15.833 9 16.5c-17.333 0 -34 4.66699 -50 14c-30.667 17.333 -49.667 49.333 -57 96l-70 421h60l69 -415c6.66699 -37.333 28.667 -56.333 66 -57l11 1l197 393c13.333 26 22 53.333 26 82h46z" />
    <glyph glyph-name="z" unicode="z" horiz-adv-x="453" 
d="M45 1l7 57l371 416h-317l8 57h396l-8 -57l-367 -416h300l-9 -57h-381z" />
    <glyph glyph-name="braceleft" unicode="{" horiz-adv-x="300" 
d="M411 805c-39.333 0 -70.833 -9.83301 -94.5 -29.5s-39.167 -52.834 -46.5 -99.501l-37 -236c-4 -23.333 -15 -42.166 -33 -56.499s-39.667 -23.833 -65 -28.5c32 -4.66699 53.667 -19.667 65 -45c4 -8.66699 6 -16.334 6 -23.001s-0.333008 -12 -1 -16l-42 -262
c-3.33301 -17.333 -5 -36.833 -5 -58.5s6 -39.5 18 -53.5c16.667 -20 43.667 -30 81 -30h7l-9 -57c-56 0 -96 14.667 -120 44c-22.667 28 -34 60 -34 96c0 16.667 1.33301 37.334 4 62.001l42 255c0.666992 3.33301 1 6.66602 1 9.99902c0 16 -7.5 29.333 -22.5 40
s-32.167 16 -51.5 16h-7l9 54c0.666992 0 4 0.166992 10 0.5s10.167 0.5 12.5 0.5s6.33301 0.333008 12 1s9.83398 1.33398 12.501 2.00098l11.5 3c5 1.33301 8.83301 2.83301 11.5 4.5l10 6.5c4 2.66699 7 5.66699 9 9c5.33301 8 8.66602 16.667 9.99902 26l37 238
c20 122.667 90 184 210 184l-9 -57h-2z" />
    <glyph glyph-name="bar" unicode="|" horiz-adv-x="235" 
d="M74 -72l133 842h57l-132 -842h-58z" />
    <glyph glyph-name="braceright" unicode="}" horiz-adv-x="296" 
d="M250 707c0 65.333 -32.667 97.9971 -98 97.9971h-7l9 57c33.333 0 61.5 -6.16699 84.5 -18.5s39.167 -28.166 48.5 -47.499c14 -29.333 21 -56.166 21 -80.499s-2 -44.5 -6 -60.5l-38 -239c-0.666992 -3.33301 -1 -6.66602 -1 -9.99902
c0 -16.667 7.83301 -30.167 23.5 -40.5s33.834 -15.5 54.501 -15.5h3l-9 -54h-3c-58 0 -90 -17.667 -96 -53l-41 -253c-18.667 -120 -88 -180 -208 -180l9 57h3c38.667 0 69.667 9.33301 93 28s38.666 50.667 45.999 96l41 254c3.33301 22 14 40.333 32 55s39.333 24 64 28
c-23.333 3.33301 -40.833 12.166 -52.5 26.499s-17.5 29.5 -17.5 45.5c0 4.66699 0.333008 9.33398 1 14.001l39 244c3.33301 18 5 34.333 5 49z" />
    <glyph glyph-name="asciitilde" unicode="~" horiz-adv-x="454" 
d="M237.5 634c8.33301 2 18.498 3.00098 30.498 3.00098s28.833 -8 50.5 -24s37 -24 46 -24s16.833 0.833008 23.5 2.5s12.667 3.5 18 5.5s11.5 4.66699 18.5 8s12.5 6.33301 16.5 9l16 10.5c6.66699 4.33301 11.334 7.16602 14.001 8.49902l12 -30
c-2 -1.33301 -8.66699 -7 -20 -17s-19.5 -16.667 -24.5 -20l-22.5 -15c-17.333 -11.333 -34.666 -17 -51.999 -17s-37.166 8 -59.499 24s-39.333 24 -51 24s-22.5 -1.83301 -32.5 -5.5s-22.333 -9.5 -37 -17.5s-25.667 -13.667 -33 -17l-11 30
c4 3.33301 11.833 9.5 23.5 18.5s20.167 15.167 25.5 18.5l22 13.5c9.33301 5.66699 18.166 9.5 26.499 11.5z" />
    <glyph glyph-name="exclamdown" unicode="&#xa1;" horiz-adv-x="260" 
d="M45 -269l93 532h55l-76 -532h-72zM145 386l9.00195 57c2 11.333 9.66699 17.333 23 18h37c5.33301 0 9.66602 -2 12.999 -6s4.66602 -8.66699 3.99902 -14l-9 -55c-2.66699 -12 -9.66699 -19 -21 -21h-41c-11.333 0.666992 -16.333 7.66699 -15 21z" />
    <glyph glyph-name="cent" unicode="&#xa2;" horiz-adv-x="485" 
d="M128 159c0 -72 30.999 -108.002 92.999 -108.002c54.667 0 118.334 3.66699 191.001 11l37 3l-7 -42c-56 -16 -112 -25.333 -168 -28l-13 -86h-46l13 85c-46 0 -82.667 11.333 -110 34c-32 26.667 -48 76 -48 148c0 27.333 3.33301 59.833 10 97.5
s14.667 71.834 24 102.501s19.833 55.834 31.5 75.501s23.5 35.5 35.5 47.5c25.333 26 67 39 125 39c6 0 12 -0.333008 18 -1l15 92h46l-16 -95c52 -5.33301 103 -13.333 153 -24l-6 -41c-85.333 7.33301 -146.833 11 -184.5 11s-61.667 -1.16699 -72 -3.5
s-21.5 -7.5 -33.5 -15.5s-22.333 -19.667 -31 -35c-18.667 -35.333 -34.667 -90 -48 -164c-6 -42 -9 -76.333 -9 -103z" />
    <glyph glyph-name="sterling" unicode="&#xa3;" horiz-adv-x="583" 
d="M616 722l33.999 -4l-7 -43h-180c-35.333 0 -63.5 -1.83301 -84.5 -5.5s-40 -11.5 -57 -23.5s-30.167 -29.167 -39.5 -51.5s-16.666 -52.166 -21.999 -89.499l-19 -120l275 -14l-6 -34h-278l-43 -279h355l-9 -58h-485l7 44l74 14l44 279h-72l6 34l74 14l19 120
c14 89.333 40.667 149.666 80 180.999c26 21.333 51 34 75 38c32 5.33301 66.667 8 104 8s89 -3.33301 155 -10z" />
    <glyph glyph-name="currency" unicode="&#xa4;" horiz-adv-x="466" 
d="M439 334c0 -47.333 -16.001 -89.333 -48.001 -126l40 -48l-35 -27l-37 45c-30 -22.667 -65.167 -34 -105.5 -34s-72.833 12.333 -97.5 37l-50 -44l-27 36l51 43c-14.667 24.667 -22 50 -22 76c0 46.667 16 87 48 121l-38 44l34 27l36 -43c32 22.667 67.833 34 107.5 34
s71.834 -11.333 96.501 -34l55 46l26 -35l-55 -46c14 -22 21 -46 21 -72zM153.999 292c0 -24.667 8.33398 -47.668 25.001 -69.001c17.333 -22.667 42.666 -34 75.999 -34c43.333 0 78.333 16.667 105 50c23.333 28.667 35 57.334 35 86.001s-8.5 53.5 -25.5 74.5
s-42.5 31.5 -76.5 31.5c-36.667 0 -67.667 -11.667 -93 -35c-30.667 -28 -46 -62.667 -46 -104z" />
    <glyph glyph-name="yen" unicode="&#xa5;" horiz-adv-x="595" 
d="M106 168l7 44h175l10 65h-175l7 44h171l-162 411h61l140 -350l279 350h70l-326 -411h194l-7 -44h-195l-10 -65h195l-7 -44h-193l-24 -168h-57l24 168h-177z" />
    <glyph glyph-name="brokenbar" unicode="&#xa6;" horiz-adv-x="236" 
d="M74 -72l52 328h58l-52 -328h-58zM153 429l54 341h57l-54 -341h-57z" />
    <glyph glyph-name="section" unicode="&#xa7;" horiz-adv-x="553" 
d="M438 535c77.333 0 116.001 -31.334 116.001 -94.001c0 -8.66699 -0.666992 -17.667 -2 -27l-10 -62c-8 -54 -27.667 -83 -59 -87c24 -8 35.667 -24.333 35 -49c-0.666992 -10.667 -1.66699 -21.667 -3 -33l-12 -73c-8 -50.667 -25 -83.334 -51 -98.001
c-23.333 -13.333 -58.666 -20 -105.999 -20c-22 0 -64.167 2 -126.5 6s-104.5 7.33301 -126.5 10l7 42h256c17.333 0 31.5 1.33301 42.5 4s21 8.5 30 17.5s14.833 21.833 17.5 38.5l11 73c1.33301 7.33301 2 15.5 2 24.5s-3.66699 16.333 -11 22s-26 8.5 -56 8.5h-165
c-78.667 0 -118 29 -118 87c0 9.33301 0.666992 19.333 2 30l10 63c4 26 10.667 46.333 20 61s23.666 24.334 42.999 29.001c-24.667 12.667 -37 33.334 -37 62.001c0 6.66699 0.333008 13.334 1 20.001l11 71c13.333 82 63.333 123 150 123c22 0 65.667 -2.16699 131 -6.5
s108.666 -7.5 129.999 -9.5l-6 -42h-264c-24.667 0 -43.667 -5.33301 -57 -16s-22 -27.334 -26 -50.001l-11 -70c-0.666992 -4.66699 -1 -11.667 -1 -21s5 -17.333 15 -24s26.333 -10 49 -10h169zM168.001 352.999c-1.33301 -8 -2.00098 -16.832 -2.00098 -26.499
s3.83301 -17.167 11.5 -22.5s25.5 -8 53.5 -8h169c42.667 0 67.667 7.66699 75 23c4 7.33301 7 19 9 35l10 62c1.33301 8 2 16.833 2 26.5s-3 18 -9 25s-25 10.5 -57 10.5h-169c-27.333 0 -45.666 -2.66699 -54.999 -8s-15.833 -12.333 -19.5 -21s-6.5 -20.334 -8.5 -35.001
z" />
    <glyph glyph-name="dieresis" unicode="&#xa8;" horiz-adv-x="451" 
d="M167 616c6.66699 3.33301 14.665 4.99902 23.998 4.99902s17 -3.66699 23 -11s8.33301 -15.666 7 -24.999s-4 -17 -8 -23c-10 -13.333 -21.5 -20 -34.5 -20s-22.5 3.5 -28.5 10.5s-9 13.167 -9 18.5s0.333008 10.333 1 15s3.33398 10 8.00098 16s10.334 10.667 17.001 14
zM442.998 620.999c11.333 0 19.667 -3.33203 25 -9.99902s8 -12.5 8 -17.5s-0.333008 -10 -1 -15s-3 -10.5 -7 -16.5c-10 -13.333 -21.5 -20 -34.5 -20s-22.5 3.5 -28.5 10.5s-9 13.167 -9 18.5s0.5 11.166 1.5 17.499s6 13.333 15 21s19.167 11.5 30.5 11.5z" />
    <glyph glyph-name="copyright" unicode="&#xa9;" horiz-adv-x="825" 
d="M400 732l258.002 0.000976562c112.667 0 169 -78 169 -234c0 -92.667 -15 -183 -45 -271c-32.667 -96 -76.667 -161.667 -132 -197c-30.667 -20 -64.334 -30 -101.001 -30h-258c-36 0 -67 9.16699 -93 27.5s-45.333 41.166 -58 68.499c-24 52 -36 113.333 -36 184
c0 59.333 9.33301 124 28 194c20.667 76 50.667 136.333 90 181c20.667 22.667 46.167 41.167 76.5 55.5s64.166 21.5 101.499 21.5zM158.002 368.001c-5.33301 -27.333 -8.00293 -50.5 -8.00293 -69.5s0.833008 -40.333 2.5 -64s6.83398 -51 15.501 -82
s23.834 -56.167 45.501 -75.5s47.834 -29 78.501 -29h263c47.333 0 90.833 27.833 130.5 83.5s67.5 134.5 83.5 236.5c8 50 12 94 12 132c0 122.667 -41 184 -123 184h-266c-122 0 -200 -105.333 -234 -316zM326.999 287.001c0 -62 25.334 -93 76.001 -93
c62.667 0 125 5.33301 187 16l-6 -37c-64 -17.333 -127 -26 -189 -26c-42.667 0 -74.667 17.667 -96 53c-13.333 22 -20 48.167 -20 78.5s2.33301 59.5 7 87.5c13.333 80 35.166 136.167 65.499 168.5s66.333 48.5 108 48.5s101.5 -7.33301 179.5 -22l-6 -37
c-55.333 8 -114 12 -176 12c-64 0 -105.333 -58 -124 -174c-4 -28 -6 -53 -6 -75z" />
    <glyph glyph-name="ordfeminine" unicode="&#xaa;" horiz-adv-x="359" 
d="M72 276l7 43h295l-6 -43h-296zM236.5 727c8.33301 2 16.332 3.5 23.999 4.5s16 1.5 25 1.5s22.333 -1.33301 40 -4s36.834 -8 57.501 -16s36 -17 46 -27l-45 -305h-26l-6 56c-14 -15.333 -33.333 -29.166 -58 -41.499s-46.834 -18.5 -66.501 -18.5s-36.5 2.66699 -50.5 8
s-27.667 15 -41 29s-21.333 29.833 -24 47.5s-4 34.167 -4 49.5s1.33301 33.333 4 54s7.33398 40.167 14.001 58.5s14.5 33.333 23.5 45s18.167 21.667 27.5 30s19.5 14.666 30.5 18.999s20.667 7.5 29 9.5zM179.999 627.5c-11.333 -19.667 -18.667 -40.999 -22 -63.999
s-5 -43.5 -5 -61.5s4.66699 -33.667 14 -47c14 -20.667 32.833 -31 56.5 -31s45.167 4.5 64.5 13.5s41.666 22.5 66.999 40.5l27 188c-33.333 13.333 -64.333 20 -93 20s-51.167 -4.83301 -67.5 -14.5s-30.166 -24.334 -41.499 -44.001z" />
    <glyph glyph-name="guillemotleft" unicode="&#xab;" horiz-adv-x="557" 
d="M106 354l238 203l35 -41l-194 -167l140 -167l-41 -36zM294 354l238 203l36 -41l-195 -167l141 -167l-42 -36z" />
    <glyph glyph-name="logicalnot" unicode="&#xac;" horiz-adv-x="529" 
d="M516 322l-25 -163h-58l17 105h-360l9 58h417z" />
    <glyph glyph-name="uni00AD" unicode="&#xad;" horiz-adv-x="356" 
d="M60 261l9 58h314l-9 -58h-314z" />
    <glyph glyph-name="registered" unicode="&#xae;" horiz-adv-x="825" 
d="M400 732l258.002 0.00195312c112.667 0 169 -78 169 -234c0 -92.667 -15 -183 -45 -271c-32.667 -96 -76.667 -161.667 -132 -197c-30.667 -20 -64.334 -30 -101.001 -30h-258c-36 0 -67 9.16699 -93 27.5s-45.333 41.166 -58 68.499c-24 52 -36 113.333 -36 184
c0 58.667 9.33301 123 28 193c20.667 76 50.667 136.333 90 181c20.667 23.333 46.167 42.166 76.5 56.499s64.166 21.5 101.499 21.5zM158.002 368.002c-5.33301 -27.333 -8.00098 -50.5 -8.00098 -69.5s0.666992 -40.333 2 -64s6.5 -51 15.5 -82s24.333 -56.167 46 -75.5
s47.834 -29 78.501 -29h263c47.333 0 90.833 27.833 130.5 83.5s67.5 134.5 83.5 236.5c8 50 12 94.333 12 133c0 122 -40.667 183 -122 183h-267c-122 0 -200 -105.333 -234 -316zM529.001 580.002c32 0 59.002 -8.33105 81.002 -24.998c20.667 -16 31 -42.333 31 -79
c0 -38 -7.33301 -70.667 -22 -98c-14.667 -26 -37.667 -41 -69 -45c-4.66699 -0.666992 -10.334 -1.33398 -17.001 -2.00098s-11.334 -1.33398 -14.001 -2.00098l69 -176h-53l-69 177l-105 10l-30 -187h-47l68 427h177zM502.003 372.004c28.667 0 48 3.99902 58 11.999
s17 17 21 27c8 20.667 12 41.334 12 62.001s-5 35.667 -15 45s-27 14 -51 14h-135l-26 -160h136z" />
    <glyph glyph-name="macron" unicode="&#xaf;" horiz-adv-x="392" 
d="M134 531l7 47h279l-7 -47h-279z" />
    <glyph glyph-name="degree" unicode="&#xb0;" horiz-adv-x="318" 
d="M248 735c44 0 74.666 -16.999 91.999 -50.999c7.33301 -14 11 -25.667 11 -35v-17c-1.33301 -28.667 -12.166 -52.834 -32.499 -72.501s-44.5 -29.5 -72.5 -29.5s-51.333 9.5 -70 28.5s-28 41.5 -28 67.5c0 30.667 10.833 56.5 32.5 77.5s44.167 31.5 67.5 31.5z
M183.999 627.001c0 -16 5.83301 -30 17.5 -42s26.5 -18 44.5 -18s33.667 6.33301 47 19c14.667 14 22 30 22 48s-5.5 33.167 -16.5 45.5s-24 18.5 -39 18.5s-27.833 -3 -38.5 -9c-24.667 -14 -37 -34.667 -37 -62z" />
    <glyph glyph-name="plusminus" unicode="&#xb1;" horiz-adv-x="521" 
d="M69 104l9 57h406l-9 -57h-406zM115 395l9 57h174l27 175h58l-28 -175h175l-9 -57h-175l-28 -174h-57l28 174h-174z" />
    <glyph glyph-name="twosuperior" unicode="&#xb2;" horiz-adv-x="388" 
d="M371.5 651c9.66699 16.667 15.332 31.332 16.999 43.999s2.5 25.334 2.5 38.001c0 38.667 -25.333 58 -76 58h-174c-1.33301 0 -0.833008 5.83301 1.5 17.5l3.5 17.5c69.333 8 131 12 185 12c29.333 0 53.166 -8 71.499 -24s29.5 -32 33.5 -48s6 -29 6 -39
c0 -35.333 -10 -69 -30 -101s-42 -59.5 -66 -82.5s-47.167 -43.5 -69.5 -61.5s-44.166 -34.667 -65.499 -50s-34 -25 -38 -29h219l-8 -47h-309l7 43c4.66699 4 17.667 13.333 39 28l52.5 37l54.5 40.5c22.667 17 41.834 32.833 57.501 47.5s31.5 30.667 47.5 48
s28.833 34.333 38.5 51z" />
    <glyph glyph-name="threesuperior" unicode="&#xb3;" horiz-adv-x="411" 
d="M362 514c0 17.333 -6.16797 31.5029 -18.501 42.5029s-29.833 16.833 -52.5 17.5l-142 5l6 35l141 5c36 2 62.667 13.333 80 34c9.33301 10.667 15 23 17 37l3 26c1.33301 6.66699 2 15.5 2 26.5s-5 21 -15 30s-28.667 13.5 -56 13.5h-188l5 32c26 8 51.333 12.333 76 13
c30 1.33301 54.333 2 73 2h47c38.667 0 65.834 -10 81.501 -30s23.5 -41.667 23.5 -65c0 -6.66699 -0.333008 -13.334 -1 -20.001l-6 -36c-4 -23.333 -13.333 -43.333 -28 -60s-29.667 -27.334 -45 -32.001c14 -7.33301 25 -18 33 -32s12 -26 12 -36
s-0.333008 -17.667 -1 -23l-5 -29c-6 -38.667 -19.667 -68 -41 -88s-55.333 -30 -102 -30c-91.333 0 -153 5.33301 -185 16l6 31h176c58 0 91 25.333 99 76l4 23c0.666992 5.33301 1 10.666 1 15.999z" />
    <glyph glyph-name="acute" unicode="&#xb4;" horiz-adv-x="227" 
d="M104 531l133 133h72l-154 -133h-51z" />
    <glyph glyph-name="uni00B5" unicode="&#xb5;" horiz-adv-x="590" 
d="M170 137c0 -23.333 7.16504 -43.832 21.498 -61.499s39 -26.5 74 -26.5s66.5 4.16699 94.5 12.5s65.667 23.5 113 45.5l68 424h57l-84 -531h-39l-8 62c-54 -28.667 -91.333 -46.334 -112 -53.001c-39.333 -12 -73.666 -18 -102.999 -18c-43.333 0 -76.666 14 -99.999 42
l-48 -303h-57l127 801h58l-59 -370c-2 -8.66699 -3 -16.667 -3 -24z" />
    <glyph glyph-name="paragraph" unicode="&#xb6;" horiz-adv-x="573" 
d="M312 732h355.001l-10 -60h-69l-106 -672h-58l107 674h-117l-150 -944h-57l101 640c-20.667 -9.33301 -40 -14 -58 -14h-1c-34 0 -61.833 7.66699 -83.5 23s-35.334 31.666 -41.001 48.999s-8.5 31.833 -8.5 43.5s0.666992 21.5 2 29.5l14 93
c11.333 70.667 51.666 114.334 120.999 131.001c18.667 4.66699 38.334 7 59.001 7zM176.001 501c-0.666992 -6.66699 -0.999023 -13.5 -0.999023 -20.5s1.33301 -15 4 -24s7 -16.5 13 -22.5s13.667 -10.667 23 -14c13.333 -5.33301 27.666 -8 42.999 -8h56l42 265h-54
c-34 0 -60.167 -7.83301 -78.5 -23.5s-29.5 -36.5 -33.5 -62.5z" />
    <glyph glyph-name="periodcentered" unicode="&#xb7;" horiz-adv-x="274" 
d="M170 424h39.001c12 0 18 -5 18 -15c0 -1.33301 -0.333008 -3.33301 -1 -6l-6 -42c-2.66699 -12.667 -10.334 -19 -23.001 -19h-40c-6 0 -10.667 1.83301 -14 5.5s-4.33301 8.16699 -3 13.5l6 42c2 14 10 21 24 21z" />
    <glyph glyph-name="cedilla" unicode="&#xb8;" horiz-adv-x="257" 
d="M66 -173l-44 -0.000976562l4 27l48 12c25.333 6.66699 43 22.334 53 47.001c4.66699 12.667 8.66699 29.334 12 50.001h50c-6 -40.667 -13.5 -68.834 -22.5 -84.501s-17.833 -26.5 -26.5 -32.5c-17.333 -12.667 -42 -19 -74 -19z" />
    <glyph glyph-name="onesuperior" unicode="&#xb9;" horiz-adv-x="276" 
d="M115 735l5 32c24 0 48.333 5.66699 73 17s43.667 22.333 57 33l19 17h46l-76 -478h-47l67 419c-12 -9.33301 -30.5 -18.333 -55.5 -27s-54.5 -13 -88.5 -13z" />
    <glyph glyph-name="ordmasculine" unicode="&#xba;" horiz-adv-x="381" 
d="M83 278l7 43h297l-6 -43h-298zM303 738c57.333 0 96.334 -14 117.001 -42c14 -18 21 -41 21 -69s-2.33301 -56.5 -7 -85.5s-10.667 -53.833 -18 -74.5s-18 -38.667 -32 -54c-25.333 -27.333 -68.833 -41 -130.5 -41s-102.834 14 -123.501 42
c-13.333 18.667 -20 45.334 -20 80.001c0 17.333 2.16699 40.333 6.5 69s10.333 54.167 18 76.5s18.667 41.166 33 56.499s31.833 26 52.5 32c21.333 6.66699 49 10 83 10zM179.501 627c-7 -18.667 -12.6641 -41.832 -16.9971 -69.499s-6.5 -48.167 -6.5 -61.5
s1.5 -24.5 4.5 -33.5s6.66699 -16.333 11 -22s11.166 -10.167 20.499 -13.5c14.667 -5.33301 33.167 -8 55.5 -8s38.166 0.5 47.499 1.5s19.666 3.83301 30.999 8.5s20.333 11.667 27 21c16 21.333 26.833 49.833 32.5 85.5s8.5 61.834 8.5 78.501s-1.5 30.167 -4.5 40.5
s-9.16699 18.166 -18.5 23.499c-15.333 8.66699 -37.333 13 -66 13s-49.167 -1.16699 -61.5 -3.5s-24.333 -8.33301 -36 -18s-21 -23.834 -28 -42.501z" />
    <glyph glyph-name="guillemotright" unicode="&#xbb;" horiz-adv-x="554" 
d="M81 188l197 168l-140 165l42 36l176 -206l-239 -205zM272 188l197 168l-140 165l42 36l176 -206l-239 -205z" />
    <glyph glyph-name="onequarter" unicode="&#xbc;" horiz-adv-x="909" 
d="M115 635l5 32c24 0 48.333 5.66699 73 17s43.667 22.333 57 33l19 17h46l-76 -478h-47l67 419c-12 -9.33301 -30.5 -18.333 -55.5 -27s-54.5 -13 -88.5 -13zM185 0l561 770h48l-562 -770h-47zM513 155l253 320h57l-225 -290h194l19 121l29 48h26l-27 -169h59l-6 -37
l-61 -12l-21 -136h-47l21 136h-258z" />
    <glyph glyph-name="onehalf" unicode="&#xbd;" horiz-adv-x="972" 
d="M115 635l5 32c24 0 48.333 5.66699 73 17s43.667 22.333 57 33l19 17h46l-76 -478h-47l67 419c-12 -9.33301 -30.5 -18.333 -55.5 -27s-54.5 -13 -88.5 -13zM162 0l562 770h47l-562 -770h-47zM901 295.5c9.33301 17 15.002 31.667 17.002 44s3 25.166 3 38.499
c0 38 -25.667 57 -77 57h-174c-1.33301 0 -0.833008 5.83301 1.5 17.5s3.83301 17.5 4.5 17.5c68.667 8 130 12 184 12c29.333 0 53.166 -7.83301 71.499 -23.5s29.5 -31.5 33.5 -47.5s6 -29 6 -39c0 -36 -9.83301 -70 -29.5 -102s-41.667 -59.5 -66 -82.5
s-47.5 -43.5 -69.5 -61.5s-43.667 -34.667 -65 -50s-34 -24.666 -38 -27.999h218l-8 -48h-309l7 44l39 27l53 37l55 41c22.667 17.333 41.667 33.333 57 48l47.5 47.5c16.333 17 29.166 34 38.499 51z" />
    <glyph glyph-name="threequarters" unicode="&#xbe;" horiz-adv-x="1022" 
d="M362 414c0 17.333 -6.16699 31.5059 -18.5 42.5059s-29.833 16.833 -52.5 17.5l-142 5l6 35l141 5c26 1.33301 47.833 8.16602 65.5 20.499s28.167 29.166 31.5 50.499l3 26c1.33301 6.66699 2 15.5 2 26.5s-5 21 -15 30s-28.667 13.5 -56 13.5h-188l5 32
c26 8 51.333 12.333 76 13c30 1.33301 54.333 2 73 2h57c19.333 0 37.333 -5.66699 54 -17c27.333 -17.333 41 -43.333 41 -78c0 -6.66699 -0.333008 -13.334 -1 -20.001l-6 -36c-4 -23.333 -13.333 -43.333 -28 -60s-29.667 -27.334 -45 -32.001
c19.333 -10.667 33 -27.334 41 -50.001c2.66699 -8.66699 4 -16.5 4 -23.5s-0.333008 -12.833 -1 -17.5l-5 -29c-6 -38.667 -19.667 -68 -41 -88s-55.333 -30 -102 -30c-91.333 0 -153 5.33301 -185 16l6 31h176c58 0 91 25.333 99 76l4 23
c0.666992 5.33301 1 10.666 1 15.999zM285 0.00585938l562 770h47l-561 -770h-48zM598 155.006l253 320h56l-226 -290h196l19 121l29 48h26l-27 -169h58l-5 -37l-61 -12l-21 -136h-48l22 136h-258z" />
    <glyph glyph-name="questiondown" unicode="&#xbf;" horiz-adv-x="538" 
d="M318 173l16.002 102.001h59l-24 -149c-28.667 0.666992 -53.834 1 -75.501 1s-39.834 -0.333008 -54.501 -1c-36.667 -0.666992 -67.667 -9.83398 -93 -27.501s-41 -44.834 -47 -81.501l-16 -102c-2 -13.333 -3 -26.666 -3 -39.999c0 -38 15.667 -63.333 47 -76
c20 -8.66699 48.667 -13 86 -13h264l-6 -39c-94 -11.333 -174.667 -17 -242 -17c-11.333 0 -20 0.166992 -26 0.5s-9.33301 0.5 -10 0.5c-66 0 -112.333 17 -139 51c-20.667 26 -31 57.667 -31 95c0 12.667 1.33301 26 4 40l16 100c10.667 68.667 39.334 114.667 86.001 138
c31.333 16 70.666 24 117.999 24c22 0 45.667 -2 71 -6zM377.002 469.001h40.001c6 0 10.667 -1.66699 14 -5s4.33301 -8 3 -14l-9 -59c-1.33301 -13.333 -9 -20 -23 -20h-41c-10.667 0 -16 5 -16 15c0 1.33301 0.333008 3 1 5l9 59c1.33301 12.667 8.66602 19 21.999 19z
" />
    <glyph glyph-name="Agrave" unicode="&#xc0;" horiz-adv-x="654" 
d="M327 930h67l104 -133h-51zM45 0l387 732h60l143 -732h-58l-43 220h-309l-116 -220h-64zM256 278h267l-71 377z" />
    <glyph glyph-name="Aacute" unicode="&#xc1;" horiz-adv-x="654" 
d="M447 797l133 133h72l-154 -133h-51zM45 0l387 732h60l143 -732h-58l-43 220h-309l-116 -220h-64zM256 278h267l-71 377z" />
    <glyph glyph-name="Acircumflex" unicode="&#xc2;" horiz-adv-x="654" 
d="M330 797l143 130h54l88 -130h-49l-69 94l-108 -94h-59zM45 0l387 732h60l143 -732h-58l-43 220h-309l-116 -220h-64zM256 278h267l-71 377z" />
    <glyph glyph-name="Atilde" unicode="&#xc3;" horiz-adv-x="654" 
d="M592 865c22.667 10 38.6621 18.3301 47.9951 24.9971l12 -30c-4 -3.33301 -11.833 -9.16602 -23.5 -17.499s-20.334 -14.333 -26.001 -18s-13.167 -8.16699 -22.5 -13.5c-32.667 -18 -63 -18.333 -91 -1c-13.333 8 -25.166 15.833 -35.499 23.5s-17.833 11.5 -22.5 11.5
s-9.66699 -0.166992 -15 -0.5s-12.833 -1.83301 -22.5 -4.5s-17.5 -5.5 -23.5 -8.5s-14.667 -7.66699 -26 -14s-19.333 -10.5 -24 -12.5l-11 30c34.667 26 60.834 42.833 78.501 50.5s33.834 11.334 48.501 11.001s33.334 -8.16602 56.001 -23.499s39.334 -23 50.001 -23
s27.334 5 50.001 15zM44.9951 -0.00292969l387 732h60l143 -732h-58l-43 220h-309l-116 -220h-64zM255.995 277.997h267l-71 377z" />
    <glyph glyph-name="Adieresis" unicode="&#xc4;" horiz-adv-x="654" 
d="M358.5 876c11 0 19.501 -3.66797 25.501 -11.001s8.16699 -16.666 6.5 -27.999s-6.83398 -20.833 -15.501 -28.5s-18.5 -11.5 -29.5 -11.5s-19.833 4 -26.5 12s-9.16699 17.5 -7.5 28.5s7.16699 20.167 16.5 27.5s19.5 11 30.5 11zM613.501 875.999
c11 0 19.333 -3.33301 25 -10s8.5 -12.5 8.5 -17.5s-0.666992 -11 -2 -18s-6.33301 -14.333 -15 -22s-18.5 -11.5 -29.5 -11.5s-19.833 4 -26.5 12s-9.16699 17.5 -7.5 28.5s7.16699 20.167 16.5 27.5s19.5 11 30.5 11zM45.001 -0.000976562l387 732h60l143 -732h-58
l-43 220h-309l-116 -220h-64zM256.001 277.999h267l-71 377z" />
    <glyph glyph-name="Aring" unicode="&#xc5;" horiz-adv-x="654" 
d="M491 935c-28 0 -53.999 -10.833 -77.999 -32.5s-36 -49.167 -36 -82.5c0 -23.333 8.16699 -44.166 24.5 -62.499s38.666 -27.5 66.999 -27.5s54.333 10.667 78 32s35.5 49 35.5 83c0 23.333 -8.16699 44.166 -24.5 62.499s-38.5 27.5 -66.5 27.5zM429.501 784.5
c-10.333 11.667 -15.501 26.499 -15.501 44.499s8.33301 34.667 25 50c14.667 12.667 29.334 19 44.001 19s26.667 -3 36 -9c17.333 -10.667 26 -26.667 26 -48s-8.33301 -39.666 -25 -54.999c-14 -12.667 -30 -19 -48 -19s-32.167 5.83301 -42.5 17.5zM45 -0.000976562
l387 732h60l143 -732h-58l-43 220h-309l-116 -220h-64zM256 277.999h267l-71 377z" />
    <glyph glyph-name="AE" unicode="&#xc6;" horiz-adv-x="912" 
d="M590 723c17.333 4.66699 31.5 7.33301 42.5 8s21.333 1 31 1h24.5l300 -14l-7 -44h-303c-31.333 0 -51.333 -6.33301 -60 -19c-7.33301 -10 -12 -20.5 -14 -31.5s-3 -16.833 -3 -17.5c0 -2 -0.333008 -4 -1 -6l-34 -210l329 -9l-7 -44l-331 -8l-33 -207
c-2.66699 -9.33301 -3.16699 -17.5 -1.5 -24.5s3 -13 4 -18s3.66699 -9.16699 8 -12.5s8.16602 -5.83301 11.499 -7.5s8 -3.16699 14 -4.5c9.33301 -1.33301 20 -2 32 -2h291l-8 -43l-290 -14c-3.33301 -0.666992 -9.16602 -1 -17.499 -1s-19.5 2 -33.5 6
c-46.667 11.333 -70 42.333 -70 93c0 8.66699 0.666992 17.667 2 27l18 116h-220l-167 -237h-67l419 599c48.667 70.667 95.667 112 141 124zM302 294.999h192l57 351z" />
    <glyph glyph-name="Ccedilla" unicode="&#xc7;" horiz-adv-x="573" 
d="M429 740c48 0 120.667 -9.33105 218 -27.998l-7 -44c-74 10 -144.333 15 -211 15c-40.667 0 -70.334 -3.16699 -89.001 -9.5s-33.5 -13.833 -44.5 -22.5s-22.833 -20.834 -35.5 -36.501s-24 -34.5 -34 -56.5c-22 -49.333 -37.667 -104.5 -47 -165.5
s-14 -104.167 -14 -129.5s0.333008 -45 1 -59c4.66699 -46 18.667 -82.5 42 -109.5s56 -41.167 98 -42.5c8 -0.666992 27 -1 57 -1s91 3.33301 183 10l-6 -44c-62 -15.333 -141.333 -23 -238 -23c-36.667 0 -68 7.33301 -94 22c-68.667 37.333 -103 115.666 -103 234.999
c0 73.333 12.333 156 37 248c22.667 82 53.667 141.667 93 179c44.667 41.333 109.334 62 194.001 62zM235 -172.998h-44.001l4 27l48 12c18.667 4 32.834 13.5 42.501 28.5s16.834 37.833 21.501 68.5h51c-8.66699 -51.333 -21.334 -86.833 -38.001 -106.5
s-45 -29.5 -85 -29.5z" />
    <glyph glyph-name="Egrave" unicode="&#xc8;" horiz-adv-x="565" 
d="M289 925h67l104 -133h-51zM311 732h10l308 -14l-7 -44h-310c-46 0 -72.667 -24 -80 -72l-34 -209l338 -8l-7 -44l-340 -9l-33 -209c-1.33301 -7.33301 -2 -14.166 -2 -20.499s1 -13.333 3 -21s7.33301 -13.5 16 -17.5c12 -6.66699 29 -10 51 -10h300l-7 -42l-303 -15h-10
c-33.333 0 -59.833 8.5 -79.5 25.5s-29.5 40.833 -29.5 71.5c0 9.33301 1 19.666 3 30.999l76 479c14 85.333 59.667 128 137 128z" />
    <glyph glyph-name="Eacute" unicode="&#xc9;" horiz-adv-x="565" 
d="M401 792l133 133h72l-154 -133h-51zM311 732h10l308 -14l-7 -44h-310c-46 0 -72.667 -24 -80 -72l-34 -209l338 -8l-7 -44l-340 -9l-33 -209c-1.33301 -7.33301 -2 -14.166 -2 -20.499s1 -13.333 3 -21s7.33301 -13.5 16 -17.5c12 -6.66699 29 -10 51 -10h300l-7 -42
l-303 -15h-10c-33.333 0 -59.833 8.5 -79.5 25.5s-29.5 40.833 -29.5 71.5c0 9.33301 1 19.666 3 30.999l76 479c14 85.333 59.667 128 137 128z" />
    <glyph glyph-name="Ecircumflex" unicode="&#xca;" horiz-adv-x="565" 
d="M288 792l143 131h54l88 -131h-51l-66 92l-106 -92h-62zM311 732h10l308 -14l-7 -44h-310c-46 0 -72.667 -24 -80 -72l-34 -209l338 -8l-7 -44l-340 -9l-33 -209c-1.33301 -7.33301 -2 -14.166 -2 -20.499s1 -13.333 3 -21s7.33301 -13.5 16 -17.5
c12 -6.66699 29 -10 51 -10h300l-7 -42l-303 -15h-10c-33.333 0 -59.833 8.5 -79.5 25.5s-29.5 40.833 -29.5 71.5c0 9.33301 1 19.666 3 30.999l76 479c14 85.333 59.667 128 137 128z" />
    <glyph glyph-name="Edieresis" unicode="&#xcb;" horiz-adv-x="565" 
d="M294 879c5.33301 2 11.1689 2.99902 17.502 2.99902s12.166 -1.66699 17.499 -5c11.333 -7.33301 16 -17.666 14 -30.999s-7.33301 -23.833 -16 -31.5s-18.5 -11.5 -29.5 -11.5s-19.833 3.83301 -26.5 11.5s-9.33398 15.667 -8.00098 24s3.5 15 6.5 20
s6.5 9.16699 10.5 12.5s8.66699 6 14 8zM565.003 881.999c7.33301 0 13.667 -1.66797 19 -5.00098c11.333 -7.33301 16 -17.666 14 -30.999s-7.33301 -23.833 -16 -31.5s-18.5 -11.5 -29.5 -11.5s-19.833 3.83301 -26.5 11.5s-9.33398 16.167 -8.00098 25.5s4.33301 17 9 23
s10.334 10.667 17.001 14s13.667 5 21 5zM311.004 731.998h10l308 -14l-7 -44h-310c-46 0 -72.667 -24 -80 -72l-34 -209l338 -8l-7 -44l-340 -9l-33 -209c-1.33301 -7.33301 -2 -14.166 -2 -20.499s1 -13.333 3 -21s7.33301 -13.5 16 -17.5c12 -6.66699 29 -10 51 -10h300
l-7 -42l-303 -15h-10c-33.333 0 -59.833 8.5 -79.5 25.5s-29.5 40.833 -29.5 71.5c0 9.33301 1 19.666 3 30.999l76 479c14 85.333 59.667 128 137 128z" />
    <glyph glyph-name="Igrave" unicode="&#xcc;" horiz-adv-x="214" 
d="M100 930h67l104 -133h-51zM90 0l116 732h58l-116 -732h-58z" />
    <glyph glyph-name="Iacute" unicode="&#xcd;" horiz-adv-x="214" 
d="M220 797l132 133h73l-154 -133h-51zM90 0l116 732h58l-116 -732h-58z" />
    <glyph glyph-name="Icircumflex" unicode="&#xce;" horiz-adv-x="214" 
d="M103 797l142 130h55l88 -130h-49l-69 94l-108 -94h-59zM90 0l116 732h58l-116 -732h-58z" />
    <glyph glyph-name="Idieresis" unicode="&#xcf;" horiz-adv-x="214" 
d="M100.5 865c9 7.33301 18.168 10.999 27.501 10.999s16.666 -1.66699 21.999 -5c11.333 -7.33301 16 -17.666 14 -30.999s-7.33301 -23.833 -16 -31.5s-18.5 -11.5 -29.5 -11.5s-19.5 3.5 -25.5 10.5s-9 13.167 -9 18.5s0.5 11.333 1.5 18s6 13.667 15 21z
M355.501 864.999c9 7.33301 18.168 11.002 27.501 11.002c17.333 0 28.666 -6.33301 33.999 -19c1.33301 -4 2 -7.83301 2 -11.5s-0.5 -8.83398 -1.5 -15.501s-5.83301 -13.834 -14.5 -21.501s-18.5 -11.5 -29.5 -11.5s-19.833 4 -26.5 12s-9.16699 17.5 -7.5 28.5
s7 20.167 16 27.5zM90.002 0.000976562l116 732h58l-116 -732h-58z" />
    <glyph glyph-name="Eth" unicode="&#xd0;" horiz-adv-x="673" 
d="M461 732c36 0 67.667 -6 95 -18s48.333 -28.667 63 -50c32 -44 49.667 -93.667 53 -149c1.33301 -16 2 -30.667 2 -44c0 -86 -16.333 -170.667 -49 -254c-56 -144.667 -148.667 -217 -278 -217h-268l56 353h-65l7 40h65l53 338c0 0.666992 88.667 1 266 1zM616 477
c0 132 -55 198.002 -165 198.002h-208l-44 -282h146l-7 -40h-146l-46 -293h209c81.333 0 146 44.333 194 133c27.333 49.333 45.333 100.666 54 153.999s13 96.666 13 129.999z" />
    <glyph glyph-name="Ntilde" unicode="&#xd1;" horiz-adv-x="654" 
d="M575 861.5c22.667 10.333 38.999 18.833 48.999 25.5l11 -31c-4 -2.66699 -11.833 -8.16699 -23.5 -16.5l-25.5 -18c-5.33301 -3.66699 -12.666 -8.16699 -21.999 -13.5c-33.333 -18.667 -64 -19.334 -92 -2.00098c-12.667 8 -24.334 15.833 -35.001 23.5
s-18.334 11.5 -23.001 11.5h-14.5c-5 0 -12.5 -1.5 -22.5 -4.5s-17.833 -5.83301 -23.5 -8.5s-14.167 -7.16699 -25.5 -13.5l-24 -13.5l-12 30c35.333 26 61.666 42.833 78.999 50.5s33.333 11.334 48 11.001s33.334 -7.83301 56.001 -22.5
c22.667 -16 39.334 -24 50.001 -24s27.334 5.16699 50.001 15.5zM79.999 0l116 732h56l296 -625l100 625h57l-116 -732h-55l-297 626l-99 -626h-58z" />
    <glyph glyph-name="Ograve" unicode="&#xd2;" horiz-adv-x="672" 
d="M312 930h67l104 -133h-51zM385 735c17.333 1.33301 38.8311 1.99512 64.498 1.99512s48.334 -1.16699 68.001 -3.5s39.334 -6.66602 59.001 -12.999s35.834 -15.166 48.501 -26.499c30 -27.333 48.667 -65.333 56 -114c2.66699 -20 4 -38.667 4 -56
c0 -90 -11.333 -181.333 -34 -274c-22.667 -93.333 -55 -158 -97 -194c-29.333 -25.333 -57 -40.666 -83 -45.999c-62 -14 -127.667 -17.667 -197 -11c-48.667 4.66699 -84.667 17 -108 37c-31.333 26 -50.666 62.333 -57.999 109c-3.33301 20.667 -5 39.5 -5 56.5
s0.333008 36.5 1 58.5s4.5 55.333 11.5 100s14.667 84 23 118s17.666 63.5 27.999 88.5s21 46.833 32 65.5s23.833 34.334 38.5 47.001s29 22.834 43 30.501s30.667 13.5 50 17.5s37.666 6.66699 54.999 8zM200.498 492.995c-9.66699 -36.667 -19 -82.998 -28 -138.998
s-13.5 -98.167 -13.5 -126.5s2 -52.166 6 -71.499s10.167 -36 18.5 -50s20.833 -25 37.5 -33c27.333 -12.667 63 -19 107 -19s77.333 2.16699 100 6.5s44.5 12.666 65.5 24.999s38.5 30.166 52.5 53.499c30 48 53 122 69 222c9.33301 59.333 14 112.333 14 159
c0 36 -6.66699 69.333 -20 100c-8 18 -24.333 33 -49 45c-14.667 7.33301 -33.167 11.666 -55.5 12.999s-45 2 -68 2s-42.167 -0.833008 -57.5 -2.5s-33.5 -5.5 -54.5 -11.5s-37.5 -15.667 -49.5 -29s-25 -31.5 -39 -54.5s-25.833 -52.833 -35.5 -89.5z" />
    <glyph glyph-name="Oacute" unicode="&#xd3;" horiz-adv-x="672" 
d="M432 797l133 133h72l-154 -133h-51zM385 735c17.333 1.33301 38.8311 1.99512 64.498 1.99512s48.334 -1.16699 68.001 -3.5s39.334 -6.66602 59.001 -12.999s35.834 -15.166 48.501 -26.499c30 -27.333 48.667 -65.333 56 -114c2.66699 -20 4 -38.667 4 -56
c0 -90 -11.333 -181.333 -34 -274c-22.667 -93.333 -55 -158 -97 -194c-29.333 -25.333 -57 -40.666 -83 -45.999c-62 -14 -127.667 -17.667 -197 -11c-48.667 4.66699 -84.667 17 -108 37c-31.333 26 -50.666 62.333 -57.999 109c-3.33301 20.667 -5 39.5 -5 56.5
s0.333008 36.5 1 58.5s4.5 55.333 11.5 100s14.667 84 23 118s17.666 63.5 27.999 88.5s21 46.833 32 65.5s23.833 34.334 38.5 47.001s29 22.834 43 30.501s30.667 13.5 50 17.5s37.666 6.66699 54.999 8zM200.498 492.995c-9.66699 -36.667 -19 -82.998 -28 -138.998
s-13.5 -98.167 -13.5 -126.5s2 -52.166 6 -71.499s10.167 -36 18.5 -50s20.833 -25 37.5 -33c27.333 -12.667 63 -19 107 -19s77.333 2.16699 100 6.5s44.5 12.666 65.5 24.999s38.5 30.166 52.5 53.499c30 48 53 122 69 222c9.33301 59.333 14 112.333 14 159
c0 36 -6.66699 69.333 -20 100c-8 18 -24.333 33 -49 45c-14.667 7.33301 -33.167 11.666 -55.5 12.999s-45 2 -68 2s-42.167 -0.833008 -57.5 -2.5s-33.5 -5.5 -54.5 -11.5s-37.5 -15.667 -49.5 -29s-25 -31.5 -39 -54.5s-25.833 -52.833 -35.5 -89.5z" />
    <glyph glyph-name="Ocircumflex" unicode="&#xd4;" horiz-adv-x="672" 
d="M315 797l143 130h54l88 -130h-49l-69 94l-108 -94h-59zM385 735c17.333 1.33301 38.8311 1.99512 64.498 1.99512s48.334 -1.16699 68.001 -3.5s39.334 -6.66602 59.001 -12.999s35.834 -15.166 48.501 -26.499c30 -27.333 48.667 -65.333 56 -114
c2.66699 -20 4 -38.667 4 -56c0 -90 -11.333 -181.333 -34 -274c-22.667 -93.333 -55 -158 -97 -194c-29.333 -25.333 -57 -40.666 -83 -45.999c-62 -14 -127.667 -17.667 -197 -11c-48.667 4.66699 -84.667 17 -108 37c-31.333 26 -50.666 62.333 -57.999 109
c-3.33301 20.667 -5 39.5 -5 56.5s0.333008 36.5 1 58.5s4.5 55.333 11.5 100s14.667 84 23 118s17.666 63.5 27.999 88.5s21 46.833 32 65.5s23.833 34.334 38.5 47.001s29 22.834 43 30.501s30.667 13.5 50 17.5s37.666 6.66699 54.999 8zM200.498 492.995
c-9.66699 -36.667 -19 -82.998 -28 -138.998s-13.5 -98.167 -13.5 -126.5s2 -52.166 6 -71.499s10.167 -36 18.5 -50s20.833 -25 37.5 -33c27.333 -12.667 63 -19 107 -19s77.333 2.16699 100 6.5s44.5 12.666 65.5 24.999s38.5 30.166 52.5 53.499c30 48 53 122 69 222
c9.33301 59.333 14 112.333 14 159c0 36 -6.66699 69.333 -20 100c-8 18 -24.333 33 -49 45c-14.667 7.33301 -33.167 11.666 -55.5 12.999s-45 2 -68 2s-42.167 -0.833008 -57.5 -2.5s-33.5 -5.5 -54.5 -11.5s-37.5 -15.667 -49.5 -29s-25 -31.5 -39 -54.5
s-25.833 -52.833 -35.5 -89.5z" />
    <glyph glyph-name="Otilde" unicode="&#xd5;" horiz-adv-x="672" 
d="M577 865c22.667 10 38.6631 18.332 47.9961 24.999l12 -30l-20.5 -14.5l-21 -15c-5 -3.66699 -11.333 -7.83398 -19 -12.501s-14.5 -8.33398 -20.5 -11.001c-33.333 -14.667 -63.666 -12 -90.999 8l-19 13c-14 11.333 -25.833 16.833 -35.5 16.5
s-18.167 -1.16602 -25.5 -2.49902s-14.5 -3.5 -21.5 -6.5s-13.167 -6 -18.5 -9l-20 -11.5c-8 -4.66699 -14.667 -8 -20 -10l-11 30c34.667 26 60.834 42.833 78.501 50.5s33.834 11.334 48.501 11.001s33 -8.16602 55 -23.499c23.333 -15.333 40.333 -23 51 -23
s27.334 5 50.001 15zM384.996 734.999c17.333 1.33301 38.8311 1.99512 64.498 1.99512s48.334 -1.16699 68.001 -3.5s39.334 -6.66602 59.001 -12.999s35.834 -15.166 48.501 -26.499c30 -27.333 48.667 -65.333 56 -114c2.66699 -20 4 -38.667 4 -56
c0 -90 -11.333 -181.333 -34 -274c-22.667 -93.333 -55 -158 -97 -194c-29.333 -25.333 -57 -40.666 -83 -45.999c-62 -14 -127.667 -17.667 -197 -11c-48.667 4.66699 -84.667 17 -108 37c-31.333 26 -50.666 62.333 -57.999 109c-3.33301 20.667 -5 39.5 -5 56.5
s0.333008 36.5 1 58.5s4.5 55.333 11.5 100s14.667 84 23 118s17.666 63.5 27.999 88.5s21 46.833 32 65.5s23.833 34.334 38.5 47.001s29 22.834 43 30.501s30.667 13.5 50 17.5s37.666 6.66699 54.999 8zM200.494 492.994c-9.66699 -36.667 -19 -82.998 -28 -138.998
s-13.5 -98.167 -13.5 -126.5s2 -52.166 6 -71.499s10.167 -36 18.5 -50s20.833 -25 37.5 -33c27.333 -12.667 63 -19 107 -19s77.333 2.16699 100 6.5s44.5 12.666 65.5 24.999s38.5 30.166 52.5 53.499c30 48 53 122 69 222c9.33301 59.333 14 112.333 14 159
c0 36 -6.66699 69.333 -20 100c-8 18 -24.333 33 -49 45c-14.667 7.33301 -33.167 11.666 -55.5 12.999s-45 2 -68 2s-42.167 -0.833008 -57.5 -2.5s-33.5 -5.5 -54.5 -11.5s-37.5 -15.667 -49.5 -29s-25 -31.5 -39 -54.5s-25.833 -52.833 -35.5 -89.5z" />
    <glyph glyph-name="Odieresis" unicode="&#xd6;" horiz-adv-x="672" 
d="M343 876c11.333 0 20.001 -3.66797 26.001 -11.001s8.16699 -16.666 6.5 -27.999s-6.83398 -20.833 -15.501 -28.5s-18.5 -11.5 -29.5 -11.5s-19.833 4 -26.5 12s-9.16699 17.5 -7.5 28.5s7 20.167 16 27.5s19.167 11 30.5 11zM598.001 875.999
c11.333 0 20.001 -3.66797 26.001 -11.001s8.16699 -16.666 6.5 -27.999s-6.83398 -20.833 -15.501 -28.5s-18.5 -11.5 -29.5 -11.5s-19.833 4 -26.5 12s-9.16699 17.5 -7.5 28.5s7 20.167 16 27.5s19.167 11 30.5 11zM385.002 734.998
c17.333 1.33301 38.8311 1.99512 64.498 1.99512s48.334 -1.16699 68.001 -3.5s39.334 -6.66602 59.001 -12.999s35.834 -15.166 48.501 -26.499c30 -27.333 48.667 -65.333 56 -114c2.66699 -20 4 -38.667 4 -56c0 -90 -11.333 -181.333 -34 -274
c-22.667 -93.333 -55 -158 -97 -194c-29.333 -25.333 -57 -40.666 -83 -45.999c-62 -14 -127.667 -17.667 -197 -11c-48.667 4.66699 -84.667 17 -108 37c-31.333 26 -50.666 62.333 -57.999 109c-3.33301 20.667 -5 39.5 -5 56.5s0.333008 36.5 1 58.5s4.5 55.333 11.5 100
s14.667 84 23 118s17.666 63.5 27.999 88.5s21 46.833 32 65.5s23.833 34.334 38.5 47.001s29 22.834 43 30.501s30.667 13.5 50 17.5s37.666 6.66699 54.999 8zM200.5 492.993c-9.66699 -36.667 -19 -82.998 -28 -138.998s-13.5 -98.167 -13.5 -126.5s2 -52.166 6 -71.499
s10.167 -36 18.5 -50s20.833 -25 37.5 -33c27.333 -12.667 63 -19 107 -19s77.333 2.16699 100 6.5s44.5 12.666 65.5 24.999s38.5 30.166 52.5 53.499c30 48 53 122 69 222c9.33301 59.333 14 112.333 14 159c0 36 -6.66699 69.333 -20 100c-8 18 -24.333 33 -49 45
c-14.667 7.33301 -33.167 11.666 -55.5 12.999s-45 2 -68 2s-42.167 -0.833008 -57.5 -2.5s-33.5 -5.5 -54.5 -11.5s-37.5 -15.667 -49.5 -29s-25 -31.5 -39 -54.5s-25.833 -52.833 -35.5 -89.5z" />
    <glyph glyph-name="multiply" unicode="&#xd7;" horiz-adv-x="453" 
d="M93 234l142 123l-102 122l43 37l102 -122l148 127l35 -42l-147 -127l104 -123l-44 -37l-103 123l-143 -123z" />
    <glyph glyph-name="Oslash" unicode="&#xd8;" horiz-adv-x="672" 
d="M131 72c-20 32.667 -30.001 75.3369 -30.001 128.004s4 105 12 157s17.167 96.667 27.5 134s21 69.166 32 95.499s24.167 48.666 39.5 66.999s30.5 33 45.5 44s33.167 19.5 54.5 25.5c34.667 9.33301 76.167 14 124.5 14s87.333 -3.33301 117 -10s54.167 -19 73.5 -37
l34 42h46l-56 -70c21.333 -34.667 32 -85.667 32 -153c0 -43.333 -4.16699 -92.5 -12.5 -147.5s-18.166 -102.167 -29.499 -141.5s-24.666 -72.333 -39.999 -99s-31.333 -48.334 -48 -65.001s-37 -29.334 -61 -38.001c-40 -14.667 -86.333 -22 -139 -22
s-93.834 3.16699 -123.501 9.5s-54.167 18.833 -73.5 37.5l-35 -43h-47zM198.499 493.003c-9.66699 -36.667 -18.833 -81.832 -27.5 -135.499s-13 -100.5 -13 -140.5s5 -71.333 15 -94l417 521c-14.667 15.333 -33.334 25.166 -56.001 29.499s-50.667 6.5 -84 6.5
s-57.666 -0.833008 -72.999 -2.5s-33.5 -5.5 -54.5 -11.5s-37.5 -15.667 -49.5 -29s-25 -31.5 -39 -54.5s-25.833 -52.833 -35.5 -89.5zM280 56.0049c18 -1.33301 41.3311 -1.99609 69.998 -1.99609s54.334 2.16699 77.001 6.5s44.334 12.666 65.001 24.999
s38 30.166 52 53.499c30 48 53 122 69 222c8.66699 58.667 13 109.167 13 151.5s-5 75.166 -15 98.499l-417 -520c18 -18.667 46.667 -30.334 86 -35.001z" />
    <glyph glyph-name="Ugrave" unicode="&#xd9;" horiz-adv-x="664" 
d="M317 930h67l104 -133h-51zM186 308c-6 -42 -9 -76.1641 -9 -102.497s2.33301 -48.333 7 -66s11.167 -32.334 19.5 -44.001s20.166 -20.834 35.499 -27.501c25.333 -10 57.5 -15.167 96.5 -15.5s70.5 3 94.5 10s46.667 19.5 68 37.5c40.667 34.667 69.334 104 86.001 208
l67 424h58l-67 -424c-8.66699 -53.333 -19.667 -98.333 -33 -135s-31.333 -69 -54 -97c-44.667 -54 -116.667 -81 -216 -81c-73.333 0 -127 14 -161 42c-39.333 33.333 -59 88.666 -59 165.999c0 31.333 3 66.333 9 105l67 424h59z" />
    <glyph glyph-name="Uacute" unicode="&#xda;" horiz-adv-x="664" 
d="M437 797l133 133h72l-154 -133h-51zM186 308c-6 -42 -9 -76.1641 -9 -102.497s2.33301 -48.333 7 -66s11.167 -32.334 19.5 -44.001s20.166 -20.834 35.499 -27.501c25.333 -10 57.5 -15.167 96.5 -15.5s70.5 3 94.5 10s46.667 19.5 68 37.5
c40.667 34.667 69.334 104 86.001 208l67 424h58l-67 -424c-8.66699 -53.333 -19.667 -98.333 -33 -135s-31.333 -69 -54 -97c-44.667 -54 -116.667 -81 -216 -81c-73.333 0 -127 14 -161 42c-39.333 33.333 -59 88.666 -59 165.999c0 31.333 3 66.333 9 105l67 424h59z" />
    <glyph glyph-name="Ucircumflex" unicode="&#xdb;" horiz-adv-x="664" 
d="M320 797l143 130h54l88 -130h-49l-69 94l-108 -94h-59zM186 308c-6 -42 -9 -76.1641 -9 -102.497s2.33301 -48.333 7 -66s11.167 -32.334 19.5 -44.001s20.166 -20.834 35.499 -27.501c25.333 -10 57.5 -15.167 96.5 -15.5s70.5 3 94.5 10s46.667 19.5 68 37.5
c40.667 34.667 69.334 104 86.001 208l67 424h58l-67 -424c-8.66699 -53.333 -19.667 -98.333 -33 -135s-31.333 -69 -54 -97c-44.667 -54 -116.667 -81 -216 -81c-73.333 0 -127 14 -161 42c-39.333 33.333 -59 88.666 -59 165.999c0 31.333 3 66.333 9 105l67 424h59z" />
    <glyph glyph-name="Udieresis" unicode="&#xdc;" horiz-adv-x="664" 
d="M318 865c9.33301 7.33301 18.5 10.999 27.5 10.999s16.167 -1.66699 21.5 -5c12 -7.33301 17 -17.666 15 -30.999s-7.5 -23.833 -16.5 -31.5s-19 -11.5 -30 -11.5s-19.833 4 -26.5 12s-9.16699 17.5 -7.5 28.5s7.16699 20.167 16.5 27.5zM573 864.999
c9.33301 7.33301 18.5 10.999 27.5 10.999s16.167 -1.66699 21.5 -5c12 -7.33301 17 -17.666 15 -30.999s-7.5 -23.833 -16.5 -31.5s-19 -11.5 -30 -11.5s-19.833 4 -26.5 12s-9.16699 17.5 -7.5 28.5s7.16699 20.167 16.5 27.5zM186 307.998
c-6 -42 -9 -76.1641 -9 -102.497s2.33301 -48.333 7 -66s11.167 -32.334 19.5 -44.001s20.166 -20.834 35.499 -27.501c25.333 -10 57.5 -15.167 96.5 -15.5s70.5 3 94.5 10s46.667 19.5 68 37.5c40.667 34.667 69.334 104 86.001 208l67 424h58l-67 -424
c-8.66699 -53.333 -19.667 -98.333 -33 -135s-31.333 -69 -54 -97c-44.667 -54 -116.667 -81 -216 -81c-73.333 0 -127 14 -161 42c-39.333 33.333 -59 88.666 -59 165.999c0 31.333 3 66.333 9 105l67 424h59z" />
    <glyph glyph-name="Yacute" unicode="&#xdd;" horiz-adv-x="629" 
d="M410 797l133 133h72l-154 -133h-51zM150 732h61l137 -400l284 400h68l-331 -472l-41 -260h-58l41 260z" />
    <glyph glyph-name="Thorn" unicode="&#xde;" horiz-adv-x="554" 
d="M60 0l115 728.999h57l-22 -141h204c25.333 0 47 -4 65 -12s31.333 -17.333 40 -28c26.667 -29.333 40 -68.666 40 -117.999c0 -16.667 -1.66699 -40.167 -5 -70.5s-10.666 -59.833 -21.999 -88.5s-23.333 -50.5 -36 -65.5s-28.334 -26.667 -47.001 -35
s-35.167 -13.5 -49.5 -15.5s-31.5 -3 -51.5 -3c-101.333 1.33301 -169 7 -203 17l-27 -169h-58zM354 209.999c37.333 0 67.333 9.99805 90 29.998c24.667 23.333 42.667 69 54 137c2.66699 14.667 4 26.167 4 34.5s-0.5 17.333 -1.5 27s-2.5 19.834 -4.5 30.501
s-6.16699 19.834 -12.5 27.501s-12.333 13.667 -18 18s-12.5 7.5 -20.5 9.5c-12.667 4 -26 6 -40 6h-204l-50 -320h203z" />
    <glyph glyph-name="germandbls" unicode="&#xdf;" horiz-adv-x="562" 
d="M217 54l174.997 -4.99316c30.667 0 55.334 8.16699 74.001 24.5s30 35.833 34 58.5l7 40c0.666992 2.66699 1 7.5 1 14.5s-4.33301 14.667 -13 23s-20.834 14.166 -36.501 17.499s-32.834 7.66602 -51.501 12.999s-35.667 11.166 -51 17.499
s-26.666 16.166 -33.999 29.499s-11 25.333 -11 36s1.16699 23.667 3.5 39s7.83301 30.166 16.5 44.499s22 28.166 40 41.499s47.667 31.666 89 54.999c18.667 11.333 35.334 26.666 50.001 45.999c21.333 29.333 32 58.166 32 86.499s-8.66699 48.5 -26 60.5
c-24 16 -63.333 24 -118 24c-110.667 0 -174 -51.333 -190 -154l-90 -566h-58l90 566c10 63.333 35.5 114.333 76.5 153s98.833 58 173.5 58c40.667 0 75.334 -4.66699 104.001 -14s50 -21.666 64 -36.999c22 -25.333 33 -54 33 -86c0 -26 -6.33301 -52 -19 -78
c-23.333 -48 -52.333 -82.333 -87 -103l-33 -18.5c-14 -7.66699 -24.833 -13.834 -32.5 -18.501s-16.167 -10.667 -25.5 -18c-22 -17.333 -33 -38.666 -33 -63.999c0 -11.333 4.16699 -21.333 12.5 -30s20.5 -14.834 36.5 -18.501s33.167 -8 51.5 -13s35.333 -10.333 51 -16
s27.167 -15 34.5 -28s11 -24.667 11 -35s-0.333008 -19.166 -1 -26.499l-7 -47c-10 -68 -50.333 -110.333 -121 -127c-18 -4.66699 -36 -7 -54 -7s-36.167 0.833008 -54.5 2.5s-33.166 3.16699 -44.499 4.5s-26 3.33301 -44 6s-28.333 4.33398 -31 5.00098z" />
    <glyph glyph-name="agrave" unicode="&#xe0;" 
d="M212 736h67l104 -133h-51zM256 531c14.667 4 29.666 6.99414 44.999 8.99414s33.5 3 54.5 3s53.333 -4.83301 97 -14.5s77.5 -26.167 101.5 -49.5l-70 -479h-40l-7 60c-22.667 -14.667 -52.167 -29.5 -88.5 -44.5s-67.833 -22.5 -94.5 -22.5s-48 1.5 -64 4.5
s-31 8.5 -45 16.5c-27.333 14 -46.666 42 -57.999 84c-5.33301 18.667 -8 35.334 -8 50.001s0.166992 30.334 0.5 47.001s4 45.334 11 86.001s16.667 76.834 29 108.501s25.333 56.334 39 74.001s29.667 32.334 48 44.001s34.833 19.5 49.5 23.5zM170.999 364.494
c-10.667 -30.333 -18.999 -64.333 -24.999 -102s-9 -70.167 -9 -97.5c0 -76.667 34.667 -115 104 -115c38.667 0 70.667 4.33301 96 13c31.333 10 65.666 23 102.999 39l54 358c-54 18 -101.667 27 -143 27c-36 0 -64.833 -4.83301 -86.5 -14.5s-40 -22.5 -55 -38.5
s-27.833 -39.167 -38.5 -69.5z" />
    <glyph glyph-name="aacute" unicode="&#xe1;" 
d="M339 603l133 133h72l-154 -133h-51zM256 531c14.667 4 29.666 6.99414 44.999 8.99414s33.5 3 54.5 3s53.333 -4.83301 97 -14.5s77.5 -26.167 101.5 -49.5l-70 -479h-40l-7 60c-22.667 -14.667 -52.167 -29.5 -88.5 -44.5s-67.833 -22.5 -94.5 -22.5s-48 1.5 -64 4.5
s-31 8.5 -45 16.5c-27.333 14 -46.666 42 -57.999 84c-5.33301 18.667 -8 35.334 -8 50.001s0.166992 30.334 0.5 47.001s4 45.334 11 86.001s16.667 76.834 29 108.501s25.333 56.334 39 74.001s29.667 32.334 48 44.001s34.833 19.5 49.5 23.5zM170.999 364.494
c-10.667 -30.333 -18.999 -64.333 -24.999 -102s-9 -70.167 -9 -97.5c0 -76.667 34.667 -115 104 -115c38.667 0 70.667 4.33301 96 13c31.333 10 65.666 23 102.999 39l54 358c-54 18 -101.667 27 -143 27c-36 0 -64.833 -4.83301 -86.5 -14.5s-40 -22.5 -55 -38.5
s-27.833 -39.167 -38.5 -69.5z" />
    <glyph glyph-name="acircumflex" unicode="&#xe2;" 
d="M215 603l143 130h54l88 -130h-49l-69 94l-108 -94h-59zM256 531c14.667 4 29.666 6.99414 44.999 8.99414s33.5 3 54.5 3s53.333 -4.83301 97 -14.5s77.5 -26.167 101.5 -49.5l-70 -479h-40l-7 60c-22.667 -14.667 -52.167 -29.5 -88.5 -44.5s-67.833 -22.5 -94.5 -22.5
s-48 1.5 -64 4.5s-31 8.5 -45 16.5c-27.333 14 -46.666 42 -57.999 84c-5.33301 18.667 -8 35.334 -8 50.001s0.166992 30.334 0.5 47.001s4 45.334 11 86.001s16.667 76.834 29 108.501s25.333 56.334 39 74.001s29.667 32.334 48 44.001s34.833 19.5 49.5 23.5z
M170.999 364.494c-10.667 -30.333 -18.999 -64.333 -24.999 -102s-9 -70.167 -9 -97.5c0 -76.667 34.667 -115 104 -115c38.667 0 70.667 4.33301 96 13c31.333 10 65.666 23 102.999 39l54 358c-54 18 -101.667 27 -143 27c-36 0 -64.833 -4.83301 -86.5 -14.5
s-40 -22.5 -55 -38.5s-27.833 -39.167 -38.5 -69.5z" />
    <glyph glyph-name="atilde" unicode="&#xe3;" 
d="M482.5 671c23 10 39.167 18.3301 48.5 24.9971l11 -30c-4 -3.33301 -11.833 -9.16602 -23.5 -17.499l-25.5 -18c-5.33301 -3.66699 -12.666 -8.16699 -21.999 -13.5c-33.333 -18 -64 -18.333 -92 -1c-12.667 8 -24.334 15.833 -35.001 23.5s-18.334 11.5 -23.001 11.5
s-9.5 -0.166992 -14.5 -0.5s-12.5 -1.83301 -22.5 -4.5s-17.833 -5.5 -23.5 -8.5l-25.5 -14c-11.333 -6.33301 -19.333 -10.5 -24 -12.5l-12 30c35.333 26 61.666 42.833 78.999 50.5s33.333 11.334 48 11.001s33.334 -8.16602 56.001 -23.499s39.334 -23 50.001 -23
s27.5 5 50.5 15zM256 530.997c14.667 4 29.666 6.99414 44.999 8.99414s33.5 3 54.5 3s53.333 -4.83301 97 -14.5s77.5 -26.167 101.5 -49.5l-70 -479h-40l-7 60c-22.667 -14.667 -52.167 -29.5 -88.5 -44.5s-67.833 -22.5 -94.5 -22.5s-48 1.5 -64 4.5s-31 8.5 -45 16.5
c-27.333 14 -46.666 42 -57.999 84c-5.33301 18.667 -8 35.334 -8 50.001s0.166992 30.334 0.5 47.001s4 45.334 11 86.001s16.667 76.834 29 108.501s25.333 56.334 39 74.001s29.667 32.334 48 44.001s34.833 19.5 49.5 23.5zM170.999 364.491
c-10.667 -30.333 -18.999 -64.333 -24.999 -102s-9 -70.167 -9 -97.5c0 -76.667 34.667 -115 104 -115c38.667 0 70.667 4.33301 96 13c31.333 10 65.666 23 102.999 39l54 358c-54 18 -101.667 27 -143 27c-36 0 -64.833 -4.83301 -86.5 -14.5s-40 -22.5 -55 -38.5
s-27.833 -39.167 -38.5 -69.5z" />
    <glyph glyph-name="adieresis" unicode="&#xe4;" 
d="M243.5 682c11 0 19.668 -3.66895 26.001 -11.002s8.66602 -16.666 6.99902 -27.999s-7 -20.833 -16 -28.5s-19 -11.5 -30 -11.5s-19.833 4 -26.5 12s-9.16699 17.333 -7.5 28s7.16699 19.834 16.5 27.501s19.5 11.5 30.5 11.5zM498.501 681.998
c11 0 19.668 -3.66895 26.001 -11.002s8.66602 -16.666 6.99902 -27.999s-7 -20.833 -16 -28.5s-19 -11.5 -30 -11.5s-19.833 4 -26.5 12s-9.16699 17.333 -7.5 28s7.16699 19.834 16.5 27.501s19.5 11.5 30.5 11.5zM256.002 530.996
c14.667 4 29.666 6.99414 44.999 8.99414s33.5 3 54.5 3s53.333 -4.83301 97 -14.5s77.5 -26.167 101.5 -49.5l-70 -479h-40l-7 60c-22.667 -14.667 -52.167 -29.5 -88.5 -44.5s-67.833 -22.5 -94.5 -22.5s-48 1.5 -64 4.5s-31 8.5 -45 16.5
c-27.333 14 -46.666 42 -57.999 84c-5.33301 18.667 -8 35.334 -8 50.001s0.166992 30.334 0.5 47.001s4 45.334 11 86.001s16.667 76.834 29 108.501s25.333 56.334 39 74.001s29.667 32.334 48 44.001s34.833 19.5 49.5 23.5zM171.001 364.49
c-10.667 -30.333 -18.999 -64.333 -24.999 -102s-9 -70.167 -9 -97.5c0 -76.667 34.667 -115 104 -115c38.667 0 70.667 4.33301 96 13c31.333 10 65.666 23 102.999 39l54 358c-54 18 -101.667 27 -143 27c-36 0 -64.833 -4.83301 -86.5 -14.5s-40 -22.5 -55 -38.5
s-27.833 -39.167 -38.5 -69.5z" />
    <glyph glyph-name="aring" unicode="&#xe5;" 
d="M393 808c28 0 50.001 -9.33203 66.001 -27.999s24 -39.334 24 -62.001c0 -23.333 -6 -44 -18 -62c-24.667 -35.333 -56.334 -53 -95.001 -53c-28 0 -50.333 9.16699 -67 27.5s-25 38.833 -25 61.5c0 34 12.167 61.833 36.5 83.5s50.5 32.5 78.5 32.5zM331.001 657.501
c10.667 -11.667 25 -17.5 43 -17.5s34 6.33301 48 19c16.667 14.667 25 31 25 49s-5.16699 33 -15.5 45s-24.5 18 -42.5 18s-34 -6.66699 -48 -20c-17.333 -14.667 -26 -31 -26 -49s5.33301 -32.833 16 -44.5zM256.001 531.001c14.667 4 29.666 6.99414 44.999 8.99414
s33.5 3 54.5 3s53.333 -4.83301 97 -14.5s77.5 -26.167 101.5 -49.5l-70 -479h-40l-7 60c-22.667 -14.667 -52.167 -29.5 -88.5 -44.5s-67.833 -22.5 -94.5 -22.5s-48 1.5 -64 4.5s-31 8.5 -45 16.5c-27.333 14 -46.666 42 -57.999 84c-5.33301 18.667 -8 35.334 -8 50.001
s0.166992 30.334 0.5 47.001s4 45.334 11 86.001s16.667 76.834 29 108.501s25.333 56.334 39 74.001s29.667 32.334 48 44.001s34.833 19.5 49.5 23.5zM171 364.495c-10.667 -30.333 -18.999 -64.333 -24.999 -102s-9 -70.167 -9 -97.5c0 -76.667 34.667 -115 104 -115
c38.667 0 70.667 4.33301 96 13c31.333 10 65.666 23 102.999 39l54 358c-54 18 -101.667 27 -143 27c-36 0 -64.833 -4.83301 -86.5 -14.5s-40 -22.5 -55 -38.5s-27.833 -39.167 -38.5 -69.5z" />
    <glyph glyph-name="ae" unicode="&#xe6;" horiz-adv-x="922" 
d="M217 531.5c14 3.66699 28.332 6.50195 42.999 8.50195s31.334 3 50.001 3s48.5 -4.33301 89.5 -13s75.833 -22.667 104.5 -42c38 35.333 96 53 174 53c103.333 0 164.666 -26.667 183.999 -80c4.66699 -13.333 7 -26.666 7 -39.999c0 -50 -11.333 -88.833 -34 -116.5
s-47.667 -46.834 -75 -57.501c-51.333 -20 -103.666 -30 -156.999 -30c-28.667 0 -56.5 2 -83.5 6s-44.167 7.66699 -51.5 11c-4.66699 -31.333 -7 -59.333 -7 -84s3 -44.334 9 -59.001c12 -28 38.667 -42.333 80 -43c12 -0.666992 35.333 -1 70 -1s93 6 175 18l-7 -43
c-70.667 -19.333 -151.667 -29 -243 -29c-65.333 0 -107.333 24.667 -126 74c-26 -18 -59.333 -34.833 -100 -50.5s-75 -23.5 -103 -23.5s-50 1.66699 -66 5s-31.333 9 -46 17c-27.333 15.333 -46.333 44 -57 86c-4.66699 18 -7 34.167 -7 48.5s0.166992 29.666 0.5 45.999
s4 44.833 11 85.5s17 77 30 109s26 57 39 75s28.833 32.667 47.5 44s35 18.833 49 22.5zM105.999 261.002c-6 -38.667 -9.00098 -71.3311 -9.00098 -97.998s4 -48.667 12 -66c14.667 -31.333 46.334 -47 95.001 -47c53.333 0 107.666 12 162.999 36
c16 7.33301 29.667 14.666 41 21.999c-2 13.333 -3 32.833 -3 58.5s5.83301 70.5 17.5 134.5s28.167 114 49.5 150c-70 23.333 -126.667 35 -170 35c-54.667 0 -98.667 -17.333 -132 -52c-29.333 -30.667 -50.666 -88.334 -63.999 -173.001zM473.998 274.005
c26.667 -3.33301 51.8311 -4.99902 75.498 -4.99902s42.834 0.333008 57.501 1s34.667 3.16699 60 7.5s47.5 10.666 66.5 18.999s35.5 20.166 49.5 35.499c19.333 20.667 29 45.334 29 74.001s-9.66699 48.834 -29 60.501s-54.666 17.5 -105.999 17.5
c-54 0 -93.667 -9.33301 -119 -28c-9.33301 -6.66699 -17.333 -12.834 -24 -18.501s-12.834 -13.667 -18.501 -24s-10.167 -19 -13.5 -26s-6.66602 -17.167 -9.99902 -30.5c-4.66699 -17.333 -8.66699 -34.5 -12 -51.5s-5.33301 -27.5 -6 -31.5z" />
    <glyph glyph-name="ccedilla" unicode="&#xe7;" horiz-adv-x="496" 
d="M139 159c0 -72 30.999 -108.003 92.999 -108.003c54.667 0 118.334 3.66699 191.001 11l36 3l-6 -42c-70 -19.333 -142.667 -29 -218 -29h-6c-98 0.666992 -147 59.334 -147 176.001c0 29.333 3.5 65 10.5 107s16.5 79.833 28.5 113.5s24.333 60 37 79
s27.834 33.667 45.501 44s34.167 16.833 49.5 19.5s34 4 56 4c53.333 0 124.666 -9 213.999 -27l-7 -41c-84.667 7.33301 -144.667 11 -180 11s-56.833 -0.5 -64.5 -1.5s-16.167 -3.16699 -25.5 -6.5s-17.333 -8.16602 -24 -14.499s-13.667 -14.833 -21 -25.5
s-14 -23.667 -20 -39c-12.667 -34 -23.667 -77.667 -33 -131c-6 -41.333 -9 -75.666 -9 -102.999zM179.999 -172.003l-45 -0.000976562l5 27l48 11c19.333 5.33301 33.833 15.333 43.5 30s16.5 37.334 20.5 68.001h51c-5.33301 -35.333 -12.5 -62.5 -21.5 -81.5
s-21.333 -32.833 -37 -41.5s-37.167 -13 -64.5 -13z" />
    <glyph glyph-name="egrave" unicode="&#xe8;" horiz-adv-x="528" 
d="M213 734h66l104 -133h-50zM274 534.5c22 4.33301 48.167 6.50195 78.5 6.50195s57.5 -2.66699 81.5 -8c70.667 -15.333 106 -54.666 106 -117.999c0 -46 -11.333 -82.833 -34 -110.5s-48 -46.834 -76 -57.501c-50.667 -20 -102.667 -30 -156 -30
c-28.667 0 -56.5 2 -83.5 6s-44.167 7.66699 -51.5 11c-5.33301 -31.333 -8 -55 -8 -71c0 -48 7.83301 -79 23.5 -93s37.5 -21.333 65.5 -22c12 -0.666992 35.333 -1 70 -1s93 6 175 18l-6 -43c-70.667 -19.333 -152 -29 -244 -29c-63.333 0 -104.666 23 -123.999 69
c-10 24 -15 54.167 -15 90.5s3.16699 72.666 9.5 108.999s11.666 63.5 15.999 81.5s10 36.833 17 56.5s14.667 36 23 49s18.833 25.833 31.5 38.5s27.167 22.667 43.5 30s35.5 13.166 57.5 17.499zM145 274.002c26.667 -3.33301 51.832 -4.99902 75.499 -4.99902
s42.834 0.333008 57.501 1s34.667 3.16699 60 7.5s47.333 10.666 66 18.999s35.334 20.166 50.001 35.499c18.667 20.667 28 45.334 28 74.001s-9.5 48.834 -28.5 60.501s-54.167 17.5 -105.5 17.5c-54 0 -93.667 -9.33301 -119 -28
c-9.33301 -6.66699 -17.333 -12.667 -24 -18s-12.834 -13.333 -18.501 -24s-10 -19.334 -13 -26.001s-6.5 -16.667 -10.5 -30c-4.66699 -17.333 -8.66699 -34.5 -12 -51.5s-5.33301 -27.833 -6 -32.5z" />
    <glyph glyph-name="eacute" unicode="&#xe9;" horiz-adv-x="528" 
d="M333 601l132 133h72l-154 -133h-50zM274 534.5c22 4.33301 48.167 6.50195 78.5 6.50195s57.5 -2.66699 81.5 -8c70.667 -15.333 106 -54.666 106 -117.999c0 -46 -11.333 -82.833 -34 -110.5s-48 -46.834 -76 -57.501c-50.667 -20 -102.667 -30 -156 -30
c-28.667 0 -56.5 2 -83.5 6s-44.167 7.66699 -51.5 11c-5.33301 -31.333 -8 -55 -8 -71c0 -48 7.83301 -79 23.5 -93s37.5 -21.333 65.5 -22c12 -0.666992 35.333 -1 70 -1s93 6 175 18l-6 -43c-70.667 -19.333 -152 -29 -244 -29c-63.333 0 -104.666 23 -123.999 69
c-10 24 -15 54.167 -15 90.5s3.16699 72.666 9.5 108.999s11.666 63.5 15.999 81.5s10 36.833 17 56.5s14.667 36 23 49s18.833 25.833 31.5 38.5s27.167 22.667 43.5 30s35.5 13.166 57.5 17.499zM145 274.002c26.667 -3.33301 51.832 -4.99902 75.499 -4.99902
s42.834 0.333008 57.501 1s34.667 3.16699 60 7.5s47.333 10.666 66 18.999s35.334 20.166 50.001 35.499c18.667 20.667 28 45.334 28 74.001s-9.5 48.834 -28.5 60.501s-54.167 17.5 -105.5 17.5c-54 0 -93.667 -9.33301 -119 -28
c-9.33301 -6.66699 -17.333 -12.667 -24 -18s-12.834 -13.333 -18.501 -24s-10 -19.334 -13 -26.001s-6.5 -16.667 -10.5 -30c-4.66699 -17.333 -8.66699 -34.5 -12 -51.5s-5.33301 -27.833 -6 -32.5z" />
    <glyph glyph-name="ecircumflex" unicode="&#xea;" horiz-adv-x="528" 
d="M215 601l143 130h55l88 -130h-49l-70 94l-107 -94h-60zM274 534.5c22 4.33301 48.167 6.50195 78.5 6.50195s57.5 -2.66699 81.5 -8c70.667 -15.333 106 -54.666 106 -117.999c0 -46 -11.333 -82.833 -34 -110.5s-48 -46.834 -76 -57.501
c-50.667 -20 -102.667 -30 -156 -30c-28.667 0 -56.5 2 -83.5 6s-44.167 7.66699 -51.5 11c-5.33301 -31.333 -8 -55 -8 -71c0 -48 7.83301 -79 23.5 -93s37.5 -21.333 65.5 -22c12 -0.666992 35.333 -1 70 -1s93 6 175 18l-6 -43c-70.667 -19.333 -152 -29 -244 -29
c-63.333 0 -104.666 23 -123.999 69c-10 24 -15 54.167 -15 90.5s3.16699 72.666 9.5 108.999s11.666 63.5 15.999 81.5s10 36.833 17 56.5s14.667 36 23 49s18.833 25.833 31.5 38.5s27.167 22.667 43.5 30s35.5 13.166 57.5 17.499zM145 274.002
c26.667 -3.33301 51.832 -4.99902 75.499 -4.99902s42.834 0.333008 57.501 1s34.667 3.16699 60 7.5s47.333 10.666 66 18.999s35.334 20.166 50.001 35.499c18.667 20.667 28 45.334 28 74.001s-9.5 48.834 -28.5 60.501s-54.167 17.5 -105.5 17.5
c-54 0 -93.667 -9.33301 -119 -28c-9.33301 -6.66699 -17.333 -12.667 -24 -18s-12.834 -13.333 -18.501 -24s-10 -19.334 -13 -26.001s-6.5 -16.667 -10.5 -30c-4.66699 -17.333 -8.66699 -34.5 -12 -51.5s-5.33301 -27.833 -6 -32.5z" />
    <glyph glyph-name="edieresis" unicode="&#xeb;" horiz-adv-x="528" 
d="M223 675c6.66699 3.33301 14.502 4.99902 23.502 4.99902s16.667 -3.66699 23 -11s8.66602 -16.666 6.99902 -27.999s-6.83398 -20.833 -15.501 -28.5s-18.5 -11.5 -29.5 -11.5s-19.833 4 -26.5 12s-9.33398 16.5 -8.00098 25.5s4.33301 16.5 9 22.5
s10.334 10.667 17.001 14zM478.002 674.999c6.66699 3.33301 14.502 4.99902 23.502 4.99902s16.667 -3.66699 23 -11s8.66602 -16.666 6.99902 -27.999s-6.83398 -20.833 -15.501 -28.5s-18.5 -11.5 -29.5 -11.5s-19.833 4 -26.5 12s-9.33398 16.5 -8.00098 25.5
s4.33301 16.5 9 22.5s10.334 10.667 17.001 14zM274.004 534.498c22 4.33301 48.167 6.50195 78.5 6.50195s57.5 -2.66699 81.5 -8c70.667 -15.333 106 -54.666 106 -117.999c0 -46 -11.333 -82.833 -34 -110.5s-48 -46.834 -76 -57.501c-50.667 -20 -102.667 -30 -156 -30
c-28.667 0 -56.5 2 -83.5 6s-44.167 7.66699 -51.5 11c-5.33301 -31.333 -8 -55 -8 -71c0 -48 7.83301 -79 23.5 -93s37.5 -21.333 65.5 -22c12 -0.666992 35.333 -1 70 -1s93 6 175 18l-6 -43c-70.667 -19.333 -152 -29 -244 -29c-63.333 0 -104.666 23 -123.999 69
c-10 24 -15 54.167 -15 90.5s3.16699 72.666 9.5 108.999s11.666 63.5 15.999 81.5s10 36.833 17 56.5s14.667 36 23 49s18.833 25.833 31.5 38.5s27.167 22.667 43.5 30s35.5 13.166 57.5 17.499zM145.004 274c26.667 -3.33301 51.832 -4.99902 75.499 -4.99902
s42.834 0.333008 57.501 1s34.667 3.16699 60 7.5s47.333 10.666 66 18.999s35.334 20.166 50.001 35.499c18.667 20.667 28 45.334 28 74.001s-9.5 48.834 -28.5 60.501s-54.167 17.5 -105.5 17.5c-54 0 -93.667 -9.33301 -119 -28
c-9.33301 -6.66699 -17.333 -12.667 -24 -18s-12.834 -13.333 -18.501 -24s-10 -19.334 -13 -26.001s-6.5 -16.667 -10.5 -30c-4.66699 -17.333 -8.66699 -34.5 -12 -51.5s-5.33301 -27.833 -6 -32.5z" />
    <glyph glyph-name="igrave" unicode="&#xec;" horiz-adv-x="185" 
d="M24 729h67l104 -133h-51zM60 0l84 531h58l-84 -531h-58z" />
    <glyph glyph-name="iacute" unicode="&#xed;" horiz-adv-x="185" 
d="M143 596l132 133h72l-154 -133h-50zM60 0l84 531h58l-84 -531h-58z" />
    <glyph glyph-name="icircumflex" unicode="&#xee;" horiz-adv-x="185" 
d="M24 596l143 130h54l88 -130h-49l-69 94l-107 -94h-60zM60 0l84 531h58l-84 -531h-58z" />
    <glyph glyph-name="idieresis" unicode="&#xef;" horiz-adv-x="185" 
d="M49.5 675c11 0 19.667 -3.66797 26 -11.001s8.66602 -16.666 6.99902 -27.999s-7 -20.833 -16 -28.5s-17.833 -11.5 -26.5 -11.5c-17.333 0 -28.666 6.66699 -33.999 20c-2 4.66699 -3 8.66699 -3 12s0.5 8.33301 1.5 15s6 13.667 15 21s19 11 30 11zM304.5 674.999
c11 0 19.333 -3.33203 25 -9.99902s8.5 -12.5 8.5 -17.5s-0.5 -11 -1.5 -18s-6 -14.333 -15 -22s-18 -11.5 -27 -11.5s-16.167 1.66699 -21.5 5c-12 8 -17 18.667 -15 32s7.5 23.666 16.5 30.999s19 11 30 11zM60 0l84 531h58l-84 -531h-58z" />
    <glyph glyph-name="eth" unicode="&#xf0;" horiz-adv-x="540" 
d="M479 681c41.333 -60 62.001 -144.333 62.001 -253c0 -54.667 -4.66699 -111.334 -14 -170.001c-14.667 -92 -38.834 -158 -72.501 -198s-82.167 -60 -145.5 -60h-95c-95.333 0 -143 56.333 -143 169c0 27.333 2.66699 58.333 8 93c16 94.667 40.167 163.167 72.5 205.5
s81.166 63.5 146.499 63.5h92c16.667 0 34.334 -3.33301 53.001 -10s30.667 -14 36 -22c-8 70.667 -27.333 124.334 -58 161.001l-160 -60l-11 45l132 49c-35.333 26 -81 39 -137 39h-7l8 50c87.333 0 154 -22 200 -66l129 49l12 -45zM163.001 368
c-10 -28.667 -18.332 -62.5 -24.999 -101.5s-10 -70.833 -10 -95.5s2 -44 6 -58c8 -28 24.667 -45 50 -51c9.33301 -2.66699 17.666 -4 24.999 -4h13h95h2c40 0 72.167 15.333 96.5 46s42.5 82.667 54.5 156c6.66699 42.667 10 72.167 10 88.5v27.5
c-1.33301 64.667 -34 97 -98 97h-90c-20 0 -37.333 -2.83301 -52 -8.5s-28.667 -16 -42 -31s-25 -36.833 -35 -65.5z" />
    <glyph glyph-name="ntilde" unicode="&#xf1;" 
d="M487 668c22.667 10 38.666 18.332 47.999 24.999l12 -30l-24 -17.5c-11.333 -8.33301 -19.833 -14.333 -25.5 -18s-13.167 -8.16699 -22.5 -13.5c-36 -20 -69.333 -18.667 -100 4l-19 13c-14 11.333 -26.333 16.833 -37 16.5s-21 -1.83301 -31 -4.5
s-17.833 -5.5 -23.5 -8.5l-25.5 -14c-11.333 -6.33301 -19.333 -10.5 -24 -12.5l-11 30c34.667 26 60.834 42.833 78.501 50.5s32.167 11.334 43.5 11.001s22.5 -3 33.5 -8s20.167 -10.167 27.5 -15.5c20 -15.333 36 -23 48 -23s29.333 5 52 15zM405.999 539.999
c50.667 0 88 -16.667 112 -50c18.667 -25.333 28 -54.666 28 -87.999c0 -10 -1 -20.667 -3 -32l-59 -370h-57l59 370c1.33301 8.66699 2 17 2 25c0 23.333 -7.16699 43.666 -21.5 60.999s-39 26 -74 26s-66.5 -4.16699 -94.5 -12.5s-65.667 -23.5 -113 -45.5l-67 -424h-58
l84 531h39l9 -62c66.667 36 119 58 157 66c18.667 3.33301 37.667 5 57 5z" />
    <glyph glyph-name="ograve" unicode="&#xf2;" horiz-adv-x="562" 
d="M225 729h67l104 -133h-51zM361 536c82.667 0 138.333 -22.6699 167 -68.0029c18.667 -30 28 -70 28 -120c0 -28 -2.66699 -58.667 -8 -92c-16.667 -99.333 -43.5 -167.666 -80.5 -204.999s-98.333 -56 -184 -56s-143.167 20.333 -172.5 61
c-19.333 26.667 -29 65.334 -29 116.001c0 26.667 3.5 61.834 10.5 105.501s17 83 30 118s30.5 63 52.5 84s47.5 35.667 76.5 44s65.5 12.5 109.5 12.5zM138.999 158.997c0 -10.667 2.33398 -23.1699 7.00098 -37.5029s10.5 -26.166 17.5 -35.499s17.5 -16.333 31.5 -21
c22 -8 49 -12.167 81 -12.5s56.167 0.833984 72.5 3.50098s32.666 8 48.999 16s29.833 19.333 40.5 34c23.333 32.667 40.666 83.334 51.999 152.001c6 37.333 9 66.666 9 87.999s-1.66699 39.333 -5 54s-8.66602 27.334 -15.999 38.001s-17.333 19 -30 25
c-22 10 -48.5 15 -79.5 15s-53.667 -0.666992 -68 -2s-29 -4.66602 -44 -9.99902s-27.5 -13 -37.5 -23c-23.333 -23.333 -42.5 -61.333 -57.5 -114s-22.5 -109.334 -22.5 -170.001z" />
    <glyph glyph-name="oacute" unicode="&#xf3;" horiz-adv-x="562" 
d="M345 596l133 133h72l-154 -133h-51zM361 536c82.667 0 138.333 -22.6699 167 -68.0029c18.667 -30 28 -70 28 -120c0 -28 -2.66699 -58.667 -8 -92c-16.667 -99.333 -43.5 -167.666 -80.5 -204.999s-98.333 -56 -184 -56s-143.167 20.333 -172.5 61
c-19.333 26.667 -29 65.334 -29 116.001c0 26.667 3.5 61.834 10.5 105.501s17 83 30 118s30.5 63 52.5 84s47.5 35.667 76.5 44s65.5 12.5 109.5 12.5zM138.999 158.997c0 -10.667 2.33398 -23.1699 7.00098 -37.5029s10.5 -26.166 17.5 -35.499s17.5 -16.333 31.5 -21
c22 -8 49 -12.167 81 -12.5s56.167 0.833984 72.5 3.50098s32.666 8 48.999 16s29.833 19.333 40.5 34c23.333 32.667 40.666 83.334 51.999 152.001c6 37.333 9 66.666 9 87.999s-1.66699 39.333 -5 54s-8.66602 27.334 -15.999 38.001s-17.333 19 -30 25
c-22 10 -48.5 15 -79.5 15s-53.667 -0.666992 -68 -2s-29 -4.66602 -44 -9.99902s-27.5 -13 -37.5 -23c-23.333 -23.333 -42.5 -61.333 -57.5 -114s-22.5 -109.334 -22.5 -170.001z" />
    <glyph glyph-name="ocircumflex" unicode="&#xf4;" horiz-adv-x="562" 
d="M228 596l143 130h54l88 -130h-49l-69 94l-108 -94h-59zM361 536c82.667 0 138.333 -22.6699 167 -68.0029c18.667 -30 28 -70 28 -120c0 -28 -2.66699 -58.667 -8 -92c-16.667 -99.333 -43.5 -167.666 -80.5 -204.999s-98.333 -56 -184 -56s-143.167 20.333 -172.5 61
c-19.333 26.667 -29 65.334 -29 116.001c0 26.667 3.5 61.834 10.5 105.501s17 83 30 118s30.5 63 52.5 84s47.5 35.667 76.5 44s65.5 12.5 109.5 12.5zM138.999 158.997c0 -10.667 2.33398 -23.1699 7.00098 -37.5029s10.5 -26.166 17.5 -35.499s17.5 -16.333 31.5 -21
c22 -8 49 -12.167 81 -12.5s56.167 0.833984 72.5 3.50098s32.666 8 48.999 16s29.833 19.333 40.5 34c23.333 32.667 40.666 83.334 51.999 152.001c6 37.333 9 66.666 9 87.999s-1.66699 39.333 -5 54s-8.66602 27.334 -15.999 38.001s-17.333 19 -30 25
c-22 10 -48.5 15 -79.5 15s-53.667 -0.666992 -68 -2s-29 -4.66602 -44 -9.99902s-27.5 -13 -37.5 -23c-23.333 -23.333 -42.5 -61.333 -57.5 -114s-22.5 -109.334 -22.5 -170.001z" />
    <glyph glyph-name="otilde" unicode="&#xf5;" horiz-adv-x="562" 
d="M436 649l6.99805 -0.00292969c4.66699 0 14.334 2.66699 29.001 8c28.667 10.667 50.667 21.334 66 32.001l12 -30l-24 -17.5c-11.333 -8.33301 -19.833 -14.333 -25.5 -18s-13.167 -8.16699 -22.5 -13.5c-32.667 -18 -63.334 -18.333 -92.001 -1
c-12.667 8 -24.167 15.833 -34.5 23.5s-18 11.5 -23 11.5s-10 -0.166992 -15 -0.5s-12.5 -1.83301 -22.5 -4.5s-17.833 -5.5 -23.5 -8.5l-25.5 -14c-11.333 -6.33301 -19.333 -10.5 -24 -12.5l-11 30c34.667 26 60.834 42.833 78.501 50.5s33.834 11.334 48.501 11.001
s33.167 -8.16602 55.5 -23.499s37.833 -23 46.5 -23zM360.998 535.997c82.667 0 138.333 -22.6699 167 -68.0029c18.667 -30 28 -70 28 -120c0 -28 -2.66699 -58.667 -8 -92c-16.667 -99.333 -43.5 -167.666 -80.5 -204.999s-98.333 -56 -184 -56s-143.167 20.333 -172.5 61
c-19.333 26.667 -29 65.334 -29 116.001c0 26.667 3.5 61.834 10.5 105.501s17 83 30 118s30.5 63 52.5 84s47.5 35.667 76.5 44s65.5 12.5 109.5 12.5zM138.997 158.994c0 -10.667 2.33398 -23.1699 7.00098 -37.5029s10.5 -26.166 17.5 -35.499s17.5 -16.333 31.5 -21
c22 -8 49 -12.167 81 -12.5s56.167 0.833984 72.5 3.50098s32.666 8 48.999 16s29.833 19.333 40.5 34c23.333 32.667 40.666 83.334 51.999 152.001c6 37.333 9 66.666 9 87.999s-1.66699 39.333 -5 54s-8.66602 27.334 -15.999 38.001s-17.333 19 -30 25
c-22 10 -48.5 15 -79.5 15s-53.667 -0.666992 -68 -2s-29 -4.66602 -44 -9.99902s-27.5 -13 -37.5 -23c-23.333 -23.333 -42.5 -61.333 -57.5 -114s-22.5 -109.334 -22.5 -170.001z" />
    <glyph glyph-name="odieresis" unicode="&#xf6;" horiz-adv-x="562" 
d="M256 675c11.333 0 20.001 -3.66699 26.001 -11s8.16699 -16.666 6.5 -27.999s-6.83398 -20.833 -15.501 -28.5s-17.5 -11.5 -26.5 -11.5s-16.5 1.66699 -22.5 5c-12 8 -17 18.667 -15 32s7.5 23.666 16.5 30.999s19.167 11 30.5 11zM511.001 675
c11.333 0 20.001 -3.66699 26.001 -11s8.16699 -16.666 6.5 -27.999s-6.83398 -20.833 -15.501 -28.5s-17.5 -11.5 -26.5 -11.5s-16.5 1.66699 -22.5 5c-12 8 -17 18.667 -15 32s7.5 23.666 16.5 30.999s19.167 11 30.5 11zM361.002 536
c82.667 0 138.333 -22.6699 167 -68.0029c18.667 -30 28 -70 28 -120c0 -28 -2.66699 -58.667 -8 -92c-16.667 -99.333 -43.5 -167.666 -80.5 -204.999s-98.333 -56 -184 -56s-143.167 20.333 -172.5 61c-19.333 26.667 -29 65.334 -29 116.001
c0 26.667 3.5 61.834 10.5 105.501s17 83 30 118s30.5 63 52.5 84s47.5 35.667 76.5 44s65.5 12.5 109.5 12.5zM139.001 158.997c0 -10.667 2.33398 -23.1699 7.00098 -37.5029s10.5 -26.166 17.5 -35.499s17.5 -16.333 31.5 -21c22 -8 49 -12.167 81 -12.5
s56.167 0.833984 72.5 3.50098s32.666 8 48.999 16s29.833 19.333 40.5 34c23.333 32.667 40.666 83.334 51.999 152.001c6 37.333 9 66.666 9 87.999s-1.66699 39.333 -5 54s-8.66602 27.334 -15.999 38.001s-17.333 19 -30 25c-22 10 -48.5 15 -79.5 15
s-53.667 -0.666992 -68 -2s-29 -4.66602 -44 -9.99902s-27.5 -13 -37.5 -23c-23.333 -23.333 -42.5 -61.333 -57.5 -114s-22.5 -109.334 -22.5 -170.001z" />
    <glyph glyph-name="divide" unicode="&#xf7;" horiz-adv-x="529" 
d="M100 324l9 58h416l-9 -58h-416zM279 239h37.999c12 0 17 -7 15 -21l-8 -50c-1.33301 -12.667 -8.66602 -19 -21.999 -19h-37c-6 0 -10.5 1.83301 -13.5 5.5s-4.16699 8.16699 -3.5 13.5l8 50c2 14 9.66699 21 23 21zM327.999 550h38c10.667 0 16 -5 16 -15
c0 -2 -0.333008 -3.66699 -1 -5l-7 -51c-1.33301 -12.667 -9 -19 -23 -19h-37c-12.667 0 -18 6.33301 -16 19l7 51c2 13.333 9.66699 20 23 20z" />
    <glyph glyph-name="oslash" unicode="&#xf8;" horiz-adv-x="558" 
d="M80 169c0 27.333 3 60.667 9 100s14 74.333 24 105s22 56.667 36 78s31.333 38 52 50c38 22.667 89.167 34 153.5 34s111.833 -12.333 142.5 -37l29 32h50l-53 -58c21.333 -29.333 32 -70.666 32 -123.999c0 -28 -3.5 -63.167 -10.5 -105.5s-16.5 -79.5 -28.5 -111.5
s-28.333 -58.5 -49 -79.5s-45.5 -35.833 -74.5 -44.5s-65.5 -13 -109.5 -13c-70.667 0 -122 13.333 -154 40l-31 -35h-47l54 60c-16.667 25.333 -25 61.666 -25 108.999zM352 478.001c-26 0 -47.168 -1.16699 -63.501 -3.5s-32.666 -7.66602 -48.999 -15.999
s-29.833 -20.5 -40.5 -36.5c-23.333 -35.333 -41 -90 -53 -164c-5.33301 -32.667 -8 -61.834 -8 -87.501s3 -46.167 9 -61.5l311 346c-20.667 15.333 -56 23 -106 23zM387.999 67.501c21.333 10.333 37.333 23.165 48 38.498c23.333 32.667 41 83.334 53 152.001
c6 35.333 9 67.833 9 97.5s-5 53.834 -15 72.501l-314 -349c19.333 -18 55.333 -27 108 -27s89.667 5.16699 111 15.5z" />
    <glyph glyph-name="ugrave" unicode="&#xf9;" horiz-adv-x="541" 
d="M211 729h67l104 -133h-51zM131 133c0 -23.333 7 -43.168 21 -59.501s38.667 -24.5 74 -24.5s67 4.16699 95 12.5s65.667 23.5 113 45.5l67 424h57l-84 -531h-39l-8 62c-28.667 -15.333 -51.667 -27.166 -69 -35.499s-39.5 -16.333 -66.5 -24s-53.167 -11.5 -78.5 -11.5
c-51.333 0 -89 16.333 -113 49c-18 24.667 -27 54 -27 88c0 10.667 1 21.667 3 33l58 370h58l-59 -370c-1.33301 -10 -2 -19.333 -2 -28z" />
    <glyph glyph-name="uacute" unicode="&#xfa;" horiz-adv-x="541" 
d="M331 596l133 133h72l-154 -133h-51zM131 133c0 -23.333 7 -43.168 21 -59.501s38.667 -24.5 74 -24.5s67 4.16699 95 12.5s65.667 23.5 113 45.5l67 424h57l-84 -531h-39l-8 62c-28.667 -15.333 -51.667 -27.166 -69 -35.499s-39.5 -16.333 -66.5 -24
s-53.167 -11.5 -78.5 -11.5c-51.333 0 -89 16.333 -113 49c-18 24.667 -27 54 -27 88c0 10.667 1 21.667 3 33l58 370h58l-59 -370c-1.33301 -10 -2 -19.333 -2 -28z" />
    <glyph glyph-name="ucircumflex" unicode="&#xfb;" horiz-adv-x="541" 
d="M214 596l143 130h54l88 -130h-49l-69 94l-108 -94h-59zM131 133c0 -23.333 7 -43.168 21 -59.501s38.667 -24.5 74 -24.5s67 4.16699 95 12.5s65.667 23.5 113 45.5l67 424h57l-84 -531h-39l-8 62c-28.667 -15.333 -51.667 -27.166 -69 -35.499s-39.5 -16.333 -66.5 -24
s-53.167 -11.5 -78.5 -11.5c-51.333 0 -89 16.333 -113 49c-18 24.667 -27 54 -27 88c0 10.667 1 21.667 3 33l58 370h58l-59 -370c-1.33301 -10 -2 -19.333 -2 -28z" />
    <glyph glyph-name="udieresis" unicode="&#xfc;" horiz-adv-x="541" 
d="M242 675c11.333 0 20.001 -3.66797 26.001 -11.001s8.16699 -16.666 6.5 -27.999s-6.83398 -20.833 -15.501 -28.5s-18.5 -11.5 -29.5 -11.5s-19.833 4 -26.5 12s-9.16699 17.5 -7.5 28.5s7 20.167 16 27.5s19.167 11 30.5 11zM497.001 674.999
c11.333 0 20.001 -3.66797 26.001 -11.001s8.16699 -16.666 6.5 -27.999s-6.83398 -20.833 -15.501 -28.5s-18.5 -11.5 -29.5 -11.5s-19.833 4 -26.5 12s-9.16699 17.5 -7.5 28.5s7 20.167 16 27.5s19.167 11 30.5 11zM131.002 132.998c0 -23.333 7 -43.168 21 -59.501
s38.667 -24.5 74 -24.5s67 4.16699 95 12.5s65.667 23.5 113 45.5l67 424h57l-84 -531h-39l-8 62c-28.667 -15.333 -51.667 -27.166 -69 -35.499s-39.5 -16.333 -66.5 -24s-53.167 -11.5 -78.5 -11.5c-51.333 0 -89 16.333 -113 49c-18 24.667 -27 54 -27 88
c0 10.667 1 21.667 3 33l58 370h58l-59 -370c-1.33301 -10 -2 -19.333 -2 -28z" />
    <glyph glyph-name="yacute" unicode="&#xfd;" horiz-adv-x="544" 
d="M314 591l133 133h72l-154 -133h-51zM569 535c3.33301 -10 5.00098 -22.667 5.00098 -38s-6 -34.333 -18 -57l-218 -439c-48 -94.667 -90 -161.334 -126 -200.001c-38 -41.333 -76 -64.666 -114 -69.999v40c22.667 10 45 28.667 67 56c26 32 46.167 61.167 60.5 87.5
s22.666 41.833 24.999 46.5l11.5 22.5c5.33301 10.333 8.33301 15.833 9 16.5c-17.333 0 -34 4.66699 -50 14c-30.667 17.333 -49.667 49.333 -57 96l-70 421h60l69 -415c6.66699 -37.333 28.667 -56.333 66 -57l11 1l197 393c13.333 26 22 53.333 26 82h46z" />
    <glyph glyph-name="thorn" unicode="&#xfe;" horiz-adv-x="543" 
d="M421 540c25.333 0 48.332 -8.49902 68.999 -25.499s35.334 -38.833 44.001 -65.5c12 -38 18 -72.833 18 -104.5s-1.66699 -58 -5 -79s-6.5 -38.5 -9.5 -52.5s-7.33301 -31.333 -13 -52s-11.834 -38.167 -18.501 -52.5s-15.667 -29.5 -27 -45.5s-23.666 -29 -36.999 -39
c-32 -22.667 -70.333 -34 -115 -34c-25.333 0 -57.333 3.5 -96 10.5s-71.667 16.5 -99 28.5l-48 -299h-57l167 1052h58l-50 -311c29.333 19.333 66.833 35.666 112.5 48.999s81.167 20 106.5 20zM487.999 269.001c4 26.667 6.00098 54.333 6.00098 83s-5 54.334 -15 77.001
c-14.667 36 -38.334 54 -71.001 54c-37.333 0 -84.666 -9.66699 -141.999 -29c-17.333 -5.33301 -41 -13.333 -71 -24l-56 -356c45.333 -13.333 81.833 -20.833 109.5 -22.5s55.5 -2.83398 83.5 -3.50098c40 0 73.167 16.833 99.5 50.5s45.166 90.5 56.499 170.5z" />
    <glyph glyph-name="ydieresis" unicode="&#xff;" horiz-adv-x="544" 
d="M227.5 681c7 0 13.167 -1.66797 18.5 -5.00098c12 -7.33301 17 -17.666 15 -30.999s-7.5 -23.833 -16.5 -31.5s-19 -11.5 -30 -11.5s-19.833 3.83301 -26.5 11.5s-9.16699 16.167 -7.5 25.5s4.66699 17 9 23s10 10.667 17 14s14 5 21 5zM471.5 679.499
c3.66699 1 8.1709 1.49805 13.5039 1.49805s10.666 -1.66699 15.999 -5c12 -7.33301 17 -17.666 15 -30.999s-7.5 -23.833 -16.5 -31.5s-19 -11.5 -30 -11.5s-19.833 3.83301 -26.5 11.5s-9.33398 15.167 -8.00098 22.5s2.66602 12.833 3.99902 16.5
s3.16602 6.83398 5.49902 9.50098s4.83301 5.16699 7.5 7.5s5.66699 4.33301 9 6s6.83301 3 10.5 4zM569.004 534.997c3.33301 -10 5.00098 -22.667 5.00098 -38s-6 -34.333 -18 -57l-218 -439c-48 -94.667 -90 -161.334 -126 -200.001
c-38 -41.333 -76 -64.666 -114 -69.999v40c22.667 10 45 28.667 67 56c26 32 46.167 61.167 60.5 87.5s22.666 41.833 24.999 46.5l11.5 22.5c5.33301 10.333 8.33301 15.833 9 16.5c-17.333 0 -34 4.66699 -50 14c-30.667 17.333 -49.667 49.333 -57 96l-70 421h60l69 -415
c6.66699 -37.333 28.667 -56.333 66 -57l11 1l197 393c13.333 26 22 53.333 26 82h46z" />
    <glyph glyph-name="Amacron" unicode="&#x100;" horiz-adv-x="654" 
d="M333 797l8 47h278l-7 -47h-279zM45 0l387 732h60l143 -732h-58l-43 220h-309l-116 -220h-64zM256 278h267l-71 377z" />
    <glyph glyph-name="amacron" unicode="&#x101;" 
d="M218 603l8 47h278l-7 -47h-279zM256 531c14.667 4 29.666 6.99414 44.999 8.99414s33.5 3 54.5 3s53.333 -4.83301 97 -14.5s77.5 -26.167 101.5 -49.5l-70 -479h-40l-7 60c-22.667 -14.667 -52.167 -29.5 -88.5 -44.5s-67.833 -22.5 -94.5 -22.5s-48 1.5 -64 4.5
s-31 8.5 -45 16.5c-27.333 14 -46.666 42 -57.999 84c-5.33301 18.667 -8 35.334 -8 50.001s0.166992 30.334 0.5 47.001s4 45.334 11 86.001s16.667 76.834 29 108.501s25.333 56.334 39 74.001s29.667 32.334 48 44.001s34.833 19.5 49.5 23.5zM170.999 364.494
c-10.667 -30.333 -18.999 -64.333 -24.999 -102s-9 -70.167 -9 -97.5c0 -76.667 34.667 -115 104 -115c38.667 0 70.667 4.33301 96 13c31.333 10 65.666 23 102.999 39l54 358c-54 18 -101.667 27 -143 27c-36 0 -64.833 -4.83301 -86.5 -14.5s-40 -22.5 -55 -38.5
s-27.833 -39.167 -38.5 -69.5z" />
    <glyph glyph-name="Abreve" unicode="&#x102;" horiz-adv-x="654" 
d="M411 897c0 -16.667 5.66895 -31.666 17.002 -44.999s27.333 -20 48 -20h7.5c5 0 11.833 1 20.5 3s16.667 5.16699 24 9.5s13.666 9.5 18.999 15.5c11.333 12.667 18.666 29.667 21.999 51h36c-6 -38 -20.5 -66.5 -43.5 -85.5s-50.167 -28.5 -81.5 -28.5
s-56.5 9.5 -75.5 28.5s-28.5 42.5 -28.5 70.5c0 4.66699 0.333008 9.66699 1 15h35c-0.666992 -4.66699 -1 -9.33398 -1 -14.001zM45.002 0.000976562l387 732h60l143 -732h-58l-43 220h-309l-116 -220h-64zM256.002 278.001h267l-71 377z" />
    <glyph glyph-name="abreve" unicode="&#x103;" 
d="M305 717c-0.666992 -4.66699 -1.00195 -10.6689 -1.00195 -18.002s2.33301 -16.166 7 -26.499s12.334 -18.666 23.001 -24.999s19.334 -9.5 26.001 -9.5h10.5h12.5c8 0 18.333 3 31 9c26.667 12 43 35.333 49 70h35c-5.33301 -38 -19.5 -66.5 -42.5 -85.5
s-50.333 -28.5 -82 -28.5s-57 9.5 -76 28.5s-28.5 42.5 -28.5 70.5c0 4.66699 0.333008 9.66699 1 15h35zM255.998 530.998c14.667 4 29.666 6.99414 44.999 8.99414s33.5 3 54.5 3s53.333 -4.83301 97 -14.5s77.5 -26.167 101.5 -49.5l-70 -479h-40l-7 60
c-22.667 -14.667 -52.167 -29.5 -88.5 -44.5s-67.833 -22.5 -94.5 -22.5s-48 1.5 -64 4.5s-31 8.5 -45 16.5c-27.333 14 -46.666 42 -57.999 84c-5.33301 18.667 -8 35.334 -8 50.001s0.166992 30.334 0.5 47.001s4 45.334 11 86.001s16.667 76.834 29 108.501
s25.333 56.334 39 74.001s29.667 32.334 48 44.001s34.833 19.5 49.5 23.5zM170.997 364.492c-10.667 -30.333 -18.999 -64.333 -24.999 -102s-9 -70.167 -9 -97.5c0 -76.667 34.667 -115 104 -115c38.667 0 70.667 4.33301 96 13c31.333 10 65.666 23 102.999 39l54 358
c-54 18 -101.667 27 -143 27c-36 0 -64.833 -4.83301 -86.5 -14.5s-40 -22.5 -55 -38.5s-27.833 -39.167 -38.5 -69.5z" />
    <glyph glyph-name="Aogonek" unicode="&#x104;" horiz-adv-x="812" 
d="M726 0c-53.333 -32 -80.001 -64.001 -80.001 -96.001c0 -26.667 21.333 -40 64 -40h7l-8 -45c-7.33301 -1.33301 -14.666 -2 -21.999 -2c-28 0 -50.167 7.66699 -66.5 23s-24.5 32 -24.5 50c0 46.667 33.333 83.334 100 110.001h30zM146.999 -0.000976562l387 732h60
l143 -732h-58l-43 220h-309l-116 -220h-64zM357.999 277.999h267l-71 377z" />
    <glyph glyph-name="aogonek" unicode="&#x105;" horiz-adv-x="506" 
d="M465 0c-53.333 -32 -80.001 -64 -80.001 -96c0 -26.667 21.333 -40 64 -40h7l-8 -45c-7.33301 -1.33301 -14.666 -2 -21.999 -2c-28 0 -50.167 7.66699 -66.5 23s-24.5 32.333 -24.5 51c0 46 33.333 82.333 100 109h30zM241.999 531
c14.667 4 29.665 6.99512 44.998 8.99512s33.333 3 54 3s52.834 -4.83301 96.501 -14.5s77.5 -26.167 101.5 -49.5l-70 -479h-40l-7 60c-22.667 -14.667 -52 -29.5 -88 -44.5s-67.5 -22.5 -94.5 -22.5s-48.333 1.5 -64 4.5s-30.834 8.5 -45.501 16.5
c-27.333 14 -46.666 42 -57.999 84c-4.66699 18.667 -7 35.334 -7 50.001v47c0 16.667 3.5 45.334 10.5 86.001s16.833 76.834 29.5 108.501s25.667 56.334 39 74.001s29.333 32.334 48 44.001s35.334 19.5 50.001 23.5zM155.997 364.495
c-10.667 -30.333 -19.001 -64.332 -25.001 -101.999s-9 -70.167 -9 -97.5c0 -76.667 35 -115 105 -115c46 0 90 8 132 24c14 5.33301 36.333 14.666 67 27.999l54 358c-54.667 18 -102.667 27 -144 27c-36 0 -64.667 -4.83301 -86 -14.5s-39.666 -22.5 -54.999 -38.5
s-28.333 -39.167 -39 -69.5z" />
    <glyph glyph-name="Cacute" unicode="&#x106;" horiz-adv-x="573" 
d="M413 800l132 133h73l-154 -133h-51zM338.5 731.5c23.667 5.66699 56.6689 8.50391 99.002 8.50391s112.166 -9.33301 209.499 -28l-7 -44c-74 10 -144.333 15 -211 15c-40.667 0 -70.334 -3.16699 -89.001 -9.5s-33.667 -13.833 -45 -22.5s-23.333 -20.834 -36 -36.501
s-24 -34.5 -34 -56.5c-22 -49.333 -39.333 -113.333 -52 -192c-6.66699 -41.333 -10 -81.5 -10 -120.5s6 -74.5 18 -106.5c21.333 -55.333 63 -84.333 125 -87c8 -0.666992 27 -1 57 -1s91 3.33301 183 10l-6 -44c-62 -15.333 -141.333 -23 -238 -23
c-36.667 0 -68 7.33301 -94 22c-68.667 37.333 -103 115.666 -103 234.999c0 59.333 9.66699 130.666 29 213.999c14 62.667 29 108 45 136s31.5 50.167 46.5 66.5s31.667 29.666 50 39.999s39.333 18.333 63 24z" />
    <glyph glyph-name="cacute" unicode="&#x107;" horiz-adv-x="494" 
d="M324 597l133 133h72l-154 -133h-51zM138 159c0 -72 30.9971 -108.003 92.9971 -108.003c54.667 0 118.334 3.66699 191.001 11l37 3l-7 -42c-70 -19.333 -142.667 -29 -218 -29h-5c-98.667 0.666992 -148 59.334 -148 176.001c0 29.333 3.66699 65 11 107
s16.833 79.833 28.5 113.5s23.834 60 36.501 79s27.834 33.667 45.501 44s34.167 16.833 49.5 19.5s34.333 4 57 4c52.667 0 123.667 -9 213 -27l-6 -41c-85.333 7.33301 -145.5 11 -180.5 11s-56.5 -0.5 -64.5 -1.5s-16.667 -3.16699 -26 -6.5
s-17.333 -8.16602 -24 -14.499s-13.667 -14.833 -21 -25.5s-14 -23.667 -20 -39c-12.667 -34 -23.667 -77.667 -33 -131c-6 -41.333 -9 -75.666 -9 -102.999z" />
    <glyph glyph-name="Ccircumflex" unicode="&#x108;" horiz-adv-x="573" 
d="M297 800l143 130h54l88 -130h-49l-69 94l-108 -94h-59zM338.5 731.5c23.667 5.66699 56.6689 8.50391 99.002 8.50391s112.166 -9.33301 209.499 -28l-7 -44c-74 10 -144.333 15 -211 15c-40.667 0 -70.334 -3.16699 -89.001 -9.5s-33.667 -13.833 -45 -22.5
s-23.333 -20.834 -36 -36.501s-24 -34.5 -34 -56.5c-22 -49.333 -39.333 -113.333 -52 -192c-6.66699 -41.333 -10 -81.5 -10 -120.5s6 -74.5 18 -106.5c21.333 -55.333 63 -84.333 125 -87c8 -0.666992 27 -1 57 -1s91 3.33301 183 10l-6 -44
c-62 -15.333 -141.333 -23 -238 -23c-36.667 0 -68 7.33301 -94 22c-68.667 37.333 -103 115.666 -103 234.999c0 59.333 9.66699 130.666 29 213.999c14 62.667 29 108 45 136s31.5 50.167 46.5 66.5s31.667 29.666 50 39.999s39.333 18.333 63 24z" />
    <glyph glyph-name="ccircumflex" unicode="&#x109;" horiz-adv-x="494" 
d="M206 597l143 130h54l88 -130h-49l-69 94l-108 -94h-59zM137 159c0 -72 30.999 -108 92.999 -108c54.667 0 118.334 3.66699 191.001 11l36 3l-6 -42c-70 -19.333 -142.667 -29 -218 -29h-6c-98 0.666992 -147 59.334 -147 176.001c0 29.333 3.5 65 10.5 107
s16.5 79.833 28.5 113.5s24.333 60 37 79s27.834 33.667 45.501 44s34.167 16.833 49.5 19.5s34 4 56 4c53.333 0 124.666 -9 213.999 -27l-7 -41c-84.667 7.33301 -145.167 11 -181.5 11s-59 -0.833008 -68 -2.5s-18.667 -4.83398 -29 -9.50098
s-19.333 -11.834 -27 -21.501s-15.167 -22.5 -22.5 -38.5c-14.667 -30 -28 -78.667 -40 -146c-6 -41.333 -9 -75.666 -9 -102.999z" />
    <glyph glyph-name="Cdotaccent" unicode="&#x10a;" horiz-adv-x="573" 
d="M420 897h36.999c12.667 0 18 -7 16 -21l-9 -57c-2 -12.667 -9.33301 -19 -22 -19h-37c-6 0 -10.667 1.83301 -14 5.5s-4.66602 8.16699 -3.99902 13.5l10 57c1.33301 14 9 21 23 21zM338.499 731.5c23.667 5.66699 56.6689 8.50391 99.002 8.50391
s112.166 -9.33301 209.499 -28l-7 -44c-74 10 -144.333 15 -211 15c-40.667 0 -70.334 -3.16699 -89.001 -9.5s-33.667 -13.833 -45 -22.5s-23.333 -20.834 -36 -36.501s-24 -34.5 -34 -56.5c-22 -49.333 -39.333 -113.333 -52 -192c-6.66699 -41.333 -10 -81.5 -10 -120.5
s6 -74.5 18 -106.5c21.333 -55.333 63 -84.333 125 -87c8 -0.666992 27 -1 57 -1s91 3.33301 183 10l-6 -44c-62 -15.333 -141.333 -23 -238 -23c-36.667 0 -68 7.33301 -94 22c-68.667 37.333 -103 115.666 -103 234.999c0 59.333 9.66699 130.666 29 213.999
c14 62.667 29 108 45 136s31.5 50.167 46.5 66.5s31.667 29.666 50 39.999s39.333 18.333 63 24z" />
    <glyph glyph-name="cdotaccent" unicode="&#x10b;" horiz-adv-x="494" 
d="M337 688h36.999c12.667 0 18 -7 16 -21l-9 -57c-2 -12.667 -9.33301 -19 -22 -19h-37c-6 0 -10.667 1.83301 -14 5.5s-4.66602 8.16699 -3.99902 13.5l10 57c2 14 9.66699 21 23 21zM136.999 159c0 -72 30.999 -108 92.999 -108c54.667 0 118.334 3.66699 191.001 11
l36 3l-6 -42c-70 -19.333 -142.667 -29 -218 -29h-6c-98 0.666992 -147 59.334 -147 176.001c0 29.333 3.5 65 10.5 107s16.5 79.833 28.5 113.5s24.333 60 37 79s27.834 33.667 45.501 44s34.167 16.833 49.5 19.5s34 4 56 4c53.333 0 124.666 -9 213.999 -27l-7 -41
c-84.667 7.33301 -145.167 11 -181.5 11s-59 -0.833008 -68 -2.5s-18.667 -4.83398 -29 -9.50098s-19.333 -11.834 -27 -21.501s-15.167 -22.5 -22.5 -38.5c-14.667 -30 -28 -78.667 -40 -146c-6 -41.333 -9 -75.666 -9 -102.999z" />
    <glyph glyph-name="Ccaron" unicode="&#x10c;" horiz-adv-x="573" 
d="M322 930h49l69 -94l108 94h59l-143 -130h-54zM338.5 731.5c23.667 5.66699 56.6689 8.50391 99.002 8.50391s112.166 -9.33301 209.499 -28l-7 -44c-74 10 -144.333 15 -211 15c-40.667 0 -70.334 -3.16699 -89.001 -9.5s-33.667 -13.833 -45 -22.5
s-23.333 -20.834 -36 -36.501s-24 -34.5 -34 -56.5c-22 -49.333 -39.333 -113.333 -52 -192c-6.66699 -41.333 -10 -81.5 -10 -120.5s6 -74.5 18 -106.5c21.333 -55.333 63 -84.333 125 -87c8 -0.666992 27 -1 57 -1s91 3.33301 183 10l-6 -44
c-62 -15.333 -141.333 -23 -238 -23c-36.667 0 -68 7.33301 -94 22c-68.667 37.333 -103 115.666 -103 234.999c0 59.333 9.66699 130.666 29 213.999c14 62.667 29 108 45 136s31.5 50.167 46.5 66.5s31.667 29.666 50 39.999s39.333 18.333 63 24z" />
    <glyph glyph-name="ccaron" unicode="&#x10d;" horiz-adv-x="494" 
d="M247 727h49l69 -93l108 93h59l-143 -130h-54zM137 159c0 -72 30.999 -108 92.999 -108c54.667 0 118.334 3.66699 191.001 11l36 3l-6 -42c-70 -19.333 -142.667 -29 -218 -29h-6c-98 0.666992 -147 59.334 -147 176.001c0 29.333 3.5 65 10.5 107
s16.5 79.833 28.5 113.5s24.333 60 37 79s27.834 33.667 45.501 44s34.167 16.833 49.5 19.5s34 4 56 4c53.333 0 124.666 -9 213.999 -27l-7 -41c-84.667 7.33301 -145.167 11 -181.5 11s-59 -0.833008 -68 -2.5s-18.667 -4.83398 -29 -9.50098
s-19.333 -11.834 -27 -21.501s-15.167 -22.5 -22.5 -38.5c-14.667 -30 -28 -78.667 -40 -146c-6 -41.333 -9 -75.666 -9 -102.999z" />
    <glyph glyph-name="Dcaron" unicode="&#x10e;" horiz-adv-x="664" 
d="M336 924h49l69 -94l108 94h59l-143 -130h-54zM473 732c36 0 67.501 -6 94.501 -18s48.167 -28.667 63.5 -50c31.333 -44 48.666 -93.667 51.999 -149c0.666992 -16 1 -30.667 1 -44c0 -37.333 -3.33301 -74.333 -10 -111c-42.667 -240 -147.667 -360 -315 -360h-268
l116 731c0 0.666992 88.667 1 266 1zM627.001 477c0 131.333 -54.667 197.001 -164 197.001h-208l-97 -614h209c35.333 0 67.833 8.66699 97.5 26s54.5 40.666 74.5 69.999c39.333 58.667 65.333 128 78 208c6.66699 42 10 79.667 10 113z" />
    <glyph glyph-name="dcaron" unicode="&#x10f;" horiz-adv-x="614" 
d="M232 523.5c23.333 10.333 46.167 15.501 68.5 15.501s44.5 -1.33301 66.5 -4c51.333 -7.33301 96 -19.333 134 -36l46 286h55l-124 -785h-40l-7 59c-18 -12.667 -48 -26.667 -90 -42s-77.5 -23 -106.5 -23s-53.5 5.66699 -73.5 17c-36 20 -59.667 55.333 -71 106
c-4.66699 24 -7 48.167 -7 72.5s2.16699 50.833 6.5 79.5s9.83301 55.167 16.5 79.5s15.834 48.833 27.501 73.5s25.167 45.167 40.5 61.5s34.666 29.666 57.999 39.999zM148.001 274.001c-5.33301 -35.333 -7.99902 -62.332 -7.99902 -80.999c0 -56 11.667 -95.333 35 -118
c16 -15.333 36.333 -23 61 -23s50 2.66699 76 8c36 7.33301 78 20.666 126 39.999l56 354c-67.333 18.667 -131 28 -191 28c-80.667 0 -132.334 -69.333 -155.001 -208zM650.002 580.002l12 134l10 67h59l-11 -67l-31 -134h-39z" />
    <glyph glyph-name="Dcroat" unicode="&#x110;" horiz-adv-x="673" 
d="M477 732c36.667 0 68.5 -6 95.5 -18s48.167 -28.667 63.5 -50c31.333 -44 49 -93.667 53 -149c0.666992 -16 1 -30.667 1 -44c0 -86 -16.333 -170.667 -49 -254c-56 -144.667 -148.333 -217 -277 -217h-269l56 353h-65l7 40h65l53 338c0 0.666992 88.667 1 266 1z
M632 477c0 131.333 -54.665 197.001 -163.998 197.001h-208l-44 -281h145l-7 -40h-145l-47 -293h210c35.333 0 67.666 8.66699 96.999 26s54 40.666 74 69.999c39.333 58.667 65.666 128 78.999 208c6.66699 42 10 79.667 10 113z" />
    <glyph glyph-name="dcroat" unicode="&#x111;" horiz-adv-x="541" 
d="M233 523.5c23.333 10.333 48.499 15.502 75.499 15.502s58.833 -3.66699 95.5 -11s69.334 -17 98.001 -29l19 125h-125l7 41h125l20 120h55l-19 -120h76l-7 -41h-76l-99 -624h-40l-6 59c-18.667 -12.667 -48.834 -26.667 -90.501 -42s-77 -23 -106 -23
s-53.5 5.66699 -73.5 17c-36 20 -59.667 55.667 -71 107c-5.33301 23.333 -8 47.166 -8 71.499s2.33301 50.833 7 79.5s10.167 55.167 16.5 79.5s15.333 48.833 27 73.5s25.334 45.167 41.001 61.5s35.167 29.666 58.5 39.999zM148.999 274.002
c-6 -35.333 -9.00098 -66.833 -9.00098 -94.5s4.66699 -52.167 14 -73.5c16.667 -36 43.667 -54 81 -54c56.667 0 124.334 16 203.001 48l56 354c-66.667 18.667 -130.667 28 -192 28c-80 0 -131 -69.333 -153 -208z" />
    <glyph glyph-name="Emacron" unicode="&#x112;" horiz-adv-x="565" 
d="M286 794l7 47h279l-7 -47h-279zM311 732h10l308 -14l-7 -44h-310c-46 0 -72.667 -24 -80 -72l-34 -209l338 -8l-7 -44l-340 -9l-33 -209c-1.33301 -7.33301 -2 -14.166 -2 -20.499s1 -13.333 3 -21s7.33301 -13.5 16 -17.5c12 -6.66699 29 -10 51 -10h300l-7 -42
l-303 -15h-10c-33.333 0 -59.833 8.5 -79.5 25.5s-29.5 40.833 -29.5 71.5c0 9.33301 1 19.666 3 30.999l76 479c14 85.333 59.667 128 137 128z" />
    <glyph glyph-name="emacron" unicode="&#x113;" horiz-adv-x="528" 
d="M219 601l7 47h279l-7 -47h-279zM274 534.5c22 4.33301 48.167 6.50195 78.5 6.50195s57.5 -2.66699 81.5 -8c70.667 -15.333 106 -54.666 106 -117.999c0 -46 -11.333 -82.833 -34 -110.5s-48 -46.834 -76 -57.501c-50.667 -20 -102.667 -30 -156 -30
c-28.667 0 -56.5 2 -83.5 6s-44.167 7.66699 -51.5 11c-5.33301 -31.333 -8 -55 -8 -71c0 -48 7.83301 -79 23.5 -93s37.5 -21.333 65.5 -22c12 -0.666992 35.333 -1 70 -1s93 6 175 18l-6 -43c-70.667 -19.333 -152 -29 -244 -29c-63.333 0 -104.666 23 -123.999 69
c-10 24 -15 54.167 -15 90.5s3.16699 72.666 9.5 108.999s11.666 63.5 15.999 81.5s10 36.833 17 56.5s14.667 36 23 49s18.833 25.833 31.5 38.5s27.167 22.667 43.5 30s35.5 13.166 57.5 17.499zM145 274.002c26.667 -3.33301 51.832 -4.99902 75.499 -4.99902
s42.834 0.333008 57.501 1s34.667 3.16699 60 7.5s47.333 10.666 66 18.999s35.334 20.166 50.001 35.499c18.667 20.667 28 45.334 28 74.001s-9.5 48.834 -28.5 60.501s-54.167 17.5 -105.5 17.5c-54 0 -93.667 -9.33301 -119 -28
c-9.33301 -6.66699 -17.333 -12.667 -24 -18s-12.834 -13.333 -18.501 -24s-10 -19.334 -13 -26.001s-6.5 -16.667 -10.5 -30c-4.66699 -17.333 -8.66699 -34.5 -12 -51.5s-5.33301 -27.833 -6 -32.5z" />
    <glyph glyph-name="Edotaccent" unicode="&#x116;" horiz-adv-x="565" 
d="M430 894h36.999c12.667 0 18 -7 16 -21l-9 -57c-2 -12.667 -9.33301 -19 -22 -19h-37c-6 0 -10.667 1.83301 -14 5.5s-4.66602 8.16699 -3.99902 13.5l10 57c2 14 9.66699 21 23 21zM310.999 732h10l308 -14l-7 -44h-310c-46 0 -72.667 -24 -80 -72l-34 -209l338 -8
l-7 -44l-340 -9l-33 -209c-1.33301 -7.33301 -2 -14.166 -2 -20.499s1 -13.333 3 -21s7.33301 -13.5 16 -17.5c12 -6.66699 29 -10 51 -10h300l-7 -42l-303 -15h-10c-33.333 0 -59.833 8.5 -79.5 25.5s-29.5 40.833 -29.5 71.5c0 9.33301 1 19.666 3 30.999l76 479
c14 85.333 59.667 128 137 128z" />
    <glyph glyph-name="edotaccent" unicode="&#x117;" horiz-adv-x="528" 
d="M355 698h36.999c13.333 0 19 -7 17 -21l-10 -57c-1.33301 -12.667 -8.66602 -19 -21.999 -19h-37c-6 0 -10.667 1.83301 -14 5.5s-4.33301 8.16699 -3 13.5l9 57c2 14 9.66699 21 23 21zM273.999 534.5c22 4.33301 48.167 6.50195 78.5 6.50195s57.5 -2.66699 81.5 -8
c70.667 -15.333 106 -54.666 106 -117.999c0 -46 -11.333 -82.833 -34 -110.5s-48 -46.834 -76 -57.501c-50.667 -20 -102.667 -30 -156 -30c-28.667 0 -56.5 2 -83.5 6s-44.167 7.66699 -51.5 11c-5.33301 -31.333 -8 -55 -8 -71c0 -48 7.83301 -79 23.5 -93
s37.5 -21.333 65.5 -22c12 -0.666992 35.333 -1 70 -1s93 6 175 18l-6 -43c-70.667 -19.333 -152 -29 -244 -29c-63.333 0 -104.666 23 -123.999 69c-10 24 -15 54.167 -15 90.5s3.16699 72.666 9.5 108.999s11.666 63.5 15.999 81.5s10 36.833 17 56.5s14.667 36 23 49
s18.833 25.833 31.5 38.5s27.167 22.667 43.5 30s35.5 13.166 57.5 17.499zM144.999 274.002c26.667 -3.33301 51.832 -4.99902 75.499 -4.99902s42.834 0.333008 57.501 1s34.667 3.16699 60 7.5s47.333 10.666 66 18.999s35.334 20.166 50.001 35.499
c18.667 20.667 28 45.334 28 74.001s-9.5 48.834 -28.5 60.501s-54.167 17.5 -105.5 17.5c-54 0 -93.667 -9.33301 -119 -28c-9.33301 -6.66699 -17.333 -12.667 -24 -18s-12.834 -13.333 -18.501 -24s-10 -19.334 -13 -26.001s-6.5 -16.667 -10.5 -30
c-4.66699 -17.333 -8.66699 -34.5 -12 -51.5s-5.33301 -27.833 -6 -32.5z" />
    <glyph glyph-name="Eogonek" unicode="&#x118;" horiz-adv-x="561" 
d="M520 12c-53.333 -32 -80 -64.333 -80 -97c0 -26.667 21.667 -40 65 -40h6l-7 -44c-8 -1.33301 -15.333 -2 -22 -2c-28.667 0 -51.167 7.66699 -67.5 23s-24.5 32 -24.5 50c0 46 33.333 82.667 100 110h30zM314 732l10 0.000976562l308 -14l-7 -44h-310
c-46 0 -72.667 -24 -80 -72l-33 -209l337 -8l-7 -44l-340 -9l-33 -209c-2.66699 -9.33301 -3.16699 -17.5 -1.5 -24.5s3 -13 4 -18s3.83301 -9 8.5 -12l11.5 -7.5c3 -2 7.83301 -3.33301 14.5 -4c8.66699 -2 19 -3 31 -3h301l-8 -42l-303 -15h-9
c-33.333 0 -59.833 8.5 -79.5 25.5s-29.5 40.833 -29.5 71.5c0 9.33301 0.666992 19.666 2 30.999l76 479c14 85.333 59.667 128 137 128z" />
    <glyph glyph-name="eogonek" unicode="&#x119;" horiz-adv-x="528" 
d="M460 22c-53.333 -32 -80 -64 -80 -96c0 -26.667 21.667 -40 65 -40h6l-7 -45c-8 -1.33301 -15.333 -2 -22 -2c-28.667 0 -51.167 7.66699 -67.5 23s-24.5 32.333 -24.5 51c0 46 33.333 82.333 100 109h30zM496.5 509c30.333 -21.333 45.4951 -52.3301 45.4951 -92.9971
c0 -46.667 -11.5 -83.834 -34.5 -111.501s-48.167 -46.834 -75.5 -57.501c-51.333 -20 -103.666 -30 -156.999 -30c-28.667 0 -56.5 2 -83.5 6s-44.167 7.66699 -51.5 11c-5.33301 -31.333 -8 -55 -8 -71c0 -48 8 -79 24 -93s37.667 -21.333 65 -22
c12.667 -0.666992 36.334 -1 71.001 -1s93 6 175 18l-7 -43c-70.667 -19.333 -152 -29 -244 -29c-63.333 0 -104.666 23 -123.999 69c-10 24 -15 54.167 -15 90.5s3.33301 72.666 10 108.999s12.167 63.5 16.5 81.5s9.83301 36.833 16.5 56.5s14.334 36 23.001 49
s19.334 25.833 32.001 38.5s27 22.667 43 30c36 16 83.833 24 143.5 24s104.667 -10.667 135 -32zM145.995 274.003c26.667 -3.33301 51.833 -4.99805 75.5 -4.99805s43 0.333008 58 1s35 3.16699 60 7.5s47 10.666 66 18.999s35.5 20.166 49.5 35.499
c19.333 20.667 29 47 29 79c0 26 -9.66699 44.333 -29 55c-21.333 12 -56.333 18 -105 18c-54.667 0 -94.667 -9.33301 -120 -28c-9.33301 -6.66699 -17.166 -12.667 -23.499 -18s-12.333 -13.333 -18 -24l-13.5 -26c-3.33301 -6.66699 -6.66602 -16.667 -9.99902 -30
c-4.66699 -17.333 -8.83398 -34.5 -12.501 -51.5s-5.83398 -27.833 -6.50098 -32.5z" />
    <glyph glyph-name="Ecaron" unicode="&#x11a;" horiz-adv-x="565" 
d="M323 927h49l69 -94l108 94h59l-143 -130h-54zM311 732h10l308 -14l-7 -44h-310c-46 0 -72.667 -24 -80 -72l-34 -209l338 -8l-7 -44l-340 -9l-33 -209c-1.33301 -7.33301 -2 -14.166 -2 -20.499s1 -13.333 3 -21s7.33301 -13.5 16 -17.5c12 -6.66699 29 -10 51 -10h300
l-7 -42l-303 -15h-10c-33.333 0 -59.833 8.5 -79.5 25.5s-29.5 40.833 -29.5 71.5c0 9.33301 1 19.666 3 30.999l76 479c14 85.333 59.667 128 137 128z" />
    <glyph glyph-name="ecaron" unicode="&#x11b;" horiz-adv-x="528" 
d="M243 731h49l69 -94l108 94h59l-143 -130h-54zM274 534.5c22 4.33301 48.167 6.50195 78.5 6.50195s57.5 -2.66699 81.5 -8c70.667 -15.333 106 -54.666 106 -117.999c0 -46 -11.333 -82.833 -34 -110.5s-48 -46.834 -76 -57.501c-50.667 -20 -102.667 -30 -156 -30
c-28.667 0 -56.5 2 -83.5 6s-44.167 7.66699 -51.5 11c-5.33301 -31.333 -8 -55 -8 -71c0 -48 7.83301 -79 23.5 -93s37.5 -21.333 65.5 -22c12 -0.666992 35.333 -1 70 -1s93 6 175 18l-6 -43c-70.667 -19.333 -152 -29 -244 -29c-63.333 0 -104.666 23 -123.999 69
c-10 24 -15 54.167 -15 90.5s3.16699 72.666 9.5 108.999s11.666 63.5 15.999 81.5s10 36.833 17 56.5s14.667 36 23 49s18.833 25.833 31.5 38.5s27.167 22.667 43.5 30s35.5 13.166 57.5 17.499zM145 274.002c26.667 -3.33301 51.832 -4.99902 75.499 -4.99902
s42.834 0.333008 57.501 1s34.667 3.16699 60 7.5s47.333 10.666 66 18.999s35.334 20.166 50.001 35.499c18.667 20.667 28 45.334 28 74.001s-9.5 48.834 -28.5 60.501s-54.167 17.5 -105.5 17.5c-54 0 -93.667 -9.33301 -119 -28
c-9.33301 -6.66699 -17.333 -12.667 -24 -18s-12.834 -13.333 -18.501 -24s-10 -19.334 -13 -26.001s-6.5 -16.667 -10.5 -30c-4.66699 -17.333 -8.66699 -34.5 -12 -51.5s-5.33301 -27.833 -6 -32.5z" />
    <glyph glyph-name="Gcircumflex" unicode="&#x11c;" horiz-adv-x="619" 
d="M282 799l143 130h54l88 -130h-49l-69 94l-108 -94h-59zM168 236c0 -123.333 45.6611 -185.001 136.994 -185.001h18.5c11.667 0 35 4.5 70 13.5s64.5 17.833 88.5 26.5l35 14l38 225h-184l7 39c52 13.333 110.667 20 176 20c20.667 0 43 -1 67 -3l-61 -386h-42l-7 56
c-18.667 -14 -49.167 -27.833 -91.5 -41.5s-80.666 -20.5 -114.999 -20.5s-63.333 5 -87 15s-42.5 24 -56.5 42c-30 38 -47 85 -51 141c-1.33301 16.667 -2 32.334 -2 47.001c0 69.333 10.667 148 32 236c18 73.333 40 128 66 164c32.667 45.333 72.334 75 119.001 89
c26 7.33301 55.333 11 88 11h20.5c12.333 0 42 -2.83301 89 -8.5s89.167 -12.167 126.5 -19.5l-6 -46c-22 3.33301 -59.667 7 -113 11c-57.333 4 -97.666 6 -120.999 6s-43.166 -2 -59.499 -6s-33.666 -12.667 -51.999 -26s-34.5 -31 -48.5 -53
c-31.333 -51.333 -54.666 -128.333 -69.999 -231c-7.33301 -48.667 -11 -92 -11 -130z" />
    <glyph glyph-name="gcircumflex" unicode="&#x11d;" horiz-adv-x="546" 
d="M223 597l143 130h55l88 -130h-49l-70 94l-107 -94h-60zM293 -216c26.667 0 51.334 9.5 74.001 28.5s37 46.833 43 83.5l21 133c-32 -12 -65.833 -21.333 -101.5 -28s-69.167 -10 -100.5 -10s-59 7.33301 -83 22s-40.333 35 -49 61c-10.667 29.333 -16 61.666 -16 96.999
s3.33301 70 10 104c13.333 84 39.166 148.667 77.499 194s86.5 68 144.5 68c54.667 0 109 -3.16699 163 -9.5s83.667 -9.83301 89 -10.5l-98 -621c-6 -39.333 -19 -72.666 -39 -99.999c-34 -46 -77.333 -69 -130 -69c-5.33301 0 -11 0.333008 -17 1l-244 24l6 37l247 -5h3z
M195 404c-37.333 -67.333 -55.999 -147.334 -55.999 -240.001c0 -31.333 7.33301 -58.666 22 -81.999c14.667 -22.667 40.667 -34 78 -34c44.667 0 81.167 2.66699 109.5 8s58.166 12 89.499 20l64 402l-187 2h-2c-25.333 0 -48.333 -7 -69 -21s-37 -32.333 -49 -55z" />
    <glyph glyph-name="Gbreve" unicode="&#x11e;" horiz-adv-x="619" 
d="M363 899c0 -16.667 5.66797 -31.499 17.001 -44.499s27.333 -19.5 48 -19.5h0.5h1.5c24 0 44.167 6.5 60.5 19.5s26.5 32.5 30.5 58.5h36c-6 -38 -20.5 -66.5 -43.5 -85.5s-51.5 -28.5 -85.5 -28.5c-40.667 0 -70.334 17.667 -89.001 53c-7.33301 14 -11 26.5 -11 37.5
s0.333008 18.833 1 23.5h35c-0.666992 -4.66699 -1 -9.33398 -1 -14.001zM168.001 236.001c0 -123.333 45.6611 -185.001 136.994 -185.001h18.5c11.667 0 35 4.5 70 13.5s64.5 17.833 88.5 26.5l35 14l38 225h-184l7 39c52 13.333 110.667 20 176 20c20.667 0 43 -1 67 -3
l-61 -386h-42l-7 56c-18.667 -14 -49.167 -27.833 -91.5 -41.5s-80.666 -20.5 -114.999 -20.5s-63.333 5 -87 15s-42.5 24 -56.5 42c-30 38 -47 85 -51 141c-1.33301 16.667 -2 32.334 -2 47.001c0 69.333 10.667 148 32 236c18 73.333 40 128 66 164
c32.667 45.333 72.334 75 119.001 89c26 7.33301 55.333 11 88 11h20.5c12.333 0 42 -2.83301 89 -8.5s89.167 -12.167 126.5 -19.5l-6 -46c-22 3.33301 -59.667 7 -113 11c-57.333 4 -97.666 6 -120.999 6s-43.166 -2 -59.499 -6s-33.666 -12.667 -51.999 -26
s-34.5 -31 -48.5 -53c-31.333 -51.333 -54.666 -128.333 -69.999 -231c-7.33301 -48.667 -11 -92 -11 -130z" />
    <glyph glyph-name="gbreve" unicode="&#x11f;" horiz-adv-x="546" 
d="M309 697c0 -16.667 5.66699 -31.666 17 -44.999s27 -20 47 -20h1.5h0.5c24.667 0 45.167 6.66699 61.5 20s26.5 33 30.5 59h35c-5.33301 -38 -19.5 -66.5 -42.5 -85.5s-50.333 -28.5 -82 -28.5s-57 9.5 -76 28.5s-28.5 42.5 -28.5 70.5c0 4.66699 0.333008 9.66699 1 15
h36c-0.666992 -4.66699 -1 -9.33398 -1 -14.001zM293 -215.999c26.667 0 51.334 9.5 74.001 28.5s37 46.833 43 83.5l21 133c-32 -12 -65.833 -21.333 -101.5 -28s-69.167 -10 -100.5 -10s-59 7.33301 -83 22s-40.333 35 -49 61c-10.667 29.333 -16 61.666 -16 96.999
s3.33301 70 10 104c13.333 84 39.166 148.667 77.499 194s86.5 68 144.5 68c54.667 0 109 -3.16699 163 -9.5s83.667 -9.83301 89 -10.5l-98 -621c-6 -39.333 -19 -72.666 -39 -99.999c-34 -46 -77.333 -69 -130 -69c-5.33301 0 -11 0.333008 -17 1l-244 24l6 37l247 -5h3z
M195 404.001c-37.333 -67.333 -55.999 -147.334 -55.999 -240.001c0 -31.333 7.33301 -58.666 22 -81.999c14.667 -22.667 40.667 -34 78 -34c44.667 0 81.167 2.66699 109.5 8s58.166 12 89.499 20l64 402l-187 2h-2c-25.333 0 -48.333 -7 -69 -21s-37 -32.333 -49 -55z
" />
    <glyph glyph-name="Gdotaccent" unicode="&#x120;" horiz-adv-x="619" 
d="M432 897h36.999c12.667 0 18 -7 16 -21l-10 -57c-1.33301 -12.667 -8.66602 -19 -21.999 -19h-37c-6 0 -10.5 1.83301 -13.5 5.5s-4.16699 8.16699 -3.5 13.5l9 57c2 14 10 21 24 21zM167.999 236c0 -123.333 45.6611 -185.001 136.994 -185.001h18.5
c11.667 0 35 4.5 70 13.5s64.5 17.833 88.5 26.5l35 14l38 225h-184l7 39c52 13.333 110.667 20 176 20c20.667 0 43 -1 67 -3l-61 -386h-42l-7 56c-18.667 -14 -49.167 -27.833 -91.5 -41.5s-80.666 -20.5 -114.999 -20.5s-63.333 5 -87 15s-42.5 24 -56.5 42
c-30 38 -47 85 -51 141c-1.33301 16.667 -2 32.334 -2 47.001c0 69.333 10.667 148 32 236c18 73.333 40 128 66 164c32.667 45.333 72.334 75 119.001 89c26 7.33301 55.333 11 88 11h20.5c12.333 0 42 -2.83301 89 -8.5s89.167 -12.167 126.5 -19.5l-6 -46
c-22 3.33301 -59.667 7 -113 11c-57.333 4 -97.666 6 -120.999 6s-43.166 -2 -59.499 -6s-33.666 -12.667 -51.999 -26s-34.5 -31 -48.5 -53c-31.333 -51.333 -54.666 -128.333 -69.999 -231c-7.33301 -48.667 -11 -92 -11 -130z" />
    <glyph glyph-name="gdotaccent" unicode="&#x121;" horiz-adv-x="546" 
d="M377 694h36.999c12.667 0 18 -7 16 -21l-9 -57c-2 -12.667 -9.33301 -19 -22 -19h-37c-6 0 -10.667 1.83301 -14 5.5s-4.66602 8.16699 -3.99902 13.5l9 57c2 14 10 21 24 21zM292.999 -216c26.667 0 51.334 9.5 74.001 28.5s37 46.833 43 83.5l21 133
c-32 -12 -65.833 -21.333 -101.5 -28s-69.167 -10 -100.5 -10s-59 7.33301 -83 22s-40.333 35 -49 61c-10.667 29.333 -16 61.666 -16 96.999s3.33301 70 10 104c13.333 84 39.166 148.667 77.499 194s86.5 68 144.5 68c54.667 0 109 -3.16699 163 -9.5
s83.667 -9.83301 89 -10.5l-98 -621c-6 -39.333 -19 -72.666 -39 -99.999c-34 -46 -77.333 -69 -130 -69c-5.33301 0 -11 0.333008 -17 1l-244 24l6 37l247 -5h3zM194.999 404c-37.333 -67.333 -55.999 -147.334 -55.999 -240.001c0 -31.333 7.33301 -58.666 22 -81.999
c14.667 -22.667 40.667 -34 78 -34c44.667 0 81.167 2.66699 109.5 8s58.166 12 89.499 20l64 402l-187 2h-2c-25.333 0 -48.333 -7 -69 -21s-37 -32.333 -49 -55z" />
    <glyph glyph-name="Gcommaaccent" unicode="&#x122;" horiz-adv-x="619" 
d="M282 -212c14.667 0 23.332 7.66602 25.999 22.999l5 29h-9c-12.667 0 -17.667 6.33301 -15 19l7 51c2.66699 13.333 10.334 20 23.001 20h33c12 0 17 -6.66699 15 -20l-14 -88c-4 -25.333 -14.333 -41.666 -31 -48.999c-12 -5.33301 -20.833 -8 -26.5 -8
s-11.5 0.666992 -17.5 2l3 21h1zM167.998 235.999c0 -123.333 45.6611 -185.001 136.994 -185.001h18.5c11.667 0 35 4.5 70 13.5s64.5 17.833 88.5 26.5l35 14l38 225h-184l7 39c52 13.333 110.667 20 176 20c20.667 0 43 -1 67 -3l-61 -386h-42l-7 56
c-18.667 -14 -49.167 -27.833 -91.5 -41.5s-80.666 -20.5 -114.999 -20.5s-63.333 5 -87 15s-42.5 24 -56.5 42c-30 38 -47 85 -51 141c-1.33301 16.667 -2 32.334 -2 47.001c0 69.333 10.667 148 32 236c18 73.333 40 128 66 164c32.667 45.333 72.334 75 119.001 89
c26 7.33301 55.333 11 88 11h20.5c12.333 0 42 -2.83301 89 -8.5s89.167 -12.167 126.5 -19.5l-6 -46c-22 3.33301 -59.667 7 -113 11c-57.333 4 -97.666 6 -120.999 6s-43.166 -2 -59.499 -6s-33.666 -12.667 -51.999 -26s-34.5 -31 -48.5 -53
c-31.333 -51.333 -54.666 -128.333 -69.999 -231c-7.33301 -48.667 -11 -92 -11 -130z" />
    <glyph glyph-name="gcommaaccent" unicode="&#x123;" horiz-adv-x="535" 
d="M294 -216c26.667 0 51.334 9.50098 74.001 28.501s37 46.833 43 83.5l21 133c-32 -12 -65.833 -21.333 -101.5 -28s-69.167 -10 -100.5 -10s-59 7.33301 -83 22s-40.333 35 -49 61c-10.667 29.333 -16 61.666 -16 96.999s3.33301 70 10 104
c13.333 84 39.166 148.667 77.499 194s86.5 68 144.5 68c52 0 105.167 -3.16699 159.5 -9.5s85.166 -9.83301 92.499 -10.5l-98 -621c-9.33301 -58.667 -30.666 -101.5 -63.999 -128.5s-68.333 -40.5 -105 -40.5c-5.33301 0 -11 0.333008 -17 1l-244 24l6 37l247 -4
c1.33301 -0.666992 2.33301 -1 3 -1zM196 404.001c-37.333 -67.333 -55.999 -147.334 -55.999 -240.001c0 -31.333 7.33301 -58.666 22 -81.999c14.667 -22.667 40.667 -34 78 -34c44.667 0 81.167 2.66699 109.5 8s58.166 12 89.499 20l64 402l-187 2h-2
c-25.333 0 -48.333 -7 -69 -21s-37 -32.333 -49 -55zM407.001 757c6 0.666992 10.333 1 13 1s7 -0.333008 13 -1l-4 -21h-1c-14 0 -22.667 -8 -26 -24l-4 -27h8c12 0 17.333 -6 16 -18l-8 -53c-2 -13.333 -9.33301 -20 -22 -20h-33c-10 0 -15 5 -15 15v5l13 87
c5.33301 32 22 50.667 50 56z" />
    <glyph glyph-name="Hcircumflex" unicode="&#x124;" horiz-adv-x="639" 
d="M316 797l143 130h55l88 -130h-50l-69 94l-107 -94h-60zM85 0l116 732h57l-55 -349h379l56 349h58l-116 -732h-58l52 325h-380l-52 -325h-57z" />
    <glyph glyph-name="hcircumflex" unicode="&#x125;" 
d="M91 844l143 130h55l88 -130h-50l-69 94l-107 -94h-60zM536 490c18 -25.333 26.999 -54.667 26.999 -88c0 -10 -0.666992 -20.667 -2 -32l-59 -370h-58l59 370c1.33301 8.66699 2 17 2 25c0 24 -7 44.5 -21 61.5s-38.667 25.5 -74 25.5s-67 -4.16699 -95 -12.5
s-65.667 -23.5 -113 -45.5l-67 -424h-58l124 784h58l-50 -315c28 15.333 51 27 69 35c50.667 24 100.334 36 149.001 36s85 -16.667 109 -50z" />
    <glyph glyph-name="Hbar" unicode="&#x126;" horiz-adv-x="628" 
d="M85 0l83 524h-62l6 41h62l27 167h57l-26 -167h373l27 167h57l-27 -167h61l-6 -41h-61l-83 -524h-57l52 326h-373l-53 -326h-57zM203 384h373l23 140h-374z" />
    <glyph glyph-name="hbar" unicode="&#x127;" horiz-adv-x="537" 
d="M399 540l2 -0.000976562c50.667 0 88 -16.667 112 -50c18.667 -25.333 28 -54.666 28 -87.999c0 -10 -1 -20.667 -3 -32l-59 -370h-57l59 370c1.33301 8.66699 2 17 2 25c0 24 -7 44.667 -21 62s-36.667 26 -68 26s-62.833 -4.83301 -94.5 -14.5
s-69.167 -24.5 -112.5 -44.5l-67 -424h-60l98 617h-75l6 41h75l20 126h60l-20 -126h137l-6 -41h-138l-23 -148c42 22.667 79 40.167 111 52.5s63.333 18.5 94 18.5z" />
    <glyph glyph-name="Itilde" unicode="&#x128;" horiz-adv-x="214" 
d="M373 866.5c22.667 10.333 38.6689 18.834 48.002 25.501l12 -31c-4 -2.66699 -11.833 -8.16699 -23.5 -16.5s-20.334 -14.333 -26.001 -18s-13.167 -8.16699 -22.5 -13.5c-32.667 -18.667 -63 -19.334 -91 -2.00098c-12.667 8 -24.334 15.833 -35.001 23.5
s-18.334 11.5 -23.001 11.5h-14.5c-5 0 -12.5 -1.5 -22.5 -4.5s-18 -5.83301 -24 -8.5s-14.667 -7.16699 -26 -13.5s-19 -10.833 -23 -13.5l-12 30c34.667 26 60.834 42.833 78.501 50.5s32.167 11.5 43.5 11.5s22.5 -2.5 33.5 -7.5s20.167 -10.5 27.5 -16.5
c20 -15.333 36 -23 48 -23s29.333 5.16699 52 15.5zM96.002 0.000976562l116 732h58l-116 -732h-58z" />
    <glyph glyph-name="itilde" unicode="&#x129;" horiz-adv-x="185" 
d="M216.5 662c11 -7.33301 18.6709 -11.166 23.0039 -11.499s8.66602 -0.5 12.999 -0.5s14.166 3 29.499 9c28 10 49.667 20.667 65 32l12 -31c-4 -2.66699 -11.833 -8.16699 -23.5 -16.5s-20.334 -14.333 -26.001 -18s-13.167 -8.16699 -22.5 -13.5
c-32.667 -18.667 -63 -19.334 -91 -2.00098c-12.667 8 -24.334 15.833 -35.001 23.5s-18.334 11.5 -23.001 11.5h-14.5c-5 0 -12.5 -1.5 -22.5 -4.5s-18 -5.83301 -24 -8.5s-14.667 -7.16699 -26 -13.5s-19 -10.833 -23 -13.5l-12 30c43.333 32.667 72.333 51.167 87 55.5
s27.834 6.5 39.501 6.5s24.167 -4 37.5 -12s25.5 -15.667 36.5 -23zM64.0039 0l84 531h57l-84 -531h-57z" />
    <glyph glyph-name="Imacron" unicode="&#x12a;" horiz-adv-x="214" 
d="M66 794l7 47h279l-7 -47h-279zM58 0l116 732h57l-116 -732h-57z" />
    <glyph glyph-name="imacron" unicode="&#x12b;" horiz-adv-x="185" 
d="M41 596l8 47h278l-7 -47h-279zM60 0l84 531h58l-84 -531h-58z" />
    <glyph glyph-name="Iogonek" unicode="&#x12e;" horiz-adv-x="214" 
d="M136 0c-53.333 -32 -80.001 -64 -80.001 -96c0 -26.667 21.333 -40 64 -40h7l-8 -45c-7.33301 -0.666992 -14.666 -1 -21.999 -1c-28 0 -50.167 7.66699 -66.5 23s-24.5 32 -24.5 50c0 46 33.333 82.333 100 109h30zM89.999 0l116 732h58l-116 -732h-58z" />
    <glyph glyph-name="iogonek" unicode="&#x12f;" horiz-adv-x="178" 
d="M86 4c-53.333 -32 -80 -64 -80 -96c0 -26.667 21.667 -40 65 -40h6l-7 -45c-8 -0.666992 -15.333 -1 -22 -1c-28.667 0 -51.167 7.66699 -67.5 23s-24.5 32 -24.5 50c0 46 33.333 82.333 100 109h30zM60 0h58l84 531h-58zM180 695h37.999c10.667 0 16 -5 16 -15v-5
l-8 -50c-1.33301 -13.333 -9 -20 -23 -20h-37c-5.33301 0 -9.66602 1.83301 -12.999 5.5s-4.33301 8.5 -3 14.5l7 50c2 13.333 9.66699 20 23 20z" />
    <glyph glyph-name="Idotaccent" unicode="&#x130;" horiz-adv-x="214" 
d="M242 894h37.999c10.667 0 16 -5.33301 16 -16v-5l-10 -57c-1.33301 -12.667 -8.66602 -19 -21.999 -19h-37c-6 0 -10.5 1.83301 -13.5 5.5s-4.16699 8.16699 -3.5 13.5l9 57c2 14 9.66699 21 23 21zM89.999 0l116 732h58l-116 -732h-58z" />
    <glyph glyph-name="dotlessi" unicode="&#x131;" horiz-adv-x="185" 
d="M60 0l84 531h58l-84 -531h-58z" />
    <glyph glyph-name="Jcircumflex" unicode="&#x134;" horiz-adv-x="346" 
d="M244 797l143 130h55l88 -130h-50l-69 94l-107 -94h-60zM49 62c36.667 -10.667 64.167 -16 82.5 -16s32.833 1.83301 43.5 5.5s22 9.5 34 17.5c24.667 16 41 48 49 96l90 567h57l-90 -567c-11.333 -74.667 -36.333 -123.667 -75 -147c-26 -16 -59 -24 -99 -24
c-44 0 -78.333 9 -103 27z" />
    <glyph glyph-name="jcircumflex" unicode="&#x135;" horiz-adv-x="181" 
d="M26 -270l127 801h61l-85 -535c-16 -107.333 -37 -196 -63 -266h-40zM41 597l142 132h55l88 -132h-51l-66 92l-106 -92h-62z" />
    <glyph glyph-name="Kcommaaccent" unicode="&#x136;" horiz-adv-x="557" 
d="M245 -207c14.667 0 23.333 7.66602 26 22.999l4 29h-8c-12.667 0 -18 6.33301 -16 19l8 51c2 13.333 9.33301 20 22 20h34c11.333 0 16 -6.66699 14 -20l-13 -88c-4 -25.333 -14.667 -41.666 -32 -48.999c-11.333 -5.33301 -20 -8 -26 -8s-12 0.666992 -18 2l4 21h1z
M79.999 -0.000976562l116 732h58l-54 -336h109l281 336h72l-304 -368l188 -364h-69l-173 338h-112l-54 -338h-58z" />
    <glyph glyph-name="kcommaaccent" unicode="&#x137;" horiz-adv-x="484" 
d="M199 -207c14.667 0 23.333 7.66699 26 23l4 29h-8c-12.667 0 -18 6.33301 -16 19l8 51c2.66699 13.333 10 20 22 20h34c11.333 0 16.333 -6.66699 15 -20l-14 -88c-3.33301 -18.667 -8.66602 -31.167 -15.999 -37.5s-13.333 -10.833 -18 -13.5
c-8 -3.33301 -15.833 -5 -23.5 -5s-13.834 0.333008 -18.501 1l4 21h1zM59.999 -2l123.998 781.998h58l-75 -472c62 8 121.833 35.667 179.5 83s91.834 93.333 102.501 138h64c-10.667 -37.333 -30.334 -73.666 -59.001 -108.999
c-51.333 -63.333 -108.666 -107.666 -171.999 -132.999l191 -289h-69l-180 274c-7.33301 -2 -18.666 -3.33301 -33.999 -4s-25 -0.666992 -29 0l-43 -270h-58z" />
    <glyph glyph-name="kgreenlandic" unicode="&#x138;" horiz-adv-x="499" 
d="M60 0l84 531h58l-38 -238h101l224 238h76l-246 -268l156 -263h-69l-142 236h-109l-37 -236h-58z" />
    <glyph glyph-name="Lacute" unicode="&#x139;" horiz-adv-x="538" 
d="M170 794l132 133h73l-154 -133h-51zM115 126c-1.33301 -7.33301 -1.99902 -14.167 -1.99902 -20.5s1.16699 -13.333 3.5 -21s7.5 -13.5 15.5 -17.5c12.667 -6 29.667 -9 51 -9h297l-9 -58h-296c-36.667 -0 -66.334 8.33301 -89.001 25c-20.667 14.667 -31 38.667 -31 72
c0 9.33301 0.666992 19 2 29l98 606h57z" />
    <glyph glyph-name="lacute" unicode="&#x13a;" horiz-adv-x="297" 
d="M178 843l132 133h73l-154 -133h-51zM178 0c-75.333 0 -113 41.667 -113 125c0 19.333 2 40.666 6 63.999l94 594h57l-94 -594c-3.33301 -21.333 -5 -40.166 -5 -56.499s1.16699 -29 3.5 -38s6.83301 -16.167 13.5 -21.5c8 -6.66699 28.167 -13.5 60.5 -20.5
s49.5 -10.5 51.5 -10.5l-7 -42h-67z" />
    <glyph glyph-name="Lcommaaccent" unicode="&#x13b;" horiz-adv-x="538" 
d="M250 -207c14.667 0 23.332 7.66602 25.999 22.999l5 29h-9c-12.667 0 -17.667 6.33301 -15 19l7 51c2.66699 13.333 10.334 20 23.001 20h33c12 0 17 -6.66699 15 -20l-14 -88c-4 -25.333 -14.333 -41.666 -31 -48.999c-11.333 -5.33301 -20 -8 -26 -8
s-12 0.666992 -18 2l3 21h1zM155.998 125.999c-0.666992 -7.33301 -1 -14.167 -1 -20.5s1 -13.333 3 -21s7.33301 -13.5 16 -17.5c12.667 -6 29.667 -9 51 -9h296l-9 -58h-295c-36.667 0 -66.667 8.33301 -90 25c-20 14.667 -30 38.667 -30 72c0 9.33301 0.666992 19 2 29
l97 606h57z" />
    <glyph glyph-name="lcommaaccent" unicode="&#x13c;" horiz-adv-x="297" 
d="M104 -207c14.667 0 23.333 7.66602 26 22.999l5 29h-8c-12.667 0 -18 6.33301 -16 19l8 51c2 13.333 9.33301 20 22 20h34c11.333 0 16 -6.66699 14 -20l-14 -88c-4 -25.333 -14.333 -41.666 -31 -48.999c-11.333 -5.33301 -20 -8 -26 -8s-12 0.666992 -18 2l3 21h1z
M199.999 -0.000976562c-74.667 0 -112 41.667 -112 125c0 19.333 1.66699 40.666 5 63.999l94 594h58l-94 -594c-3.33301 -21.333 -5 -40.166 -5 -56.499s1 -29 3 -38s6.33301 -16.167 13 -21.5c8.66699 -6.66699 29 -13.5 61 -20.5s49 -10.5 51 -10.5l-7 -42h-67z" />
    <glyph glyph-name="Lcaron" unicode="&#x13d;" horiz-adv-x="538" 
d="M157 126c-1.33301 -7.33301 -2 -14.166 -2 -20.499s1 -13.333 3 -21s7.33301 -13.5 16 -17.5c12.667 -6.66699 29.667 -9.66699 51 -9h296l-9 -58h-297c-39.333 0 -69 8.33301 -89 25s-30 40 -30 70c0 9.33301 1 19.666 3 30.999l97 606h57zM313 571l12 134l10 67h58
l-10 -67l-30 -134h-40z" />
    <glyph glyph-name="lcaron" unicode="&#x13e;" horiz-adv-x="302" 
d="M146 189c-3.33301 -21.333 -5 -40.168 -5 -56.501s1.16699 -29 3.5 -38s6.83301 -16.167 13.5 -21.5c8.66699 -6.66699 29 -13.5 61 -20.5s49 -10.5 51 -10.5l-7 -42h-67c-74.667 0 -112 42.333 -112 127c0 18.667 1.66699 39.334 5 62.001l94 594h57zM302 579.998
l12 134l10 67h58l-10 -67l-30 -134h-40z" />
    <glyph glyph-name="Lslash" unicode="&#x141;" horiz-adv-x="538" 
d="M155 126c-0.666992 -7.33301 -0.999023 -14.167 -0.999023 -20.5s1 -13.333 3 -21s7 -13.5 15 -17.5c12.667 -6 29.667 -9 51 -9h297l-9 -58h-296c-36.667 -0 -66.334 8.33301 -89.001 25c-20 14.667 -30 38.667 -30 72c0 9.33301 0.666992 19 2 29l39 244l-90 -37l8 48
l90 36l50 315h56l-45 -290l142 57l-9 -47l-141 -57z" />
    <glyph glyph-name="lslash" unicode="&#x142;" horiz-adv-x="346" 
d="M186 189c-4 -24 -6 -43.335 -6 -58.002s0.833008 -26.167 2.5 -34.5s5.5 -15.166 11.5 -20.499c8.66699 -8.66699 29.5 -16.5 62.5 -23.5s50.5 -10.5 52.5 -10.5l-6 -42h-68c-74.667 0 -112 42.333 -112 127c0 18.667 2 39.334 6 62.001l35 225l-80 -35l8 48l80 34
l51 322h60l-48 -295l150 63l-8 -46l-149 -65z" />
    <glyph glyph-name="Nacute" unicode="&#x143;" horiz-adv-x="654" 
d="M436 797l132 133h72l-154 -133h-50zM80 0l116 732h56l296 -625l100 625h57l-116 -732h-55l-297 626l-99 -626h-58z" />
    <glyph glyph-name="nacute" unicode="&#x144;" 
d="M342 600l133 133h72l-154 -133h-51zM406 540c50.667 0 88 -16.667 112 -50c18.667 -25.333 28 -54.666 28 -87.999c0 -10 -1 -20.667 -3 -32l-59 -370h-57l59 370c1.33301 8.66699 2 17 2 25c0 23.333 -7.16699 43.666 -21.5 60.999s-39 26 -74 26
s-66.5 -4.16699 -94.5 -12.5s-65.667 -23.5 -113 -45.5l-67 -424h-58l84 531h39l9 -62c66.667 36 119 58 157 66c18.667 3.33301 37.667 5 57 5z" />
    <glyph glyph-name="Ncommaaccent" unicode="&#x145;" horiz-adv-x="654" 
d="M289 -207c14.667 0 23.333 7.66602 26 22.999l5 29h-8c-12.667 0 -18 6.33301 -16 19l8 51c2 13.333 9.33301 20 22 20h34c11.333 0 16 -6.66699 14 -20l-14 -88c-4 -25.333 -14.333 -41.666 -31 -48.999c-11.333 -5.33301 -20 -8 -26 -8s-12 0.666992 -18 2l3 21h1z
M79.999 -0.000976562l116 732h56l296 -625l100 625h57l-116 -732h-55l-297 626l-99 -626h-58z" />
    <glyph glyph-name="ncommaaccent" unicode="&#x146;" 
d="M217 -207c14.667 0 23.332 7.66602 25.999 22.999l5 29h-9c-12.667 0 -17.667 6.33301 -15 19l7 51c2.66699 13.333 10.334 20 23.001 20h33c12 0 17 -6.66699 15 -20l-14 -88c-4 -25.333 -14.333 -41.666 -31 -48.999c-11.333 -5.33301 -20 -8 -26 -8
s-12 0.666992 -18 2l3 21h1zM405.998 539.999c50.667 0 88 -16.667 112 -50c18.667 -25.333 28 -54.666 28 -87.999c0 -10 -1 -20.667 -3 -32l-59 -370h-57l59 370c1.33301 8.66699 2 17 2 25c0 23.333 -7.16699 43.666 -21.5 60.999s-39 26 -74 26
s-66.5 -4.16699 -94.5 -12.5s-65.667 -23.5 -113 -45.5l-67 -424h-58l84 531h39l9 -62c66.667 36 119 58 157 66c18.667 3.33301 37.667 5 57 5z" />
    <glyph glyph-name="Ncaron" unicode="&#x147;" horiz-adv-x="654" 
d="M339 927h49l69 -94l108 94h59l-143 -130h-54zM80 0l116 732h56l296 -625l100 625h57l-116 -732h-55l-297 626l-99 -626h-58z" />
    <glyph glyph-name="ncaron" unicode="&#x148;" 
d="M249 730h49l69 -94l108 94h59l-143 -130h-54zM406 540c50.667 0 88 -16.667 112 -50c18.667 -25.333 28 -54.666 28 -87.999c0 -10 -1 -20.667 -3 -32l-59 -370h-57l59 370c1.33301 8.66699 2 17 2 25c0 23.333 -7.16699 43.666 -21.5 60.999s-39 26 -74 26
s-66.5 -4.16699 -94.5 -12.5s-65.667 -23.5 -113 -45.5l-67 -424h-58l84 531h39l9 -62c66.667 36 119 58 157 66c18.667 3.33301 37.667 5 57 5z" />
    <glyph glyph-name="Eng" unicode="&#x14a;" horiz-adv-x="647" 
d="M80 0l115.999 731.997h56l290 -624l99 624h57l-128 -816c-13.333 -83.333 -47.666 -135.333 -102.999 -156c-30.667 -11.333 -71.667 -17 -123 -17l7 44c6 1.33301 14.667 3 26 5l26 4.5c6 1 14 3 24 6s18 6.33301 24 10s12.667 8.83398 20 15.501
s13.333 14.334 18 23.001c11.333 20.667 19.333 45.334 24 74.001l13 79l-289 620l-99 -624h-58z" />
    <glyph glyph-name="eng" unicode="&#x14b;" horiz-adv-x="554" 
d="M517 490c19.333 -26 29.0049 -55.6699 29.0049 -89.0029c0 -10 -1 -20.333 -3 -31l-74 -460c-10.667 -53.333 -32 -92.666 -64 -117.999c-26.667 -20.667 -57.334 -35.667 -92.001 -45c-6.66699 -2 -16.667 -4.33301 -30 -7l-19 30c64 22.667 106.333 50.334 127 83.001
c10 16 17 34.333 21 55l74 462c0.666992 8 1 15.333 1 22c0 24 -7.5 45 -22.5 63s-37 27 -66 27s-55.833 -2.83301 -80.5 -8.5s-44.834 -11.667 -60.501 -18s-39.834 -17.166 -72.501 -32.499l-67 -423h-58l84 531h39l9 -62l28.5 15c16.333 8.66699 32.166 16.667 47.499 24
c46 21.333 92.667 32 140 32s83.666 -16.667 108.999 -50z" />
    <glyph glyph-name="Omacron" unicode="&#x14c;" horiz-adv-x="672" 
d="M323 794l7 47h279l-7 -47h-279zM385 735c17.333 1.33301 38.8311 1.99512 64.498 1.99512s48.334 -1.16699 68.001 -3.5s39.334 -6.66602 59.001 -12.999s35.834 -15.166 48.501 -26.499c30 -27.333 48.667 -65.333 56 -114c2.66699 -20 4 -38.667 4 -56
c0 -90 -11.333 -181.333 -34 -274c-22.667 -93.333 -55 -158 -97 -194c-29.333 -25.333 -57 -40.666 -83 -45.999c-62 -14 -127.667 -17.667 -197 -11c-48.667 4.66699 -84.667 17 -108 37c-31.333 26 -50.666 62.333 -57.999 109c-3.33301 20.667 -5 39.5 -5 56.5
s0.333008 36.5 1 58.5s4.5 55.333 11.5 100s14.667 84 23 118s17.666 63.5 27.999 88.5s21 46.833 32 65.5s23.833 34.334 38.5 47.001s29 22.834 43 30.501s30.667 13.5 50 17.5s37.666 6.66699 54.999 8zM200.498 492.995c-9.66699 -36.667 -19 -82.998 -28 -138.998
s-13.5 -98.167 -13.5 -126.5s2 -52.166 6 -71.499s10.167 -36 18.5 -50s20.833 -25 37.5 -33c27.333 -12.667 63 -19 107 -19s77.333 2.16699 100 6.5s44.5 12.666 65.5 24.999s38.5 30.166 52.5 53.499c30 48 53 122 69 222c9.33301 59.333 14 112.333 14 159
c0 36 -6.66699 69.333 -20 100c-8 18 -24.333 33 -49 45c-14.667 7.33301 -33.167 11.666 -55.5 12.999s-45 2 -68 2s-42.167 -0.833008 -57.5 -2.5s-33.5 -5.5 -54.5 -11.5s-37.5 -15.667 -49.5 -29s-25 -31.5 -39 -54.5s-25.833 -52.833 -35.5 -89.5z" />
    <glyph glyph-name="omacron" unicode="&#x14d;" horiz-adv-x="562" 
d="M231 596l7 47h279l-7 -47h-279zM361 536c82.667 0 138.333 -22.6699 167 -68.0029c18.667 -30 28 -70 28 -120c0 -28 -2.66699 -58.667 -8 -92c-16.667 -99.333 -43.5 -167.666 -80.5 -204.999s-98.333 -56 -184 -56s-143.167 20.333 -172.5 61
c-19.333 26.667 -29 65.334 -29 116.001c0 26.667 3.5 61.834 10.5 105.501s17 83 30 118s30.5 63 52.5 84s47.5 35.667 76.5 44s65.5 12.5 109.5 12.5zM138.999 158.997c0 -10.667 2.33398 -23.1699 7.00098 -37.5029s10.5 -26.166 17.5 -35.499s17.5 -16.333 31.5 -21
c22 -8 49 -12.167 81 -12.5s56.167 0.833984 72.5 3.50098s32.666 8 48.999 16s29.833 19.333 40.5 34c23.333 32.667 40.666 83.334 51.999 152.001c6 37.333 9 66.666 9 87.999s-1.66699 39.333 -5 54s-8.66602 27.334 -15.999 38.001s-17.333 19 -30 25
c-22 10 -48.5 15 -79.5 15s-53.667 -0.666992 -68 -2s-29 -4.66602 -44 -9.99902s-27.5 -13 -37.5 -23c-23.333 -23.333 -42.5 -61.333 -57.5 -114s-22.5 -109.334 -22.5 -170.001z" />
    <glyph glyph-name="Ohungarumlaut" unicode="&#x150;" horiz-adv-x="672" 
d="M364 797l132 133h73l-154 -133h-51zM500 797l133 133h72l-154 -133h-51zM385 735c17.333 1.33301 38.8311 1.99512 64.498 1.99512s48.334 -1.16699 68.001 -3.5s39.334 -6.66602 59.001 -12.999s35.834 -15.166 48.501 -26.499c30 -27.333 48.667 -65.333 56 -114
c2.66699 -20 4 -38.667 4 -56c0 -90 -11.333 -181.333 -34 -274c-22.667 -93.333 -55 -158 -97 -194c-29.333 -25.333 -57 -40.666 -83 -45.999c-62 -14 -127.667 -17.667 -197 -11c-48.667 4.66699 -84.667 17 -108 37c-31.333 26 -50.666 62.333 -57.999 109
c-3.33301 20.667 -5 39.5 -5 56.5s0.333008 36.5 1 58.5s4.5 55.333 11.5 100s14.667 84 23 118s17.666 63.5 27.999 88.5s21 46.833 32 65.5s23.833 34.334 38.5 47.001s29 22.834 43 30.501s30.667 13.5 50 17.5s37.666 6.66699 54.999 8zM200.498 492.995
c-9.66699 -36.667 -19 -82.998 -28 -138.998s-13.5 -98.167 -13.5 -126.5s2 -52.166 6 -71.499s10.167 -36 18.5 -50s20.833 -25 37.5 -33c27.333 -12.667 63 -19 107 -19s77.333 2.16699 100 6.5s44.5 12.666 65.5 24.999s38.5 30.166 52.5 53.499c30 48 53 122 69 222
c9.33301 59.333 14 112.333 14 159c0 36 -6.66699 69.333 -20 100c-8 18 -24.333 33 -49 45c-14.667 7.33301 -33.167 11.666 -55.5 12.999s-45 2 -68 2s-42.167 -0.833008 -57.5 -2.5s-33.5 -5.5 -54.5 -11.5s-37.5 -15.667 -49.5 -29s-25 -31.5 -39 -54.5
s-25.833 -52.833 -35.5 -89.5z" />
    <glyph glyph-name="ohungarumlaut" unicode="&#x151;" horiz-adv-x="562" 
d="M277 596l132 133h73l-154 -133h-51zM413 596l133 133h72l-154 -133h-51zM361 536c82.667 0 138.333 -22.6699 167 -68.0029c18.667 -30 28 -70 28 -120c0 -28 -2.66699 -58.667 -8 -92c-16.667 -99.333 -43.5 -167.666 -80.5 -204.999s-98.333 -56 -184 -56
s-143.167 20.333 -172.5 61c-19.333 26.667 -29 65.334 -29 116.001c0 26.667 3.5 61.834 10.5 105.501s17 83 30 118s30.5 63 52.5 84s47.5 35.667 76.5 44s65.5 12.5 109.5 12.5zM138.999 158.997c0 -10.667 2.33398 -23.1699 7.00098 -37.5029s10.5 -26.166 17.5 -35.499
s17.5 -16.333 31.5 -21c22 -8 49 -12.167 81 -12.5s56.167 0.833984 72.5 3.50098s32.666 8 48.999 16s29.833 19.333 40.5 34c23.333 32.667 40.666 83.334 51.999 152.001c6 37.333 9 66.666 9 87.999s-1.66699 39.333 -5 54s-8.66602 27.334 -15.999 38.001
s-17.333 19 -30 25c-22 10 -48.5 15 -79.5 15s-53.667 -0.666992 -68 -2s-29 -4.66602 -44 -9.99902s-27.5 -13 -37.5 -23c-23.333 -23.333 -42.5 -61.333 -57.5 -114s-22.5 -109.334 -22.5 -170.001z" />
    <glyph glyph-name="OE" unicode="&#x152;" horiz-adv-x="1059" 
d="M384.5 735.5c15.667 1 35.999 1.50098 60.999 1.50098s47.667 -1.33301 68 -4s40.166 -7.66699 59.499 -15c38.667 -14 66 -42.333 82 -85c16.667 66 59.334 99 128.001 99h10l298 -14l-7 -43h-300c-46 0 -73 -24.333 -81 -73l-32 -209l327 -8l-7 -44l-330 -9l-34 -209
c-2 -9.33301 -2.16699 -17.5 -0.5 -24.5s3 -13 4 -18s3.66699 -9 8 -12s8.16602 -5.5 11.499 -7.5s8 -3.33301 14 -4c9.33301 -1.33301 20 -2 32 -2h290l-7 -43l-292 -15h-20.5c-9.66699 0 -22 2.33301 -37 7s-28.167 14.334 -39.5 29.001s-17.333 33.334 -18 56.001
c-26.667 -36.667 -58.5 -61.334 -95.5 -74.001s-76.667 -19 -119 -19s-73 1 -92 3s-38.5 6 -58.5 12s-36.333 14.333 -49 25c-31.333 26 -50.666 62.333 -57.999 109c-3.33301 20.667 -5 39.5 -5 56.5s0.333008 36.5 1 58.5s4.33398 54.167 11.001 96.5s13.667 79 21 110
s15.166 58.5 23.499 82.5s17.833 45.167 28.5 63.5s21.167 34.166 31.5 47.499s22.5 24.666 36.5 33.999s27.5 16.833 40.5 22.5s28.333 10 46 13s34.334 5 50.001 6zM192.499 493.001c-9.66699 -36.667 -18.835 -82.334 -27.502 -137.001s-13 -95 -13 -121
s0.5 -46.833 1.5 -62.5s5 -31 12 -46s15 -27.333 24 -37s21.5 -17.167 37.5 -22.5c26.667 -8.66699 60 -13 100 -13s71.167 2.16699 93.5 6.5s44 12.666 65 24.999s38.5 30.166 52.5 53.499c30 48 53 122 69 222c10 62.667 15 110.334 15 143.001s-3 59.334 -9 80.001
s-13.167 37.834 -21.5 51.501s-21.666 23.667 -39.999 30s-35.166 10.333 -50.499 12s-36.833 2.5 -64.5 2.5s-49.167 -0.833008 -64.5 -2.5s-33.5 -5.5 -54.5 -11.5s-37.667 -15.667 -50 -29s-25.5 -31.5 -39.5 -54.5s-25.833 -52.833 -35.5 -89.5z" />
    <glyph glyph-name="oe" unicode="&#x153;" horiz-adv-x="940" 
d="M355 536c98.667 0 159.335 -33.998 182.002 -101.998c18 35.333 44 62 78 80s82 27 144 27c122.667 0 184 -41.667 184 -125c0 -46.667 -11.333 -83.834 -34 -111.501s-48 -46.834 -76 -57.501c-50.667 -20 -103 -30 -157 -30c-28.667 0 -56.334 2 -83.001 6
s-44 7.66699 -52 11c-5.33301 -32 -8 -60.167 -8 -84.5s3.33301 -43.833 10 -58.5c12.667 -28.667 41.667 -43 87 -43c81.333 0 160.666 5.66699 237.999 17l-6 -43c-70.667 -19.333 -152.334 -29 -245.001 -29c-70.667 0 -114 31 -130 93
c-19.333 -32.667 -45.5 -56 -78.5 -70s-76.167 -21 -129.5 -21c-86 0 -143.667 20.667 -173 62c-19.333 27.333 -29 66.333 -29 117c0 26.667 3 59 9 97s14 72.333 24 103s21.833 56.667 35.5 78s30.834 38 51.501 50c38 22.667 90.667 34 158 34zM165.001 358.002
c-20.667 -62 -30.9971 -128.334 -30.9971 -199.001c0 -10.667 2.16699 -23.167 6.5 -37.5s10.166 -26.166 17.499 -35.499s17.666 -16.333 30.999 -21c22.667 -8.66699 51.5 -13 86.5 -13s62.167 2.16699 81.5 6.5s38 13.5 56 27.5c33.333 25.333 57.333 82.666 72 171.999
c6 37.333 9 66.666 9 87.999s-1.83301 39.333 -5.5 54s-9 27.334 -16 38.001s-16.833 19 -29.5 25c-22.667 10 -50.5 15 -83.5 15s-57.667 -1.16699 -74 -3.5s-32.833 -7.66602 -49.5 -15.999s-30.334 -20.5 -41.001 -36.5s-20.667 -37.333 -30 -64zM548.004 274.001
c18 -3.33301 40.667 -5.00098 68 -5.00098s49.166 0.333008 65.499 1s36.5 3.33398 60.5 8.00098s45.667 11 65 19s36 20 50 36c18.667 20.667 28 45.167 28 73.5s-9.5 48.333 -28.5 60s-54.167 17.5 -105.5 17.5c-67.333 0 -114.666 -15.333 -141.999 -46
c-19.333 -21.333 -32.333 -43 -39 -65c-8.66699 -28 -16 -61 -22 -99z" />
    <glyph glyph-name="Racute" unicode="&#x154;" horiz-adv-x="610" 
d="M389 797l133 133h72l-154 -133h-51zM491 732c45.333 0 81.001 -14.332 107.001 -42.999c22.667 -24 34 -63 34 -117c0 -56 -7 -101.5 -21 -136.5s-26.833 -59.333 -38.5 -73s-25.667 -24.834 -42 -33.501s-29.333 -14 -39 -16s-20.5 -3.33301 -32.5 -4l107 -309h-63
l-102 304c-9.33301 0 -47.833 2 -115.5 6s-101.834 6 -102.501 6l-51 -316h-57l116 732h300zM429.001 364.001c82 0 129 51.667 141 155c2 33.333 3 56 3 68s-2 23.5 -6 34.5s-8.33301 20 -13 27s-11 12.167 -19 15.5c-14 6.66699 -31.667 10 -53 10h-242l-49 -310h238z" />
    <glyph glyph-name="racute" unicode="&#x155;" horiz-adv-x="415" 
d="M350 597l133 133h72l-154 -133h-51zM435 535.5c8.66699 1 24.3311 1.50195 46.998 1.50195s39.667 -2.66699 51 -8l-9 -57c-18 4.66699 -36.833 7 -56.5 7s-33.5 -0.333008 -41.5 -1s-15 -1.33398 -21 -2.00098s-13.333 -2 -22 -4s-15.167 -3.33301 -19.5 -4
s-11.166 -2.83398 -20.499 -6.50098s-15.5 -5.83398 -18.5 -6.50098s-10.167 -3.5 -21.5 -8.5s-18 -7.83301 -20 -8.5s-9.66699 -4 -23 -10s-21.333 -9.66699 -24 -11l-66 -417h-57l84 531h39l7 -67l20 10.5l21 11l19.5 9.5l21 10c4.33301 2 11 4.83301 20 8.5
s16.333 6.33398 22 8.00098s12.834 3.66699 21.501 6s16.5 4 23.5 5s14.833 2 23.5 3z" />
    <glyph glyph-name="Rcommaaccent" unicode="&#x156;" horiz-adv-x="610" 
d="M264 -207c14.667 0 23.333 7.66602 26 22.999l4 29h-8c-12.667 0 -18 6.33301 -16 19l8 51c2 13.333 9.33301 20 22 20h34c11.333 0 16 -6.66699 14 -20l-13 -88c-4 -25.333 -14.667 -41.666 -32 -48.999c-11.333 -5.33301 -20 -8 -26 -8s-12 0.666992 -18 2l4 21h1z
M490.999 731.999c45.333 0 81.001 -14.332 107.001 -42.999c22.667 -24 34 -63 34 -117c0 -56 -7 -101.5 -21 -136.5s-26.833 -59.333 -38.5 -73s-25.667 -24.834 -42 -33.501s-29.333 -14 -39 -16s-20.5 -3.33301 -32.5 -4l107 -309h-63l-102 304
c-9.33301 0 -47.833 2 -115.5 6s-101.834 6 -102.501 6l-51 -316h-57l116 732h300zM429 364c82 0 129 51.667 141 155c2 33.333 3 56 3 68s-2 23.5 -6 34.5s-8.33301 20 -13 27s-11 12.167 -19 15.5c-14 6.66699 -31.667 10 -53 10h-242l-49 -310h238z" />
    <glyph glyph-name="rcommaaccent" unicode="&#x157;" horiz-adv-x="415" 
d="M71 -207c14.667 0 23.332 7.66602 25.999 22.999l5 29h-9c-12.667 0 -17.667 6.33301 -15 19l7 51c2.66699 13.333 10.334 20 23.001 20h33c12 0 17 -6.66699 15 -20l-14 -88c-4 -25.333 -14.333 -41.666 -31 -48.999c-11.333 -5.33301 -20 -8 -26 -8s-12 0.666992 -18 2
l3 21h1zM427.498 535.499c8.33301 1 23.9971 1.50195 46.9971 1.50195s40.167 -2.66699 51.5 -8l-10 -57c-18 4.66699 -36.667 7 -56 7s-33 -0.333008 -41 -1s-15.167 -1.33398 -21.5 -2.00098s-13.666 -2 -21.999 -4s-14.666 -3.33301 -18.999 -4
s-11.333 -2.83398 -21 -6.50098s-16 -5.83398 -19 -6.50098s-10 -3.5 -21 -8.5s-17.667 -7.83301 -20 -8.5s-10 -4 -23 -10s-20.833 -9.66699 -23.5 -11l-66 -417h-57l84 531h38l8 -67l20 10.5l21 11l19.5 9.5l21 10c4.33301 2 11 4.83301 20 8.5s16.333 6.33398 22 8.00098
s12.834 3.66699 21.501 6s16.5 4 23.5 5s14.667 2 23 3z" />
    <glyph glyph-name="Rcaron" unicode="&#x158;" horiz-adv-x="610" 
d="M296 927h49l69 -94l108 94h59l-142 -130h-55zM491 732c45.333 0 81.001 -14.332 107.001 -42.999c22.667 -24 34 -63 34 -117c0 -56 -7 -101.5 -21 -136.5s-26.833 -59.333 -38.5 -73s-25.667 -24.834 -42 -33.501s-29.333 -14 -39 -16s-20.5 -3.33301 -32.5 -4l107 -309
h-63l-102 304c-9.33301 0 -47.833 2 -115.5 6s-101.834 6 -102.501 6l-51 -316h-57l116 732h300zM429.001 364.001c82 0 129 51.667 141 155c2 33.333 3 56 3 68s-2 23.5 -6 34.5s-8.33301 20 -13 27s-11 12.167 -19 15.5c-14 6.66699 -31.667 10 -53 10h-242l-49 -310h238z
" />
    <glyph glyph-name="rcaron" unicode="&#x159;" horiz-adv-x="415" 
d="M201 727h49l69 -94l108 94h59l-143 -130h-54zM332 526c26 7.33301 54.3311 11.0029 84.998 11.0029s51.667 -2.66699 63 -8l-9 -57c-18 4.66699 -36.833 7 -56.5 7s-33.5 -0.333008 -41.5 -1s-15 -1.33398 -21 -2.00098s-13.333 -2 -22 -4s-15.167 -3.33301 -19.5 -4
s-11.166 -2.83398 -20.499 -6.50098s-15.5 -5.83398 -18.5 -6.50098s-10 -3.5 -21 -8.5s-17.667 -7.83301 -20 -8.5s-10.166 -4 -23.499 -10s-21.333 -9.66699 -24 -11l-65 -417h-58l84 531h39l7 -67l31.5 16.5c17 9 33.167 17 48.5 24s36 14.167 62 21.5z" />
    <glyph glyph-name="Sacute" unicode="&#x15a;" horiz-adv-x="569" 
d="M381 798l132 133h73l-154 -133h-51zM321 50c95.333 0 148.333 35.333 159 106l11 68c1.33301 12.667 2 23.667 2 33s-0.333008 17.333 -1 24c-4.66699 32.667 -33.334 49 -86.001 49h-130c-60 0 -101.333 12 -124 36c-20 22 -30 47 -30 75c0 7.33301 1.33301 25.333 4 54
l10 66c12 74 39 123 81 147c34.667 20 78.334 30 131.001 30c35.333 0 81.333 -3 138 -9s93.667 -10.333 111 -13l-7 -44l-239 8c-6 0.666992 -14.333 1 -25 1s-23 -1.16699 -37 -3.5s-28 -7.83301 -42 -16.5c-27.333 -16.667 -45 -50.334 -53 -101.001l-11 -66
c-4 -28 -4.33301 -47 -1 -57s6.16602 -17.667 8.49902 -23s6.5 -9.66602 12.5 -12.999s11.333 -5.83301 16 -7.5s11.334 -3.16699 20.001 -4.5c12.667 -0.666992 28 -1 46 -1h130c30.667 0 56.167 -4.83301 76.5 -14.5s34.5 -22.167 42.5 -37.5c12 -23.333 18 -45 18 -65
s-1.33301 -36.333 -4 -49l-11 -68c-4 -28 -12 -52.5 -24 -73.5s-25.167 -37 -39.5 -48s-31.5 -19.833 -51.5 -26.5c-30.667 -9.33301 -64.667 -14 -102 -14s-82.833 2.5 -136.5 7.5s-91.167 9.5 -112.5 13.5l7 45c46.667 -5.33301 127.667 -8 243 -8z" />
    <glyph glyph-name="sacute" unicode="&#x15b;" horiz-adv-x="506" 
d="M320 599l132 133h72l-154 -133h-50zM347 49c24.667 0 41.002 3.33398 49.002 10.001c18.667 14 30 33 34 57l8 53c1.33301 6 2 11.333 2 16c0 33.333 -21 50 -63 50h-142c-50 0 -83.833 7.83301 -101.5 23.5s-26.5 38.167 -26.5 67.5c0 10.667 1 22.667 3 36l7 49
c7.33301 44 23.166 76.333 47.499 97s61.5 31 111.5 31c24.667 0 65.667 -1.5 123 -4.5s99.333 -5.83301 126 -8.5l-7 -43h-251c-32 0 -54.5 -6.66699 -67.5 -20s-21.167 -31.333 -24.5 -54l-8 -49c-4 -24 -4.16699 -38.667 -0.5 -44s6 -9.16602 7 -11.499
s3.66699 -4.33301 8 -6s7.16602 -2.83398 8.49902 -3.50098s4.83301 -1.16699 10.5 -1.5s9.33398 -0.5 11.001 -0.5h13h12.5h143c41.333 0 71.333 -10.333 90 -31s28 -44.334 28 -71.001c0 -8 -0.666992 -16 -2 -24l-9 -59c-8.66699 -57.333 -34.334 -93 -77.001 -107
c-20 -6 -42.833 -9 -68.5 -9s-71 2 -136 6s-108.167 7.33301 -129.5 10l7 41h264z" />
    <glyph glyph-name="Scircumflex" unicode="&#x15c;" horiz-adv-x="569" 
d="M257 798l143 130h54l88 -130h-49l-69 94l-108 -94h-59zM329 50c95.333 0 148.332 35.333 158.999 106l11 68c1.33301 12 2 25.5 2 40.5s-3.66699 28.167 -11 39.5c-11.333 17.333 -36.666 26 -75.999 26h-130c-60 0 -101.333 12 -124 36c-20 22 -30 47 -30 75
c0 7.33301 1.33301 25.333 4 54l10 66c12 74 39 123 81 147c34.667 20 78.334 30 131.001 30c26 0 67.167 -2.66699 123.5 -8s98.166 -10 125.499 -14l-7 -44l-239 8c-6 0.666992 -14.333 1 -25 1s-23 -1.16699 -37 -3.5s-28 -7.83301 -42 -16.5
c-27.333 -16.667 -45 -50.334 -53 -101.001l-11 -66c-4 -28 -4.33301 -47 -1 -57s6.16602 -17.667 8.49902 -23s6.5 -9.66602 12.5 -12.999s11.333 -5.83301 16 -7.5s11.334 -3.16699 20.001 -4.5c12.667 -0.666992 28 -1 46 -1h130c30.667 0 56.167 -4.83301 76.5 -14.5
s34.5 -22.167 42.5 -37.5c12 -23.333 18 -45 18 -65s-1.33301 -36.333 -4 -49l-11 -68c-4 -28 -12 -52.5 -24 -73.5s-25.167 -37 -39.5 -48s-31.5 -19.833 -51.5 -26.5c-30.667 -9.33301 -64.667 -14 -102 -14s-82.833 2.5 -136.5 7.5s-91.167 9.5 -112.5 13.5l7 45
c46.667 -5.33301 127.667 -8 243 -8z" />
    <glyph glyph-name="scircumflex" unicode="&#x15d;" horiz-adv-x="506" 
d="M196 599l143 130h55l88 -130h-49l-70 94l-107 -94h-60zM335 49c24.667 0 41.001 3.33496 49.001 10.002c18.667 14 30 33 34 57l8 53c1.33301 6 2 11.333 2 16c0 33.333 -21 50 -63 50h-142c-77.333 0 -119.333 21.333 -126 64c-1.33301 8 -2 17.167 -2 27.5
s1 22.166 3 35.499l7 49c7.33301 44 23.166 76.333 47.499 97s61.5 31 111.5 31c73.333 0 156.333 -4.33301 249 -13l-7 -43h-251c-44 0 -72.333 -15.333 -85 -46c-3.33301 -8 -5.66602 -17.333 -6.99902 -28l-8 -49c-4 -24 -4.16699 -38.667 -0.5 -44s6 -9.16602 7 -11.499
s3.66699 -4.33301 8 -6s7.16602 -2.83398 8.49902 -3.50098s4.83301 -1.16699 10.5 -1.5s9.33398 -0.5 11.001 -0.5h13h12.5h143c41.333 0 71.333 -10.333 90 -31s28 -44.334 28 -71.001c0 -8 -0.666992 -16 -2 -24l-9 -59c-8.66699 -57.333 -34.334 -93 -77.001 -107
c-20 -6 -42.833 -9 -68.5 -9s-71 2 -136 6s-108.167 7.33301 -129.5 10l7 41h264z" />
    <glyph glyph-name="Scedilla" unicode="&#x15e;" horiz-adv-x="569" 
d="M214 -181l-44.999 -0.00195312l5 27l48 12c24.667 6.66699 42 22.334 52 47.001c5.33301 12.667 9.33301 29.334 12 50.001h51c-6 -35.333 -13.333 -62.333 -22 -81s-20.834 -32.5 -36.501 -41.5s-37.167 -13.5 -64.5 -13.5zM329.001 49.998
c95.333 0 148.332 35.333 158.999 106l11 68c1.33301 12 2 25.5 2 40.5s-3.66699 28.167 -11 39.5c-11.333 17.333 -36.666 26 -75.999 26h-130c-60 0 -101.333 12 -124 36c-20 22 -30 47 -30 75c0 7.33301 1.33301 25.333 4 54l10 66c12 74 39 123 81 147
c34.667 20 78.334 30 131.001 30c26 0 67.167 -2.66699 123.5 -8s98.166 -10 125.499 -14l-7 -44l-239 8c-6 0.666992 -14.333 1 -25 1s-23 -1.16699 -37 -3.5s-28 -7.83301 -42 -16.5c-27.333 -16.667 -45 -50.334 -53 -101.001l-11 -66c-4 -28 -4.33301 -47 -1 -57
s6.16602 -17.667 8.49902 -23s6.5 -9.66602 12.5 -12.999s11.333 -5.83301 16 -7.5s11.334 -3.16699 20.001 -4.5c12.667 -0.666992 28 -1 46 -1h130c30.667 0 56.167 -4.83301 76.5 -14.5s34.5 -22.167 42.5 -37.5c12 -23.333 18 -45 18 -65s-1.33301 -36.333 -4 -49
l-11 -68c-4 -28 -12 -52.5 -24 -73.5s-25.167 -37 -39.5 -48s-31.5 -19.833 -51.5 -26.5c-30.667 -9.33301 -64.667 -14 -102 -14s-82.833 2.5 -136.5 7.5s-91.167 9.5 -112.5 13.5l7 45c46.667 -5.33301 127.667 -8 243 -8z" />
    <glyph glyph-name="scedilla" unicode="&#x15f;" horiz-adv-x="506" 
d="M171 -175l-45 0.000976562l5 27l48 11c18.667 5.33301 31.667 13.666 39 24.999c12 18 20.333 42.333 25 73h51c-6 -35.333 -13.333 -62.5 -22 -81.5s-21 -32.833 -37 -41.5s-37.333 -13 -64 -13zM335 49.001c24.667 0 41.001 3.33496 49.001 10.002
c18.667 14 30 33 34 57l8 53c1.33301 6 2 11.333 2 16c0 33.333 -21 50 -63 50h-142c-77.333 0 -119.333 21.333 -126 64c-1.33301 8 -2 17.167 -2 27.5s1 22.166 3 35.499l7 49c7.33301 44 23.166 76.333 47.499 97s61.5 31 111.5 31c73.333 0 156.333 -4.33301 249 -13
l-7 -43h-251c-44 0 -72.333 -15.333 -85 -46c-3.33301 -8 -5.66602 -17.333 -6.99902 -28l-8 -49c-4 -24 -4.16699 -38.667 -0.5 -44s6 -9.16602 7 -11.499s3.66699 -4.33301 8 -6s7.16602 -2.83398 8.49902 -3.50098s4.83301 -1.16699 10.5 -1.5s9.33398 -0.5 11.001 -0.5
h13h12.5h143c41.333 0 71.333 -10.333 90 -31s28 -44.334 28 -71.001c0 -8 -0.666992 -16 -2 -24l-9 -59c-8.66699 -57.333 -34.334 -93 -77.001 -107c-20 -6 -42.833 -9 -68.5 -9s-71 2 -136 6s-108.167 7.33301 -129.5 10l7 41h264z" />
    <glyph glyph-name="Scaron" unicode="&#x160;" horiz-adv-x="569" 
d="M298 928h49l70 -93l107 93h60l-143 -130h-55zM329 50c95.333 0 148.332 35.333 158.999 106l11 68c1.33301 12 2 25.5 2 40.5s-3.66699 28.167 -11 39.5c-11.333 17.333 -36.666 26 -75.999 26h-130c-60 0 -101.333 12 -124 36c-20 22 -30 47 -30 75
c0 7.33301 1.33301 25.333 4 54l10 66c12 74 39 123 81 147c34.667 20 78.334 30 131.001 30c26 0 67.167 -2.66699 123.5 -8s98.166 -10 125.499 -14l-7 -44l-239 8c-6 0.666992 -14.333 1 -25 1s-23 -1.16699 -37 -3.5s-28 -7.83301 -42 -16.5
c-27.333 -16.667 -45 -50.334 -53 -101.001l-11 -66c-4 -28 -4.33301 -47 -1 -57s6.16602 -17.667 8.49902 -23s6.5 -9.66602 12.5 -12.999s11.333 -5.83301 16 -7.5s11.334 -3.16699 20.001 -4.5c12.667 -0.666992 28 -1 46 -1h130c30.667 0 56.167 -4.83301 76.5 -14.5
s34.5 -22.167 42.5 -37.5c12 -23.333 18 -45 18 -65s-1.33301 -36.333 -4 -49l-11 -68c-4 -28 -12 -52.5 -24 -73.5s-25.167 -37 -39.5 -48s-31.5 -19.833 -51.5 -26.5c-30.667 -9.33301 -64.667 -14 -102 -14s-82.833 2.5 -136.5 7.5s-91.167 9.5 -112.5 13.5l7 45
c46.667 -5.33301 127.667 -8 243 -8z" />
    <glyph glyph-name="scaron" unicode="&#x161;" horiz-adv-x="506" 
d="M216 729h50l69 -93l107 93h60l-143 -130h-55zM335 49c24.667 0 41.001 3.33496 49.001 10.002c18.667 14 30 33 34 57l8 53c1.33301 6 2 11.333 2 16c0 33.333 -21 50 -63 50h-142c-77.333 0 -119.333 21.333 -126 64c-1.33301 8 -2 17.167 -2 27.5s1 22.166 3 35.499
l7 49c7.33301 44 23.166 76.333 47.499 97s61.5 31 111.5 31c73.333 0 156.333 -4.33301 249 -13l-7 -43h-251c-44 0 -72.333 -15.333 -85 -46c-3.33301 -8 -5.66602 -17.333 -6.99902 -28l-8 -49c-4 -24 -4.16699 -38.667 -0.5 -44s6 -9.16602 7 -11.499
s3.66699 -4.33301 8 -6s7.16602 -2.83398 8.49902 -3.50098s4.83301 -1.16699 10.5 -1.5s9.33398 -0.5 11.001 -0.5h13h12.5h143c41.333 0 71.333 -10.333 90 -31s28 -44.334 28 -71.001c0 -8 -0.666992 -16 -2 -24l-9 -59c-8.66699 -57.333 -34.334 -93 -77.001 -107
c-20 -6 -42.833 -9 -68.5 -9s-71 2 -136 6s-108.167 7.33301 -129.5 10l7 41h264z" />
    <glyph glyph-name="Tcommaaccent" unicode="&#x162;" horiz-adv-x="596" 
d="M170 -185l-44 0.000976562l4 27l48 12c19.333 5.33301 33.833 15.166 43.5 29.499s16.5 36.833 20.5 67.5h51c-8 -51.333 -20.5 -86.833 -37.5 -106.5s-45.5 -29.5 -85.5 -29.5zM125 674.001l10 58h518l-10 -58h-233l-107 -674h-57l106 674h-227z" />
    <glyph glyph-name="tcommaaccent" unicode="&#x163;" horiz-adv-x="366" 
d="M102 -182h-44.001l4 27l48 12c19.333 5.33301 33.833 15.166 43.5 29.499s16.834 36.833 21.501 67.5h50c-8 -51.333 -20.333 -86.666 -37 -105.999c-17.333 -20 -46 -30 -86 -30zM248.999 0c-75.333 0 -113 41.666 -113 124.999c0 18.667 1.66699 40 5 64l45 285h-94
l7 43l96 15l38 148h43l-23 -148h162l-10 -58h-161l-45 -285c-3.33301 -21.333 -5 -40.166 -5 -56.499s1 -29 3 -38s6.33301 -16.167 13 -21.5c8.66699 -7.33301 29 -14.5 61 -21.5s49 -10.5 51 -10.5l-6 -41h-67z" />
    <glyph glyph-name="Tcaron" unicode="&#x164;" horiz-adv-x="596" 
d="M296 927h49l69 -94l108 94h59l-143 -130h-54zM139 674l9 58h518l-9 -58h-233l-107 -674h-57l106 674h-227z" />
    <glyph glyph-name="tcaron" unicode="&#x165;" horiz-adv-x="387" 
d="M180 189c-3.33301 -21.333 -5 -40.167 -5 -56.5s1 -29 3 -38s6.33301 -16.167 13 -21.5c8 -6.66699 28 -13.5 60 -20.5s49 -10.5 51 -10.5l-6 -42h-66c-75.333 0 -113 42.667 -113 128c0 18.667 1.66699 39 5 61l45 285h-94l7 43l97 15l37 148h43l-23 -148h162l-10 -58
h-161zM320 597.999l12 134l10 67h59l-11 -67l-31 -134h-39z" />
    <glyph glyph-name="Tbar" unicode="&#x166;" horiz-adv-x="582" 
d="M139 674l9 58h505l-9 -58h-227l-38 -237h124l-6 -40h-124l-63 -397h-57l63 397h-123l6 40h123l38 237h-221z" />
    <glyph glyph-name="tbar" unicode="&#x167;" horiz-adv-x="360" 
d="M246 1c-73.333 0 -110 42.332 -110 126.999c0 18.667 1.66699 39.334 5 62.001l15 94h-81l7 41h81l23 149h-94l7 43l96 15l38 148h43l-23 -148h162l-10 -58h-161l-24 -149h112l-7 -41h-111l-15 -94c-10 -63.333 -6.66699 -102 10 -116c8 -6.66699 28.333 -13.5 61 -20.5
s50 -10.5 52 -10.5l-7 -42h-69z" />
    <glyph glyph-name="Utilde" unicode="&#x168;" horiz-adv-x="664" 
d="M582 865c22.667 10 38.6621 18.3301 47.9951 24.9971l12 -30c-4 -3.33301 -11.833 -9.16602 -23.5 -17.499s-20.334 -14.333 -26.001 -18s-13.167 -8.16699 -22.5 -13.5c-32.667 -18 -63 -18.333 -91 -1c-13.333 8 -25.166 15.833 -35.499 23.5s-17.833 11.5 -22.5 11.5
s-9.5 -0.166992 -14.5 -0.5s-12.5 -1.83301 -22.5 -4.5s-18 -5.5 -24 -8.5s-14.667 -7.66699 -26 -14s-19.333 -10.5 -24 -12.5l-11 30c34.667 26 60.834 42.833 78.501 50.5s33.834 11.334 48.501 11.001s33.334 -8.16602 56.001 -23.499s39.334 -23 50.001 -23
s27.334 5 50.001 15zM185.995 307.997c-6 -42 -9 -76.1641 -9 -102.497s2.33301 -48.333 7 -66s11.167 -32.334 19.5 -44.001s20.166 -20.834 35.499 -27.501c25.333 -10 57.5 -15.167 96.5 -15.5s70.5 3 94.5 10s46.667 19.5 68 37.5c40.667 34.667 69.334 104 86.001 208
l67 424h58l-67 -424c-8.66699 -53.333 -19.667 -98.333 -33 -135s-31.333 -69 -54 -97c-44.667 -54 -116.667 -81 -216 -81c-73.333 0 -127 14 -161 42c-39.333 33.333 -59 88.666 -59 165.999c0 31.333 3 66.333 9 105l67 424h59z" />
    <glyph glyph-name="utilde" unicode="&#x169;" horiz-adv-x="541" 
d="M476 664c22.667 10 38.6631 18.3301 47.9961 24.9971l12 -30l-24 -17.5c-11.333 -8.33301 -19.833 -14.333 -25.5 -18s-13.167 -8.16699 -22.5 -13.5c-32.667 -18 -63 -18.333 -91 -1c-13.333 8 -25.166 15.833 -35.499 23.5s-17.833 11.5 -22.5 11.5
s-9.16699 -0.166992 -13.5 -0.5s-10.166 -1.16602 -17.499 -2.49902s-14.5 -3.5 -21.5 -6.5s-13.167 -6 -18.5 -9l-20 -11.5c-8 -4.66699 -14.667 -8 -20 -10l-11 30c43.333 32 72.333 50.333 87 55s28.667 6.83398 42 6.50098s31.333 -8.16602 54 -23.499
s39.334 -23 50.001 -23s27.334 5 50.001 15zM130.996 132.997c0 -23.333 7 -43.168 21 -59.501s38.667 -24.5 74 -24.5s67 4.16699 95 12.5s65.667 23.5 113 45.5l67 424h57l-84 -531h-39l-8 62c-28.667 -15.333 -51.667 -27.166 -69 -35.499s-39.5 -16.333 -66.5 -24
s-53.167 -11.5 -78.5 -11.5c-51.333 0 -89 16.333 -113 49c-18 24.667 -27 54 -27 88c0 10.667 1 21.667 3 33l58 370h58l-59 -370c-1.33301 -10 -2 -19.333 -2 -28z" />
    <glyph glyph-name="Umacron" unicode="&#x16a;" horiz-adv-x="664" 
d="M323 797l8 47h278l-7 -47h-279zM186 308c-6 -42 -9 -76.1641 -9 -102.497s2.33301 -48.333 7 -66s11.167 -32.334 19.5 -44.001s20.166 -20.834 35.499 -27.501c25.333 -10 57.5 -15.167 96.5 -15.5s70.5 3 94.5 10s46.667 19.5 68 37.5
c40.667 34.667 69.334 104 86.001 208l67 424h58l-67 -424c-8.66699 -53.333 -19.667 -98.333 -33 -135s-31.333 -69 -54 -97c-44.667 -54 -116.667 -81 -216 -81c-73.333 0 -127 14 -161 42c-39.333 33.333 -59 88.666 -59 165.999c0 31.333 3 66.333 9 105l67 424h59z" />
    <glyph glyph-name="umacron" unicode="&#x16b;" horiz-adv-x="541" 
d="M217 596l7 47h279l-7 -47h-279zM131 133c0 -23.333 7 -43.168 21 -59.501s38.667 -24.5 74 -24.5s67 4.16699 95 12.5s65.667 23.5 113 45.5l67 424h57l-84 -531h-39l-8 62c-28.667 -15.333 -51.667 -27.166 -69 -35.499s-39.5 -16.333 -66.5 -24
s-53.167 -11.5 -78.5 -11.5c-51.333 0 -89 16.333 -113 49c-18 24.667 -27 54 -27 88c0 10.667 1 21.667 3 33l58 370h58l-59 -370c-1.33301 -10 -2 -19.333 -2 -28z" />
    <glyph glyph-name="Ubreve" unicode="&#x16c;" horiz-adv-x="664" 
d="M401 897c0 -16.667 5.66699 -31.666 17 -44.999s27.333 -20 48 -20h7.5c5 0 11.833 1 20.5 3s16.667 5.16699 24 9.5s13.666 9.5 18.999 15.5c11.333 12.667 18.666 29.667 21.999 51h36c-5.33301 -38 -19.666 -66.5 -42.999 -85.5s-50.666 -28.5 -81.999 -28.5
s-56.5 9.5 -75.5 28.5s-28.5 42.5 -28.5 70.5c0 4.66699 0.333008 9.66699 1 15h35c-0.666992 -4.66699 -1 -9.33398 -1 -14.001zM186 308.001c-6 -42 -9 -76.1641 -9 -102.497s2.33301 -48.333 7 -66s11.167 -32.334 19.5 -44.001s20.166 -20.834 35.499 -27.501
c25.333 -10 57.5 -15.167 96.5 -15.5s70.5 3 94.5 10s46.667 19.5 68 37.5c40.667 34.667 69.334 104 86.001 208l67 424h58l-67 -424c-8.66699 -53.333 -19.667 -98.333 -33 -135s-31.333 -69 -54 -97c-44.667 -54 -116.667 -81 -216 -81c-73.333 0 -127 14 -161 42
c-39.333 33.333 -59 88.666 -59 165.999c0 31.333 3 66.333 9 105l67 424h59z" />
    <glyph glyph-name="ubreve" unicode="&#x16d;" horiz-adv-x="541" 
d="M295 696c0 -16.667 5.66797 -31.666 17.001 -44.999s27.333 -20 48 -20h0.5h12.5c8 0 18.333 3 31 9c27.333 12 43.666 35.333 48.999 70h36c-6 -38 -20.5 -66.5 -43.5 -85.5s-50.167 -28.5 -81.5 -28.5s-56.5 9.5 -75.5 28.5s-28.5 42.5 -28.5 70.5
c0 4.66699 0.333008 9.66699 1 15h35c-0.666992 -4.66699 -1 -9.33398 -1 -14.001zM131.001 133.001c0 -23.333 7 -43.168 21 -59.501s38.667 -24.5 74 -24.5s67 4.16699 95 12.5s65.667 23.5 113 45.5l67 424h57l-84 -531h-39l-8 62
c-28.667 -15.333 -51.667 -27.166 -69 -35.499s-39.5 -16.333 -66.5 -24s-53.167 -11.5 -78.5 -11.5c-51.333 0 -89 16.333 -113 49c-18 24.667 -27 54 -27 88c0 10.667 1 21.667 3 33l58 370h58l-59 -370c-1.33301 -10 -2 -19.333 -2 -28z" />
    <glyph glyph-name="Uring" unicode="&#x16e;" horiz-adv-x="664" 
d="M484 1002c43.333 0 73 -16.999 89 -50.999c5.33301 -12.667 8 -23.334 8 -32.001c0 -38.667 -11.833 -68.667 -35.5 -90s-49.5 -32 -77.5 -32s-50.167 9.16699 -66.5 27.5s-24.5 38.833 -24.5 61.5c0 34 12 61.833 36 83.5s47.667 32.5 71 32.5zM429 851.501
c10.667 -11.667 24.999 -17.5 42.999 -17.5s34 6.33301 48 19c16.667 14.667 25 31 25 49s-5.16699 33 -15.5 45s-22.166 18 -35.499 18s-24.333 -1.83301 -33 -5.5s-16 -8.5 -22 -14.5c-17.333 -14.667 -26 -31 -26 -49s5.33301 -32.833 16 -44.5zM185.999 308.001
c-6 -42 -9 -76.1641 -9 -102.497s2.33301 -48.333 7 -66s11.167 -32.334 19.5 -44.001s20.166 -20.834 35.499 -27.501c25.333 -10 57.5 -15.167 96.5 -15.5s70.5 3 94.5 10s46.667 19.5 68 37.5c40.667 34.667 69.334 104 86.001 208l67 424h58l-67 -424
c-8.66699 -53.333 -19.667 -98.333 -33 -135s-31.333 -69 -54 -97c-44.667 -54 -116.667 -81 -216 -81c-73.333 0 -127 14 -161 42c-39.333 33.333 -59 88.666 -59 165.999c0 31.333 3 66.333 9 105l67 424h59z" />
    <glyph glyph-name="uring" unicode="&#x16f;" horiz-adv-x="541" 
d="M385 801c28 0 50 -9.33203 66 -27.999s24 -39.334 24 -62.001c0 -34 -11.833 -61.667 -35.5 -83s-49.5 -32 -77.5 -32s-50.333 9.16699 -67 27.5s-25 38.833 -25 61.5c0 34 12.167 61.833 36.5 83.5s50.5 32.5 78.5 32.5zM381 764.001c-18 0 -34.833 -7 -50.5 -21
s-23.5 -33.333 -23.5 -58c0 -5.33301 2.16699 -12.5 6.5 -21.5s11.166 -16.333 20.499 -22s19.833 -8.5 31.5 -8.5s22.834 3 33.501 9c26.667 14 40 35.667 40 65c0 14 -5.16699 27 -15.5 39s-24.5 18 -42.5 18zM131 133.001c0 -23.333 7 -43.168 21 -59.501
s38.667 -24.5 74 -24.5s67 4.16699 95 12.5s65.667 23.5 113 45.5l67 424h57l-84 -531h-39l-8 62c-28.667 -15.333 -51.667 -27.166 -69 -35.499s-39.5 -16.333 -66.5 -24s-53.167 -11.5 -78.5 -11.5c-51.333 0 -89 16.333 -113 49c-18 24.667 -27 54 -27 88
c0 10.667 1 21.667 3 33l58 370h58l-59 -370c-1.33301 -10 -2 -19.333 -2 -28z" />
    <glyph glyph-name="Uhungarumlaut" unicode="&#x170;" horiz-adv-x="664" 
d="M369 797l133 133h72l-154 -133h-51zM505 797l133 133h72l-154 -133h-51zM186 308c-6 -42 -9 -76.1641 -9 -102.497s2.33301 -48.333 7 -66s11.167 -32.334 19.5 -44.001s20.166 -20.834 35.499 -27.501c25.333 -10 57.5 -15.167 96.5 -15.5s70.5 3 94.5 10
s46.667 19.5 68 37.5c40.667 34.667 69.334 104 86.001 208l67 424h58l-67 -424c-8.66699 -53.333 -19.667 -98.333 -33 -135s-31.333 -69 -54 -97c-44.667 -54 -116.667 -81 -216 -81c-73.333 0 -127 14 -161 42c-39.333 33.333 -59 88.666 -59 165.999
c0 31.333 3 66.333 9 105l67 424h59z" />
    <glyph glyph-name="uhungarumlaut" unicode="&#x171;" horiz-adv-x="541" 
d="M263 596l132 133h73l-154 -133h-51zM399 596l133 133h72l-154 -133h-51zM131 133c0 -23.333 7 -43.168 21 -59.501s38.667 -24.5 74 -24.5s67 4.16699 95 12.5s65.667 23.5 113 45.5l67 424h57l-84 -531h-39l-8 62c-28.667 -15.333 -51.667 -27.166 -69 -35.499
s-39.5 -16.333 -66.5 -24s-53.167 -11.5 -78.5 -11.5c-51.333 0 -89 16.333 -113 49c-18 24.667 -27 54 -27 88c0 10.667 1 21.667 3 33l58 370h58l-59 -370c-1.33301 -10 -2 -19.333 -2 -28z" />
    <glyph glyph-name="Uogonek" unicode="&#x172;" horiz-adv-x="664" 
d="M355 -1c-52.667 -31.333 -79.001 -63.333 -79.001 -96c0 -26.667 21.333 -40 64 -40h6l-7 -45c-7.33301 -0.666992 -14.666 -1 -21.999 -1c-28.667 0 -51.167 7.66699 -67.5 23s-24.5 32 -24.5 50c0 46 33.333 82.333 100 109h30zM185.999 308
c-6 -42 -9 -76.1641 -9 -102.497s2.33301 -48.333 7 -66s11.167 -32.334 19.5 -44.001s20.166 -20.834 35.499 -27.501c25.333 -10 57.5 -15.167 96.5 -15.5s70.5 3 94.5 10s46.667 19.5 68 37.5c40.667 34.667 69.334 104 86.001 208l67 424h58l-67 -424
c-8.66699 -53.333 -19.667 -98.333 -33 -135s-31.333 -69 -54 -97c-44.667 -54 -116.667 -81 -216 -81c-73.333 0 -127 14 -161 42c-39.333 33.333 -59 88.666 -59 165.999c0 31.333 3 66.333 9 105l67 424h59z" />
    <glyph glyph-name="uogonek" unicode="&#x173;" horiz-adv-x="602" 
d="M471 0c-53.333 -31.333 -80.001 -63.333 -80.001 -96c0 -26.667 21.333 -40 64 -40h7l-8 -45c-7.33301 -0.666992 -14.666 -1 -21.999 -1c-28 0 -50.167 7.66699 -66.5 23s-24.5 32 -24.5 50c0 46 33.333 82.333 100 109h30zM130.999 133c0 -23.333 7 -43.168 21 -59.501
s38.667 -24.5 74 -24.5s67 4.16699 95 12.5s65.667 23.5 113 45.5l67 424h57l-84 -531h-39l-8 62c-28.667 -15.333 -51.667 -27.166 -69 -35.499s-39.5 -16.333 -66.5 -24s-53.167 -11.5 -78.5 -11.5c-51.333 0 -89 16.333 -113 49c-18 24.667 -27 54 -27 88
c0 10.667 1 21.667 3 33l58 370h58l-59 -370c-1.33301 -10 -2 -19.333 -2 -28z" />
    <glyph glyph-name="Wcircumflex" unicode="&#x174;" horiz-adv-x="994" 
d="M476 797l142 130h55l88 -130h-49l-69 94l-108 -94h-59zM150 732h58l125 -643l335 643h65l-137 -268l72 -379l335 647h63l-381 -732h-60l-73 381l-199 -381h-60z" />
    <glyph glyph-name="wcircumflex" unicode="&#x175;" horiz-adv-x="800" 
d="M330 596l142 130h55l88 -130h-49l-69 94l-108 -94h-59zM537 529c2.66699 -8.66699 4.00098 -20.3311 4.00098 -34.998s-6 -33.667 -18 -57l-40 -80l62 -279l210 371c16.667 33.333 26.667 60.666 30 81.999h42c2.66699 -10 4 -22.5 4 -37.5s-6 -33.167 -18 -54.5
l-249 -439h-58l-65 287l-156 -287h-63l-128 531h58l109 -456l204 372c17.333 33.333 27.666 60.666 30.999 81.999h41z" />
    <glyph glyph-name="Ycircumflex" unicode="&#x176;" horiz-adv-x="629" 
d="M293 797l143 130h54l88 -130h-49l-69 94l-108 -94h-59zM150 732h61l137 -400l284 400h68l-331 -472l-41 -260h-58l41 260z" />
    <glyph glyph-name="ycircumflex" unicode="&#x177;" horiz-adv-x="544" 
d="M200 597l143 130h55l88 -130h-50l-69 93l-107 -93h-60zM569 535c3.33301 -10 5.00098 -22.667 5.00098 -38s-6 -34.333 -18 -57l-218 -439c-48 -94.667 -90 -161.334 -126 -200.001c-38 -41.333 -76 -64.666 -114 -69.999v40c22.667 10 45 28.667 67 56
c26 32 46.167 61.167 60.5 87.5s22.666 41.833 24.999 46.5l11.5 22.5c5.33301 10.333 8.33301 15.833 9 16.5c-17.333 0 -34 4.66699 -50 14c-30.667 17.333 -49.667 49.333 -57 96l-70 421h60l69 -415c6.66699 -37.333 28.667 -56.333 66 -57l11 1l197 393
c13.333 26 22 53.333 26 82h46z" />
    <glyph glyph-name="Ydieresis" unicode="&#x178;" horiz-adv-x="629" 
d="M271 868c6.66699 3.33301 14.668 5 24.001 5s17 -3.83301 23 -11.5s8.16699 -17 6.5 -28s-6.83398 -20.333 -15.501 -28s-18.5 -11.5 -29.5 -11.5s-19.833 3.83301 -26.5 11.5s-9.33398 16.167 -8.00098 25.5s4.33301 17 9 23s10.334 10.667 17.001 14zM526.001 868
c6.66699 3.33301 14.668 5 24.001 5s17 -3.83301 23 -11.5s8.16699 -17 6.5 -28s-6.83398 -20.333 -15.501 -28s-18.5 -11.5 -29.5 -11.5s-19.833 3.83301 -26.5 11.5s-9.33398 16.167 -8.00098 25.5s4.33301 17 9 23s10.334 10.667 17.001 14zM121.002 732h61l138 -400
l283 400h68l-331 -472l-41 -260h-58l41 260z" />
    <glyph glyph-name="Zacute" unicode="&#x179;" horiz-adv-x="545" 
d="M446 794l133 133h72l-154 -133h-51zM105 0l9 58l505 616h-408l10 58h483l-10 -58l-504 -616h407l-9 -58h-483z" />
    <glyph glyph-name="zacute" unicode="&#x17a;" horiz-adv-x="453" 
d="M328 593l133 133h72l-154 -133h-51zM76 1l8 57l371 416h-318l8 57h396l-8 -57l-367 -416h300l-9 -57h-381z" />
    <glyph glyph-name="Zdotaccent" unicode="&#x17b;" horiz-adv-x="545" 
d="M390 887h36.998c12.667 0 18 -6.66699 16 -20l-9 -57c-2 -12.667 -9.33301 -19 -22 -19h-38c-5.33301 0 -9.66602 1.66699 -12.999 5s-4.66602 8 -3.99902 14l9 57c2 13.333 10 20 24 20zM34.998 0l9 58l505 616h-407l9 58h483l-9 -58l-505 -616h407l-9 -58h-483z" />
    <glyph glyph-name="zdotaccent" unicode="&#x17c;" horiz-adv-x="453" 
d="M320 693h36.999c12.667 0 18 -7 16 -21l-9 -57c-2 -12.667 -9.33301 -19 -22 -19h-37c-6 0 -10.667 1.83301 -14 5.5s-4.66602 8.16699 -3.99902 13.5l9 57c2 14 10 21 24 21zM44.999 1l7 57l371 416h-317l8 57h396l-8 -57l-367 -416h300l-9 -57h-381z" />
    <glyph glyph-name="Zcaron" unicode="&#x17d;" horiz-adv-x="545" 
d="M281 927h49l69 -94l108 94h59l-143 -130h-54zM35 0l9 58l505 616h-407l9 58h483l-9 -58l-505 -616h407l-9 -58h-483z" />
    <glyph glyph-name="zcaron" unicode="&#x17e;" horiz-adv-x="453" 
d="M200 726h50l69 -94l107 94h60l-143 -130h-55zM45 1l7 57l371 416h-317l8 57h396l-8 -57l-367 -416h300l-9 -57h-381z" />
    <glyph glyph-name="florin" unicode="&#x192;" horiz-adv-x="471" 
d="M83 -146c27.333 0 50.002 12.999 68.002 38.999c18.667 27.333 32 54.333 40 81c11.333 38.667 20.666 76.667 27.999 114l67 317h-102l12 58h102l10 43c24 116.667 51.667 195.334 83 236.001c29.333 38.667 65.666 58 108.999 58c28.667 0 57.667 -6 87 -18
c4 -2 6.33301 -3 7 -3l-7 -37h-88c-43.333 0 -77.666 -41.333 -102.999 -124c-7.33301 -22.667 -17 -60 -29 -112l-10 -44h142l-11 -57h-142l-67 -317c-16.667 -83.333 -30.334 -137.166 -41.001 -161.499s-21 -44.5 -31 -60.5s-21 -28.667 -33 -38
c-26 -21.333 -56.667 -32 -92 -32c-16.667 0 -34.667 2.66699 -54 8s-31.333 9.66602 -36 12.999l6 37h85z" />
    <glyph glyph-name="circumflex" unicode="&#x2c6;" horiz-adv-x="332" 
d="M66 531l143 130h54l88 -130h-49l-69 94l-107 -94h-60z" />
    <glyph glyph-name="caron" unicode="&#x2c7;" horiz-adv-x="385" 
d="M32 661h49l69 -94l108 94h59l-143 -130h-54z" />
    <glyph glyph-name="breve" unicode="&#x2d8;" horiz-adv-x="260" 
d="M94 630c0 -16.667 5.66797 -31.666 17.001 -44.999s27.333 -20 48 -20h0.5h0.5c24.667 0 45.167 6.66699 61.5 20s26.5 33 30.5 59h35c-5.33301 -38 -19.5 -66.5 -42.5 -85.5s-50.333 -28.5 -82 -28.5s-56.834 9.5 -75.501 28.5s-28 42.5 -28 70.5v15h36
c-0.666992 -4.66699 -1 -9.33398 -1 -14.001z" />
    <glyph glyph-name="dotaccent" unicode="&#x2d9;" horiz-adv-x="142" 
d="M126 634h36.998c10.667 0 16 -5 16 -15v-5l-9 -57c-2 -12.667 -9.33301 -19 -22 -19h-38c-5.33301 0 -9.66602 1.66699 -12.999 5s-4.66602 8 -3.99902 14l9 57c2 13.333 10 20 24 20z" />
    <glyph glyph-name="ring" unicode="&#x2da;" horiz-adv-x="316" 
d="M254 735c28 0 50 -9.33203 66 -27.999s24 -39.334 24 -62.001c0 -34 -11.833 -61.667 -35.5 -83s-49.5 -32 -77.5 -32s-50.333 9.16699 -67 27.5s-25 38.833 -25 61.5c0 34 12.167 61.833 36.5 83.5s50.5 32.5 78.5 32.5zM176 624.001
c0 -14.667 5.33301 -27.832 16 -39.499s25 -17.5 43 -17.5s34 6.33301 48 19c16.667 14.667 25 31 25 49s-5.16699 33 -15.5 45s-23 18 -38 18s-27.833 -3 -38.5 -9c-26.667 -14.667 -40 -36.334 -40 -65.001z" />
    <glyph glyph-name="ogonek" unicode="&#x2db;" horiz-adv-x="244" 
d="M278 0c-53.333 -32 -80.001 -64.001 -80.001 -96.001c0 -26.667 21.667 -40 65 -40h6l-7 -45c-7.33301 -1.33301 -14.666 -2 -21.999 -2c-28.667 0 -51.167 7.66699 -67.5 23s-24.5 32 -24.5 50c0 46.667 33.333 83.334 100 110.001h30z" />
    <glyph glyph-name="tilde" unicode="&#x2dc;" horiz-adv-x="460" 
d="M405 549c-9.33301 -5.33301 -17.835 -9.00098 -25.502 -11.001s-13.5 -3 -17.5 -3c-19.333 0 -35.5 4 -48.5 12s-24.667 15.833 -35 23.5s-17.833 11.5 -22.5 11.5h-14.5c-5 0 -12.5 -1.5 -22.5 -4.5s-18 -5.83301 -24 -8.5s-14.667 -7.33398 -26 -14.001
s-19.333 -11 -24 -13l-11 30c34.667 26 60.834 42.833 78.501 50.5s32.834 11.334 45.501 11.001s25.834 -4.33301 39.501 -12s26 -15.334 37 -23.001s19.833 -11.5 26.5 -11.5s14.167 1 22.5 3s16.5 4.66699 24.5 8s16 7 24 11c15.333 7.33301 26.333 13.333 33 18l12 -30
c-4 -3.33301 -11.833 -9.16602 -23.5 -17.499s-20.334 -14.166 -26.001 -17.499z" />
    <glyph glyph-name="hungarumlaut" unicode="&#x2dd;" horiz-adv-x="459" 
d="M154 531l133 133h72l-154 -133h-51zM290 531l133 133h72l-154 -133h-51z" />
    <glyph glyph-name="uni0338" unicode="&#x338;" horiz-adv-x="643" 
d="M357 732h154c29.333 0 54.333 -4.66699 75 -14s36 -21.333 46 -36c16 -24.667 24 -51.667 24 -81c0 -10.667 -1 -21.334 -3 -32.001l-65 -410c-9.33301 -57.333 -30 -98.166 -62 -122.499s-75.667 -36.5 -131 -36.5h-154c-50 -0 -89 13.333 -117 40
c-21.333 20 -32 48.667 -32 86c0 11.333 1 24 3 38l65 407c8.66699 54.667 30 95.167 64 121.5s78.333 39.5 133 39.5zM152 162c-1.33301 -10 -1.99902 -19.833 -1.99902 -29.5s1.33301 -18.5 4 -26.5l400 554c-12.667 9.33301 -30 14 -52 14h-154
c-76.667 0 -120.334 -34.667 -131.001 -104zM250.001 58l154 -0.000976562c72.667 0 114.667 34.667 126 104l65 408c2 10.667 3 21.834 3 33.501s-2.66699 22.5 -8 32.5l-405 -563c15.333 -10 37 -15 65 -15z" />
    <glyph glyph-name="Omega" unicode="&#x3a9;" horiz-adv-x="779" 
d="M767 484c0 -198 -67.3311 -339.668 -201.998 -425.001l147 -10l-8 -49h-228l10 60c76 45.333 129.333 95 160 149c26.667 47.333 45.667 106 57 176c4.66699 41.333 7 74.666 7 99.999s-3.83301 49.833 -11.5 73.5s-19.167 44.834 -34.5 63.501
c-33.333 40 -90.333 60 -171 60c-97.333 0 -171.333 -30.667 -222 -92c-46 -54.667 -75.333 -124.334 -88 -209.001c-6 -33.333 -9 -59.166 -9 -77.499s0.333008 -32.166 1 -41.499c2.66699 -34 13.667 -66.5 33 -97.5s50.333 -65.833 93 -104.5l-10 -60h-220l8 50l154 10
c-26.667 21.333 -48.334 44.333 -65.001 69c-30 44.667 -46.667 91.667 -50 141c-0.666992 12.667 -1 24.334 -1 35.001c0 22 3.16699 50.5 9.5 85.5s14.5 67.333 24.5 97s24.833 60.5 44.5 92.5s42.5 59.167 68.5 81.5s59.5 40.833 100.5 55.5s85.333 22 133 22
s88.667 -6.5 123 -19.5s61.166 -30.833 80.499 -53.5c44 -50.667 66 -111.334 66 -182.001z" />
    <glyph glyph-name="pi" unicode="&#x3c0;" horiz-adv-x="633" 
d="M448 166c-2.66699 -16.667 -3.99902 -32.999 -3.99902 -48.999c0 -42.667 21 -64 63 -64h100l-5 -34c-22.667 -8.66699 -40.834 -14.834 -54.501 -18.501s-29.5 -5.5 -47.5 -5.5c-76 0 -114 39.667 -114 119c0 16 1.33301 33.333 4 52l49 308h-203l-75 -474h-58l75 474
h-86l9 57h534l-9 -58h-129z" />
    <glyph glyph-name="uni1E02" unicode="&#x1e02;" horiz-adv-x="594" 
d="M413 894h37c12.667 0 18 -7 16 -21l-9 -57c-2 -12.667 -9.33301 -19 -22 -19h-37c-6 0 -10.667 1.83301 -14 5.5s-4.33301 8.16699 -3 13.5l9 57c2 14 9.66699 21 23 21zM469 732c56.667 0 97.999 -13 123.999 -39c26.667 -27.333 40 -61.333 40 -102
c0 -14.667 -1 -30 -3 -46c-6 -46 -21.167 -83 -45.5 -111s-52.833 -45.667 -85.5 -53c22 -4 41.333 -20.333 58 -49s25 -60 25 -94c0 -12 -1 -24.667 -3 -38c-17.333 -133.333 -92.666 -200 -225.999 -200h-273l116 732h273zM361.999 58c90.667 0 144 49 160 147
c1.33301 10.667 2 21 2 31c0 28.667 -7.33301 54 -22 76c-20 28.667 -50.333 43 -91 43h-2h-215l-46 -297h214zM418.999 412c40.667 0 74.5 11.667 101.5 35s44.167 56.333 51.5 99c2.66699 15.333 4 29 4 41c0 27.333 -6.66699 47.333 -20 60c-19.333 18 -51 27 -95 27
h-216l-41 -262h215z" />
    <glyph glyph-name="uni1E03" unicode="&#x1e03;" horiz-adv-x="551" 
d="M219 948h36.999c12.667 0 18 -7 16 -21l-9 -57c-1.33301 -12.667 -8.66602 -19 -21.999 -19h-37c-6 0 -10.667 1.83301 -14 5.5s-4.33301 8.16699 -3 13.5l9 57c2 14 9.66699 21 23 21zM393.999 539c98.667 0 148.003 -59.332 148.003 -177.999
c0 -52.667 -8.33301 -111.334 -25 -176.001c-14.667 -58.667 -36.334 -104 -65.001 -136c-14.667 -16.667 -33.334 -30 -56.001 -40s-47.334 -15 -74.001 -15c-34 0 -72 7.83301 -114 23.5s-69.333 29.5 -82 41.5l-26 -59h-40l124 785h56l-46 -286
c44 16.667 84.5 27.5 121.5 32.5s63.167 7.5 78.5 7.5zM321.002 52.001c39.333 0 72.166 17.666 98.499 52.999s44.833 88 55.5 158c6 36.667 9 68.834 9 96.501s-3.66699 50.5 -11 68.5c-13.333 35.333 -41.666 53.333 -84.999 54c-60 0 -126.333 -9.33301 -199 -28
l-56 -354c69.333 -32 132 -48 188 -48z" />
    <glyph glyph-name="uni1E0A" unicode="&#x1e0a;" horiz-adv-x="664" 
d="M420 894h37c12.667 0 18 -7 16 -21l-9 -57c-2 -12.667 -9.33301 -19 -22 -19h-37c-13.333 0 -19.333 6.33301 -18 19l10 57c1.33301 14 9 21 23 21zM462 732c36 0 67.5 -6 94.5 -18s48.167 -28.667 63.5 -50c32 -44 49.333 -93.667 52 -149c1.33301 -16 2 -30.667 2 -44
c0 -37.333 -3.33301 -74.333 -10 -111c-42.667 -240 -148 -360 -316 -360h-268l116 731c0 0.666992 88.667 1 266 1zM617 477c0 131.333 -54.999 197.001 -164.999 197.001h-208l-97 -614h209c35.333 0 67.833 8.66699 97.5 26s54.5 40.666 74.5 69.999
c39.333 58.667 65.666 128 78.999 208c6.66699 42 10 79.667 10 113z" />
    <glyph glyph-name="uni1E0B" unicode="&#x1e0b;" horiz-adv-x="541" 
d="M580 936h37.999c10.667 0 16 -5 16 -15v-6l-10 -56c-1.33301 -13.333 -8.66602 -20 -21.999 -20h-37c-6 0 -10.5 1.83301 -13.5 5.5s-4.16699 8.5 -3.5 14.5l9 56c2 14 9.66699 21 23 21zM231.999 523.5c23.333 10.333 48.5 15.501 75.5 15.501s59 -3.66699 96 -11
s69.5 -17 97.5 -29l46 286h55l-124 -785h-40l-7 59c-28 -19.333 -62.833 -35 -104.5 -47s-74.667 -18 -99 -18s-46.5 5.66699 -66.5 17c-36 20 -59.667 55.333 -71 106c-4.66699 24 -7 48.167 -7 72.5s2.16699 50.833 6.5 79.5s9.83301 55.167 16.5 79.5
s15.834 48.833 27.501 73.5s25.167 45.167 40.5 61.5s34.666 29.666 57.999 39.999zM147.999 274.001c-6 -35.333 -8.99902 -67 -8.99902 -95s5 -52.667 15 -74c16.667 -35.333 44 -53 82 -53c46 0 92.667 8.33301 140 25c17.333 6 38 13.667 62 23l56 354
c-67.333 18.667 -131 28 -191 28c-80.667 0 -132.334 -69.333 -155.001 -208z" />
    <glyph glyph-name="uni1E1E" unicode="&#x1e1e;" horiz-adv-x="563" 
d="M431 894h36.999c13.333 0 19 -7 17 -21l-10 -57c-1.33301 -12.667 -8.66602 -19 -21.999 -19h-37c-6 0 -10.667 1.83301 -14 5.5s-4.33301 8.16699 -3 13.5l9 57c2 14 9.66699 21 23 21zM311.999 732l10 -0.000976562l308 -14l-7 -44h-311
c-25.333 0 -44 -6.16699 -56 -18.5s-20 -30.166 -24 -53.499l-32 -209l337 -8l-7 -44l-340 -9l-52 -332h-58l95 601c14 87.333 59.667 131 137 131z" />
    <glyph glyph-name="uni1E1F" unicode="&#x1e1f;" horiz-adv-x="388" 
d="M376 942h37c12.667 0 18 -7 16 -21l-9 -56c-2 -13.333 -9.33301 -20 -22 -20h-37c-6 0 -10.667 1.83301 -14 5.5s-4.33301 8.5 -3 14.5l9 56c2 14 9.66699 21 23 21zM305.5 775.5c16.333 6.33301 30.335 9.50098 42.002 9.50098h30c8.33301 0 25.833 -2.16699 52.5 -6.5
s46.667 -8.5 60 -12.5l-5 -38h-122c-32.667 0 -55.334 -9.83301 -68.001 -29.5s-23 -56.5 -31 -110.5l-9 -57h170l-10 -57h-170l-77 -474h-58l77 474h-95l7 41l99 16l9 57c13.333 85.333 32.666 139.666 57.999 162.999c10.667 10 24.167 18.167 40.5 24.5z" />
    <glyph glyph-name="uni1E40" unicode="&#x1e40;" horiz-adv-x="791" 
d="M532 894h36.999c12.667 0 18 -7 16 -21l-9 -57c-2 -12.667 -9.33301 -19 -22 -19h-37c-6 0 -10.667 1.83301 -14 5.5s-4.66602 8.16699 -3.99902 13.5l10 57c2 14 9.66699 21 23 21zM70.999 0l175 732h75l103 -636l298 636h81l-51 -732h-58l46 633l-298 -633h-60
l-101 630l-152 -630h-58z" />
    <glyph glyph-name="uni1E41" unicode="&#x1e41;" horiz-adv-x="905" 
d="M551 695h37c12.667 0 18 -7 16 -21l-9 -57c-2 -12.667 -9.33301 -19 -22 -19h-37c-6 0 -10.667 1.83301 -14 5.5s-4.33301 8.16699 -3 13.5l9 57c2 14 9.66699 21 23 21zM322 526c26.667 8 54.165 12.001 82.498 12.001s54.333 -8 78 -24s39.5 -36.333 47.5 -61
c79.333 56.667 158.666 85 237.999 85c46 0 82.333 -16.333 109 -49c20 -25.333 30 -55.333 30 -90c0 -10 -0.666992 -20.667 -2 -32l-59 -367h-57l58 367c1.33301 8 2 15.333 2 22c0 23.333 -7.33301 44.333 -22 63s-40 28 -76 28c-67.333 0 -137.333 -20 -210 -60
c0.666992 -2.66699 1 -7.83398 1 -15.501s-1.33301 -20.5 -4 -38.5l-58 -366h-57l58 367c1.33301 8 2 15.333 2 22c0 23.333 -7.5 44.333 -22.5 63s-39.667 28 -74 28s-64.666 -4 -90.999 -12s-63.5 -23 -111.5 -45l-66 -423h-58l84 531h39l9 -63
c30.667 16.667 53.334 28.5 68.001 35.5s35.334 14.5 62.001 22.5z" />
    <glyph glyph-name="uni1E56" unicode="&#x1e56;" horiz-adv-x="591" 
d="M411 894h36.999c12.667 0 18 -7 16 -21l-9 -57c-2 -12.667 -9.33301 -19 -22 -19h-37c-6 0 -10.667 1.83301 -14 5.5s-4.66602 8.16699 -3.99902 13.5l9 57c2 14 10 21 24 21zM486.999 732c44 0 80.666 -13.332 109.999 -39.999c24.667 -23.333 37 -61.333 37 -114
c0 -44.667 -5.66699 -84.167 -17 -118.5s-21 -59 -29 -74s-18.333 -27.833 -31 -38.5s-23.667 -18.667 -33 -24s-21.333 -9.33301 -36 -12c-18.667 -3.33301 -39.667 -5 -63 -5s-68.666 2.16699 -135.999 6.5s-102.333 7.16602 -105 8.49902l-52 -321h-57l116 732h296z
M427.998 364.001c58.667 0 99.001 25.3379 121.001 76.0049c9.33301 22 16.166 45.167 20.499 69.5s6.5 40.666 6.5 48.999s-0.5 17.166 -1.5 26.499s-2.33301 19.166 -4 29.499s-5.5 19.166 -11.5 26.499s-11.5 13.166 -16.5 17.499s-11.833 7.5 -20.5 9.5
c-13.333 4 -28 6 -44 6h-239l-49 -310h238z" />
    <glyph glyph-name="uni1E57" unicode="&#x1e57;" horiz-adv-x="548" 
d="M355 693h36.999c12.667 0 18 -7 16 -21l-9 -56c-2 -13.333 -9.33301 -20 -22 -20h-37c-6 0 -10.667 1.83301 -14 5.5s-4.66602 8.5 -3.99902 14.5l10 56c1.33301 14 9 21 23 21zM391.999 535c29.333 0 54.668 -5.66699 76.001 -17c52 -27.333 78 -86 78 -176
c0 -25.333 -2.33301 -54 -7 -86c-24.667 -176.667 -97.667 -265 -219 -265c-26.667 0 -59.5 3.33301 -98.5 10s-72.167 16 -99.5 28l-48 -299h-57l131 793c63.333 8 144.666 12 243.999 12zM288.001 48c12.667 0 26.834 0.833008 42.501 2.5s31.167 6 46.5 13
s30 18.167 44 33.5c28 31.333 48.333 87.333 61 168c4.66699 29.333 7 56 7 80c0 88 -33.667 132 -101 132h-192l-65 -402c59.333 -18 111.666 -27 156.999 -27z" />
    </font>
</defs>
</svg>
