<?xml version="1.0" standalone="no"?>
<!DOCTYPE svg PUBLIC "-//W3C//DTD SVG 1.1//EN" "http://www.w3.org/Graphics/SVG/1.1/DTD/svg11.dtd" >
<svg>
<metadata>
Created by FontForge 20090914 at Mon Mar 11 18:33:31 2013
 By www-data
Copyright (c) 2011 Natanael Gama (exo@ndiscovered.com), with Reserved Font Name "Exo"
</metadata>
<defs>
<font id="Exo-Bold" horiz-adv-x="550" >
  <font-face 
    font-family="Exo"
    font-weight="700"
    font-stretch="normal"
    units-per-em="1000"
    panose-1="2 0 8 3 0 0 0 0 0 0"
    ascent="800"
    descent="-200"
    x-height="531"
    cap-height="732"
    bbox="-78 -286 1348 1002"
    underline-thickness="50"
    underline-position="-50"
    unicode-range="U+000D-U+FB06"
  />
<missing-glyph horiz-adv-x="709" 
d="M620 506l-252 -240l252 -241v481zM103 13h507l-253 243zM90 22l256 244l-256 241v-485zM611 518h-511l257 -242zM76 0v531h558v-531h-558z" />
    <glyph glyph-name="fi" unicode="fi" horiz-adv-x="627" 
d="M15 424l0.000976562 90l84 17v40c0 61.333 19.667 112 59 152c40.667 42 95 63 163 63c29.333 0 69.833 -2.66699 121.5 -8s87.167 -12 106.5 -20v-84l-183 6c-48.667 1.33301 -84.334 -12 -107.001 -40c-13.333 -17.333 -20 -42.333 -20 -75v-34l347 -10v-521h-140v424
h-207v-424h-140v424h-84z" />
    <glyph glyph-name="fl" unicode="fl" horiz-adv-x="721" 
d="M15 424v90.001l84 17v45c0 140 65.667 210 197 210l298 -2v-573c0 -36 3.33301 -60.667 10 -74s18.667 -23.333 36 -30c40 -14 62.333 -21 67 -21v-86h-116c-48 0 -82.833 14.167 -104.5 42.5s-32.5 77.166 -32.5 146.499v490l-131 1c-19.333 0 -35 -3 -47 -9
c-24.667 -11.333 -37 -43 -37 -95v-45h120v-107h-121v-424h-140v424h-83z" />
    <glyph glyph-name=".notdef" horiz-adv-x="709" 
d="M620 506l-252 -240l252 -241v481zM103 13h507l-253 243zM90 22l256 244l-256 241v-485zM611 518h-511l257 -242zM76 0v531h558v-531h-558z" />
    <glyph glyph-name=".notdef" horiz-adv-x="709" 
d="M620 506l-252 -240l252 -241v481zM103 13h507l-253 243zM90 22l256 244l-256 241v-485zM611 518h-511l257 -242zM76 0v531h558v-531h-558z" />
    <glyph glyph-name="uni000D" unicode="&#xd;" horiz-adv-x="759" 
 />
    <glyph glyph-name="space" unicode=" " horiz-adv-x="250" 
 />
    <glyph glyph-name="exclam" unicode="!" horiz-adv-x="273" 
d="M67 23l-0.000976562 90c0 16.667 8 25 24 25h88c6.66699 0 12.167 -2.33301 16.5 -7s6.5 -10.667 6.5 -18v-90c0 -15.333 -7.66699 -23 -23 -23h-88c-7.33301 0 -13.166 2.16699 -17.499 6.5s-6.5 9.83301 -6.5 16.5zM64.999 731h141l-15 -535h-114z" />
    <glyph glyph-name="quotedbl" unicode="&#x22;" horiz-adv-x="444" 
d="M65 732h135v-67l-10 -134h-114l-11 134v67zM245 732h135v-67l-10 -134h-114l-11 134v67z" />
    <glyph glyph-name="numbersign" unicode="#" horiz-adv-x="721" 
d="M15 210l15 96h152l21 121h-154l16 96h155l37 209h96l-37 -209h124l36 209h96l-36 -209h171l-14 -96h-172l-21 -122h172l-13 -96h-179l-37 -209h-96l37 209l-124 1l-37 -210h-96l37 210h-149zM278 306l126 -1l21 122h-126z" />
    <glyph glyph-name="dollar" unicode="$" horiz-adv-x="570" 
d="M238 824h84.998v-87c62 -4 121.667 -13.333 179 -28v-109c-95.333 6 -157.166 9.16699 -185.499 9.5s-43.833 0.5 -46.5 0.5c-30 0 -52.167 -4.33301 -66.5 -13s-21.5 -28.334 -21.5 -59.001v-36c0 -25.333 6.5 -43.333 19.5 -54s33.167 -16 60.5 -16h93
c76.667 0 128.334 -30.333 155.001 -91c12.667 -30 19 -64.333 19 -103v-49c0 -77.333 -21.667 -130.666 -65 -159.999c-36.667 -24.667 -81.667 -37 -135 -37h-6v-82h-85v84c-61.333 3.33301 -119 12.666 -173 27.999v108c106 -6 183.667 -9 233 -9c60.667 0 91 21 91 63
v39c0 22.667 -4.83301 39.834 -14.5 51.501s-27.167 17.5 -52.5 17.5h-91c-32.667 0 -61 4.83301 -85 14.5s-42.5 21.5 -55.5 35.5s-23.5 30.333 -31.5 49c-11.333 29.333 -17 61 -17 95v63c0.666992 122 66 185 196 189v86z" />
    <glyph glyph-name="percent" unicode="%" horiz-adv-x="962" 
d="M32 480l0.00195312 122c0 44 10.167 76.667 30.5 98s55.166 32 104.499 32h101c47.333 0 81.166 -10.667 101.499 -32s30.5 -54 30.5 -98v-122c0 -44.667 -10.167 -77.667 -30.5 -99s-54.833 -32 -103.5 -32h-101c-48 0 -82.167 10.667 -102.5 32s-30.5 54.333 -30.5 99z
M130.002 496c0 -18 3.33105 -30.667 9.99805 -38s19.334 -11 38.001 -11h74c26.667 0 42.334 7 47.001 21c2 6.66699 3 16 3 28v89c0 19.333 -3.5 32.333 -10.5 39s-19.5 10 -37.5 10h-74c-19.333 0 -32.5 -3.33301 -39.5 -10s-10.5 -19.667 -10.5 -39v-89zM208 0l447 732
h100l-443 -732h-104zM563 133v122c0 29.333 4 53.333 12 72c16.667 39.333 57.334 59 122.001 59h101c47.333 0 81.333 -10.833 102 -32.5s31 -54.5 31 -98.5v-122c0 -44 -10.333 -76.667 -31 -98s-55.334 -32 -104.001 -32h-101c-48 0 -82 10.667 -102 32s-30 54 -30 98z
M661 150c0 -18 3.16699 -30.667 9.5 -38s19.166 -11 38.499 -11h73c20.667 0 34.334 3.66699 41.001 11s10 20 10 38v89c0 24.667 -7 39.667 -21 45c-6.66699 2.66699 -16 4 -28 4h-73c-19.333 0 -32.5 -3.5 -39.5 -10.5s-10.5 -19.833 -10.5 -38.5v-89z" />
    <glyph glyph-name="ampersand" unicode="&#x26;" horiz-adv-x="679" 
d="M320 608c-44.667 0 -67.002 -10.668 -67.002 -32.001c0 -15.333 10.333 -37.333 31 -66l169 -231l121 114l49 -59l-60 -107l-37 -44l136 -183h-164l-71 96l-65 -58c-32.667 -29.333 -74 -44 -124 -44c-26 0 -52.333 5 -79 15c-38.667 14 -70.5 39.667 -95.5 77
s-37.5 76 -37.5 116c0 62.667 28 118.334 84 167.001l69 61l-51 74c-22 31.333 -33 61.333 -33 90c0 36.667 11.833 67.5 35.5 92.5s49.167 39.5 76.5 43.5c30.667 4.66699 66.334 7 107.001 7s97.334 -9 170.001 -27v-102h-164zM196.998 283.999
c-26 -22 -38.999 -43.333 -38.999 -64s6 -38.5 18 -53.5s23.833 -25.667 35.5 -32s21.167 -9.5 28.5 -9.5h16c15.333 2 29.666 9.33301 42.999 22l51 49l-101 134z" />
    <glyph glyph-name="quotesingle" unicode="'" horiz-adv-x="224" 
d="M42 732h141v-67l-10 -134h-120l-11 134v67z" />
    <glyph glyph-name="parenleft" unicode="(" horiz-adv-x="377" 
d="M76 132c-12.667 62 -19.002 120.829 -19.002 176.496s3.16699 105.334 9.5 149.001s14.666 82.5 24.999 116.5s21.833 66.667 34.5 98s25 58 37 80c26 46.667 46 78.667 60 96l9 12h131c-15.333 -23.333 -33.666 -56.666 -54.999 -99.999s-39.166 -84.833 -53.499 -124.5
s-27.5 -88 -39.5 -145s-18 -109.167 -18 -156.5s3 -92.166 9 -134.499s13.833 -80.666 23.5 -114.999s20.5 -67.333 32.5 -99s24 -59.167 36 -82.5c24 -48 42.667 -81.333 56 -100l9 -13h-131c-16 16 -35.167 42.5 -57.5 79.5s-41.166 74.5 -56.499 112.5
s-29.333 88 -42 150z" />
    <glyph glyph-name="parenright" unicode=")" horiz-adv-x="377" 
d="M163 151.5c12 59 18 110.335 18 154.002s-1.83301 81.334 -5.5 113.001s-8.83398 61.334 -15.501 89.001s-14 55 -22 82s-16.667 52 -26 75l-27.5 65.5c-9 20.667 -17.833 38.667 -26.5 54c-17.333 32.667 -29.666 55 -36.999 67l-6 9h131
c16 -19.333 35.167 -48.833 57.5 -88.5s41.166 -78.834 56.499 -117.501s29.333 -87.834 42 -147.501s19 -117 19 -172s-3.16699 -105.5 -9.5 -151.5s-14.666 -86.333 -24.999 -121s-21.833 -67.334 -34.5 -98.001s-25 -56.334 -37 -77.001c-26 -42.667 -46 -71.667 -60 -87
l-9 -10h-131c15.333 21.333 33.5 52.5 54.5 93.5s38.833 81.167 53.5 120.5s28 88.5 40 147.5z" />
    <glyph glyph-name="asterisk" unicode="*" horiz-adv-x="427" 
d="M38 566v56l139 24l5 -85zM95 416l24 137l83 -21l-54 -133zM166 720l54 19l67 -122l-79 -33zM190 467l47 71l112 -90l-32 -45zM239 571l120 79l31 -47l-96 -97z" />
    <glyph glyph-name="plus" unicode="+" horiz-adv-x="483" 
d="M34 297v118h148v149h118v-149h150v-118h-150v-149h-118v149h-148z" />
    <glyph glyph-name="comma" unicode="," horiz-adv-x="261" 
d="M65 25v87c0 18 8.33301 27 25 27h84c16 0 24 -9 24 -27v-123c0 -20.667 -4.5 -37.5 -13.5 -50.5s-19.833 -21.167 -32.5 -24.5c-15.333 -4.66699 -29 -7 -41 -7s-21.333 0.666992 -28 2l-13 3v48c8.66699 0 15.667 1.66699 21 5c6.66699 4 10 11 10 21v14h-11
c-7.33301 0 -13.333 2.16699 -18 6.5s-7 10.5 -7 18.5z" />
    <glyph glyph-name="hyphen" unicode="-" horiz-adv-x="354" 
d="M20 231v118h314v-118h-314z" />
    <glyph glyph-name="period" unicode="." horiz-adv-x="263" 
d="M65 23l-0.000976562 90c0 16.667 8 25 24 25h86c16.667 0 25 -8.33301 25 -25v-90c0 -15.333 -8.33301 -23 -25 -23h-86c-7.33301 0 -13.166 2.16699 -17.499 6.5s-6.5 9.83301 -6.5 16.5z" />
    <glyph glyph-name="slash" unicode="/" horiz-adv-x="456" 
d="M15 -72l281 842h145l-281 -842h-145z" />
    <glyph glyph-name="zero" unicode="0" horiz-adv-x="630" 
d="M53 178l-0.000976562 370.001c0 59.333 16.5 104.833 49.5 136.5s77.833 47.5 134.5 47.5h164c90.667 0 146.667 -36.667 168 -110c6 -20.667 9 -43.334 9 -68.001v-376c0 -58 -15.5 -102.167 -46.5 -132.5s-74.833 -45.5 -131.5 -45.5h-164
c-57.333 0 -102.166 15 -134.499 45s-48.5 74.333 -48.5 133zM192.999 201.001c0 -48 24.999 -72 74.999 -72h97c24.667 0 43 5.33301 55 16s18 29 18 55v332c0 47.333 -22.667 71 -68 71h-105c-27.333 0 -46.166 -7.16699 -56.499 -21.5s-15.5 -30.833 -15.5 -49.5v-331z
" />
    <glyph glyph-name="one" unicode="1" horiz-adv-x="371" 
d="M311 732v-732h-140v593l-141 -35v91l142 83h139z" />
    <glyph glyph-name="two" unicode="2" horiz-adv-x="588" 
d="M30 612l0.000976562 104.001c98 17.333 199.333 26 304 26c74 0 129 -22.333 165 -67c34.667 -42.667 52 -96 52 -160c0 -111.333 -92 -240 -276 -386h276v-129h-513v123c53.333 36 104.166 74.667 152.499 116s87 76.666 116 105.999s53.5 59.5 73.5 90.5
s30 57.5 30 79.5s-4 40.333 -12 55c-16 28 -52 42 -108 42h-260z" />
    <glyph glyph-name="three" unicode="3" horiz-adv-x="583" 
d="M339 -7l-58.001 0.00195312h-19c-4 0 -15.167 0.166992 -33.5 0.5s-30.833 0.666016 -37.5 0.999023s-17.667 1 -33 2s-27.166 2.16699 -35.499 3.5l-31.5 5c-20 3.33301 -40.667 8.66602 -62 15.999l1 102h254c38 0 64.5 4 79.5 12s22.5 26.667 22.5 56v32
c0 28 -7.83301 47.167 -23.5 57.5s-39.834 16.166 -72.501 17.499l-199 8v112l199 10c35.333 2 60.5 8.16699 75.5 18.5s22.5 28.166 22.5 53.499v36c0 18 -4.83301 32.333 -14.5 43s-21.167 17.667 -34.5 21s-29.666 5 -48.999 5h-267v101c54.667 19.333 141 29 259 29
c22 0 43.333 -0.333008 64 -1c55.333 -1.33301 99.333 -17.666 132 -48.999s49 -73.666 49 -126.999v-52c0 -76 -25.333 -123.333 -76 -142c50.667 -21.333 76 -71.333 76 -150v-42c0 -58 -16 -102.333 -48 -133s-78.667 -46 -140 -46z" />
    <glyph glyph-name="four" unicode="4" horiz-adv-x="620" 
d="M392 292v167l32 77h108v-244h74v-108l-74 -24v-158h-140v158h-343l-34 64l261 508h154l-219 -440h181z" />
    <glyph glyph-name="five" unicode="5" horiz-adv-x="596" 
d="M208 438c21.333 17.333 57.001 25.999 107.001 25.999c18 0 43.833 -0.666992 77.5 -2s63.167 -10.333 88.5 -27c48 -30.667 72 -82.334 72 -155.001v-103c0 -74 -28.333 -126.333 -85 -157c-30 -16 -63.667 -24 -101 -24c-68 0 -120.833 1.33301 -158.5 4
s-87.834 9.33398 -150.501 20.001v110h282c28.667 0 48 6.83301 58 20.5s15 30.5 15 50.5v67c0 34.667 -10.333 56.334 -31 65.001c-9.33301 4 -21.333 6 -36 6h-94c-18.667 0 -33.5 -4.83301 -44.5 -14.5s-16.5 -24.5 -16.5 -44.5h-132l22 452h445v-129h-310z" />
    <glyph glyph-name="six" unicode="6" horiz-adv-x="608" 
d="M50 384c0 51.333 3.16699 97.165 9.5 137.498s14.833 73.333 25.5 99s23.667 46.834 39 63.501c26.667 30.667 59.334 47.667 98.001 51c25.333 2.66699 51.666 4 78.999 4c72.667 0 152.334 -8 239.001 -24v-106h-250c-30 0 -52.333 -10.333 -67 -31
c-14.667 -21.333 -23.334 -42.666 -26.001 -63.999c-4.66699 -31.333 -7 -61.333 -7 -90c54.667 13.333 122 20 202 20c68.667 0 115 -16.667 139 -50c22 -29.333 33 -69.333 33 -120v-110c0 -110 -59 -165 -177 -165h-143c-66 0 -113 25 -141 75
c-35.333 62 -53 165.333 -53 310zM190 320.999c0 -75.333 8 -126.667 24 -154c16 -26 39.667 -39 71 -39h76c22.667 0 39 4.16699 49 12.5s15 24.833 15 49.5v67c0 34.667 -11.333 55 -34 61c-7.33301 2 -16.333 3 -27 3h-174z" />
    <glyph glyph-name="seven" unicode="7" horiz-adv-x="554" 
d="M23 603v129h471l38 -64l-245 -668h-153l225 603h-336z" />
    <glyph glyph-name="eight" unicode="8" horiz-adv-x="624" 
d="M57 168v72.999c0 30 7 54.833 21 74.5s33.333 32.5 58 38.5c-33.333 14 -55.333 35 -66 63c-8.66699 22.667 -13 50 -13 82v65c0 66.667 18.333 112.667 55 138c33.333 23.333 77.333 35 132 35h151c58.667 0 102.167 -13.667 130.5 -41s42.5 -71.666 42.5 -132.999v-53
c0.666992 -18 -2.33301 -36.333 -9 -55c-12 -35.333 -34 -55.666 -66 -60.999c14.667 -2.66699 27.334 -9.33398 38.001 -20.001s18.667 -23 24 -37c9.33301 -27.333 13.666 -54 12.999 -80v-86c0 -78.667 -25.667 -129.667 -77 -153c-26 -12 -58.333 -18 -97 -18h-150
c-105.333 0 -166 37 -182 111c-3.33301 17.333 -5 36.333 -5 57zM197 182.999c0 -27.333 10.001 -45 30.001 -53c10.667 -4 24.667 -6 42 -6h93c44 0 66 19.667 66 59v70c0 20 -5.33301 35.333 -16 46s-26.334 16 -47.001 16h-101c-44.667 0 -67 -20.667 -67 -62v-70z
M197.001 493.999c0 -41.333 22.333 -62 67 -62h100c27.333 0 45.333 6.33301 54 19c6.66699 10.667 10 25 10 43v47c0 28 -5.33301 47.167 -16 57.5s-27 15.5 -49 15.5h-94c-26 0 -44.5 -4.5 -55.5 -13.5s-16.5 -28.833 -16.5 -59.5v-47z" />
    <glyph glyph-name="nine" unicode="9" horiz-adv-x="608" 
d="M306 -4c-84 0 -162.667 7.66797 -236 23.001v106h250c30 0 52 10.333 66 31c14.667 21.333 23.667 42.666 27 63.999c4.66699 31.333 7 61.666 7 90.999c-54.667 -14 -122 -21 -202 -21c-68.667 0 -115.334 16.667 -140.001 50c-21.333 30 -32 70.333 -32 121v109
c0 110 59 165 177 165h143c24.667 0 46.334 -3.16699 65.001 -9.5s36.5 -18.166 53.5 -35.499s30.833 -40 41.5 -68c22.667 -61.333 34 -152 34 -272c0 -144 -24.667 -244 -74 -300c-27.333 -30.667 -60 -47.667 -98 -51c-26.667 -2 -54 -3 -82 -3zM185 477.001
c0 -24.667 4.66602 -41.5 13.999 -50.5s25 -13.5 47 -13.5h174c0 75.333 -8.33301 127 -25 155c-15.333 25.333 -38.666 38 -69.999 38h-77c-22 0 -38 -4.16699 -48 -12.5s-15 -24.833 -15 -49.5v-67z" />
    <glyph glyph-name="colon" unicode=":" horiz-adv-x="263" 
d="M65 23l-0.000976562 90c0 16.667 8 25 24 25h86c16.667 0 25 -8.33301 25 -25v-90c0 -15.333 -8.33301 -23 -25 -23h-86c-7.33301 0 -13.166 2.16699 -17.499 6.5s-6.5 9.83301 -6.5 16.5zM64.999 416v90c0 16.667 8 25 24 25h86c16.667 0 25 -8.33301 25 -25v-90
c0 -15.333 -8.33301 -23 -25 -23h-86c-10 0 -16.5 2.83301 -19.5 8.5s-4.5 10.5 -4.5 14.5z" />
    <glyph glyph-name="semicolon" unicode=";" horiz-adv-x="264" 
d="M65 25v87c0 8 2.16699 14.5 6.5 19.5s10.5 7.5 18.5 7.5h84c16 0 24 -9 24 -27v-123c0 -20.667 -4.5 -37.5 -13.5 -50.5s-19.833 -21.167 -32.5 -24.5c-15.333 -4.66699 -29 -7 -41 -7s-21.333 0.666992 -28 2l-13 3v48c8.66699 0 15.667 1.66699 21 5
c6.66699 4 10 11 10 21v14h-11c-7.33301 -0 -13.333 2.33301 -18 7s-7 10.667 -7 18zM66 417v90c0 16.667 8 25 24 25h86c16.667 0 25 -8.33301 25 -25v-90c0 -15.333 -8.33301 -23 -25 -23h-86c-10 0 -16.5 2.66699 -19.5 8s-4.5 10.333 -4.5 15z" />
    <glyph glyph-name="less" unicode="&#x3c;" horiz-adv-x="450" 
d="M38 288v129l375 145v-130l-226 -79l226 -88v-131z" />
    <glyph glyph-name="equal" unicode="=" horiz-adv-x="467" 
d="M20 184v118h427v-118h-427zM20 399v118h427v-118h-427z" />
    <glyph glyph-name="greater" unicode="&#x3e;" horiz-adv-x="450" 
d="M38 134v131l226 88l-226 79v130l375 -145v-129z" />
    <glyph glyph-name="question" unicode="?" horiz-adv-x="542" 
d="M15 714c90 17.333 166.332 26.001 228.999 26.001c16.667 0 34.334 -0.333008 53.001 -1c74 0 129 -20.333 165 -61c34 -38 51 -83 51 -135v-73c0 -124.667 -63.333 -187 -190 -187c-12 0 -24.333 0.666992 -37 2v-90h-113v195h114c58 2.66699 87 30 87 82v53
c0 29.333 -8.83301 50.666 -26.5 63.999s-45.5 20 -83.5 20h-249v105zM185.999 138.001h86.999c16 0 24 -8.33301 24 -25v-90c0 -15.333 -8 -23 -24 -23h-87c-7.33301 0 -13.166 2.16699 -17.499 6.5s-6.5 9.83301 -6.5 16.5v90c0 16.667 8 25 24 25z" />
    <glyph glyph-name="at" unicode="@" horiz-adv-x="868" 
d="M256 512l191.999 0.000976562c64.667 0 110.667 -14 138 -42c24.667 -25.333 37 -63.333 37 -114v-356h-90l-20 59l-7.5 -7c-5 -4.66699 -12.167 -10.334 -21.5 -17.001s-20 -13.334 -32 -20.001c-28.667 -16 -61.5 -24 -98.5 -24s-66.833 13.167 -89.5 39.5
s-34 57.833 -34 94.5v42c0 44.667 12.667 78.834 38 102.501s61.333 35.5 108 35.5h135c0.666992 14 1 24.667 1 32s-0.333008 11 -1 11c0 20.667 -4.66699 34.5 -14 41.5s-25.333 10.5 -48 10.5h-193c-46.667 0 -75.334 -14.333 -86.001 -43
c-5.33301 -12.667 -8 -28.334 -8 -47.001v-288c0 -56.667 20.667 -91.334 62 -104.001c10 -2.66699 20.667 -4 32 -4h333c38.667 0 65.5 8.83301 80.5 26.5s22.5 44.834 22.5 81.501v457c0 37.333 -9.33301 66.166 -28 86.499s-43.667 30.5 -75 30.5h-404v85
c30.667 6.66699 74 12.834 130 18.501s98 8.5 126 8.5h48h100c58.667 0 108.334 -17 149.001 -51c44 -37.333 66 -96.666 66 -177.999v-457c0 -74 -17.167 -129.5 -51.5 -166.5s-87.166 -55.5 -158.499 -55.5h-338c-61.333 0 -111 17.167 -149 51.5s-57 87.5 -57 159.5v304
c0 96.667 39.667 158 119 184c25.333 8.66699 54.333 13 87 13zM393.999 103.001l1.5 0.000976562h1.5c45.333 0 83.333 14.667 114 44v79l-119 -11c-29.333 -2.66699 -44 -18 -44 -46v-13.5v-13.5c0 -10.667 4.16699 -19.834 12.5 -27.501s19.5 -11.5 33.5 -11.5z" />
    <glyph glyph-name="A" unicode="A" horiz-adv-x="692" 
d="M34 0l247 732h159l238 -732h-149l-52 162h-240l-53 -162h-150zM274 286h170l-82 262z" />
    <glyph glyph-name="B" unicode="B" horiz-adv-x="604" 
d="M61 0l-0.000976562 732h302c70.667 0 122.667 -18.167 156 -54.5s50 -83.5 50 -141.5c0 -37.333 -8.33301 -71.166 -25 -101.499s-41.667 -48.5 -75 -54.5c32 -6 58.667 -23.833 80 -53.5s32 -66.834 32 -111.501c0 -70 -17.167 -123.333 -51.5 -160
s-89.166 -55 -164.499 -55h-304zM440.999 221c0 30 -6.66797 54.667 -20.001 74s-33.666 29 -60.999 29h-159v-200l159 -1c54 0 81 32.667 81 98zM200.998 442h153c25.333 0 44.5 7.16699 57.5 21.5s19.5 35.833 19.5 64.5s-7.33301 49.167 -22 61.5s-33 18.5 -55 18.5h-153
v-166z" />
    <glyph glyph-name="C" unicode="C" horiz-adv-x="571" 
d="M92 642c26.667 44 63.667 73.001 111 87.001c26 7.33301 55.333 11 88 11c95.333 0 180.333 -11 255 -33v-110l-7.5 1c-5 0.666992 -11.667 1.33398 -20 2.00098s-18.166 1.5 -29.499 2.5s-23.833 2 -37.5 3s-27.167 1.83301 -40.5 2.5c-31.333 2 -59.333 3 -84 3
s-43.834 -1.5 -57.501 -4.5s-26.834 -9 -39.501 -18s-22 -22.5 -28 -40.5c-13.333 -38.667 -20 -100.334 -20 -185.001s9.83301 -145.834 29.5 -183.501s57.167 -56.5 112.5 -56.5c62.667 0 126 2 190 6l32 2v-109c-60 -18.667 -137.333 -28 -232 -28h-23
c-89.333 0.666992 -153.166 32.667 -191.499 96s-57.5 157.5 -57.5 282.5s16.667 214.833 50 269.5z" />
    <glyph glyph-name="D" unicode="D" horiz-adv-x="662" 
d="M61 0v732h311c169.333 0 254 -123 254 -369c0 -152 -36.333 -257.333 -109 -316c-38.667 -31.333 -87 -47 -145 -47h-311zM486 364c0 121.333 -19.334 196.333 -58.001 225c-17.333 12.667 -39.666 19 -66.999 19h-160v-483h160c83.333 0 125 79.667 125 239z" />
    <glyph glyph-name="E" unicode="E" horiz-adv-x="567" 
d="M112 705c16.667 10 33.1641 16.999 49.4971 20.999s29.333 6 39 6s57.834 -1.16699 144.501 -3.5s151.334 -6.5 194.001 -12.5v-116h-289c-24.667 0 -40 -6 -46 -18c-4 -9.33301 -6 -22 -6 -38v-114l296 -10v-116l-296 -9v-114c0 -25.333 7 -40.666 21 -45.999
c10 -4 23.667 -6 41 -6h279v-115c-33.333 -4.66699 -115.666 -9.33398 -246.999 -14.001l-65 -3h-18.5c-7 0 -16.167 0.5 -27.5 1.5s-25 4.5 -41 10.5s-30 14 -42 24c-26.667 24 -40 61 -40 111v436c0 60.667 18 102.334 54 125.001z" />
    <glyph glyph-name="F" unicode="F" horiz-adv-x="567" 
d="M58 0v578c0 79.333 33.667 128.333 101 147c16.667 4.66699 30 7 40 7s58.5 -1.16699 145.5 -3.5s151.833 -6.5 194.5 -12.5v-116h-289c-24.667 0 -40 -6 -46 -18c-4 -9.33301 -6 -22 -6 -38v-114l296 -10v-116l-296 -9v-295h-140z" />
    <glyph glyph-name="G" unicode="G" horiz-adv-x="614" 
d="M46.5 249.5c-3 34.333 -4.50195 74.3359 -4.50195 120.003s1.83301 86 5.5 121s10.667 68.667 21 101s24.5 59.166 42.5 80.499c38 45.333 94.667 68 170 68c56.667 0 104.834 -2.16699 144.501 -6.5s85.167 -12.833 136.5 -25.5v-109
c-0.666992 0 -6.16699 0.666992 -16.5 2s-24 2.83301 -41 4.5s-35.5 3.16699 -55.5 4.5c-48 4 -93 6 -135 6c-53.333 0 -88.666 -17.833 -105.999 -53.5s-26 -101.167 -26 -196.5s8 -159 24 -191c16.667 -32.667 50.667 -49 102 -49c20 0 40.5 3.83301 61.5 11.5
s36.833 15.167 47.5 22.5l16 12v131h-102v89c39.333 16 97.333 24 174 24c21.333 0 44 -0.666992 68 -2v-414h-100l-38 49c-23.333 -22 -48.333 -36.333 -75 -43c-72.667 -18 -134 -16 -184 6c-29.333 12.667 -52.5 29.667 -69.5 51s-30.5 49.166 -40.5 83.499
s-16.5 68.666 -19.5 102.999z" />
    <glyph glyph-name="H" unicode="H" horiz-adv-x="636" 
d="M61 0v732h140v-314h251v314h140v-732h-140v290h-251v-290h-140z" />
    <glyph glyph-name="I" unicode="I" horiz-adv-x="245" 
d="M61 0v732h140v-732h-140z" />
    <glyph glyph-name="J" unicode="J" horiz-adv-x="356" 
d="M259 18c-25.333 -15.333 -63.1689 -22.999 -113.502 -22.999s-89.833 9.33301 -118.5 28l2 109c22.667 -2 39.834 -3 51.501 -3s20.167 0.333008 25.5 1c43.333 1.33301 65.333 33.333 66 96v506h140v-567c0 -20.667 -0.833008 -38.334 -2.5 -53.001
s-6.66699 -31.5 -15 -50.5s-20.166 -33.5 -35.499 -43.5z" />
    <glyph glyph-name="K" unicode="K" horiz-adv-x="628" 
d="M61 0v732h134v-306h59l186 306h163l-224 -367l224 -365h-163l-186 302h-58v-302h-135z" />
    <glyph glyph-name="L" unicode="L" horiz-adv-x="539" 
d="M61 142v589.999h140v-551c0 -25.333 7 -40.666 21 -45.999c10 -4 23.667 -6 41 -6h251v-129h-301c-101.333 -0 -152 47.333 -152 142z" />
    <glyph glyph-name="M" unicode="M" horiz-adv-x="847" 
d="M42 0l64 732h195l122 -500l121 500h194l68 -732h-138l-48 489l-118 -489h-156l-123 489l-43 -489h-138z" />
    <glyph glyph-name="N" unicode="N" horiz-adv-x="678" 
d="M61 0v732h142l290 -473v473h140v-732h-140l-291 468v-468h-141z" />
    <glyph glyph-name="O" unicode="O" horiz-adv-x="671" 
d="M54 261c-2.66699 30 -3.99902 66.168 -3.99902 108.501s2.5 82.333 7.5 120s11.833 69.667 20.5 96s20.334 48.833 35.001 67.5s29.5 33.334 44.5 44.001s33.5 19 55.5 25c34.667 10 71.167 15 109.5 15s66.333 -0.666992 84 -2s36.334 -4.16602 56.001 -8.49902
s36.5 -10.5 50.5 -18.5s28.167 -18.167 42.5 -30.5s26.166 -28 35.499 -47s17.666 -40.833 24.999 -65.5c14.667 -49.333 22 -107 22 -173s-2.5 -116.833 -7.5 -152.5s-11.5 -66.334 -19.5 -92.001s-18.833 -47.667 -32.5 -66s-28 -33 -43 -44s-33.167 -19.5 -54.5 -25.5
c-49.333 -14.667 -114.333 -19.334 -195 -14.001c-41.333 2 -71.333 7 -90 15s-34.834 16.5 -48.501 25.5s-25.167 20 -34.5 33s-18.333 28.667 -27 47s-15.5 39.166 -20.5 62.499s-8.83301 50 -11.5 80zM193.001 448.001c-2 -24.667 -3 -55.667 -3 -93
s1.33301 -69.166 4 -95.499s7.16699 -48.833 13.5 -67.5s15.833 -32.667 28.5 -42c22.667 -16.667 58.667 -25 108 -25c46.667 0 81.667 8.66699 105 26c32.667 24.667 49 94.667 49 210c0 78 -4.16699 129.667 -12.5 155s-16 43.333 -23 54s-16.833 19 -29.5 25
c-20.667 8.66699 -45 13 -73 13s-47.5 -0.5 -58.5 -1.5s-22.667 -3.16699 -35 -6.5s-22 -8.5 -29 -15.5s-14 -16.5 -21 -28.5s-12.167 -26.833 -15.5 -44.5s-6 -38.834 -8 -63.501z" />
    <glyph glyph-name="P" unicode="P" horiz-adv-x="602" 
d="M51 0l-0.000976562 732.001h315c72.667 0 125.334 -20.333 158.001 -61c30 -36.667 45 -91.667 45 -165c0 -42.667 -4.5 -79.334 -13.5 -110.001s-20 -54.167 -33 -70.5s-29.5 -28.833 -49.5 -37.5c-26 -12 -55 -18 -87 -18c-23.333 0 -61 3 -113 9
s-79.333 9.66699 -82 11v-290h-140zM354.999 608.001h-164v-214h164c16 0 29 3 39 9c22.667 13.333 34 47.333 34 102c-0.666992 68.667 -25 103 -73 103z" />
    <glyph glyph-name="Q" unicode="Q" horiz-adv-x="671" 
d="M50 358c0 39.333 1.49707 74.668 4.49707 106.001s7.16699 59 12.5 83s12.333 45.333 21 64s17.834 34.667 27.501 48s21.5 24.666 35.5 33.999s27.5 16.833 40.5 22.5s28.5 10.167 46.5 13.5c29.333 5.33301 60.166 8 92.499 8s57.333 -0.666992 75 -2
s36.334 -4.16602 56.001 -8.49902s36.667 -10.5 51 -18.5s28.5 -18.167 42.5 -30.5s25.667 -28 35 -47s18 -40.833 26 -65.5c14.667 -49.333 22 -117.333 22 -204c0 -111.333 -15.333 -197 -46 -257c-16 -31.333 -41.333 -57 -76 -77c-35.333 -20 -93 -30.333 -173 -31
c-81.333 0 -138.666 9.33301 -171.999 28c-36 19.333 -61.333 44.333 -76 75c-21.333 42.667 -34.166 86.667 -38.499 132s-6.5 87.666 -6.5 126.999zM192.997 448.002c-2 -24.667 -3 -55.667 -3 -93s1.33301 -69.166 4 -95.499s7.16699 -48.833 13.5 -67.5
s15.5 -32.667 27.5 -42c23.333 -16.667 57.5 -25 102.5 -25s78 6 99 18s36.5 34.833 46.5 68.5s15 76.5 15 128.5s-1.16699 91.5 -3.5 118.5s-6.5 49.667 -12.5 68s-12.5 32.833 -19.5 43.5s-17.167 19 -30.5 25c-20 8.66699 -44.167 13 -72.5 13s-48 -0.5 -59 -1.5
s-22.667 -3.16699 -35 -6.5s-21.833 -8.5 -28.5 -15.5s-13.5 -16.5 -20.5 -28.5s-12.167 -26.833 -15.5 -44.5s-6 -38.834 -8 -63.501zM541.997 -173.998c-24 -4 -46.1689 -6 -66.502 -6s-40.666 3.16699 -60.999 9.5s-38.666 15 -54.999 26s-30 26.167 -41 45.5
s-17.167 41.333 -18.5 66h79c16 -26.667 44.333 -40 85 -40c22 0 48 4 78 12v-113z" />
    <glyph glyph-name="R" unicode="R" horiz-adv-x="607" 
d="M371 732c64 0 111.669 -16.332 143.002 -48.999c38 -38.667 57 -98.334 57 -179.001c0 -94 -19.667 -156.333 -59 -187c-12.667 -10 -22.334 -16.333 -29.001 -19s-16.334 -6 -29.001 -10l139 -288h-158l-121 277l-123 14v-291h-140v732h320zM192.002 401.001h166
c26 0 44.5 6.66699 55.5 20s16.5 40.333 16.5 81s-6 68.5 -18 83.5s-30 22.5 -54 22.5h-166v-207z" />
    <glyph glyph-name="S" unicode="S" horiz-adv-x="590" 
d="M50 486l0.000976562 62.998c0 70 19 119.667 57 149c34.667 26 81.667 39.333 141 40h50.5c25.667 0 63.334 -2.66699 113.001 -8s89.5 -12.333 119.5 -21v-110c-76 6.66699 -136.5 10 -181.5 10h-72.5c-30 0 -52 -4 -66 -12s-21 -27.667 -21 -59v-36
c0 -28 5.66699 -46.667 17 -56s31.666 -14 60.999 -14h116c76 0 127 -30.333 153 -91c13.333 -30.667 20 -65 20 -103v-49c0 -89.333 -29.667 -147.666 -89 -174.999c-30.667 -14.667 -68.334 -22 -113.001 -22c-120.667 0 -215 10 -283 30v110
c73.333 -7.33301 137.333 -11 192 -11s86.5 0.666992 95.5 2s18.167 4 27.5 8c20 8.66699 30 26.334 30 53.001v39c0 34.667 -11 56 -33 64c-8.66699 3.33301 -19.667 5 -33 5h-112c-126 0 -189 64.667 -189 194z" />
    <glyph glyph-name="T" unicode="T" horiz-adv-x="593" 
d="M31 603v129h541v-129h-203v-603h-140v603h-198z" />
    <glyph glyph-name="U" unicode="U" horiz-adv-x="664" 
d="M343 -5l-14 0.000976562c-80 0 -133.333 8.33301 -160 25c-12 8 -26 19.833 -42 35.5s-28 34.834 -36 57.501c-20 56 -30 125 -30 207v412h140v-412c0 -64 6.33301 -111 19 -141c11.333 -26.667 33.666 -43.667 66.999 -51c14.667 -2.66699 35.834 -4 63.501 -4
s50.834 5 69.501 15c39.333 21.333 59 81.666 59 180.999v412h141v-412c0 -104.667 -15.333 -180.667 -46 -228c-10 -16.667 -19.833 -30.167 -29.5 -40.5s-22 -19.333 -37 -27s-27.833 -13.334 -38.5 -17.001s-25 -6.5 -43 -8.5c-22.667 -2.66699 -50.334 -4 -83.001 -4z
" />
    <glyph glyph-name="V" unicode="V" horiz-adv-x="685" 
d="M34 732h149l163 -548l172 548h149l-241 -732h-162z" />
    <glyph glyph-name="W" unicode="W" horiz-adv-x="992" 
d="M34 732h149l162 -543l132 543h150l-51 -189l116 -357l134 546h148l-201 -732h-162l-99 300l-86 -300h-162z" />
    <glyph glyph-name="X" unicode="X" horiz-adv-x="641" 
d="M34 732h155l138 -250l141 250h155l-220 -365l215 -367h-155l-136 246l-135 -246h-155l215 367z" />
    <glyph glyph-name="Y" unicode="Y" horiz-adv-x="656" 
d="M397 0h-140v227l-223 505h152l143 -351l157 351h152l-241 -505v-227z" />
    <glyph glyph-name="Z" unicode="Z" horiz-adv-x="556" 
d="M27 0v129l335 474h-335v129h504v-129l-319 -474h319v-129h-504z" />
    <glyph glyph-name="bracketleft" unicode="[" horiz-adv-x="333" 
d="M65 -10v663.999c0 52.667 11.667 96.334 35 131.001c26 38 70.667 57 134 57h85v-118h-52c-41.333 0 -62 -29 -62 -87v-642c0 -58 20.667 -87 62 -87h52v-118h-85c-28.667 0 -53.5 4.5 -74.5 13.5s-37.333 20 -49 33s-21.167 29.167 -28.5 48.5
c-11.333 30 -17 65 -17 105z" />
    <glyph glyph-name="backslash" unicode="\" horiz-adv-x="456" 
d="M15 770h145l281 -842h-145z" />
    <glyph glyph-name="bracketright" unicode="]" horiz-adv-x="333" 
d="M15 -92h53c41.333 0 62 29 62 87v642c0 58 -20.667 87 -62 87h-53v118h86c84 0 136.667 -36 158 -108c7.33301 -23.333 11 -50 11 -80v-664c0 -57.333 -10 -101 -30 -131c-30 -46 -76.333 -69 -139 -69h-86v118z" />
    <glyph glyph-name="asciicircum" unicode="^" horiz-adv-x="384" 
d="M38 531l108 135h104l96 -135h-93l-58 60l-63 -60h-94z" />
    <glyph glyph-name="underscore" unicode="_" horiz-adv-x="674" 
d="M20 -1v118h634v-118h-634z" />
    <glyph glyph-name="grave" unicode="`" horiz-adv-x="243" 
d="M15 670h123l90 -139h-91z" />
    <glyph glyph-name="a" unicode="a" horiz-adv-x="519" 
d="M48 505c60.667 24 141.665 36.0029 242.998 36.0029c61.333 0 108.5 -12.833 141.5 -38.5s49.5 -69.834 49.5 -132.501v-370h-111l-29 58c-2.66699 -4.66699 -11.167 -11.834 -25.5 -21.501s-34.166 -19.167 -59.499 -28.5s-49.666 -14 -72.999 -14
c-49.333 0 -87.333 14.167 -114 42.5s-40 61.166 -40 98.499v50c0 42.667 12.667 77.667 38 105s64.333 40.833 117 40.5s92 -0.5 118 -0.5s39 0.333008 39 1v24.5v9.5c0 26.667 -5.66699 44.167 -17 52.5s-34 12.5 -68 12.5s-103.667 -3.66699 -209 -11v86z
M169.998 155.003c0 -20 4.33301 -33.167 13 -39.5s21.334 -9.5 38.001 -9.5s35.167 3.5 55.5 10.5s36.166 13.833 47.499 20.5l18 11v97l-129 -10c-28.667 -2.66699 -43 -20.667 -43 -54v-26z" />
    <glyph glyph-name="b" unicode="b" horiz-adv-x="556" 
d="M185 785l-0.00195312 -281.001c50 23.333 103.667 35 161 35c48.667 0 85.334 -11.667 110.001 -35c26 -24 43 -56 51 -96c8 -39.333 12 -87.666 12 -144.999c0 -86 -13.333 -152.333 -40 -199s-71 -70 -133 -70c-28.667 0 -57.667 6 -87 18s-53.666 26 -72.999 42
l-25 -54h-115v785h139zM309.998 113.999c23.333 0 40.667 11.5 52 34.5s17 59.667 17 110s-2.83301 87.5 -8.5 111.5s-13.167 39.833 -22.5 47.5s-22 11.5 -38 11.5c-48.667 0 -90 -6.66699 -124 -20v-263c34 -21.333 75.333 -32 124 -32z" />
    <glyph glyph-name="c" unicode="c" horiz-adv-x="494" 
d="M38 266c0 53.333 4.16992 98.1641 12.5029 134.497s20.666 64 36.999 83s34.5 32.5 54.5 40.5s43.667 12 71 12c98 0 179.333 -10.333 244 -31v-87c-63.333 4 -113.833 6 -151.5 6s-60.334 -0.666992 -68.001 -2s-16.167 -4.66602 -25.5 -9.99902
s-16 -13.666 -20 -24.999c-9.33301 -27.333 -14 -66.166 -14 -116.499s3.16699 -86.5 9.5 -108.5s15.666 -36.5 27.999 -43.5s31.833 -10.5 58.5 -10.5c54 0 108.333 2.33301 163 7l27 2v-88c-30.667 -16 -60.667 -25.333 -90 -28c-43.333 -4 -81 -6 -113 -6h-6h-42
c-52.667 0 -94 17.667 -124 53c-34 39.333 -51 112 -51 218z" />
    <glyph glyph-name="d" unicode="d" horiz-adv-x="556" 
d="M53 420c10 32.667 21.332 56.333 33.999 71c27.333 32 68.666 48 123.999 48c24 0 51 -3.16699 81 -9.5s56.667 -14.833 80 -25.5v281h140v-785h-116l-24 54c-19.333 -16 -43.666 -30 -72.999 -42s-58.666 -18 -87.999 -18c-62 0 -106.333 22.833 -133 68.5
s-40 108.5 -40 188.5s5 136.333 15 169zM186.499 369.999c-5.66699 -24 -8.5 -61.167 -8.5 -111.5s5.66699 -87 17 -110s29 -34.5 53 -34.5c48.667 0 90 10.667 124 32v263c-34.667 13.333 -76 20 -124 20c-16.667 0 -29.667 -3.83301 -39 -11.5s-16.833 -23.5 -22.5 -47.5z
" />
    <glyph glyph-name="e" unicode="e" horiz-adv-x="525" 
d="M181 529c23.333 4 49.998 6.00195 79.998 6.00195s53.333 -0.5 70 -1.5s33.5 -3 50.5 -6s30.833 -7.33301 41.5 -13s21 -13.334 31 -23.001s17.667 -21.167 23 -34.5c12 -30 18 -64.5 18 -103.5s-5.66699 -68.5 -17 -88.5c-22 -38 -65.667 -57 -131 -57h-169
c0 -23.333 2 -42 6 -56s11.333 -24.167 22 -30.5s21.834 -10.333 33.501 -12s43.5 -2.5 95.5 -2.5s102 3.66699 150 11v-95c-30 -11.333 -60.167 -18.333 -90.5 -21s-51.166 -4.33398 -62.499 -5.00098s-25.333 -1 -42 -1c-22 -0.666992 -47.667 -1 -77 -1
c-66 0 -111.667 20.667 -137 62s-38 108.5 -38 201.5s10.167 159 30.5 198s57.833 63.167 112.5 72.5zM354.998 349.002c0 33.333 -4.5 54.834 -13.5 64.501s-27.167 14.5 -54.5 14.5s-46.166 -0.833008 -56.499 -2.5s-20.333 -6.33398 -30 -14.001
s-15.834 -19.167 -18.501 -34.5s-4 -29.833 -4 -43.5v-24.5h133c29.333 0 44 13.333 44 40z" />
    <glyph glyph-name="f" unicode="f" horiz-adv-x="403" 
d="M15 424l0.000976562 90.001l83 17v99c0 49.333 12 87.666 36 114.999s62.667 41 116 41s99.666 -8 138.999 -24v-83l-96 1c-30.667 0.666992 -48 -9.33301 -52 -30c-2 -11.333 -3 -29 -3 -53v-66h121v-107h-121v-424h-140v424h-83z" />
    <glyph glyph-name="g" unicode="g" horiz-adv-x="560" 
d="M202 149c-26.667 0 -40.002 -7.66699 -40.002 -23c0 -10.667 3.5 -17.834 10.5 -21.501s16.833 -5.5 29.5 -5.5h163c49.333 0 87.833 -13.167 115.5 -39.5s41.5 -65.833 41.5 -118.5v-57c0 -77.333 -33 -125.666 -99 -144.999c-19.333 -6 -41.666 -9 -66.999 -9h-150
c-78 0 -129 28.667 -153 86c-8.66699 19.333 -13 42 -13 68v67l47 49c-15.333 8 -27.833 21 -37.5 39s-14.5 38.667 -14.5 62s5.16699 43.5 15.5 60.5s25.833 28.833 46.5 35.5c-38.667 24.667 -58 73.667 -58 147c0 126 61.333 189 184 189h323v-84l-59 -18
c0 -0.666992 0.833008 -2.83398 2.5 -6.50098s2.83398 -6.33398 3.50098 -8.00098l3 -7.5c1.33301 -3.33301 2.33301 -6.33301 3 -9l2.5 -10c1 -4 1.66699 -8 2 -12s0.833008 -8.66699 1.5 -14c1.33301 -9.33301 2 -22 2 -38s-1.5 -31.667 -4.5 -47
s-8.66699 -31.166 -17 -47.499s-18.833 -30.166 -31.5 -41.499c-30 -27.333 -73 -41 -129 -41h-123zM180.998 -99c0 -24 5.16895 -39.833 15.502 -47.5s26.166 -11.5 47.499 -11.5h82c23.333 0 38.666 4.83301 45.999 14.5s11 23.5 11 41.5v39c0 16 -4 28 -12 36
s-21.333 12.333 -40 13h-108l-42 3v-88zM179 344c0 -54.667 21.333 -82 64 -82h56c45.333 0 68 26 68 78c0 38 -9.66699 62.333 -29 73c-10 5.33301 -23.333 8 -40 8h-53c-26 0 -43.5 -7 -52.5 -21s-13.5 -32.667 -13.5 -56z" />
    <glyph glyph-name="h" unicode="h" 
d="M46 0l0.000976562 783h139v-309c48 34.667 86.667 55 116 61c16 3.33301 33.667 5 53 5c106 0 159 -62 159 -186v-354h-140v356c0 48 -19.667 72 -59 72c-26.667 0 -49.334 -3.5 -68.001 -10.5s-38.667 -18.833 -60 -35.5v-382h-140z" />
    <glyph glyph-name="i" unicode="i" horiz-adv-x="227" 
d="M38 610l-0.000976562 88c0 17.333 8 26 24 26h105c14.667 0 22 -8.66699 22 -26v-88c0 -15.333 -7.33301 -23 -22 -23h-105c-7.33301 0 -13.166 2 -17.499 6s-6.5 9.66699 -6.5 17zM42.999 0v531h140v-531h-140z" />
    <glyph glyph-name="j" unicode="j" horiz-adv-x="242" 
d="M46 610l-0.000976562 88c0 17.333 8 26 24 26h105c7.33301 0 13 -2.5 17 -7.5s6 -11.167 6 -18.5v-88c0 -15.333 -7.66699 -23 -23 -23h-105c-7.33301 0 -13.166 2 -17.499 6s-6.5 9.66699 -6.5 17zM51.999 -270v801h140v-535v-51c0 -89.333 -12.333 -161 -37 -215h-103z
" />
    <glyph glyph-name="k" unicode="k" horiz-adv-x="557" 
d="M46 0v782h140v-429h29l150 178h178l-199 -231l199 -300h-167l-161 246h-29v-246h-140z" />
    <glyph glyph-name="l" unicode="l" horiz-adv-x="313" 
d="M46 189v594h140v-572c0 -35.333 3.66699 -60 11 -74s19 -24 35 -30c40 -14 62.333 -21 67 -21v-86h-116c-45.333 0 -79.5 14.5 -102.5 43.5s-34.5 77.5 -34.5 145.5z" />
    <glyph glyph-name="m" unicode="m" horiz-adv-x="875" 
d="M370 354c0 48 -19.6689 72.001 -59.002 72.001c-26.667 0 -48.667 -3.33301 -66 -10s-37 -18.334 -59 -35.001v-381h-140v531h112l28 -57l20 14c11.333 8 22.333 15.333 33 22s26.167 13.167 46.5 19.5s42.166 9.5 65.499 9.5c68.667 0 114.667 -23 138 -69
c62.667 46 126.334 69 191.001 69c105.333 0 158 -62.333 158 -187v-352h-140v354c0 36 -11.333 58.667 -34 68c-7.33301 2.66699 -15.666 4 -24.999 4c-53.333 0 -96.666 -14 -129.999 -42l1 -31v-353h-140v354z" />
    <glyph glyph-name="n" unicode="n" 
d="M354 540c106 0 159.001 -61.999 159.001 -185.999v-354h-140v356c0 48 -19.667 72 -59 72c-26.667 0 -49.334 -3.5 -68.001 -10.5s-38.667 -18.833 -60 -35.5v-382h-140v531h112l28 -57c48.667 35.333 87.334 55.666 116.001 60.999c15.333 3.33301 32.666 5 51.999 5z
" />
    <glyph glyph-name="o" unicode="o" horiz-adv-x="560" 
d="M38 255c0 46 2.66797 84.5 8.00098 115.5s13.666 57.333 24.999 79s27 38.834 47 51.501c36.667 23.333 90.667 35 162 35c91.333 0 154.5 -20 189.5 -60s52.5 -111.167 52.5 -213.5s-17.167 -172.5 -51.5 -210.5s-97.833 -57 -190.5 -57c-90.667 0 -154 20.333 -190 61
c-34.667 39.333 -52 105.666 -52 198.999zM182.001 346.5c-2.66699 -21 -3.99805 -49.498 -3.99805 -85.498s1.66699 -64 5 -84s9.5 -35.167 18.5 -45.5s19.167 -16.833 30.5 -19.5s26.666 -4 45.999 -4s33.833 0.666992 43.5 2s19 4.66602 28 9.99902
s15.5 13.666 19.5 24.999c8.66699 24 13 56.5 13 97.5s-0.833008 71 -2.5 90s-4.5 35 -8.5 48s-10.333 22.167 -19 27.5c-15.333 10 -36.833 15.167 -64.5 15.5s-47.334 -1.16699 -59.001 -4.5s-21.667 -11 -30 -23s-13.833 -28.5 -16.5 -49.5z" />
    <glyph glyph-name="p" unicode="p" horiz-adv-x="556" 
d="M258.5 519c29.667 12 59.667 18.002 90 18.002s56.833 -6.33301 79.5 -19s40.667 -31.334 54 -56.001c24.667 -46.667 37 -111.334 37 -194.001c0 -108 -16 -182.667 -48 -224c-28 -34.667 -69.667 -52 -125 -52c-24 0 -51 3.16699 -81 9.5s-56.667 14.5 -80 24.5v-296
h-139v801h115l24 -53c19.333 15.333 43.833 29 73.5 41zM310 102.002c16 0 28.665 3.66699 37.998 11c20.667 17.333 31 67 31 149c0 57.333 -5.66699 97.5 -17 120.5s-28.666 34.5 -51.999 34.5c-49.333 0 -91 -10.667 -125 -32v-263
c34.667 -13.333 76.334 -20 125.001 -20z" />
    <glyph glyph-name="q" unicode="q" horiz-adv-x="555" 
d="M38 268c0 179.333 64.667 268.999 194 268.999c50 0 101.833 -3.16699 155.5 -9.5s94.5 -13.166 122.5 -20.499v-777h-140v299c-38.667 -26 -84.667 -39 -138 -39c-72.667 0 -123.167 22.833 -151.5 68.5s-42.5 115.5 -42.5 209.5zM178.5 305.499
c-0.333008 -9 -0.5 -22.167 -0.5 -39.5s0.166992 -31.5 0.5 -42.5s1.16602 -24.333 2.49902 -40s3.83301 -27.5 7.5 -35.5s8.16699 -16.333 13.5 -25c10.667 -15.333 28.334 -23 53.001 -23s44.5 1.5 59.5 4.5s33.5 8.83301 55.5 17.5v308h-110
c-26.667 0 -45.667 -9.33301 -57 -28c-12 -19.333 -19 -38 -21 -56s-3.16699 -31.5 -3.5 -40.5z" />
    <glyph glyph-name="r" unicode="r" horiz-adv-x="417" 
d="M46 0l-0.000976562 531h118l22 -67c50 48 100.667 72 152 72c28.667 0 48.334 -2 59.001 -6v-135c-18.667 2 -44 3 -76 3s-58.5 -4.16699 -79.5 -12.5s-39.5 -23.833 -55.5 -46.5v-339h-140z" />
    <glyph glyph-name="s" unicode="s" horiz-adv-x="508" 
d="M168 536c158 0 252.667 -9 284 -27v-88h-241c-16.667 0 -27.667 -2.66699 -33 -8s-8 -15 -8 -29v-24c0 -15.333 3.33301 -24.833 10 -28.5s17 -5.5 31 -5.5h126c32.667 0 59.667 -6.33301 81 -19c40 -22.667 60 -62 60 -118v-55c0 -50 -12.333 -85.667 -37 -107
s-55.667 -32 -93 -32c-168 0 -266.667 9.66699 -296 29v87h251c23.333 0 35 11.333 35 34v25c0 12 -2.5 20.667 -7.5 26s-14.167 8 -27.5 8h-124c-99.333 0 -149 47.667 -149 143v46c0 95.333 46 143 138 143z" />
    <glyph glyph-name="t" unicode="t" horiz-adv-x="381" 
d="M15 425l0.000976562 78l86 29l23 148h117v-148h119v-107h-119v-213c0 -36 3.66699 -61 11 -75s18.666 -24 33.999 -30c40 -14 62.333 -21 67 -21v-86h-122c-86.667 -0 -130 63.333 -130 190v235h-86z" />
    <glyph glyph-name="u" unicode="u" 
d="M178 531l0.00195312 -356c0 -47.333 19.667 -71 59 -71c34.667 0 64 6.33301 88 19c12 6.66699 25.333 15.667 40 27v381h140v-531h-113l-27 56c-6 -3.33301 -14.333 -8.33301 -25 -15l-25 -15.5c-6 -3.66699 -13.833 -8 -23.5 -13s-18.834 -8.83301 -27.501 -11.5
c-20.667 -6.66699 -43.334 -10 -68.001 -10c-105.333 0 -158 62.333 -158 187v353h140z" />
    <glyph glyph-name="v" unicode="v" horiz-adv-x="564" 
d="M15 531h150l116 -367l119 367h150l-193 -531h-157z" />
    <glyph glyph-name="w" unicode="w" horiz-adv-x="826" 
d="M15 531h150l106 -367l95 367h140l-37 -143l88 -224l105 367h150l-172 -531h-156l-80 192l-60 -192h-159z" />
    <glyph glyph-name="x" unicode="x" horiz-adv-x="572" 
d="M18 0l184 266l-184 265h170l97 -159l100 159h169l-186 -268l178 -263h-161l-99 157l-98 -157h-170z" />
    <glyph glyph-name="y" unicode="y" horiz-adv-x="578" 
d="M16 531h147l92 -372c6.66699 -25.333 23 -38 49 -38c2 -0.666992 3.33301 -1 4 -1l106 411h146l-184 -699l-73 -102h-100l75 270c-81.333 0 -134 45 -158 135z" />
    <glyph glyph-name="z" unicode="z" horiz-adv-x="474" 
d="M23 413v118h429v-118l-228 -294h228v-118h-414v117l238 295h-253z" />
    <glyph glyph-name="braceleft" unicode="{" horiz-adv-x="321" 
d="M89 439v216.999c0 57.333 18 102.666 54 135.999s90.333 50 163 50v-118c-27.333 0 -47 -7.83301 -59 -23.5s-18 -45.167 -18 -88.5v-181c0 -57.333 -32 -89.666 -96 -96.999c28.667 -5.33301 51.667 -16.166 69 -32.499s26 -36.833 26 -61.5v-240
c0 -65.333 24.667 -98 74 -98h4v-112c-78 0 -133.833 14.833 -167.5 44.5s-50.5 72.167 -50.5 127.5v266c0 18 -6.5 31.333 -19.5 40s-27.833 13 -44.5 13h-9v105c36 3.33301 58.333 12.333 67 27c4.66699 7.33301 7 16 7 26z" />
    <glyph glyph-name="bar" unicode="|" horiz-adv-x="247" 
d="M65 -72v842h118v-842h-118z" />
    <glyph glyph-name="braceright" unicode="}" horiz-adv-x="321" 
d="M19 -98c25.333 0 44.167 8.00098 56.5 24.001s18.5 40.667 18.5 74v240c0 24.667 8.5 45.167 25.5 61.5s40.167 27.166 69.5 32.499c-64 7.33301 -96 39.666 -96 96.999v181c0 43.333 -6.16699 72.833 -18.5 88.5s-32.166 23.5 -59.499 23.5v118
c72.667 0 127.167 -16.667 163.5 -50s54.5 -78.666 54.5 -135.999v-217c0 -20.667 8 -34.667 24 -42c13.333 -5.33301 29.666 -9 48.999 -11v-105h-19c-10 0 -21.333 -4.33301 -34 -13s-19 -22 -19 -40v-266c0 -55.333 -17 -97.833 -51 -127.5s-90 -44.5 -168 -44.5v112h4z
" />
    <glyph glyph-name="asciitilde" unicode="~" horiz-adv-x="419" 
d="M109 645.5c16 8.33301 31.999 12.501 47.999 12.501s34.667 -5.83301 56 -17.5s38.333 -17.5 51 -17.5h3c28 0 58 13.333 90 40l24 -60c-28.667 -34.667 -54.334 -56.334 -77.001 -65.001c-12 -4.66699 -24.833 -7 -38.5 -7s-32.334 5.83301 -56.001 17.5
s-40 17.5 -49 17.5s-15.833 -0.166992 -20.5 -0.5s-9.5 -1.33301 -14.5 -3s-9.16699 -3 -12.5 -4s-7.66602 -3 -12.999 -6s-9.16602 -5 -11.499 -6s-6.66602 -3.5 -12.999 -7.5s-10.833 -6.66699 -13.5 -8l-24 55c14 15.333 25.333 27 34 35s21 16.167 37 24.5z" />
    <glyph glyph-name="exclamdown" unicode="&#xa1;" horiz-adv-x="276" 
d="M70 351v87c0 14 8 21.667 24 23h85c8.66699 -0.666992 14.834 -4 18.501 -10s5.5 -11.333 5.5 -16v-84c-0.666992 -18 -8.33398 -27 -23.001 -27h-86c-16 0 -24 9 -24 27zM65 -270l14 533h115l14 -533h-143z" />
    <glyph glyph-name="cent" unicode="&#xa2;" horiz-adv-x="487" 
d="M43 130.5c-8.66699 36.333 -12.999 81.5029 -12.999 135.503s4.33301 99.333 13 136c15.333 65.333 47 106.666 95 123.999c19.333 7.33301 36.166 11 50.499 11h24.5v97h86v-100c58 -6 108.333 -16 151 -30v-87c-64 4.66699 -114.667 7 -152 7s-60 -0.5 -68 -1.5
s-16.5 -4.16699 -25.5 -9.5s-15.833 -14 -20.5 -26c-9.33301 -26.667 -14 -65.334 -14 -116.001s3.16699 -87.167 9.5 -109.5s15.666 -37 27.999 -44s31.833 -10.5 58.5 -10.5c54 0 108.333 2.33301 163 7l28 2v-88c-41.333 -20.667 -94.666 -31.667 -159.999 -33v-90h-86
v89c-28.667 0 -53.167 4 -73.5 12s-39 21.667 -56 41s-29.833 47.166 -38.5 83.499z" />
    <glyph glyph-name="sterling" unicode="&#xa3;" horiz-adv-x="582" 
d="M38 0v107.998l66 21v185h-66v72l66 22v75c0 56 4.66699 96.167 14 120.5s18 42.833 26 55.5s17.833 23.167 29.5 31.5s23.834 15.333 36.501 21s27.334 9.83398 44.001 12.501c29.333 5.33301 58.666 8 87.999 8c46 0 102.333 -4 169 -12l34 -4v-112h-189
c-24.667 0 -42.834 -0.833008 -54.501 -2.5s-22.667 -6.16699 -33 -13.5s-17 -18.166 -20 -32.499s-4.5 -34.5 -4.5 -60.5v-87l222 -16v-78h-222v-185h300v-129h-506z" />
    <glyph glyph-name="currency" unicode="&#xa4;" horiz-adv-x="446" 
d="M133 442c26.667 18.667 56.333 27.999 89 27.999s62.667 -9.33301 90 -28l46 47l50 -47l-49 -50c14.667 -24 22 -52.167 22 -84.5s-9.66699 -62.166 -29 -89.499l48 -48l-47 -50l-53 51c-24 -14.667 -50.667 -22 -80 -22s-57 8.66699 -83 26l-46 -48l-49 50l47 48
c-16.667 26.667 -25 55.167 -25 85.5s7.33301 57.5 22 81.5l-47 46l48 49zM165.499 367.999c-15.667 -16 -23.5 -35.167 -23.5 -57.5s7.83301 -41.666 23.5 -57.999s34.667 -24.5 57 -24.5s41.333 8.16699 57 24.5s23.5 35.666 23.5 57.999s-7.83301 41.5 -23.5 57.5
s-34.667 24 -57 24s-41.333 -8 -57 -24z" />
    <glyph glyph-name="yen" unicode="&#xa5;" horiz-adv-x="634" 
d="M525 338v-82h-147v-36h147v-81h-147v-139h-140v139h-140v81h140v36h-140v82h106l-189 394h153l142 -330l155 330h154l-205 -394h111z" />
    <glyph glyph-name="brokenbar" unicode="&#xa6;" horiz-adv-x="248" 
d="M65 -72v328h118v-328h-118zM65 429v341h118v-341h-118z" />
    <glyph glyph-name="section" unicode="&#xa7;" horiz-adv-x="541" 
d="M42 590l0.000976562 48c0 72 27.333 117.667 82 137c17.333 6 42 9 74 9s77.833 -1.83301 137.5 -5.5s101.834 -8.16699 126.501 -13.5v-99h-241c-17.333 0 -29 -5 -35 -15c-2.66699 -5.33301 -4 -12.333 -4 -21v-35c0 -22.667 13.333 -34 40 -34h123
c55.333 0 95.166 -10.333 119.499 -31s36.166 -52.334 35.499 -95.001v-35c0 -61.333 -19.333 -97 -58 -107c38 -6.66699 57 -39.667 57 -99v-56c0 -97.333 -46 -146 -138 -146c-46 0 -98.833 1.83301 -158.5 5.5s-100.834 8.16699 -123.501 13.5v99h237
c19.333 0 31.5 3 36.5 9s7.5 13.333 7.5 22v40c0 12.667 -3.16699 21.334 -9.5 26.001s-17.166 7 -32.499 7h-124c-50 0 -87.667 8.83301 -113 26.5s-38 49.5 -38 95.5v35c0 48 8.66699 80 26 96c8.66699 8 20 14.333 34 19c-40.667 17.333 -61 52 -61 104zM182.001 366
c0 -17.333 3.00195 -28 9.00195 -32c8.66699 -5.33301 20.667 -8 36 -8h86c21.333 0 34 2.66699 38 8c6 7.33301 9 18.333 9 33v38c0 23.333 -7 36.666 -21 39.999c-6.66699 2 -15.334 3 -26.001 3h-86c-18.667 0 -30.834 -3.16699 -36.501 -9.5s-8.5 -18.166 -8.5 -35.499
v-37z" />
    <glyph glyph-name="dieresis" unicode="&#xa8;" horiz-adv-x="448" 
d="M38 582c0 16 5.83301 29.667 17.5 41s25.5 17 41.5 17s29.667 -5.66699 41 -17s17 -25 17 -41s-5.66699 -29.833 -17 -41.5s-25 -17.5 -41 -17.5s-29.833 5.83301 -41.5 17.5s-17.5 25.5 -17.5 41.5zM293 582c0 16 5.83301 29.667 17.5 41s25.5 17 41.5 17
s29.667 -5.66699 41 -17s17 -25 17 -41s-5.66699 -29.833 -17 -41.5s-25 -17.5 -41 -17.5s-29.833 5.83301 -41.5 17.5s-17.5 25.5 -17.5 41.5z" />
    <glyph glyph-name="copyright" unicode="&#xa9;" horiz-adv-x="800" 
d="M42 377c0 33.333 2.00195 66.167 6.00195 98.5s11.5 65 22.5 98s25.667 60.667 44 83s43 40.5 74 54.5s66.833 21 107.5 21h232c38.667 0 72.167 -7.33301 100.5 -22s50.666 -33.167 66.999 -55.5s29.5 -50.166 39.5 -83.499c16 -54.667 24 -122.334 24 -203.001
c0 -116 -19.833 -206.333 -59.5 -271s-96.834 -97 -171.501 -97h-232c-75.333 -0 -135 29.333 -179 88c-50 66 -75 162.333 -75 289zM133.002 370.001c0 -54 5.50098 -101.668 16.501 -143.001s29.167 -75.166 54.5 -101.499s56 -39.5 92 -39.5h226
c29.333 0 54.5 9.16699 75.5 27.5s38 48.833 51 91.5s19.5 97 19.5 163c0 87.333 -7 149 -21 185c-16.667 42 -37.667 69 -63 81c-16.667 8 -35.334 12 -56.001 12h-232c-47.333 0 -85.333 -17.667 -114 -53c-32.667 -40.667 -49 -115 -49 -223zM223.003 365
c0 145.333 47.998 217.999 143.998 217.999c24.667 0 55 -2.16699 91 -6.5s67 -10.166 93 -17.499v-74c-56 8 -110 12 -162 12c-26.667 0 -45.667 -10.167 -57 -30.5s-17 -53.833 -17 -100.5s5.83301 -80.5 17.5 -101.5s31.834 -31.5 60.501 -31.5
c48.667 0 103.334 5.33301 164.001 16v-74c-46 -18.667 -107.667 -28 -185 -28c-72 0 -117.667 36.667 -137 110c-8 29.333 -12 65.333 -12 108z" />
    <glyph glyph-name="ordfeminine" unicode="&#xaa;" horiz-adv-x="366" 
d="M23 262v70h321v-70h-321zM35 712c52.667 17.333 108.331 25.999 166.998 25.999c28.667 0 53.167 -3.16699 73.5 -9.5s36.666 -18.166 48.999 -35.499s18.5 -40 18.5 -68v-247h-82l-26 45c-3.33301 -8 -15.666 -18.167 -36.999 -30.5s-43 -18.5 -65 -18.5
c-34.667 0 -61.667 9.16699 -81 27.5s-29 39.833 -29 64.5v35c0 28 9 50.833 27 68.5s44.833 26.5 80.5 26.5h79h25.5c0.666992 10.667 0.833984 19 0.500977 25s-2.83301 12 -7.5 18c-6.66699 9.33301 -22.5 14 -47.5 14s-55.167 -1.33301 -90.5 -4s-53.666 -4 -54.999 -4
v67zM123.997 484.999c0 -12 3.16699 -20 9.5 -24s15.5 -6 27.5 -6s24.333 2 37 6s22 8.33301 28 13l9 6v59l-80 -7c-20.667 -1.33301 -31 -12.333 -31 -33v-14z" />
    <glyph glyph-name="guillemotleft" unicode="&#xab;" horiz-adv-x="580" 
d="M38 354l206 203l77 -76l-131 -127l133 -131l-74 -77zM257 354l206 203l77 -76l-130 -127l133 -131l-75 -77z" />
    <glyph glyph-name="logicalnot" unicode="&#xac;" horiz-adv-x="494" 
d="M34 240v112h426v-193h-112v81h-314z" />
    <glyph glyph-name="uni00AD" unicode="&#xad;" horiz-adv-x="354" 
d="M20 231v118h314v-118h-314z" />
    <glyph glyph-name="registered" unicode="&#xae;" horiz-adv-x="800" 
d="M42 377c0 33.333 2.00195 66.167 6.00195 98.5s11.5 65 22.5 98s25.667 60.667 44 83s43 40.5 74 54.5s66.833 21 107.5 21h232c38.667 0 72.167 -7.33301 100.5 -22s50.666 -33.167 66.999 -55.5s29.5 -50.166 39.5 -83.499c16 -54.667 24 -122.334 24 -203.001
c0 -116 -19.833 -206.333 -59.5 -271s-96.834 -97 -171.501 -97h-232c-75.333 -0 -135 29.333 -179 88c-50 66 -75 162.333 -75 289zM133.002 370.001c0 -54 5.50098 -101.668 16.501 -143.001s29.167 -75.166 54.5 -101.499s56 -39.5 92 -39.5h226
c29.333 0 54.5 9.16699 75.5 27.5s38 48.833 51 91.5s19.5 97 19.5 163c0 87.333 -7 149 -21 185c-16.667 42 -37.667 69 -63 81c-16.667 8 -35.334 12 -56.001 12h-232c-47.333 0 -85.333 -17.667 -114 -53c-32.667 -40.667 -49 -115 -49 -223zM430.003 580
c89.333 0 134 -44.665 134 -133.998c0 -42.667 -7 -73.334 -21 -92.001s-33 -31.334 -57 -38.001l87 -163h-99l-83 159l-52 12v-171h-91v427h182zM339.003 390.002l75 -0.000976562c26 0 42.333 3.16699 49 9.5s10 20.833 10 43.5s-4.5 36.834 -13.5 42.501
s-24.167 8.5 -45.5 8.5h-75v-104z" />
    <glyph glyph-name="macron" unicode="&#xaf;" horiz-adv-x="367" 
d="M38 531v79h292v-79h-292z" />
    <glyph glyph-name="degree" unicode="&#xb0;" horiz-adv-x="278" 
d="M38 632c0 18.667 4.5 35.834 13.5 51.501s21.333 28.167 37 37.5s32.667 14 51 14s35.333 -4.66699 51 -14s28 -21.833 37 -37.5s13.5 -32.834 13.5 -51.501s-4.5 -35.834 -13.5 -51.501s-21.333 -28 -37 -37s-32.667 -13.5 -51 -13.5s-35.333 4.5 -51 13.5
s-28 21.333 -37 37s-13.5 32.834 -13.5 51.501zM108.5 663.5c-9 -9 -13.501 -18.5 -13.501 -28.5s2 -18.333 6 -25c8.66699 -14.667 20.334 -22 35.001 -22s26.167 4.33301 34.5 13s12.5 19 12.5 31s-4.16699 22.5 -12.5 31.5s-18.5 13.5 -30.5 13.5s-22.5 -4.5 -31.5 -13.5
z" />
    <glyph glyph-name="plusminus" unicode="&#xb1;" horiz-adv-x="500" 
d="M43 70v118h416v-118h-416zM43 382v118h148v148h118v-148h150v-118h-150v-150h-118v150h-148z" />
    <glyph glyph-name="twosuperior" unicode="&#xb2;" horiz-adv-x="400" 
d="M24 767c-0.666992 0 -0.999023 7.83105 -0.999023 23.498v37.5l1 20c71.333 12.667 128.666 19 171.999 19s74.5 -3.66699 93.5 -11s34.167 -17.666 45.5 -30.999c22.667 -26 34 -60.667 34 -104c0 -70 -57.667 -151 -173 -243h172v-100h-341v95
c78 54.667 134.333 99.334 169 134.001c16 16 30.5 33.667 43.5 53s19.5 37.833 19.5 55.5s-5.66699 30.667 -17 39s-31 12.5 -59 12.5h-159z" />
    <glyph glyph-name="threesuperior" unicode="&#xb3;" horiz-adv-x="408" 
d="M193 373c-74.667 0 -129.999 6.66699 -165.999 20l1 80h159c26.667 0 44.667 2.66699 54 8s14 16 14 32v12c0 16.667 -5.33301 28.167 -16 34.5s-26.667 9.83301 -48 10.5l-123 5v86l123 7c23.333 0.666992 40.166 4.16699 50.499 10.5s15.5 16.833 15.5 31.5v12
c0 15.333 -5.5 25.833 -16.5 31.5s-27.5 8.5 -49.5 8.5h-168v79c37.333 14 93.333 21 168 21h46c39.333 -0.666992 70.333 -12 93 -34s34 -51 34 -87v-30c0 -49.333 -19 -80.333 -57 -93c38 -14.667 57 -47.667 57 -99v-23c0 -82 -44 -123 -132 -123h-39z" />
    <glyph glyph-name="acute" unicode="&#xb4;" horiz-adv-x="243" 
d="M15 531l91 139h122l-122 -139h-91z" />
    <glyph glyph-name="uni00B5" unicode="&#xb5;" horiz-adv-x="588" 
d="M209 531l-0.000976562 -356c0 -47.333 19.333 -71 58 -71c34.667 0 64.334 6.33301 89.001 19c12 6.66699 25.333 15.667 40 27v381h140v-531h-113l-27 56c-4 -2 -10.833 -6 -20.5 -12s-16.667 -10.167 -21 -12.5l-19 -10c-8.33301 -4.33301 -15.5 -7.83301 -21.5 -10.5
c-38 -14.667 -73 -17 -105 -7v-274h-140v448v353h140z" />
    <glyph glyph-name="paragraph" unicode="&#xb6;" horiz-adv-x="577" 
d="M30 499l-0.000976562 93c0 45.333 14.667 80 44 104s66.666 36 111.999 36h377v-104h-53v-628h-102v630h-66v-900h-102v642l-8 -5c-13.333 -8 -28.666 -12 -45.999 -12c-51.333 0 -90.166 13.5 -116.499 40.5s-39.5 61.5 -39.5 103.5zM131.999 511
c0 -23.333 6.33203 -38.667 18.999 -46c10.667 -5.33301 24.334 -8 41.001 -8h48v174h-48c-24 0 -40 -4.83301 -48 -14.5s-12 -24.5 -12 -44.5v-61z" />
    <glyph glyph-name="periodcentered" unicode="&#xb7;" horiz-adv-x="263" 
d="M65 340v90c0 16.667 8 25 24 25h86c16.667 0 25 -8.33301 25 -25v-90c0 -15.333 -8.33301 -23 -25 -23h-86c-10 0 -16.5 2.66699 -19.5 8s-4.5 10.333 -4.5 15z" />
    <glyph glyph-name="cedilla" unicode="&#xb8;" horiz-adv-x="244" 
d="M112 -37h94.001c0 -35.333 -3.33301 -63 -10 -83c-12.667 -38.667 -46.667 -58 -102 -58h-56v60l44 15c13.333 5.33301 21.666 12.5 24.999 21.5s5 23.833 5 44.5z" />
    <glyph glyph-name="onesuperior" unicode="&#xb9;" horiz-adv-x="270" 
d="M221 860v-482h-108v384l-101 -23v66l102 55h107z" />
    <glyph glyph-name="ordmasculine" unicode="&#xba;" horiz-adv-x="394" 
d="M61.5 414c-25.667 26.667 -38.499 73.833 -38.499 141.5s12.5 114.667 37.5 141s70.667 39.5 137 39.5s112 -13.333 137 -40s37.5 -74 37.5 -142s-12.5 -115 -37.5 -141s-70.333 -39 -136 -39s-111.334 13.333 -137.001 40zM36.001 263.999v69h322v-69h-322z
M134.001 603.999c-2 -12.667 -3.00098 -31.499 -3.00098 -56.499s2.66699 -44 8 -57s12 -21.167 20 -24.5s20 -5 36 -5s27.333 0.666992 34 2s13 5 19 11c10.667 9.33301 16 32.166 16 68.499s-2.16699 61.333 -6.5 75s-10.666 22.334 -18.999 26.001s-20.833 5.5 -37.5 5.5
s-28.667 -1 -36 -3s-13.833 -6.33301 -19.5 -13s-9.5 -16.334 -11.5 -29.001z" />
    <glyph glyph-name="guillemotright" unicode="&#xbb;" horiz-adv-x="580" 
d="M38 223l133 131l-130 127l76 76l206 -203l-211 -208zM257 223l133 131l-130 127l77 76l206 -203l-211 -208z" />
    <glyph glyph-name="onequarter" unicode="&#xbc;" horiz-adv-x="931" 
d="M221 738v-483h-108v384l-101 -23v66l102 56h107zM175 0l413 753h102l-413 -753h-102zM759 201v102l24 49h84v-151h49v-85l-49 -18v-97h-108v97h-232l-22 47l171 336h114l-139 -280h108z" />
    <glyph glyph-name="onehalf" unicode="&#xbd;" horiz-adv-x="991" 
d="M221 738v-483h-108v384l-101 -23v66l102 56h107zM168 0l413 753h101l-413 -753h-101zM612 389l0.000976562 23.499v37.5v20c72 12.667 136 19 192 19s96.167 -13.167 120.5 -39.5s36.5 -61.833 36.5 -106.5c0 -69.333 -58.333 -150.333 -175 -243h174v-100h-344v96
c80 56.667 137 102.334 171 137.001c16 16 30.667 34 44 54s20 38.333 20 55s-5.83301 28.667 -17.5 36s-31.834 11 -60.501 11h-161z" />
    <glyph glyph-name="threequarters" unicode="&#xbe;" horiz-adv-x="1044" 
d="M23 719c36.667 13.333 86.9971 20.002 150.997 20.002h65c40 0 71.333 -11.167 94 -33.5s34 -51.5 34 -87.5v-30c0 -48.667 -19 -79.667 -57 -93c38 -14.667 57 -47.667 57 -99v-23c0 -81.333 -44.333 -122 -133 -122h-23h-23.5h-21
c-10.333 0 -17.666 0.166992 -21.999 0.5s-11.166 0.666016 -20.499 0.999023s-16.333 0.833008 -21 1.5s-11 1.5 -19 2.5s-14.667 2.16699 -20 3.5c-15.333 4 -27.666 7.66699 -36.999 11l1 79l161 1c27.333 0 45.833 2.66699 55.5 8s14.5 15.666 14.5 30.999v13
c0 16 -5.5 27.167 -16.5 33.5s-27.5 9.83301 -49.5 10.5l-125 5v86l125 8c24 0.666992 41.167 4 51.5 10s15.5 16.333 15.5 31v13c0 15.333 -5.66699 25.833 -17 31.5s-28 8.5 -50 8.5h-170v79zM277.997 0.00195312l413 753h101l-413 -753h-101zM850.997 199.002v104l22 50
h85v-154h48v-83l-48 -18v-97h-107v97h-233l-23 47l171 336h113l-140 -282h112z" />
    <glyph glyph-name="questiondown" unicode="&#xbf;" horiz-adv-x="543" 
d="M528 -137v-42v-52v-11c-90 -18 -166.333 -27 -229 -27c-17.333 0 -30.666 0.333008 -39.999 1l-14 1c-38 0 -71.333 5.83301 -100 17.5s-51 27.167 -67 46.5c-32 38.667 -48 83 -48 133v74c-0.666992 64.667 18 112.667 56 144c32 26.667 76.667 40 134 40
c11.333 0 23.333 -0.333008 36 -1v90h114l1 -195h-67.5c-19 0 -38 -0.333008 -57 -1s-35.333 -8 -49 -22s-20.834 -35 -21.501 -63s-1 -45 -1 -51c0 -25.333 8.5 -45.5 25.5 -60.5s41.5 -22.5 73.5 -22.5h5zM246 447c0 16 8.33594 24.334 25.0029 25.001h84
c7.33301 -0.666992 13.166 -3 17.499 -7s6.5 -9.33301 6.5 -16v-89c-0.666992 -16 -8.33398 -24.333 -23.001 -25h-87c-14.667 1.33301 -22.334 9.66602 -23.001 24.999v87z" />
    <glyph glyph-name="Agrave" unicode="&#xc0;" horiz-adv-x="692" 
d="M193 936h123l90 -139h-91zM34 0l247 732h159l238 -732h-149l-52 162h-240l-53 -162h-150zM274 286h170l-82 262z" />
    <glyph glyph-name="Aacute" unicode="&#xc1;" horiz-adv-x="692" 
d="M315 797l91 139h122l-122 -139h-91zM34 0l247 732h159l238 -732h-149l-52 162h-240l-53 -162h-150zM274 286h170l-82 262z" />
    <glyph glyph-name="Acircumflex" unicode="&#xc2;" horiz-adv-x="692" 
d="M206 797l108 135h104l97 -135h-93l-59 60l-63 -60h-94zM34 0l247 732h159l238 -732h-149l-52 162h-240l-53 -162h-150zM274 286h170l-82 262z" />
    <glyph glyph-name="Atilde" unicode="&#xc3;" horiz-adv-x="692" 
d="M420 887c25.333 0 54.666 12.667 87.999 38l24 -60c-41.333 -45.333 -78.666 -68 -111.999 -68c-16.667 0 -36.667 5.83301 -60 17.5s-39.5 17.5 -48.5 17.5s-16.833 -0.5 -23.5 -1.5s-12 -2 -16 -3s-9.16699 -3 -15.5 -6s-10.666 -5.16699 -12.999 -6.5l-15 -9
c-7.66699 -4.66699 -12.834 -7.66699 -15.501 -9l-24 55c42.667 46.667 83 70 121 70c16 -0.666992 35 -6.66699 57 -18s36 -17 42 -17h11zM34 0l247 732h159l238 -732h-149l-52 162h-240l-53 -162h-150zM274 286h170l-82 262z" />
    <glyph glyph-name="Adieresis" unicode="&#xc4;" horiz-adv-x="692" 
d="M191.5 814.5c-11.667 11.667 -17.5 24.168 -17.5 37.501s2.66699 24.666 8 33.999c12 19.333 27.667 28.833 47 28.5s34.666 -6 45.999 -17s17 -24.667 17 -41s-5.66699 -30.333 -17 -42s-25.166 -17.5 -41.499 -17.5s-30.333 5.83301 -42 17.5zM429 856.001
c0 16 5.83301 29.667 17.5 41s25.667 17 42 17s30.166 -5.5 41.499 -16.5s17 -24.667 17 -41s-5.66699 -30.333 -17 -42s-25.166 -17.5 -41.499 -17.5s-30.333 5.83301 -42 17.5s-17.5 25.5 -17.5 41.5zM34 0.000976562l247 732h159l238 -732h-149l-52 162h-240l-53 -162
h-150zM274 286.001h170l-82 262z" />
    <glyph glyph-name="Aring" unicode="&#xc5;" horiz-adv-x="692" 
d="M273 780.5c9.33301 -15.667 21.834 -28 37.501 -37s32.667 -13.5 51 -13.5s35.166 4.5 50.499 13.5s27.5 21.333 36.5 37s13.5 35.334 13.5 59.001s-9.83301 45.5 -29.5 65.5s-43.5 30 -71.5 30s-52 -10 -72 -30s-30 -41.833 -30 -65.5s4.66699 -43.334 14 -59.001z
M330.501 863c8.33301 8.66699 18.499 13 30.499 13s22.167 -4.33301 30.5 -13s12.5 -19 12.5 -31s-4.16699 -22 -12.5 -30s-18.5 -12 -30.5 -12s-22.333 4 -31 12c-3.33301 4 -6.16602 8.5 -8.49902 13.5s-3.5 12 -3.5 21s4.16699 17.833 12.5 26.5zM34 0l247 732h159
l238 -732h-149l-52 162h-240l-53 -162h-150zM274 286h170l-82 262z" />
    <glyph glyph-name="AE" unicode="&#xc6;" horiz-adv-x="954" 
d="M496 728c17.333 2 32.833 3.33301 46.5 4s25.167 1 34.5 1s19.333 -0.333008 30 -1c166 -4.66699 270.333 -10 313 -16v-116h-280c-24 0 -38.667 -6 -44 -18c-4 -9.33301 -6.33301 -21.666 -7 -36.999v-117l285 -11v-115l-285 -9v-113c0 -24 6.33301 -38.667 19 -44
c9.33301 -4 18.5 -6 27.5 -6h15.5h269v-117c-34 -4.66699 -113.667 -9.33398 -239 -14.001l-63 -3h-23c-9.33301 0 -21.5 1 -36.5 3s-31.667 7 -50 15s-32.833 21.167 -43.5 39.5s-16 40.833 -16 67.5v73h-175l-96 -194h-155l283 575c24.667 50.667 53.667 87.667 87 111
c32.667 23.333 67 37.333 103 42zM449 317v241l-116 -241h116z" />
    <glyph glyph-name="Ccedilla" unicode="&#xc7;" horiz-adv-x="571" 
d="M188 -37h93.999c0 -52 -8 -88.5 -24 -109.5s-45.333 -31.5 -88 -31.5h-56v60l44 15c12.667 5.33301 20.834 12.5 24.501 21.5s5.5 23.833 5.5 44.5zM91.999 642c26.667 44 63.667 73 111 87c26 7.33301 55.333 11 88 11c95.333 0 180.333 -11 255 -33v-110l-7.5 1
c-5 0.666992 -11.667 1.33398 -20 2.00098s-18.166 1.5 -29.499 2.5s-23.833 2 -37.5 3s-27.167 1.83301 -40.5 2.5c-31.333 2 -59.333 3 -84 3s-43.834 -1.5 -57.501 -4.5s-26.834 -9 -39.501 -18s-22 -22.5 -28 -40.5c-13.333 -38.667 -20 -99.334 -20 -182.001
c0 -88 9.33301 -149 28 -183c21.333 -40 59.333 -60 114 -60c62.667 0 126 2 190 6l32 2v-109c-60 -18.667 -137.333 -28 -232 -28h-23c-89.333 0.666992 -153.166 32.667 -191.499 96s-57.5 157.5 -57.5 282.5s16.667 214.833 50 269.5z" />
    <glyph glyph-name="Egrave" unicode="&#xc8;" horiz-adv-x="567" 
d="M164 934h123l90 -139h-91zM58 144l-0.000976562 436c0 60.667 18 102 54 124c30 18.667 62.333 28 97 28c2.66699 0 47.667 -1.16699 135 -3.5s152.333 -6.5 195 -12.5v-116h-289c-24.667 0 -40 -6 -46 -18c-4 -9.33301 -6 -22 -6 -38v-114l296 -10v-116l-296 -9v-114
c0 -25.333 7 -40.666 21 -45.999c10 -4 23.667 -6 41 -6h279v-115c-33.333 -4.66699 -115.666 -9.33398 -246.999 -14.001l-65 -3h-18.5c-7 0 -16.167 0.5 -27.5 1.5s-25 4.5 -41 10.5s-30 14 -42 24c-26.667 24 -40 61 -40 111z" />
    <glyph glyph-name="Eacute" unicode="&#xc9;" horiz-adv-x="567" 
d="M275 795l91 138h122l-122 -138h-91zM58 144l-0.000976562 436c0 60.667 18 102 54 124c30 18.667 62.333 28 97 28c2.66699 0 47.667 -1.16699 135 -3.5s152.333 -6.5 195 -12.5v-116h-289c-24.667 0 -40 -6 -46 -18c-4 -9.33301 -6 -22 -6 -38v-114l296 -10v-116
l-296 -9v-114c0 -25.333 7 -40.666 21 -45.999c10 -4 23.667 -6 41 -6h279v-115c-33.333 -4.66699 -115.666 -9.33398 -246.999 -14.001l-65 -3h-18.5c-7 0 -16.167 0.5 -27.5 1.5s-25 4.5 -41 10.5s-30 14 -42 24c-26.667 24 -40 61 -40 111z" />
    <glyph glyph-name="Ecircumflex" unicode="&#xca;" horiz-adv-x="567" 
d="M163 797l108 135h104l97 -135h-93l-59 60l-63 -60h-94zM58 144l-0.000976562 436c0 60.667 18 102 54 124c30 18.667 62.333 28 97 28c2.66699 0 47.667 -1.16699 135 -3.5s152.333 -6.5 195 -12.5v-116h-289c-24.667 0 -40 -6 -46 -18c-4 -9.33301 -6 -22 -6 -38v-114
l296 -10v-116l-296 -9v-114c0 -25.333 7 -40.666 21 -45.999c10 -4 23.667 -6 41 -6h279v-115c-33.333 -4.66699 -115.666 -9.33398 -246.999 -14.001l-65 -3h-18.5c-7 0 -16.167 0.5 -27.5 1.5s-25 4.5 -41 10.5s-30 14 -42 24c-26.667 24 -40 61 -40 111z" />
    <glyph glyph-name="Edieresis" unicode="&#xcb;" horiz-adv-x="567" 
d="M126 854c0 16 5.83301 29.667 17.5 41s25.667 17 42 17s30.166 -5.66699 41.499 -17s17 -25 17 -41s-5.66699 -29.833 -17 -41.5s-25.166 -17.5 -41.499 -17.5s-30.333 5.83301 -42 17.5s-17.5 25.5 -17.5 41.5zM381 854c0 16 5.83301 29.667 17.5 41s25.667 17 42 17
s30.166 -5.66699 41.499 -17s17 -25 17 -41s-5.66699 -29.833 -17 -41.5s-25.166 -17.5 -41.499 -17.5s-30.333 5.83301 -42 17.5s-17.5 25.5 -17.5 41.5zM58 144l-0.000976562 436c0 60.667 18 102 54 124c30 18.667 62.333 28 97 28c2.66699 0 47.667 -1.16699 135 -3.5
s152.333 -6.5 195 -12.5v-116h-289c-24.667 0 -40 -6 -46 -18c-4 -9.33301 -6 -22 -6 -38v-114l296 -10v-116l-296 -9v-114c0 -25.333 7 -40.666 21 -45.999c10 -4 23.667 -6 41 -6h279v-115c-33.333 -4.66699 -115.666 -9.33398 -246.999 -14.001l-65 -3h-18.5
c-7 0 -16.167 0.5 -27.5 1.5s-25 4.5 -41 10.5s-30 14 -42 24c-26.667 24 -40 61 -40 111z" />
    <glyph glyph-name="Igrave" unicode="&#xcc;" horiz-adv-x="245" 
d="M-37 936h123l90 -139h-91zM61 0v732h140v-732h-140z" />
    <glyph glyph-name="Iacute" unicode="&#xcd;" horiz-adv-x="245" 
d="M85 797l91 139h122l-122 -139h-91zM61 0v732h140v-732h-140z" />
    <glyph glyph-name="Icircumflex" unicode="&#xce;" horiz-adv-x="245" 
d="M-24 797l108 135h104l97 -135h-93l-59 60l-63 -60h-94zM61 0v732h140v-732h-140z" />
    <glyph glyph-name="Idieresis" unicode="&#xcf;" horiz-adv-x="245" 
d="M-56 856c0 16 5.83301 29.667 17.5 41s25.667 17 42 17s30.166 -5.5 41.499 -16.5s17 -24.667 17 -41s-5.66699 -30.333 -17 -42s-25.166 -17.5 -41.499 -17.5s-30.333 5.83301 -42 17.5s-17.5 25.5 -17.5 41.5zM200 856c0 16 5.66699 29.667 17 41s25.166 17 41.499 17
s30.166 -5.5 41.499 -16.5s17 -24.667 17 -41s-5.66699 -30.333 -17 -42s-25.166 -17.5 -41.499 -17.5s-30.166 5.83301 -41.499 17.5s-17 25.5 -17 41.5zM61 0v732h140v-732h-140z" />
    <glyph glyph-name="Eth" unicode="&#xd0;" horiz-adv-x="662" 
d="M-4 340v66.001h65v326h311c152 0 235.667 -97 251 -291c2 -24.667 3 -57.5 3 -98.5s-5 -83.333 -15 -127s-25 -81.834 -45 -114.501c-41.333 -67.333 -106 -101 -194 -101h-311v340h-65zM472.5 236.501c7.66699 34.333 11.499 76.001 11.499 125.001
s-2.83301 89.667 -8.5 122s-14.167 57.166 -25.5 74.499c-20 32 -49.667 48 -89 48h-160v-200h111v-66h-111v-215h160c29.333 0 53.333 10 72 30s31.834 47.167 39.501 81.5z" />
    <glyph glyph-name="Ntilde" unicode="&#xd1;" horiz-adv-x="678" 
d="M406 887c26 0 55.667 12.667 89 38l24 -60c-42 -45.333 -79.333 -68 -112 -68c-14 0 -28 3.16699 -42 9.5l-38.5 17.5c-11.667 5.33301 -20 8 -25 8h-13c-3.66699 0 -8.5 -0.5 -14.5 -1.5s-11 -2 -15 -3s-9.16699 -3 -15.5 -6l-13.5 -6.5
c-2.66699 -1.33301 -7.83398 -4.33301 -15.501 -9s-12.5 -7.66699 -14.5 -9l-25 55c42.667 46.667 83 70 121 70c16.667 -0.666992 35.834 -6.66699 57.501 -18s35.5 -17 41.5 -17h11zM61 0v732h142l290 -473v473h140v-732h-140l-291 468v-468h-141z" />
    <glyph glyph-name="Ograve" unicode="&#xd2;" horiz-adv-x="671" 
d="M177 936h122l91 -139h-91zM54 261c-2.66699 30 -3.99902 66.168 -3.99902 108.501s2.5 82.333 7.5 120s11.833 69.667 20.5 96s20.334 48.833 35.001 67.5s29.5 33.334 44.5 44.001s33.5 19 55.5 25c34.667 10 71.167 15 109.5 15s66.333 -0.666992 84 -2
s36.334 -4.16602 56.001 -8.49902s36.5 -10.5 50.5 -18.5s28.167 -18.167 42.5 -30.5s26.166 -28 35.499 -47s17.666 -40.833 24.999 -65.5c14.667 -49.333 22 -107 22 -173s-2.5 -116.833 -7.5 -152.5s-11.5 -66.334 -19.5 -92.001s-18.833 -47.667 -32.5 -66
s-28 -33 -43 -44s-33.167 -19.5 -54.5 -25.5c-49.333 -14.667 -114.333 -19.334 -195 -14.001c-41.333 2 -71.333 7 -90 15s-34.834 16.5 -48.501 25.5s-25.167 20 -34.5 33s-18.333 28.667 -27 47s-15.5 39.166 -20.5 62.499s-8.83301 50 -11.5 80zM193.001 448.001
c-2 -24.667 -3 -55.667 -3 -93s1.33301 -69.166 4 -95.499s7.16699 -48.833 13.5 -67.5s15.833 -32.667 28.5 -42c22.667 -16.667 58.667 -25 108 -25c46.667 0 81.667 8.66699 105 26c32.667 24.667 49 94.667 49 210c0 78 -4.16699 129.667 -12.5 155s-16 43.333 -23 54
s-16.833 19 -29.5 25c-20.667 8.66699 -45 13 -73 13s-47.5 -0.5 -58.5 -1.5s-22.667 -3.16699 -35 -6.5s-22 -8.5 -29 -15.5s-14 -16.5 -21 -28.5s-12.167 -26.833 -15.5 -44.5s-6 -38.834 -8 -63.501z" />
    <glyph glyph-name="Oacute" unicode="&#xd3;" horiz-adv-x="671" 
d="M299 797l90 139h123l-122 -139h-91zM54 261c-2.66699 30 -3.99902 66.168 -3.99902 108.501s2.5 82.333 7.5 120s11.833 69.667 20.5 96s20.334 48.833 35.001 67.5s29.5 33.334 44.5 44.001s33.5 19 55.5 25c34.667 10 71.167 15 109.5 15s66.333 -0.666992 84 -2
s36.334 -4.16602 56.001 -8.49902s36.5 -10.5 50.5 -18.5s28.167 -18.167 42.5 -30.5s26.166 -28 35.499 -47s17.666 -40.833 24.999 -65.5c14.667 -49.333 22 -107 22 -173s-2.5 -116.833 -7.5 -152.5s-11.5 -66.334 -19.5 -92.001s-18.833 -47.667 -32.5 -66
s-28 -33 -43 -44s-33.167 -19.5 -54.5 -25.5c-49.333 -14.667 -114.333 -19.334 -195 -14.001c-41.333 2 -71.333 7 -90 15s-34.834 16.5 -48.501 25.5s-25.167 20 -34.5 33s-18.333 28.667 -27 47s-15.5 39.166 -20.5 62.499s-8.83301 50 -11.5 80zM193.001 448.001
c-2 -24.667 -3 -55.667 -3 -93s1.33301 -69.166 4 -95.499s7.16699 -48.833 13.5 -67.5s15.833 -32.667 28.5 -42c22.667 -16.667 58.667 -25 108 -25c46.667 0 81.667 8.66699 105 26c32.667 24.667 49 94.667 49 210c0 78 -4.16699 129.667 -12.5 155s-16 43.333 -23 54
s-16.833 19 -29.5 25c-20.667 8.66699 -45 13 -73 13s-47.5 -0.5 -58.5 -1.5s-22.667 -3.16699 -35 -6.5s-22 -8.5 -29 -15.5s-14 -16.5 -21 -28.5s-12.167 -26.833 -15.5 -44.5s-6 -38.834 -8 -63.501z" />
    <glyph glyph-name="Ocircumflex" unicode="&#xd4;" horiz-adv-x="671" 
d="M190 797l107 135h104l97 -135h-93l-59 60l-62 -60h-94zM54 261c-2.66699 30 -3.99902 66.168 -3.99902 108.501s2.5 82.333 7.5 120s11.833 69.667 20.5 96s20.334 48.833 35.001 67.5s29.5 33.334 44.5 44.001s33.5 19 55.5 25c34.667 10 71.167 15 109.5 15
s66.333 -0.666992 84 -2s36.334 -4.16602 56.001 -8.49902s36.5 -10.5 50.5 -18.5s28.167 -18.167 42.5 -30.5s26.166 -28 35.499 -47s17.666 -40.833 24.999 -65.5c14.667 -49.333 22 -107 22 -173s-2.5 -116.833 -7.5 -152.5s-11.5 -66.334 -19.5 -92.001
s-18.833 -47.667 -32.5 -66s-28 -33 -43 -44s-33.167 -19.5 -54.5 -25.5c-49.333 -14.667 -114.333 -19.334 -195 -14.001c-41.333 2 -71.333 7 -90 15s-34.834 16.5 -48.501 25.5s-25.167 20 -34.5 33s-18.333 28.667 -27 47s-15.5 39.166 -20.5 62.499
s-8.83301 50 -11.5 80zM193.001 448.001c-2 -24.667 -3 -55.667 -3 -93s1.33301 -69.166 4 -95.499s7.16699 -48.833 13.5 -67.5s15.833 -32.667 28.5 -42c22.667 -16.667 58.667 -25 108 -25c46.667 0 81.667 8.66699 105 26c32.667 24.667 49 94.667 49 210
c0 78 -4.16699 129.667 -12.5 155s-16 43.333 -23 54s-16.833 19 -29.5 25c-20.667 8.66699 -45 13 -73 13s-47.5 -0.5 -58.5 -1.5s-22.667 -3.16699 -35 -6.5s-22 -8.5 -29 -15.5s-14 -16.5 -21 -28.5s-12.167 -26.833 -15.5 -44.5s-6 -38.834 -8 -63.501z" />
    <glyph glyph-name="Otilde" unicode="&#xd5;" horiz-adv-x="671" 
d="M403 887c26 0 55.666 12.667 88.999 38l24 -60c-41.333 -45.333 -78.666 -68 -111.999 -68c-17.333 0 -37.5 5.83301 -60.5 17.5s-39.167 17.5 -48.5 17.5s-17.166 -0.5 -23.499 -1.5s-11.5 -2 -15.5 -3s-9.16699 -3 -15.5 -6l-13.5 -6.5
c-2.66699 -1.33301 -7.83398 -4.33301 -15.501 -9s-12.5 -7.66699 -14.5 -9l-25 55c42.667 46.667 83 70 121 70c16.667 -0.666992 36 -6.66699 58 -18s35.833 -17 41.5 -17h10.5zM53.999 261c-2.66699 30 -3.99902 66.168 -3.99902 108.501s2.5 82.333 7.5 120
s11.833 69.667 20.5 96s20.334 48.833 35.001 67.5s29.5 33.334 44.5 44.001s33.5 19 55.5 25c34.667 10 71.167 15 109.5 15s66.333 -0.666992 84 -2s36.334 -4.16602 56.001 -8.49902s36.5 -10.5 50.5 -18.5s28.167 -18.167 42.5 -30.5s26.166 -28 35.499 -47
s17.666 -40.833 24.999 -65.5c14.667 -49.333 22 -107 22 -173s-2.5 -116.833 -7.5 -152.5s-11.5 -66.334 -19.5 -92.001s-18.833 -47.667 -32.5 -66s-28 -33 -43 -44s-33.167 -19.5 -54.5 -25.5c-49.333 -14.667 -114.333 -19.334 -195 -14.001c-41.333 2 -71.333 7 -90 15
s-34.834 16.5 -48.501 25.5s-25.167 20 -34.5 33s-18.333 28.667 -27 47s-15.5 39.166 -20.5 62.499s-8.83301 50 -11.5 80zM193 448.001c-2 -24.667 -3 -55.667 -3 -93s1.33301 -69.166 4 -95.499s7.16699 -48.833 13.5 -67.5s15.833 -32.667 28.5 -42
c22.667 -16.667 58.667 -25 108 -25c46.667 0 81.667 8.66699 105 26c32.667 24.667 49 94.667 49 210c0 78 -4.16699 129.667 -12.5 155s-16 43.333 -23 54s-16.833 19 -29.5 25c-20.667 8.66699 -45 13 -73 13s-47.5 -0.5 -58.5 -1.5s-22.667 -3.16699 -35 -6.5
s-22 -8.5 -29 -15.5s-14 -16.5 -21 -28.5s-12.167 -26.833 -15.5 -44.5s-6 -38.834 -8 -63.501z" />
    <glyph glyph-name="Odieresis" unicode="&#xd6;" horiz-adv-x="671" 
d="M158 856c0 10.667 2.66797 20.667 8.00098 30c11.333 19.333 26.666 28.833 45.999 28.5s34.666 -6 45.999 -17s17 -24.667 17 -41s-5.66699 -30.333 -17 -42s-23.666 -17.5 -36.999 -17.5s-24.5 2.66699 -33.5 8s-16.167 12.5 -21.5 21.5s-8 18.833 -8 29.5z
M430.501 814.5c-11.667 11.667 -17.498 24.168 -17.498 37.501s2.66699 24.666 8 33.999c11.333 18.667 26.666 28 45.999 28s34.666 -5.5 45.999 -16.5s17 -24.667 17 -41s-5.66699 -30.333 -17 -42s-25 -17.5 -41 -17.5s-29.833 5.83301 -41.5 17.5zM54.0029 261.001
c-2.66699 30 -3.99902 66.168 -3.99902 108.501s2.5 82.333 7.5 120s11.833 69.667 20.5 96s20.334 48.833 35.001 67.5s29.5 33.334 44.5 44.001s33.5 19 55.5 25c34.667 10 71.167 15 109.5 15s66.333 -0.666992 84 -2s36.334 -4.16602 56.001 -8.49902
s36.5 -10.5 50.5 -18.5s28.167 -18.167 42.5 -30.5s26.166 -28 35.499 -47s17.666 -40.833 24.999 -65.5c14.667 -49.333 22 -107 22 -173s-2.5 -116.833 -7.5 -152.5s-11.5 -66.334 -19.5 -92.001s-18.833 -47.667 -32.5 -66s-28 -33 -43 -44s-33.167 -19.5 -54.5 -25.5
c-49.333 -14.667 -114.333 -19.334 -195 -14.001c-41.333 2 -71.333 7 -90 15s-34.834 16.5 -48.501 25.5s-25.167 20 -34.5 33s-18.333 28.667 -27 47s-15.5 39.166 -20.5 62.499s-8.83301 50 -11.5 80zM193.004 448.002c-2 -24.667 -3 -55.667 -3 -93
s1.33301 -69.166 4 -95.499s7.16699 -48.833 13.5 -67.5s15.833 -32.667 28.5 -42c22.667 -16.667 58.667 -25 108 -25c46.667 0 81.667 8.66699 105 26c32.667 24.667 49 94.667 49 210c0 78 -4.16699 129.667 -12.5 155s-16 43.333 -23 54s-16.833 19 -29.5 25
c-20.667 8.66699 -45 13 -73 13s-47.5 -0.5 -58.5 -1.5s-22.667 -3.16699 -35 -6.5s-22 -8.5 -29 -15.5s-14 -16.5 -21 -28.5s-12.167 -26.833 -15.5 -44.5s-6 -38.834 -8 -63.501z" />
    <glyph glyph-name="multiply" unicode="&#xd7;" horiz-adv-x="461" 
d="M43 250l105 105l-105 106l83 83l105 -105l106 106l84 -83l-106 -107l105 -105l-83 -83l-106 105l-104 -105z" />
    <glyph glyph-name="Oslash" unicode="&#xd8;" horiz-adv-x="679" 
d="M117 653c14.667 18.667 29.501 33.333 44.501 44s33.167 19 54.5 25c35.333 10 79.666 15 132.999 15c83.333 0 144 -12 182 -36l22 31h75l-51 -73c44 -58 66 -157.333 66 -298c0 -133.333 -20 -226.333 -60 -279c-26 -35.333 -58.667 -58.666 -98 -69.999
c-36 -10.667 -79 -16 -129 -16s-90.5 2.83301 -121.5 8.5s-58.167 16.5 -81.5 32.5l-26 -37h-74l57 83c-36.667 55.333 -55 150.666 -55 285.999s20.667 230 62 284zM198.001 447.999c-2 -24.667 -3 -60.998 -3 -108.998s4.66699 -86 14 -114l243 362
c-18 14 -52.333 21 -103 21c-55.333 0 -91 -8 -107 -24c-18.667 -18.667 -30.167 -39.834 -34.5 -63.501s-7.5 -47.834 -9.5 -72.501zM349.001 125.001c30.667 0 55.166 3.00098 73.499 9.00098s33.833 17.833 46.5 35.5s21.5 41.5 26.5 71.5s7.5 76.667 7.5 140
s-6.33301 111.666 -19 144.999l-248 -370c20.667 -20.667 58.334 -31 113.001 -31z" />
    <glyph glyph-name="Ugrave" unicode="&#xd9;" horiz-adv-x="664" 
d="M173 936h122l91 -139h-91zM343 -5l-14 0.000976562c-80 0 -133.333 8.33301 -160 25c-12 8 -26 19.833 -42 35.5s-28 34.834 -36 57.501c-20 56 -30 125 -30 207v412h140v-412c0 -64 6.33301 -111 19 -141c11.333 -26.667 33.666 -43.667 66.999 -51
c14.667 -2.66699 35.834 -4 63.501 -4s50.834 5 69.501 15c39.333 21.333 59 81.666 59 180.999v412h141v-412c0 -104.667 -15.333 -180.667 -46 -228c-10 -16.667 -19.833 -30.167 -29.5 -40.5s-22 -19.333 -37 -27s-27.833 -13.334 -38.5 -17.001s-25 -6.5 -43 -8.5
c-22.667 -2.66699 -50.334 -4 -83.001 -4z" />
    <glyph glyph-name="Uacute" unicode="&#xda;" horiz-adv-x="664" 
d="M295 797l90 139h123l-122 -139h-91zM343 -5l-14 0.000976562c-80 0 -133.333 8.33301 -160 25c-12 8 -26 19.833 -42 35.5s-28 34.834 -36 57.501c-20 56 -30 125 -30 207v412h140v-412c0 -64 6.33301 -111 19 -141c11.333 -26.667 33.666 -43.667 66.999 -51
c14.667 -2.66699 35.834 -4 63.501 -4s50.834 5 69.501 15c39.333 21.333 59 81.666 59 180.999v412h141v-412c0 -104.667 -15.333 -180.667 -46 -228c-10 -16.667 -19.833 -30.167 -29.5 -40.5s-22 -19.333 -37 -27s-27.833 -13.334 -38.5 -17.001s-25 -6.5 -43 -8.5
c-22.667 -2.66699 -50.334 -4 -83.001 -4z" />
    <glyph glyph-name="Ucircumflex" unicode="&#xdb;" horiz-adv-x="664" 
d="M186 797l108 135h104l96 -135h-92l-59 60l-63 -60h-94zM343 -5l-14 0.000976562c-80 0 -133.333 8.33301 -160 25c-12 8 -26 19.833 -42 35.5s-28 34.834 -36 57.501c-20 56 -30 125 -30 207v412h140v-412c0 -64 6.33301 -111 19 -141
c11.333 -26.667 33.666 -43.667 66.999 -51c14.667 -2.66699 35.834 -4 63.501 -4s50.834 5 69.501 15c39.333 21.333 59 81.666 59 180.999v412h141v-412c0 -104.667 -15.333 -180.667 -46 -228c-10 -16.667 -19.833 -30.167 -29.5 -40.5s-22 -19.333 -37 -27
s-27.833 -13.334 -38.5 -17.001s-25 -6.5 -43 -8.5c-22.667 -2.66699 -50.334 -4 -83.001 -4z" />
    <glyph glyph-name="Udieresis" unicode="&#xdc;" horiz-adv-x="664" 
d="M171.5 814.5c-11.667 11.667 -17.5 24.168 -17.5 37.501s2.66699 24.666 8 33.999c11.333 18.667 26.833 28 46.5 28s35.167 -5.5 46.5 -16.5s17 -24.667 17 -41s-5.83301 -30.333 -17.5 -42s-25.5 -17.5 -41.5 -17.5s-29.833 5.83301 -41.5 17.5zM409 856.001
c0 16 5.83301 29.667 17.5 41s25.667 17 42 17s30 -5.5 41 -16.5s16.5 -24.667 16.5 -41s-5.66699 -30.333 -17 -42s-25 -17.5 -41 -17.5s-29.833 5.83301 -41.5 17.5s-17.5 25.5 -17.5 41.5zM343 -4.99902l-14 0.000976562c-80 0 -133.333 8.33301 -160 25
c-12 8 -26 19.833 -42 35.5s-28 34.834 -36 57.501c-20 56 -30 125 -30 207v412h140v-412c0 -64 6.33301 -111 19 -141c11.333 -26.667 33.666 -43.667 66.999 -51c14.667 -2.66699 35.834 -4 63.501 -4s50.834 5 69.501 15c39.333 21.333 59 81.666 59 180.999v412h141
v-412c0 -104.667 -15.333 -180.667 -46 -228c-10 -16.667 -19.833 -30.167 -29.5 -40.5s-22 -19.333 -37 -27s-27.833 -13.334 -38.5 -17.001s-25 -6.5 -43 -8.5c-22.667 -2.66699 -50.334 -4 -83.001 -4z" />
    <glyph glyph-name="Yacute" unicode="&#xdd;" horiz-adv-x="656" 
d="M290 797l91 139h123l-122 -139h-92zM397 0h-140v227l-223 505h152l143 -351l157 351h152l-241 -505v-227z" />
    <glyph glyph-name="Thorn" unicode="&#xde;" horiz-adv-x="546" 
d="M284 148c-18 0 -50.667 6.66699 -98 20v-168h-140v729h140v-141h147c117.333 -0.666992 176 -71.667 176 -213c0 -106.667 -27.333 -174.667 -82 -204c-26 -14 -51.833 -21.333 -77.5 -22s-47.5 -1 -65.5 -1zM289 273
c0.666992 -0.666992 4.50098 -0.999023 11.501 -0.999023s14.833 1.16699 23.5 3.5s16.667 6.83301 24 13.5c13.333 13.333 20 41.666 20 84.999c-0.666992 46 -12.334 73.667 -35.001 83c-11.333 4.66699 -26 7 -44 7h-103v-192z" />
    <glyph glyph-name="germandbls" unicode="&#xdf;" horiz-adv-x="572" 
d="M285 781c111.333 0 186.666 -32.6719 225.999 -98.0049c11.333 -19.333 17.666 -36.166 18.999 -50.499s2 -26.833 2 -37.5s-1.66699 -24.667 -5 -42c-6.66699 -40 -25.667 -77 -57 -111c-6.66699 -7.33301 -15.667 -16.166 -27 -26.499s-19.333 -18.166 -24 -23.499
c-14 -14 -21 -27.167 -21 -39.5s5.5 -22.5 16.5 -30.5s24.333 -15.5 40 -22.5s31.334 -15.167 47.001 -24.5s29 -22.666 40 -39.999s16.5 -37.666 16.5 -60.999v-31c0 -58 -18.333 -98.333 -55 -121c-32 -20 -69.5 -30 -112.5 -30s-93.167 6.33301 -150.5 19v99
c60 -3.33301 98.333 -5 115 -5s31.167 4.66699 43.5 14s18.833 23.333 19.5 42v24c0 20.667 -18.333 38.334 -55 53.001c-14.667 6 -29.667 12.833 -45 20.5s-28.166 19.167 -38.499 34.5s-15.5 36.166 -15.5 62.499s6.16699 48.666 18.5 66.999s35.5 41.5 69.5 69.5
c27.333 24 41 52 41 84c0 52 -34 78 -102 78c-24 0 -43.667 -4.66699 -59 -14c-30.667 -17.333 -46 -58.666 -46 -123.999v-516h-140v566c0 61.333 20.833 112.5 62.5 153.5s100.5 61.5 176.5 61.5z" />
    <glyph glyph-name="agrave" unicode="&#xe0;" horiz-adv-x="519" 
d="M100 740h122l91 -139h-91zM48 506c60.667 23.333 141.665 35.0029 242.998 35.0029c61.333 0 108.5 -12.833 141.5 -38.5s49.5 -69.834 49.5 -132.501v-370h-111l-29 58c-2.66699 -4.66699 -11.167 -11.834 -25.5 -21.501s-34.166 -19.167 -59.499 -28.5
s-49.666 -14 -72.999 -14c-49.333 0 -87.333 14.167 -114 42.5s-40 61.166 -40 98.499v50c0 42.667 12.667 77.667 38 105s64.333 41 117 41h118h39v25.5v8.5c0 26.667 -5.66699 44.167 -17 52.5s-34 12.5 -68 12.5s-103.667 -3.66699 -209 -11v87zM169.998 155.003
c0 -20 4.33301 -33.167 13 -39.5s21.334 -9.5 38.001 -9.5s35.167 3.5 55.5 10.5s36.166 13.833 47.499 20.5l18 11v97l-129 -10c-28.667 -2.66699 -43 -20.667 -43 -54v-26z" />
    <glyph glyph-name="aacute" unicode="&#xe1;" horiz-adv-x="519" 
d="M220 601l90 139h123l-122 -139h-91zM48 506c60.667 23.333 141.665 35.0029 242.998 35.0029c61.333 0 108.5 -12.833 141.5 -38.5s49.5 -69.834 49.5 -132.501v-370h-111l-29 58c-2.66699 -4.66699 -11.167 -11.834 -25.5 -21.501s-34.166 -19.167 -59.499 -28.5
s-49.666 -14 -72.999 -14c-49.333 0 -87.333 14.167 -114 42.5s-40 61.166 -40 98.499v50c0 42.667 12.667 77.667 38 105s64.333 41 117 41h118h39v25.5v8.5c0 26.667 -5.66699 44.167 -17 52.5s-34 12.5 -68 12.5s-103.667 -3.66699 -209 -11v87zM169.998 155.003
c0 -20 4.33301 -33.167 13 -39.5s21.334 -9.5 38.001 -9.5s35.167 3.5 55.5 10.5s36.166 13.833 47.499 20.5l18 11v97l-129 -10c-28.667 -2.66699 -43 -20.667 -43 -54v-26z" />
    <glyph glyph-name="acircumflex" unicode="&#xe2;" horiz-adv-x="519" 
d="M112 601l107 135h104l97 -135h-93l-59 60l-62 -60h-94zM48 506c60.667 23.333 141.665 35.0029 242.998 35.0029c61.333 0 108.5 -12.833 141.5 -38.5s49.5 -69.834 49.5 -132.501v-370h-111l-29 58c-2.66699 -4.66699 -11.167 -11.834 -25.5 -21.501
s-34.166 -19.167 -59.499 -28.5s-49.666 -14 -72.999 -14c-49.333 0 -87.333 14.167 -114 42.5s-40 61.166 -40 98.499v50c0 42.667 12.667 77.667 38 105s64.333 41 117 41h118h39v25.5v8.5c0 26.667 -5.66699 44.167 -17 52.5s-34 12.5 -68 12.5
s-103.667 -3.66699 -209 -11v87zM169.998 155.003c0 -20 4.33301 -33.167 13 -39.5s21.334 -9.5 38.001 -9.5s35.167 3.5 55.5 10.5s36.166 13.833 47.499 20.5l18 11v97l-129 -10c-28.667 -2.66699 -43 -20.667 -43 -54v-26z" />
    <glyph glyph-name="atilde" unicode="&#xe3;" horiz-adv-x="519" 
d="M323 691c25.333 0 54.666 12.667 87.999 38l24 -60c-41.333 -45.333 -78.666 -68 -111.999 -68c-16.667 0 -36.667 5.83301 -60 17.5s-39.5 17.5 -48.5 17.5s-16.833 -0.5 -23.5 -1.5s-12 -2 -16 -3s-9.16699 -3 -15.5 -6s-10.666 -5.16699 -12.999 -6.5l-15 -9
c-7.66699 -4.66699 -12.834 -7.66699 -15.501 -9l-24 55c42 46.667 82 70 120 70c16.667 -0.666992 36 -6.66699 58 -18s36 -17 42 -17h11zM48 506c60.667 23.333 141.665 35.0029 242.998 35.0029c61.333 0 108.5 -12.833 141.5 -38.5s49.5 -69.834 49.5 -132.501v-370
h-111l-29 58c-2.66699 -4.66699 -11.167 -11.834 -25.5 -21.501s-34.166 -19.167 -59.499 -28.5s-49.666 -14 -72.999 -14c-49.333 0 -87.333 14.167 -114 42.5s-40 61.166 -40 98.499v50c0 42.667 12.667 77.667 38 105s64.333 41 117 41h118h39v25.5v8.5
c0 26.667 -5.66699 44.167 -17 52.5s-34 12.5 -68 12.5s-103.667 -3.66699 -209 -11v87zM169.998 155.003c0 -20 4.33301 -33.167 13 -39.5s21.334 -9.5 38.001 -9.5s35.167 3.5 55.5 10.5s36.166 13.833 47.499 20.5l18 11v97l-129 -10
c-28.667 -2.66699 -43 -20.667 -43 -54v-26z" />
    <glyph glyph-name="adieresis" unicode="&#xe4;" horiz-adv-x="519" 
d="M79 660c0 16 5.83301 29.832 17.5 41.499s25.5 17.5 41.5 17.5s29.667 -5.66699 41 -17s17 -25.166 17 -41.499s-5.66699 -30.333 -17 -42s-25 -17.5 -41 -17.5s-29.833 5.83301 -41.5 17.5s-17.5 25.5 -17.5 41.5zM334 659.999c0 16 5.83301 29.832 17.5 41.499
s23.5 17.5 35.5 17.5s21.667 -1.66699 29 -5s13.333 -7.33301 18 -12c11.333 -11.333 17 -25.166 17 -41.499s-5.66699 -30.333 -17 -42s-25 -17.5 -41 -17.5s-29.833 5.83301 -41.5 17.5s-17.5 25.5 -17.5 41.5zM48 505.998c60.667 23.333 141.665 35.0029 242.998 35.0029
c61.333 0 108.5 -12.833 141.5 -38.5s49.5 -69.834 49.5 -132.501v-370h-111l-29 58c-2.66699 -4.66699 -11.167 -11.834 -25.5 -21.501s-34.166 -19.167 -59.499 -28.5s-49.666 -14 -72.999 -14c-49.333 0 -87.333 14.167 -114 42.5s-40 61.166 -40 98.499v50
c0 42.667 12.667 77.667 38 105s64.333 41 117 41h118h39v25.5v8.5c0 26.667 -5.66699 44.167 -17 52.5s-34 12.5 -68 12.5s-103.667 -3.66699 -209 -11v87zM169.998 155.001c0 -20 4.33301 -33.167 13 -39.5s21.334 -9.5 38.001 -9.5s35.167 3.5 55.5 10.5
s36.166 13.833 47.499 20.5l18 11v97l-129 -10c-28.667 -2.66699 -43 -20.667 -43 -54v-26z" />
    <glyph glyph-name="aring" unicode="&#xe5;" horiz-adv-x="519" 
d="M173 650c-5.33301 12.667 -8.00293 27.167 -8.00293 43.5s4.66699 32.333 14 48s21.833 28 37.5 37s32.667 13.5 51 13.5s35.166 -4.5 50.499 -13.5s27.5 -21.333 36.5 -37s13.5 -33 13.5 -52s-4.5 -36.167 -13.5 -51.5s-21.167 -27.5 -36.5 -36.5
s-31.166 -13.5 -47.499 -13.5s-30.666 2.5 -42.999 7.5s-23.166 12.167 -32.499 21.5s-16.666 20.333 -21.999 33zM236.497 720c-8.33301 -8.66699 -12.5 -17.1689 -12.5 -25.502s0.666992 -14.666 2 -18.999s3.33301 -8.16602 6 -11.499s5.66699 -6.33301 9 -9
c8 -5.33301 17.333 -8 28 -8s20.167 4.16699 28.5 12.5s12.5 18.5 12.5 30.5s-4.16699 22.167 -12.5 30.5s-18.5 12.5 -30.5 12.5s-22.167 -4.33301 -30.5 -13zM47.9971 505.998c60.667 23.333 141.665 35.0029 242.998 35.0029c61.333 0 108.5 -12.833 141.5 -38.5
s49.5 -69.834 49.5 -132.501v-370h-111l-29 58c-2.66699 -4.66699 -11.167 -11.834 -25.5 -21.501s-34.166 -19.167 -59.499 -28.5s-49.666 -14 -72.999 -14c-49.333 0 -87.333 14.167 -114 42.5s-40 61.166 -40 98.499v50c0 42.667 12.667 77.667 38 105s64.333 41 117 41
h118h39v25.5v8.5c0 26.667 -5.66699 44.167 -17 52.5s-34 12.5 -68 12.5s-103.667 -3.66699 -209 -11v87zM169.995 155.001c0 -20 4.33301 -33.167 13 -39.5s21.334 -9.5 38.001 -9.5s35.167 3.5 55.5 10.5s36.166 13.833 47.499 20.5l18 11v97l-129 -10
c-28.667 -2.66699 -43 -20.667 -43 -54v-26z" />
    <glyph glyph-name="ae" unicode="&#xe6;" horiz-adv-x="842" 
d="M30 138l0.00195312 35.002c0 40.667 11.667 74.667 35 102c25.333 29.333 64.833 43.833 118.5 43.5s93.5 -0.5 119.5 -0.5s39 0.333008 39 1v36v13c0 26 -5.66699 43.333 -17 52s-31.833 13 -61.5 13s-101.5 -4 -215.5 -12v87c56 23.333 136.667 35.333 242 36
c65.333 -0.666992 111.666 -15 138.999 -43c19.333 14.667 41.166 24.5 65.499 29.5s54.333 7.5 90 7.5s64.334 -1.16699 86.001 -3.5s42.334 -7.16602 62.001 -14.499s34.834 -18 45.501 -32c23.333 -29.333 35 -75 35 -137c0 -46 -12.333 -78.833 -37 -98.5
s-62 -29.5 -112 -29.5h-168c0 -45.333 8.5 -75.5 25.5 -90.5s45.833 -22.5 86.5 -22.5c82 0 147 3.33301 195 10v-94c-23.333 -8.66699 -53 -15.334 -89 -20.001c-46 -5.33301 -107 -8 -183 -8c-36.667 0 -65.834 5.66699 -87.501 17s-40.834 28.666 -57.501 51.999
c-6 -12.667 -32.5 -27.5 -79.5 -44.5s-88.167 -25.5 -123.5 -25.5c-48.667 0 -86.334 14.167 -113.001 42.5s-40 61.166 -40 98.499zM170.002 155.002c0 -21.333 5.33398 -34.667 16.001 -40c8 -4 20 -6 36 -6s34.167 3.5 54.5 10.5s36.166 13.833 47.499 20.5l18 10v85
l-129 -10c-28.667 -2.66699 -43 -20.667 -43 -54v-16zM595.003 431.001l-4.99805 -0.000976562c-30.667 0 -48.334 -1.16699 -53.001 -3.5l-14.5 -7c-5 -2.33301 -8.5 -5.33301 -10.5 -9s-4.33301 -8.5 -7 -14.5c-6 -11.333 -9 -35.666 -9 -72.999v-6h132
c30 0 45 13.333 45 40c0 32.667 -4.33301 53 -13 61s-30.334 12 -65.001 12z" />
    <glyph glyph-name="ccedilla" unicode="&#xe7;" horiz-adv-x="494" 
d="M38 266c0 53.333 4.16797 98.1689 12.501 134.502s20.666 64.166 36.999 83.499s34.5 33 54.5 41s43.667 12 71 12c96 0 177.333 -11 244 -33v-86c-63.333 4 -113.666 6 -150.999 6s-60 -0.5 -68 -1.5s-16.667 -4.16699 -26 -9.5s-16 -14 -20 -26
c-9.33301 -26.667 -14 -65.334 -14 -116.001s3.16699 -87.167 9.5 -109.5s15.666 -37 27.999 -44s31.833 -10.5 58.5 -10.5c54 0 108.333 2.33301 163 7l27 2v-88c-30.667 -16 -60.667 -25.333 -90 -28c-43.333 -4 -81 -6 -113 -6h-6h-42c-52.667 0 -94 17.667 -124 53
c-34 40 -51 113 -51 219zM232.001 -37.9971h94.001c0 -52 -8 -88.5 -24 -109.5s-45.333 -31.5 -88 -31.5h-56v60l44 15c13.333 5.33301 21.666 12.5 24.999 21.5s5 23.833 5 44.5z" />
    <glyph glyph-name="egrave" unicode="&#xe8;" horiz-adv-x="525" 
d="M106 734h123l90 -138h-91zM181 529c23.333 4 49.998 6.00195 79.998 6.00195s53.333 -0.5 70 -1.5s33.5 -3 50.5 -6s30.833 -7.33301 41.5 -13s21 -13.334 31 -23.001s17.667 -21.167 23 -34.5c12 -30 18 -64.5 18 -103.5s-5.66699 -68.5 -17 -88.5
c-22 -38 -65.667 -57 -131 -57h-169c0 -23.333 2 -42 6 -56s11.333 -24.167 22 -30.5s21.834 -10.333 33.501 -12s43.5 -2.5 95.5 -2.5s102 3.66699 150 11v-95c-30 -11.333 -60.167 -18.333 -90.5 -21s-51.166 -4.33398 -62.499 -5.00098s-25.333 -1 -42 -1
c-22 -0.666992 -47.667 -1 -77 -1c-66 0 -111.667 20.667 -137 62s-38 108.5 -38 201.5s10.167 159 30.5 198s57.833 63.167 112.5 72.5zM310.998 309.002c29.333 0 44 13.334 44 40.001c0 33.333 -4.5 54.833 -13.5 64.5s-27.167 14.5 -54.5 14.5
s-46.166 -0.833008 -56.499 -2.5s-20.333 -6.33398 -30 -14.001s-15.834 -19.167 -18.501 -34.5s-4 -29.833 -4 -43.5v-24.5h133z" />
    <glyph glyph-name="eacute" unicode="&#xe9;" horiz-adv-x="525" 
d="M224 596l90 138h123l-122 -138h-91zM181 529c23.333 4 49.998 6.00195 79.998 6.00195s53.333 -0.5 70 -1.5s33.5 -3 50.5 -6s30.833 -7.33301 41.5 -13s21 -13.334 31 -23.001s17.667 -21.167 23 -34.5c12 -30 18 -64.5 18 -103.5s-5.66699 -68.5 -17 -88.5
c-22 -38 -65.667 -57 -131 -57h-169c0 -23.333 2 -42 6 -56s11.333 -24.167 22 -30.5s21.834 -10.333 33.501 -12s43.5 -2.5 95.5 -2.5s102 3.66699 150 11v-95c-30 -11.333 -60.167 -18.333 -90.5 -21s-51.166 -4.33398 -62.499 -5.00098s-25.333 -1 -42 -1
c-22 -0.666992 -47.667 -1 -77 -1c-66 0 -111.667 20.667 -137 62s-38 108.5 -38 201.5s10.167 159 30.5 198s57.833 63.167 112.5 72.5zM310.998 309.002c29.333 0 44 13.334 44 40.001c0 33.333 -4.5 54.833 -13.5 64.5s-27.167 14.5 -54.5 14.5
s-46.166 -0.833008 -56.499 -2.5s-20.333 -6.33398 -30 -14.001s-15.834 -19.167 -18.501 -34.5s-4 -29.833 -4 -43.5v-24.5h133z" />
    <glyph glyph-name="ecircumflex" unicode="&#xea;" horiz-adv-x="525" 
d="M112 596l108 136h104l97 -136h-93l-59 60l-63 -60h-94zM181 529c23.333 4 49.998 6.00195 79.998 6.00195s53.333 -0.5 70 -1.5s33.5 -3 50.5 -6s30.833 -7.33301 41.5 -13s21 -13.334 31 -23.001s17.667 -21.167 23 -34.5c12 -30 18 -64.5 18 -103.5
s-5.66699 -68.5 -17 -88.5c-22 -38 -65.667 -57 -131 -57h-169c0 -23.333 2 -42 6 -56s11.333 -24.167 22 -30.5s21.834 -10.333 33.501 -12s43.5 -2.5 95.5 -2.5s102 3.66699 150 11v-95c-30 -11.333 -60.167 -18.333 -90.5 -21s-51.166 -4.33398 -62.499 -5.00098
s-25.333 -1 -42 -1c-22 -0.666992 -47.667 -1 -77 -1c-66 0 -111.667 20.667 -137 62s-38 108.5 -38 201.5s10.167 159 30.5 198s57.833 63.167 112.5 72.5zM310.998 309.002c29.333 0 44 13.334 44 40.001c0 33.333 -4.5 54.833 -13.5 64.5s-27.167 14.5 -54.5 14.5
s-46.166 -0.833008 -56.499 -2.5s-20.333 -6.33398 -30 -14.001s-15.834 -19.167 -18.501 -34.5s-4 -29.833 -4 -43.5v-24.5h133z" />
    <glyph glyph-name="edieresis" unicode="&#xeb;" horiz-adv-x="525" 
d="M79 655c0 16 5.83301 29.832 17.5 41.499s25.5 17.5 41.5 17.5s29.667 -5.66699 41 -17s17 -25.166 17 -41.499s-5.66699 -30.333 -17 -42s-25 -17.5 -41 -17.5s-29.833 5.83301 -41.5 17.5s-17.5 25.5 -17.5 41.5zM334 654.999c0 16 5.83301 29.832 17.5 41.499
s23.5 17.5 35.5 17.5s21.5 -1.66699 28.5 -5s13.167 -7.33301 18.5 -12c11.333 -11.333 17 -25.166 17 -41.499s-5.66699 -30.333 -17 -42s-25 -17.5 -41 -17.5s-29.833 5.83301 -41.5 17.5s-17.5 25.5 -17.5 41.5zM181 528.998c23.333 4 49.998 6.00195 79.998 6.00195
s53.333 -0.5 70 -1.5s33.5 -3 50.5 -6s30.833 -7.33301 41.5 -13s21 -13.334 31 -23.001s17.667 -21.167 23 -34.5c12 -30 18 -64.5 18 -103.5s-5.66699 -68.5 -17 -88.5c-22 -38 -65.667 -57 -131 -57h-169c0 -23.333 2 -42 6 -56s11.333 -24.167 22 -30.5
s21.834 -10.333 33.501 -12s43.5 -2.5 95.5 -2.5s102 3.66699 150 11v-95c-30 -11.333 -60.167 -18.333 -90.5 -21s-51.166 -4.33398 -62.499 -5.00098s-25.333 -1 -42 -1c-22 -0.666992 -47.667 -1 -77 -1c-66 0 -111.667 20.667 -137 62s-38 108.5 -38 201.5
s10.167 159 30.5 198s57.833 63.167 112.5 72.5zM310.998 309c29.333 0 44 13.334 44 40.001c0 33.333 -4.5 54.833 -13.5 64.5s-27.167 14.5 -54.5 14.5s-46.166 -0.833008 -56.499 -2.5s-20.333 -6.33398 -30 -14.001s-15.834 -19.167 -18.501 -34.5s-4 -29.833 -4 -43.5
v-24.5h133z" />
    <glyph glyph-name="igrave" unicode="&#xec;" horiz-adv-x="230" 
d="M-52 734h123l90 -138h-91zM46 0v531h140v-531h-140z" />
    <glyph glyph-name="iacute" unicode="&#xed;" horiz-adv-x="230" 
d="M70 596l91 138h122l-122 -138h-91zM46 0v531h140v-531h-140z" />
    <glyph glyph-name="icircumflex" unicode="&#xee;" horiz-adv-x="230" 
d="M-39 596l108 136h104l97 -136h-93l-59 60l-63 -60h-94zM46 0v531h140v-531h-140z" />
    <glyph glyph-name="idieresis" unicode="&#xef;" horiz-adv-x="230" 
d="M-71 655c0 16 5.83301 29.832 17.5 41.499s25.667 17.5 42 17.5s30.166 -5.66699 41.499 -17s17 -25.166 17 -41.499s-5.66699 -30.333 -17 -42s-25.166 -17.5 -41.499 -17.5s-30.333 5.83301 -42 17.5s-17.5 25.5 -17.5 41.5zM184 654.999
c0 16 5.83301 29.832 17.5 41.499s25.667 17.5 42 17.5s30.166 -5.66699 41.499 -17s17 -25.166 17 -41.499s-5.66699 -30.333 -17 -42s-25.166 -17.5 -41.499 -17.5s-30.333 5.83301 -42 17.5s-17.5 25.5 -17.5 41.5zM46 -0.00195312v531h140v-531h-140z" />
    <glyph glyph-name="eth" unicode="&#xf0;" horiz-adv-x="540" 
d="M73 63.5c-28.667 42.333 -43.001 108.334 -43.001 198.001s14.833 157 44.5 202s77.167 67.5 142.5 67.5h56c38.667 0 63.667 -3.33301 75 -10c-12 40.667 -31 73 -57 97l-114 -53l-28 57l72 33c-25.333 9.33301 -59.666 14 -102.999 14c-7.33301 0 -15 -0.333008 -23 -1
v115c110.667 0 196 -20 256 -60l93 43l29 -58l-68 -31c43.333 -48.667 72.333 -112.334 87 -191.001c12 -66 18 -140 18 -222c0 -176 -62.667 -264 -188 -264h-105c-67.333 0 -115.333 21.167 -144 63.5zM177.999 351.501
c-5.33301 -20.333 -8.00195 -49.835 -8.00195 -88.502s2.66699 -67.667 8 -87s12.5 -31.666 21.5 -36.999s22.5 -8 40.5 -8h60c29.333 0 48.333 9.33301 57 28s13 55.334 13 110.001s-4.16699 90.5 -12.5 107.5s-27.5 25.5 -57.5 25.5h-60
c-17.333 0 -30.666 -3.33301 -39.999 -10s-16.666 -20.167 -21.999 -40.5z" />
    <glyph glyph-name="ntilde" unicode="&#xf1;" 
d="M338 690c26 0 55.6641 12.667 88.9971 38l24 -60c-41.333 -45.333 -78.666 -68 -111.999 -68c-16.667 0 -36.667 5.83301 -60 17.5s-39.666 17.5 -48.999 17.5s-17.166 -0.5 -23.499 -1.5s-11.5 -2 -15.5 -3s-9.16699 -3 -15.5 -6s-10.666 -5.16699 -12.999 -6.5l-15 -9
c-7.66699 -4.66699 -12.834 -7.66699 -15.501 -9l-25 55c42.667 46.667 83 70 121 70c16.667 -0.666992 36 -6.66699 58 -18s35.833 -17 41.5 -17h10.5zM45.9971 0l0.000976562 531.001h112l28 -57c48.667 35.333 87.334 55.666 116.001 60.999
c15.333 3.33301 32.666 5 51.999 5c106 0 159 -62 159 -186v-354h-140v356c0 48 -19.667 72 -59 72c-26.667 0 -49.334 -3.5 -68.001 -10.5s-38.667 -18.833 -60 -35.5v-382h-140z" />
    <glyph glyph-name="ograve" unicode="&#xf2;" horiz-adv-x="560" 
d="M117 734h123l90 -138h-91zM38 255c0 46 2.66797 84.5 8.00098 115.5s13.666 57.333 24.999 79s27 38.834 47 51.501c36.667 23.333 90.667 35 162 35c91.333 0 154.5 -20 189.5 -60s52.5 -111.167 52.5 -213.5s-17.167 -172.5 -51.5 -210.5s-97.833 -57 -190.5 -57
c-90.667 0 -154 20.333 -190 61c-34.667 39.333 -52 105.666 -52 198.999zM182.001 346.5c-2.66699 -21 -4 -49.4971 -4 -85.4971s1.66699 -64 5 -84s9.5 -35.167 18.5 -45.5s19.167 -16.833 30.5 -19.5s26.666 -4 45.999 -4s33.833 0.666992 43.5 2s19 4.66602 28 9.99902
s15.5 13.666 19.5 24.999c8.66699 24 13 55.167 13 93.5s-0.5 66.166 -1.5 83.499s-3.16699 32.333 -6.5 45s-7.16602 22.5 -11.499 29.5s-10.5 12.833 -18.5 17.5c-13.333 6.66699 -33 10 -59 10s-44.833 -1.66699 -56.5 -5s-21.667 -11 -30 -23s-13.833 -28.5 -16.5 -49.5
z" />
    <glyph glyph-name="oacute" unicode="&#xf3;" horiz-adv-x="560" 
d="M235 596l90 138h123l-122 -138h-91zM38 255c0 46 2.66797 84.5 8.00098 115.5s13.666 57.333 24.999 79s27 38.834 47 51.501c36.667 23.333 90.667 35 162 35c91.333 0 154.5 -20 189.5 -60s52.5 -111.167 52.5 -213.5s-17.167 -172.5 -51.5 -210.5
s-97.833 -57 -190.5 -57c-90.667 0 -154 20.333 -190 61c-34.667 39.333 -52 105.666 -52 198.999zM182.001 346.5c-2.66699 -21 -4 -49.4971 -4 -85.4971s1.66699 -64 5 -84s9.5 -35.167 18.5 -45.5s19.167 -16.833 30.5 -19.5s26.666 -4 45.999 -4s33.833 0.666992 43.5 2
s19 4.66602 28 9.99902s15.5 13.666 19.5 24.999c8.66699 24 13 55.167 13 93.5s-0.5 66.166 -1.5 83.499s-3.16699 32.333 -6.5 45s-7.16602 22.5 -11.499 29.5s-10.5 12.833 -18.5 17.5c-13.333 6.66699 -33 10 -59 10s-44.833 -1.66699 -56.5 -5s-21.667 -11 -30 -23
s-13.833 -28.5 -16.5 -49.5z" />
    <glyph glyph-name="ocircumflex" unicode="&#xf4;" horiz-adv-x="560" 
d="M128 596l108 136h104l97 -136h-93l-59 60l-63 -60h-94zM38 255c0 46 2.66797 84.5 8.00098 115.5s13.666 57.333 24.999 79s27 38.834 47 51.501c36.667 23.333 90.667 35 162 35c91.333 0 154.5 -20 189.5 -60s52.5 -111.167 52.5 -213.5s-17.167 -172.5 -51.5 -210.5
s-97.833 -57 -190.5 -57c-90.667 0 -154 20.333 -190 61c-34.667 39.333 -52 105.666 -52 198.999zM182.001 346.5c-2.66699 -21 -4 -49.4971 -4 -85.4971s1.66699 -64 5 -84s9.5 -35.167 18.5 -45.5s19.167 -16.833 30.5 -19.5s26.666 -4 45.999 -4s33.833 0.666992 43.5 2
s19 4.66602 28 9.99902s15.5 13.666 19.5 24.999c8.66699 24 13 55.167 13 93.5s-0.5 66.166 -1.5 83.499s-3.16699 32.333 -6.5 45s-7.16602 22.5 -11.499 29.5s-10.5 12.833 -18.5 17.5c-13.333 6.66699 -33 10 -59 10s-44.833 -1.66699 -56.5 -5s-21.667 -11 -30 -23
s-13.833 -28.5 -16.5 -49.5z" />
    <glyph glyph-name="otilde" unicode="&#xf5;" horiz-adv-x="560" 
d="M343 686c26 0 55.6641 12.667 88.9971 38l24 -60c-41.333 -45.333 -78.666 -68 -111.999 -68c-16.667 0 -36.667 5.83301 -60 17.5s-39.666 17.5 -48.999 17.5s-17.166 -0.5 -23.499 -1.5s-11.5 -2 -15.5 -3s-9.16699 -3 -15.5 -6s-10.666 -5.16699 -12.999 -6.5l-15 -9
c-7.66699 -4.66699 -12.834 -7.66699 -15.501 -9l-25 55c42.667 46.667 83 70 121 70c16.667 -0.666992 36 -6.66699 58 -18s35.833 -17 41.5 -17h10.5zM37.9971 255c0 46 2.66797 84.5 8.00098 115.5s13.666 57.333 24.999 79s27 38.834 47 51.501
c36.667 23.333 90.667 35 162 35c91.333 0 154.5 -20 189.5 -60s52.5 -111.167 52.5 -213.5s-17.167 -172.5 -51.5 -210.5s-97.833 -57 -190.5 -57c-90.667 0 -154 20.333 -190 61c-34.667 39.333 -52 105.666 -52 198.999zM181.998 346.5
c-2.66699 -21 -4 -49.4971 -4 -85.4971s1.66699 -64 5 -84s9.5 -35.167 18.5 -45.5s19.167 -16.833 30.5 -19.5s26.666 -4 45.999 -4s33.833 0.666992 43.5 2s19 4.66602 28 9.99902s15.5 13.666 19.5 24.999c8.66699 24 13 55.167 13 93.5s-0.5 66.166 -1.5 83.499
s-3.16699 32.333 -6.5 45s-7.16602 22.5 -11.499 29.5s-10.5 12.833 -18.5 17.5c-13.333 6.66699 -33 10 -59 10s-44.833 -1.66699 -56.5 -5s-21.667 -11 -30 -23s-13.833 -28.5 -16.5 -49.5z" />
    <glyph glyph-name="odieresis" unicode="&#xf6;" horiz-adv-x="560" 
d="M94 655c0 16 5.83301 29.832 17.5 41.499s25.667 17.5 42 17.5s30.166 -5.66699 41.499 -17s17 -25.166 17 -41.499s-5.66699 -30.333 -17 -42s-25.166 -17.5 -41.499 -17.5s-30.333 5.83301 -42 17.5s-17.5 25.5 -17.5 41.5zM349 654.999
c0 16 5.83301 29.832 17.5 41.499s25.667 17.5 42 17.5s30.166 -5.66699 41.499 -17s17 -25.166 17 -41.499s-5.66699 -30.333 -17 -42s-25.166 -17.5 -41.499 -17.5s-30.333 5.83301 -42 17.5s-17.5 25.5 -17.5 41.5zM38 254.998c0 46 2.66797 84.5 8.00098 115.5
s13.666 57.333 24.999 79s27 38.834 47 51.501c36.667 23.333 90.667 35 162 35c91.333 0 154.5 -20 189.5 -60s52.5 -111.167 52.5 -213.5s-17.167 -172.5 -51.5 -210.5s-97.833 -57 -190.5 -57c-90.667 0 -154 20.333 -190 61c-34.667 39.333 -52 105.666 -52 198.999z
M182.001 346.498c-2.66699 -21 -4 -49.4971 -4 -85.4971s1.66699 -64 5 -84s9.5 -35.167 18.5 -45.5s19.167 -16.833 30.5 -19.5s26.666 -4 45.999 -4s33.833 0.666992 43.5 2s19 4.66602 28 9.99902s15.5 13.666 19.5 24.999c8.66699 24 13 55.167 13 93.5
s-0.5 66.166 -1.5 83.499s-3.16699 32.333 -6.5 45s-7.16602 22.5 -11.499 29.5s-10.5 12.833 -18.5 17.5c-13.333 6.66699 -33 10 -59 10s-44.833 -1.66699 -56.5 -5s-21.667 -11 -30 -23s-13.833 -28.5 -16.5 -49.5z" />
    <glyph glyph-name="divide" unicode="&#xf7;" horiz-adv-x="497" 
d="M38 294v118h422v-118h-422zM210 246h74.001c16 0 24 -8 24 -24v-67c0 -15.333 -8 -23 -24 -23h-74c-6.66699 0 -12.334 2 -17.001 6s-7 9.66699 -7 17v67c0 16 8 24 24 24zM210.001 570h74c16 0 24 -8.33301 24 -25v-67c0 -15.333 -8 -23 -24 -23h-74
c-10.667 0 -18 4.66699 -22 14c-1.33301 2.66699 -2 5.66699 -2 9v67c0 16.667 8 25 24 25z" />
    <glyph glyph-name="oslash" unicode="&#xf8;" horiz-adv-x="581" 
d="M92 67c-28.667 38.667 -43 98.333 -43 179s8 141 24 181s41 68.167 75 84.5s83 24.5 147 24.5s113 -9.33301 147 -28l19 23h77l-51 -63c30.667 -40 46 -109.833 46 -209.5s-17.167 -168.5 -51.5 -206.5s-97.833 -57 -190.5 -57c-68 0 -120 10.667 -156 32l-22 -27h-75z
M193 346.499c-2.66699 -21 -3.99902 -47.833 -3.99902 -80.5s3 -56 9 -70l163 211c-12 11.333 -32.333 17 -61 17s-48.834 -1.66699 -60.501 -5s-21.667 -11 -30 -23s-13.833 -28.5 -16.5 -49.5zM356.501 117.999c11.667 6.66699 19.499 15.667 23.499 27
c8.66699 24 13 58.667 13 104s-3.33301 76 -10 92l-166 -213c12 -13.333 35.333 -20 70 -20s57.834 3.33301 69.501 10z" />
    <glyph glyph-name="ugrave" unicode="&#xf9;" 
d="M108 734h123l90 -138h-91zM38 178l0.00195312 353h140v-356c0 -47.333 19.667 -71 59 -71c26.667 0 49.167 3.33301 67.5 10s38.5 18.667 60.5 36v381h140v-531h-113l-27 56c-6 -3.33301 -14.333 -8.33301 -25 -15l-25 -15.5c-6 -3.66699 -13.833 -8 -23.5 -13
s-18.834 -8.83301 -27.501 -11.5c-20.667 -6.66699 -43.334 -10 -68.001 -10c-105.333 0 -158 62.333 -158 187z" />
    <glyph glyph-name="uacute" unicode="&#xfa;" 
d="M226 596l90 138h123l-122 -138h-91zM38 178l0.00195312 353h140v-356c0 -47.333 19.667 -71 59 -71c26.667 0 49.167 3.33301 67.5 10s38.5 18.667 60.5 36v381h140v-531h-113l-27 56c-6 -3.33301 -14.333 -8.33301 -25 -15l-25 -15.5c-6 -3.66699 -13.833 -8 -23.5 -13
s-18.834 -8.83301 -27.501 -11.5c-20.667 -6.66699 -43.334 -10 -68.001 -10c-105.333 0 -158 62.333 -158 187z" />
    <glyph glyph-name="ucircumflex" unicode="&#xfb;" 
d="M117 596l108 136h104l97 -136h-93l-59 60l-63 -60h-94zM38 178l0.00195312 353h140v-356c0 -47.333 19.667 -71 59 -71c26.667 0 49.167 3.33301 67.5 10s38.5 18.667 60.5 36v381h140v-531h-113l-27 56c-6 -3.33301 -14.333 -8.33301 -25 -15l-25 -15.5
c-6 -3.66699 -13.833 -8 -23.5 -13s-18.834 -8.83301 -27.501 -11.5c-20.667 -6.66699 -43.334 -10 -68.001 -10c-105.333 0 -158 62.333 -158 187z" />
    <glyph glyph-name="udieresis" unicode="&#xfc;" 
d="M85 655c0 16 5.83301 29.832 17.5 41.499s25.667 17.5 42 17.5s30.166 -5.66699 41.499 -17s17 -25.166 17 -41.499s-5.66699 -30.333 -17 -42s-25.166 -17.5 -41.499 -17.5s-30.333 5.83301 -42 17.5s-17.5 25.5 -17.5 41.5zM340 654.999
c0 16 5.83301 29.832 17.5 41.499s25.667 17.5 42 17.5s30.166 -5.66699 41.499 -17s17 -25.166 17 -41.499s-5.66699 -30.333 -17 -42s-25.166 -17.5 -41.499 -17.5s-30.333 5.83301 -42 17.5s-17.5 25.5 -17.5 41.5zM38 177.998l0.00195312 353h140v-356
c0 -47.333 19.667 -71 59 -71c26.667 0 49.167 3.33301 67.5 10s38.5 18.667 60.5 36v381h140v-531h-113l-27 56c-6 -3.33301 -14.333 -8.33301 -25 -15l-25 -15.5c-6 -3.66699 -13.833 -8 -23.5 -13s-18.834 -8.83301 -27.501 -11.5
c-20.667 -6.66699 -43.334 -10 -68.001 -10c-105.333 0 -158 62.333 -158 187z" />
    <glyph glyph-name="yacute" unicode="&#xfd;" horiz-adv-x="578" 
d="M243 596l90 138h123l-122 -138h-91zM16 531h146.998l92 -372c3.33301 -12 7.33301 -20 12 -24s8.33398 -6.83301 11.001 -8.5s5.83398 -3 9.50098 -4s6.5 -1.5 8.5 -1.5s4.5 -0.166992 7.5 -0.5l4.5 -0.5l106 411h146l-184 -699l-73 -102h-100l75 270
c-81.333 0 -134 45 -158 135z" />
    <glyph glyph-name="thorn" unicode="&#xfe;" horiz-adv-x="556" 
d="M193 782l0.00195312 -308.999c20 16 44.5 30.167 73.5 42.5s57.833 18.5 86.5 18.5c115.333 0 173 -90 173 -270c0 -108.667 -16 -183.334 -48 -224.001c-28 -35.333 -69.667 -53 -125 -53c-24.667 0 -51.834 3.16699 -81.501 9.5s-55.834 15.5 -78.501 27.5v-294h-140
v1052h140zM316.002 415.001c-46.667 -2 -87.667 -13.667 -123 -35v-264c28.667 -10.667 69.667 -17 123 -19c16 0 28.667 3.66699 38 11c21.333 18 32 73.667 32 167s-23.333 140 -70 140z" />
    <glyph glyph-name="ydieresis" unicode="&#xff;" horiz-adv-x="578" 
d="M102 655c0 16 5.83301 29.832 17.5 41.499s25.5 17.5 41.5 17.5s29.667 -5.66699 41 -17s17 -25.166 17 -41.499s-5.66699 -30.333 -17 -42s-25 -17.5 -41 -17.5s-29.833 5.83301 -41.5 17.5s-17.5 25.5 -17.5 41.5zM357 654.999c0 16 5.83301 29.832 17.5 41.499
s25.5 17.5 41.5 17.5s29.667 -5.66699 41 -17s17 -25.166 17 -41.499s-5.66699 -30.333 -17 -42s-25 -17.5 -41 -17.5s-29.833 5.83301 -41.5 17.5s-17.5 25.5 -17.5 41.5zM16 530.998h146.998l92 -372c3.33301 -12 7.33301 -20 12 -24s8.33398 -6.83301 11.001 -8.5
s5.83398 -3 9.50098 -4s6.5 -1.5 8.5 -1.5s4.5 -0.166992 7.5 -0.5l4.5 -0.5l106 411h146l-184 -699l-73 -102h-100l75 270c-81.333 0 -134 45 -158 135z" />
    <glyph glyph-name="Amacron" unicode="&#x100;" horiz-adv-x="692" 
d="M215 797v79h292v-79h-292zM34 0l247 732h159l238 -732h-149l-52 162h-240l-53 -162h-150zM274 286h170l-82 262z" />
    <glyph glyph-name="amacron" unicode="&#x101;" horiz-adv-x="519" 
d="M124 601v79h292v-79h-292zM48 506c60.667 23.333 141.665 35.0029 242.998 35.0029c61.333 0 108.5 -12.833 141.5 -38.5s49.5 -69.834 49.5 -132.501v-370h-111l-29 58c-2.66699 -4.66699 -11.167 -11.834 -25.5 -21.501s-34.166 -19.167 -59.499 -28.5
s-49.666 -14 -72.999 -14c-49.333 0 -87.333 14.167 -114 42.5s-40 61.166 -40 98.499v50c0 42.667 12.667 77.667 38 105s64.333 41 117 41h118h39v25.5v8.5c0 26.667 -5.66699 44.167 -17 52.5s-34 12.5 -68 12.5s-103.667 -3.66699 -209 -11v87zM169.998 155.003
c0 -20 4.33301 -33.167 13 -39.5s21.334 -9.5 38.001 -9.5s35.167 3.5 55.5 10.5s36.166 13.833 47.499 20.5l18 11v97l-129 -10c-28.667 -2.66699 -43 -20.667 -43 -54v-26z" />
    <glyph glyph-name="Abreve" unicode="&#x102;" horiz-adv-x="692" 
d="M246 911l58.001 0.000976562c0 -16.667 5.16699 -30.167 15.5 -40.5s24.333 -15.5 42 -15.5s31.5 5 41.5 15s15 23.667 15 41h58c0 -34.667 -11.167 -62.334 -33.5 -83.001s-49.833 -31 -82.5 -31s-59.834 10.5 -81.501 31.5s-32.5 48.5 -32.5 82.5zM34.001 0.000976562
l247 732h159l238 -732h-149l-52 162h-240l-53 -162h-150zM274.001 286.001h170l-82 262z" />
    <glyph glyph-name="abreve" unicode="&#x103;" horiz-adv-x="519" 
d="M155 715l58 0.000976562c0 -16.667 5.33301 -30.167 16 -40.5s24.667 -15.5 42 -15.5s31 5 41 15s15 23.667 15 41h58c0 -34.667 -11 -62.334 -33 -83.001s-49.333 -31 -82 -31s-60 10.5 -82 31.5s-33 48.5 -33 82.5zM48 506.001
c60.667 23.333 141.665 35.0029 242.998 35.0029c61.333 0 108.5 -12.833 141.5 -38.5s49.5 -69.834 49.5 -132.501v-370h-111l-29 58c-2.66699 -4.66699 -11.167 -11.834 -25.5 -21.501s-34.166 -19.167 -59.499 -28.5s-49.666 -14 -72.999 -14
c-49.333 0 -87.333 14.167 -114 42.5s-40 61.166 -40 98.499v50c0 42.667 12.667 77.667 38 105s64.333 41 117 41h118h39v25.5v8.5c0 26.667 -5.66699 44.167 -17 52.5s-34 12.5 -68 12.5s-103.667 -3.66699 -209 -11v87zM169.998 155.004c0 -20 4.33301 -33.167 13 -39.5
s21.334 -9.5 38.001 -9.5s35.167 3.5 55.5 10.5s36.166 13.833 47.499 20.5l18 11v97l-129 -10c-28.667 -2.66699 -43 -20.667 -43 -54v-26z" />
    <glyph glyph-name="Aogonek" unicode="&#x104;" horiz-adv-x="692" 
d="M643 -186c-8.66699 -2 -18.167 -2.99902 -28.5 -2.99902s-23.333 2.66699 -39 8s-29.5 15 -41.5 29c-17.333 21.333 -26 40.333 -26 57c0 40 23.667 72 71 96h56c-44 -33.333 -58 -63.333 -42 -90c9.33301 -14.667 26 -21.334 50 -20.001v-77zM34 0.000976562l247 732
h159l238 -732h-149l-52 162h-240l-53 -162h-150zM274 286.001h170l-82 262z" />
    <glyph glyph-name="aogonek" unicode="&#x105;" horiz-adv-x="519" 
d="M465 -186c-8.66699 -2.66699 -18 -4 -28 -4s-23 2.66699 -39 8s-30 15.333 -42 30c-17.333 20.667 -26 39.667 -26 57c0 39.333 23.667 71 71 95h56c-22 -16.667 -35.333 -30.667 -40 -42s-7.16699 -20.333 -7.5 -27s1 -12.5 4 -17.5s7.16699 -9.16699 12.5 -12.5
c10 -8 23 -11.667 39 -11v-76zM48 506c60.667 23.333 141.665 35.0029 242.998 35.0029c61.333 0 108.5 -12.833 141.5 -38.5s49.5 -69.834 49.5 -132.501v-370h-111l-29 58c-2.66699 -4.66699 -11.167 -11.834 -25.5 -21.501s-34.166 -19.167 -59.499 -28.5
s-49.666 -14 -72.999 -14c-49.333 0 -87.333 14.167 -114 42.5s-40 61.166 -40 98.499v50c0 42.667 12.667 77.667 38 105s64.333 41 117 41h118h39v25.5v8.5c0 26.667 -5.66699 44.167 -17 52.5s-34 12.5 -68 12.5s-103.667 -3.66699 -209 -11v87zM169.998 155.003
c0 -20 4.33301 -33.167 13 -39.5s21.334 -9.5 38.001 -9.5s35.167 3.5 55.5 10.5s36.166 13.833 47.499 20.5l18 11v97l-129 -10c-28.667 -2.66699 -43 -20.667 -43 -54v-26z" />
    <glyph glyph-name="Cacute" unicode="&#x106;" horiz-adv-x="571" 
d="M286 800l91 138h122l-122 -138h-91zM92 642c26.667 44 63.667 73 111 87c26 7.33301 55.333 11 88 11c95.333 0 180.333 -11 255 -33v-110l-7.5 1c-5 0.666992 -11.667 1.33398 -20 2.00098s-18.166 1.5 -29.499 2.5s-23.833 2 -37.5 3s-27.167 1.83301 -40.5 2.5
c-31.333 2 -59.333 3 -84 3s-43.834 -1.5 -57.501 -4.5s-26.834 -9 -39.501 -18s-22 -22.5 -28 -40.5c-13.333 -38.667 -20 -99.334 -20 -182.001c0 -88 9.33301 -149 28 -183c21.333 -40 59.333 -60 114 -60c62.667 0 126 2 190 6l32 2v-109
c-60 -18.667 -137.333 -28 -232 -28h-23c-89.333 0.666992 -153.166 32.667 -191.499 96s-57.5 157.5 -57.5 282.5s16.667 214.833 50 269.5z" />
    <glyph glyph-name="cacute" unicode="&#x107;" horiz-adv-x="494" 
d="M229 597l90 139h123l-122 -139h-91zM38 266c0 53.333 4.16895 98.167 12.502 134.5s20.666 64 36.999 83s34.5 32.5 54.5 40.5s43.667 12 71 12c98 0 179.333 -10.667 244 -32v-86c-63.333 4 -113.166 6 -149.499 6s-57.833 -0.5 -64.5 -1.5s-14.334 -3 -23.001 -6
s-15 -7.83301 -19 -14.5s-8 -16 -12 -28c-7.33301 -20 -11 -54.833 -11 -104.5s3.16699 -85.5 9.5 -107.5s15.666 -36.5 27.999 -43.5s31.833 -10.5 58.5 -10.5c54 0 108.333 2.33301 163 7l27 2v-88c-30.667 -16 -60.667 -25.333 -90 -28c-43.333 -4 -81 -6 -113 -6h-6h-42
c-52.667 0 -94 17.667 -124 53c-34 39.333 -51 112 -51 218z" />
    <glyph glyph-name="Ccircumflex" unicode="&#x108;" horiz-adv-x="571" 
d="M176 800l108 136h104l97 -136h-93l-59 60l-63 -60h-94zM92 642c26.667 44 63.667 73 111 87c26 7.33301 55.333 11 88 11c95.333 0 180.333 -11 255 -33v-110l-7.5 1c-5 0.666992 -11.667 1.33398 -20 2.00098s-18.166 1.5 -29.499 2.5s-23.833 2 -37.5 3
s-27.167 1.83301 -40.5 2.5c-31.333 2 -59.333 3 -84 3s-43.834 -1.5 -57.501 -4.5s-26.834 -9 -39.501 -18s-22 -22.5 -28 -40.5c-13.333 -38.667 -20 -99.334 -20 -182.001c0 -88 9.33301 -149 28 -183c21.333 -40 59.333 -60 114 -60c62.667 0 126 2 190 6l32 2v-109
c-60 -18.667 -137.333 -28 -232 -28h-23c-89.333 0.666992 -153.166 32.667 -191.499 96s-57.5 157.5 -57.5 282.5s16.667 214.833 50 269.5z" />
    <glyph glyph-name="ccircumflex" unicode="&#x109;" horiz-adv-x="494" 
d="M116 597l107 135h104l97 -135h-93l-59 60l-62 -60h-94zM38 266c0 53.333 4.16895 98.167 12.502 134.5s20.666 64 36.999 83s34.5 32.5 54.5 40.5s43.667 12 71 12c98 0 179.333 -10.667 244 -32v-86c-63.333 4 -113.166 6 -149.499 6s-57.833 -0.5 -64.5 -1.5
s-14.334 -3 -23.001 -6s-15 -7.83301 -19 -14.5s-8 -16 -12 -28c-7.33301 -20 -11 -54.833 -11 -104.5s3.16699 -85.5 9.5 -107.5s15.666 -36.5 27.999 -43.5s31.833 -10.5 58.5 -10.5c54 0 108.333 2.33301 163 7l27 2v-88c-30.667 -16 -60.667 -25.333 -90 -28
c-43.333 -4 -81 -6 -113 -6h-6h-42c-52.667 0 -94 17.667 -124 53c-34 39.333 -51 112 -51 218z" />
    <glyph glyph-name="Cdotaccent" unicode="&#x10a;" horiz-adv-x="571" 
d="M271 824l0.000976562 76c0 16.667 8 25 24 25h72c7.33301 0 13 -2.33301 17 -7s6 -10.667 6 -18v-76c0 -15.333 -7.66699 -23 -23 -23h-72c-6.66699 0 -12.334 2.16699 -17.001 6.5s-7 9.83301 -7 16.5zM92.001 642c26.667 44 63.667 73 111 87
c26 7.33301 55.333 11 88 11c95.333 0 180.333 -11 255 -33v-110l-7.5 1c-5 0.666992 -11.667 1.33398 -20 2.00098s-18.166 1.5 -29.499 2.5s-23.833 2 -37.5 3s-27.167 1.83301 -40.5 2.5c-31.333 2 -59.333 3 -84 3s-43.834 -1.5 -57.501 -4.5s-26.834 -9 -39.501 -18
s-22 -22.5 -28 -40.5c-13.333 -38.667 -20 -99.334 -20 -182.001c0 -88 9.33301 -149 28 -183c21.333 -40 59.333 -60 114 -60c62.667 0 126 2 190 6l32 2v-109c-60 -18.667 -137.333 -28 -232 -28h-23c-89.333 0.666992 -153.166 32.667 -191.499 96
s-57.5 157.5 -57.5 282.5s16.667 214.833 50 269.5z" />
    <glyph glyph-name="cdotaccent" unicode="&#x10b;" horiz-adv-x="494" 
d="M225 621l-0.000976562 76c0 16.667 8 25 24 25h72c7.33301 0 13 -2.33301 17 -7s6 -10.667 6 -18v-76c0 -15.333 -7.66699 -23 -23 -23h-72c-7.33301 0 -13.166 2 -17.499 6s-6.5 9.66699 -6.5 17zM37.999 266c0 53.333 4.16895 98.167 12.502 134.5s20.666 64 36.999 83
s34.5 32.5 54.5 40.5s43.667 12 71 12c98 0 179.333 -10.667 244 -32v-86c-63.333 4 -113.166 6 -149.499 6s-57.833 -0.5 -64.5 -1.5s-14.334 -3 -23.001 -6s-15 -7.83301 -19 -14.5s-8 -16 -12 -28c-7.33301 -20 -11 -54.833 -11 -104.5s3.16699 -85.5 9.5 -107.5
s15.666 -36.5 27.999 -43.5s31.833 -10.5 58.5 -10.5c54 0 108.333 2.33301 163 7l27 2v-88c-30.667 -16 -60.667 -25.333 -90 -28c-43.333 -4 -81 -6 -113 -6h-6h-42c-52.667 0 -94 17.667 -124 53c-34 39.333 -51 112 -51 218z" />
    <glyph glyph-name="Ccaron" unicode="&#x10c;" horiz-adv-x="571" 
d="M184 936h94l63 -60l58 60h94l-102 -136h-104zM92 642c26.667 44 63.667 73 111 87c26 7.33301 55.333 11 88 11c95.333 0 180.333 -11 255 -33v-110l-7.5 1c-5 0.666992 -11.667 1.33398 -20 2.00098s-18.166 1.5 -29.499 2.5s-23.833 2 -37.5 3
s-27.167 1.83301 -40.5 2.5c-31.333 2 -59.333 3 -84 3s-43.834 -1.5 -57.501 -4.5s-26.834 -9 -39.501 -18s-22 -22.5 -28 -40.5c-13.333 -38.667 -20 -99.334 -20 -182.001c0 -88 9.33301 -149 28 -183c21.333 -40 59.333 -60 114 -60c62.667 0 126 2 190 6l32 2v-109
c-60 -18.667 -137.333 -28 -232 -28h-23c-89.333 0.666992 -153.166 32.667 -191.499 96s-57.5 157.5 -57.5 282.5s16.667 214.833 50 269.5z" />
    <glyph glyph-name="ccaron" unicode="&#x10d;" horiz-adv-x="494" 
d="M117 733h93l63 -60l59 60h93l-102 -136h-104zM38 266c0 53.333 4.16895 98.167 12.502 134.5s20.666 64 36.999 83s34.5 32.5 54.5 40.5s43.667 12 71 12c98 0 179.333 -10.667 244 -32v-86c-63.333 4 -113.166 6 -149.499 6s-57.833 -0.5 -64.5 -1.5
s-14.334 -3 -23.001 -6s-15 -7.83301 -19 -14.5s-8 -16 -12 -28c-7.33301 -20 -11 -54.833 -11 -104.5s3.16699 -85.5 9.5 -107.5s15.666 -36.5 27.999 -43.5s31.833 -10.5 58.5 -10.5c54 0 108.333 2.33301 163 7l27 2v-88c-30.667 -16 -60.667 -25.333 -90 -28
c-43.333 -4 -81 -6 -113 -6h-6h-42c-52.667 0 -94 17.667 -124 53c-34 39.333 -51 112 -51 218z" />
    <glyph glyph-name="Dcaron" unicode="&#x10e;" horiz-adv-x="662" 
d="M164 930h93l63 -60l59 60h93l-102 -135h-104zM61 0v732h311c169.333 0 254 -123 254 -369c0 -152 -36.333 -257.333 -109 -316c-38.667 -31.333 -87 -47 -145 -47h-311zM201 125h159.999c83.333 0 125 79.667 125 239c0 121.333 -19.333 196.333 -58 225
c-17.333 12.667 -39.666 19 -66.999 19h-160v-483z" />
    <glyph glyph-name="dcaron" unicode="&#x10f;" horiz-adv-x="607" 
d="M53 420c10 32.667 21.334 56.333 34.001 71c27.333 32 68.666 48 123.999 48c24 0 51 -3.16699 81 -9.5s56.667 -14.833 80 -25.5v281h140v-785h-116l-24 54c-27.333 -22 -56 -37.5 -86 -46.5s-55 -13.5 -75 -13.5c-62 0 -106.333 22.833 -133 68.5s-40 108.5 -40 188.5
s5 136.333 15 169zM186.501 369.999c-5.66699 -24 -8.5 -61.167 -8.5 -111.5s5.66699 -87 17 -110s29 -34.5 53 -34.5c48.667 0 90 10.667 124 32v263c-34 13.333 -75.333 20 -124 20c-16.667 0 -29.667 -3.83301 -39 -11.5s-16.833 -23.5 -22.5 -47.5zM659.001 780.999v-67
l-11 -134h-75l-10 134l-1 67h97z" />
    <glyph glyph-name="Dcroat" unicode="&#x110;" horiz-adv-x="662" 
d="M-4 340v66.001h65v326h311c152 0 235.667 -97 251 -291c2 -24.667 3 -57.5 3 -98.5s-5 -83.333 -15 -127s-25 -81.834 -45 -114.501c-41.333 -67.333 -106 -101 -194 -101h-311v340h-65zM201 125.001h160c44 0 75.5 20.5 94.5 61.5s28.5 100.167 28.5 177.5
c0 94 -11.333 158.667 -34 194c-20 32 -49.667 48 -89 48h-160v-200h111v-66h-111v-215z" />
    <glyph glyph-name="dcroat" unicode="&#x111;" horiz-adv-x="563" 
d="M49.5 420c9.66699 32.667 20.835 56.333 33.502 71c28 32 69.667 48 125 48c23.333 0 50.166 -3.16699 80.499 -9.5s57.166 -14.833 80.499 -25.5v101h-107v65h107v115h139v-115h66v-65h-66v-605h-115l-24 54c-27.333 -22 -56 -37.5 -86 -46.5s-55 -13.5 -75 -13.5
c-62.667 0 -107.167 22.833 -133.5 68.5s-39.5 108.5 -39.5 188.5s4.83301 136.333 14.5 169zM183.501 369.999c-5.66699 -24 -8.49805 -61.167 -8.49805 -111.5s5.66699 -87 17 -110s28.666 -34.5 51.999 -34.5c49.333 0 91 10.667 125 32v263
c-34.667 13.333 -76.334 20 -125.001 20c-16 0 -28.667 -3.83301 -38 -11.5s-16.833 -23.5 -22.5 -47.5z" />
    <glyph glyph-name="Emacron" unicode="&#x112;" horiz-adv-x="567" 
d="M166 796v80h292v-80h-292zM58 144l-0.000976562 436c0 60.667 18 102 54 124c30 18.667 62.333 28 97 28c2.66699 0 47.667 -1.16699 135 -3.5s152.333 -6.5 195 -12.5v-116h-289c-24.667 0 -40 -6 -46 -18c-4 -9.33301 -6 -22 -6 -38v-114l296 -10v-116l-296 -9v-114
c0 -25.333 7 -40.666 21 -45.999c10 -4 23.667 -6 41 -6h279v-115c-33.333 -4.66699 -115.666 -9.33398 -246.999 -14.001l-65 -3h-18.5c-7 0 -16.167 0.5 -27.5 1.5s-25 4.5 -41 10.5s-30 14 -42 24c-26.667 24 -40 61 -40 111z" />
    <glyph glyph-name="emacron" unicode="&#x113;" horiz-adv-x="525" 
d="M126 596v79h292v-79h-292zM181 529c23.333 4 49.998 6.00195 79.998 6.00195s53.333 -0.5 70 -1.5s33.5 -3 50.5 -6s30.833 -7.33301 41.5 -13s21 -13.334 31 -23.001s17.667 -21.167 23 -34.5c12 -30 18 -64.5 18 -103.5s-5.66699 -68.5 -17 -88.5
c-22 -38 -65.667 -57 -131 -57h-169c0 -23.333 2 -42 6 -56s11.333 -24.167 22 -30.5s21.834 -10.333 33.501 -12s43.5 -2.5 95.5 -2.5s102 3.66699 150 11v-95c-30 -11.333 -60.167 -18.333 -90.5 -21s-51.166 -4.33398 -62.499 -5.00098s-25.333 -1 -42 -1
c-22 -0.666992 -47.667 -1 -77 -1c-66 0 -111.667 20.667 -137 62s-38 108.5 -38 201.5s10.167 159 30.5 198s57.833 63.167 112.5 72.5zM310.998 309.002c29.333 0 44 13.334 44 40.001c0 33.333 -4.5 54.833 -13.5 64.5s-27.167 14.5 -54.5 14.5
s-46.166 -0.833008 -56.499 -2.5s-20.333 -6.33398 -30 -14.001s-15.834 -19.167 -18.501 -34.5s-4 -29.833 -4 -43.5v-24.5h133z" />
    <glyph glyph-name="Edotaccent" unicode="&#x116;" horiz-adv-x="567" 
d="M265 819l0.000976562 76c0 16.667 8 25 24 25h72c7.33301 0 13 -2.33301 17 -7s6 -10.667 6 -18v-76c0 -15.333 -7.66699 -23 -23 -23h-72c-6.66699 0 -12.334 2 -17.001 6s-7 9.66699 -7 17zM58.001 144l-0.000976562 436c0 60.667 18 102 54 124
c30 18.667 62.333 28 97 28c2.66699 0 47.667 -1.16699 135 -3.5s152.333 -6.5 195 -12.5v-116h-289c-24.667 0 -40 -6 -46 -18c-4 -9.33301 -6 -22 -6 -38v-114l296 -10v-116l-296 -9v-114c0 -25.333 7 -40.666 21 -45.999c10 -4 23.667 -6 41 -6h279v-115
c-33.333 -4.66699 -115.666 -9.33398 -246.999 -14.001l-65 -3h-18.5c-7 0 -16.167 0.5 -27.5 1.5s-25 4.5 -41 10.5s-30 14 -42 24c-26.667 24 -40 61 -40 111z" />
    <glyph glyph-name="edotaccent" unicode="&#x117;" horiz-adv-x="525" 
d="M212 619l-0.000976562 76c0 16.667 8 25 24 25h72c7.33301 0 13 -2.33301 17 -7s6 -10.667 6 -18v-76c0 -15.333 -7.66699 -23 -23 -23h-72c-7.33301 0 -13.166 2.16699 -17.499 6.5s-6.5 9.83301 -6.5 16.5zM180.999 529c23.333 4 49.998 6.00195 79.998 6.00195
s53.333 -0.5 70 -1.5s33.5 -3 50.5 -6s30.833 -7.33301 41.5 -13s21 -13.334 31 -23.001s17.667 -21.167 23 -34.5c12 -30 18 -64.5 18 -103.5s-5.66699 -68.5 -17 -88.5c-22 -38 -65.667 -57 -131 -57h-169c0 -23.333 2 -42 6 -56s11.333 -24.167 22 -30.5
s21.834 -10.333 33.501 -12s43.5 -2.5 95.5 -2.5s102 3.66699 150 11v-95c-30 -11.333 -60.167 -18.333 -90.5 -21s-51.166 -4.33398 -62.499 -5.00098s-25.333 -1 -42 -1c-22 -0.666992 -47.667 -1 -77 -1c-66 0 -111.667 20.667 -137 62s-38 108.5 -38 201.5
s10.167 159 30.5 198s57.833 63.167 112.5 72.5zM310.997 309.002c29.333 0 44 13.334 44 40.001c0 33.333 -4.5 54.833 -13.5 64.5s-27.167 14.5 -54.5 14.5s-46.166 -0.833008 -56.499 -2.5s-20.333 -6.33398 -30 -14.001s-15.834 -19.167 -18.501 -34.5
s-4 -29.833 -4 -43.5v-24.5h133z" />
    <glyph glyph-name="Eogonek" unicode="&#x118;" horiz-adv-x="567" 
d="M547 -172c-8.66699 -2 -18 -2.99902 -28 -2.99902s-23 2.5 -39 7.5s-30 14.833 -42 29.5c-17.333 20.667 -26 39.667 -26 57c0 39.333 23.667 71 71 95h56c-44 -32.667 -57.667 -62.334 -41 -89.001c8.66699 -14.667 25 -21.667 49 -21v-76zM58 144.001l-0.000976562 436
c0 60.667 18 102 54 124c30 18.667 62.333 28 97 28c2.66699 0 47.667 -1.16699 135 -3.5s152.333 -6.5 195 -12.5v-116h-289c-24.667 0 -40 -6 -46 -18c-4 -9.33301 -6 -22 -6 -38v-114l296 -10v-116l-296 -9v-114c0 -25.333 7 -40.666 21 -45.999c10 -4 23.667 -6 41 -6
h279v-115c-33.333 -4.66699 -115.666 -9.33398 -246.999 -14.001l-65 -3h-18.5c-7 0 -16.167 0.5 -27.5 1.5s-25 4.5 -41 10.5s-30 14 -42 24c-26.667 24 -40 61 -40 111z" />
    <glyph glyph-name="eogonek" unicode="&#x119;" horiz-adv-x="525" 
d="M493 -164c-8.66699 -2 -18.001 -2.99805 -28.001 -2.99805s-23 2.66699 -39 8s-30 15.333 -42 30c-29.333 35.333 -33.666 69.666 -12.999 102.999c12 19.333 31.333 35.666 58 48.999h56c-44 -33.333 -57.667 -63 -41 -89c8.66699 -15.333 25 -22.333 49 -21v-77z
M180.999 529.002c23.333 4 49.998 6.00195 79.998 6.00195s53.333 -0.5 70 -1.5s33.5 -3 50.5 -6s30.833 -7.33301 41.5 -13s21 -13.334 31 -23.001s17.667 -21.167 23 -34.5c12 -30 18 -64.5 18 -103.5s-5.66699 -68.5 -17 -88.5c-22 -38 -65.667 -57 -131 -57h-169
c0 -23.333 2 -42 6 -56s11.333 -24.167 22 -30.5s21.834 -10.333 33.501 -12s43.5 -2.5 95.5 -2.5s102 3.66699 150 11v-95c-30 -11.333 -60.167 -18.333 -90.5 -21s-51.166 -4.33398 -62.499 -5.00098s-25.333 -1 -42 -1c-22 -0.666992 -47.667 -1 -77 -1
c-66 0 -111.667 20.667 -137 62s-38 108.5 -38 201.5s10.167 159 30.5 198s57.833 63.167 112.5 72.5zM310.997 309.004c29.333 0 44 13.334 44 40.001c0 33.333 -4.5 54.833 -13.5 64.5s-27.167 14.5 -54.5 14.5s-46.166 -0.833008 -56.499 -2.5
s-20.333 -6.33398 -30 -14.001s-15.834 -19.167 -18.501 -34.5s-4 -29.833 -4 -43.5v-24.5h133z" />
    <glyph glyph-name="Ecaron" unicode="&#x11a;" horiz-adv-x="567" 
d="M165 930h94l63 -60l58 60h94l-102 -135h-104zM58 144l-0.000976562 436c0 60.667 18 102 54 124c30 18.667 62.333 28 97 28c2.66699 0 47.667 -1.16699 135 -3.5s152.333 -6.5 195 -12.5v-116h-289c-24.667 0 -40 -6 -46 -18c-4 -9.33301 -6 -22 -6 -38v-114l296 -10
v-116l-296 -9v-114c0 -25.333 7 -40.666 21 -45.999c10 -4 23.667 -6 41 -6h279v-115c-33.333 -4.66699 -115.666 -9.33398 -246.999 -14.001l-65 -3h-18.5c-7 0 -16.167 0.5 -27.5 1.5s-25 4.5 -41 10.5s-30 14 -42 24c-26.667 24 -40 61 -40 111z" />
    <glyph glyph-name="ecaron" unicode="&#x11b;" horiz-adv-x="525" 
d="M121 729h94l63 -60l58 60h94l-102 -135h-104zM181 529c23.333 4 49.998 6.00195 79.998 6.00195s53.333 -0.5 70 -1.5s33.5 -3 50.5 -6s30.833 -7.33301 41.5 -13s21 -13.334 31 -23.001s17.667 -21.167 23 -34.5c12 -30 18 -64.5 18 -103.5s-5.66699 -68.5 -17 -88.5
c-22 -38 -65.667 -57 -131 -57h-169c0 -23.333 2 -42 6 -56s11.333 -24.167 22 -30.5s21.834 -10.333 33.501 -12s43.5 -2.5 95.5 -2.5s102 3.66699 150 11v-95c-30 -11.333 -60.167 -18.333 -90.5 -21s-51.166 -4.33398 -62.499 -5.00098s-25.333 -1 -42 -1
c-22 -0.666992 -47.667 -1 -77 -1c-66 0 -111.667 20.667 -137 62s-38 108.5 -38 201.5s10.167 159 30.5 198s57.833 63.167 112.5 72.5zM310.998 309.002c29.333 0 44 13.334 44 40.001c0 33.333 -4.5 54.833 -13.5 64.5s-27.167 14.5 -54.5 14.5
s-46.166 -0.833008 -56.499 -2.5s-20.333 -6.33398 -30 -14.001s-15.834 -19.167 -18.501 -34.5s-4 -29.833 -4 -43.5v-24.5h133z" />
    <glyph glyph-name="Gcircumflex" unicode="&#x11c;" horiz-adv-x="614" 
d="M180 800l107 136h104l97 -136h-93l-59 60l-62 -60h-94zM46.5 249.5c-3 34.333 -4.50195 74.3359 -4.50195 120.003s1.83301 86 5.5 121s10.667 68.667 21 101s24.5 59.166 42.5 80.499c38 45.333 94.667 68 170 68c56.667 0 104.834 -2.16699 144.501 -6.5
s85.167 -12.833 136.5 -25.5v-109c-0.666992 0 -6.16699 0.666992 -16.5 2s-24 2.83301 -41 4.5s-35.5 3.16699 -55.5 4.5c-48 4 -93 6 -135 6c-53.333 0 -88.666 -17.833 -105.999 -53.5s-26 -101.167 -26 -196.5s8 -159 24 -191c16.667 -32.667 50.667 -49 102 -49
c20 0 40.5 3.83301 61.5 11.5s36.833 15.167 47.5 22.5l16 12v131h-102v89c39.333 16 97.333 24 174 24c21.333 0 44 -0.666992 68 -2v-414h-100l-38 49c-23.333 -22 -48.333 -36.333 -75 -43c-72.667 -18 -134 -16 -184 6c-29.333 12.667 -52.5 29.667 -69.5 51
s-30.5 49.166 -40.5 83.499s-16.5 68.666 -19.5 102.999z" />
    <glyph glyph-name="gcircumflex" unicode="&#x11d;" horiz-adv-x="560" 
d="M124 596l107 136h104l97 -136h-93l-59 60l-62 -60h-94zM202 149c-26.667 0 -40.002 -7.66992 -40.002 -23.0029c0 -10.667 3.5 -17.834 10.5 -21.501s16.833 -5.5 29.5 -5.5h163c49.333 0 87.833 -13.167 115.5 -39.5s41.5 -65.5 41.5 -117.5v-58
c0 -77.333 -33 -125.666 -99 -144.999c-19.333 -6 -41.666 -9 -66.999 -9h-150c-78 0 -129 28.667 -153 86c-8.66699 19.333 -13 42 -13 68v67l47 49c-20.667 11.333 -35.667 30.333 -45 57c-4.66699 14 -7 30.667 -7 50s5.16699 37.5 15.5 54.5s25.833 28.833 46.5 35.5
c-20 12.667 -34.667 32.667 -44 60s-14 56.333 -14 87c0 126 61.333 189 184 189h323v-83l-59 -18c0 -0.666992 1 -3.5 3 -8.5s3.16699 -8 3.5 -9s1.33301 -3.83301 3 -8.5s2.83398 -8.33398 3.50098 -11.001s1.5 -6.66699 2.5 -12s1.83301 -10.666 2.5 -15.999
c1.33301 -14.667 2 -29.167 2 -43.5s-1.5 -29.166 -4.5 -44.499s-8.66699 -31.166 -17 -47.499s-18.833 -30.166 -31.5 -41.499c-30 -27.333 -73 -41 -129 -41h-123zM180.998 -99.0029c0 -24 5.16895 -39.833 15.502 -47.5s26.166 -11.5 47.499 -11.5h82
c23.333 0 38.666 4.83301 45.999 14.5s11 23.5 11 41.5v39c0 16 -4 28 -12 36s-21.333 12.333 -40 13h-108l-42 3v-88zM179 343.997c0 -54.667 21.334 -82 64.001 -82h56c45.333 0 68 26 68 78c0 30 -5.33301 50.833 -16 62.5s-28.334 17.5 -53.001 17.5h-53
c-26 0 -43.5 -6.83301 -52.5 -20.5s-13.5 -32.167 -13.5 -55.5z" />
    <glyph glyph-name="Gbreve" unicode="&#x11e;" horiz-adv-x="614" 
d="M212 914l58 -0.000976562c0 -16.667 5.16699 -30.167 15.5 -40.5s24.333 -15.5 42 -15.5s31.5 5 41.5 15s15 23.667 15 41h58c0 -23.333 -5.33301 -43.666 -16 -60.999c-21.333 -35.333 -54.666 -53 -99.999 -53c-32.667 0 -59.834 10.5 -81.501 31.5
s-32.5 48.5 -32.5 82.5zM46.5 249.499c-3 34.333 -4.50195 74.3359 -4.50195 120.003s1.83301 86 5.5 121s10.667 68.667 21 101s24.5 59.166 42.5 80.499c38 45.333 94.667 68 170 68c56.667 0 104.834 -2.16699 144.501 -6.5s85.167 -12.833 136.5 -25.5v-109
c-0.666992 0 -6.16699 0.666992 -16.5 2s-24 2.83301 -41 4.5s-35.5 3.16699 -55.5 4.5c-48 4 -93 6 -135 6c-53.333 0 -88.666 -17.833 -105.999 -53.5s-26 -101.167 -26 -196.5s8 -159 24 -191c16.667 -32.667 50.667 -49 102 -49c20 0 40.5 3.83301 61.5 11.5
s36.833 15.167 47.5 22.5l16 12v131h-102v89c39.333 16 97.333 24 174 24c21.333 0 44 -0.666992 68 -2v-414h-100l-38 49c-23.333 -22 -48.333 -36.333 -75 -43c-72.667 -18 -134 -16 -184 6c-29.333 12.667 -52.5 29.667 -69.5 51s-30.5 49.166 -40.5 83.499
s-16.5 68.666 -19.5 102.999z" />
    <glyph glyph-name="gbreve" unicode="&#x11f;" horiz-adv-x="560" 
d="M163 710l58 0.000976562c0 -16.667 5.33301 -30.167 16 -40.5s24.667 -15.5 42 -15.5s31 5 41 15s15 23.667 15 41h58c0 -34.667 -11 -62.334 -33 -83.001s-49.333 -31 -82 -31s-60 10.5 -82 31.5s-33 48.5 -33 82.5zM202 149.001
c-26.667 0 -40.002 -7.66992 -40.002 -23.0029c0 -10.667 3.5 -17.834 10.5 -21.501s16.833 -5.5 29.5 -5.5h163c49.333 0 87.833 -13.167 115.5 -39.5s41.5 -65.5 41.5 -117.5v-58c0 -77.333 -33 -125.666 -99 -144.999c-19.333 -6 -41.666 -9 -66.999 -9h-150
c-78 0 -129 28.667 -153 86c-8.66699 19.333 -13 42 -13 68v67l47 49c-20.667 11.333 -35.667 30.333 -45 57c-4.66699 14 -7 30.667 -7 50s5.16699 37.5 15.5 54.5s25.833 28.833 46.5 35.5c-20 12.667 -34.667 32.667 -44 60s-14 56.333 -14 87c0 126 61.333 189 184 189
h323v-83l-59 -18c0 -0.666992 1 -3.5 3 -8.5s3.16699 -8 3.5 -9s1.33301 -3.83301 3 -8.5s2.83398 -8.33398 3.50098 -11.001s1.5 -6.66699 2.5 -12s1.83301 -10.666 2.5 -15.999c1.33301 -14.667 2 -29.167 2 -43.5s-1.5 -29.166 -4.5 -44.499
s-8.66699 -31.166 -17 -47.499s-18.833 -30.166 -31.5 -41.499c-30 -27.333 -73 -41 -129 -41h-123zM180.998 -99.002c0 -24 5.16895 -39.833 15.502 -47.5s26.166 -11.5 47.499 -11.5h82c23.333 0 38.666 4.83301 45.999 14.5s11 23.5 11 41.5v39c0 16 -4 28 -12 36
s-21.333 12.333 -40 13h-108l-42 3v-88zM179 343.998c0 -54.667 21.334 -82 64.001 -82h56c45.333 0 68 26 68 78c0 30 -5.33301 50.833 -16 62.5s-28.334 17.5 -53.001 17.5h-53c-26 0 -43.5 -6.83301 -52.5 -20.5s-13.5 -32.167 -13.5 -55.5z" />
    <glyph glyph-name="Gdotaccent" unicode="&#x120;" horiz-adv-x="614" 
d="M266 823l0.000976562 76c0 16.667 8 25 24 25h72c7.33301 0 13 -2.33301 17 -7s6 -10.667 6 -18v-76c0 -15.333 -7.66699 -23 -23 -23h-72c-6.66699 0 -12.334 2.16699 -17.001 6.5s-7 9.83301 -7 16.5zM46.501 249.5c-3 34.333 -4.50195 74.3359 -4.50195 120.003
s1.83301 86 5.5 121s10.667 68.667 21 101s24.5 59.166 42.5 80.499c38 45.333 94.667 68 170 68c56.667 0 104.834 -2.16699 144.501 -6.5s85.167 -12.833 136.5 -25.5v-109c-0.666992 0 -6.16699 0.666992 -16.5 2s-24 2.83301 -41 4.5s-35.5 3.16699 -55.5 4.5
c-48 4 -93 6 -135 6c-53.333 0 -88.666 -17.833 -105.999 -53.5s-26 -101.167 -26 -196.5s8 -159 24 -191c16.667 -32.667 50.667 -49 102 -49c20 0 40.5 3.83301 61.5 11.5s36.833 15.167 47.5 22.5l16 12v131h-102v89c39.333 16 97.333 24 174 24
c21.333 0 44 -0.666992 68 -2v-414h-100l-38 49c-23.333 -22 -48.333 -36.333 -75 -43c-72.667 -18 -134 -16 -184 6c-29.333 12.667 -52.5 29.667 -69.5 51s-30.5 49.166 -40.5 83.499s-16.5 68.666 -19.5 102.999z" />
    <glyph glyph-name="gdotaccent" unicode="&#x121;" horiz-adv-x="560" 
d="M221 620l0.000976562 76c0 16.667 8 25 24 25h72c7.33301 0 13 -2.33301 17 -7s6 -10.667 6 -18v-76c0 -15.333 -7.66699 -23 -23 -23h-72c-6.66699 0 -12.334 2.16699 -17.001 6.5s-7 9.83301 -7 16.5zM202.001 149c-26.667 0 -40.002 -7.66992 -40.002 -23.0029
c0 -10.667 3.5 -17.834 10.5 -21.501s16.833 -5.5 29.5 -5.5h163c49.333 0 87.833 -13.167 115.5 -39.5s41.5 -65.5 41.5 -117.5v-58c0 -77.333 -33 -125.666 -99 -144.999c-19.333 -6 -41.666 -9 -66.999 -9h-150c-78 0 -129 28.667 -153 86c-8.66699 19.333 -13 42 -13 68
v67l47 49c-20.667 11.333 -35.667 30.333 -45 57c-4.66699 14 -7 30.667 -7 50s5.16699 37.5 15.5 54.5s25.833 28.833 46.5 35.5c-20 12.667 -34.667 32.667 -44 60s-14 56.333 -14 87c0 126 61.333 189 184 189h323v-83l-59 -18c0 -0.666992 1 -3.5 3 -8.5
s3.16699 -8 3.5 -9s1.33301 -3.83301 3 -8.5s2.83398 -8.33398 3.50098 -11.001s1.5 -6.66699 2.5 -12s1.83301 -10.666 2.5 -15.999c1.33301 -14.667 2 -29.167 2 -43.5s-1.5 -29.166 -4.5 -44.499s-8.66699 -31.166 -17 -47.499s-18.833 -30.166 -31.5 -41.499
c-30 -27.333 -73 -41 -129 -41h-123zM180.999 -99.0029c0 -24 5.16895 -39.833 15.502 -47.5s26.166 -11.5 47.499 -11.5h82c23.333 0 38.666 4.83301 45.999 14.5s11 23.5 11 41.5v39c0 16 -4 28 -12 36s-21.333 12.333 -40 13h-108l-42 3v-88zM179.001 343.997
c0 -54.667 21.334 -82 64.001 -82h56c45.333 0 68 26 68 78c0 30 -5.33301 50.833 -16 62.5s-28.334 17.5 -53.001 17.5h-53c-26 0 -43.5 -6.83301 -52.5 -20.5s-13.5 -32.167 -13.5 -55.5z" />
    <glyph glyph-name="Gcommaaccent" unicode="&#x122;" horiz-adv-x="614" 
d="M253 -179v78.001c0 16 7.66699 24 23 24h75c14.667 0 22 -8 22 -24v-111c0 -18.667 -4 -33.834 -12 -45.501s-17.667 -19.167 -29 -22.5c-14 -4 -26.5 -6 -37.5 -6s-19.167 0.666992 -24.5 2l-12 3v44c8 -0.666992 14.333 0.333008 19 3c6 4 9 10.667 9 20v12h-10
c-15.333 0 -23 7.66699 -23 23zM46.5 249.501c-3 34.333 -4.50195 74.3359 -4.50195 120.003s1.83301 86 5.5 121s10.667 68.667 21 101s24.5 59.166 42.5 80.499c38 45.333 94.667 68 170 68c56.667 0 104.834 -2.16699 144.501 -6.5s85.167 -12.833 136.5 -25.5v-109
c-0.666992 0 -6.16699 0.666992 -16.5 2s-24 2.83301 -41 4.5s-35.5 3.16699 -55.5 4.5c-48 4 -93 6 -135 6c-53.333 0 -88.666 -17.833 -105.999 -53.5s-26 -101.167 -26 -196.5s8 -159 24 -191c16.667 -32.667 50.667 -49 102 -49c20 0 40.5 3.83301 61.5 11.5
s36.833 15.167 47.5 22.5l16 12v131h-102v89c39.333 16 97.333 24 174 24c21.333 0 44 -0.666992 68 -2v-414h-100l-38 49c-23.333 -22 -48.333 -36.333 -75 -43c-72.667 -18 -134 -16 -184 6c-29.333 12.667 -52.5 29.667 -69.5 51s-30.5 49.166 -40.5 83.499
s-16.5 68.666 -19.5 102.999z" />
    <glyph glyph-name="gcommaaccent" unicode="&#x123;" horiz-adv-x="560" 
d="M216 617v110.999c0 18.667 4 33.834 12 45.501s17.333 19.167 28 22.5c14 4 26.5 6 37.5 6s19.5 -0.666992 25.5 -2l12 -3v-43c-8 0 -14.333 -1.33301 -19 -4c-6 -4 -9 -10.333 -9 -19v-13h10c14.667 0 22 -7.33301 22 -22v-79c0 -16 -7.33301 -24 -22 -24h-76
c-14 0 -21 8 -21 24zM35 101.999c0 24 5.16504 44.6631 15.498 61.9961s25.833 28.333 46.5 33c-20 12.667 -34.667 32.667 -44 60s-14 56.333 -14 87c0 126 61.333 189 184 189h323v-83l-59 -18c0 -0.666992 1 -3.5 3 -8.5s3.16699 -8 3.5 -9s1.33301 -3.83301 3 -8.5
s2.83398 -8.33398 3.50098 -11.001s1.5 -6.66699 2.5 -12s1.83301 -10.666 2.5 -15.999c1.33301 -14.667 2 -29.167 2 -43.5s-1.5 -29.166 -4.5 -44.499s-8.66699 -31.166 -17 -47.499s-18.833 -30.166 -31.5 -41.499c-30 -27.333 -73 -41 -129 -41h-123
c-26.667 0 -40 -8 -40 -24c0 -7.33301 2.16699 -13 6.5 -17s8.5 -6.33301 12.5 -7s11 -1.66699 21 -3l160 -19c52.667 -5.33301 92.5 -19.833 119.5 -43.5s40.5 -63.167 40.5 -118.5v-33c0 -77.333 -33 -125.666 -99 -144.999c-19.333 -6 -41.666 -9 -66.999 -9h-150
c-78 0 -129 28.667 -153 86c-8.66699 19.333 -13 42 -13 68v73l52 48c-38 20.667 -57 53 -57 97zM180.998 -99.0049c0 -24 5.16797 -39.667 15.501 -47s25.833 -11 46.5 -11h83c23.333 0 38.666 4.66699 45.999 14s11 23 11 41v20c0 28 -20.333 44.333 -61 49l-141 17v-83z
M244.999 425.995c-44 0 -65.999 -28.333 -65.999 -85s21.333 -85 64 -85h56c45.333 0 68 28 68 84c0 32 -5.33301 54.333 -16 67s-28.334 19 -53.001 19h-53z" />
    <glyph glyph-name="Hcircumflex" unicode="&#x124;" horiz-adv-x="636" 
d="M172 797l108 135h104l96 -135h-92l-59 60l-63 -60h-94zM61 0v732h140v-314h251v314h140v-732h-140v290h-251v-290h-140z" />
    <glyph glyph-name="hcircumflex" unicode="&#x125;" 
d="M-78 843l107 135h104l97 -135h-93l-59 60l-62 -60h-94zM3 0l-0.000976562 783h140v-309c47.333 34.667 86 55 116 61c16 3.33301 33.667 5 53 5c105.333 0 158 -62 158 -186v-354h-140v356c0 48 -19.333 72 -58 72c-27.333 0 -50.166 -3.5 -68.499 -10.5
s-38.5 -18.833 -60.5 -35.5v-382h-140z" />
    <glyph glyph-name="Hbar" unicode="&#x126;" horiz-adv-x="686" 
d="M15 516v65h63v151h140v-151h251v151h140v-151h62v-65h-62v-516h-140v290h-251v-290h-140v516h-63zM218 418h251v98h-251v-98z" />
    <glyph glyph-name="hbar" unicode="&#x127;" horiz-adv-x="564" 
d="M376 540c100.667 0 150.998 -62.002 150.998 -186.002v-354h-141v355c-0.666992 25.333 -5.66699 43.833 -15 55.5s-24.666 17.5 -45.999 17.5c-43.333 -1.33301 -84.666 -16.666 -123.999 -45.999v-382h-141v604h-68v66h68v113h141v-113h112v-66h-112v-130l21.5 14
c10.333 6.66699 18 11.334 23 14.001l21.5 11.5c9.33301 5 17.333 8.66699 24 11s14.667 4.83301 24 7.5c16.667 5.33301 30.667 8 42 8h19z" />
    <glyph glyph-name="Itilde" unicode="&#x128;" horiz-adv-x="245" 
d="M190 887c25.333 0 54.667 12.667 88 38l24 -60c-41.333 -45.333 -78.333 -68 -111 -68c-17.333 0 -37.5 5.83301 -60.5 17.5s-39.167 17.5 -48.5 17.5s-17.166 -0.5 -23.499 -1.5s-11.666 -2 -15.999 -3s-9.5 -3 -15.5 -6l-13 -6.5
c-2.66699 -1.33301 -7.83398 -4.33301 -15.501 -9s-12.834 -7.66699 -15.501 -9l-24 55c42.667 46.667 83 70 121 70c16 -0.666992 35 -6.66699 57 -18s36 -17 42 -17h11zM61.001 0v732h140v-732h-140z" />
    <glyph glyph-name="itilde" unicode="&#x129;" horiz-adv-x="230" 
d="M175 686c25.333 0 54.668 12.667 88.001 38l24 -60c-41.333 -45.333 -78.666 -68 -111.999 -68c-16.667 0 -36.667 5.83301 -60 17.5s-39.5 17.5 -48.5 17.5s-16.833 -0.5 -23.5 -1.5s-12 -2 -16 -3s-9 -3 -15 -6l-13 -6.5
c-2.66699 -1.33301 -7.83398 -4.33301 -15.501 -9s-12.834 -7.66699 -15.501 -9l-24 55c42.667 46.667 83 70 121 70c16 -0.666992 35 -6.66699 57 -18s36 -17 42 -17h11zM46.002 0v531h140v-531h-140z" />
    <glyph glyph-name="Imacron" unicode="&#x12a;" horiz-adv-x="245" 
d="M-15 797v79h292v-79h-292zM61 0v732h140v-732h-140z" />
    <glyph glyph-name="imacron" unicode="&#x12b;" horiz-adv-x="230" 
d="M-30 596v80h292v-80h-292zM46 0v531h140v-531h-140z" />
    <glyph glyph-name="Iogonek" unicode="&#x12e;" horiz-adv-x="245" 
d="M174 -186c-9.33301 -2 -19 -2.99902 -29 -2.99902s-23 2.5 -39 7.5s-30 14.833 -42 29.5c-17.333 20.667 -26 39.667 -26 57c0 39.333 24 71 72 95h55c-44 -32.667 -57.667 -62.334 -41 -89.001c9.33301 -14.667 26 -21.667 50 -21v-76zM61 0.000976562v732h140v-732
h-140z" />
    <glyph glyph-name="iogonek" unicode="&#x12f;" horiz-adv-x="227" 
d="M154 -186c-8.66699 -2 -18.167 -2.99902 -28.5 -2.99902s-23.333 2.5 -39 7.5s-29.5 14.833 -41.5 29.5c-17.333 20.667 -26 39.667 -26 57c0 39.333 23.667 71 71 95h55c-44 -32.667 -57.667 -62.334 -41 -89.001c9.33301 -14.667 26 -21.667 50 -21v-76zM38 610.001
l-0.000976562 88c0 17.333 8 26 24 26h105c14.667 0 22 -8.66699 22 -26v-88c0 -15.333 -7.33301 -23 -22 -23h-105c-7.33301 0 -13.166 2 -17.499 6s-6.5 9.66699 -6.5 17zM42.999 0.000976562v531h140v-531h-140z" />
    <glyph glyph-name="Idotaccent" unicode="&#x130;" horiz-adv-x="245" 
d="M71 820l0.000976562 76c0 16.667 8 25 24 25h72c7.33301 0 13 -2.33301 17 -7s6 -10.667 6 -18v-76c0 -15.333 -7.66699 -23 -23 -23h-72c-6.66699 0 -12.334 2.16699 -17.001 6.5s-7 9.83301 -7 16.5zM61.001 0v732h140v-732h-140z" />
    <glyph glyph-name="dotlessi" unicode="&#x131;" horiz-adv-x="230" 
d="M46 0v531h140v-531h-140z" />
    <glyph glyph-name="Jcircumflex" unicode="&#x134;" horiz-adv-x="356" 
d="M87 797l108 135h104l97 -135h-93l-59 60l-63 -60h-94zM259 18c-25.333 -15.333 -63.1689 -22.999 -113.502 -22.999s-89.833 9.33301 -118.5 28l2 109c22.667 -2 39.834 -3 51.501 -3s20.167 0.333008 25.5 1c43.333 1.33301 65.333 33.333 66 96v506h140v-567
c0 -20.667 -0.833008 -38.334 -2.5 -53.001s-6.66699 -31.5 -15 -50.5s-20.166 -33.5 -35.499 -43.5z" />
    <glyph glyph-name="jcircumflex" unicode="&#x135;" horiz-adv-x="242" 
d="M-30 596l108 149h103l97 -149h-88l-65 69l-66 -69h-89zM54 -270v801h142v-535v-16c0 -106.667 -12.333 -190 -37 -250h-105z" />
    <glyph glyph-name="Kcommaaccent" unicode="&#x136;" horiz-adv-x="628" 
d="M253 -174v78.001c0 16 7.33301 24 22 24h76c14 0 21 -8 21 -24v-111c0 -18.667 -3.83301 -33.834 -11.5 -45.501s-17.167 -19.167 -28.5 -22.5c-14 -4 -26.5 -6 -37.5 -6s-19.5 0.666992 -25.5 2l-12 3v44c8 -0.666992 14.333 0.333008 19 3c6 4 9 10.333 9 19v13h-10
c-14.667 0 -22 7.66699 -22 23zM61 0.000976562v732h134v-306h59l186 306h163l-224 -367l224 -365h-163l-186 302h-58v-302h-135z" />
    <glyph glyph-name="kcommaaccent" unicode="&#x137;" horiz-adv-x="557" 
d="M215 -174v78.001c0 16 7.66699 24 23 24h76c14 0 21 -8 21 -24v-111c0 -18.667 -4 -33.834 -12 -45.501s-17.667 -19.167 -29 -22.5c-13.333 -4 -25.5 -6 -36.5 -6s-19.5 0.666992 -25.5 2l-12 3v44c8 -0.666992 14.333 0.333008 19 3c6 4 9 10.333 9 19v13h-10
c-15.333 0 -23 7.66699 -23 23zM46 0.000976562v782h140v-429h29l150 178h178l-199 -231l199 -300h-167l-161 246h-29v-246h-140z" />
    <glyph glyph-name="kgreenlandic" unicode="&#x138;" horiz-adv-x="569" 
d="M46 0v531h140v-215h51l149 215h168l-191 -267l172 -264h-164l-137 210h-47l-1 -210h-140z" />
    <glyph glyph-name="Lacute" unicode="&#x139;" horiz-adv-x="539" 
d="M85 797l91 139h122l-122 -139h-91zM61 142v589.999h140v-551c0 -25.333 7 -40.666 21 -45.999c10 -4 23.667 -6 41 -6h251v-129h-301c-101.333 -0 -152 47.333 -152 142z" />
    <glyph glyph-name="lacute" unicode="&#x13a;" horiz-adv-x="313" 
d="M84 843l91 139h122l-122 -139h-91zM46 189v594h140v-572c0 -35.333 3.66699 -60 11 -74s19 -24 35 -30c40 -14 62.333 -21 67 -21v-86h-116c-45.333 0 -79.5 14.5 -102.5 43.5s-34.5 77.5 -34.5 145.5z" />
    <glyph glyph-name="Lcommaaccent" unicode="&#x13b;" horiz-adv-x="539" 
d="M234 -172v79.001c0 16 7.66699 24 23 24h75c14.667 0 22 -8 22 -24v-111c0 -18.667 -4 -33.834 -12 -45.501s-17.667 -19.167 -29 -22.5c-14 -4 -26.5 -6 -37.5 -6s-19.5 0.666992 -25.5 2l-11 3v43c8 0 14.333 1.33301 19 4c5.33301 4 8 10.333 8 19v13h-9
c-15.333 0 -23 7.33301 -23 22zM61 142.001v589.999h140v-551c0 -25.333 7 -40.666 21 -45.999c10 -4 23.667 -6 41 -6h251v-129h-301c-101.333 0 -152 47.333 -152 142z" />
    <glyph glyph-name="lcommaaccent" unicode="&#x13c;" horiz-adv-x="313" 
d="M112 -172v78.001c0 16 7.33301 24 22 24h76c14 0 21 -8 21 -24v-111c0 -18.667 -3.83301 -33.667 -11.5 -45s-17.167 -18.666 -28.5 -21.999c-14 -4 -26.5 -6 -37.5 -6s-19.5 0.666992 -25.5 2l-12 2v44c8.66699 -0.666992 15 0.666016 19 3.99902
c6 3.33301 9 9.66602 9 18.999v12h-10c-14.667 0 -22 7.66699 -22 23zM46 189.001v594h140v-572c0 -35.333 3.66699 -60 11 -74s19 -24 35 -30c40 -14 62.333 -21 67 -21v-86h-116c-45.333 0 -79.5 14.5 -102.5 43.5s-34.5 77.5 -34.5 145.5z" />
    <glyph glyph-name="Lcaron" unicode="&#x13d;" horiz-adv-x="539" 
d="M61 142v589.999h140v-551c0 -25.333 7 -40.666 21 -45.999c10 -4 23.667 -6 41 -6h251v-129h-301c-101.333 -0 -152 47.333 -152 142zM263 771.999h96v-67l-10 -134h-75l-11 134v67z" />
    <glyph glyph-name="lcaron" unicode="&#x13e;" horiz-adv-x="358" 
d="M46 189v594.001h140v-572c0 -36 3.33301 -60.667 10 -74s18.667 -23.333 36 -30c40 -14 62.333 -21 67 -21v-86h-116c-48 0 -82.833 14.167 -104.5 42.5s-32.5 77.166 -32.5 146.499zM251 782.001h96v-67l-10 -134h-75l-11 134v67z" />
    <glyph glyph-name="Lslash" unicode="&#x141;" horiz-adv-x="570" 
d="M92 732l139.999 -0.000976562v-262l113 48l-1 -71l-112 -49v-217c0 -25.333 7 -40.666 21 -45.999c10.667 -4 24.334 -6 41.001 -6h251v-129h-300c-102 -0 -153 47.333 -153 142v196l-78 -33v72l78 33v322z" />
    <glyph glyph-name="lslash" unicode="&#x142;" horiz-adv-x="357" 
d="M86 783h140v-269l115 50v-72l-115 -50v-231c0 -35.333 3.66699 -60 11 -74s19 -24 35 -30c40 -14 62.333 -21 67 -21v-86h-116c-45.333 0 -79.5 14.5 -102.5 43.5s-34.5 77.5 -34.5 145.5v194l-75 -33v72l75 32v329z" />
    <glyph glyph-name="Nacute" unicode="&#x143;" horiz-adv-x="678" 
d="M306 797l90 139h123l-122 -139h-91zM61 0v732h142l290 -473v473h140v-732h-140l-291 468v-468h-141z" />
    <glyph glyph-name="nacute" unicode="&#x144;" 
d="M232 600l91 138h122l-122 -138h-91zM46 0l0.000976562 531.001h112l28 -57c48.667 35.333 87.334 55.666 116.001 60.999c15.333 3.33301 32.666 5 51.999 5c106 0 159 -62 159 -186v-354h-140v356c0 48 -19.667 72 -59 72c-26.667 0 -49.334 -3.5 -68.001 -10.5
s-38.667 -18.833 -60 -35.5v-382h-140z" />
    <glyph glyph-name="Ncommaaccent" unicode="&#x145;" horiz-adv-x="678" 
d="M283 -174v78.001c0 16 7.66699 24 23 24h76c14 0 21 -8 21 -24v-111c0 -18.667 -4 -33.834 -12 -45.501s-17.667 -19.167 -29 -22.5c-13.333 -4 -25.5 -6 -36.5 -6s-19.5 0.666992 -25.5 2l-12 3v44c8 -0.666992 14.333 0.333008 19 3c6 4 9 10.333 9 19v13h-10
c-15.333 0 -23 7.66699 -23 23zM61 0.000976562v732h142l290 -473v473h140v-732h-140l-291 468v-468h-141z" />
    <glyph glyph-name="ncommaaccent" unicode="&#x146;" 
d="M216 -174v78.001c0 16 7.66699 24 23 24h75c14.667 0 22 -8 22 -24v-111c0 -18.667 -4 -33.834 -12 -45.501s-17.667 -19.167 -29 -22.5c-14 -4 -26.5 -6 -37.5 -6s-19.167 0.666992 -24.5 2l-12 3v44c8 -0.666992 14.333 0.333008 19 3c6 4 9 10.333 9 19v13h-10
c-15.333 0 -23 7.66699 -23 23zM46 0.000976562l0.000976562 531.001h112l28 -57c48.667 35.333 87.334 55.666 116.001 60.999c15.333 3.33301 32.666 5 51.999 5c106 0 159 -62 159 -186v-354h-140v356c0 48 -19.667 72 -59 72c-26.667 0 -49.334 -3.5 -68.001 -10.5
s-38.667 -18.833 -60 -35.5v-382h-140z" />
    <glyph glyph-name="Ncaron" unicode="&#x147;" horiz-adv-x="678" 
d="M197 932h94l63 -60l58 60h94l-102 -135h-104zM61 0v732h142l290 -473v473h140v-732h-140l-291 468v-468h-141z" />
    <glyph glyph-name="ncaron" unicode="&#x148;" 
d="M130 736h93l63 -60l59 60h93l-101 -136h-104zM46 0l0.000976562 531.001h112l28 -57c48.667 35.333 87.334 55.666 116.001 60.999c15.333 3.33301 32.666 5 51.999 5c106 0 159 -62 159 -186v-354h-140v356c0 48 -19.667 72 -59 72
c-26.667 0 -49.334 -3.5 -68.001 -10.5s-38.667 -18.833 -60 -35.5v-382h-140z" />
    <glyph glyph-name="Eng" unicode="&#x14a;" horiz-adv-x="677" 
d="M61 0l-0.00292969 732.003h142l289 -469v469h140v-805c0 -67.333 -18.167 -114.833 -54.5 -142.5s-78.166 -41.5 -125.499 -41.5h-29.5h-42.5v101c2.66699 0.666992 9.16699 1.66699 19.5 3s17.333 2.16602 21 2.49902s9.83398 1.66602 18.501 3.99902
s14.667 4.66602 18 6.99902s7.83301 5.83301 13.5 10.5s9.83398 9.66699 12.501 15c6 15.333 9 32 9 50v64l-290 468l-1 -468h-140z" />
    <glyph glyph-name="eng" unicode="&#x14b;" horiz-adv-x="557" 
d="M354 540c106 0 159 -62 159 -186v-354l-1 -68c-1.33301 -51.333 -14 -91.666 -38 -120.999c-24.667 -28.667 -51 -48.334 -79 -59.001c-28 -10 -54.333 -16.667 -79 -20l-36 76c38.667 15.333 63.334 31 74.001 47c12 18.667 18.333 43 19 73v428c0 48 -19.667 72 -59 72
c-26.667 0 -49.334 -3.5 -68.001 -10.5s-38.667 -18.833 -60 -35.5v-382h-140v531h112l28 -57l29 19c13.333 8.66699 23.5 15 30.5 19s16.5 8.66699 28.5 14c22 9.33301 48.667 14 80 14z" />
    <glyph glyph-name="Omacron" unicode="&#x14c;" horiz-adv-x="671" 
d="M198 797v79h292v-79h-292zM54 261c-2.66699 30 -3.99902 66.168 -3.99902 108.501s2.5 82.333 7.5 120s11.833 69.667 20.5 96s20.334 48.833 35.001 67.5s29.5 33.334 44.5 44.001s33.5 19 55.5 25c34.667 10 71.167 15 109.5 15s66.333 -0.666992 84 -2
s36.334 -4.16602 56.001 -8.49902s36.5 -10.5 50.5 -18.5s28.167 -18.167 42.5 -30.5s26.166 -28 35.499 -47s17.666 -40.833 24.999 -65.5c14.667 -49.333 22 -107 22 -173s-2.5 -116.833 -7.5 -152.5s-11.5 -66.334 -19.5 -92.001s-18.833 -47.667 -32.5 -66
s-28 -33 -43 -44s-33.167 -19.5 -54.5 -25.5c-49.333 -14.667 -114.333 -19.334 -195 -14.001c-41.333 2 -71.333 7 -90 15s-34.834 16.5 -48.501 25.5s-25.167 20 -34.5 33s-18.333 28.667 -27 47s-15.5 39.166 -20.5 62.499s-8.83301 50 -11.5 80zM193.001 448.001
c-2 -24.667 -3 -55.667 -3 -93s1.33301 -69.166 4 -95.499s7.16699 -48.833 13.5 -67.5s15.833 -32.667 28.5 -42c22.667 -16.667 58.667 -25 108 -25c46.667 0 81.667 8.66699 105 26c32.667 24.667 49 94.667 49 210c0 78 -4.16699 129.667 -12.5 155s-16 43.333 -23 54
s-16.833 19 -29.5 25c-20.667 8.66699 -45 13 -73 13s-47.5 -0.5 -58.5 -1.5s-22.667 -3.16699 -35 -6.5s-22 -8.5 -29 -15.5s-14 -16.5 -21 -28.5s-12.167 -26.833 -15.5 -44.5s-6 -38.834 -8 -63.501z" />
    <glyph glyph-name="omacron" unicode="&#x14d;" horiz-adv-x="560" 
d="M134 596v80h292v-80h-292zM38 255c0 46 2.66797 84.5 8.00098 115.5s13.666 57.333 24.999 79s27 38.834 47 51.501c36.667 23.333 90.667 35 162 35c91.333 0 154.5 -20 189.5 -60s52.5 -111.167 52.5 -213.5s-17.167 -172.5 -51.5 -210.5s-97.833 -57 -190.5 -57
c-90.667 0 -154 20.333 -190 61c-34.667 39.333 -52 105.666 -52 198.999zM182.001 346.5c-2.66699 -21 -4 -49.4971 -4 -85.4971s1.66699 -64 5 -84s9.5 -35.167 18.5 -45.5s19.167 -16.833 30.5 -19.5s26.666 -4 45.999 -4s33.833 0.666992 43.5 2s19 4.66602 28 9.99902
s15.5 13.666 19.5 24.999c8.66699 24 13 55.167 13 93.5s-0.5 66.166 -1.5 83.499s-3.16699 32.333 -6.5 45s-7.16602 22.5 -11.499 29.5s-10.5 12.833 -18.5 17.5c-13.333 6.66699 -33 10 -59 10s-44.833 -1.66699 -56.5 -5s-21.667 -11 -30 -23s-13.833 -28.5 -16.5 -49.5
z" />
    <glyph glyph-name="Ohungarumlaut" unicode="&#x150;" horiz-adv-x="671" 
d="M221 797l90 139h123l-122 -139h-91zM376 797l91 139h123l-122 -139h-92zM54 261c-2.66699 30 -3.99902 66.168 -3.99902 108.501s2.5 82.333 7.5 120s11.833 69.667 20.5 96s20.334 48.833 35.001 67.5s29.5 33.334 44.5 44.001s33.5 19 55.5 25
c34.667 10 71.167 15 109.5 15s66.333 -0.666992 84 -2s36.334 -4.16602 56.001 -8.49902s36.5 -10.5 50.5 -18.5s28.167 -18.167 42.5 -30.5s26.166 -28 35.499 -47s17.666 -40.833 24.999 -65.5c14.667 -49.333 22 -107 22 -173s-2.5 -116.833 -7.5 -152.5
s-11.5 -66.334 -19.5 -92.001s-18.833 -47.667 -32.5 -66s-28 -33 -43 -44s-33.167 -19.5 -54.5 -25.5c-49.333 -14.667 -114.333 -19.334 -195 -14.001c-41.333 2 -71.333 7 -90 15s-34.834 16.5 -48.501 25.5s-25.167 20 -34.5 33s-18.333 28.667 -27 47
s-15.5 39.166 -20.5 62.499s-8.83301 50 -11.5 80zM193.001 448.001c-2 -24.667 -3 -55.667 -3 -93s1.33301 -69.166 4 -95.499s7.16699 -48.833 13.5 -67.5s15.833 -32.667 28.5 -42c22.667 -16.667 58.667 -25 108 -25c46.667 0 81.667 8.66699 105 26
c32.667 24.667 49 94.667 49 210c0 78 -4.16699 129.667 -12.5 155s-16 43.333 -23 54s-16.833 19 -29.5 25c-20.667 8.66699 -45 13 -73 13s-47.5 -0.5 -58.5 -1.5s-22.667 -3.16699 -35 -6.5s-22 -8.5 -29 -15.5s-14 -16.5 -21 -28.5s-12.167 -26.833 -15.5 -44.5
s-6 -38.834 -8 -63.501z" />
    <glyph glyph-name="ohungarumlaut" unicode="&#x151;" horiz-adv-x="560" 
d="M157 596l90 138h123l-122 -138h-91zM313 596l90 138h123l-122 -138h-91zM38 255c0 46 2.66797 84.5 8.00098 115.5s13.666 57.333 24.999 79s27 38.834 47 51.501c36.667 23.333 90.667 35 162 35c91.333 0 154.5 -20 189.5 -60s52.5 -111.167 52.5 -213.5
s-17.167 -172.5 -51.5 -210.5s-97.833 -57 -190.5 -57c-90.667 0 -154 20.333 -190 61c-34.667 39.333 -52 105.666 -52 198.999zM182.001 346.5c-2.66699 -21 -4 -49.4971 -4 -85.4971s1.66699 -64 5 -84s9.5 -35.167 18.5 -45.5s19.167 -16.833 30.5 -19.5
s26.666 -4 45.999 -4s33.833 0.666992 43.5 2s19 4.66602 28 9.99902s15.5 13.666 19.5 24.999c8.66699 24 13 55.167 13 93.5s-0.5 66.166 -1.5 83.499s-3.16699 32.333 -6.5 45s-7.16602 22.5 -11.499 29.5s-10.5 12.833 -18.5 17.5c-13.333 6.66699 -33 10 -59 10
s-44.833 -1.66699 -56.5 -5s-21.667 -11 -30 -23s-13.833 -28.5 -16.5 -49.5z" />
    <glyph glyph-name="OE" unicode="&#x152;" horiz-adv-x="1008" 
d="M193 448c-2 -24.667 -3 -55.667 -3 -93s1.33301 -69.166 4 -95.499s7.16699 -48.833 13.5 -67.5s15.833 -32.667 28.5 -42c22.667 -16.667 56.5 -25 101.5 -25s78 6 99 18s36.333 34.833 46 68.5s14.5 76.5 14.5 128.5s-1.16699 91.5 -3.5 118.5s-6.33301 49.667 -12 68
s-12 32.833 -19 43.5s-17.167 19 -30.5 25c-20 8.66699 -44.167 13 -72.5 13s-48 -0.5 -59 -1.5s-22.5 -3.16699 -34.5 -6.5s-21.5 -8.5 -28.5 -15.5s-14 -16.5 -21 -28.5s-12.167 -26.833 -15.5 -44.5s-6 -38.834 -8 -63.501zM54 261
c-2.66699 30 -3.99902 66.167 -3.99902 108.5s2.5 82.333 7.5 120s11.833 69.667 20.5 96s20.167 48.833 34.5 67.5s29.166 33.334 44.499 44.001s33.666 19 54.999 25c34.667 10 72.667 15 114 15s72.333 -1 93 -3c50 -5.33301 89.667 -21 119 -47
c23.333 30 58.666 45 105.999 45c4 0 48.167 -1.16699 132.5 -3.5s148.166 -6.5 191.499 -12.5v-116h-279c-24.667 0 -40 -6 -46 -18c-4 -9.33301 -6 -22 -6 -38v-114l285 -10v-116l-285 -9v-114c0 -25.333 7 -40.666 21 -45.999c10.667 -4 24.334 -6 41.001 -6h269v-115
c-34 -4.66699 -113.667 -9.33398 -239 -14.001l-63 -3h-17c-53.333 0 -91.666 15 -114.999 45c-22.667 -17.333 -49.167 -29.333 -79.5 -36s-61.833 -10 -94.5 -10s-57.334 0.5 -74.001 1.5s-34 3 -52 6s-33.667 7.33301 -47 13s-26.666 13 -39.999 22
s-24.666 20 -33.999 33s-18.333 28.667 -27 47s-15.5 39.166 -20.5 62.499s-8.83301 50 -11.5 80z" />
    <glyph glyph-name="oe" unicode="&#x153;" horiz-adv-x="868" 
d="M50 136.5c-8 32.333 -12.0039 74.3369 -12.0039 126.004s4 95.167 12 130.5s22 63.666 42 84.999s44.833 36.333 74.5 45s67.5 13 113.5 13c77.333 0 133 -15 167 -45c16.667 16.667 38 28.167 64 34.5s56.667 9.5 92 9.5s62.333 -0.666992 81 -2
s37.334 -4.33301 56.001 -9s33.334 -11.334 44.001 -20.001s20.667 -20 30 -34c16 -26 24 -69 24 -129c0 -60.667 -22 -100.334 -66 -119.001c-22 -9.33301 -49.333 -14 -82 -14h-168v-19c0 -10.667 1.83301 -22.5 5.5 -35.5s10.834 -22.833 21.501 -29.5
c16.667 -11.333 45 -17 85 -17c82 0 147 3.33301 195 10v-94c-36 -13.333 -74.667 -21 -116 -23c-54 -3.33301 -106.5 -5 -157.5 -5s-88.5 13.667 -112.5 41c-33.333 -27.333 -87.666 -41 -162.999 -41c-90.667 0 -154 20.333 -190 61c-18.667 21.333 -32 48.166 -40 80.499
zM181.996 346.504c-2.66699 -21 -3.99805 -49.5 -3.99805 -85.5s1.66699 -64 5 -84s9.5 -35.167 18.5 -45.5s19.167 -17 30.5 -20s26.333 -4.5 45 -4.5s33.167 0.833008 43.5 2.5s19.5 5 27.5 10s14 10.833 18 17.5s7.33301 16.667 10 30c4 20 6 50.333 6 91
s-1.33301 70.5 -4 89.5s-7.83398 34.5 -15.501 46.5s-17.667 19.833 -30 23.5s-29.833 5.5 -52.5 5.5s-39.834 -1.5 -51.501 -4.5s-21.667 -10.5 -30 -22.5s-13.833 -28.5 -16.5 -49.5zM697.998 349.004c0 33.333 -4.33398 54.833 -13.001 64.5s-26.667 14.5 -54 14.5
s-46.5 -1 -57.5 -3s-21.167 -7 -30.5 -15s-15.166 -19 -17.499 -33s-3.5 -27.167 -3.5 -39.5v-28.5h132c29.333 0 44 13.333 44 40z" />
    <glyph glyph-name="Racute" unicode="&#x154;" horiz-adv-x="607" 
d="M259 795l90 138h123l-122 -138h-91zM51 0l0.000976562 732.001h320c97.333 0 159 -39.667 185 -119c10 -30.667 15 -62.834 15 -96.501s-1.66699 -60.667 -5 -81s-7 -37.333 -11 -51s-9.83301 -26.167 -17.5 -37.5s-14.334 -19.833 -20.001 -25.5
s-13.167 -11.167 -22.5 -16.5c-11.333 -6 -25 -11.667 -41 -17l139 -288h-158l-121 277l-123 14v-291h-140zM192.001 401.001h166c26 0 44.5 6.66699 55.5 20s16.5 40.333 16.5 81s-6 68.5 -18 83.5s-30 22.5 -54 22.5h-166v-207z" />
    <glyph glyph-name="racute" unicode="&#x155;" horiz-adv-x="417" 
d="M185 597l90 138h123l-122 -138h-91zM46 0l-0.000976562 531h118l22 -67c50 48 100.667 72 152 72c28.667 0 48.334 -2 59.001 -6v-135c-18.667 2 -44 3 -76 3s-58.5 -4.16699 -79.5 -12.5s-39.5 -23.833 -55.5 -46.5v-339h-140z" />
    <glyph glyph-name="Rcommaaccent" unicode="&#x156;" horiz-adv-x="607" 
d="M239 -171l-0.000976562 79.001c0 16 7.33301 24 22 24h76c14.667 0 22 -8 22 -24v-111c0 -18.667 -4 -33.834 -12 -45.501s-17.667 -19.167 -29 -22.5c-14 -4 -26.5 -6 -37.5 -6s-19.5 0.666992 -25.5 2l-12 3v43c8.66699 0 15.334 1.33301 20.001 4
c5.33301 4 8 10.333 8 19v13h-10c-14.667 0 -22 7.33301 -22 22zM50.999 0.000976562l0.000976562 732.001h320c97.333 0 159 -39.667 185 -119c10 -30.667 15 -62.834 15 -96.501s-1.66699 -60.667 -5 -81s-7 -37.333 -11 -51s-9.83301 -26.167 -17.5 -37.5
s-14.334 -19.833 -20.001 -25.5s-13.167 -11.167 -22.5 -16.5c-11.333 -6 -25 -11.667 -41 -17l139 -288h-158l-121 277l-123 14v-291h-140zM192 401.002h166c26 0 44.5 6.66699 55.5 20s16.5 40.333 16.5 81s-6 68.5 -18 83.5s-30 22.5 -54 22.5h-166v-207z" />
    <glyph glyph-name="rcommaaccent" unicode="&#x157;" horiz-adv-x="417" 
d="M48 -174l-0.000976562 78.001c0 16 7.33301 24 22 24h76c14.667 0 22 -8 22 -24v-111c0 -18.667 -4 -33.834 -12 -45.501s-17.667 -19.167 -29 -22.5c-14 -4 -26.5 -6 -37.5 -6s-19.5 0.666992 -25.5 2l-12 3v44c8.66699 -0.666992 15.334 0.333008 20.001 3
c5.33301 4 8 10.333 8 19v13h-10c-14.667 0 -22 7.66699 -22 23zM40.999 0.000976562l0.000976562 531h118l22 -67c50 48 101 72 153 72c28 0 47.667 -2 59 -6v-135c-19.333 2 -45 3 -77 3s-58.333 -4.16699 -79 -12.5s-39.334 -23.833 -56.001 -46.5v-339h-140z" />
    <glyph glyph-name="Rcaron" unicode="&#x158;" horiz-adv-x="607" 
d="M151 932h93l63 -60l59 60h93l-101 -135h-104zM51 0l0.000976562 732.001h320c97.333 0 159 -39.667 185 -119c10 -30.667 15 -62.834 15 -96.501s-1.66699 -60.667 -5 -81s-7 -37.333 -11 -51s-9.83301 -26.167 -17.5 -37.5s-14.334 -19.833 -20.001 -25.5
s-13.167 -11.167 -22.5 -16.5c-11.333 -6 -25 -11.667 -41 -17l139 -288h-158l-121 277l-123 14v-291h-140zM192.001 401.001h166c26 0 44.5 6.66699 55.5 20s16.5 40.333 16.5 81s-6 68.5 -18 83.5s-30 22.5 -54 22.5h-166v-207z" />
    <glyph glyph-name="rcaron" unicode="&#x159;" horiz-adv-x="417" 
d="M67 732h94l63 -60l58 60h94l-102 -136h-104zM46 0l-0.000976562 531h118l22 -67c50 48 100.667 72 152 72c28.667 0 48.334 -2 59.001 -6v-135c-18.667 2 -44 3 -76 3s-58.5 -4.16699 -79.5 -12.5s-39.5 -23.833 -55.5 -46.5v-339h-140z" />
    <glyph glyph-name="Sacute" unicode="&#x15a;" horiz-adv-x="590" 
d="M261 798l91 139h122l-122 -139h-91zM50 486l0.00292969 62.998c0 70 19 119.667 57 149c34.667 26 81.667 39.333 141 40h50.5c25.667 0 63.334 -2.66699 113.001 -8s89.5 -12.333 119.5 -21v-110c-76 6.66699 -136.5 10 -181.5 10h-72.5c-30 0 -52 -4 -66 -12
s-21 -27.667 -21 -59v-36c0 -28 5.66699 -46.667 17 -56s31.666 -14 60.999 -14h116c76 0 127 -30.333 153 -91c13.333 -30.667 20 -65 20 -103v-49c0 -89.333 -29.667 -147.666 -89 -174.999c-30.667 -14.667 -68.334 -22 -113.001 -22c-120.667 0 -215 10 -283 30v110
c73.333 -7.33301 136.666 -11 189.999 -11s83.666 0.333008 90.999 1s15.166 2.33398 23.499 5.00098s15.5 6.33398 21.5 11.001c12.667 10 19 25.333 19 46v39c0 23.333 -4.66699 40.666 -14 51.999s-26.666 17 -51.999 17h-112c-126 0 -189 64.667 -189 194z" />
    <glyph glyph-name="sacute" unicode="&#x15b;" horiz-adv-x="508" 
d="M211 598l90 139h123l-122 -139h-91zM30 347v46c0 95.333 46 143 138 143c158 0 252.667 -9 284 -27v-88h-241c-16.667 0 -27.667 -2.66699 -33 -8s-8 -15 -8 -29v-24c0 -10.667 2 -18.5 6 -23.5s8.5 -8 13.5 -9s12.167 -1.5 21.5 -1.5h126c48 0 83.5 -12.5 106.5 -37.5
s34.5 -58.5 34.5 -100.5v-54c0 -50 -12.333 -85.667 -37 -107s-55.667 -32 -93 -32c-168 0 -266.667 9.66699 -296 29v87h251c23.333 0 35 11.333 35 34v25c0 15.333 -3.5 24.833 -10.5 28.5s-15.167 5.5 -24.5 5.5h-124c-99.333 0 -149 47.667 -149 143z" />
    <glyph glyph-name="Scircumflex" unicode="&#x15c;" horiz-adv-x="590" 
d="M155 798l108 136h104l97 -136h-93l-59 60l-63 -60h-94zM50 486l0.00292969 62.998c0 70 19 119.667 57 149c34.667 26 81.667 39.333 141 40h50.5c25.667 0 63.334 -2.66699 113.001 -8s89.5 -12.333 119.5 -21v-110c-76 6.66699 -136.5 10 -181.5 10h-72.5
c-30 0 -52 -4 -66 -12s-21 -27.667 -21 -59v-36c0 -28 5.66699 -46.667 17 -56s31.666 -14 60.999 -14h116c76 0 127 -30.333 153 -91c13.333 -30.667 20 -65 20 -103v-49c0 -89.333 -29.667 -147.666 -89 -174.999c-30.667 -14.667 -68.334 -22 -113.001 -22
c-120.667 0 -215 10 -283 30v110c73.333 -7.33301 136.666 -11 189.999 -11s83.666 0.333008 90.999 1s15.166 2.33398 23.499 5.00098s15.5 6.33398 21.5 11.001c12.667 10 19 25.333 19 46v39c0 23.333 -4.66699 40.666 -14 51.999s-26.666 17 -51.999 17h-112
c-126 0 -189 64.667 -189 194z" />
    <glyph glyph-name="scircumflex" unicode="&#x15d;" horiz-adv-x="508" 
d="M101 596l108 136h104l96 -136h-93l-58 60l-63 -60h-94zM30 347v46c0 95.333 46 143 138 143c158 0 252.667 -9 284 -27v-88h-241c-16.667 0 -27.667 -2.66699 -33 -8s-8 -15 -8 -29v-24c0 -10.667 2 -18.5 6 -23.5s8.5 -8 13.5 -9s12.167 -1.5 21.5 -1.5h126
c48 0 83.5 -12.5 106.5 -37.5s34.5 -58.5 34.5 -100.5v-54c0 -50 -12.333 -85.667 -37 -107s-55.667 -32 -93 -32c-168 0 -266.667 9.66699 -296 29v87h251c23.333 0 35 11.333 35 34v25c0 15.333 -3.5 24.833 -10.5 28.5s-15.167 5.5 -24.5 5.5h-124
c-99.333 0 -149 47.667 -149 143z" />
    <glyph glyph-name="Scedilla" unicode="&#x15e;" horiz-adv-x="590" 
d="M270 -44h94.001c0 -52 -8 -88.5 -24 -109.5s-45.333 -31.5 -88 -31.5h-56v60l44 15c13.333 5.33301 21.666 12.5 24.999 21.5s5 23.833 5 44.5zM50.001 486l0.00292969 62.998c0 70 19 119.667 57 149c34.667 26 81.667 39.333 141 40h50.5
c25.667 0 63.334 -2.66699 113.001 -8s89.5 -12.333 119.5 -21v-110c-76 6.66699 -136.5 10 -181.5 10h-72.5c-30 0 -52 -4 -66 -12s-21 -27.667 -21 -59v-36c0 -28 5.66699 -46.667 17 -56s31.666 -14 60.999 -14h116c76 0 127 -30.333 153 -91
c13.333 -30.667 20 -65 20 -103v-49c0 -89.333 -29.667 -147.666 -89 -174.999c-30.667 -14.667 -68.334 -22 -113.001 -22c-120.667 0 -215 10 -283 30v110c73.333 -7.33301 136.666 -11 189.999 -11s83.666 0.333008 90.999 1s15.166 2.33398 23.499 5.00098
s15.5 6.33398 21.5 11.001c12.667 10 19 25.333 19 46v39c0 23.333 -4.66699 40.666 -14 51.999s-26.666 17 -51.999 17h-112c-126 0 -189 64.667 -189 194z" />
    <glyph glyph-name="scedilla" unicode="&#x15f;" horiz-adv-x="508" 
d="M156 -38h95c0 -52 -8 -88.5 -24 -109.5s-45.333 -31.5 -88 -31.5h-57v60l45 15c12.667 5.33301 20.667 12.5 24 21.5s5 23.833 5 44.5zM30 347v46c0 95.333 46 143 138 143c158 0 252.667 -9 284 -27v-88h-241c-16.667 0 -27.667 -2.66699 -33 -8s-8 -15 -8 -29v-24
c0 -10.667 2 -18.5 6 -23.5s8.5 -8 13.5 -9s12.167 -1.5 21.5 -1.5h126c48 0 83.5 -12.5 106.5 -37.5s34.5 -58.5 34.5 -100.5v-54c0 -50 -12.333 -85.667 -37 -107s-55.667 -32 -93 -32c-168 0 -266.667 9.66699 -296 29v87h251c23.333 0 35 11.333 35 34v25
c0 15.333 -3.5 24.833 -10.5 28.5s-15.167 5.5 -24.5 5.5h-124c-99.333 0 -149 47.667 -149 143z" />
    <glyph glyph-name="Scaron" unicode="&#x160;" horiz-adv-x="590" 
d="M155 934h94l63 -60l58 60h94l-102 -136h-104zM50 486l0.00292969 62.998c0 70 19 119.667 57 149c34.667 26 81.667 39.333 141 40h50.5c25.667 0 63.334 -2.66699 113.001 -8s89.5 -12.333 119.5 -21v-110c-76 6.66699 -136.5 10 -181.5 10h-72.5c-30 0 -52 -4 -66 -12
s-21 -27.667 -21 -59v-36c0 -28 5.66699 -46.667 17 -56s31.666 -14 60.999 -14h116c76 0 127 -30.333 153 -91c13.333 -30.667 20 -65 20 -103v-49c0 -89.333 -29.667 -147.666 -89 -174.999c-30.667 -14.667 -68.334 -22 -113.001 -22c-120.667 0 -215 10 -283 30v110
c73.333 -7.33301 136.666 -11 189.999 -11s83.666 0.333008 90.999 1s15.166 2.33398 23.499 5.00098s15.5 6.33398 21.5 11.001c12.667 10 19 25.333 19 46v39c0 23.333 -4.66699 40.666 -14 51.999s-26.666 17 -51.999 17h-112c-126 0 -189 64.667 -189 194z" />
    <glyph glyph-name="scaron" unicode="&#x161;" horiz-adv-x="508" 
d="M106 734h93l63 -60l59 60h93l-102 -136h-104zM30 347v46c0 95.333 46 143 138 143c158 0 252.667 -9 284 -27v-88h-241c-16.667 0 -27.667 -2.66699 -33 -8s-8 -15 -8 -29v-24c0 -10.667 2 -18.5 6 -23.5s8.5 -8 13.5 -9s12.167 -1.5 21.5 -1.5h126
c48 0 83.5 -12.5 106.5 -37.5s34.5 -58.5 34.5 -100.5v-54c0 -50 -12.333 -85.667 -37 -107s-55.667 -32 -93 -32c-168 0 -266.667 9.66699 -296 29v87h251c23.333 0 35 11.333 35 34v25c0 15.333 -3.5 24.833 -10.5 28.5s-15.167 5.5 -24.5 5.5h-124
c-99.333 0 -149 47.667 -149 143z" />
    <glyph glyph-name="Tcommaaccent" unicode="&#x162;" horiz-adv-x="593" 
d="M169 -42h93.999c0 -52 -8 -88.667 -24 -110s-45.333 -32 -88 -32h-56v60l44 15c12.667 6 20.834 13.333 24.501 22s5.5 23.667 5.5 45zM30.999 603v129h541v-129h-203v-603h-140v603h-198z" />
    <glyph glyph-name="tcommaaccent" unicode="&#x163;" horiz-adv-x="381" 
d="M131 -43h94.001c0 -52 -8 -88.667 -24 -110s-45.333 -32 -88 -32h-56v60l44 15c13.333 6 21.666 13.333 24.999 22s5 23.667 5 45zM15.001 425l0.000976562 78l86 29l23 148h117v-148h119v-107h-119v-213c0 -36 3.66699 -61 11 -75s18.666 -24 33.999 -30
c40 -14 62.333 -21 67 -21v-86h-122c-86.667 -0 -130 63.333 -130 190v235h-86z" />
    <glyph glyph-name="Tcaron" unicode="&#x164;" horiz-adv-x="593" 
d="M143 932h93l63 -60l59 60h94l-102 -135h-104zM31 603v129h541v-129h-203v-603h-140v603h-198z" />
    <glyph glyph-name="tcaron" unicode="&#x165;" horiz-adv-x="413" 
d="M15 425l0.000976562 78l86 29l23 148h117v-148h119v-107h-119v-213c0 -36 3.66699 -61 11 -75s18.666 -24 33.999 -30c40 -14 62.333 -21 67 -21v-86h-122c-86.667 -0 -130 63.333 -130 190v235h-86zM391.001 801v-67l-11 -134h-74l-11 134l-1 67h97z" />
    <glyph glyph-name="Tbar" unicode="&#x166;" horiz-adv-x="584" 
d="M22 603v129h541v-129h-204v-170h98v-65h-98v-368h-140v368h-98v65h98v170h-197z" />
    <glyph glyph-name="tbar" unicode="&#x167;" horiz-adv-x="374" 
d="M15 425v77.999l86 29l23 148h117v-148h119v-107h-119v-103h82v-65h-82v-45c0 -49.333 6.33301 -79.666 19 -90.999c6 -5.33301 21.667 -12.333 47 -21s39.333 -13 42 -13v-87h-117c-44.667 0 -77.667 14.5 -99 43.5s-32 77.833 -32 146.5v67h-71v65h71v103h-86z" />
    <glyph glyph-name="Utilde" unicode="&#x168;" horiz-adv-x="664" 
d="M399 884c26 0 55.667 12.999 89 38.999l24 -60c-42 -45.333 -79.333 -68 -112 -68c-17.333 0 -37.5 5.83301 -60.5 17.5s-39.167 17.5 -48.5 17.5s-17.166 -0.5 -23.499 -1.5s-11.5 -2 -15.5 -3s-9.16699 -3 -15.5 -6l-13.5 -6.5
c-2.66699 -1.33301 -7.83398 -4.33301 -15.501 -9s-12.5 -7.66699 -14.5 -9l-25 55c42.667 46.667 83 70 121 70c16.667 -0.666992 36 -6.66699 58 -18s35.833 -17.166 41.5 -17.499s9.16699 -0.5 10.5 -0.5zM343 -5.00098l-14 0.000976562c-80 0 -133.333 8.33301 -160 25
c-12 8 -26 19.833 -42 35.5s-28 34.834 -36 57.501c-20 56 -30 125 -30 207v412h140v-412c0 -64 6.33301 -111 19 -141c11.333 -26.667 33.666 -43.667 66.999 -51c14.667 -2.66699 35.834 -4 63.501 -4s50.834 5 69.501 15c39.333 21.333 59 81.666 59 180.999v412h141
v-412c0 -104.667 -15.333 -180.667 -46 -228c-10 -16.667 -19.833 -30.167 -29.5 -40.5s-22 -19.333 -37 -27s-27.833 -13.334 -38.5 -17.001s-25 -6.5 -43 -8.5c-22.667 -2.66699 -50.334 -4 -83.001 -4z" />
    <glyph glyph-name="utilde" unicode="&#x169;" 
d="M330 686c26 0 55.6641 12.667 88.9971 38l24 -60c-41.333 -45.333 -78.666 -68 -111.999 -68c-16.667 0 -36.667 5.83301 -60 17.5s-39.666 17.5 -48.999 17.5s-17.166 -0.5 -23.499 -1.5s-11.5 -2 -15.5 -3s-9.16699 -3 -15.5 -6s-10.666 -5.16699 -12.999 -6.5l-15 -9
c-7.66699 -4.66699 -12.834 -7.66699 -15.501 -9l-24 55c42 46.667 82 70 120 70c16.667 -0.666992 36 -6.66699 58 -18s36 -17 42 -17h10zM37.9971 178l0.00195312 353h140v-356c0 -47.333 19.667 -71 59 -71c26.667 0 49.167 3.33301 67.5 10s38.5 18.667 60.5 36v381h140
v-531h-113l-27 56c-6 -3.33301 -14.333 -8.33301 -25 -15l-25 -15.5c-6 -3.66699 -13.833 -8 -23.5 -13s-18.834 -8.83301 -27.501 -11.5c-20.667 -6.66699 -43.334 -10 -68.001 -10c-105.333 0 -158 62.333 -158 187z" />
    <glyph glyph-name="Umacron" unicode="&#x16a;" horiz-adv-x="664" 
d="M194 797v79h292v-79h-292zM343 -5l-14 0.000976562c-80 0 -133.333 8.33301 -160 25c-12 8 -26 19.833 -42 35.5s-28 34.834 -36 57.501c-20 56 -30 125 -30 207v412h140v-412c0 -64 6.33301 -111 19 -141c11.333 -26.667 33.666 -43.667 66.999 -51
c14.667 -2.66699 35.834 -4 63.501 -4s50.834 5 69.501 15c39.333 21.333 59 81.666 59 180.999v412h141v-412c0 -104.667 -15.333 -180.667 -46 -228c-10 -16.667 -19.833 -30.167 -29.5 -40.5s-22 -19.333 -37 -27s-27.833 -13.334 -38.5 -17.001s-25 -6.5 -43 -8.5
c-22.667 -2.66699 -50.334 -4 -83.001 -4z" />
    <glyph glyph-name="umacron" unicode="&#x16b;" 
d="M125 596v80h292v-80h-292zM38 178l0.00195312 353h140v-356c0 -47.333 19.667 -71 59 -71c26.667 0 49.167 3.33301 67.5 10s38.5 18.667 60.5 36v381h140v-531h-113l-27 56c-6 -3.33301 -14.333 -8.33301 -25 -15l-25 -15.5c-6 -3.66699 -13.833 -8 -23.5 -13
s-18.834 -8.83301 -27.501 -11.5c-20.667 -6.66699 -43.334 -10 -68.001 -10c-105.333 0 -158 62.333 -158 187z" />
    <glyph glyph-name="Ubreve" unicode="&#x16c;" horiz-adv-x="664" 
d="M225 911l58 0.000976562c0 -16.667 5.33301 -30.167 16 -40.5s24.667 -15.5 42 -15.5s31 5 41 15s15 23.667 15 41h58c0 -34.667 -11 -62.334 -33 -83.001s-49.333 -31 -82 -31s-60 10.5 -82 31.5s-33 48.5 -33 82.5zM343 -4.99902l-14 0.000976562
c-80 0 -133.333 8.33301 -160 25c-12 8 -26 19.833 -42 35.5s-28 34.834 -36 57.501c-20 56 -30 125 -30 207v412h140v-412c0 -64 6.33301 -111 19 -141c11.333 -26.667 33.666 -43.667 66.999 -51c14.667 -2.66699 35.834 -4 63.501 -4s50.834 5 69.501 15
c39.333 21.333 59 81.666 59 180.999v412h141v-412c0 -104.667 -15.333 -180.667 -46 -228c-10 -16.667 -19.833 -30.167 -29.5 -40.5s-22 -19.333 -37 -27s-27.833 -13.334 -38.5 -17.001s-25 -6.5 -43 -8.5c-22.667 -2.66699 -50.334 -4 -83.001 -4z" />
    <glyph glyph-name="ubreve" unicode="&#x16d;" 
d="M160 710l58 0.000976562c0 -16.667 5.16699 -30.167 15.5 -40.5s24.333 -15.5 42 -15.5s31.5 5 41.5 15s15 23.667 15 41h58c0 -34.667 -11 -62.334 -33 -83.001s-49.333 -31 -82 -31s-60 10.5 -82 31.5s-33 48.5 -33 82.5zM38 178.001l0.00195312 353h140v-356
c0 -47.333 19.667 -71 59 -71c26.667 0 49.167 3.33301 67.5 10s38.5 18.667 60.5 36v381h140v-531h-113l-27 56c-6 -3.33301 -14.333 -8.33301 -25 -15l-25 -15.5c-6 -3.66699 -13.833 -8 -23.5 -13s-18.834 -8.83301 -27.501 -11.5
c-20.667 -6.66699 -43.334 -10 -68.001 -10c-105.333 0 -158 62.333 -158 187z" />
    <glyph glyph-name="Uring" unicode="&#x16e;" horiz-adv-x="664" 
d="M239 899c0 18.667 4.5 35.833 13.5 51.5s21.333 28.167 37 37.5s35.167 14 58.5 14s44.833 -10 64.5 -30s29.5 -44.333 29.5 -73s-9.83301 -52.834 -29.5 -72.501s-41.167 -29.5 -64.5 -29.5s-42.833 4.5 -58.5 13.5s-28 21.333 -37 37s-13.5 32.834 -13.5 51.501z
M310 929.499c-8.66699 -8.33301 -13 -17.001 -13 -26.001s1.16699 -16.167 3.5 -21.5s5.5 -9.66602 9.5 -12.999c8.66699 -8 19 -12 31 -12s22 4 30 12s12 18 12 30s-4 22.167 -12 30.5s-18 12.5 -30 12.5s-22.333 -4.16699 -31 -12.5zM343 -5.00195l-14 0.000976562
c-80 0 -133.333 8.33301 -160 25c-12 8 -26 19.833 -42 35.5s-28 34.834 -36 57.501c-20 56 -30 125 -30 207v412h140v-412c0 -64 6.33301 -111 19 -141c11.333 -26.667 33.666 -43.667 66.999 -51c14.667 -2.66699 35.834 -4 63.501 -4s50.834 5 69.501 15
c39.333 21.333 59 81.666 59 180.999v412h141v-412c0 -104.667 -15.333 -180.667 -46 -228c-10 -16.667 -19.833 -30.167 -29.5 -40.5s-22 -19.333 -37 -27s-27.833 -13.334 -38.5 -17.001s-25 -6.5 -43 -8.5c-22.667 -2.66699 -50.334 -4 -83.001 -4z" />
    <glyph glyph-name="uring" unicode="&#x16f;" 
d="M170 698c0 18.667 4.5 35.834 13.5 51.501s21.333 28.167 37 37.5s32.667 14 51 14s35.333 -4.66699 51 -14s28 -21.833 37 -37.5s13.5 -32.834 13.5 -51.501s-4.5 -35.834 -13.5 -51.501s-21.333 -28 -37 -37s-32.667 -13.5 -51 -13.5s-35.333 4.5 -51 13.5
s-28 21.333 -37 37s-13.5 32.834 -13.5 51.501zM228 698c0 -12 4.33301 -22 13 -30s19 -12 31 -12s22 4 30 12s12 17 12 27s-1.66699 18.333 -5 25c-8 14 -19.167 21 -33.5 21s-25.833 -4.16699 -34.5 -12.5s-13 -18.5 -13 -30.5zM38 178l0.00195312 353h140v-356
c0 -47.333 19.667 -71 59 -71c26.667 0 49.167 3.33301 67.5 10s38.5 18.667 60.5 36v381h140v-531h-113l-27 56c-6 -3.33301 -14.333 -8.33301 -25 -15l-25 -15.5c-6 -3.66699 -13.833 -8 -23.5 -13s-18.834 -8.83301 -27.501 -11.5
c-20.667 -6.66699 -43.334 -10 -68.001 -10c-105.333 0 -158 62.333 -158 187z" />
    <glyph glyph-name="Uhungarumlaut" unicode="&#x170;" horiz-adv-x="664" 
d="M217 797l90 139h123l-122 -139h-91zM373 797l90 139h123l-122 -139h-91zM343 -5l-14 0.000976562c-80 0 -133.333 8.33301 -160 25c-12 8 -26 19.833 -42 35.5s-28 34.834 -36 57.501c-20 56 -30 125 -30 207v412h140v-412c0 -64 6.33301 -111 19 -141
c11.333 -26.667 33.666 -43.667 66.999 -51c14.667 -2.66699 35.834 -4 63.501 -4s50.834 5 69.501 15c39.333 21.333 59 81.666 59 180.999v412h141v-412c0 -104.667 -15.333 -180.667 -46 -228c-10 -16.667 -19.833 -30.167 -29.5 -40.5s-22 -19.333 -37 -27
s-27.833 -13.334 -38.5 -17.001s-25 -6.5 -43 -8.5c-22.667 -2.66699 -50.334 -4 -83.001 -4z" />
    <glyph glyph-name="uhungarumlaut" unicode="&#x171;" 
d="M148 596l90 138h123l-122 -138h-91zM304 596l90 138h123l-122 -138h-91zM38 178l0.00195312 353h140v-356c0 -47.333 19.667 -71 59 -71c26.667 0 49.167 3.33301 67.5 10s38.5 18.667 60.5 36v381h140v-531h-113l-27 56c-6 -3.33301 -14.333 -8.33301 -25 -15l-25 -15.5
c-6 -3.66699 -13.833 -8 -23.5 -13s-18.834 -8.83301 -27.501 -11.5c-20.667 -6.66699 -43.334 -10 -68.001 -10c-105.333 0 -158 62.333 -158 187z" />
    <glyph glyph-name="Uogonek" unicode="&#x172;" horiz-adv-x="664" 
d="M378 -188c-8.66699 -2.66699 -18.167 -3.99902 -28.5 -3.99902s-23.5 2.66699 -39.5 8s-29.667 15.333 -41 30c-17.333 20.667 -26 39.667 -26 57c0 39.333 23.667 71 71 95h55c-44 -32.667 -57.667 -62.334 -41 -89.001c9.33301 -14.667 26 -21.667 50 -21v-76z
M343 -4.99902l-14 0.000976562c-80 0 -133.333 8.33301 -160 25c-12 8 -26 19.833 -42 35.5s-28 34.834 -36 57.501c-20 56 -30 125 -30 207v412h140v-412c0 -64 6.33301 -111 19 -141c11.333 -26.667 33.666 -43.667 66.999 -51c14.667 -2.66699 35.834 -4 63.501 -4
s50.834 5 69.501 15c39.333 21.333 59 81.666 59 180.999v412h141v-412c0 -104.667 -15.333 -180.667 -46 -228c-10 -16.667 -19.833 -30.167 -29.5 -40.5s-22 -19.333 -37 -27s-27.833 -13.334 -38.5 -17.001s-25 -6.5 -43 -8.5c-22.667 -2.66699 -50.334 -4 -83.001 -4z
" />
    <glyph glyph-name="uogonek" unicode="&#x173;" 
d="M487 -188c-8.66699 -2 -18.167 -2.99902 -28.5 -2.99902s-23.5 2.5 -39.5 7.5s-29.667 14.833 -41 29.5c-17.333 21.333 -26 40.333 -26 57c0 40 23.667 72 71 96h55c-44 -33.333 -57.667 -63.333 -41 -90c9.33301 -14.667 26 -21.334 50 -20.001v-77zM38 178.001
l0.00195312 353h140v-356c0 -47.333 19.667 -71 59 -71c26.667 0 49.167 3.33301 67.5 10s38.5 18.667 60.5 36v381h140v-531h-113l-27 56c-6 -3.33301 -14.333 -8.33301 -25 -15l-25 -15.5c-6 -3.66699 -13.833 -8 -23.5 -13s-18.834 -8.83301 -27.501 -11.5
c-20.667 -6.66699 -43.334 -10 -68.001 -10c-105.333 0 -158 62.333 -158 187z" />
    <glyph glyph-name="Wcircumflex" unicode="&#x174;" horiz-adv-x="992" 
d="M359 795l107 135h104l97 -135h-93l-59 60l-62 -60h-94zM34 732h149l162 -543l132 543h150l-51 -189l116 -357l134 546h148l-201 -732h-162l-99 300l-86 -300h-162z" />
    <glyph glyph-name="wcircumflex" unicode="&#x175;" horiz-adv-x="826" 
d="M267 594l108 135h104l97 -135h-93l-59 60l-63 -60h-94zM15 531h150l106 -367l95 367h140l-37 -143l88 -224l105 367h150l-172 -531h-156l-80 192l-60 -192h-159z" />
    <glyph glyph-name="Ycircumflex" unicode="&#x176;" horiz-adv-x="656" 
d="M177 795l108 135h104l97 -135h-93l-59 60l-63 -60h-94zM397 0h-140v227l-223 505h152l143 -351l157 351h152l-241 -505v-227z" />
    <glyph glyph-name="ycircumflex" unicode="&#x177;" horiz-adv-x="578" 
d="M134 596l108 136h104l97 -136h-93l-59 60l-63 -60h-94zM16 531h146.998l92 -372c3.33301 -12 7.33301 -20 12 -24s8.33398 -6.83301 11.001 -8.5s5.83398 -3 9.50098 -4s6.5 -1.5 8.5 -1.5s4.5 -0.166992 7.5 -0.5l4.5 -0.5l106 411h146l-184 -699l-73 -102h-100l75 270
c-81.333 0 -134 45 -158 135z" />
    <glyph glyph-name="Ydieresis" unicode="&#x178;" horiz-adv-x="656" 
d="M167.5 814.5c-11.667 11.667 -17.498 24.168 -17.498 37.501s2.66699 24.666 8 33.999c11.333 18.667 26.666 28 45.999 28s34.666 -5.5 45.999 -16.5s17 -24.667 17 -41s-5.66699 -30.333 -17 -42s-25 -17.5 -41 -17.5s-29.833 5.83301 -41.5 17.5zM405.002 856.001
c0 16 5.83301 29.667 17.5 41s25.5 17 41.5 17s29.667 -5.5 41 -16.5s17 -24.667 17 -41s-5.66699 -30.333 -17 -42s-25 -17.5 -41 -17.5s-29.833 5.83301 -41.5 17.5s-17.5 25.5 -17.5 41.5zM397.002 0.000976562h-140v227l-223 505h152l143 -351l157 351h152l-241 -505
v-227z" />
    <glyph glyph-name="Zacute" unicode="&#x179;" horiz-adv-x="556" 
d="M233 797l91 139h122l-122 -139h-91zM27 0v129l335 474h-335v129h504v-129l-319 -474h319v-129h-504z" />
    <glyph glyph-name="zacute" unicode="&#x17a;" horiz-adv-x="474" 
d="M192 596l90 138h123l-122 -138h-91zM23 413v118h429v-118l-228 -294h228v-118h-414v117l238 295h-253z" />
    <glyph glyph-name="Zdotaccent" unicode="&#x17b;" horiz-adv-x="556" 
d="M219 820l0.000976562 76c0 16.667 8 25 24 25h72c7.33301 0 13 -2.33301 17 -7s6 -10.667 6 -18v-76c0 -15.333 -7.66699 -23 -23 -23h-72c-6.66699 0 -12.334 2.16699 -17.001 6.5s-7 9.83301 -7 16.5zM27.001 0v129l335 474h-335v129h504v-129l-319 -474h319v-129h-504
z" />
    <glyph glyph-name="zdotaccent" unicode="&#x17c;" horiz-adv-x="474" 
d="M178 619l-0.000976562 76c0 16.667 8 25 24 25h72c7.33301 0 13 -2.33301 17 -7s6 -10.667 6 -18v-76c0 -15.333 -7.66699 -23 -23 -23h-72c-7.33301 0 -13.166 2.16699 -17.499 6.5s-6.5 9.83301 -6.5 16.5zM22.999 413v118h429v-118l-228 -294h228v-118h-414v117
l238 295h-253z" />
    <glyph glyph-name="Zcaron" unicode="&#x17d;" horiz-adv-x="556" 
d="M124 932h94l63 -60l58 60h94l-102 -135h-104zM27 0v129l335 474h-335v129h504v-129l-319 -474h319v-129h-504z" />
    <glyph glyph-name="zcaron" unicode="&#x17e;" horiz-adv-x="474" 
d="M83 732h94l63 -60l58 60h94l-102 -136h-104zM23 413v118h429v-118l-228 -294h228v-118h-414v117l238 295h-253z" />
    <glyph glyph-name="florin" unicode="&#x192;" horiz-adv-x="593" 
d="M91 -92c45.333 0 76.333 43 93 129c2.66699 14 5.66699 31 9 51l45 287h-87l18 107h86l4 24c31.333 196 98.666 294 201.999 294c42 0 78 -7 108 -21c5.33301 -2.66699 8.33301 -4 9 -4l-13 -87h-60c-37.333 0 -64.333 -26.333 -81 -79
c-8.66699 -25.333 -16.667 -59.666 -24 -102.999l-3 -24h115l-17 -107h-116l-45 -287c-22.667 -146.667 -62.667 -237.334 -120 -272.001c-22.667 -13.333 -46.167 -20 -70.5 -20s-45.166 1.33301 -62.499 4c-32.667 5.33301 -54.667 12.333 -66 21l14 87h62z" />
    <glyph glyph-name="circumflex" unicode="&#x2c6;" horiz-adv-x="384" 
d="M38 531l108 135h104l96 -135h-93l-59 60l-62 -60h-94z" />
    <glyph glyph-name="caron" unicode="&#x2c7;" horiz-adv-x="384" 
d="M38 666h93l63 -60l59 60h93l-101 -135h-104z" />
    <glyph glyph-name="breve" unicode="&#x2d8;" horiz-adv-x="304" 
d="M38 644l57.999 0.000976562c0 -16.667 5.16699 -30.167 15.5 -40.5s24.333 -15.5 42 -15.5s31.5 5 41.5 15s15 23.667 15 41h58c0 -34.667 -11.167 -62.334 -33.5 -83.001s-49.666 -31 -81.999 -31s-59.5 10.5 -81.5 31.5s-33 48.5 -33 82.5z" />
    <glyph glyph-name="dotaccent" unicode="&#x2d9;" horiz-adv-x="194" 
d="M38 545l-0.000976562 76c0 16.667 8 25 24 25h72c7.33301 0 13 -2.33301 17 -7s6 -10.667 6 -18v-76c0 -15.333 -7.66699 -23 -23 -23h-72c-7.33301 0 -13.166 2.16699 -17.499 6.5s-6.5 9.83301 -6.5 16.5z" />
    <glyph glyph-name="ring" unicode="&#x2da;" horiz-adv-x="278" 
d="M38 632c0 18.667 4.5 35.834 13.5 51.501s21.333 28.167 37 37.5s32.667 14 51 14s35.333 -4.66699 51 -14s28 -21.833 37 -37.5s13.5 -32.834 13.5 -51.501s-4.5 -35.834 -13.5 -51.501s-21.333 -28 -37 -37s-32.667 -13.5 -51 -13.5s-35.333 4.5 -51 13.5
s-28 21.333 -37 37s-13.5 32.834 -13.5 51.501zM109 662.5c-8.66699 -8.33301 -13 -17.5 -13 -27.5s2 -18.333 6 -25c8.66699 -13.333 20.167 -20 34.5 -20s25.5 4 33.5 12s12 18 12 30s-4 22.167 -12 30.5s-18 12.5 -30 12.5s-22.333 -4.16699 -31 -12.5z" />
    <glyph glyph-name="ogonek" unicode="&#x2db;" horiz-adv-x="209" 
d="M172 -186c-9.33301 -2.66699 -19 -4.00098 -29 -4.00098s-23 2.66699 -39 8s-30 15.333 -42 30c-16.667 20.667 -25 39.334 -25 56.001c0 40 23.667 72 71 96h55c-44 -33.333 -57.667 -63 -41 -89c9.33301 -15.333 26 -22.333 50 -21v-76z" />
    <glyph glyph-name="tilde" unicode="&#x2dc;" horiz-adv-x="419" 
d="M269 621c25.333 0 54.666 12.668 87.999 38.001l24 -60c-41.333 -45.333 -78.666 -68 -111.999 -68c-16.667 0 -36.667 5.83301 -60 17.5s-39.333 17.5 -48 17.5s-15.667 -0.333008 -21 -1s-10.333 -1.66699 -15 -3l-12 -3.5c-3.33301 -1 -7.5 -2.83301 -12.5 -5.5
s-8.83301 -4.83398 -11.5 -6.50098s-7 -4.16699 -13 -7.5l-14 -8l-24 55c42.667 46.667 83 70 121 70c16 -0.666992 35 -6.66699 57 -18s36 -17 42 -17h11z" />
    <glyph glyph-name="hungarumlaut" unicode="&#x2dd;" horiz-adv-x="401" 
d="M15 531l91 139h122l-122 -139h-91zM171 531l90 139h123l-122 -139h-91z" />
    <glyph glyph-name="uni0338" unicode="&#x338;" horiz-adv-x="630" 
d="M53 178l-0.000976562 370.001c0 59.333 16.5 104.833 49.5 136.5s77.833 47.5 134.5 47.5h164c90.667 0 146.667 -36.667 168 -110c6 -20.667 9 -43.334 9 -68.001v-376c0 -58 -15.5 -102.167 -46.5 -132.5s-74.833 -45.5 -131.5 -45.5h-164
c-57.333 0 -102.166 15 -134.499 45s-48.5 74.333 -48.5 133zM192.999 267.001c0 -24.667 1.33301 -39.667 4 -45l196 377c-6.66699 2.66699 -14.334 4 -23.001 4h-105c-27.333 0 -46.166 -7.16699 -56.499 -21.5s-15.5 -30.833 -15.5 -49.5v-265zM267.999 129.001h97
c24.667 0 43 5.33301 55 16s18 29 18 55v275c0 25.333 -2.66699 41.333 -8 48l-200 -386c10 -5.33301 22.667 -8 38 -8z" />
    <glyph glyph-name="Omega" unicode="&#x3a9;" horiz-adv-x="763" 
d="M91 581c16 31.333 36.1709 58.333 60.5039 81s56.333 41.167 96 55.5s80.667 21.5 123 21.5s78.333 -3.33301 108 -10s55.5 -15.834 77.5 -27.501s41.667 -26 59 -43s31.833 -35.5 43.5 -55.5s21.5 -41.667 29.5 -65c14.667 -44.667 22 -96 22 -154
s-7.33301 -107 -22 -147s-41 -76.667 -79 -110l106 -10v-117h-250v128c43.333 33.333 71.666 69 84.999 107s20 88 20 150c0 122 -42.667 194.667 -128 218c-18 4.66699 -40.167 7 -66.5 7s-51.333 -4.66699 -75 -14s-42.334 -21.333 -56.001 -36
s-24.834 -32.667 -33.501 -54c-14.667 -35.333 -22 -71.333 -22 -108s0.5 -62.667 1.5 -78s3.5 -32 7.5 -50s10 -34 18 -48c17.333 -31.333 44.333 -62.666 81 -93.999v-128h-242v118l111 10c-46.667 30 -77.834 65.833 -93.501 107.5s-23.5 96 -23.5 163
s14 127.833 42 182.5z" />
    <glyph glyph-name="pi" unicode="&#x3c0;" horiz-adv-x="645" 
d="M15 402l0.000976562 129h567v-129h-91v-214c0 -32 5.66699 -53.333 17 -64c10 -10 27.333 -15.333 52 -16h70v-82c-30.667 -20.667 -72.334 -31 -125.001 -31c-102.667 0 -154 62.333 -154 187v220h-121v-402h-140v402h-75z" />
    <glyph glyph-name="uni1E02" unicode="&#x1e02;" horiz-adv-x="604" 
d="M250 818l0.000976562 76c0 16.667 8 25 24 25h72c7.33301 0 13 -2.33301 17 -7s6 -10.667 6 -18v-76c0 -15.333 -7.66699 -23 -23 -23h-72c-6.66699 0 -12.334 2.16699 -17.001 6.5s-7 9.83301 -7 16.5zM61.001 0l-0.000976562 731.999h302
c70.667 0 122.667 -18.167 156 -54.5s50 -83.5 50 -141.5c0 -37.333 -8.33301 -71.166 -25 -101.499s-41.667 -48.5 -75 -54.5c44 -8 76 -36 96 -84c10.667 -24 16 -51 16 -81c0 -70 -17.167 -123.333 -51.5 -160s-89.166 -55 -164.499 -55h-304zM201 123.999h158.999
c54 0 81 32.333 81 97c0 30 -6.66699 54.667 -20 74s-33.666 29 -60.999 29h-159v-200zM200.999 441.999h153c25.333 0 44.5 7.16699 57.5 21.5s19.5 35.833 19.5 64.5s-7.33301 49.167 -22 61.5s-33 18.5 -55 18.5h-153v-166z" />
    <glyph glyph-name="uni1E03" unicode="&#x1e03;" horiz-adv-x="556" 
d="M51 872l-0.000976562 76c0 16.667 8 25 24 25h72c7.33301 0 13 -2.33301 17 -7s6 -10.667 6 -18v-76c0 -15.333 -7.66699 -23 -23 -23h-72c-7.33301 0 -13.166 2.16699 -17.499 6.5s-6.5 9.83301 -6.5 16.5zM39.999 0l-0.000976562 784.999h139v-281
c23.333 10.667 50.166 19.167 80.499 25.5s58.666 9.5 84.999 9.5s49.833 -4.5 70.5 -13.5s37.334 -21 50.001 -36s22.667 -34.5 30 -58.5c12.667 -41.333 19 -101.166 19 -179.499s-13.333 -140.833 -40 -187.5s-71 -70 -133 -70c-29.333 0 -58.666 6 -87.999 18
s-53.666 26 -72.999 42l-25 -54h-115zM303.998 113.999c24 0 41.668 11.5 53.001 34.5s17 59.667 17 110s-2.83301 87.5 -8.5 111.5s-13.334 39.833 -23.001 47.5s-22.5 11.5 -38.5 11.5c-48 0 -89.333 -6.66699 -124 -20v-263c34 -21.333 75.333 -32 124 -32z" />
    <glyph glyph-name="uni1E0A" unicode="&#x1e0a;" horiz-adv-x="662" 
d="M256 822l-0.000976562 76c0 16.667 8 25 24 25h72c7.33301 0 13 -2.33301 17 -7s6 -10.667 6 -18v-76c0 -15.333 -7.66699 -23 -23 -23h-72c-7.33301 0 -13.166 2.16699 -17.499 6.5s-6.5 9.83301 -6.5 16.5zM60.999 0v732h311c169.333 0 254 -123 254 -369
c0 -152 -36.333 -257.333 -109 -316c-38.667 -31.333 -87 -47 -145 -47h-311zM200.999 125h159.999c83.333 0 125 79.667 125 239c0 121.333 -19.333 196.333 -58 225c-17.333 12.667 -39.666 19 -66.999 19h-160v-483z" />
    <glyph glyph-name="uni1E0B" unicode="&#x1e0b;" horiz-adv-x="556" 
d="M382 868l-0.000976562 76c0 16.667 8 25 24 25h72c7.33301 0 13 -2.33301 17 -7s6 -10.667 6 -18v-76c0 -15.333 -7.66699 -23 -23 -23h-72c-7.33301 0 -13.166 2.16699 -17.499 6.5s-6.5 9.83301 -6.5 16.5zM52.999 420c10 32.667 21.332 56.333 33.999 71
c27.333 32 68.666 48 123.999 48c24 0 51 -3.16699 81 -9.5s56.667 -14.833 80 -25.5v281h140v-785h-116l-24 54c-19.333 -16 -43.666 -30 -72.999 -42s-58.666 -18 -87.999 -18c-62 0 -106.333 22.833 -133 68.5s-40 108.5 -40 188.5s5 136.333 15 169zM177.998 250.999
c0 -91.333 23.332 -137 69.999 -137c48.667 0 90 10.667 124 32v263c-34.667 13.333 -76 20 -124 20c-23.333 0 -40.666 -9.66699 -51.999 -29c-12 -22 -18 -71.667 -18 -149z" />
    <glyph glyph-name="uni1E1E" unicode="&#x1e1e;" horiz-adv-x="567" 
d="M255 818l-0.000976562 76c0 16.667 8 25 24 25h72c7.33301 0 13 -2.33301 17 -7s6 -10.667 6 -18v-76c0 -15.333 -7.66699 -23 -23 -23h-72c-7.33301 0 -13.166 2.16699 -17.499 6.5s-6.5 9.83301 -6.5 16.5zM57.999 0v578c0 79.333 33.667 128.333 101 147
c16.667 4.66699 30 7 40 7s58.5 -1.16699 145.5 -3.5s151.833 -6.5 194.5 -12.5v-116h-289c-24.667 0 -40 -6 -46 -18c-4 -9.33301 -6 -22 -6 -38v-114l296 -10v-116l-296 -9v-295h-140z" />
    <glyph glyph-name="uni1E1F" unicode="&#x1e1f;" horiz-adv-x="403" 
d="M186 878l-0.000976562 76c0 16.667 8 25 24 25h72c7.33301 0 13 -2.33301 17 -7s6 -10.667 6 -18v-76c0 -15.333 -7.66699 -23 -23 -23h-72c-7.33301 0 -13.166 2.16699 -17.499 6.5s-6.5 9.83301 -6.5 16.5zM14.999 424l0.000976562 90.001l83 17v99
c0 49.333 12 87.666 36 114.999s62.667 41 116 41s99.666 -8 138.999 -24v-83l-96 1c-30.667 0.666992 -48 -9.33301 -52 -30c-2 -11.333 -3 -29 -3 -53v-66h121v-107h-121v-424h-140v424h-83z" />
    <glyph glyph-name="uni1E40" unicode="&#x1e40;" horiz-adv-x="847" 
d="M363 820l-0.000976562 76c0 16.667 8 25 24 25h72c6.66699 0 12.167 -2.33301 16.5 -7s6.5 -10.667 6.5 -18v-76c0 -15.333 -7.66699 -23 -23 -23h-72c-7.33301 0 -13.166 2.16699 -17.499 6.5s-6.5 9.83301 -6.5 16.5zM41.999 0l64 732h195l122 -500l121 500h194
l68 -732h-138l-48 489l-118 -489h-156l-123 489l-43 -489h-138z" />
    <glyph glyph-name="uni1E41" unicode="&#x1e41;" horiz-adv-x="875" 
d="M399 622l0.000976562 76c0 16.667 8 25 24 25h72c7.33301 0 13 -2.33301 17 -7s6 -10.667 6 -18v-76c0 -15.333 -7.66699 -23 -23 -23h-72c-6.66699 0 -12.334 2 -17.001 6s-7 9.66699 -7 17zM509.001 384l0.998047 -30.999v-353h-140v354c0 24 -5.33301 42 -16 54
s-27.167 18 -49.5 18s-42.166 -3.33301 -59.499 -10s-37 -18.334 -59 -35.001v-381h-140v531h112l28 -57l20 14c11.333 8 22.333 15.333 33 22s26.167 13.167 46.5 19.5s42.166 9.5 65.499 9.5c68.667 0 114.667 -23 138 -69c62.667 46 126.334 69 191.001 69
c105.333 0 158 -62.333 158 -187v-352h-140v354c0 24 -5.16699 42 -15.5 54s-24.833 18 -43.5 18c-53.333 0 -96.666 -14 -129.999 -42z" />
    <glyph glyph-name="uni1E56" unicode="&#x1e56;" horiz-adv-x="602" 
d="M223 823l-0.000976562 76c0 16.667 8 25 24 25h72c7.33301 0 13 -2.33301 17 -7s6 -10.667 6 -18v-76c0 -15.333 -7.66699 -23 -23 -23h-72c-7.33301 0 -13.166 2.16699 -17.499 6.5s-6.5 9.83301 -6.5 16.5zM50.999 0v732.003h315c89.333 0 149 -31.667 179 -95
c16 -34 24 -72 24 -114s-2.33301 -75.333 -7 -100s-10.834 -45.334 -18.501 -62.001s-17.167 -30.834 -28.5 -42.501s-22.666 -20.834 -33.999 -27.501c-25.333 -14 -57 -21 -95 -21c-23.333 0 -61 3 -113 9s-79.333 9.66699 -82 11v-290h-140zM190.999 394.003h164
c24 0 42.167 8 54.5 24s18.5 45 18.5 87c-0.666992 68.667 -25 103 -73 103h-164v-214z" />
    <glyph glyph-name="uni1E57" unicode="&#x1e57;" horiz-adv-x="556" 
d="M231 625l-0.000976562 76c0 16.667 8 25 24 25h72c7.33301 0 13 -2.33301 17 -7s6 -10.667 6 -18v-76c0 -15.333 -7.66699 -23 -23 -23h-72c-7.33301 0 -13.166 2.16699 -17.499 6.5s-6.5 9.83301 -6.5 16.5zM45.999 -270v801.002h115l24 -53
c19.333 15.333 43.833 29 73.5 41s59.667 18 90 18s56.833 -6.33301 79.5 -19s40.667 -31.334 54 -56.001c24.667 -46.667 37 -111.334 37 -194.001c0 -108 -16 -182.667 -48 -224c-28 -34.667 -69.667 -52 -125 -52c-24 0 -51 3.16699 -81 9.5s-56.667 14.5 -80 24.5v-296
h-139zM309.999 102.002c22.667 0 39.666 9.66699 50.999 29c12 22 18 59.167 18 111.5s-2.66699 90 -8 113s-13 39 -23 48s-22.667 13.5 -38 13.5c-49.333 0 -91 -10.667 -125 -32v-263c34.667 -13.333 76.334 -20 125.001 -20z" />
    <glyph glyph-name="uni1E60" unicode="&#x1e60;" horiz-adv-x="590" 
d="M236 826l-0.000976562 76c0 16.667 8 25 24 25h72c6.66699 0 12 -2.33301 16 -7s6 -10.667 6 -18v-76c0 -15.333 -7.33301 -23 -22 -23h-72c-7.33301 0 -13.166 2.16699 -17.499 6.5s-6.5 9.83301 -6.5 16.5zM49.999 486l0.00292969 62.998c0 70 19 119.667 57 149
c34.667 26 81.667 39.333 141 40h50.5c25.667 0 63.334 -2.66699 113.001 -8s89.5 -12.333 119.5 -21v-110c-76 6.66699 -136.5 10 -181.5 10h-72.5c-30 0 -52 -4 -66 -12s-21 -27.667 -21 -59v-36c0 -28 5.66699 -46.667 17 -56s31.666 -14 60.999 -14h116
c76 0 127 -30.333 153 -91c13.333 -30.667 20 -65 20 -103v-49c0 -89.333 -29.667 -147.666 -89 -174.999c-30.667 -14.667 -68.334 -22 -113.001 -22c-120.667 0 -215 10 -283 30v110c73.333 -7.33301 136.666 -11 189.999 -11s83.666 0.333008 90.999 1
s15.166 2.33398 23.499 5.00098s15.5 6.33398 21.5 11.001c12.667 10 19 25.333 19 46v39c0 23.333 -4.66699 40.666 -14 51.999s-26.666 17 -51.999 17h-112c-126 0 -189 64.667 -189 194z" />
    <glyph glyph-name="uni1E61" unicode="&#x1e61;" horiz-adv-x="508" 
d="M205 624l-0.000976562 76c0 16.667 8 25 24 25h72c6.66699 0 12.167 -2.33301 16.5 -7s6.5 -10.667 6.5 -18v-76c0 -15.333 -7.66699 -23 -23 -23h-72c-7.33301 0 -13.166 2.16699 -17.499 6.5s-6.5 9.83301 -6.5 16.5zM29.999 347v46c0 95.333 46 143 138 143
c158 0 252.667 -9 284 -27v-88h-241c-16.667 0 -27.667 -2.66699 -33 -8s-8 -15 -8 -29v-24c0 -10.667 2 -18.5 6 -23.5s8.5 -8 13.5 -9s12.167 -1.5 21.5 -1.5h126c48 0 83.5 -12.5 106.5 -37.5s34.5 -58.5 34.5 -100.5v-54c0 -50 -12.333 -85.667 -37 -107
s-55.667 -32 -93 -32c-168 0 -266.667 9.66699 -296 29v87h251c23.333 0 35 11.333 35 34v25c0 15.333 -3.5 24.833 -10.5 28.5s-15.167 5.5 -24.5 5.5h-124c-99.333 0 -149 47.667 -149 143z" />
    <glyph glyph-name="uni1E6A" unicode="&#x1e6a;" horiz-adv-x="593" 
d="M238 820l-0.000976562 76c0 16.667 8 25 24 25h72c7.33301 0 13 -2.33301 17 -7s6 -10.667 6 -18v-76c0 -15.333 -7.66699 -23 -23 -23h-72c-7.33301 0 -13.166 2.16699 -17.499 6.5s-6.5 9.83301 -6.5 16.5zM30.999 603v129h541v-129h-203v-603h-140v603h-198z" />
    <glyph glyph-name="uni1E6B" unicode="&#x1e6b;" horiz-adv-x="381" 
d="M115 763l0.000976562 76c0 16.667 8 25 24 25h72c7.33301 0 13 -2.33301 17 -7s6 -10.667 6 -18v-76c0 -15.333 -7.66699 -23 -23 -23h-72c-6.66699 0 -12.334 2.16699 -17.001 6.5s-7 9.83301 -7 16.5zM15.001 425l0.000976562 78l86 29l23 148h117v-148h119v-107h-119
v-213c0 -36 3.66699 -61 11 -75s18.666 -24 33.999 -30c40 -14 62.333 -21 67 -21v-86h-122c-86.667 -0 -130 63.333 -130 190v235h-86z" />
    <glyph glyph-name="Wgrave" unicode="&#x1e80;" horiz-adv-x="992" 
d="M341 933h122l91 -138h-91zM34 732h149l162 -543l132 543h150l-51 -189l116 -357l134 546h148l-201 -732h-162l-99 300l-86 -300h-162z" />
    <glyph glyph-name="wgrave" unicode="&#x1e81;" horiz-adv-x="826" 
d="M249 732h123l90 -138h-91zM15 531h150l106 -367l95 367h140l-37 -143l88 -224l105 367h150l-172 -531h-156l-80 192l-60 -192h-159z" />
    <glyph glyph-name="Wacute" unicode="&#x1e82;" horiz-adv-x="992" 
d="M463 795l91 138h122l-122 -138h-91zM34 732h149l162 -543l132 543h150l-51 -189l116 -357l134 546h148l-201 -732h-162l-99 300l-86 -300h-162z" />
    <glyph glyph-name="wacute" unicode="&#x1e83;" horiz-adv-x="826" 
d="M371 594l91 138h122l-122 -138h-91zM15 531h150l106 -367l95 367h140l-37 -143l88 -224l105 367h150l-172 -531h-156l-80 192l-60 -192h-159z" />
    <glyph glyph-name="Wdieresis" unicode="&#x1e84;" horiz-adv-x="992" 
d="M336.5 812.5c-11.667 11.667 -17.498 24.167 -17.498 37.5s2.66699 24.333 8 33c11.333 19.333 26.666 29 45.999 29s34.666 -5.66699 45.999 -17s17 -25 17 -41s-5.66699 -29.833 -17 -41.5s-25 -17.5 -41 -17.5s-29.833 5.83301 -41.5 17.5zM574.002 854
c0 16 5.66895 29.667 17.002 41s25.166 17 41.499 17s30.166 -5.66699 41.499 -17s17 -25 17 -41s-5.66699 -29.833 -17 -41.5s-25 -17.5 -41 -17.5s-29.833 5.83301 -41.5 17.5s-17.5 25.5 -17.5 41.5zM34.0039 732h149l162 -543l132 543h150l-51 -189l116 -357l134 546
h148l-201 -732h-162l-99 300l-86 -300h-162z" />
    <glyph glyph-name="wdieresis" unicode="&#x1e85;" horiz-adv-x="826" 
d="M231 653c0 10.667 2.66504 20.333 7.99805 29c12 19.333 27.667 29 47 29s34.666 -5.66699 45.999 -17s17 -25 17 -41s-5.66699 -29.833 -17 -41.5s-23.666 -17.5 -36.999 -17.5s-24.666 2.66699 -33.999 8s-16.666 12.5 -21.999 21.5s-8 18.833 -8 29.5z
M515.998 702.999c9.33301 5.33301 20.667 8 34 8s25.666 -5.66699 36.999 -17s17 -25 17 -41s-5.66699 -29.833 -17 -41.5s-25.166 -17.5 -41.499 -17.5s-30.333 5.83301 -42 17.5s-17.5 27 -17.5 46s10 34.167 30 45.5zM14.999 530.999h150l106 -367l95 367h140l-37 -143
l88 -224l105 367h150l-172 -531h-156l-80 192l-60 -192h-159z" />
    <glyph glyph-name="Ygrave" unicode="&#x1ef2;" horiz-adv-x="656" 
d="M168 936h123l91 -139h-92zM397 0h-140v227l-223 505h152l143 -351l157 351h152l-241 -505v-227z" />
    <glyph glyph-name="ygrave" unicode="&#x1ef3;" horiz-adv-x="578" 
d="M125 734h123l90 -138h-91zM16 531h146.998l92 -372c3.33301 -12 7.33301 -20 12 -24s8.33398 -6.83301 11.001 -8.5s5.83398 -3 9.50098 -4s6.5 -1.5 8.5 -1.5s4.5 -0.166992 7.5 -0.5l4.5 -0.5l106 411h146l-184 -699l-73 -102h-100l75 270c-81.333 0 -134 45 -158 135z
" />
    <glyph glyph-name="endash" unicode="&#x2013;" horiz-adv-x="513" 
d="M20 228v119h473v-119h-473z" />
    <glyph glyph-name="emdash" unicode="&#x2014;" horiz-adv-x="736" 
d="M20 230v119h696v-119h-696z" />
    <glyph glyph-name="quoteleft" unicode="&#x2018;" horiz-adv-x="259" 
d="M164 743c8.66699 0 18.333 -1 29 -3v-55h-1c-21.333 0 -32 -11 -32 -33v-21h12c17.333 0 26 -8.33301 26 -25v-90c0 -18.667 -8.66699 -28 -26 -28h-86c-16.667 0 -25 9.33301 -25 28v133c0 62.667 34.333 94 103 94z" />
    <glyph glyph-name="quoteright" unicode="&#x2019;" horiz-adv-x="259" 
d="M94 488c-8.66699 0 -18 1 -28 3v55h1c21.333 0 32 11 32 33v20h-12c-17.333 0 -26 9 -26 27v89c0 18.667 8.66699 28 26 28h86c16.667 0 25 -9.33301 25 -28v-133c0 -62.667 -34.667 -94 -104 -94z" />
    <glyph glyph-name="quotesinglbase" unicode="&#x201a;" horiz-adv-x="259" 
d="M95 -112c-8.66699 0 -18.333 1 -29 3v55h1c21.333 0 32 11 32 33v21h-12c-17.333 0 -26 8.66699 -26 26v89c0 19.333 8.66699 29 26 29h86c16.667 0 25 -9.66699 25 -29v-132c0 -63.333 -34.333 -95 -103 -95z" />
    <glyph glyph-name="quotedblleft" unicode="&#x201c;" horiz-adv-x="425" 
d="M233 648c0 62.667 34.667 94.001 104 94.001c6 0 11 -0.333008 15 -1l14 -2v-55h-1c-21.333 0 -32 -11 -32 -33v-20h12c7.33301 0 13.5 -2.33301 18.5 -7s7.5 -11.334 7.5 -20.001v-89c0 -18.667 -8.66699 -28 -26 -28h-86c-17.333 0 -26 9.33301 -26 28v133z
M158 742.001c9.33301 0 19 -0.999023 29 -2.99902v-55v0c-21.333 0 -32 -11 -32 -33v-20h12c7.33301 0 13.5 -2.33301 18.5 -7s7.5 -11.334 7.5 -20.001v-89c0 -18.667 -8.66699 -28 -26 -28h-87c-16.667 0 -25 9.33301 -25 28v133c0 62.667 34.333 94 103 94z" />
    <glyph glyph-name="quotedblright" unicode="&#x201d;" horiz-adv-x="425" 
d="M89 487c-8.66699 0 -18.333 1 -29 3v55h1c21.333 0 32 11 32 33v20h-12c-7.33301 0 -13.5 2.33301 -18.5 7s-7.5 11 -7.5 19v90c0 18.667 8.66699 28 26 28h87c16.667 0 25 -9.33301 25 -28v-133c0 -62.667 -34.667 -94 -104 -94zM371.001 581
c0 -63.333 -34.667 -95 -104 -95c-5.33301 0 -10.333 0.333008 -15 1l-13 3v55h1c20.667 0 31 11 31 33v20h-11c-8 0 -14.5 2.33301 -19.5 7s-7.5 11 -7.5 19v90c0 18.667 9 28 27 28h86c16.667 0 25 -9.33301 25 -28v-133z" />
    <glyph glyph-name="quotedblbase" unicode="&#x201e;" horiz-adv-x="425" 
d="M89 -112c-8.66699 0 -18.333 1 -29 3v55h1c21.333 0 32 11 32 33v21h-12c-7.33301 0 -13.5 2.16699 -18.5 6.5s-7.5 10.833 -7.5 19.5v89c0 19.333 8.66699 29 26 29h87c16.667 0 25 -9.66699 25 -29v-132c0 -63.333 -34.667 -95 -104 -95zM371.001 -17
c0 -63.333 -34.667 -95 -104 -95c-5.33301 0 -10.333 0.333008 -15 1l-13 2v55h1c20.667 0 31 11 31 33v21h-11c-8 0 -14.5 2.16699 -19.5 6.5s-7.5 10.833 -7.5 19.5v89c0 18.667 9 28 27 28h86c16.667 0 25 -9.33301 25 -28v-132z" />
    <glyph glyph-name="dagger" unicode="&#x2020;" horiz-adv-x="440" 
d="M15 453v109l133 12l11 196h123l11 -196l132 -12v-109l-132 -13l-12 -512h-123l-10 512z" />
    <glyph glyph-name="daggerdbl" unicode="&#x2021;" horiz-adv-x="455" 
d="M15 146v109l135 15l-2 170l-133 13v109l133 12l11 196h123l11 -196l132 -12v-109l-132 -13l-3 -171l135 -14v-109l-139 -13l-5 -205h-123l-4 204z" />
    <glyph glyph-name="bullet" unicode="&#x2022;" horiz-adv-x="309" 
d="M65 322v118c0 23.333 11 35 33 35h112c23.333 0 35 -11.667 35 -35v-118c0 -21.333 -11.667 -32 -35 -32h-112c-10 0 -18 2.83301 -24 8.5s-9 13.5 -9 23.5z" />
    <glyph glyph-name="ellipsis" unicode="&#x2026;" horiz-adv-x="807" 
d="M296 23l0.000976562 90c0 16.667 8 25 24 25h86c16.667 0 25 -8.33301 25 -25v-90c0 -15.333 -8.33301 -23 -25 -23h-86c-6.66699 0 -12.334 2.16699 -17.001 6.5s-7 9.83301 -7 16.5zM323.001 23c0 -6.66699 2.33203 -12.167 6.99902 -16.5s10.334 -6.5 17.001 -6.5h86
c16.667 0 25 7.66699 25 23v90c0 16.667 -8.33301 25 -25 25h-86c-16 0 -24 -8.33301 -24 -25v-90zM351 23l-0.000976562 90c0 16.667 8 25 24 25h86c16.667 0 25 -8.33301 25 -25v-90c0 -15.333 -8.33301 -23 -25 -23h-86c-7.33301 0 -13.166 2.16699 -17.499 6.5
s-6.5 9.83301 -6.5 16.5z" />
    <glyph glyph-name="perthousand" unicode="&#x2030;" horiz-adv-x="1379" 
d="M32 480l0.00195312 122c0 44 10.167 76.667 30.5 98s55.166 32 104.499 32h101c47.333 0 81.166 -10.667 101.499 -32s30.5 -54 30.5 -98v-122c0 -44.667 -10.167 -77.667 -30.5 -99s-54.833 -32 -103.5 -32h-101c-48 0 -82.167 10.667 -102.5 32s-30.5 54.333 -30.5 99z
M130.002 496c0 -18 3.33105 -30.667 9.99805 -38s19.334 -11 38.001 -11h74c26.667 0 42.334 7 47.001 21c2 6.66699 3 16 3 28v89c0 19.333 -3.5 32.333 -10.5 39s-19.5 10 -37.5 10h-74c-19.333 0 -32.5 -3.33301 -39.5 -10s-10.5 -19.667 -10.5 -39v-89zM208 0l447 732
h100l-443 -732h-104zM563 133v122c0 29.333 4 53.333 12 72c16.667 39.333 57.334 59 122.001 59h101c47.333 0 81.333 -10.833 102 -32.5s31 -54.5 31 -98.5v-122c0 -44 -10.333 -76.667 -31 -98s-55.334 -32 -104.001 -32h-101c-48 0 -82 10.667 -102 32s-30 54 -30 98z
M661 150c0 -18 3.16699 -30.667 9.5 -38s19.166 -11 38.499 -11h73c20.667 0 34.334 3.66699 41.001 11s10 20 10 38v89c0 24.667 -7 39.667 -21 45c-6.66699 2.66699 -16 4 -28 4h-73c-19.333 0 -32.5 -3.5 -39.5 -10.5s-10.5 -19.833 -10.5 -38.5v-89zM980 133
l-0.00195312 122c0 44 10.167 76.833 30.5 98.5s54.833 32.5 103.5 32.5h101c62.667 0 102.667 -19.667 120 -59c8.66699 -18.667 13 -42.667 13 -72v-122c0 -44 -10.167 -76.667 -30.5 -98s-55.166 -32 -104.499 -32h-101c-47.333 0 -81.166 10.667 -101.499 32
s-30.5 54 -30.5 98zM1078 150c0 -18 3.33203 -30.667 9.99902 -38s19.334 -11 38.001 -11h74c20.667 0 34.167 3.66699 40.5 11s9.5 20 9.5 38v89c0 19.333 -3.5 32.333 -10.5 39s-19.5 10 -37.5 10h-74c-24.667 0 -39.667 -6.33301 -45 -19
c-3.33301 -7.33301 -5 -17.333 -5 -30v-89z" />
    <glyph glyph-name="guilsinglleft" unicode="&#x2039;" horiz-adv-x="356" 
d="M38 354l206 203l77 -76l-131 -127l133 -131l-74 -77z" />
    <glyph glyph-name="guilsinglright" unicode="&#x203a;" horiz-adv-x="356" 
d="M38 223l133 131l-130 127l76 76l206 -203l-211 -208z" />
    <glyph glyph-name="fraction" unicode="&#x2044;" horiz-adv-x="322" 
d="M-69 0l358 753h102l-358 -753h-102z" />
    <glyph glyph-name="zerosuperior" unicode="&#x2070;" horiz-adv-x="464" 
d="M176 859h118c83.333 0 125 -40 125 -120v-242c0 -79.333 -41.667 -119 -125 -119h-119c-64 0 -104 21 -120 63c-6 16 -9 34.667 -9 56v239c0 82 43.333 123 130 123zM154 520c0 -16.667 3.83301 -28 11.5 -34s19.5 -9 35.5 -9h65c17.333 0 29.166 3 35.499 9
s9.5 17.333 9.5 34v197c0 15.333 -3.16699 26.166 -9.5 32.499s-17.166 9.5 -32.499 9.5h-70c-21.333 0 -34.333 -4.66699 -39 -14c-4 -7.33301 -6 -16.666 -6 -27.999v-197z" />
    <glyph glyph-name="foursuperior" unicode="&#x2074;" horiz-adv-x="430" 
d="M263 579v102l24 50h84v-152h49v-85l-49 -8v-107h-108v97h-228l-23 46l171 337h111l-141 -280h110z" />
    <glyph glyph-name="fivesuperior" unicode="&#x2075;" horiz-adv-x="416" 
d="M234 476c18 0 29.832 3.5 35.499 10.5s8.5 16.833 8.5 29.5v33c0 8.66699 -0.666992 15.5 -2 20.5s-5.16602 10 -11.499 15s-15.5 7.5 -27.5 7.5h-67c-24 0 -36 -11.667 -36 -35h-92l15 302h310v-100h-215l-5 -88c16 12 45 18 87 18c11.333 0 23.666 -0.666992 36.999 -2
c38.667 -1.33301 67.5 -13.333 86.5 -36s28.5 -53 28.5 -91v-64c0 -41.333 -12 -72 -36 -92s-57.333 -30 -100 -30s-77.667 0.833008 -105 2.5s-61.666 6.16699 -102.999 13.5v86h192z" />
    <glyph glyph-name="sixsuperior" unicode="&#x2076;" horiz-adv-x="438" 
d="M119 849.5c13.333 7 28.832 11.501 46.499 13.501s43.5 3 77.5 3s83.333 -5.33301 148 -16v-84h-177c-39.333 0 -60.666 -25.333 -63.999 -76c0 -7.33301 -0.333008 -17 -1 -29c37.333 10 81 15 131 15s83.833 -10.333 101.5 -31s26.5 -49.334 26.5 -86.001v-67
c0 -76 -41.333 -114 -124 -114h-104c-22 0 -40.667 3.33301 -56 10c-37.333 16.667 -61.666 55 -72.999 115c-6.66699 33.333 -10 74 -10 122s3.5 87.667 10.5 119s16.667 55 29 71s25.166 27.5 38.499 34.5zM148.999 580.001c0 -68 20 -102 60 -102h53
c14 0 23.833 2.5 29.5 7.5s8.5 14.167 8.5 27.5v33c0 13.333 -2.5 22.333 -7.5 27s-14.167 7 -27.5 7h-116z" />
    <glyph glyph-name="sevensuperior" unicode="&#x2077;" horiz-adv-x="397" 
d="M11 760v100h347l28 -46l-183 -436h-119l161 382h-234z" />
    <glyph glyph-name="eightsuperior" unicode="&#x2078;" horiz-adv-x="463" 
d="M50 705v42.0029c0 43.333 11.667 73.666 35 90.999s55.333 26 96 26h112c40.667 0 71 -9 91 -27s30 -47.667 30 -89v-34c1.33301 -30 -8 -52 -28 -66c-6.66699 -4.66699 -14.667 -7.66699 -24 -9c13.333 -2.66699 24.333 -10 33 -22c12.667 -18 19 -41.333 19 -70v-54
c0 -59.333 -20.333 -95.333 -61 -108c-17.333 -5.33301 -37 -8 -59 -8h-116c-56 0 -92.333 13 -109 39c-12.667 20.667 -19 45 -19 73v46c0 19.333 5 35.666 15 48.999s23.667 21.666 41 24.999c-16 6.66699 -28.333 15.5 -37 26.5s-14 21.667 -16 32s-3 22.833 -3 37.5z
M306 541.003c0 24 -12.333 36.001 -37 36.001h-72c-14 0 -24 -2.83301 -30 -8.5s-9 -14.834 -9 -27.501v-34c0 -12.667 2.83301 -21.5 8.5 -26.5s16.167 -7.5 31.5 -7.5h70c14 0 23.833 2.66699 29.5 8s8.5 14 8.5 26v34zM158 706.004
c0 -14.667 3.33203 -24.5 9.99902 -29.5s16.334 -7.5 29.001 -7.5h70c16.667 0 27.334 3.16699 32.001 9.5s7 15.5 7 27.5v22c0 16.667 -3.33301 27.5 -10 32.5s-17.334 7.5 -32.001 7.5h-63c-16 0 -27.167 -2.66699 -33.5 -8s-9.5 -16 -9.5 -32v-22z" />
    <glyph glyph-name="ninesuperior" unicode="&#x2079;" horiz-adv-x="438" 
d="M34 683l0.000976562 67.001c0 40 11 69.333 33 88s52.333 28 91 28h103c22 0 41 -3.33301 57 -10c37.333 -16.667 61.666 -55.667 72.999 -117c6.66699 -34 10 -63.833 10 -89.5s-0.166992 -46.667 -0.5 -63s-2 -36.5 -5 -60.5s-7.33301 -44.167 -13 -60.5
s-12.167 -30.333 -19.5 -42s-15.666 -20.834 -24.999 -27.501c-18 -12 -38 -19.333 -60 -22s-50.833 -4 -86.5 -4s-82.5 5.66699 -140.5 17v84h176c40 0 61.333 26.333 64 79c0.666992 7.33301 1 17.333 1 30c-37.333 -10 -80.833 -15 -130.5 -15
s-83.334 10.333 -101.001 31s-26.5 49.667 -26.5 87zM142.001 697.001c0 -14.667 2.50098 -24.334 7.50098 -29.001s14.5 -7 28.5 -7h114c0 50.667 -8.66699 82.667 -26 96c-8.66699 6 -19.334 9 -32.001 9h-55c-13.333 0 -22.833 -2.66699 -28.5 -8
s-8.5 -14.666 -8.5 -27.999v-33z" />
    <glyph glyph-name="zeroinferior" unicode="&#x2080;" horiz-adv-x="464" 
d="M176 282l117.999 -0.000976562c83.333 0 125 -40 125 -120v-242c0 -80 -41.667 -120 -125 -120h-119c-41.333 0 -73.166 9.33301 -95.499 28s-33.5 49.334 -33.5 92.001v238c0 82.667 43.333 124 130 124zM153.999 -57.001c0 -17.333 3.83301 -28.833 11.5 -34.5
s19.5 -8.5 35.5 -8.5h65c17.333 0 29.166 2.83301 35.499 8.5s9.5 16.834 9.5 33.501v198c0 15.333 -3.16699 26.166 -9.5 32.499s-17.166 9.5 -32.499 9.5h-70c-21.333 0 -34.333 -5 -39 -15c-4 -7.33301 -6 -16.333 -6 -27v-197z" />
    <glyph glyph-name="oneinferior" unicode="&#x2081;" horiz-adv-x="270" 
d="M221 282v-482h-108v384l-101 -23v67l102 54h107z" />
    <glyph glyph-name="twoinferior" unicode="&#x2082;" horiz-adv-x="403" 
d="M24 189c-0.666992 0 -0.999023 7.83301 -0.999023 23.5v37.5l1 20c72 12.667 129.833 19 173.5 19s75 -3.5 94 -10.5s34.5 -17.167 46.5 -30.5c22.667 -26 34 -60.667 34 -104c0 -70 -58.333 -151.333 -175 -244h175v-100h-345v96c80 55.333 137.333 100 172 134
c15.333 15.333 29.666 32.833 42.999 52.5s20 36.667 20 51s-2.33301 25.5 -7 33.5c-10 14.667 -33.333 22 -70 22h-161z" />
    <glyph glyph-name="threeinferior" unicode="&#x2083;" horiz-adv-x="412" 
d="M23 264c37.333 13.333 94 20.001 170 20.001h46c40 0 71.333 -11 94 -33s34 -51.333 34 -88v-30c0 -48.667 -19 -79.667 -57 -93c38 -14.667 57 -47.667 57 -99v-23c0 -81.333 -44.333 -122 -133 -122h-39c-75.333 0 -131.333 6.66699 -168 20l1 79l161 1
c27.333 0 45.833 2.66699 55.5 8s14.5 15.666 14.5 30.999v13c0 16 -5.5 27.167 -16.5 33.5s-27.5 9.83301 -49.5 10.5l-125 5v86l125 8c24 0.666992 41.167 4 51.5 10s15.5 16.333 15.5 31v12c0 15.333 -5.66699 26 -17 32s-28 9 -50 9h-170v79z" />
    <glyph glyph-name="fourinferior" unicode="&#x2084;" horiz-adv-x="434" 
d="M266 1v103l24 49h84v-152h49v-85l-49 -8v-106h-108v96h-231l-23 47l171 337h114l-139 -281h108z" />
    <glyph glyph-name="fiveinferior" unicode="&#x2085;" horiz-adv-x="418" 
d="M369 282l-0.00195312 -100.001h-216l-5 -89c15.333 12 44.333 18 87 18c11.333 0 23.666 -0.333008 36.999 -1c39.333 -2 68.5 -14.333 87.5 -37s28.5 -52.667 28.5 -90v-64c0 -41.333 -12.167 -72 -36.5 -92s-57.833 -30 -100.5 -30s-77.667 0.833008 -105 2.5
s-62 6.16699 -104 13.5v86h193c18.667 0 30.834 3.33301 36.501 10s8.5 16.334 8.5 29.001v34c0 8 -0.666992 14.667 -2 20s-5.16602 10.333 -11.499 15s-15.166 7 -26.499 7h-69c-24 0 -36 -9.33301 -36 -28h-93l15 296h312z" />
    <glyph glyph-name="sixinferior" unicode="&#x2086;" horiz-adv-x="438" 
d="M119 272c13.333 7.33301 29.498 12 48.498 14s46.333 3 82 3s82.834 -5.66699 141.501 -17v-83h-177c-39.333 0 -60.666 -25.667 -63.999 -77c0 -7.33301 -0.333008 -17 -1 -29c37.333 10 81 15 131 15s83.833 -10.333 101.5 -31s26.5 -49 26.5 -85v-67
c0 -76.667 -41.333 -115 -124 -115h-104c-22 0 -40.667 3.66699 -56 11c-37.333 16 -61.666 54 -72.999 114c-6.66699 33.333 -10 74 -10 122s3.5 87.667 10.5 119s16.667 55 29 71s25.166 27.667 38.499 35zM148.998 3c0 -68.667 20 -103 60 -103h54
c13.333 0 22.833 2.66699 28.5 8s8.5 14.333 8.5 27v33c0 14 -2.5 23.333 -7.5 28s-14.167 7 -27.5 7h-116z" />
    <glyph glyph-name="seveninferior" unicode="&#x2087;" horiz-adv-x="397" 
d="M11 183v100h347l28 -47l-183 -436h-119l161 383h-234z" />
    <glyph glyph-name="eightinferior" unicode="&#x2088;" horiz-adv-x="463" 
d="M50 -43c0 20 4.83301 36.6699 14.5 50.0029s23.5 21.666 41.5 24.999c-22.667 9.33301 -37.667 21.833 -45 37.5s-11 35.167 -11 58.5v42c0 42.667 11.667 72.667 35 90s55.333 26 96 26h112c40.667 0 71 -9 91 -27s30 -47.333 30 -88v-34
c0.666992 -12 -1.33301 -24 -6 -36c-8.66699 -22.667 -24 -36 -46 -40c13.333 -2 24.333 -9 33 -21c12.667 -18.667 19 -42.334 19 -71.001v-54c0 -58.667 -20.333 -94.334 -61 -107.001c-17.333 -5.33301 -37 -8 -59 -8h-116c-56 0 -92.333 13 -109 39
c-12.667 20 -19 44.333 -19 73v45zM306 -36.9971c0 24.667 -12.333 37.001 -37 37.001h-72c-14 0 -24 -2.83301 -30 -8.5s-9 -15.167 -9 -28.5v-34c0 -12.667 2.83301 -21.334 8.5 -26.001s16.167 -7 31.5 -7h70c14 0 23.833 2.5 29.5 7.5s8.5 13.5 8.5 25.5v34z
M158 128.004c0 -14 3.33203 -23.667 9.99902 -29s16.334 -8 29.001 -8h70c16.667 0 27.334 3.16699 32.001 9.5s7 15.5 7 27.5v23c0 16 -3.33301 26.667 -10 32s-17.334 8 -32.001 8h-63c-16 0 -27.167 -2.66699 -33.5 -8s-9.5 -16 -9.5 -32v-23z" />
    <glyph glyph-name="nineinferior" unicode="&#x2089;" horiz-adv-x="438" 
d="M158 289l103.001 0.000976562c22.667 0 41.667 -3.66699 57 -11c37.333 -16 61.666 -54.667 72.999 -116c6.66699 -33.333 10 -74.333 10 -123s-3.33301 -88.834 -10 -120.501s-16.167 -55.667 -28.5 -72s-25.166 -27.833 -38.499 -34.5c-22 -12 -58 -18 -108 -18
s-105 5 -165 15v84h176c40 0 61.333 26.333 64 79c0.666992 8 1 18 1 30c-37.333 -10 -80.833 -15 -130.5 -15s-83.334 10.5 -101.001 31.5s-26.5 49.833 -26.5 86.5v68c0 39.333 11 68.5 33 87.5s52.333 28.5 91 28.5zM142.001 119.001c0 -14 2.50098 -23.5 7.50098 -28.5
s14.5 -7.5 28.5 -7.5h114c0 50.667 -8.66699 82.667 -26 96c-8.66699 6.66699 -19.334 10 -32.001 10h-55c-13.333 0 -22.833 -2.83301 -28.5 -8.5s-8.5 -15.167 -8.5 -28.5v-33z" />
    <glyph glyph-name="Euro" unicode="&#x20ac;" horiz-adv-x="617" 
d="M247 728.5c26.667 7.66699 56.1689 11.5 88.502 11.5s75.333 -3.33301 129 -10s98.5 -15.334 134.5 -26.001v-102c-98 9.33301 -165.333 14 -202 14s-62.167 -1 -76.5 -3s-26.333 -4.83301 -36 -8.5s-17.834 -9 -24.501 -16s-11.834 -13.667 -15.501 -20
s-6.5 -15.166 -8.5 -26.499c-2.66699 -16.667 -4 -38.667 -4 -66l234 -8v-68l-234 -6v-68l234 -8v-68c-92 -2 -159 -4 -201 -6l-33 -2c0 -66 23 -106.333 69 -121c20 -6 43.333 -9 70 -9c53.333 0 118 5.66699 194 17l38 5v-100c-63.333 -26.667 -152 -40 -266 -40
c-72 0 -129.667 18.667 -173 56c-48 41.333 -72 105.333 -72 192l-77 8v68l77 8v68l-77 8v64l77 10c0 57.333 6.66699 102 20 134c5.33301 14.667 14 30.667 26 48s26.5 31.5 43.5 42.5s38.833 20.333 65.5 28z" />
    <glyph glyph-name="afii61289" unicode="&#x2113;" horiz-adv-x="461" 
d="M259 739c44 0 81 -14.6641 111 -43.9971s45 -71 45 -125c0 -65.333 -30 -132.333 -90 -201c-31.333 -36 -66.333 -68.333 -105 -97v-49c0 -38.667 3.83301 -64.834 11.5 -78.501s17.5 -23.334 29.5 -29.001s23 -9.33398 33 -11.001s21 -3.83398 33 -6.50098
c34 -8 52.333 -11.667 55 -11v-86c0.666992 -0.666992 -11.833 -1 -37.5 -1h-77.5l-39 1c-50 0 -87.167 13.833 -111.5 41.5s-36.5 74.167 -36.5 139.5v26c-7.33301 -5.33301 -18.333 -12 -33 -20l-24 66c16.667 14.667 35.667 33.334 57 56.001v278
c0 48.667 15.5 86 46.5 112s75.167 39 132.5 39zM291 574.003c0 6 -0.166992 12.167 -0.5 18.5s-2.83301 12.5 -7.5 18.5c-8 10 -19 15 -33 15c-10 0 -17.5 -3.5 -22.5 -10.5s-7.5 -15.833 -7.5 -26.5v-171c47.333 60 71 112 71 156z" />
    <glyph glyph-name="afii61352" unicode="&#x2116;" horiz-adv-x="1106" 
d="M54 0l-0.00488281 605.995c0 27.333 7 51.333 21 72c26.667 40.667 69.667 61 129 61c48 0 87 -15 117 -45c16.667 -17.333 27.334 -38 32.001 -62l144 -495c2.66699 -8.66699 7.33398 -12.167 14.001 -10.5s10 6.16699 10 13.5v426c0 58.667 15.333 101.334 46 128.001
s71.334 40 122.001 40h249c50.667 -0.666992 86.167 -14.5 106.5 -41.5s30.5 -73.5 30.5 -139.5c0 -40 -4.33301 -72.333 -13 -97c-18 -48 -63 -73 -135 -75h-44c-29.333 0.666992 -52.833 3.83398 -70.5 9.50098s-32.667 16.167 -45 31.5s-21 36.5 -26 63.5
s-7.5 62.833 -7.5 107.5h106c0 -62.667 7 -98 21 -106c6 -3.33301 15.333 -5 28 -5h32c18.667 0 31.334 4 38.001 12s10 28.333 10 61s-3.33301 53.334 -10 62.001s-22 13 -46 13c-53.333 1.33301 -95.5 2 -126.5 2s-52.667 -1.16699 -65 -3.5s-23.5 -6.5 -33.5 -12.5
c-18 -11.333 -27 -33.666 -27 -66.999v-423c0 -24.667 -6.66699 -47 -20 -67c-28.667 -42.667 -73 -64 -133 -64c-45.333 0 -81.666 14.667 -108.999 44c-17.333 18 -28.333 40.333 -33 67l-146 500c-1.33301 5.33301 -4 8.5 -8 9.5s-7.83301 -0.166992 -11.5 -3.5
s-5.5 -7.66602 -5.5 -12.999v-599h-141z" />
    <glyph glyph-name="trademark" unicode="&#x2122;" horiz-adv-x="705" 
d="M15 652v80h281v-80h-94v-269h-92v269h-95zM313 383l38 349h95l60 -205l48 205h98l42 -349h-91l-19 184l-37 -184h-81l-46 184l-15 -184h-92z" />
    <glyph glyph-name="estimated" unicode="&#x212e;" horiz-adv-x="692" 
d="M347 0c-92 0 -165.164 25.1719 -219.497 75.5049s-81.5 113.5 -81.5 189.5s28 140.333 84 193c28.667 25.333 60.167 44.166 94.5 56.499s74.166 18.5 119.499 18.5s84.333 -5.33301 117 -16s64 -27.334 94 -50.001c57.333 -44.667 88.333 -114.334 93 -209.001h-479
h-3.5h-4.5c-2.66699 -0.666992 -4 -4.33398 -4 -11.001v-133c0 -12.667 11.333 -27.334 34 -44.001c43.333 -32.667 95.333 -49 156 -49c36.667 0 72 7.83301 106 23.5s62.333 35.834 85 60.501h56c-38.667 -40.667 -76.834 -68.334 -114.501 -83.001
s-81.834 -22 -132.501 -22zM523.003 275.005l8.00098 -0.000976562c2 0 3.33301 0.166992 4 0.5s1 2.5 1 6.5v133c0 21.333 -21.167 43.166 -63.5 65.499s-84.5 33.5 -126.5 33.5c-25.333 0 -50.333 -3.66699 -75 -11s-45 -16.166 -61 -26.499
s-28.833 -20.666 -38.5 -30.999s-14.5 -18.5 -14.5 -24.5v-137c0 -4 0.666992 -6.5 2 -7.5s3.66602 -1.5 6.99902 -1.5h357z" />
    </font>
</defs>
</svg>
